<?xml version="1.0" encoding="UTF-8"?> <svg xmlns="http://www.w3.org/2000/svg" width="64" height="64" viewBox="0 0 64 64" fill="none"><path d="M56.5332 56.5332L47.1465 47.1465" stroke="#0C2233" stroke-width="3" stroke-linecap="round" stroke-linejoin="round"></path><path d="M28.9334 32.5867L36.1067 54.6667C36.88 57.0134 40.0267 57.3867 41.3334 55.3067C42.7467 53.04 44.1333 50.7733 45.5467 48.48C46.2933 47.28 47.28 46.2667 48.48 45.5467C50.7467 44.1333 53.0133 42.7467 55.3067 41.3334C57.4133 40.0267 57.0134 36.88 54.6667 36.1067L32.5867 28.9334C30.3467 28.2134 28.2134 30.3467 28.9334 32.5867Z" stroke="#0C2233" stroke-width="3" stroke-linecap="round" stroke-linejoin="round"></path><path d="M17.3333 17.3333L13.9199 13.9199" stroke="#0C2233" stroke-width="3" stroke-linecap="round" stroke-linejoin="round"></path><path d="M12.1606 29.6001H7.33398" stroke="#0C2233" stroke-width="3" stroke-linecap="round" stroke-linejoin="round"></path><path d="M17.1731 41.9467L13.7598 45.36" stroke="#0C2233" stroke-width="3" stroke-linecap="round" stroke-linejoin="round"></path><path d="M29.6016 12.16V7.33337" stroke="#0C2233" stroke-width="3" stroke-linecap="round" stroke-linejoin="round"></path><path d="M41.9473 17.1736L45.3606 13.7603" stroke="#0C2233" stroke-width="3" stroke-linecap="round" stroke-linejoin="round"></path></svg> 