<svg xmlns="http://www.w3.org/2000/svg" width="1440" height="653" fill="none"><mask id="a" width="1441" height="653" x="0" y="0" maskUnits="userSpaceOnUse" style="mask-type:alpha"><path fill="#0C2233" d="M0 0h1440v653H0z"/></mask><g mask="url(#a)"><path fill="#0C2233" d="M0 0h1440v653H0z"/><path stroke="#CEFD94" stroke-linecap="round" stroke-linejoin="round" stroke-width="4.013" d="M-116.961 699.768c.739-15.982 5.339-32.86 13.034-50.28 12.552-28.445 25.587-56.791 36.556-85.665 7.401-19.473 11.776-39.004 13.786-58.521 3.647-35.417-2.509-64.785-14.267-90.837-9.073-20.07-15.93-41.855-20.453-65.382-1.945-10.065-2.242-21.321-5.9-30.163-6.187-14.992-17.348-23.217-30.834-27.973-14.085-4.94-29.441-6.255-45.763-3.026-13.939 2.754-28.332 7.133-41.259 22.508-1.803 2.14-3.331 4.353-4.79 6.617-12.448 19.448-25.061 38.805-36.684 58.854-3.632 6.269-7.012 12.64-10.209 19.079"/><path stroke="#CEFD94" stroke-linecap="round" stroke-linejoin="round" stroke-width="2.006" d="M73.21 812.072a289 289 0 0 1-1.852-3.386c-8.391-15.758-14.77-33.207-18.177-52.861-1.666-9.565-2.006-20.005-1.405-30.747 1.157-20.37-1.692-38.549-6.83-55.454-4.441-14.631-2.211-31.515 2.652-49.011 4.659-16.742 8.881-33.473 11.045-49.931.71-5.429 1.425-11.101 1.358-16.48-.189-13.035 1.73-26.728 2.826-40.175.94-11.28 2.295-22.671 3.56-33.998 1.463-13.196 2.923-26.438 4.958-39.809 1.118-7.323 1.593-14.656 2.3-21.98 1.566-16.14 1.503-31.759.824-47.018-1.262-29.1-7.97-53.85-25.402-69.813-7.024-6.448-12.927-14.04-15.957-25.374-2.469-9.188-1.936-19.102-.574-29.244 1.16-8.781 1.97-17.502 2.74-26.124 1.537-17.301 2.985-34.513 5.184-51.997 1.223-9.739 4.03-19.606 4.838-29.367.92-11.272-1.502-19.863-6.596-26.025C28.51 100.933 18.345 88.502 7.374 77.083.39 69.79-7.316 64.257-18.598 65.833c-6.17.857-12.443 3.513-18.697 6.29-11.542 5.096-23.112 10.175-34.63 15.9-10.646 5.291-21.297 10.587-31.918 16.273-7.648 4.089-15.337 8.327-23.034 12.197-6.964 3.491-13.873 7.868-20.882 10.873-20.044 8.566-39.468 11.554-58.868 14.131-34.674 4.59-68.65 5.913-102.918 8.713-15.37 1.251-30.557 1.818-46.215 4.383-7.086 1.154-14.14 2.912-21.217 5.266"/><path stroke="#FF6A39" stroke-linecap="round" stroke-linejoin="round" stroke-width="5.016" d="M-9.477 890.122c-4.276-21.115-10.975-40.436-21.309-57.122-12.353-19.95-24.095-40.569-32.93-64.037-6.31-16.781-10.648-34.842-13.453-54.097-.969-6.649-1.934-13.213-2.304-20.179-.82-15.393 4.075-30.847 12.761-45.265 16.98-28.175 28.723-58.05 40.097-87.997 10.468-27.556 13.6-53.889 10.471-78.99-1.21-9.772-.383-20.71-.285-31.2.171-20.962-5.588-37.244-14.318-51.962-10.37-17.495-22.142-33.735-28.146-55.622-2.724-9.966-4.05-20.491-3.11-32.034 1.268-15.619-1.924-28.273-6.379-40.313-4.498-12.105-11.261-21.535-21.034-27.361-8.28-4.929-17.965-5.618-28.647-3.19-14.418 3.317-28.971 8.241-43.433 12.216-9.211 2.532-18.117 2.673-27.509 5.918-15.03 5.219-27.49 16.598-38.422 32.212a1596 1596 0 0 0-49.856 75.792"/><path stroke="#0A91AB" stroke-linecap="round" stroke-linejoin="round" stroke-width="1.003" d="M45.97 837.785c-4.33-7.666-8.25-15.738-11.44-24.523-5.8-15.923-9.47-33.29-12.527-51.193-4.184-24.567-8.547-49.009-15.27-72.023-6.582-22.458-1.13-48.072 11.634-74.283 5.757-11.8 10.253-23.6 13.188-35.979 2.485-10.487 3.017-20.375 4.194-30.522 1.13-9.837 1.782-19.53 2.934-29.375.908-7.747 1.704-15.58 2.203-23.243.714-11.004 2.506-22.273 3.56-33.357 1.43-15.099 2.495-30.052 1.569-44.147-.976-14.906-2.848-29.341-6.432-42.876-5.08-19.142-12.967-35.426-23.463-49.382C6.364 313.935-.17 298.445-1.92 278.521c-1.25-13.993-.366-28.418.975-43.297 1.69-18.962 5.353-38.531 4.361-56.731-2.078-37.753-18.407-65.001-55.386-62.496-11.032.757-22.81 5.47-34.597 12.048-13.92 7.759-27.863 15.522-41.687 23.664-23.349 13.732-46.725 27.236-70.37 35.491-13.612 4.756-26.224 12.36-38.453 23.459-8.003 7.27-15.058 16.155-22.482 24.389-12.155 13.494-17.73 13.685-23.153.302-2.733-6.708-5.514-13.322-8.751-19.584-6.15-12.049-15.082-18.934-27.71-20.887-14.441-2.258-28.881-4.503-43.674-5.658"/><path stroke="#FF6A39" stroke-linecap="round" stroke-linejoin="round" stroke-width="10.032" d="M18.604 863.616a149 149 0 0 0-4.535-7.83C7.44 845.126 4.037 830.933.4 817.368c-6.08-22.685-12.138-45.379-17.847-68.291-2.985-11.936-7.252-22.879-10.258-34.833-7.881-31.314-2.783-65.29 14.238-100.887 12.969-27.119 21.674-54.392 26.772-82.001 2.313-12.494 2.838-24.86 3.592-37.183 1.014-16.395 2.048-32.749 1.802-48.719-.496-32.202-7.625-59.266-23.287-80.308-7.264-9.789-15.425-18.689-20.27-31.317-2.784-7.246-3.87-15.528-5.3-23.557-2.864-15.903-4.583-32.536-4.056-50.124.245-7.774.648-15.662.666-23.29.082-25.642-3.042-49.305-17.213-64.655-8.02-8.713-18.947-10.398-31.9-7.157-15.543 3.88-30.156 15.085-45.062 24.008-9.361 5.601-18.563 11.914-27.995 17.174-8.677 4.82-17.224 7.698-25.863 10.935-23.071 8.662-43.355 25.454-60.329 50.431-12.955 19.038-27.137 35.883-44.46 47.883-3.945 2.737-7.947 5.184-11.921 7.808"/></g></svg>