<?xml version="1.0" encoding="UTF-8"?> <svg xmlns="http://www.w3.org/2000/svg" width="1440" height="878" viewBox="0 0 1440 878" fill="none"><g clip-path="url(#clip0_2244_5039)"><rect width="1440" height="878" fill="#FFFEFB"></rect><path d="M-6.11056 830.747C23.4972 803.881 59.0353 786.236 96.4326 771.786C117.048 763.824 138.857 758.973 159.146 749.992C172.886 743.886 186.019 736.767 196 725.026C206.26 712.968 210.495 699.755 206.162 684.202C199.128 659.039 194.817 633.154 186.923 608.217C180.379 587.511 172.715 567.208 165.455 546.74C154.34 515.365 143.052 484.035 135.988 451.408C131.093 428.775 130.121 405.907 133.393 383.114C135.701 367.166 141.758 351.949 146.393 336.481C153.116 314.209 159.675 291.866 166.426 269.596C173.972 244.7 181.028 219.635 188.74 194.777C193.116 180.653 198.414 166.619 200.989 152.133C205.259 128.315 201.378 105.601 186.144 85.7741C170.859 65.8609 157.474 59.5151 134.069 52.4895C117.694 47.5736 101.042 44.2797 84.1103 42.2222C71.6395 40.7212 60.671 44.1017 51.5793 53.4227C37.5353 67.8362 20.2554 77.1999 1.05037 83.0212C-6.91299 85.4464 -16.6481 86.591 -26.6269 87.2421" stroke="#76B39D" stroke-width="1.75163" stroke-linecap="round" stroke-linejoin="round"></path><path d="M-55.2415 827.6C-51.7475 823.666 -48.1819 819.783 -44.5532 815.936C-19.6507 789.533 9.08291 768.439 40.9304 751.323C67.0868 737.275 94.3829 725.95 122.694 716.685C135.512 712.501 147.365 705.498 152.109 691.37C155.413 681.527 154.917 671.303 153.299 661.432C147.795 627.762 140.417 594.425 130.259 561.857C121.028 532.245 109.949 503.266 97.407 474.78C89.5481 456.946 85.3727 437.949 84.4 418.037C83.4291 398.096 88.2688 379.605 94.1123 361.176C101.103 339.062 110.332 317.556 115.748 295.009C120.342 275.917 122.473 256.282 122.38 236.675C122.25 208.377 119.134 180.289 113.171 152.631C110.834 141.74 107.027 131.031 98.463 122.956C90.1055 115.085 80.7027 111.968 68.7135 113.446C54.7406 115.138 41.8057 120.653 27.7846 122.227C16.2301 123.513 4.69481 125.353 -6.96337 126.438C-14.4507 127.132 -21.9399 127.785 -29.4238 128.498" stroke="#0C2233" stroke-width="8.75817" stroke-linecap="round" stroke-linejoin="round"></path><path d="M-75.8562 826.267C-69.9316 818.844 -63.6618 811.657 -57.0293 804.724C-34.0324 780.683 -7.59407 760.613 20.4717 742.627C46.1924 726.134 73.249 711.948 99.801 696.9C108.302 692.085 116.139 686.699 121.263 678.136C126.832 668.824 126.697 658.233 125.617 648.396C123.294 626.896 119.864 605.47 115.47 584.231C107.487 545.676 95.2975 508.641 77.0157 473.618C69.4951 459.173 65.0693 443.866 63.6997 427.435C61.4617 400.457 67.846 375.185 78.6021 350.91C86.7139 332.596 93.5 313.92 98.2239 294.614C101.898 279.64 103.492 264.179 102.612 248.838C101.014 221.119 94.4947 194.658 79.7819 170.519C72.968 159.377 63.6591 153.647 50.5489 152.607C33.9166 151.32 17.2389 151.061 0.680275 152.453C-10.0856 153.361 -20.7587 154.702 -31.3295 156.616" stroke="#CEFD94" stroke-width="4.37909" stroke-linecap="round" stroke-linejoin="round"></path><path d="M-73.9879 792.829C-59.4662 777.445 -43.715 763.221 -27.1173 749.787C-8.23032 734.485 12.3166 721.261 32.1877 707.214C48.6718 695.547 65.7093 684.36 77.3266 667.296C83.6182 658.058 86.7048 647.64 89.1182 636.712C92.1064 623.145 92.1146 609.587 91.3876 596.095C89.7917 567.1 82.7178 539.32 71.0249 512.588C62.9858 494.188 52.9964 476.858 44.0589 458.931C35.0729 440.889 31.5616 421.962 34.6278 402.192C37.2304 385.568 45.488 370.825 52.9774 355.872C62.1842 337.515 71.3669 319.102 77.0166 299.297C85.3705 270.171 85.2129 241.874 68.5125 215.277C58.5403 199.369 44.0878 189.507 26.0762 184.595C4.23473 178.669 -15.4417 183.72 -33.8752 193.575" stroke="#FF6A39" stroke-width="3.50327" stroke-miterlimit="10"></path><path d="M-72.7262 773.609C-59.3193 760.897 -45.1973 748.906 -30.6987 737.237C-13.1632 723.156 4.63609 709.404 22.2743 695.469C35.5547 684.996 47.8686 673.849 57.3573 659.991C64.7063 649.204 69.3955 637.08 72.0249 624.244C78.7951 591.035 71.2133 559.607 60.1414 528.685C53.373 509.806 43.733 492.336 32.8436 475.481C23.6098 461.18 16.447 446.093 13.4403 428.949C10.0035 409.414 14.0181 391.765 23.3572 374.755C28.3154 365.68 35.1019 357.838 40.576 349.102C53.0212 329.277 61.4295 307.7 67.6981 285.344C75.4884 257.465 60.8994 221.643 35.8869 207.277C14.956 195.256 -7.95506 198.196 -27.0222 212.07C-30.0204 214.251 -32.8686 216.571 -35.6024 219.001" stroke="#0A91AB" stroke-width="2.18954" stroke-linecap="round" stroke-linejoin="round"></path><path d="M-71.2621 751.242C-47.7497 730.71 -23.5104 710.999 0.264697 690.739C10.6521 681.864 21.7733 673.848 30.1897 663.016C41.9824 647.83 49.2425 630.77 52.7638 611.726C57.5766 585.552 50.7325 561.547 42.0609 537.569C33.4183 513.647 18.558 493.234 5.39433 471.811C-4.85691 455.14 -12.8219 437.464 -17.4097 418.359C-18.8608 412.34 -18.0897 399.555 -18.0897 399.555C-17.6413 381.517 -7.45405 368.567 4.99838 356.956C14.5196 348.083 25.2232 340.43 32.4255 329.272C43.0738 312.789 51.1195 295.253 54.0756 275.839C57.2382 255.018 42.2816 228.558 22.7282 222.941C6.12341 218.177 -8.7837 222.814 -20.5331 234.413C-27.806 241.588 -33.4158 249.725 -38.2786 258.313" stroke="#0C2233" stroke-width="0.875817" stroke-linecap="round" stroke-linejoin="round"></path><path d="M-29.3285 829.265C-28.6098 828.548 -27.8818 827.832 -27.1541 827.12C-0.776258 801.475 30.2144 783 62.8157 766.873C83.6105 756.587 105.794 749.865 128.253 743.717C143.235 739.612 158.003 733.18 170.725 723.839C178.771 717.909 183.636 709.495 184.881 698.883C186.798 682.465 182.897 666.767 179.585 651.167C171.791 614.766 161.022 579.094 147.692 544.327C137.307 517.201 126.95 490.076 117.054 462.79C112.828 451.168 110.58 438.945 109.593 426.382C108.516 412.644 109.567 399.121 111.477 385.736C113.49 371.66 117.566 357.797 122.26 344.366C128.591 326.246 133.733 307.883 138.079 289.221C142.505 270.202 145.643 251.018 148.756 231.778C152.503 208.624 155.101 185.395 155.707 162.074C156.351 137.335 150.61 113.897 133.956 94.7302C121.764 80.7173 105.556 72.9418 87.3837 68.0253C70.6221 63.4753 58.0532 69.7047 45.3701 78.9688C26.0653 93.0541 4.10291 100.259 -19.5705 103.182C-22.2947 103.523 -25.0234 103.79 -27.7538 104.015" stroke="#FF6A39" stroke-width="0.875817" stroke-linecap="round" stroke-linejoin="round"></path><path d="M-69.1931 719.695C-68.4387 719.073 -67.6889 718.451 -66.93 717.834C-48.7329 703.044 -28.6107 690.598 -11.5243 674.397C1.62751 661.907 15.4201 649.93 22.4103 632.464C28.6594 616.818 29.8194 600.766 29.1931 584.079C28.1728 557.314 15.7415 535.187 1.85644 513.69C-14.3289 488.59 -32.2001 464.643 -50.5233 441.003" stroke="#76B39D" stroke-width="1.75163" stroke-linecap="round" stroke-linejoin="round"></path><path d="M-66.7882 682.957C-53.3501 672.635 -40.0068 662.186 -27.5355 650.685C-17.3771 641.296 -9.22413 630.412 -4.4131 617.403C2.90514 597.56 0.252148 578.434 -8.58292 559.676C-16.8824 542.093 -28.2174 526.629 -40.3929 511.53C-44.809 506.05 -49.4334 500.807 -54.2448 495.766" stroke="#FF6A39" stroke-width="2.18954" stroke-linecap="round" stroke-linejoin="round"></path></g><defs><clipPath id="clip0_2244_5039"><rect width="1440" height="878" fill="white"></rect></clipPath></defs></svg> 