<?xml version="1.0" encoding="UTF-8"?> <svg xmlns="http://www.w3.org/2000/svg" width="24" height="24" viewBox="0 0 24 24" fill="none"><path d="M21.2509 18.32C21.2609 19.48 20.3209 20.42 19.1709 20.43C19.0809 20.43 19.0009 20.43 18.9109 20.42C17.8409 20.26 17.0509 19.33 17.0809 18.24V5.76996C17.0509 4.67996 17.8409 3.74996 18.9209 3.58996C20.0709 3.45996 21.1109 4.27997 21.2409 5.42997C21.2509 5.50997 21.2509 5.59997 21.2509 5.67997V18.32V18.32Z" stroke="#76B39D" stroke-width="1.5" stroke-linecap="round" stroke-linejoin="round"></path><path d="M4.84 20.43C5.99427 20.43 6.92999 19.4943 6.92999 18.34C6.92999 17.1857 5.99427 16.25 4.84 16.25C3.68572 16.25 2.75 17.1857 2.75 18.34C2.75 19.4943 3.68572 20.43 4.84 20.43Z" stroke="#76B39D" stroke-width="1.5" stroke-linecap="round" stroke-linejoin="round"></path><path d="M11.9509 9.89001C10.7909 9.95001 9.88088 10.93 9.91088 12.09V17.72C9.91088 19.25 10.5809 20.18 11.5709 20.37C12.7109 20.6 13.8209 19.87 14.0509 18.73C14.0809 18.59 14.0909 18.45 14.0909 18.31V12C14.0909 10.84 13.1509 9.89001 11.9909 9.89001C11.9809 9.89001 11.9609 9.89001 11.9509 9.89001Z" stroke="#76B39D" stroke-width="1.5" stroke-linecap="round" stroke-linejoin="round"></path></svg> 