<?xml version="1.0" encoding="UTF-8"?> <svg xmlns="http://www.w3.org/2000/svg" width="64" height="64" viewBox="0 0 64 64" fill="none"><path d="M31.9467 46.5335C42.7715 46.5335 51.5466 37.7583 51.5466 26.9335C51.5466 16.1087 42.7715 7.3335 31.9467 7.3335C21.1219 7.3335 12.3467 16.1087 12.3467 26.9335C12.3467 37.7583 21.1219 46.5335 31.9467 46.5335Z" stroke="#0C2233" stroke-width="3" stroke-linecap="round" stroke-linejoin="round"></path><path d="M15.9997 38.6667L9.33301 50.0534L17.1997 49.6267L20.773 56.6401L26.6663 46.6667C22.213 45.5201 18.6397 42.2934 15.9997 38.6667Z" stroke="#0C2233" stroke-width="3" stroke-linecap="round" stroke-linejoin="round"></path><path d="M47.9997 38.6666C45.3863 42.32 41.7863 45.4933 37.333 46.6666L43.2263 56.6666L46.7996 49.6533L54.6663 50.08L47.9997 38.6666Z" stroke="#0C2233" stroke-width="3" stroke-linecap="round" stroke-linejoin="round"></path><path d="M43.1459 24.4534C43.6526 23.9734 43.3593 23.0934 42.6659 23.0134L36.2393 22.08C35.9726 22.0267 35.7326 21.8667 35.5993 21.6L32.7193 15.76C32.3993 15.12 31.4926 15.12 31.1993 15.76L28.3193 21.6C28.1859 21.84 27.946 22.0267 27.6793 22.08L21.2526 23.0134C20.5593 23.12 20.2926 23.9734 20.7726 24.4534L25.4393 28.9867C25.6526 29.2 25.7326 29.4667 25.6793 29.7333L24.586 36.1333C24.4526 36.8267 25.1993 37.36 25.8126 37.0134L31.5726 34C31.8126 33.8667 32.1327 33.8667 32.3727 34L38.1326 37.0134C38.7459 37.3334 39.4926 36.8 39.3593 36.1333L38.266 29.7333C38.2126 29.4667 38.3193 29.1733 38.506 28.9867L43.1459 24.4534Z" stroke="#0C2233" stroke-width="3" stroke-linecap="round" stroke-linejoin="round"></path></svg> 