<?xml version="1.0" encoding="UTF-8"?> <svg xmlns="http://www.w3.org/2000/svg" xmlns:xlink="http://www.w3.org/1999/xlink" id="a" data-name="Layer 1" width="550.21" height="464.43" viewBox="0 0 550.21 464.43"><defs><style> .d { mask: url(#b); } .e, .f, .g, .h, .i, .j, .k, .l { fill: none; } .e, .m, .n, .o, .p, .q { stroke-width: 0px; } .f { stroke: #76b39d; stroke-width: .96px; } .f, .g, .h, .i, .j { stroke-linecap: round; stroke-linejoin: round; } .g { stroke: #0a91ab; stroke-width: 1.2px; } .h { stroke-width: .48px; } .h, .l { stroke: #ff6a39; } .i { stroke: #0c2233; stroke-width: 4.82px; } .j { stroke: #cefd94; stroke-width: 2.41px; } .m { fill: #0c2233; } .n { fill: #0a91ab; } .o { fill: #cefd94; } .p { fill: #fff; } .q { fill: #fffefb; } .k { stroke: rgba(0, 0, 0, .12); stroke-width: .66px; } .l { stroke-miterlimit: 10; stroke-width: 1.93px; } </style><mask id="b" data-name="mask" x="154.2" y="19.07" width="325.15" height="445.36" maskUnits="userSpaceOnUse"><g id="c" data-name="mask0 2757 9733"><rect class="q" x="154.2" y="32.11" width="254.76" height="366.22"></rect></g></mask></defs><path class="n" d="m550.21,178.1L2.54,76C.4,91.92-.53,108.01.3,124.32c1.06,20.34,4.6,40.03,10.17,59.38,11,38.2,29.83,72.29,55.73,102.51,14.8,17.41,31.59,32.44,50.11,45.58l236.88,44.16c10.98-2.81,21.88-6.33,32.54-10.54,34.75-13.58,65.65-33.66,92.45-59.84l-.15-.03c9.14-8.81,17.55-18.25,25.2-28.16,12.7-16.39,23.29-34.25,31.6-53.45,6.33-14.71,11.34-30.17,15.3-45.85l.08.02Z"></path><path class="o" d="m100.55,6.41v427.17l256.59-6.34V0L100.55,6.41Z"></path><path class="e" d="m100.55,6.41v427.17l256.59-6.34V0L100.55,6.41Z"></path><rect class="p" x="154.2" y="32.11" width="254.76" height="366.22"></rect><rect class="k" x="154.53" y="32.44" width="254.1" height="365.56"></rect><rect class="p" x="154.2" y="32.11" width="254.76" height="366.22"></rect><rect class="k" x="154.53" y="32.44" width="254.1" height="365.56"></rect><rect class="p" x="154.2" y="32.11" width="254.76" height="366.22"></rect><rect class="k" x="154.53" y="32.44" width="254.1" height="365.56"></rect><rect class="p" x="154.2" y="32.11" width="254.76" height="366.22"></rect><rect class="k" x="154.53" y="32.44" width="254.1" height="365.56"></rect><g class="d"><g><rect class="p" x="154.2" y="32.11" width="254.76" height="366.22"></rect><rect class="k" x="154.53" y="32.44" width="254.1" height="365.56"></rect><path class="f" d="m438.13,462.02c-15.34-15.99-34.29-27.06-54.38-36.4-11.08-5.15-22.92-8.61-33.78-14.32-7.35-3.88-14.33-8.3-19.4-15.19-5.21-7.07-7.06-14.58-4.1-23.1,4.81-13.77,8.14-28.04,13.42-41.66,4.38-11.31,9.35-22.35,14.11-33.5,7.29-17.09,14.67-34.16,19.78-52.09,3.54-12.44,4.92-25.15,3.96-37.96-.68-8.96-3.46-17.65-5.45-26.43-2.89-12.64-5.68-25.32-8.58-37.96-3.24-14.13-6.21-28.34-9.54-42.46-1.89-8.02-4.29-16.02-5.18-24.18-1.48-13.42,1.51-25.94,10.64-36.45,9.17-10.56,16.78-13.63,29.95-16.74,9.21-2.17,18.52-3.43,27.93-3.99,6.93-.4,12.86,1.86,17.53,7.37,7.21,8.52,16.4,14.33,26.77,18.24,4.3,1.63,9.63,2.6,15.11,3.31"></path><path class="i" d="m465.34,462.02c-1.78-2.31-3.61-4.6-5.47-6.87-12.77-15.58-27.84-28.33-44.78-38.97-13.91-8.73-28.56-15.99-43.84-22.14-6.92-2.78-13.2-7.09-15.3-15.12-1.46-5.6-.81-11.28.45-16.72,4.28-18.57,9.58-36.89,16.39-54.68,6.19-16.18,13.37-31.94,21.35-47.37,5-9.66,8-20.1,9.28-31.16,1.27-11.08-.71-21.55-3.26-32.02-3.04-12.56-7.34-24.86-9.49-37.61-1.83-10.8-2.28-21.81-1.5-32.73,1.12-15.76,3.88-31.3,8.19-46.5,1.69-5.99,4.19-11.82,9.21-16.02,4.9-4.1,10.21-5.51,16.77-4.27,7.65,1.43,14.58,4.95,22.26,6.31,6.33,1.12,12.63,2.54,19.02,3.55,4.11.65,8.21,1.27,12.32,1.93"></path><path class="j" d="m476.77,462.02c-3-4.34-6.19-8.56-9.6-12.66-11.81-14.19-25.66-26.29-40.49-37.29-13.59-10.08-28-18.93-42.1-28.23-4.52-2.98-8.64-6.25-11.15-11.2-2.73-5.38-2.26-11.28-1.3-16.72,2.08-11.9,4.76-23.72,7.97-35.4,5.83-21.2,13.93-41.41,25.32-60.29,4.68-7.79,7.69-16.16,9.06-25.27,2.23-14.95-.36-29.26-5.4-43.15-3.8-10.49-6.86-21.13-8.75-32.05-1.47-8.47-1.78-17.14-.73-25.66,1.91-15.39,6.48-29.9,15.5-42.84,4.17-5.97,9.52-8.84,16.8-8.96,9.23-.14,18.44.29,27.53,1.65,5.91.88,11.75,2,17.52,3.43"></path><path class="l" d="m476.94,443.35c-7.45-9.07-15.62-17.55-24.29-25.61-9.87-9.18-20.72-17.26-31.18-25.78-8.67-7.07-17.67-13.9-23.45-23.81-3.13-5.37-4.45-11.28-5.38-17.45-1.15-7.66-.65-15.22.25-22.71,1.95-16.1,6.89-31.33,14.33-45.82,5.12-9.97,11.28-19.28,16.88-28.96,5.63-9.74,8.27-20.16,7.31-31.29-.82-9.35-4.84-17.85-8.42-26.45-4.41-10.55-8.8-21.13-11.18-32.36-3.54-16.52-2.4-32.28,7.8-46.52,6.1-8.52,14.44-13.51,24.57-15.62,12.28-2.54,22.96.95,32.78,7.09"></path><path class="g" d="m476.94,432.61c-6.94-7.55-14.29-14.72-21.87-21.73-9.17-8.45-18.49-16.74-27.72-25.11-6.95-6.3-13.34-12.94-18.07-20.99-3.66-6.27-5.8-13.18-6.78-20.43-2.51-18.74,2.84-35.99,10.1-52.83,4.44-10.28,10.41-19.68,17.05-28.7,5.63-7.65,10.15-15.81,12.44-25.25,2.62-10.76,1.06-20.74-3.47-30.54-2.4-5.23-5.86-9.83-8.56-14.89-6.14-11.48-9.99-23.79-12.62-36.47-3.27-15.81,6.11-35.26,20.46-42.39,12.01-5.97,24.55-3.54,34.57,4.86,1.58,1.32,3.06,2.71,4.48,4.16"></path><path class="h" d="m450.99,462.02c-.37-.42-.74-.85-1.12-1.27-13.6-15.2-30.02-26.57-47.41-36.69-11.09-6.45-23.08-10.97-35.24-15.17-8.11-2.81-16.02-6.9-22.69-12.55-4.22-3.58-6.59-8.44-6.89-14.39-.45-9.21,2.28-17.82,4.69-26.4,5.64-20.01,12.9-39.51,21.54-58.42,6.73-14.75,13.45-29.51,19.92-44.36,2.76-6.33,4.45-13.06,5.46-20.02,1.1-7.62,1.02-15.19.46-22.71-.59-7.91-2.33-15.78-4.42-23.42-2.82-10.32-4.98-20.72-6.69-31.27-1.74-10.75-2.76-21.55-3.77-32.37-1.21-13.03-1.78-26.06-1.26-39.07.56-13.81,4.59-26.66,14.49-36.76,7.24-7.38,16.47-11.15,26.68-13.26,9.42-1.95,16.12,1.95,22.77,7.55,10.13,8.52,21.98,13.29,34.93,15.74,1.49.28,2.98.53,4.48.75"></path><path class="e" d="m240.58,59.93c0-.34-.14-.66-.38-.89-.23-.23-.55-.35-.87-.35h-.03l-59.58,1.52c-.68.02-1.22.57-1.22,1.25v11.91c0,.34.14.66.38.89.23.23.55.36.87.36h.03l59.59-1.39c.68-.02,1.22-.57,1.22-1.25v-12.03s-.01,0-.01,0Zm-1.25,0v4.03s-7.26-.01-7.26-.01h-.06v1.46h4.99l.04,3.87h-5.03v2.86s-6.54.15-6.54.15v-12l13.85-.35h0Zm-40.42,12.98c-.53-.23-1.02-.52-1.46-.85-.77-.59-1.39-1.31-1.85-2.13h0l-.05-.08c-.24-.46-.43-.93-.56-1.4-.15-.57-.22-1.15-.22-1.78,0-.7,0-1.39,0-2.09v-3.5l6.42-.16v1.29c0,1.41,0,2.82,0,4.23,0,.16.03.3.08.41l.03.06s.05.07.09.1c0,0,.01,0,.01.01.06.05.13.08.21.1.04,0,.08.01.12.01.04,0,.08,0,.12-.01.08-.02.15-.05.21-.1,0,0,0,0,.01-.01.03-.03.06-.06.09-.1l.03-.06c.05-.11.07-.24.07-.41,0-1.41,0-2.82,0-4.23v-1.32l6.45-.16v1.05c0,1.58,0,3.21,0,4.82,0,.56-.05,1.07-.14,1.51-.16.81-.49,1.58-.96,2.29-.52.78-1.18,1.43-1.95,1.94-.24.16-.49.3-.74.43h-.02s-5.99.15-5.99.15h0Zm11.42-12.24l13.82-.35v3.63h-7.27v1.46h4.99v3.87h-1.38c-1.12,0-3.62,0-3.62,0,0,0,0,1.92,0,2.76v.46l-6.54.15v-11.97h0Zm-16.88.43v5.6s-1.61,0-2.3,0h-1.32v6.42l-6.41.15v-6.57l-3.67-.02v-5.23l13.7-.35h0Z"></path><path class="m" d="m240.58,59.93c0-.34-.14-.66-.38-.89-.23-.23-.55-.35-.87-.35h-.03l-59.58,1.52c-.68.02-1.22.57-1.22,1.25v11.91c0,.34.14.66.38.89.23.23.55.36.87.36h.03l59.59-1.39c.68-.02,1.22-.57,1.22-1.25v-12.03s-.01,0-.01,0Zm-1.25,0v4.03s-7.26-.01-7.26-.01h-.06v1.46h4.99l.04,3.87h-5.03v2.86s-6.54.15-6.54.15v-12l13.85-.35h0Zm-40.42,12.98c-.53-.23-1.02-.52-1.46-.85-.77-.59-1.39-1.31-1.85-2.13h0l-.05-.08c-.24-.46-.43-.93-.56-1.4-.15-.57-.22-1.15-.22-1.78,0-.7,0-1.39,0-2.09v-3.5l6.42-.16v1.29c0,1.41,0,2.82,0,4.23,0,.16.03.3.08.41l.03.06s.05.07.09.1c0,0,.01,0,.01.01.06.05.13.08.21.1.04,0,.08.01.12.01.04,0,.08,0,.12-.01.08-.02.15-.05.21-.1,0,0,0,0,.01-.01.03-.03.06-.06.09-.1l.03-.06c.05-.11.07-.24.07-.41,0-1.41,0-2.82,0-4.23v-1.32l6.45-.16v1.05c0,1.58,0,3.21,0,4.82,0,.56-.05,1.07-.14,1.51-.16.81-.49,1.58-.96,2.29-.52.78-1.18,1.43-1.95,1.94-.24.16-.49.3-.74.43h-.02s-5.99.15-5.99.15h0Zm11.42-12.24l13.82-.35v3.63h-7.27v1.46h4.99v3.87h-1.38c-1.12,0-3.62,0-3.62,0,0,0,0,1.92,0,2.76v.46l-6.54.15v-11.97h0Zm-16.88.43v5.6s-1.61,0-2.3,0h-1.32v6.42l-6.41.15v-6.57l-3.67-.02v-5.23l13.7-.35h0Z"></path><path class="e" d="m187.4,201.78c-1.54,0-2.9-.24-4.09-.71-1.19-.49-2.2-1.18-3.02-2.06-.82-.88-1.45-1.91-1.88-3.08-.41-1.19-.62-2.49-.62-3.91,0-1.89.39-3.55,1.17-4.99.8-1.46,1.92-2.6,3.36-3.42,1.44-.82,3.13-1.23,5.08-1.23,1.48,0,2.81.24,4,.71s2.2,1.14,3.02,2c.84.86,1.48,1.88,1.91,3.05.45,1.17.68,2.46.68,3.88,0,1.87-.38,3.54-1.14,5.02-.74,1.48-1.83,2.64-3.26,3.48-1.42.84-3.15,1.26-5.2,1.26Zm0-4.93c.94,0,1.71-.2,2.31-.58.62-.39,1.07-.96,1.35-1.69.29-.74.43-1.61.43-2.62,0-.82-.15-1.58-.46-2.28-.29-.7-.73-1.26-1.32-1.69s-1.37-.65-2.31-.65-1.69.22-2.31.65c-.6.43-1.05.99-1.35,1.69-.29.7-.43,1.46-.43,2.28,0,1,.14,1.88.43,2.62.29.74.73,1.3,1.32,1.69.62.39,1.4.58,2.34.58Zm26.68-3.02c0,2.52-.42,4.48-1.26,5.88-.84,1.38-2.11,2.06-3.82,2.06-.57,0-1.11-.08-1.6-.25-.49-.16-.94-.45-1.35-.86-.39-.41-.74-.97-1.05-1.69-.29-.72-.51-1.62-.68-2.71l.18-2.22c0,.64.08,1.18.25,1.63.16.45.41.8.74,1.05.33.23.72.34,1.17.34.82,0,1.4-.28,1.72-.83.35-.57.52-1.37.52-2.37,0-.94-.17-1.68-.52-2.22-.33-.53-.9-.8-1.72-.8-.45,0-.84.11-1.17.34s-.57.55-.74.99-.25.96-.25,1.57l-.18-2.09c.23-1.46.57-2.59,1.02-3.39.47-.8,1.03-1.36,1.66-1.66.66-.31,1.38-.46,2.15-.46,1.64,0,2.87.68,3.69,2.03.82,1.35,1.23,3.24,1.23,5.66Zm-9.57-7.24v18.87h-5.23v-18.87h5.23Zm-.46,4.77v-1.05h.74v1.05h-.74Zm.03,6.22v-.89h.74v.89h-.74Zm27.09-3.76c0,2.52-.42,4.48-1.26,5.88-.84,1.38-2.11,2.06-3.82,2.06-.57,0-1.11-.08-1.6-.25-.49-.16-.94-.45-1.35-.86-.39-.41-.74-.97-1.05-1.69-.29-.72-.51-1.62-.68-2.71l.18-2.22c0,.64.08,1.18.25,1.63.16.45.41.8.74,1.05.33.23.72.34,1.17.34.82,0,1.4-.28,1.72-.83.35-.57.52-1.37.52-2.37,0-.94-.17-1.68-.52-2.22-.33-.53-.9-.8-1.72-.8-.45,0-.84.11-1.17.34-.33.23-.57.55-.74.99-.17.43-.25.96-.25,1.57l-.18-2.09c.23-1.46.56-2.59,1.02-3.39.47-.8,1.03-1.36,1.66-1.66.66-.31,1.38-.46,2.15-.46,1.64,0,2.87.68,3.69,2.03.82,1.35,1.23,3.24,1.23,5.66Zm-9.57-7.24v18.87h-5.23v-18.87h5.23Zm-.46,4.77v-1.05h.74v1.05h-.74Zm.03,6.22v-.89h.74v.89h-.74Zm19.67,4.19c-1.6,0-2.99-.31-4.16-.92-1.15-.64-2.04-1.54-2.68-2.71-.62-1.17-.92-2.57-.92-4.19s.31-3.05.92-4.22c.64-1.17,1.53-2.06,2.68-2.68,1.17-.62,2.56-.92,4.16-.92s2.95.31,4.09.92c1.15.62,2.03,1.51,2.65,2.68.64,1.17.96,2.58.96,4.22,0,2.44-.69,4.36-2.06,5.76-1.38,1.38-3.25,2.06-5.63,2.06Zm-.03-10.9c-.82,0-1.45.29-1.88.86-.41.55-.62,1.29-.62,2.22,0,.62.09,1.15.28,1.6.18.45.46.81.83,1.08.39.25.85.37,1.38.37.82,0,1.44-.28,1.85-.83.43-.55.65-1.29.65-2.22,0-.62-.09-1.15-.28-1.6-.18-.47-.46-.83-.83-1.08-.37-.27-.83-.4-1.39-.4Zm14.7,1.42h.83l-.37,1.26c.2-1.6.43-2.86.68-3.79.25-.94.52-1.64.83-2.09.31-.45.66-.74,1.05-.86.39-.14.83-.22,1.32-.22h.58v6.03h-1.82c-.7,0-1.24.06-1.63.19-.37.1-.63.31-.77.61-.12.31-.18.76-.18,1.35v6.53h-5.23v-14.71h5.23v6.93l-.52-1.23Zm6.68-5.7h9.94v4.31h-9.94v-4.31Zm1.35,9.94v-13.39h5.23v12.25c0,.43.09.75.28.95s.53.31,1.05.31c.29,0,.6-.04.92-.12.35-.1.62-.18.8-.22l.55,4.86c-.39.12-.76.23-1.11.31-.33.08-.7.14-1.11.18-.39.06-.88.09-1.48.09-1.21,0-2.2-.24-2.96-.71-.76-.49-1.31-1.13-1.66-1.91-.35-.8-.52-1.67-.52-2.62Zm20.35.58h-1.26l.77-.86c-.23,1.46-.57,2.58-1.02,3.39-.45.8-1,1.35-1.63,1.66-.62.31-1.32.46-2.12.46-.92,0-1.69-.19-2.31-.59-.61-.41-1.08-.98-1.39-1.72-.31-.76-.46-1.67-.46-2.74v-10.13h5.23v8.56c0,.39.06.73.18,1.02.14.29.34.51.59.68.27.14.6.22.98.22s.72-.07.99-.22c.27-.16.47-.39.62-.68.14-.29.21-.63.21-1.02v-8.56h5.23v14.71h-5.23v-5.05l.62.86Zm11.89-6.34h1.26l-.77.86c.23-1.46.57-2.59,1.02-3.39.45-.8,1-1.36,1.63-1.66.64-.31,1.34-.46,2.12-.46.92,0,1.69.21,2.31.62.61.39,1.08.96,1.38,1.72.31.74.46,1.64.46,2.71v10.13h-5.23v-8.56c0-.41-.07-.75-.21-1.02-.12-.29-.32-.5-.58-.65-.25-.16-.56-.25-.95-.25s-.72.08-.98.25c-.27.14-.47.36-.62.65-.14.27-.21.61-.21,1.02v8.56h-5.23v-14.71h5.23v5.05l-.62-.86Zm17.25-5.26h-5.23v-3.08h5.23v3.08Zm0,15.79h-5.23v-14.71h5.23v14.71Zm2.19-14.71h9.94v4.31h-9.94v-4.31Zm1.36,9.94v-13.39h5.23v12.25c0,.43.09.75.28.95s.53.31,1.05.31c.29,0,.6-.04.92-.12.35-.1.62-.18.8-.22l.55,4.86c-.39.12-.76.23-1.11.31-.33.08-.7.14-1.11.18-.39.06-.88.09-1.48.09-1.21,0-2.2-.24-2.96-.71-.76-.49-1.31-1.13-1.66-1.91-.35-.8-.52-1.67-.52-2.62Zm16.22-11.02h-5.23v-3.08h5.23v3.08Zm0,15.79h-5.23v-14.71h5.23v14.71Zm9.88.46c-1.46,0-2.76-.27-3.91-.8-1.15-.55-2.05-1.38-2.71-2.46-.66-1.11-.99-2.48-.99-4.12,0-1.74.29-3.22.86-4.43.6-1.23,1.47-2.18,2.62-2.83,1.15-.66,2.55-.99,4.22-.99,1.56,0,2.83.31,3.82.92.99.6,1.71,1.42,2.19,2.46.49,1.03.74,2.21.74,3.54v.95c.02.27.01.61-.03,1.02h-10.65v-2.25h7.05l-1.17.71c.1-1.07-.03-1.84-.4-2.31-.35-.49-.91-.74-1.69-.74-.86,0-1.49.26-1.88.77-.37.49-.55,1.39-.55,2.68s.2,2.13.58,2.65c.41.49,1.07.74,1.97.74.49,0,.87-.06,1.14-.18.29-.14.5-.33.65-.55.17-.23.29-.47.37-.74l4.46,1.26c-.23.84-.6,1.62-1.11,2.34-.51.72-1.22,1.29-2.12,1.72-.9.43-2.05.65-3.45.65Zm15.62,0c-1.74,0-3.11-.23-4.09-.68-.96-.47-1.66-1.08-2.09-1.82-.43-.74-.7-1.52-.8-2.34l4.86-.96c.12.47.28.86.46,1.17.2.29.45.5.74.65.31.12.66.18,1.05.18.47,0,.82-.06,1.05-.18.23-.14.35-.36.37-.65,0-.18-.06-.35-.18-.49-.12-.14-.38-.29-.77-.43-.37-.16-.94-.33-1.72-.49-1.44-.33-2.57-.71-3.39-1.14-.82-.45-1.42-.97-1.79-1.57-.35-.62-.52-1.33-.52-2.15,0-1.5.54-2.66,1.63-3.48,1.09-.84,2.73-1.26,4.93-1.26,1.52,0,2.75.18,3.69.55.94.37,1.66.88,2.15,1.54.49.66.81,1.43.95,2.31l-4.99,1.11c-.1-.59-.3-1.05-.58-1.35-.29-.31-.71-.46-1.26-.46-.43,0-.76.07-.99.21-.23.12-.34.32-.34.59,0,.18.04.36.12.52.1.17.36.33.77.49.41.14,1.08.32,2,.52,1.46.31,2.58.7,3.36,1.17s1.31,1.02,1.6,1.63c.31.6.46,1.25.46,1.97,0,.99-.24,1.85-.71,2.59-.45.72-1.17,1.27-2.15,1.66-.99.39-2.26.59-3.82.59Zm-173.78,15.58v14.96h-5.23v-14.93c0-.92.2-1.74.59-2.46.39-.74.99-1.31,1.82-1.72.84-.43,1.9-.65,3.17-.65.6,0,1.06.02,1.38.06.35.04.67.09.96.15l-.34,3.57c-.21-.04-.41-.06-.62-.06-.18-.02-.37-.03-.55-.03-.33,0-.6.08-.83.25s-.34.45-.34.86Zm-6.8.25h9.14v4.31h-9.14v-4.31Zm18.41,15.18c-1.6,0-2.99-.31-4.16-.92-1.15-.64-2.04-1.54-2.68-2.71-.62-1.17-.92-2.57-.92-4.19s.31-3.05.92-4.22c.64-1.17,1.53-2.06,2.68-2.68,1.17-.62,2.55-.92,4.16-.92s2.95.31,4.09.92,2.03,1.51,2.65,2.68c.64,1.17.95,2.58.95,4.22,0,2.44-.69,4.36-2.06,5.76-1.38,1.38-3.25,2.06-5.63,2.06Zm-.03-10.9c-.82,0-1.45.29-1.88.86-.41.55-.62,1.29-.62,2.22,0,.62.09,1.15.28,1.6.18.45.46.81.83,1.08.39.25.85.37,1.39.37.82,0,1.44-.28,1.85-.83.43-.55.65-1.29.65-2.22,0-.62-.09-1.15-.28-1.6-.18-.47-.46-.83-.83-1.08-.37-.27-.83-.4-1.38-.4Zm14.71,1.42h.83l-.37,1.26c.21-1.6.43-2.86.68-3.79.25-.94.52-1.64.83-2.09.31-.45.66-.74,1.05-.86.39-.14.83-.22,1.32-.22h.58v6.03h-1.82c-.7,0-1.24.06-1.63.19-.37.1-.63.31-.77.61-.12.31-.19.76-.19,1.35v6.53h-5.23v-14.71h5.23v6.93l-.52-1.23Zm20.08,9.36c-1.11,0-2.1-.22-2.99-.65-.88-.45-1.64-1.09-2.28-1.91-.62-.84-1.09-1.83-1.42-2.96-.33-1.15-.49-2.42-.49-3.82,0-2.03.34-3.79,1.02-5.26.7-1.5,1.73-2.65,3.11-3.45,1.38-.82,3.08-1.23,5.11-1.23,1.72,0,3.16.27,4.31.8,1.17.51,2.07,1.26,2.71,2.25.66.96,1.08,2.12,1.26,3.48l-5.2,1.08c-.17-.8-.47-1.44-.92-1.91-.43-.49-1.18-.74-2.25-.74-.86,0-1.56.2-2.09.59-.51.37-.89.92-1.14,1.66-.23.74-.34,1.65-.34,2.74,0,.76.06,1.44.18,2.03.14.58.36,1.07.65,1.48.29.41.67.72,1.14.92.47.21,1.06.31,1.76.31s1.23-.05,1.66-.15c.43-.12.77-.28,1.02-.46.25-.18.41-.4.49-.65.1-.25.15-.5.15-.77h.15c0,.86-.09,1.69-.28,2.49-.16.78-.46,1.49-.89,2.12-.41.61-.98,1.11-1.69,1.48-.72.35-1.63.52-2.74.52Zm1.94-6.99v-4.28h8.74v10.93h-5.23v-8.34l2.28,1.69h-5.79Zm2.86,2.71l.74-1.23h.46v1.23h-1.2Zm13.37-5.08h.83l-.37,1.26c.2-1.6.43-2.86.68-3.79.25-.94.52-1.64.83-2.09.31-.45.66-.74,1.05-.86.39-.14.83-.22,1.32-.22h.58v6.03h-1.82c-.7,0-1.24.06-1.63.19-.37.1-.63.31-.77.61-.12.31-.18.76-.18,1.35v6.53h-5.23v-14.71h5.23v6.93l-.52-1.23Zm14.53,9.48c-1.6,0-2.99-.31-4.16-.92-1.15-.64-2.04-1.54-2.68-2.71-.62-1.17-.92-2.57-.92-4.19s.31-3.05.92-4.22c.64-1.17,1.53-2.06,2.68-2.68,1.17-.62,2.55-.92,4.16-.92s2.95.31,4.09.92c1.15.62,2.03,1.51,2.65,2.68.64,1.17.95,2.58.95,4.22,0,2.44-.69,4.36-2.06,5.76-1.38,1.38-3.25,2.06-5.63,2.06Zm-.03-10.9c-.82,0-1.45.29-1.88.86-.41.55-.61,1.29-.61,2.22,0,.62.09,1.15.28,1.6.18.45.46.81.83,1.08.39.25.85.37,1.39.37.82,0,1.44-.28,1.85-.83.43-.55.65-1.29.65-2.22,0-.62-.09-1.15-.28-1.6-.18-.47-.46-.83-.83-1.08-.37-.27-.83-.4-1.38-.4Zm22.91-4.28l1.01,5.85c.23,1.25.41,2.54.56,3.85.14,1.29.29,2.67.43,4.12l-.56-3.17h1.11l-1.2,3.17c.1-1.46.26-2.8.46-4.03.23-1.23.44-2.55.65-3.94l.89-5.85h5.11l-3.73,14.71h-6.49l-.95-6.25c-.16-1.13-.3-2.29-.4-3.48-.08-1.19-.13-2.4-.15-3.63l.83,2.68h-1.39l.74-2.68c-.02,1.15-.1,2.35-.25,3.6-.12,1.23-.26,2.4-.4,3.51l-.77,6.25h-6.56l-3.73-14.71h5.39l1.14,5.85c.29,1.38.51,2.69.68,3.94.18,1.23.33,2.57.43,4.03l-1.17-3.17h1.11l-.55,3.17c.16-1.46.32-2.83.46-4.12.14-1.31.32-2.6.52-3.85l1.02-5.85h5.76Zm9.69,0h9.94v4.31h-9.94v-4.31Zm1.35,9.94v-13.39h5.23v12.25c0,.43.09.75.28.95.18.21.53.31,1.05.31.29,0,.6-.04.92-.12.35-.1.62-.18.8-.22l.55,4.86c-.39.12-.76.23-1.11.31-.33.08-.7.14-1.11.18-.39.06-.88.09-1.48.09-1.21,0-2.2-.24-2.95-.71-.76-.49-1.31-1.13-1.66-1.91-.35-.8-.52-1.67-.52-2.62Zm15.61-5.76h1.26l-.77.86c.23-1.46.57-2.59,1.02-3.39.45-.8,1-1.36,1.63-1.66.64-.31,1.34-.46,2.12-.46.92,0,1.69.21,2.31.62.62.39,1.08.96,1.39,1.72.31.74.46,1.64.46,2.71v10.13h-5.23v-8.56c0-.41-.07-.75-.21-1.02-.12-.29-.32-.5-.58-.65-.25-.16-.56-.25-.95-.25s-.72.08-.98.25c-.27.14-.47.36-.62.65-.14.27-.22.61-.22,1.02v8.56h-5.23v-18.87h5.23v9.2l-.62-.86Z"></path><path class="m" d="m187.4,201.78c-1.54,0-2.9-.24-4.09-.71-1.19-.49-2.2-1.18-3.02-2.06-.82-.88-1.45-1.91-1.88-3.08-.41-1.19-.62-2.49-.62-3.91,0-1.89.39-3.55,1.17-4.99.8-1.46,1.92-2.6,3.36-3.42,1.44-.82,3.13-1.23,5.08-1.23,1.48,0,2.81.24,4,.71s2.2,1.14,3.02,2c.84.86,1.48,1.88,1.91,3.05.45,1.17.68,2.46.68,3.88,0,1.87-.38,3.54-1.14,5.02-.74,1.48-1.83,2.64-3.26,3.48-1.42.84-3.15,1.26-5.2,1.26Zm0-4.93c.94,0,1.71-.2,2.31-.58.62-.39,1.07-.96,1.35-1.69.29-.74.43-1.61.43-2.62,0-.82-.15-1.58-.46-2.28-.29-.7-.73-1.26-1.32-1.69s-1.37-.65-2.31-.65-1.69.22-2.31.65c-.6.43-1.05.99-1.35,1.69-.29.7-.43,1.46-.43,2.28,0,1,.14,1.88.43,2.62.29.74.73,1.3,1.32,1.69.62.39,1.4.58,2.34.58Zm26.68-3.02c0,2.52-.42,4.48-1.26,5.88-.84,1.38-2.11,2.06-3.82,2.06-.57,0-1.11-.08-1.6-.25-.49-.16-.94-.45-1.35-.86-.39-.41-.74-.97-1.05-1.69-.29-.72-.51-1.62-.68-2.71l.18-2.22c0,.64.08,1.18.25,1.63.16.45.41.8.74,1.05.33.23.72.34,1.17.34.82,0,1.4-.28,1.72-.83.35-.57.52-1.37.52-2.37,0-.94-.17-1.68-.52-2.22-.33-.53-.9-.8-1.72-.8-.45,0-.84.11-1.17.34s-.57.55-.74.99-.25.96-.25,1.57l-.18-2.09c.23-1.46.57-2.59,1.02-3.39.47-.8,1.03-1.36,1.66-1.66.66-.31,1.38-.46,2.15-.46,1.64,0,2.87.68,3.69,2.03.82,1.35,1.23,3.24,1.23,5.66Zm-9.57-7.24v18.87h-5.23v-18.87h5.23Zm-.46,4.77v-1.05h.74v1.05h-.74Zm.03,6.22v-.89h.74v.89h-.74Zm27.09-3.76c0,2.52-.42,4.48-1.26,5.88-.84,1.38-2.11,2.06-3.82,2.06-.57,0-1.11-.08-1.6-.25-.49-.16-.94-.45-1.35-.86-.39-.41-.74-.97-1.05-1.69-.29-.72-.51-1.62-.68-2.71l.18-2.22c0,.64.08,1.18.25,1.63.16.45.41.8.74,1.05.33.23.72.34,1.17.34.82,0,1.4-.28,1.72-.83.35-.57.52-1.37.52-2.37,0-.94-.17-1.68-.52-2.22-.33-.53-.9-.8-1.72-.8-.45,0-.84.11-1.17.34-.33.23-.57.55-.74.99-.17.43-.25.96-.25,1.57l-.18-2.09c.23-1.46.56-2.59,1.02-3.39.47-.8,1.03-1.36,1.66-1.66.66-.31,1.38-.46,2.15-.46,1.64,0,2.87.68,3.69,2.03.82,1.35,1.23,3.24,1.23,5.66Zm-9.57-7.24v18.87h-5.23v-18.87h5.23Zm-.46,4.77v-1.05h.74v1.05h-.74Zm.03,6.22v-.89h.74v.89h-.74Zm19.67,4.19c-1.6,0-2.99-.31-4.16-.92-1.15-.64-2.04-1.54-2.68-2.71-.62-1.17-.92-2.57-.92-4.19s.31-3.05.92-4.22c.64-1.17,1.53-2.06,2.68-2.68,1.17-.62,2.56-.92,4.16-.92s2.95.31,4.09.92c1.15.62,2.03,1.51,2.65,2.68.64,1.17.96,2.58.96,4.22,0,2.44-.69,4.36-2.06,5.76-1.38,1.38-3.25,2.06-5.63,2.06Zm-.03-10.9c-.82,0-1.45.29-1.88.86-.41.55-.62,1.29-.62,2.22,0,.62.09,1.15.28,1.6.18.45.46.81.83,1.08.39.25.85.37,1.38.37.82,0,1.44-.28,1.85-.83.43-.55.65-1.29.65-2.22,0-.62-.09-1.15-.28-1.6-.18-.47-.46-.83-.83-1.08-.37-.27-.83-.4-1.39-.4Zm14.7,1.42h.83l-.37,1.26c.2-1.6.43-2.86.68-3.79.25-.94.52-1.64.83-2.09.31-.45.66-.74,1.05-.86.39-.14.83-.22,1.32-.22h.58v6.03h-1.82c-.7,0-1.24.06-1.63.19-.37.1-.63.31-.77.61-.12.31-.18.76-.18,1.35v6.53h-5.23v-14.71h5.23v6.93l-.52-1.23Zm6.68-5.7h9.94v4.31h-9.94v-4.31Zm1.35,9.94v-13.39h5.23v12.25c0,.43.09.75.28.95s.53.31,1.05.31c.29,0,.6-.04.92-.12.35-.1.62-.18.8-.22l.55,4.86c-.39.12-.76.23-1.11.31-.33.08-.7.14-1.11.18-.39.06-.88.09-1.48.09-1.21,0-2.2-.24-2.96-.71-.76-.49-1.31-1.13-1.66-1.91-.35-.8-.52-1.67-.52-2.62Zm20.35.58h-1.26l.77-.86c-.23,1.46-.57,2.58-1.02,3.39-.45.8-1,1.35-1.63,1.66-.62.31-1.32.46-2.12.46-.92,0-1.69-.19-2.31-.59-.61-.41-1.08-.98-1.39-1.72-.31-.76-.46-1.67-.46-2.74v-10.13h5.23v8.56c0,.39.06.73.18,1.02.14.29.34.51.59.68.27.14.6.22.98.22s.72-.07.99-.22c.27-.16.47-.39.62-.68.14-.29.21-.63.21-1.02v-8.56h5.23v14.71h-5.23v-5.05l.62.86Zm11.89-6.34h1.26l-.77.86c.23-1.46.57-2.59,1.02-3.39.45-.8,1-1.36,1.63-1.66.64-.31,1.34-.46,2.12-.46.92,0,1.69.21,2.31.62.61.39,1.08.96,1.38,1.72.31.74.46,1.64.46,2.71v10.13h-5.23v-8.56c0-.41-.07-.75-.21-1.02-.12-.29-.32-.5-.58-.65-.25-.16-.56-.25-.95-.25s-.72.08-.98.25c-.27.14-.47.36-.62.65-.14.27-.21.61-.21,1.02v8.56h-5.23v-14.71h5.23v5.05l-.62-.86Zm17.25-5.26h-5.23v-3.08h5.23v3.08Zm0,15.79h-5.23v-14.71h5.23v14.71Zm2.19-14.71h9.94v4.31h-9.94v-4.31Zm1.36,9.94v-13.39h5.23v12.25c0,.43.09.75.28.95s.53.31,1.05.31c.29,0,.6-.04.92-.12.35-.1.62-.18.8-.22l.55,4.86c-.39.12-.76.23-1.11.31-.33.08-.7.14-1.11.18-.39.06-.88.09-1.48.09-1.21,0-2.2-.24-2.96-.71-.76-.49-1.31-1.13-1.66-1.91-.35-.8-.52-1.67-.52-2.62Zm16.22-11.02h-5.23v-3.08h5.23v3.08Zm0,15.79h-5.23v-14.71h5.23v14.71Zm9.88.46c-1.46,0-2.76-.27-3.91-.8-1.15-.55-2.05-1.38-2.71-2.46-.66-1.11-.99-2.48-.99-4.12,0-1.74.29-3.22.86-4.43.6-1.23,1.47-2.18,2.62-2.83,1.15-.66,2.55-.99,4.22-.99,1.56,0,2.83.31,3.82.92.99.6,1.71,1.42,2.19,2.46.49,1.03.74,2.21.74,3.54v.95c.02.27.01.61-.03,1.02h-10.65v-2.25h7.05l-1.17.71c.1-1.07-.03-1.84-.4-2.31-.35-.49-.91-.74-1.69-.74-.86,0-1.49.26-1.88.77-.37.49-.55,1.39-.55,2.68s.2,2.13.58,2.65c.41.49,1.07.74,1.97.74.49,0,.87-.06,1.14-.18.29-.14.5-.33.65-.55.17-.23.29-.47.37-.74l4.46,1.26c-.23.84-.6,1.62-1.11,2.34-.51.72-1.22,1.29-2.12,1.72-.9.43-2.05.65-3.45.65Zm15.62,0c-1.74,0-3.11-.23-4.09-.68-.96-.47-1.66-1.08-2.09-1.82-.43-.74-.7-1.52-.8-2.34l4.86-.96c.12.47.28.86.46,1.17.2.29.45.5.74.65.31.12.66.18,1.05.18.47,0,.82-.06,1.05-.18.23-.14.35-.36.37-.65,0-.18-.06-.35-.18-.49-.12-.14-.38-.29-.77-.43-.37-.16-.94-.33-1.72-.49-1.44-.33-2.57-.71-3.39-1.14-.82-.45-1.42-.97-1.79-1.57-.35-.62-.52-1.33-.52-2.15,0-1.5.54-2.66,1.63-3.48,1.09-.84,2.73-1.26,4.93-1.26,1.52,0,2.75.18,3.69.55.94.37,1.66.88,2.15,1.54.49.66.81,1.43.95,2.31l-4.99,1.11c-.1-.59-.3-1.05-.58-1.35-.29-.31-.71-.46-1.26-.46-.43,0-.76.07-.99.21-.23.12-.34.32-.34.59,0,.18.04.36.12.52.1.17.36.33.77.49.41.14,1.08.32,2,.52,1.46.31,2.58.7,3.36,1.17s1.31,1.02,1.6,1.63c.31.6.46,1.25.46,1.97,0,.99-.24,1.85-.71,2.59-.45.72-1.17,1.27-2.15,1.66-.99.39-2.26.59-3.82.59Zm-173.78,15.58v14.96h-5.23v-14.93c0-.92.2-1.74.59-2.46.39-.74.99-1.31,1.82-1.72.84-.43,1.9-.65,3.17-.65.6,0,1.06.02,1.38.06.35.04.67.09.96.15l-.34,3.57c-.21-.04-.41-.06-.62-.06-.18-.02-.37-.03-.55-.03-.33,0-.6.08-.83.25s-.34.45-.34.86Zm-6.8.25h9.14v4.31h-9.14v-4.31Zm18.41,15.18c-1.6,0-2.99-.31-4.16-.92-1.15-.64-2.04-1.54-2.68-2.71-.62-1.17-.92-2.57-.92-4.19s.31-3.05.92-4.22c.64-1.17,1.53-2.06,2.68-2.68,1.17-.62,2.55-.92,4.16-.92s2.95.31,4.09.92,2.03,1.51,2.65,2.68c.64,1.17.95,2.58.95,4.22,0,2.44-.69,4.36-2.06,5.76-1.38,1.38-3.25,2.06-5.63,2.06Zm-.03-10.9c-.82,0-1.45.29-1.88.86-.41.55-.62,1.29-.62,2.22,0,.62.09,1.15.28,1.6.18.45.46.81.83,1.08.39.25.85.37,1.39.37.82,0,1.44-.28,1.85-.83.43-.55.65-1.29.65-2.22,0-.62-.09-1.15-.28-1.6-.18-.47-.46-.83-.83-1.08-.37-.27-.83-.4-1.38-.4Zm14.71,1.42h.83l-.37,1.26c.21-1.6.43-2.86.68-3.79.25-.94.52-1.64.83-2.09.31-.45.66-.74,1.05-.86.39-.14.83-.22,1.32-.22h.58v6.03h-1.82c-.7,0-1.24.06-1.63.19-.37.1-.63.31-.77.61-.12.31-.19.76-.19,1.35v6.53h-5.23v-14.71h5.23v6.93l-.52-1.23Zm20.08,9.36c-1.11,0-2.1-.22-2.99-.65-.88-.45-1.64-1.09-2.28-1.91-.62-.84-1.09-1.83-1.42-2.96-.33-1.15-.49-2.42-.49-3.82,0-2.03.34-3.79,1.02-5.26.7-1.5,1.73-2.65,3.11-3.45,1.38-.82,3.08-1.23,5.11-1.23,1.72,0,3.16.27,4.31.8,1.17.51,2.07,1.26,2.71,2.25.66.96,1.08,2.12,1.26,3.48l-5.2,1.08c-.17-.8-.47-1.44-.92-1.91-.43-.49-1.18-.74-2.25-.74-.86,0-1.56.2-2.09.59-.51.37-.89.92-1.14,1.66-.23.74-.34,1.65-.34,2.74,0,.76.06,1.44.18,2.03.14.58.36,1.07.65,1.48.29.41.67.72,1.14.92.47.21,1.06.31,1.76.31s1.23-.05,1.66-.15c.43-.12.77-.28,1.02-.46.25-.18.41-.4.49-.65.1-.25.15-.5.15-.77h.15c0,.86-.09,1.69-.28,2.49-.16.78-.46,1.49-.89,2.12-.41.61-.98,1.11-1.69,1.48-.72.35-1.63.52-2.74.52Zm1.94-6.99v-4.28h8.74v10.93h-5.23v-8.34l2.28,1.69h-5.79Zm2.86,2.71l.74-1.23h.46v1.23h-1.2Zm13.37-5.08h.83l-.37,1.26c.2-1.6.43-2.86.68-3.79.25-.94.52-1.64.83-2.09.31-.45.66-.74,1.05-.86.39-.14.83-.22,1.32-.22h.58v6.03h-1.82c-.7,0-1.24.06-1.63.19-.37.1-.63.31-.77.61-.12.31-.18.76-.18,1.35v6.53h-5.23v-14.71h5.23v6.93l-.52-1.23Zm14.53,9.48c-1.6,0-2.99-.31-4.16-.92-1.15-.64-2.04-1.54-2.68-2.71-.62-1.17-.92-2.57-.92-4.19s.31-3.05.92-4.22c.64-1.17,1.53-2.06,2.68-2.68,1.17-.62,2.55-.92,4.16-.92s2.95.31,4.09.92c1.15.62,2.03,1.51,2.65,2.68.64,1.17.95,2.58.95,4.22,0,2.44-.69,4.36-2.06,5.76-1.38,1.38-3.25,2.06-5.63,2.06Zm-.03-10.9c-.82,0-1.45.29-1.88.86-.41.55-.61,1.29-.61,2.22,0,.62.09,1.15.28,1.6.18.45.46.81.83,1.08.39.25.85.37,1.39.37.82,0,1.44-.28,1.85-.83.43-.55.65-1.29.65-2.22,0-.62-.09-1.15-.28-1.6-.18-.47-.46-.83-.83-1.08-.37-.27-.83-.4-1.38-.4Zm22.91-4.28l1.01,5.85c.23,1.25.41,2.54.56,3.85.14,1.29.29,2.67.43,4.12l-.56-3.17h1.11l-1.2,3.17c.1-1.46.26-2.8.46-4.03.23-1.23.44-2.55.65-3.94l.89-5.85h5.11l-3.73,14.71h-6.49l-.95-6.25c-.16-1.13-.3-2.29-.4-3.48-.08-1.19-.13-2.4-.15-3.63l.83,2.68h-1.39l.74-2.68c-.02,1.15-.1,2.35-.25,3.6-.12,1.23-.26,2.4-.4,3.51l-.77,6.25h-6.56l-3.73-14.71h5.39l1.14,5.85c.29,1.38.51,2.69.68,3.94.18,1.23.33,2.57.43,4.03l-1.17-3.17h1.11l-.55,3.17c.16-1.46.32-2.83.46-4.12.14-1.31.32-2.6.52-3.85l1.02-5.85h5.76Zm9.69,0h9.94v4.31h-9.94v-4.31Zm1.35,9.94v-13.39h5.23v12.25c0,.43.09.75.28.95.18.21.53.31,1.05.31.29,0,.6-.04.92-.12.35-.1.62-.18.8-.22l.55,4.86c-.39.12-.76.23-1.11.31-.33.08-.7.14-1.11.18-.39.06-.88.09-1.48.09-1.21,0-2.2-.24-2.95-.71-.76-.49-1.31-1.13-1.66-1.91-.35-.8-.52-1.67-.52-2.62Zm15.61-5.76h1.26l-.77.86c.23-1.46.57-2.59,1.02-3.39.45-.8,1-1.36,1.63-1.66.64-.31,1.34-.46,2.12-.46.92,0,1.69.21,2.31.62.62.39,1.08.96,1.39,1.72.31.74.46,1.64.46,2.71v10.13h-5.23v-8.56c0-.41-.07-.75-.21-1.02-.12-.29-.32-.5-.58-.65-.25-.16-.56-.25-.95-.25s-.72.08-.98.25c-.27.14-.47.36-.62.65-.14.27-.22.61-.22,1.02v8.56h-5.23v-18.87h5.23v9.2l-.62-.86Z"></path><path class="e" d="m180.42,255.12c-.22,0-.43-.06-.62-.17-.19-.11-.34-.26-.45-.45-.1-.19-.16-.39-.16-.62s.05-.43.16-.62c.11-.19.26-.34.45-.45.19-.11.39-.17.62-.17s.43.06.62.17c.19.1.34.25.45.45.11.19.17.39.17.62s-.06.44-.17.63c-.1.19-.25.34-.45.45-.19.1-.39.16-.62.16Zm11.71-5.33h1.21l2.98,7.64h-1.04l-2.69-7.1h.26l-2.63,7.1h-1.03l2.94-7.64Zm-1.51,4.61h4.17v.88h-4.17v-.88Zm9.57,3.15c-.75,0-1.36-.24-1.82-.72-.46-.48-.69-1.17-.69-2.07,0-.61.1-1.12.32-1.53.22-.42.51-.73.89-.94.38-.21.82-.32,1.3-.32.66,0,1.18.15,1.56.46.39.31.64.71.74,1.22l-.87.15c-.09-.3-.25-.55-.47-.74-.22-.2-.54-.29-.97-.29-.34,0-.63.08-.88.25-.24.16-.42.39-.55.69-.12.3-.18.65-.18,1.06,0,.61.14,1.09.42,1.45.29.36.68.54,1.19.54.43,0,.75-.1.97-.29.22-.2.37-.45.46-.76l.86.16c-.1.52-.35.93-.73,1.24-.38.31-.9.46-1.56.46Zm6.29,0c-.75,0-1.36-.24-1.82-.72-.46-.48-.68-1.17-.68-2.07,0-.61.1-1.12.32-1.53.22-.42.51-.73.89-.94.38-.21.82-.32,1.3-.32.66,0,1.18.15,1.56.46.39.31.64.71.74,1.22l-.87.15c-.09-.3-.25-.55-.47-.74-.22-.2-.54-.29-.97-.29-.34,0-.63.08-.88.25-.24.16-.42.39-.55.69-.12.3-.18.65-.18,1.06,0,.61.14,1.09.42,1.45.28.36.68.54,1.19.54.43,0,.75-.1.97-.29.22-.2.37-.45.46-.76l.87.16c-.11.52-.35.93-.73,1.24-.38.31-.9.46-1.56.46Zm6.32,0c-.77,0-1.39-.24-1.85-.73-.46-.49-.69-1.18-.69-2.06,0-.58.11-1.09.32-1.51.21-.42.51-.74.89-.96.38-.22.83-.33,1.34-.33.77,0,1.39.25,1.85.74.46.49.7,1.17.7,2.05,0,.58-.11,1.09-.33,1.51-.21.42-.51.74-.89.96-.38.22-.83.33-1.34.33Zm0-.8c.35,0,.65-.08.9-.24.25-.16.43-.39.56-.68.13-.3.19-.66.19-1.07,0-.62-.15-1.11-.44-1.46-.29-.35-.69-.53-1.21-.53-.35,0-.64.08-.89.24s-.43.39-.56.68c-.13.3-.19.66-.19,1.07,0,.62.14,1.11.43,1.46.28.35.69.53,1.21.53Zm6.39.8c-.42,0-.78-.07-1.08-.21-.29-.15-.52-.37-.67-.65-.16-.29-.24-.65-.24-1.06v-3.54h.9v3.4c0,.38.1.69.3.91.21.22.53.34.97.34.29,0,.54-.06.77-.18.24-.12.43-.29.56-.51.13-.22.2-.47.2-.76v-3.2h.9v5.35h-.88v-1.12h.18c-.11.38-.35.68-.72.91-.37.22-.77.33-1.2.33Zm4.86-5.46h.88v1.12h-.18c.1-.38.34-.68.71-.9.37-.22.78-.34,1.21-.34s.78.07,1.08.22c.31.14.54.36.71.65.16.28.25.63.25,1.04v3.54h-.9v-3.4c0-.38-.11-.69-.33-.91-.21-.22-.54-.34-.99-.34s-.8.14-1.1.4c-.29.26-.44.61-.44,1.04v3.2h-.9v-5.35Zm8.94,5.35c-.46,0-.83-.06-1.09-.19-.26-.13-.45-.33-.56-.6-.1-.27-.16-.63-.16-1.07v-2.68h-.93v-.81h.93v-1.43h.91v1.43h1.67v.81h-1.67v2.67c0,.38.07.64.23.81.15.17.38.25.71.25h.8v.81h-.83Zm8.06-7.64h1.21l2.98,7.64h-1.05l-2.69-7.1h.26l-2.63,7.1h-1.03l2.95-7.64Zm-1.51,4.61h4.17v.88h-4.17v-.88Zm7.44-2.32h.88v1.12h-.18c.11-.38.34-.68.71-.9.38-.22.78-.34,1.21-.34s.78.07,1.08.22c.31.14.54.36.71.65.17.28.25.63.25,1.04v3.54h-.9v-3.4c0-.38-.11-.69-.33-.91-.21-.22-.54-.34-.99-.34s-.8.14-1.1.4c-.29.26-.44.61-.44,1.04v3.2h-.9v-5.35Zm8.43,5.46c-.58,0-1.05-.14-1.39-.42-.34-.29-.51-.67-.51-1.17,0-.53.18-.93.53-1.19.36-.26.86-.4,1.51-.43.29-.02.69-.02,1.19,0,.11,0,.21,0,.3.01v-.46c0-.38-.1-.67-.3-.87-.2-.2-.48-.3-.83-.3s-.66.09-.89.28c-.23.19-.38.43-.47.73l-.84-.17c.12-.5.37-.89.74-1.17.38-.29.87-.43,1.46-.43.62,0,1.11.16,1.46.47.36.31.54.78.54,1.42v3.57h-.84v-.92l.17.02c-.15.31-.38.55-.7.74-.32.18-.69.27-1.12.27Zm.02-.75c.3,0,.57-.05.82-.15.25-.11.44-.25.57-.44.14-.19.21-.4.21-.63v-.52c-.46-.02-.95-.02-1.47,0-.38.01-.67.1-.86.25-.2.14-.29.34-.29.61s.09.48.27.64c.19.16.44.24.75.24Zm4.64-7h.9v7.64h-.9v-7.64Zm3.06,8.99h.34c.27,0,.49-.06.67-.18.18-.12.33-.32.45-.61l.36-.88.02.63-2.42-5.66h.99l1.94,4.71-.36-.02,1.74-4.69h.93l-2.44,6.17c-.13.34-.28.6-.45.8-.16.2-.34.34-.55.43-.2.09-.44.13-.72.13h-.52v-.83Zm8.1-1.24c-.63,0-1.14-.14-1.54-.4-.4-.28-.64-.67-.74-1.18l.84-.18c.09.34.25.59.49.76.24.17.56.25.97.25s.71-.07.92-.2c.22-.14.33-.34.33-.59,0-.23-.08-.41-.25-.53-.16-.13-.43-.23-.82-.29l-.7-.12c-.52-.1-.92-.26-1.19-.49-.26-.23-.39-.57-.39-1.02,0-.32.08-.6.25-.83.17-.24.41-.42.72-.55.32-.13.68-.19,1.09-.19.61,0,1.11.15,1.47.44.38.29.6.65.67,1.09l-.82.18c-.08-.29-.23-.52-.45-.7-.21-.17-.51-.26-.9-.26-.36,0-.65.07-.86.23-.21.14-.31.33-.31.57s.08.4.25.52c.16.1.42.19.77.25l.69.12c.58.1.99.28,1.25.54.26.26.39.6.39,1.03,0,.31-.08.59-.25.82-.16.23-.39.42-.71.55-.32.13-.7.19-1.17.19Zm4.03-5.46h.9v5.35h-.9v-5.35Zm-.06-2.11h1.02v1.08h-1.02v-1.08Zm5.13,7.57c-.63,0-1.14-.14-1.54-.4-.4-.28-.64-.67-.74-1.18l.84-.18c.09.34.26.59.49.76.24.17.56.25.97.25s.71-.07.92-.2c.22-.14.33-.34.33-.59,0-.23-.08-.41-.25-.53-.16-.13-.43-.23-.82-.29l-.7-.12c-.52-.1-.92-.26-1.19-.49-.26-.23-.39-.57-.39-1.02,0-.32.08-.6.25-.83.17-.24.41-.42.72-.55.32-.13.68-.19,1.09-.19.61,0,1.11.15,1.47.44.38.29.6.65.67,1.09l-.82.18c-.08-.29-.23-.52-.45-.7-.21-.17-.51-.26-.9-.26-.36,0-.65.07-.87.23-.21.14-.31.33-.31.57s.08.4.25.52c.17.1.42.19.77.25l.69.12c.58.1.99.28,1.25.54.26.26.39.6.39,1.03,0,.31-.08.59-.25.82-.16.23-.39.42-.71.55-.32.13-.7.19-1.17.19Zm-99.94,8.57c-.22,0-.43-.06-.62-.17-.19-.11-.34-.26-.45-.45-.1-.19-.16-.39-.16-.62s.05-.43.16-.62c.11-.19.26-.34.45-.45.19-.11.39-.17.62-.17s.43.06.62.17c.19.1.34.26.45.45.11.19.17.39.17.62s-.06.43-.17.63c-.1.19-.25.34-.45.45-.19.11-.39.16-.62.16Zm12.71,2.43c-.74,0-1.39-.16-1.94-.47-.55-.32-.97-.76-1.27-1.35-.3-.59-.45-1.3-.45-2.11s.15-1.52.45-2.1c.3-.59.72-1.04,1.27-1.36.55-.32,1.2-.47,1.94-.47s1.39.16,1.93.47c.55.31.97.76,1.27,1.35.3.59.45,1.3.45,2.11s-.15,1.52-.45,2.11c-.3.59-.72,1.04-1.27,1.36-.55.31-1.19.46-1.93.46Zm0-.86c.56,0,1.04-.13,1.44-.38.4-.25.71-.61.92-1.07.21-.46.32-1,.32-1.62s-.11-1.15-.32-1.61c-.21-.46-.52-.82-.92-1.08-.4-.26-.88-.38-1.44-.38s-1.04.13-1.45.38c-.4.26-.71.61-.92,1.08-.21.46-.31.99-.31,1.61s.1,1.15.31,1.62c.21.46.52.81.92,1.07.4.26.89.38,1.45.38Zm5.67-4.6h.9v1.4h-.25c.08-.48.32-.85.72-1.11.4-.27.85-.4,1.36-.4.45,0,.85.11,1.21.32.36.21.64.52.85.93.21.41.32.91.32,1.48s-.1,1.09-.32,1.52c-.2.43-.49.76-.88.99-.38.22-.82.34-1.33.34-.43,0-.82-.09-1.15-.26-.33-.18-.59-.43-.77-.76h.23v3.09h-.9v-7.53Zm2.6,4.66c.33,0,.61-.08.85-.25.25-.17.43-.4.56-.7.13-.31.2-.66.2-1.07,0-.59-.15-1.07-.44-1.43-.29-.36-.69-.54-1.2-.54-.29,0-.56.07-.82.21-.25.13-.46.34-.62.61-.16.27-.24.59-.24.97v.64c0,.32.07.59.22.83.16.23.36.41.62.54.26.12.55.18.85.18Zm6.56.68c-.46,0-.83-.06-1.09-.19-.26-.13-.45-.33-.56-.6-.1-.27-.16-.63-.16-1.07v-2.69h-.93v-.81h.93v-1.43h.91v1.43h1.67v.81h-1.67v2.67c0,.38.07.64.22.81.15.17.39.25.71.25h.8v.81h-.83Zm2.64-5.35h.9v5.35h-.9v-5.35Zm-.06-2.11h1.02v1.08h-1.02v-1.08Zm3.21,2.11h.88v1.12h-.2c.11-.38.33-.68.69-.9.35-.23.74-.34,1.16-.34.52,0,.95.12,1.28.37.34.25.55.57.63.98h-.26c.1-.42.33-.75.71-.99.38-.24.79-.36,1.26-.36.4,0,.75.08,1.05.23.3.14.53.36.68.65.17.28.25.63.25,1.04v3.54h-.9v-3.4c0-.38-.1-.69-.3-.91-.2-.22-.52-.34-.94-.34s-.77.13-1.04.4c-.28.26-.42.61-.42,1.04v3.2h-.9v-3.4c0-.38-.11-.69-.31-.91-.2-.22-.52-.34-.94-.34s-.77.13-1.05.4c-.27.26-.4.61-.4,1.04v3.2h-.9v-5.35Zm10.29,0h.9v5.35h-.9v-5.35Zm-.06-2.11h1.02v1.08h-1.02v-1.08Zm2.93,6.56l3.71-3.9v.25h-3.61v-.8h4.36v.87l-3.63,3.82-.03-.13h3.73v.8h-4.53v-.9Zm8.05,1.01c-.59,0-1.05-.14-1.39-.42-.34-.29-.51-.67-.51-1.17,0-.53.18-.93.53-1.19.36-.26.86-.4,1.51-.43.29-.01.69-.01,1.19,0,.1,0,.21,0,.3.01v-.46c0-.38-.1-.67-.3-.87-.2-.2-.48-.3-.83-.3s-.66.09-.89.28c-.22.19-.38.43-.47.73l-.84-.17c.12-.5.37-.89.74-1.17.38-.29.87-.43,1.46-.43.62,0,1.11.16,1.46.47.36.31.54.78.54,1.42v3.57h-.84v-.92l.17.02c-.15.31-.38.55-.7.74-.31.18-.69.27-1.12.27Zm.02-.75c.3,0,.57-.05.82-.15.25-.11.44-.25.57-.44.14-.19.21-.4.21-.63v-.52c-.46-.02-.96-.02-1.47,0-.38.02-.67.1-.86.25-.2.14-.29.34-.29.61s.09.48.27.64c.19.16.44.24.75.24Zm6.74.64c-.46,0-.83-.06-1.09-.19-.26-.13-.45-.33-.56-.6-.11-.27-.16-.63-.16-1.07v-2.69h-.93v-.81h.93v-1.43h.91v1.43h1.67v.81h-1.67v2.67c0,.38.08.64.22.81.15.17.39.25.71.25h.8v.81h-.83Zm2.64-5.35h.9v5.35h-.9v-5.35Zm-.06-2.11h1.02v1.08h-1.02v-1.08Zm5.42,7.57c-.77,0-1.39-.24-1.85-.73-.46-.49-.68-1.18-.68-2.06,0-.58.11-1.09.31-1.51.21-.42.51-.74.89-.95.38-.22.83-.33,1.34-.33.77,0,1.39.25,1.86.74.46.49.7,1.17.7,2.05,0,.58-.11,1.09-.33,1.51-.21.42-.51.74-.89.96-.38.22-.83.33-1.34.33Zm0-.8c.35,0,.65-.08.9-.24.25-.16.43-.39.56-.68.13-.3.19-.66.19-1.07,0-.62-.15-1.11-.44-1.46-.29-.35-.69-.53-1.21-.53-.34,0-.64.08-.89.24-.25.16-.43.39-.56.69-.13.3-.19.66-.19,1.07,0,.62.14,1.11.43,1.46.28.35.69.53,1.21.53Zm4.47-4.66h.88v1.12h-.18c.11-.38.34-.68.71-.9.37-.23.78-.34,1.21-.34s.78.08,1.08.23c.31.14.54.36.71.65.16.28.25.63.25,1.04v3.54h-.9v-3.4c0-.38-.11-.69-.33-.91-.21-.22-.54-.34-.99-.34s-.8.13-1.1.4c-.29.26-.44.61-.44,1.04v3.2h-.9v-5.35Zm12.02-1.39h-2.84v-.9h6.64v.9h-2.83v6.74h-.97v-6.74Zm5.43,1.39h.9v5.35h-.9v-5.35Zm-.06-2.11h1.02v1.08h-1.02v-1.08Zm3.21,2.11h.9v1.4h-.25c.08-.48.32-.85.72-1.11.4-.27.85-.4,1.36-.4.45,0,.85.11,1.21.32.36.21.64.52.85.93s.31.91.31,1.48-.1,1.09-.31,1.52c-.2.43-.49.76-.88.99-.38.22-.82.34-1.33.34-.43,0-.82-.09-1.15-.26-.33-.18-.59-.43-.77-.76h.22v3.09h-.9v-7.53Zm2.6,4.66c.33,0,.62-.08.85-.25.25-.17.43-.4.56-.7.13-.31.2-.66.2-1.07,0-.59-.15-1.07-.44-1.43-.29-.36-.69-.54-1.2-.54-.29,0-.56.07-.82.21-.25.13-.46.34-.62.61-.16.27-.24.59-.24.97v.64c0,.32.07.59.23.83.16.23.36.41.62.54.26.12.55.18.85.18Zm6.36.8c-.63,0-1.14-.14-1.54-.4-.4-.28-.64-.67-.74-1.18l.84-.18c.09.34.26.59.49.76.24.17.56.25.97.25s.71-.07.92-.2c.22-.14.33-.34.33-.59,0-.23-.08-.41-.25-.53-.16-.13-.43-.23-.82-.29l-.7-.12c-.52-.1-.92-.26-1.19-.49-.26-.23-.39-.57-.39-1.02,0-.32.08-.6.25-.83.17-.24.41-.42.72-.55.32-.13.68-.19,1.09-.19.61,0,1.11.15,1.47.44.38.29.6.65.67,1.09l-.82.18c-.08-.29-.23-.52-.45-.7-.21-.17-.51-.26-.9-.26-.36,0-.65.07-.87.22-.21.14-.31.33-.31.57s.08.4.25.52c.17.1.42.19.77.25l.69.12c.58.1.99.28,1.25.54.26.26.39.6.39,1.03,0,.31-.08.59-.25.82-.16.23-.39.42-.71.55-.31.13-.7.19-1.17.19Zm-103.34,8.57c-.22,0-.43-.06-.62-.17-.19-.11-.34-.26-.45-.45-.1-.19-.16-.39-.16-.62s.05-.43.16-.62c.11-.19.26-.34.45-.45.19-.11.39-.17.62-.17s.43.06.62.17c.19.1.34.26.45.45.11.19.17.39.17.62s-.06.43-.17.63c-.1.19-.25.34-.45.45-.19.11-.39.16-.62.16Zm9.41-5.33h.97v3.32h1.44l2.23-3.32h1.16l-2.7,3.87v-.33l2.8,4.1h-1.2l-2.3-3.45h-1.42v3.45h-.97v-7.64Zm9.45,7.75c-.73,0-1.33-.24-1.77-.72-.45-.48-.67-1.17-.67-2.07,0-.6.11-1.11.32-1.53.22-.42.53-.73.91-.94.38-.21.81-.32,1.29-.32.71,0,1.28.23,1.71.67.43.44.64,1.05.64,1.83,0,.25,0,.4-.01.47h-4.16l.16-.2v.06c0,.64.14,1.12.42,1.46.28.34.67.51,1.17.51.4,0,.72-.09.97-.28.25-.19.43-.43.53-.72l.8.17c-.12.48-.38.87-.78,1.17-.4.29-.9.44-1.52.44Zm1.57-3.02v-.24c0-.45-.13-.82-.4-1.11-.26-.29-.63-.44-1.09-.44-.49,0-.88.15-1.18.46-.29.31-.45.75-.48,1.33l-.16-.28h3.46l-.15.28Zm2.5,4.26h.34c.27,0,.49-.06.67-.18.18-.12.33-.32.45-.61l.36-.88.02.63-2.42-5.66h.99l1.94,4.71-.36-.02,1.74-4.69h.93l-2.44,6.17c-.13.34-.29.6-.45.8-.16.2-.34.34-.55.43-.2.09-.44.13-.72.13h-.52v-.83Zm5.55-6.7h.93l1.52,4.73h-.32l1.53-4.73h1.11l1.48,4.73h-.3l1.55-4.73h.88l-1.82,5.35h-.94l-1.54-4.92h.25l-1.58,4.92h-.94l-1.8-5.35Zm12.11,5.46c-.77,0-1.39-.24-1.85-.73-.46-.49-.69-1.18-.69-2.06,0-.58.11-1.09.32-1.51.21-.42.51-.74.89-.95.38-.22.83-.33,1.34-.33.77,0,1.39.25,1.85.74.46.49.7,1.17.7,2.05,0,.58-.11,1.09-.33,1.51-.21.42-.51.74-.89.96-.38.22-.83.33-1.34.33Zm0-.8c.35,0,.65-.08.9-.24.25-.16.43-.39.56-.68.13-.3.19-.66.19-1.07,0-.62-.15-1.11-.44-1.46-.28-.35-.69-.53-1.21-.53-.35,0-.64.08-.89.24-.25.16-.43.39-.56.69-.13.3-.19.66-.19,1.07,0,.62.14,1.11.43,1.46.28.35.69.53,1.21.53Zm4.47-4.66h.85v1h-.11c.14-.36.37-.61.67-.76.31-.16.64-.24,1-.24h.48v.87h-.4c-.41,0-.78.08-1.1.25-.32.16-.48.39-.48.7v3.54h-.91v-5.35Zm6.67,5.46c-.49,0-.93-.11-1.3-.33-.37-.23-.67-.55-.88-.97-.2-.42-.3-.92-.3-1.51s.11-1.06.32-1.48c.22-.42.52-.74.9-.96.39-.23.84-.34,1.35-.34.45,0,.85.11,1.2.33.35.21.58.49.68.83h-.25v-3.34h.9v7.64h-.87v-1.12h.2c-.13.39-.36.69-.71.91-.34.22-.75.33-1.25.33Zm.08-.8c.52,0,.93-.16,1.21-.48.29-.33.43-.76.43-1.3v-.47c0-.37-.07-.69-.21-.94-.13-.25-.33-.44-.57-.57-.24-.13-.51-.2-.82-.2-.34,0-.64.08-.9.25-.26.16-.45.39-.6.69-.13.3-.2.65-.2,1.04,0,.59.15,1.08.44,1.45.3.37.71.55,1.23.55Zm7.9-6.96h3.06c.82,0,1.43.2,1.86.58.43.39.64.98.64,1.76,0,.5-.1.93-.29,1.29-.19.35-.47.62-.85.81-.38.19-.85.28-1.42.28h-2.02v2.91h-.97v-7.64Zm2.63,4.16h1.09l2.17,3.48h-1.14l-2.12-3.48Zm.35-.31c.56,0,.97-.12,1.23-.37.26-.25.39-.62.39-1.11,0-.53-.13-.9-.38-1.12-.25-.23-.66-.35-1.24-.35h-2.01v2.96h2.01Zm6.72,3.91c-.73,0-1.33-.24-1.78-.72-.45-.48-.67-1.17-.67-2.07,0-.6.11-1.11.33-1.53.23-.42.53-.73.91-.94.38-.21.81-.32,1.29-.32.71,0,1.28.23,1.71.67.43.44.64,1.05.64,1.83,0,.25,0,.4-.01.47h-4.16l.16-.2v.06c0,.64.14,1.12.42,1.46.29.34.67.51,1.17.51.4,0,.72-.09.97-.28.25-.19.43-.43.53-.72l.8.17c-.12.48-.38.87-.77,1.17-.4.29-.9.44-1.52.44Zm1.57-3.02v-.24c0-.45-.14-.82-.4-1.11-.26-.29-.63-.44-1.09-.44s-.88.15-1.18.46c-.29.31-.45.75-.48,1.33l-.16-.28h3.46l-.15.28Zm3.12-1.63h-1.03v-.81h1.03v-.47c0-.46.08-.82.23-1.08.16-.27.38-.46.66-.57.29-.11.66-.17,1.11-.17h.66v.81h-.63c-.4,0-.7.09-.88.26-.17.16-.26.45-.26.84v.38h1.64v.81h-1.64v4.54h-.9v-4.54Zm3.56-.81h.9v5.35h-.9v-5.35Zm-.06-2.11h1.02v1.08h-1.02v-1.08Zm3.2,2.11h.88v1.12h-.18c.11-.38.34-.68.71-.9.38-.23.78-.34,1.21-.34s.78.08,1.08.23c.31.14.54.36.71.65.16.28.25.63.25,1.04v3.54h-.9v-3.4c0-.38-.11-.69-.33-.91-.21-.22-.54-.34-.99-.34s-.8.13-1.1.4c-.29.26-.44.61-.44,1.04v3.2h-.9v-5.35Zm8.94,5.46c-.73,0-1.33-.24-1.78-.72-.45-.48-.67-1.17-.67-2.07,0-.6.11-1.11.33-1.53.22-.42.53-.73.91-.94.38-.21.81-.32,1.29-.32.71,0,1.28.23,1.71.67.43.44.64,1.05.64,1.83,0,.25,0,.4-.01.47h-4.16l.16-.2v.06c0,.64.14,1.12.42,1.46.28.34.67.51,1.17.51.4,0,.72-.09.97-.28.26-.19.43-.43.53-.72l.8.17c-.12.48-.38.87-.78,1.17-.4.29-.9.44-1.52.44Zm1.57-3.02v-.24c0-.45-.13-.82-.4-1.11-.26-.29-.62-.44-1.09-.44s-.88.15-1.18.46c-.29.31-.45.75-.48,1.33l-.16-.28h3.46l-.15.28Zm2.7-2.44h.88v1.12h-.2c.11-.38.33-.68.68-.9.35-.23.74-.34,1.16-.34.52,0,.95.12,1.28.37.34.25.55.57.63.98h-.26c.1-.42.33-.75.71-.99.37-.24.79-.36,1.26-.36.4,0,.75.08,1.05.23.3.14.53.36.68.65.17.28.25.63.25,1.04v3.54h-.9v-3.4c0-.38-.1-.69-.3-.91-.2-.22-.52-.34-.94-.34s-.77.13-1.05.4c-.28.26-.42.61-.42,1.04v3.2h-.9v-3.4c0-.38-.1-.69-.31-.91-.2-.22-.52-.34-.94-.34s-.77.13-1.05.4c-.27.26-.4.61-.4,1.04v3.2h-.9v-5.35Zm12.41,5.46c-.73,0-1.33-.24-1.78-.72-.45-.48-.67-1.17-.67-2.07,0-.6.11-1.11.33-1.53.22-.42.53-.73.91-.94.38-.21.81-.32,1.29-.32.71,0,1.28.23,1.71.67.43.44.64,1.05.64,1.83,0,.25,0,.4-.01.47h-4.16l.16-.2v.06c0,.64.14,1.12.42,1.46.28.34.67.51,1.17.51.4,0,.72-.09.97-.28.26-.19.43-.43.53-.72l.8.17c-.12.48-.38.87-.78,1.17-.4.29-.9.44-1.52.44Zm1.57-3.02v-.24c0-.45-.13-.82-.4-1.11-.26-.29-.62-.44-1.09-.44s-.88.15-1.18.46c-.29.31-.45.75-.48,1.33l-.16-.28h3.46l-.15.28Zm2.7-2.44h.88v1.12h-.18c.1-.38.34-.68.71-.9.37-.23.78-.34,1.21-.34s.78.08,1.08.23c.31.14.54.36.71.65.17.28.25.63.25,1.04v3.54h-.9v-3.4c0-.38-.11-.69-.33-.91-.21-.22-.54-.34-.99-.34s-.8.13-1.1.4c-.29.26-.44.61-.44,1.04v3.2h-.9v-5.35Zm8.94,5.35c-.46,0-.83-.06-1.09-.19-.26-.13-.45-.33-.56-.6-.1-.27-.16-.63-.16-1.07v-2.69h-.93v-.81h.93v-1.43h.91v1.43h1.67v.81h-1.67v2.67c0,.38.07.64.22.81.15.17.39.25.71.25h.8v.81h-.83Zm4.56.11c-.63,0-1.14-.14-1.54-.4-.4-.28-.64-.67-.74-1.18l.84-.18c.09.34.26.59.49.76.24.17.56.25.97.25s.71-.07.92-.2c.22-.14.33-.34.33-.59,0-.23-.08-.41-.25-.53-.16-.13-.43-.23-.82-.29l-.7-.12c-.52-.1-.92-.26-1.19-.49-.26-.23-.39-.57-.39-1.02,0-.32.08-.6.25-.83.17-.24.41-.42.72-.55.32-.13.68-.19,1.09-.19.61,0,1.1.15,1.47.44.38.29.6.65.67,1.09l-.82.18c-.08-.29-.23-.52-.45-.7-.21-.17-.51-.26-.9-.26-.36,0-.65.07-.87.22-.21.14-.31.33-.31.57s.08.4.25.52c.17.1.42.19.78.25l.69.12c.58.1.99.28,1.25.54.26.26.39.6.39,1.03,0,.31-.08.59-.25.82-.16.23-.39.42-.71.55-.31.13-.7.19-1.17.19Z"></path><path class="m" d="m180.42,255.12c-.22,0-.43-.06-.62-.17-.19-.11-.34-.26-.45-.45-.1-.19-.16-.39-.16-.62s.05-.43.16-.62c.11-.19.26-.34.45-.45.19-.11.39-.17.62-.17s.43.06.62.17c.19.1.34.25.45.45.11.19.17.39.17.62s-.06.44-.17.63c-.1.19-.25.34-.45.45-.19.1-.39.16-.62.16Zm11.71-5.33h1.21l2.98,7.64h-1.04l-2.69-7.1h.26l-2.63,7.1h-1.03l2.94-7.64Zm-1.51,4.61h4.17v.88h-4.17v-.88Zm9.57,3.15c-.75,0-1.36-.24-1.82-.72-.46-.48-.69-1.17-.69-2.07,0-.61.1-1.12.32-1.53.22-.42.51-.73.89-.94.38-.21.82-.32,1.3-.32.66,0,1.18.15,1.56.46.39.31.64.71.74,1.22l-.87.15c-.09-.3-.25-.55-.47-.74-.22-.2-.54-.29-.97-.29-.34,0-.63.08-.88.25-.24.16-.42.39-.55.69-.12.3-.18.65-.18,1.06,0,.61.14,1.09.42,1.45.29.36.68.54,1.19.54.43,0,.75-.1.97-.29.22-.2.37-.45.46-.76l.86.16c-.1.52-.35.93-.73,1.24-.38.31-.9.46-1.56.46Zm6.29,0c-.75,0-1.36-.24-1.82-.72-.46-.48-.68-1.17-.68-2.07,0-.61.1-1.12.32-1.53.22-.42.51-.73.89-.94.38-.21.82-.32,1.3-.32.66,0,1.18.15,1.56.46.39.31.64.71.74,1.22l-.87.15c-.09-.3-.25-.55-.47-.74-.22-.2-.54-.29-.97-.29-.34,0-.63.08-.88.25-.24.16-.42.39-.55.69-.12.3-.18.65-.18,1.06,0,.61.14,1.09.42,1.45.28.36.68.54,1.19.54.43,0,.75-.1.97-.29.22-.2.37-.45.46-.76l.87.16c-.11.52-.35.93-.73,1.24-.38.31-.9.46-1.56.46Zm6.32,0c-.77,0-1.39-.24-1.85-.73-.46-.49-.69-1.18-.69-2.06,0-.58.11-1.09.32-1.51.21-.42.51-.74.89-.96.38-.22.83-.33,1.34-.33.77,0,1.39.25,1.85.74.46.49.7,1.17.7,2.05,0,.58-.11,1.09-.33,1.51-.21.42-.51.74-.89.96-.38.22-.83.33-1.34.33Zm0-.8c.35,0,.65-.08.9-.24.25-.16.43-.39.56-.68.13-.3.19-.66.19-1.07,0-.62-.15-1.11-.44-1.46-.29-.35-.69-.53-1.21-.53-.35,0-.64.08-.89.24s-.43.39-.56.68c-.13.3-.19.66-.19,1.07,0,.62.14,1.11.43,1.46.28.35.69.53,1.21.53Zm6.39.8c-.42,0-.78-.07-1.08-.21-.29-.15-.52-.37-.67-.65-.16-.29-.24-.65-.24-1.06v-3.54h.9v3.4c0,.38.1.69.3.91.21.22.53.34.97.34.29,0,.54-.06.77-.18.24-.12.43-.29.56-.51.13-.22.2-.47.2-.76v-3.2h.9v5.35h-.88v-1.12h.18c-.11.38-.35.68-.72.91-.37.22-.77.33-1.2.33Zm4.86-5.46h.88v1.12h-.18c.1-.38.34-.68.71-.9.37-.22.78-.34,1.21-.34s.78.07,1.08.22c.31.14.54.36.71.65.16.28.25.63.25,1.04v3.54h-.9v-3.4c0-.38-.11-.69-.33-.91-.21-.22-.54-.34-.99-.34s-.8.14-1.1.4c-.29.26-.44.61-.44,1.04v3.2h-.9v-5.35Zm8.94,5.35c-.46,0-.83-.06-1.09-.19-.26-.13-.45-.33-.56-.6-.1-.27-.16-.63-.16-1.07v-2.68h-.93v-.81h.93v-1.43h.91v1.43h1.67v.81h-1.67v2.67c0,.38.07.64.23.81.15.17.38.25.71.25h.8v.81h-.83Zm8.06-7.64h1.21l2.98,7.64h-1.05l-2.69-7.1h.26l-2.63,7.1h-1.03l2.95-7.64Zm-1.51,4.61h4.17v.88h-4.17v-.88Zm7.44-2.32h.88v1.12h-.18c.11-.38.34-.68.71-.9.38-.22.78-.34,1.21-.34s.78.07,1.08.22c.31.14.54.36.71.65.17.28.25.63.25,1.04v3.54h-.9v-3.4c0-.38-.11-.69-.33-.91-.21-.22-.54-.34-.99-.34s-.8.14-1.1.4c-.29.26-.44.61-.44,1.04v3.2h-.9v-5.35Zm8.43,5.46c-.58,0-1.05-.14-1.39-.42-.34-.29-.51-.67-.51-1.17,0-.53.18-.93.53-1.19.36-.26.86-.4,1.51-.43.29-.02.69-.02,1.19,0,.11,0,.21,0,.3.01v-.46c0-.38-.1-.67-.3-.87-.2-.2-.48-.3-.83-.3s-.66.09-.89.28c-.23.19-.38.43-.47.73l-.84-.17c.12-.5.37-.89.74-1.17.38-.29.87-.43,1.46-.43.62,0,1.11.16,1.46.47.36.31.54.78.54,1.42v3.57h-.84v-.92l.17.02c-.15.31-.38.55-.7.74-.32.18-.69.27-1.12.27Zm.02-.75c.3,0,.57-.05.82-.15.25-.11.44-.25.57-.44.14-.19.21-.4.21-.63v-.52c-.46-.02-.95-.02-1.47,0-.38.01-.67.1-.86.25-.2.14-.29.34-.29.61s.09.48.27.64c.19.16.44.24.75.24Zm4.64-7h.9v7.64h-.9v-7.64Zm3.06,8.99h.34c.27,0,.49-.06.67-.18.18-.12.33-.32.45-.61l.36-.88.02.63-2.42-5.66h.99l1.94,4.71-.36-.02,1.74-4.69h.93l-2.44,6.17c-.13.34-.28.6-.45.8-.16.2-.34.34-.55.43-.2.09-.44.13-.72.13h-.52v-.83Zm8.1-1.24c-.63,0-1.14-.14-1.54-.4-.4-.28-.64-.67-.74-1.18l.84-.18c.09.34.25.59.49.76.24.17.56.25.97.25s.71-.07.92-.2c.22-.14.33-.34.33-.59,0-.23-.08-.41-.25-.53-.16-.13-.43-.23-.82-.29l-.7-.12c-.52-.1-.92-.26-1.19-.49-.26-.23-.39-.57-.39-1.02,0-.32.08-.6.25-.83.17-.24.41-.42.72-.55.32-.13.68-.19,1.09-.19.61,0,1.11.15,1.47.44.38.29.6.65.67,1.09l-.82.18c-.08-.29-.23-.52-.45-.7-.21-.17-.51-.26-.9-.26-.36,0-.65.07-.86.23-.21.14-.31.33-.31.57s.08.4.25.52c.16.1.42.19.77.25l.69.12c.58.1.99.28,1.25.54.26.26.39.6.39,1.03,0,.31-.08.59-.25.82-.16.23-.39.42-.71.55-.32.13-.7.19-1.17.19Zm4.03-5.46h.9v5.35h-.9v-5.35Zm-.06-2.11h1.02v1.08h-1.02v-1.08Zm5.13,7.57c-.63,0-1.14-.14-1.54-.4-.4-.28-.64-.67-.74-1.18l.84-.18c.09.34.26.59.49.76.24.17.56.25.97.25s.71-.07.92-.2c.22-.14.33-.34.33-.59,0-.23-.08-.41-.25-.53-.16-.13-.43-.23-.82-.29l-.7-.12c-.52-.1-.92-.26-1.19-.49-.26-.23-.39-.57-.39-1.02,0-.32.08-.6.25-.83.17-.24.41-.42.72-.55.32-.13.68-.19,1.09-.19.61,0,1.11.15,1.47.44.38.29.6.65.67,1.09l-.82.18c-.08-.29-.23-.52-.45-.7-.21-.17-.51-.26-.9-.26-.36,0-.65.07-.87.23-.21.14-.31.33-.31.57s.08.4.25.52c.17.1.42.19.77.25l.69.12c.58.1.99.28,1.25.54.26.26.39.6.39,1.03,0,.31-.08.59-.25.82-.16.23-.39.42-.71.55-.32.13-.7.19-1.17.19Zm-99.94,8.57c-.22,0-.43-.06-.62-.17-.19-.11-.34-.26-.45-.45-.1-.19-.16-.39-.16-.62s.05-.43.16-.62c.11-.19.26-.34.45-.45.19-.11.39-.17.62-.17s.43.06.62.17c.19.1.34.26.45.45.11.19.17.39.17.62s-.06.43-.17.63c-.1.19-.25.34-.45.45-.19.11-.39.16-.62.16Zm12.71,2.43c-.74,0-1.39-.16-1.94-.47-.55-.32-.97-.76-1.27-1.35-.3-.59-.45-1.3-.45-2.11s.15-1.52.45-2.1c.3-.59.72-1.04,1.27-1.36.55-.32,1.2-.47,1.94-.47s1.39.16,1.93.47c.55.31.97.76,1.27,1.35.3.59.45,1.3.45,2.11s-.15,1.52-.45,2.11c-.3.59-.72,1.04-1.27,1.36-.55.31-1.19.46-1.93.46Zm0-.86c.56,0,1.04-.13,1.44-.38.4-.25.71-.61.92-1.07.21-.46.32-1,.32-1.62s-.11-1.15-.32-1.61c-.21-.46-.52-.82-.92-1.08-.4-.26-.88-.38-1.44-.38s-1.04.13-1.45.38c-.4.26-.71.61-.92,1.08-.21.46-.31.99-.31,1.61s.1,1.15.31,1.62c.21.46.52.81.92,1.07.4.26.89.38,1.45.38Zm5.67-4.6h.9v1.4h-.25c.08-.48.32-.85.72-1.11.4-.27.85-.4,1.36-.4.45,0,.85.11,1.21.32.36.21.64.52.85.93.21.41.32.91.32,1.48s-.1,1.09-.32,1.52c-.2.43-.49.76-.88.99-.38.22-.82.34-1.33.34-.43,0-.82-.09-1.15-.26-.33-.18-.59-.43-.77-.76h.23v3.09h-.9v-7.53Zm2.6,4.66c.33,0,.61-.08.85-.25.25-.17.43-.4.56-.7.13-.31.2-.66.2-1.07,0-.59-.15-1.07-.44-1.43-.29-.36-.69-.54-1.2-.54-.29,0-.56.07-.82.21-.25.13-.46.34-.62.61-.16.27-.24.59-.24.97v.64c0,.32.07.59.22.83.16.23.36.41.62.54.26.12.55.18.85.18Zm6.56.68c-.46,0-.83-.06-1.09-.19-.26-.13-.45-.33-.56-.6-.1-.27-.16-.63-.16-1.07v-2.69h-.93v-.81h.93v-1.43h.91v1.43h1.67v.81h-1.67v2.67c0,.38.07.64.22.81.15.17.39.25.71.25h.8v.81h-.83Zm2.64-5.35h.9v5.35h-.9v-5.35Zm-.06-2.11h1.02v1.08h-1.02v-1.08Zm3.21,2.11h.88v1.12h-.2c.11-.38.33-.68.69-.9.35-.23.74-.34,1.16-.34.52,0,.95.12,1.28.37.34.25.55.57.63.98h-.26c.1-.42.33-.75.71-.99.38-.24.79-.36,1.26-.36.4,0,.75.08,1.05.23.3.14.53.36.68.65.17.28.25.63.25,1.04v3.54h-.9v-3.4c0-.38-.1-.69-.3-.91-.2-.22-.52-.34-.94-.34s-.77.13-1.04.4c-.28.26-.42.61-.42,1.04v3.2h-.9v-3.4c0-.38-.11-.69-.31-.91-.2-.22-.52-.34-.94-.34s-.77.13-1.05.4c-.27.26-.4.61-.4,1.04v3.2h-.9v-5.35Zm10.29,0h.9v5.35h-.9v-5.35Zm-.06-2.11h1.02v1.08h-1.02v-1.08Zm2.93,6.56l3.71-3.9v.25h-3.61v-.8h4.36v.87l-3.63,3.82-.03-.13h3.73v.8h-4.53v-.9Zm8.05,1.01c-.59,0-1.05-.14-1.39-.42-.34-.29-.51-.67-.51-1.17,0-.53.18-.93.53-1.19.36-.26.86-.4,1.51-.43.29-.01.69-.01,1.19,0,.1,0,.21,0,.3.01v-.46c0-.38-.1-.67-.3-.87-.2-.2-.48-.3-.83-.3s-.66.09-.89.28c-.22.19-.38.43-.47.73l-.84-.17c.12-.5.37-.89.74-1.17.38-.29.87-.43,1.46-.43.62,0,1.11.16,1.46.47.36.31.54.78.54,1.42v3.57h-.84v-.92l.17.02c-.15.31-.38.55-.7.74-.31.18-.69.27-1.12.27Zm.02-.75c.3,0,.57-.05.82-.15.25-.11.44-.25.57-.44.14-.19.21-.4.21-.63v-.52c-.46-.02-.96-.02-1.47,0-.38.02-.67.1-.86.25-.2.14-.29.34-.29.61s.09.48.27.64c.19.16.44.24.75.24Zm6.74.64c-.46,0-.83-.06-1.09-.19-.26-.13-.45-.33-.56-.6-.11-.27-.16-.63-.16-1.07v-2.69h-.93v-.81h.93v-1.43h.91v1.43h1.67v.81h-1.67v2.67c0,.38.08.64.22.81.15.17.39.25.71.25h.8v.81h-.83Zm2.64-5.35h.9v5.35h-.9v-5.35Zm-.06-2.11h1.02v1.08h-1.02v-1.08Zm5.42,7.57c-.77,0-1.39-.24-1.85-.73-.46-.49-.68-1.18-.68-2.06,0-.58.11-1.09.31-1.51.21-.42.51-.74.89-.95.38-.22.83-.33,1.34-.33.77,0,1.39.25,1.86.74.46.49.7,1.17.7,2.05,0,.58-.11,1.09-.33,1.51-.21.42-.51.74-.89.96-.38.22-.83.33-1.34.33Zm0-.8c.35,0,.65-.08.9-.24.25-.16.43-.39.56-.68.13-.3.19-.66.19-1.07,0-.62-.15-1.11-.44-1.46-.29-.35-.69-.53-1.21-.53-.34,0-.64.08-.89.24-.25.16-.43.39-.56.69-.13.3-.19.66-.19,1.07,0,.62.14,1.11.43,1.46.28.35.69.53,1.21.53Zm4.47-4.66h.88v1.12h-.18c.11-.38.34-.68.71-.9.37-.23.78-.34,1.21-.34s.78.08,1.08.23c.31.14.54.36.71.65.16.28.25.63.25,1.04v3.54h-.9v-3.4c0-.38-.11-.69-.33-.91-.21-.22-.54-.34-.99-.34s-.8.13-1.1.4c-.29.26-.44.61-.44,1.04v3.2h-.9v-5.35Zm12.02-1.39h-2.84v-.9h6.64v.9h-2.83v6.74h-.97v-6.74Zm5.43,1.39h.9v5.35h-.9v-5.35Zm-.06-2.11h1.02v1.08h-1.02v-1.08Zm3.21,2.11h.9v1.4h-.25c.08-.48.32-.85.72-1.11.4-.27.85-.4,1.36-.4.45,0,.85.11,1.21.32.36.21.64.52.85.93s.31.91.31,1.48-.1,1.09-.31,1.52c-.2.43-.49.76-.88.99-.38.22-.82.34-1.33.34-.43,0-.82-.09-1.15-.26-.33-.18-.59-.43-.77-.76h.22v3.09h-.9v-7.53Zm2.6,4.66c.33,0,.62-.08.85-.25.25-.17.43-.4.56-.7.13-.31.2-.66.2-1.07,0-.59-.15-1.07-.44-1.43-.29-.36-.69-.54-1.2-.54-.29,0-.56.07-.82.21-.25.13-.46.34-.62.61-.16.27-.24.59-.24.97v.64c0,.32.07.59.23.83.16.23.36.41.62.54.26.12.55.18.85.18Zm6.36.8c-.63,0-1.14-.14-1.54-.4-.4-.28-.64-.67-.74-1.18l.84-.18c.09.34.26.59.49.76.24.17.56.25.97.25s.71-.07.92-.2c.22-.14.33-.34.33-.59,0-.23-.08-.41-.25-.53-.16-.13-.43-.23-.82-.29l-.7-.12c-.52-.1-.92-.26-1.19-.49-.26-.23-.39-.57-.39-1.02,0-.32.08-.6.25-.83.17-.24.41-.42.72-.55.32-.13.68-.19,1.09-.19.61,0,1.11.15,1.47.44.38.29.6.65.67,1.09l-.82.18c-.08-.29-.23-.52-.45-.7-.21-.17-.51-.26-.9-.26-.36,0-.65.07-.87.22-.21.14-.31.33-.31.57s.08.4.25.52c.17.1.42.19.77.25l.69.12c.58.1.99.28,1.25.54.26.26.39.6.39,1.03,0,.31-.08.59-.25.82-.16.23-.39.42-.71.55-.31.13-.7.19-1.17.19Zm-103.34,8.57c-.22,0-.43-.06-.62-.17-.19-.11-.34-.26-.45-.45-.1-.19-.16-.39-.16-.62s.05-.43.16-.62c.11-.19.26-.34.45-.45.19-.11.39-.17.62-.17s.43.06.62.17c.19.1.34.26.45.45.11.19.17.39.17.62s-.06.43-.17.63c-.1.19-.25.34-.45.45-.19.11-.39.16-.62.16Zm9.41-5.33h.97v3.32h1.44l2.23-3.32h1.16l-2.7,3.87v-.33l2.8,4.1h-1.2l-2.3-3.45h-1.42v3.45h-.97v-7.64Zm9.45,7.75c-.73,0-1.33-.24-1.77-.72-.45-.48-.67-1.17-.67-2.07,0-.6.11-1.11.32-1.53.22-.42.53-.73.91-.94.38-.21.81-.32,1.29-.32.71,0,1.28.23,1.71.67.43.44.64,1.05.64,1.83,0,.25,0,.4-.01.47h-4.16l.16-.2v.06c0,.64.14,1.12.42,1.46.28.34.67.51,1.17.51.4,0,.72-.09.97-.28.25-.19.43-.43.53-.72l.8.17c-.12.48-.38.87-.78,1.17-.4.29-.9.44-1.52.44Zm1.57-3.02v-.24c0-.45-.13-.82-.4-1.11-.26-.29-.63-.44-1.09-.44-.49,0-.88.15-1.18.46-.29.31-.45.75-.48,1.33l-.16-.28h3.46l-.15.28Zm2.5,4.26h.34c.27,0,.49-.06.67-.18.18-.12.33-.32.45-.61l.36-.88.02.63-2.42-5.66h.99l1.94,4.71-.36-.02,1.74-4.69h.93l-2.44,6.17c-.13.34-.29.6-.45.8-.16.2-.34.34-.55.43-.2.09-.44.13-.72.13h-.52v-.83Zm5.55-6.7h.93l1.52,4.73h-.32l1.53-4.73h1.11l1.48,4.73h-.3l1.55-4.73h.88l-1.82,5.35h-.94l-1.54-4.92h.25l-1.58,4.92h-.94l-1.8-5.35Zm12.11,5.46c-.77,0-1.39-.24-1.85-.73-.46-.49-.69-1.18-.69-2.06,0-.58.11-1.09.32-1.51.21-.42.51-.74.89-.95.38-.22.83-.33,1.34-.33.77,0,1.39.25,1.85.74.46.49.7,1.17.7,2.05,0,.58-.11,1.09-.33,1.51-.21.42-.51.74-.89.96-.38.22-.83.33-1.34.33Zm0-.8c.35,0,.65-.08.9-.24.25-.16.43-.39.56-.68.13-.3.19-.66.19-1.07,0-.62-.15-1.11-.44-1.46-.28-.35-.69-.53-1.21-.53-.35,0-.64.08-.89.24-.25.16-.43.39-.56.69-.13.3-.19.66-.19,1.07,0,.62.14,1.11.43,1.46.28.35.69.53,1.21.53Zm4.47-4.66h.85v1h-.11c.14-.36.37-.61.67-.76.31-.16.64-.24,1-.24h.48v.87h-.4c-.41,0-.78.08-1.1.25-.32.16-.48.39-.48.7v3.54h-.91v-5.35Zm6.67,5.46c-.49,0-.93-.11-1.3-.33-.37-.23-.67-.55-.88-.97-.2-.42-.3-.92-.3-1.51s.11-1.06.32-1.48c.22-.42.52-.74.9-.96.39-.23.84-.34,1.35-.34.45,0,.85.11,1.2.33.35.21.58.49.68.83h-.25v-3.34h.9v7.64h-.87v-1.12h.2c-.13.39-.36.69-.71.91-.34.22-.75.33-1.25.33Zm.08-.8c.52,0,.93-.16,1.21-.48.29-.33.43-.76.43-1.3v-.47c0-.37-.07-.69-.21-.94-.13-.25-.33-.44-.57-.57-.24-.13-.51-.2-.82-.2-.34,0-.64.08-.9.25-.26.16-.45.39-.6.69-.13.3-.2.65-.2,1.04,0,.59.15,1.08.44,1.45.3.37.71.55,1.23.55Zm7.9-6.96h3.06c.82,0,1.43.2,1.86.58.43.39.64.98.64,1.76,0,.5-.1.93-.29,1.29-.19.35-.47.62-.85.81-.38.19-.85.28-1.42.28h-2.02v2.91h-.97v-7.64Zm2.63,4.16h1.09l2.17,3.48h-1.14l-2.12-3.48Zm.35-.31c.56,0,.97-.12,1.23-.37.26-.25.39-.62.39-1.11,0-.53-.13-.9-.38-1.12-.25-.23-.66-.35-1.24-.35h-2.01v2.96h2.01Zm6.72,3.91c-.73,0-1.33-.24-1.78-.72-.45-.48-.67-1.17-.67-2.07,0-.6.11-1.11.33-1.53.23-.42.53-.73.91-.94.38-.21.81-.32,1.29-.32.71,0,1.28.23,1.71.67.43.44.64,1.05.64,1.83,0,.25,0,.4-.01.47h-4.16l.16-.2v.06c0,.64.14,1.12.42,1.46.29.34.67.51,1.17.51.4,0,.72-.09.97-.28.25-.19.43-.43.53-.72l.8.17c-.12.48-.38.87-.77,1.17-.4.29-.9.44-1.52.44Zm1.57-3.02v-.24c0-.45-.14-.82-.4-1.11-.26-.29-.63-.44-1.09-.44s-.88.15-1.18.46c-.29.31-.45.75-.48,1.33l-.16-.28h3.46l-.15.28Zm3.12-1.63h-1.03v-.81h1.03v-.47c0-.46.08-.82.23-1.08.16-.27.38-.46.66-.57.29-.11.66-.17,1.11-.17h.66v.81h-.63c-.4,0-.7.09-.88.26-.17.16-.26.45-.26.84v.38h1.64v.81h-1.64v4.54h-.9v-4.54Zm3.56-.81h.9v5.35h-.9v-5.35Zm-.06-2.11h1.02v1.08h-1.02v-1.08Zm3.2,2.11h.88v1.12h-.18c.11-.38.34-.68.71-.9.38-.23.78-.34,1.21-.34s.78.08,1.08.23c.31.14.54.36.71.65.16.28.25.63.25,1.04v3.54h-.9v-3.4c0-.38-.11-.69-.33-.91-.21-.22-.54-.34-.99-.34s-.8.13-1.1.4c-.29.26-.44.61-.44,1.04v3.2h-.9v-5.35Zm8.94,5.46c-.73,0-1.33-.24-1.78-.72-.45-.48-.67-1.17-.67-2.07,0-.6.11-1.11.33-1.53.22-.42.53-.73.91-.94.38-.21.81-.32,1.29-.32.71,0,1.28.23,1.71.67.43.44.64,1.05.64,1.83,0,.25,0,.4-.01.47h-4.16l.16-.2v.06c0,.64.14,1.12.42,1.46.28.34.67.51,1.17.51.4,0,.72-.09.97-.28.26-.19.43-.43.53-.72l.8.17c-.12.48-.38.87-.78,1.17-.4.29-.9.44-1.52.44Zm1.57-3.02v-.24c0-.45-.13-.82-.4-1.11-.26-.29-.62-.44-1.09-.44s-.88.15-1.18.46c-.29.31-.45.75-.48,1.33l-.16-.28h3.46l-.15.28Zm2.7-2.44h.88v1.12h-.2c.11-.38.33-.68.68-.9.35-.23.74-.34,1.16-.34.52,0,.95.12,1.28.37.34.25.55.57.63.98h-.26c.1-.42.33-.75.71-.99.37-.24.79-.36,1.26-.36.4,0,.75.08,1.05.23.3.14.53.36.68.65.17.28.25.63.25,1.04v3.54h-.9v-3.4c0-.38-.1-.69-.3-.91-.2-.22-.52-.34-.94-.34s-.77.13-1.05.4c-.28.26-.42.61-.42,1.04v3.2h-.9v-3.4c0-.38-.1-.69-.31-.91-.2-.22-.52-.34-.94-.34s-.77.13-1.05.4c-.27.26-.4.61-.4,1.04v3.2h-.9v-5.35Zm12.41,5.46c-.73,0-1.33-.24-1.78-.72-.45-.48-.67-1.17-.67-2.07,0-.6.11-1.11.33-1.53.22-.42.53-.73.91-.94.38-.21.81-.32,1.29-.32.71,0,1.28.23,1.71.67.43.44.64,1.05.64,1.83,0,.25,0,.4-.01.47h-4.16l.16-.2v.06c0,.64.14,1.12.42,1.46.28.34.67.51,1.17.51.4,0,.72-.09.97-.28.26-.19.43-.43.53-.72l.8.17c-.12.48-.38.87-.78,1.17-.4.29-.9.44-1.52.44Zm1.57-3.02v-.24c0-.45-.13-.82-.4-1.11-.26-.29-.62-.44-1.09-.44s-.88.15-1.18.46c-.29.31-.45.75-.48,1.33l-.16-.28h3.46l-.15.28Zm2.7-2.44h.88v1.12h-.18c.1-.38.34-.68.71-.9.37-.23.78-.34,1.21-.34s.78.08,1.08.23c.31.14.54.36.71.65.17.28.25.63.25,1.04v3.54h-.9v-3.4c0-.38-.11-.69-.33-.91-.21-.22-.54-.34-.99-.34s-.8.13-1.1.4c-.29.26-.44.61-.44,1.04v3.2h-.9v-5.35Zm8.94,5.35c-.46,0-.83-.06-1.09-.19-.26-.13-.45-.33-.56-.6-.1-.27-.16-.63-.16-1.07v-2.69h-.93v-.81h.93v-1.43h.91v1.43h1.67v.81h-1.67v2.67c0,.38.07.64.22.81.15.17.39.25.71.25h.8v.81h-.83Zm4.56.11c-.63,0-1.14-.14-1.54-.4-.4-.28-.64-.67-.74-1.18l.84-.18c.09.34.26.59.49.76.24.17.56.25.97.25s.71-.07.92-.2c.22-.14.33-.34.33-.59,0-.23-.08-.41-.25-.53-.16-.13-.43-.23-.82-.29l-.7-.12c-.52-.1-.92-.26-1.19-.49-.26-.23-.39-.57-.39-1.02,0-.32.08-.6.25-.83.17-.24.41-.42.72-.55.32-.13.68-.19,1.09-.19.61,0,1.1.15,1.47.44.38.29.6.65.67,1.09l-.82.18c-.08-.29-.23-.52-.45-.7-.21-.17-.51-.26-.9-.26-.36,0-.65.07-.87.22-.21.14-.31.33-.31.57s.08.4.25.52c.17.1.42.19.78.25l.69.12c.58.1.99.28,1.25.54.26.26.39.6.39,1.03,0,.31-.08.59-.25.82-.16.23-.39.42-.71.55-.31.13-.7.19-1.17.19Z"></path></g></g></svg> 