<?xml version="1.0" encoding="UTF-8"?> <svg xmlns="http://www.w3.org/2000/svg" width="254" height="44" viewBox="0 0 254 44" fill="none"><g clip-path="url(#clip0_5116_112332)"><path fill-rule="evenodd" clip-rule="evenodd" d="M22 0C9.84976 0 3.05176e-05 9.84973 3.05176e-05 22C3.05176e-05 34.1503 9.84976 44 22 44C34.1503 44 44 34.1503 44 22C44 9.84973 34.1503 0 22 0ZM22 4.4C12.2798 4.4 4.40002 12.2798 4.40002 22C4.40002 31.7202 12.2798 39.6 22 39.6C31.7202 39.6 39.6 31.7202 39.6 22C39.6 12.2798 31.7202 4.4 22 4.4Z" fill="#FFFEFB"></path><path fill-rule="evenodd" clip-rule="evenodd" d="M22.0004 35.1998C29.2905 35.1998 35.2004 29.2899 35.2004 21.9998C35.2004 14.7097 29.2905 8.7998 22.0004 8.7998C14.7103 8.7998 8.80042 14.7097 8.80042 21.9998C8.80042 29.2899 14.7103 35.1998 22.0004 35.1998ZM22.0239 27.7899L27.8547 30.8091L26.7546 24.3866L31.4303 19.8305L24.9393 18.8973L22.0239 13.0238L19.1634 18.8973L12.6724 19.8305L17.3481 24.3866L16.2479 30.8091L22.0239 27.7899Z" fill="#FFFEFB"></path><mask id="mask0_5116_112332" style="mask-type:luminance" maskUnits="userSpaceOnUse" x="8" y="8" width="28" height="28"><path fill-rule="evenodd" clip-rule="evenodd" d="M22.0002 35.2008C29.2903 35.2008 35.2002 29.2909 35.2002 22.0008C35.2002 14.7106 29.2903 8.80078 22.0002 8.80078C14.71 8.80078 8.80017 14.7106 8.80017 22.0008C8.80017 29.2909 14.71 35.2008 22.0002 35.2008ZM22.0236 27.7909L27.8545 30.81L26.7544 24.3876L31.43 19.8315L24.939 18.8983L22.0236 13.0248L19.1632 18.8983L12.6722 19.8315L17.3479 24.3876L16.2477 30.81L22.0236 27.7909Z" fill="black"></path></mask><g mask="url(#mask0_5116_112332)"><path d="M27.8545 30.8097L25.4345 35.4836L34.8281 40.3474L33.0421 29.9211L27.8545 30.8097ZM22.0237 27.7906L24.4436 23.1168L22.0121 21.8579L19.5855 23.1263L22.0237 27.7906ZM26.7544 24.3873L23.0813 20.6177L21.0996 22.5487L21.5668 25.2759L26.7544 24.3873ZM31.4301 19.8312L35.1032 23.6007L42.7573 16.1423L32.1791 14.6216L31.4301 19.8312ZM24.9391 18.898L20.2247 21.2381L21.4539 23.7142L24.1901 24.1076L24.9391 18.898ZM22.0237 13.0245L26.738 10.6844L21.9787 1.09619L17.2918 10.72L22.0237 13.0245ZM19.1632 18.898L19.9121 24.1076L22.6735 23.7106L23.8951 21.2024L19.1632 18.898ZM12.6722 19.8312L11.9233 14.6216L1.34497 16.1423L8.99914 23.6007L12.6722 19.8312ZM17.3479 24.3873L22.5355 25.2759L23.0027 22.5487L21.021 20.6177L17.3479 24.3873ZM16.2477 30.8097L11.0601 29.9211L9.2654 40.3983L18.6859 35.4741L16.2477 30.8097ZM29.9371 22.0005C29.9371 26.3839 26.3836 29.9373 22.0002 29.9373V40.4636C32.1971 40.4636 40.4633 32.1974 40.4633 22.0005H29.9371ZM22.0002 14.0636C26.3836 14.0636 29.9371 17.6171 29.9371 22.0005H40.4633C40.4633 11.8035 32.1971 3.53732 22.0002 3.53732V14.0636ZM14.0633 22.0005C14.0633 17.6171 17.6168 14.0636 22.0002 14.0636V3.53732C11.8033 3.53732 3.53705 11.8035 3.53705 22.0005H14.0633ZM22.0002 29.9373C17.6168 29.9373 14.0633 26.3839 14.0633 22.0005H3.53705C3.53705 32.1974 11.8033 40.4636 22.0002 40.4636V29.9373ZM30.2745 26.1359L24.4436 23.1168L19.6037 32.4645L25.4345 35.4836L30.2745 26.1359ZM21.5668 25.2759L22.6669 31.6984L33.0421 29.9211L31.942 23.4987L21.5668 25.2759ZM27.757 16.0617L23.0813 20.6177L30.4275 28.1568L35.1032 23.6007L27.757 16.0617ZM24.1901 24.1076L30.6811 25.0408L32.1791 14.6216L25.6881 13.6884L24.1901 24.1076ZM17.3093 15.3645L20.2247 21.2381L29.6534 16.5579L26.738 10.6844L17.3093 15.3645ZM23.8951 21.2024L26.7555 15.3289L17.2918 10.72L14.4313 16.5935L23.8951 21.2024ZM13.4211 25.0408L19.9121 24.1076L18.4143 13.6884L11.9233 14.6216L13.4211 25.0408ZM21.021 20.6177L16.3453 16.0617L8.99914 23.6007L13.6748 28.1568L21.021 20.6177ZM21.4353 31.6984L22.5355 25.2759L12.1603 23.4987L11.0601 29.9211L21.4353 31.6984ZM19.5855 23.1263L13.8097 26.1453L18.6859 35.4741L24.4617 32.455L19.5855 23.1263Z" fill="#FFFEFB"></path></g><path d="M63.2885 32.0002C67.3524 32.0002 69.4964 29.4403 69.4964 26.2402C69.4964 23.5522 67.6724 21.3443 65.4005 20.9923C67.4164 20.5763 69.0804 18.7842 69.0804 16.0962C69.0804 13.2482 67.0004 10.6562 62.9365 10.6562H51.7045V32.0002H63.2885ZM61.9445 19.2002H56.2485V14.5603H61.9445C63.4805 14.5603 64.4405 15.5522 64.4405 16.8962C64.4405 18.2403 63.4805 19.2002 61.9445 19.2002ZM62.1045 28.0643H56.2485V23.1042H62.1045C63.8965 23.1042 64.8565 24.2563 64.8565 25.6003C64.8565 27.1363 63.8325 28.0643 62.1045 28.0643ZM78.7151 32.3843C83.8351 32.3843 86.9071 28.6722 86.9071 24.2562C86.9071 19.8722 83.8351 16.1602 78.7151 16.1602C73.6271 16.1602 70.5551 19.8722 70.5551 24.2562C70.5551 28.6722 73.6271 32.3843 78.7151 32.3843ZM78.7151 28.7682C76.1871 28.7682 74.7791 26.6882 74.7791 24.2562C74.7791 21.8562 76.1871 19.7762 78.7151 19.7762C81.2431 19.7762 82.6831 21.8562 82.6831 24.2562C82.6831 26.6882 81.2431 28.7682 78.7151 28.7682ZM95.8104 32.3843C100.93 32.3843 104.002 28.6722 104.002 24.2562C104.002 19.8722 100.93 16.1602 95.8104 16.1602C90.7224 16.1602 87.6504 19.8722 87.6504 24.2562C87.6504 28.6722 90.7224 32.3843 95.8104 32.3843ZM95.8104 28.7682C93.2824 28.7682 91.8744 26.6882 91.8744 24.2562C91.8744 21.8562 93.2824 19.7762 95.8104 19.7762C98.3384 19.7762 99.7784 21.8562 99.7784 24.2562C99.7784 26.6882 98.3384 28.7682 95.8104 28.7682ZM110.921 32.3843C112.617 32.3843 113.705 31.9363 114.313 31.3923L113.449 28.3202C113.225 28.5442 112.649 28.7682 112.041 28.7682C111.145 28.7682 110.633 28.0323 110.633 27.0723V20.0962H113.769V16.5443H110.633V12.3202H106.537V16.5443H103.977V20.0962H106.537V28.1603C106.537 30.9123 108.073 32.3843 110.921 32.3843ZM122.47 32.3843C125.638 32.3843 127.558 31.0083 128.582 29.5683L125.926 27.1042C125.19 28.1282 124.07 28.7682 122.662 28.7682C120.198 28.7682 118.47 26.9442 118.47 24.2562C118.47 21.5682 120.198 19.7762 122.662 19.7762C124.07 19.7762 125.19 20.3522 125.926 21.4402L128.582 18.9443C127.558 17.5363 125.638 16.1602 122.47 16.1602C117.702 16.1602 114.278 19.5202 114.278 24.2562C114.278 29.0242 117.702 32.3843 122.47 32.3843ZM143.302 32.0002V22.0162C143.302 17.5682 140.07 16.1602 136.55 16.1602C134.118 16.1602 131.686 16.9283 129.798 18.5923L131.334 21.3123C132.646 20.0963 134.182 19.4883 135.846 19.4883C137.894 19.4883 139.238 20.5122 139.238 22.0802V24.1603C138.214 22.9443 136.39 22.2723 134.342 22.2723C131.878 22.2723 128.966 23.6482 128.966 27.2642C128.966 30.7202 131.878 32.3843 134.342 32.3843C136.358 32.3843 138.182 31.6482 139.238 30.4002V32.0002H143.302ZM135.974 29.6323C134.374 29.6323 133.062 28.8003 133.062 27.3603C133.062 25.8562 134.374 25.0242 135.974 25.0242C137.286 25.0242 138.566 25.4722 139.238 26.3682V28.2882C138.566 29.1842 137.286 29.6323 135.974 29.6323ZM169.318 32.0002V20.8322C169.318 17.6642 167.622 16.1602 164.774 16.1602C162.406 16.1602 160.358 17.5683 159.462 18.9763C158.886 17.2163 157.446 16.1602 155.174 16.1602C152.806 16.1602 150.758 17.6323 150.118 18.5603V16.5443H146.054V32.0002H150.118V21.6003C150.726 20.7363 151.91 19.7762 153.318 19.7762C154.982 19.7762 155.622 20.8003 155.622 22.2402V32.0002H159.718V21.5683C160.294 20.7362 161.478 19.7762 162.918 19.7762C164.582 19.7762 165.222 20.8003 165.222 22.2402V32.0002H169.318ZM180.856 32.3843C184.824 32.3843 187.704 29.4082 187.704 24.2562C187.704 19.1042 184.824 16.1602 180.856 16.1602C178.968 16.1602 177.272 16.9922 176.088 18.4962V16.5443H172.024V37.8883H176.088V30.0162C177.336 31.6162 179.032 32.3843 180.856 32.3843ZM179.576 28.7682C178.264 28.7682 176.76 27.9683 176.088 27.0083V21.5363C176.76 20.5443 178.264 19.7762 179.576 19.7762C181.912 19.7762 183.48 21.6002 183.48 24.2562C183.48 26.9442 181.912 28.7682 179.576 28.7682ZM191.354 32.3522C192.762 32.3522 193.946 31.1682 193.946 29.7603C193.946 28.3522 192.762 27.1682 191.354 27.1682C189.946 27.1682 188.762 28.3522 188.762 29.7603C188.762 31.1682 189.946 32.3522 191.354 32.3522ZM203.257 32.3843C206.425 32.3843 208.345 31.0083 209.369 29.5683L206.713 27.1042C205.977 28.1282 204.857 28.7682 203.449 28.7682C200.985 28.7682 199.257 26.9442 199.257 24.2562C199.257 21.5682 200.985 19.7762 203.449 19.7762C204.857 19.7762 205.977 20.3522 206.713 21.4402L209.369 18.9443C208.345 17.5363 206.425 16.1602 203.257 16.1602C198.489 16.1602 195.065 19.5202 195.065 24.2562C195.065 29.0242 198.489 32.3843 203.257 32.3843ZM217.914 32.3843C223.034 32.3843 226.106 28.6722 226.106 24.2562C226.106 19.8722 223.034 16.1602 217.914 16.1602C212.826 16.1602 209.754 19.8722 209.754 24.2562C209.754 28.6722 212.826 32.3843 217.914 32.3843ZM217.914 28.7682C215.386 28.7682 213.978 26.6882 213.978 24.2562C213.978 21.8562 215.386 19.7762 217.914 19.7762C220.442 19.7762 221.882 21.8562 221.882 24.2562C221.882 26.6882 220.442 28.7682 217.914 28.7682ZM251.105 32.0002V20.8322C251.105 17.6642 249.409 16.1602 246.561 16.1602C244.193 16.1602 242.145 17.5683 241.249 18.9763C240.673 17.2163 239.233 16.1602 236.961 16.1602C234.593 16.1602 232.545 17.6323 231.905 18.5603V16.5443H227.841V32.0002H231.905V21.6003C232.513 20.7363 233.697 19.7762 235.105 19.7762C236.769 19.7762 237.409 20.8003 237.409 22.2402V32.0002H241.505V21.5683C242.081 20.7362 243.265 19.7762 244.705 19.7762C246.369 19.7762 247.009 20.8003 247.009 22.2402V32.0002H251.105Z" fill="#FFFEFB"></path></g><defs><clipPath id="clip0_5116_112332"><rect width="253.333" height="44" fill="white"></rect></clipPath></defs></svg> 