<?xml version="1.0" encoding="UTF-8"?> <svg xmlns="http://www.w3.org/2000/svg" width="1441" height="896" viewBox="0 0 1441 896" fill="none"><rect width="1441" height="896" fill="#FFFEFB"></rect><mask id="mask0_2342_7820" style="mask-type:alpha" maskUnits="userSpaceOnUse" x="0" y="0" width="1441" height="896"><rect width="1441" height="896" fill="#FFFEFB"></rect></mask><g mask="url(#mask0_2342_7820)"><path d="M-145.483 -118.644C-133.393 -112.483 -122.16 -104.524 -111.614 -94.9282C-84.8943 -70.6419 -58.2395 -46.3388 -34.1607 -19.3926C-10.994 6.5351 10.1154 33.9848 24.5721 65.8238C29.357 76.3538 34.0606 87.0799 36.7464 98.565C38.5461 106.264 42.6552 113.265 44.1916 121.133C48.0769 141.125 52.1418 161.033 55.1842 181.208C57.9636 199.58 60.091 218.053 62.3991 236.447C65.9138 264.433 72.5361 291.673 81.2135 318.176C95.1171 360.542 117.051 398.6 147.735 431.69C191.174 478.581 237.852 522.243 282.227 568.169C303.386 590.056 323.261 613.031 338.104 640.068C345.709 653.896 352.615 667.886 355.714 683.09C357.824 696.747 354.656 727.778 343.503 753.908C332.35 780.038 308.957 823.326 281.957 838.264C254.958 853.202 200.254 864.327 115.631 854.157C31.0078 843.987 -64.9068 834.703 -73.5162 831.617" stroke="#76B39D" stroke-width="2.33847" stroke-linecap="round" stroke-linejoin="round"></path><path d="M-255.404 -63.1095C-240.125 -67.1605 -224.953 -71.6023 -209.681 -75.7043C-190.557 -80.8262 -171.509 -79.8331 -152.758 -73.4517C-138.756 -68.695 -126.33 -60.9992 -114.661 -52.2632C-87.6002 -32.0146 -62.4558 -9.60224 -41.0926 16.7266C-22.4786 39.6855 -6.15567 64.0631 7.11057 90.663C17.08 110.633 23.1802 131.68 27.6823 153.144C30.3946 166.154 30.055 179.758 31.085 193.106C31.9593 204.554 32.6954 216.002 34.2386 227.414C36.1795 241.918 37.1443 256.581 39.3177 271.062C40.561 279.351 43.7294 287.339 45.4945 295.556C58.2608 354.728 89.4976 403.262 130.527 446.663C178.557 497.462 228.198 546.616 277.334 596.31C291.299 610.442 303.621 626.258 311.903 644.452C318.84 659.658 324.241 675.095 326.205 690.785C327.299 709.683 312.093 759.685 296.481 778.785C272.948 807.576 235.616 828.623 157.695 821.84C122.914 818.812 18.8239 799.861 -11.8335 793.999" stroke="#FF6A39" stroke-width="1.16924" stroke-linecap="round" stroke-linejoin="round"></path><path d="M-237.804 -23.9212C-211.697 -29.114 -185.371 -31.8993 -158.626 -30.2938C-151.678 -29.8891 -145.263 -28.3969 -139.169 -24.7431C-121.043 -13.8423 -103.57 -2.05551 -86.7144 10.6393C-67.2352 25.3059 -52.8131 44.3221 -40.0829 64.6962C-29.446 81.7361 -18.9988 98.9633 -8.17218 115.816C3.91947 134.655 9.13466 154.401 8.59989 176.123C8.09933 196.41 9.35865 216.535 11.2156 236.717C13.2012 258.185 16.279 279.41 19.5529 300.717C21.7687 315.218 25.0241 329.417 29.6902 343.01C37.0045 364.425 48.3863 384.058 63.3462 401.233C88.1451 429.661 114.516 456.656 140.352 484.205C168.834 514.604 197.83 544.493 226.851 574.338C243.253 591.169 259.79 607.863 276.628 624.273C295.616 642.751 306.221 669.774 305.201 696.266C303.264 719.17 290.117 770.703 251.658 791.058C205.876 815.287 128.193 800.275 85.3517 794.048C21.214 784.727 -21.7474 767.257 -55.0453 764.359" stroke="#0C2233" stroke-width="11.6924" stroke-linecap="round" stroke-linejoin="round"></path><path d="M14.3703 732.944C74.1418 759.837 104.209 754.571 157.176 763.387C178.774 766.982 204.413 766.343 218.23 759.824C260.521 739.871 273.478 701.192 273.671 700.306C274.605 695.982 275.24 688.756 275.596 683.798C275.952 678.84 275.582 674.044 274.403 669.316C272.159 660.318 268.158 655.685 261.891 649.352C238.38 625.623 215.13 601.593 191.706 577.81C166.021 551.755 139.13 526.935 115.502 498.849C95.6208 475.197 74.1229 453.191 50.6023 432.942C32.9603 417.76 14.4267 403.732 -2.99725 388.328C-16.4026 376.467 -24.5407 360.515 -24.7525 343.514C-25.1347 313.047 -25.2871 282.547 -25.5026 252.069C-25.6829 228.254 -21.9184 204.567 -26.361 180.464C-28.8877 166.722 -32.7906 153.577 -37.6861 140.935C-44.4989 123.275 -54.9777 107.248 -66.3704 92.0061C-97.9427 49.7501 -138.037 20.5117 -190.62 9.97821C-206.175 6.87156 -221.785 5.78819 -237.455 5.78024" stroke="#CEFD94" stroke-width="5.84618" stroke-linecap="round" stroke-linejoin="round"></path><path d="M181.097 728.609C153.9 724.577 126.54 722.237 99.5126 716.454C68.5341 709.788 41.71 696.082 17.2277 676.454C3.33712 665.334 -11.1727 654.991 -23.4165 641.974C-32.219 632.624 -39.847 622.289 -42.5257 609.408C-51.83 564.82 -51.2798 520.563 -38.1521 476.632C-35.6807 468.361 -33.0389 460.459 -28.735 452.935C-18.5442 435.094 -2.17645 433.897 14.1607 441.856C27.4899 448.32 37.423 459.284 48.0474 469.076C95.2202 512.54 139.931 558.453 181.367 607.461C195.142 623.752 209.094 639.928 221.653 657.283C221.703 657.355 221.754 657.427 221.809 657.497C229.91 668.61 232.148 682.973 227.625 695.961C224.857 703.906 220.893 712.815 215.899 717.61C202.868 730.12 181.097 728.609 181.097 728.609Z" stroke="#FF6A39" stroke-width="4.67694" stroke-linecap="round" stroke-linejoin="round"></path><path d="M145.571 642.057C143.761 634.462 139.994 627.716 136.826 620.644C126.23 597.09 112.433 575.632 94.0352 557.551C79.8969 543.671 63.8228 532.267 44.9529 525.307C32.7258 520.835 19.1222 524.28 12.0228 533.89C0.799052 549.069 -1.58924 566.302 0.00607348 584.442C0.553969 590.734 3.38579 597.146 3.99402 602.876C5.26766 615.206 10.1466 625.304 17.8523 633.578C44.5182 662.235 76.9419 671.985 116.504 668.188C152.799 664.708 145.572 642.062 145.572 642.062L145.571 642.057Z" stroke="#0A91AB" stroke-width="2.92309" stroke-linecap="round" stroke-linejoin="round"></path></g></svg> 