<?xml version="1.0" encoding="UTF-8"?> <svg xmlns="http://www.w3.org/2000/svg" width="24" height="24" viewBox="0 0 24 24" fill="none"><path d="M13.25 13.425C13.25 14.2535 12.5784 14.925 11.75 14.925C10.9216 14.925 10.25 14.2535 10.25 13.425C10.25 12.5966 10.9216 11.925 11.75 11.925C12.5784 11.925 13.25 12.5966 13.25 13.425Z" fill="#76B39D" stroke="#76B39D" stroke-width="1.5"></path><path d="M5.75 6.29004C5.75 7.11847 5.07843 7.79004 4.25 7.79004C3.42157 7.79004 2.75 7.11847 2.75 6.29004C2.75 5.46161 3.42157 4.79004 4.25 4.79004C5.07843 4.79004 5.75 5.46161 5.75 6.29004Z" fill="#76B39D" stroke="#76B39D" stroke-width="1.5"></path><path d="M21.25 17.7101C21.25 18.5385 20.5784 19.2101 19.75 19.2101C18.9216 19.2101 18.25 18.5385 18.25 17.7101C18.25 16.8817 18.9216 16.2101 19.75 16.2101C20.5784 16.2101 21.25 16.8817 21.25 17.7101Z" fill="#76B39D" stroke="#76B39D" stroke-width="1.5"></path><path d="M19.86 17.86L11.75 13.8L4.25 6.29004" stroke="#76B39D" stroke-width="1.5" stroke-linecap="round" stroke-linejoin="round"></path></svg> 