<svg xmlns="http://www.w3.org/2000/svg" width="254" height="32" fill="none"><path fill="#FFFEFB" fill-rule="evenodd" d="M193.589 13.529c1.284 1.72.403 3.822-1.34 4.782-3.231 1.777-7.116 2.175-12.162 1.225q.077-.488.201-1.005c.711-2.966 2.823-5.38 5.636-6.442 2.55-.998 5.867-.974 7.665 1.438zm-.045 7.21a12.7 12.7 0 0 1-3.385 1.396 21.8 21.8 0 0 1-10.092.225c.228 3.974 3.996 6.708 7.693 6.786 2.309.048 4.593-.784 6.516-2.075.537.711 1.204 1.422 1.631 2.2-2.576 2.213-6.846 3.103-10.095 2.488-2.693-.515-5.245-2.053-6.804-4.364-1.271-1.884-1.846-4.217-1.808-6.507.131-7.742 8.239-14.558 15.736-11.224 3.187 1.416 5.01 5.411 3.13 8.602a7.3 7.3 0 0 1-2.522 2.473M172.743.084l-4.211 25.277c-.273 2.436 1.353 3.333 2.064 3.607 1.319.507 3.148.299 4.094-1.076l2.233 1.585a5.92 5.92 0 0 1-4.924 2.522 6.6 6.6 0 0 1-2.364-.45c-2.681-1.029-4.141-3.521-3.808-6.506.459-4.105 2.977-17.486 3.88-22.198h-6.018L164.1.084zM155.437.069c-.017.091-.755 4.352-1.657 9.175h8.203l-.408 2.772h-8.304c-.988 5.331-2.021 10.995-2.273 13.26-.276 2.437 1.285 3.408 1.997 3.681 1.318.507 3.149.3 4.092-1.075l2.233 1.584a5.91 5.91 0 0 1-4.923 2.522 6.6 6.6 0 0 1-2.366-.442c-2.682-1.03-4.031-3.637-3.698-6.622.254-2.283 1.203-7.69 2.161-12.908h-5.862l.5-2.766h5.875c.921-4.914 1.724-8.81 1.795-9.18zm-32.196 25.644 2.355 1.365c3.004 1.753 7.375 3.488 10.49 1.012 1.097-.866 1.658-2.396 1.271-3.64-.507-1.62-1.968-2.243-5.196-3.023-3.39-.816-7.481-2.373-7.168-6.933.119-1.735.855-3.191 2.205-4.101 4.642-3.122 11.327-.706 12.201-.456l1.247.356-.725 4.72h-2.798l.418-2.736c.031-.213-2.785-.695-3.028-.722-1.666-.178-3.357-.027-4.895.711-1.24.6-2.174 1.707-1.789 3.154.612 2.24 3.147 2.823 5.042 3.356 3.09.861 6.605 1.71 7.24 5.156.421 2.293-.432 4.897-2.322 6.4-2.145 1.706-5.273 1.88-7.857 1.399a16.5 16.5 0 0 1-5.836-2.365c-.196.253-.428.653-.657.89-2.791 2.89-7.627 1.916-9.549-1.462-.146-.265-.899-1.797-.7-2.08-1.749 2.476-4.254 4.878-7.343 5.234-2.682.3-5.87-.852-7.25-3.302-1.22-2.158-.964-4.36-.626-6.247l1.724-10.193h-6.387l.505-2.69h9.109l-2.296 13.376c-.33 1.847-.386 3.152.313 4.396.762 1.351 2.261 1.796 3.385 1.932 2.415.294 4.714-1.258 6.756-4.198a27.5 27.5 0 0 0 1.94-3.217l1.808-9.6h-6.439l.386-2.689h9.108l-1.993 12.005c-.315 2.54-.747 6.496 2.272 7.55 1.149.4 2.502.158 3.364-.73.666-.697 1.201-1.713 1.715-2.628M83.357 0h11.727l-.406 2.776h-4.335l-4.426 26.45h4.544L90.055 32H78.12l.404-2.775H83.2l2.106-12.057h-18.4l-2.108 12.057h4.333L68.727 32H57l.406-2.775h4.676l4.427-26.449h-4.674L62.238 0h11.73l-.407 2.776h-4.335L67.37 14.392h18.402l1.853-11.616h-4.674z" clip-rule="evenodd"/></svg>