<?xml version="1.0" encoding="UTF-8"?> <svg xmlns="http://www.w3.org/2000/svg" width="1380" height="786" viewBox="0 0 1380 786" fill="none"><mask id="mask0_2253_3300" style="mask-type:alpha" maskUnits="userSpaceOnUse" x="0" y="0" width="1380" height="786"><rect width="1380" height="786" fill="#FFFEFB"></rect></mask><g mask="url(#mask0_2253_3300)"><rect width="1380" height="786" fill="#FFFEFB"></rect><path d="M1396.5 112.543C1382.86 110.102 1369.14 109.913 1355.16 114.466C1347.55 116.943 1342.72 122.336 1338.11 128.283C1331.84 136.396 1327.19 145.459 1323.06 154.794C1315.21 172.542 1314 190.805 1319.78 209.243C1327.48 233.746 1332.39 258.538 1329.6 284.338C1328.35 296.046 1325.57 307.397 1321.75 318.562C1319.34 325.57 1316.47 332.286 1313.13 338.805C1306.97 350.892 1299.74 362.393 1292.99 374.147C1288.4 382.149 1283.57 390.008 1278.9 397.971C1274 406.295 1268.48 414.243 1263.14 422.284C1254.31 435.594 1244.8 448.456 1243.33 465.279C1242.38 476.222 1245.87 485.757 1251.48 494.513C1261.03 509.385 1273.93 521.114 1287.88 531.89C1301.37 542.318 1316.47 549.584 1332.32 555.084C1347.46 560.324 1363.02 564.287 1378.8 567.518C1384.78 568.74 1390.64 570.477 1396.5 572.282" stroke="#CEFD94" stroke-width="6.31452" stroke-linecap="round" stroke-linejoin="round"></path><path d="M1396.5 594.984C1384.03 591.714 1371.54 588.558 1358.92 585.921C1339.12 581.8 1319.91 576.114 1301.37 568.019C1280.44 558.898 1261.08 547.043 1243.3 532.898C1225.65 518.867 1209.45 503.241 1195.2 485.575C1186.2 474.418 1185.6 463.131 1196.96 450.079C1219.56 424.129 1243.14 398.972 1263.93 371.517C1270.2 363.247 1276.07 354.577 1281.64 345.713C1285.58 339.456 1299.92 308.534 1302.33 299.267C1306.36 283.838 1308.04 268.417 1307.5 252.509C1306.94 236.237 1302.51 220.519 1301.49 204.308C1299.64 175.302 1304.69 148.372 1322.45 124.487C1338.45 102.994 1359.48 92.6688 1386.28 93.5909C1389.69 93.7124 1393.1 93.8518 1396.51 93.9626" stroke="#0C2233" stroke-width="12.629" stroke-linecap="round" stroke-linejoin="round"></path><path d="M1399.43 193.918C1397.95 191.016 1393.81 176.509 1392.9 172.946C1390.58 163.858 1386.88 155.187 1376.51 152.453C1343.43 146.878 1368.72 187.095 1374.31 193.918C1385.77 207.896 1387.06 223.378 1383.62 240.64C1380.61 255.722 1376.44 270.411 1372.38 285.2C1368.24 300.264 1363.98 315.299 1359.38 330.195C1354.99 344.47 1350.82 358.819 1345.81 372.929C1341.15 386.084 1336.83 399.379 1332.11 412.535C1327.74 424.794 1322.29 436.645 1318.49 449.068C1313.49 465.411 1311.42 481.848 1321.7 497.319C1326.41 504.424 1333.14 508.749 1340.87 512.094C1351.98 516.929 1363.99 518.459 1375.32 522.233C1382.38 524.581 1389.46 526.94 1396.51 529.384" stroke="#0A91AB" stroke-width="3.15726" stroke-linecap="round" stroke-linejoin="round"></path><path d="M1396.5 69.9678C1390.55 71.7154 1384.43 72.8376 1378.25 73.7526C1350.32 77.8483 1328.52 92.5014 1310.44 113.352C1300.16 125.203 1292.69 138.848 1287.77 153.648C1284.68 162.929 1283.07 172.7 1283.16 182.657C1283.44 208.843 1285.5 235.044 1283.37 261.226C1282.11 276.669 1278.82 291.694 1272.22 305.772C1266.99 316.926 1260.08 327.147 1252.93 337.108C1242.21 352.043 1230.65 366.4 1217.92 379.713C1206.06 392.114 1193.44 403.765 1181.59 416.142C1170.67 427.535 1160.05 439.404 1153.29 453.8C1148.11 464.869 1148.59 475.919 1154.38 487.556C1165.85 510.704 1184.08 527.316 1203.61 543.07C1214.04 551.476 1225 558.92 1236.28 566.121C1253.2 576.925 1271.18 585.431 1289.89 592.358C1316.97 602.365 1344.96 608.98 1373.6 612.876C1381.32 613.93 1388.94 615.449 1396.5 617.286" stroke="#FF6A39" stroke-width="1.2629" stroke-linecap="round" stroke-linejoin="round"></path><path d="M1396.51 301.814C1394.56 306.239 1392.89 310.817 1391.38 315.467C1385.1 334.891 1380.4 354.669 1377.32 374.78C1373.53 399.815 1370.91 424.993 1373.79 450.386C1375.57 465.972 1384.36 476.201 1396.51 484.392" stroke="#FFFEFB" stroke-width="1.2629" stroke-linecap="round" stroke-linejoin="round"></path><path d="M1396.51 301.814C1394.56 306.239 1392.89 310.817 1391.38 315.467C1385.1 334.891 1380.4 354.669 1377.32 374.78C1373.53 399.815 1370.91 424.993 1373.79 450.386C1375.57 465.972 1384.36 476.201 1396.51 484.392" stroke="#76B39D" stroke-width="1.2629" stroke-linecap="round" stroke-linejoin="round"></path><path d="M1396.5 41C1390.14 46.4824 1382.64 50.9141 1374.12 54.3522C1363.67 58.548 1352.62 60.846 1342.42 66.0639C1324.21 75.3812 1309.86 88.887 1297.1 104.519C1290.23 112.95 1284.28 122.021 1279.45 131.674C1268.24 154.061 1263.72 178.156 1264.41 202.927C1265.02 225.4 1263.77 247.673 1258.5 269.417C1255.24 282.847 1249.61 295.624 1242.19 307.761C1224.72 336.349 1201.62 359.908 1178.24 383.339C1164.86 396.759 1151.79 410.508 1141.35 426.33C1122.6 454.675 1120.05 483.595 1139.13 513.169C1151.04 531.65 1165.91 547.189 1183.11 560.591C1193.56 568.726 1204.48 576.074 1216.02 582.671C1226.12 588.432 1236.17 594.276 1246.65 599.233C1258.29 604.74 1270.34 609.608 1282.54 613.768C1309.39 622.939 1336.94 629.711 1364.75 635.211C1375.41 637.309 1385.98 639.725 1396.5 642.313" stroke="#76B39D" stroke-width="2.52581" stroke-linecap="round" stroke-linejoin="round"></path><path d="M1396.5 130.456C1395.87 130.242 1395.24 130.031 1394.6 129.827C1390.38 128.451 1386.18 127.347 1381.87 126.582C1368.78 124.234 1357.32 127.35 1348.13 137.354C1343.11 142.793 1340.67 149.605 1338.54 156.464C1336.45 163.204 1335.06 170.148 1333.1 176.96C1329.5 189.63 1333.04 200.802 1338.8 212.167C1352.22 238.703 1355.13 266.68 1348.6 295.743C1343.53 318.384 1335.06 339.785 1325.28 360.692C1312.47 388.058 1299.32 415.259 1286.64 442.681C1281.21 454.436 1278.63 467.023 1282.22 479.725C1286.67 495.45 1295.47 508.67 1308.37 518.974C1319 527.483 1331.03 532.937 1343.93 537.272C1361.25 543.087 1378.97 547.437 1396.49 552.505" stroke="#FF6A39" stroke-width="5.05162" stroke-linecap="round" stroke-linejoin="round"></path></g></svg> 