<svg xmlns="http://www.w3.org/2000/svg" width="1440" height="834" fill="none"><mask id="a" width="1440" height="834" x="0" y="0" maskUnits="userSpaceOnUse" style="mask-type:alpha"><path fill="#FFFEFB" d="M0 0h1440v834H0z"/></mask><g mask="url(#a)"><path fill="#FFFEFB" d="M0 0h1440v834H0z"/><path stroke="#CEFD94" stroke-linecap="round" stroke-linejoin="round" stroke-width="4.936" d="M1441.74 108.468c-18.4-3.291-36.9-3.546-55.74 2.593-10.26 3.34-16.78 10.612-22.99 18.631-8.46 10.939-14.73 23.16-20.29 35.747-10.59 23.931-12.22 48.557-4.42 73.418 10.37 33.04 16.99 66.469 13.24 101.258-1.7 15.787-5.44 31.092-10.6 46.147a206 206 0 0 1-11.61 27.295c-8.3 16.298-18.05 31.806-27.16 47.655-6.18 10.79-12.7 21.387-19 32.124-6.6 11.224-14.05 21.941-21.24 32.784-11.92 17.946-24.74 35.29-26.72 57.973-1.28 14.756 3.42 27.613 10.99 39.42 12.88 20.052 30.27 35.868 49.08 50.397 18.19 14.062 38.55 23.859 59.92 31.276 20.42 7.065 41.4 12.409 62.68 16.765 8.05 1.648 15.96 3.99 23.86 6.424"/><path stroke="#0C2233" stroke-linecap="round" stroke-linejoin="round" stroke-width="9.871" d="M1441.74 758.986c-16.82-4.41-33.66-8.665-50.68-12.221-26.69-5.557-52.6-13.224-77.59-24.139-28.23-12.298-54.33-28.283-78.31-47.357-23.8-18.919-45.64-39.988-64.85-63.808-12.13-15.045-12.95-30.264 2.37-47.863 30.48-34.991 62.27-68.912 90.3-105.932 8.46-11.152 16.37-22.842 23.88-34.794 5.32-8.438 24.65-50.132 27.9-62.628 5.43-20.804 7.7-41.598 6.97-63.047-.75-21.942-6.72-43.136-8.1-64.995-2.5-39.111 4.32-75.423 28.26-107.628 21.58-28.982 49.93-42.904 86.07-41.66 4.6.163 9.19.35 13.79.5"/><path stroke="#0A91AB" stroke-linecap="round" stroke-linejoin="round" stroke-width="2.468" d="M1445.69 218.192c-1.99-3.913-7.58-23.473-8.81-28.278-3.13-12.255-8.11-23.946-22.09-27.632-44.61-7.517-10.51 46.711-2.97 55.91 15.44 18.848 17.19 39.724 12.55 63-4.06 20.336-9.68 40.142-15.16 60.083-5.58 20.313-11.32 40.586-17.53 60.672-5.92 19.247-11.54 38.596-18.29 57.621-6.29 17.739-12.11 35.666-18.47 53.405-5.9 16.529-13.24 32.509-18.37 49.26-6.74 22.038-9.53 44.2 4.33 65.062 6.35 9.58 15.42 15.411 25.85 19.922 14.97 6.52 31.18 8.583 46.44 13.672 9.53 3.166 19.07 6.346 28.57 9.643"/><path stroke="#FF6A39" stroke-linecap="round" stroke-linejoin="round" stroke-width=".987" d="M1441.74 51.06c-8.03 2.356-16.27 3.87-24.6 5.103-37.67 5.523-67.06 25.28-91.45 53.395-13.85 15.98-23.93 34.379-30.56 54.335-4.17 12.515-6.34 25.69-6.22 39.116.38 35.309 3.16 70.637.29 105.941-1.7 20.824-6.14 41.083-15.04 60.065-7.04 15.04-16.37 28.823-26.01 42.253-14.45 20.139-30.04 39.497-47.21 57.448-15.99 16.722-33 32.432-48.98 49.121-14.72 15.363-29.05 31.367-38.16 50.778-6.98 14.924-6.33 29.825 1.47 45.516 15.47 31.212 40.04 53.611 66.38 74.854 14.06 11.334 28.84 21.372 44.05 31.082 22.82 14.568 47.06 26.038 72.29 35.377 36.52 13.493 74.25 22.413 112.87 27.666 10.41 1.422 20.69 3.47 30.88 5.947"/><path stroke="#FFFEFB" stroke-linecap="round" stroke-linejoin="round" stroke-width=".987" d="M1441.74 363.679c-2.61 5.966-4.87 12.139-6.9 18.408-8.47 26.192-14.81 52.86-18.96 79.977-5.12 33.758-8.65 67.708-4.76 101.947 2.4 21.016 14.25 34.808 30.62 45.853"/><path stroke="#76B39D" stroke-linecap="round" stroke-linejoin="round" stroke-width=".987" d="M1441.74 363.679c-2.61 5.966-4.87 12.139-6.9 18.408-8.47 26.192-14.81 52.86-18.96 79.977-5.12 33.758-8.65 67.708-4.76 101.947 2.4 21.016 14.25 34.808 30.62 45.853"/><path stroke="#76B39D" stroke-linecap="round" stroke-linejoin="round" stroke-width="1.974" d="M1441.74 12c-8.57 7.392-18.68 13.368-30.18 18.004-14.08 5.657-28.98 8.756-42.74 15.792-24.55 12.563-43.91 30.774-61.12 51.853-9.25 11.368-17.28 23.599-23.79 36.615-15.12 30.186-21.21 62.676-20.28 96.077.82 30.302-.86 60.334-7.97 89.653-4.4 18.11-11.98 35.338-22 51.704-23.55 38.547-54.7 70.314-86.22 101.908-18.05 18.096-35.66 36.634-49.74 57.968-25.28 38.22-28.72 77.216-3 117.093 16.07 24.919 36.11 45.873 59.3 63.944 14.09 10.968 28.82 20.876 44.38 29.772 13.62 7.768 27.17 15.647 41.3 22.331 15.7 7.427 31.95 13.99 48.4 19.6 36.21 12.365 73.35 21.497 110.85 28.914 14.37 2.829 28.62 6.086 42.81 9.575"/><path stroke="#FF6A39" stroke-linecap="round" stroke-linejoin="round" stroke-width="3.949" d="M1441.74 132.622c-.85-.289-1.7-.574-2.56-.848-5.7-1.856-11.36-3.345-17.17-4.376-17.65-3.166-33.11 1.036-45.5 14.525-6.76 7.334-10.05 16.519-12.92 25.767-2.83 9.089-4.7 18.452-7.33 27.637-4.87 17.084-.09 32.148 7.67 47.473 18.1 35.781 22.03 73.504 13.22 112.693-6.84 30.528-18.25 59.385-31.44 87.576-17.28 36.9-35.01 73.577-52.11 110.554-7.32 15.85-10.8 32.822-5.95 49.949 5.99 21.204 17.86 39.03 35.25 52.923 14.34 11.474 30.57 18.828 47.96 24.673 23.35 7.841 47.24 13.706 70.87 20.539"/></g></svg>