<?xml version="1.0" encoding="UTF-8"?> <svg xmlns="http://www.w3.org/2000/svg" width="1440" height="1286" viewBox="0 0 1440 1286" fill="none"><rect width="1440" height="1286" fill="#0C2233"></rect><mask id="mask0_1519_5338" style="mask-type:alpha" maskUnits="userSpaceOnUse" x="0" y="0" width="1440" height="1286"><path fill-rule="evenodd" clip-rule="evenodd" d="M1401.16 1H0V1246V1285H0.00670544L0.00671387 1286L38.8353 1285H1440L1440 1248.91V1246L1440 40C1440 39.995 1440 39.9901 1440 39.9851V1H1439.99C1439.99 0.661753 1439.99 0.328413 1439.99 0L1401.16 1Z" fill="#0C2233"></path></mask><g mask="url(#mask0_1519_5338)"><path d="M86.4574 -20.3762C102.003 -6.56797 115.583 9.57441 127.513 27.878C157.746 74.2146 187.878 120.551 213.168 169.811C237.499 217.209 258.192 266.068 267.324 318.865C270.35 336.328 273.179 354.05 272.723 372.118C272.417 384.228 275.804 396.198 275.042 408.458C273.077 439.603 271.411 470.693 268.126 501.783C265.147 530.099 261.163 558.313 257.477 586.48C251.874 629.335 251.166 672.284 253.791 714.935C258.035 783.127 275.851 848.035 308.56 908.958C354.85 995.273 407.191 1078.05 455.241 1163.3C478.158 1203.93 498.748 1245.68 510.309 1291.5C516.242 1314.95 521.076 1338.36 519.794 1362.1" stroke="#76B39D" stroke-width="3.07547" stroke-linecap="round" stroke-linejoin="round"></path><path d="M-97.9929 19.4914C-73.7715 19.3892 -49.558 18.6662 -25.3287 18.4854C5.00702 18.2811 32.8672 27.1146 58.2046 43.8228C77.129 56.2872 92.5798 72.5003 106.506 89.9629C138.806 130.445 167.429 173.394 188.931 220.689C207.659 261.926 222.442 304.38 231.833 348.948C238.899 382.412 239.81 415.978 238.191 449.543C237.185 469.882 231.425 489.923 227.794 510.113C224.666 527.426 221.334 544.684 219.212 562.202C216.485 584.459 212.249 606.574 209.875 628.886C208.516 641.656 210.127 654.726 209.569 667.591C205.631 760.264 233.193 844.301 277.258 924.51C328.845 1018.39 383.457 1110.46 437.11 1203.13C452.357 1229.49 464.515 1257.7 469.764 1287.88C474.173 1313.11 476.217 1338.08 473.065 1362.11" stroke="#FF6A39" stroke-width="1.53773" stroke-linecap="round" stroke-linejoin="round"></path><path d="M439.804 1362.12C451.553 1323.23 446.272 1279.06 425.257 1244.33C406.631 1213.49 388.563 1182.34 370.747 1151.05C339.248 1095.58 307.804 1040.05 277.319 983.972C249.656 933.14 220.986 882.922 195.201 831.186C179.655 799.938 170.366 766.428 167.796 731.848C166.13 709.89 166.79 687.578 169.109 665.219C172.488 632.361 176.127 599.699 181.479 567.1C186.524 536.458 192.434 506.13 201.016 476.242C210.203 444.24 210.101 412.946 199.452 380.339C189.911 351.166 181.078 321.585 171.891 292.208C160.888 257.078 146.852 223.308 123.637 194.033C103.549 168.696 82.1961 144.467 59.5307 121.298C51.9075 113.526 42.9718 108.834 32.8258 105.549C-6.20981 92.8332 -46.3221 86.7896 -87.0396 84.4005" stroke="#0C2233" stroke-width="15.3773" stroke-linecap="round" stroke-linejoin="round"></path><path d="M-97.9895 1239.17C-78.3577 1250.1 -60.3528 1263.81 -43.4952 1279.51C-27.8008 1294.14 -12.4522 1309.45 5.11267 1321.66C24.6344 1335.29 44.2111 1348.85 63.9844 1362.12" stroke="#76B39D" stroke-width="3.07547" stroke-linecap="round" stroke-linejoin="round"></path><path d="M124.805 1362.12C101.872 1348.31 79.5448 1333.5 58.2154 1317.01C25.0505 1291.32 -4.7744 1262.3 -31.4793 1229.9C-51.0953 1206.11 -71.0807 1182.87 -97.9899 1166.86" stroke="#0C2233" stroke-width="1.53773" stroke-linecap="round" stroke-linejoin="round"></path><path d="M388.157 1362.12C389.296 1360.1 390.412 1358.04 391.489 1355.92C394.546 1349.87 398.279 1339.4 400.723 1332.19C403.168 1324.97 404.472 1317.72 404.551 1310.25C404.7 1296.05 400.558 1287.63 393.713 1275.82C368.022 1231.55 342.834 1186.93 317.292 1142.61C289.275 1094.05 258.994 1046.86 234.812 996.083C214.473 953.33 191.1 912.393 164.05 873.278C143.758 843.949 121.698 815.986 101.814 786.413C86.5209 763.645 80.6188 736.846 86.8745 711.556C98.0814 666.233 109.642 620.95 121.1 575.674C130.036 540.293 144.772 506.625 147.499 469.169C149.063 447.816 148.355 426.817 145.982 406.179C142.705 377.36 133.36 349.547 122.358 322.544C91.8728 247.687 43.7208 188.839 -30.1774 152.899C-52.0411 142.282 -74.7693 134.643 -98.0005 128.576" stroke="#CEFD94" stroke-width="7.68866" stroke-linecap="round" stroke-linejoin="round"></path><path d="M243.286 1362.12C204.517 1345.63 164.853 1331.58 127.012 1312.56C83.654 1290.71 49.1766 1260.02 20.4598 1221.45C4.16023 1199.6 -13.3575 1178.65 -26.482 1154.62C-35.9206 1137.36 -43.2374 1119.08 -42.2314 1098.95C-38.7971 1029.24 -20.8785 963.829 15.5636 903.763C22.4245 892.454 29.3955 881.758 38.6848 872.264C60.69 849.748 85.4222 854.298 106.571 872.413C123.837 887.149 134.329 907.245 146.298 925.87C199.448 1008.55 248.001 1093.9 290.503 1182.58C304.633 1212.06 319.07 1241.44 330.984 1272.03C331.032 1272.15 331.079 1272.28 331.134 1272.4C338.851 1292.01 336.619 1314.18 324.894 1331.69C317.718 1342.4 308.398 1354.08 299.14 1359.25C297.293 1360.29 295.438 1361.24 293.568 1362.12" stroke="#FF6A39" stroke-width="6.15093" stroke-linecap="round" stroke-linejoin="round"></path><path d="M224.057 1220.05C224.309 1208.09 221.33 1196.63 219.365 1184.92C212.756 1145.9 200.59 1108.75 180.298 1074.83C164.698 1048.79 145.271 1025.66 119.981 1008.05C103.579 996.696 82.0767 996.547 67.8362 1008.05C45.328 1026.22 35.1271 1050.85 30.4824 1078.37C28.8635 1087.91 30.5846 1098.51 29.2721 1107.24C26.3957 1126.02 29.728 1142.87 37.9563 1158.12C66.4216 1210.92 110.731 1237.9 170.86 1247.56C226.022 1256.43 224.057 1220.06 224.057 1220.06V1220.05Z" stroke="#0A91AB" stroke-width="3.84433" stroke-linecap="round" stroke-linejoin="round"></path></g></svg> 