<?xml version="1.0" encoding="UTF-8"?> <svg xmlns="http://www.w3.org/2000/svg" width="1440" height="834" viewBox="0 0 1440 834" fill="none"><mask id="mask0_1921_1960" style="mask-type:alpha" maskUnits="userSpaceOnUse" x="0" y="0" width="1440" height="834"><rect width="1440" height="834" fill="#FFFEFB"></rect></mask><g mask="url(#mask0_1921_1960)"><rect width="1440" height="834" fill="#FFFEFB"></rect><path d="M1441.74 108.468C1423.34 105.177 1404.84 104.922 1386 111.061C1375.74 114.401 1369.22 121.673 1363.01 129.692C1354.55 140.631 1348.28 152.852 1342.72 165.439C1332.13 189.37 1330.5 213.996 1338.3 238.857C1348.67 271.897 1355.29 305.326 1351.54 340.115C1349.84 355.902 1346.1 371.207 1340.94 386.262C1337.7 395.712 1333.84 404.767 1329.33 413.557C1321.03 429.855 1311.28 445.363 1302.17 461.212C1295.99 472.002 1289.47 482.599 1283.17 493.336C1276.57 504.56 1269.12 515.277 1261.93 526.12C1250.01 544.066 1237.19 561.41 1235.21 584.093C1233.93 598.849 1238.63 611.706 1246.2 623.513C1259.08 643.565 1276.47 659.381 1295.28 673.91C1313.47 687.972 1333.83 697.769 1355.2 705.186C1375.62 712.251 1396.6 717.595 1417.88 721.951C1425.93 723.599 1433.84 725.941 1441.74 728.375" stroke="#CEFD94" stroke-width="4.93567" stroke-linecap="round" stroke-linejoin="round"></path><path d="M1441.74 758.986C1424.92 754.576 1408.08 750.321 1391.06 746.765C1364.37 741.208 1338.46 733.541 1313.47 722.626C1285.24 710.328 1259.14 694.343 1235.16 675.269C1211.36 656.35 1189.52 635.281 1170.31 611.461C1158.18 596.416 1157.36 581.197 1172.68 563.598C1203.16 528.607 1234.95 494.686 1262.98 457.666C1271.44 446.514 1279.35 434.824 1286.86 422.872C1292.18 414.434 1311.51 372.74 1314.76 360.244C1320.19 339.44 1322.46 318.646 1321.73 297.197C1320.98 275.255 1315.01 254.061 1313.63 232.202C1311.13 193.091 1317.95 156.779 1341.89 124.574C1363.47 95.592 1391.82 81.6698 1427.96 82.9131C1432.56 83.077 1437.15 83.2649 1441.75 83.4143" stroke="#0C2233" stroke-width="9.87134" stroke-linecap="round" stroke-linejoin="round"></path><path d="M1445.69 218.192C1443.7 214.279 1438.11 194.719 1436.88 189.914C1433.75 177.659 1428.77 165.968 1414.79 162.282C1370.18 154.765 1404.28 208.993 1411.82 218.192C1427.26 237.04 1429.01 257.916 1424.37 281.192C1420.31 301.528 1414.69 321.334 1409.21 341.275C1403.63 361.588 1397.89 381.861 1391.68 401.947C1385.76 421.194 1380.14 440.543 1373.39 459.568C1367.1 477.307 1361.28 495.234 1354.92 512.973C1349.02 529.502 1341.68 545.482 1336.55 562.233C1329.81 584.271 1327.02 606.433 1340.88 627.295C1347.23 636.875 1356.3 642.706 1366.73 647.217C1381.7 653.737 1397.91 655.8 1413.17 660.889C1422.7 664.055 1432.24 667.235 1441.74 670.532" stroke="#0A91AB" stroke-width="2.46784" stroke-linecap="round" stroke-linejoin="round"></path><path d="M1441.74 51.0596C1433.71 53.4161 1425.47 54.9293 1417.14 56.1629C1379.47 61.6855 1350.08 81.4436 1325.69 109.558C1311.84 125.538 1301.76 143.937 1295.13 163.893C1290.96 176.408 1288.79 189.583 1288.91 203.009C1289.29 238.318 1292.07 273.646 1289.2 308.95C1287.5 329.774 1283.06 350.033 1274.16 369.015C1267.12 384.055 1257.79 397.838 1248.15 411.268C1233.7 431.407 1218.11 450.765 1200.94 468.716C1184.95 485.438 1167.94 501.148 1151.96 517.837C1137.24 533.2 1122.91 549.204 1113.8 568.615C1106.82 583.539 1107.47 598.44 1115.27 614.131C1130.74 645.343 1155.31 667.742 1181.65 688.985C1195.71 700.319 1210.49 710.357 1225.7 720.067C1248.52 734.635 1272.76 746.105 1297.99 755.444C1334.51 768.937 1372.24 777.857 1410.86 783.11C1421.27 784.532 1431.55 786.58 1441.74 789.057" stroke="#FF6A39" stroke-width="0.987134" stroke-linecap="round" stroke-linejoin="round"></path><path d="M1441.74 363.679C1439.13 369.645 1436.87 375.818 1434.84 382.087C1426.37 408.279 1420.03 434.947 1415.88 462.064C1410.76 495.822 1407.23 529.772 1411.12 564.011C1413.52 585.027 1425.37 598.819 1441.74 609.864" stroke="#FFFEFB" stroke-width="0.987134" stroke-linecap="round" stroke-linejoin="round"></path><path d="M1441.74 363.679C1439.13 369.645 1436.87 375.818 1434.84 382.087C1426.37 408.279 1420.03 434.947 1415.88 462.064C1410.76 495.822 1407.23 529.772 1411.12 564.011C1413.52 585.027 1425.37 598.819 1441.74 609.864" stroke="#76B39D" stroke-width="0.987134" stroke-linecap="round" stroke-linejoin="round"></path><path d="M1441.74 12C1433.17 19.3924 1423.06 25.368 1411.56 30.0039C1397.48 35.6615 1382.58 38.7601 1368.82 45.7959C1344.27 58.3591 1324.91 76.5703 1307.7 97.6488C1298.45 109.017 1290.42 121.248 1283.91 134.264C1268.79 164.45 1262.7 196.94 1263.63 230.341C1264.45 260.643 1262.77 290.675 1255.66 319.994C1251.26 338.104 1243.68 355.332 1233.66 371.698C1210.11 410.245 1178.96 442.012 1147.44 473.606C1129.39 491.702 1111.78 510.24 1097.7 531.574C1072.42 569.794 1068.98 608.79 1094.7 648.667C1110.77 673.586 1130.81 694.54 1154 712.611C1168.09 723.579 1182.82 733.487 1198.38 742.383C1212 750.151 1225.55 758.03 1239.68 764.714C1255.38 772.141 1271.63 778.704 1288.08 784.314C1324.29 796.679 1361.43 805.811 1398.93 813.228C1413.3 816.057 1427.55 819.314 1441.74 822.803" stroke="#76B39D" stroke-width="1.97427" stroke-linecap="round" stroke-linejoin="round"></path><path d="M1441.74 132.622C1440.89 132.333 1440.04 132.048 1439.18 131.774C1433.48 129.918 1427.82 128.429 1422.01 127.398C1404.36 124.232 1388.9 128.434 1376.51 141.923C1369.75 149.257 1366.46 158.442 1363.59 167.69C1360.76 176.779 1358.89 186.142 1356.26 195.327C1351.39 212.411 1356.17 227.475 1363.93 242.8C1382.03 278.581 1385.96 316.304 1377.15 355.493C1370.31 386.021 1358.9 414.878 1345.71 443.069C1328.43 479.969 1310.7 516.646 1293.6 553.623C1286.28 569.473 1282.8 586.445 1287.65 603.572C1293.64 624.776 1305.51 642.602 1322.9 656.495C1337.24 667.969 1353.47 675.323 1370.86 681.168C1394.21 689.009 1418.1 694.874 1441.73 701.707" stroke="#FF6A39" stroke-width="3.94854" stroke-linecap="round" stroke-linejoin="round"></path></g></svg> 