<svg width="1440" height="894" viewBox="0 0 1440 894" fill="none" xmlns="http://www.w3.org/2000/svg">
<mask id="mask0_1540_5380" style="mask-type:alpha" maskUnits="userSpaceOnUse" x="0" y="0" width="1440" height="894">
<rect width="1440" height="894" fill="#0C2233"/>
</mask>
<g mask="url(#mask0_1540_5380)">
<rect width="1440" height="894" fill="#0C2233"/>
<path d="M1440.19 99.541C1432.27 114.235 1420.31 126.287 1405.21 136.051C1380.56 152.008 1355.51 167.431 1332.15 185.236C1316.39 197.24 1303.45 212.047 1292.74 228.987C1273.3 259.726 1265.8 293.546 1265.06 329.263C1264.5 356.791 1261.09 383.957 1254.7 410.68C1251.97 422.121 1247.16 433.213 1246.6 445.033C1245.62 465.06 1252.39 483.096 1262.9 499.906C1273.89 517.438 1287.71 532.636 1304.5 544.344C1318.83 554.345 1334.32 563.198 1353.41 560.146C1356.07 559.725 1358.51 558.985 1360.9 558.132C1381.39 550.731 1401.98 543.568 1421.96 534.84C1428.21 532.109 1434.26 529.051 1440.18 525.763" stroke="#CEFD94" stroke-width="5.01921" stroke-linecap="round" stroke-linejoin="round"/>
<path d="M1440.2 169.126C1418.1 185.734 1395.85 202.105 1372.9 217.504C1356.52 228.501 1342.08 241.365 1330.85 257.315C1319.86 272.904 1313.1 290.62 1309.28 309.45C1303.26 339.147 1298.38 368.979 1296.09 399.227C1294.95 414.437 1293.54 429.635 1294.46 444.862C1295.94 469.404 1305.6 490.817 1322.83 508.03C1339.35 524.543 1359.96 526.35 1381.66 519.886C1403.56 513.368 1422.29 501.429 1440.2 487.955" stroke="#CEFD94" stroke-width="3.137" stroke-linecap="round" stroke-linejoin="round"/>
<path d="M1312.42 -181C1312.5 -179.353 1312.57 -177.712 1312.63 -176.064C1313.38 -153.3 1311.48 -130.737 1305.79 -108.749C1303.03 -98.0427 1298.62 -87.6975 1293.2 -77.9152C1282.91 -59.3815 1277.36 -39.3191 1274.54 -18.4035C1272.09 -0.308274 1262.36 13.9001 1249.88 26.3073C1237.94 38.1752 1226.41 50.4283 1216.94 64.2871C1213.81 68.8613 1210.58 73.6666 1208.21 78.8984C1202.49 91.6018 1194.5 103.025 1187.39 114.959C1181.4 124.948 1174.98 134.671 1168.67 144.412C1161.33 155.771 1153.97 167.176 1146.01 178.185C1141.65 184.211 1137.89 190.829 1133.91 197.229C1125.14 211.324 1118.14 226.398 1111.88 241.685C1099.9 270.806 1095.01 300.687 1104.16 331.853C1107.84 344.426 1109.95 357.082 1107.66 370.727C1105.83 381.801 1100.85 390.849 1094.98 399.363C1089.92 406.752 1085.21 414.401 1080.59 421.991C1071.33 437.23 1062.18 452.464 1052.21 467.277C1046.66 475.53 1039.56 482.469 1034.39 491.119C1028.43 501.121 1026.82 511.579 1028.81 522.125C1032.8 543.242 1036.72 564.419 1041.86 585.352C1045.12 598.701 1049.85 611.014 1061.16 619.735C1067.34 624.511 1074.43 627.651 1081.56 630.655C1094.7 636.231 1107.86 641.848 1121.26 646.795C1133.65 651.369 1146.05 655.944 1158.59 660.115C1167.62 663.125 1176.76 666.028 1185.73 669.293C1193.85 672.255 1202.32 674.317 1210.26 677.789C1232.95 687.744 1252.54 702.497 1271.92 717.624C1306.55 744.678 1339.05 774.238 1372.49 802.643C1387.49 815.388 1402.01 828.625 1417.87 840.368C1425.04 845.689 1432.46 850.399 1440.17 854.559" stroke="#CEFD94" stroke-width="2.5096" stroke-linecap="round" stroke-linejoin="round"/>
<path d="M1425.35 -181C1419.81 -156.82 1417.37 -132.165 1419.52 -106.747C1422.1 -76.3569 1423.8 -45.8782 1421.49 -15.2988C1419.82 6.55891 1415.73 27.8596 1409.65 48.9174C1407.56 56.1875 1405.49 63.3746 1402.69 70.4077C1396.5 85.9493 1384.92 96.3656 1370.24 102.344C1341.56 114.022 1317.02 132.088 1292.8 150.557C1270.51 167.55 1255.66 190.024 1247.25 216.995C1243.96 227.488 1238.24 237.253 1233.41 247.248C1223.76 267.245 1221.81 288.125 1223.35 310.196C1225.18 336.427 1228.88 362.722 1224.62 389.213C1222.67 401.265 1219.16 412.588 1213.06 422.832C1204.8 436.697 1202.08 451.759 1200.82 467.377C1199.57 483.097 1201.65 498.3 1208.19 512.769C1213.74 525.023 1222.52 534.473 1233.65 541.832C1248.69 551.727 1264.58 560.2 1279.95 569.502C1289.75 575.427 1298.17 583.373 1308.46 588.777C1324.93 597.398 1341.78 597.765 1359.1 592.675C1386.5 584.605 1413.55 575.386 1440.18 565.053" stroke="#FF6A39" stroke-width="6.27401" stroke-linecap="round" stroke-linejoin="round"/>
<path d="M1349.62 -181C1350.22 -169.701 1350.25 -158.384 1349.27 -147.043C1347.52 -126.471 1343.11 -106.445 1337.88 -86.4592C1330.7 -59.0437 1323.74 -31.5868 1319.65 -3.35969C1315.67 24.2039 1298.97 43.8811 1275.14 57.497C1264.39 63.6176 1254.84 70.8818 1246.48 80.119C1239.41 87.9461 1234.44 96.97 1228.74 105.656C1223.23 114.088 1218.24 122.815 1212.7 131.235C1208.35 137.859 1204.06 144.667 1200.12 151.582C1194.48 161.512 1187.7 170.72 1181.7 180.419C1173.53 193.638 1165.76 207.046 1160.26 221.438C1154.44 236.654 1149.67 252.231 1146.91 268.496C1143.02 291.509 1143.06 314.32 1146.61 337.262C1149.91 358.563 1149.04 379.384 1141.68 400.128C1136.52 414.715 1129.17 427.78 1121.18 440.869C1111.02 457.565 1098.73 473.054 1091.43 491.451C1076.31 529.632 1079.32 570.646 1115.18 601.794C1125.88 611.079 1139.07 617.235 1153.11 621.608C1169.69 626.78 1186.29 631.971 1202.95 636.687C1231.08 644.674 1259.14 652.904 1285.07 666.425C1300 674.205 1315.28 678.34 1331.79 678.767C1342.59 679.04 1353.23 676.901 1363.92 675.722C1381.44 673.778 1386.76 678.654 1385.8 696.442C1385.33 705.371 1384.95 714.252 1385.16 723.211C1385.48 740.376 1390.76 755.1 1401.73 768.437C1414.27 783.712 1426.81 798.975 1440.18 813.51" stroke="#0A91AB" stroke-width="1.2548" stroke-linecap="round" stroke-linejoin="round"/>
<path d="M1440.19 216.526C1424.49 228.181 1408.4 239.32 1391.13 248.866C1372.78 258.98 1358.76 274.314 1349.61 293.79C1341.78 310.504 1336.93 328.078 1332.92 345.972C1325.26 380.189 1323.04 414.845 1327.18 449.483C1329.87 472.248 1345 482.741 1365.27 485.887C1380.24 488.192 1393.96 482.202 1406.49 474.511C1418.08 467.413 1429.01 459.307 1440.19 451.569" stroke="#FFFEFB" stroke-width="1.2548" stroke-linecap="round" stroke-linejoin="round"/>
<path d="M1386.99 -181C1387.14 -177.137 1387.37 -173.256 1387.71 -169.357C1389.11 -153.093 1385.89 -136.36 1383.17 -120.019C1378.62 -92.6924 1374.05 -65.3777 1369.05 -38.1696C1366.45 -23.985 1365.51 -9.5929 1362.93 4.62733C1356.17 41.8843 1336.01 69.9219 1303.94 88.6985C1279.49 103.002 1258.99 121.322 1241.72 143.239C1233.9 153.152 1227.81 164.563 1221.53 175.726C1213.16 190.569 1204.8 205.352 1197.81 220.929C1183.71 252.338 1178.16 284.825 1183.35 319.268C1185.75 335.271 1189.39 351.234 1188.22 367.771C1187.56 377.263 1184.84 386.209 1182.55 395.227C1178.05 413.115 1172.14 430.665 1163.69 447.096C1159.94 454.348 1156 461.565 1152.53 468.882C1140.86 493.46 1133.09 519.044 1139.45 546.661C1143.05 562.315 1152.54 573.851 1166.17 582.49C1182.52 592.865 1201.31 595.353 1219.34 600.301C1230.66 603.412 1242.15 605.693 1253.39 609.194C1263.72 612.435 1273.04 617.424 1282.62 622.153C1308.2 634.761 1334.83 637.025 1362.07 628.416C1382.84 621.868 1403.77 618.544 1425.47 622.727C1430.41 623.675 1435.27 624.955 1440.19 626.04" stroke="#FF6A39" stroke-width="12.548" stroke-linecap="round" stroke-linejoin="round"/>
<path d="M1440.2 263.234C1433.87 267.252 1427.57 271.298 1421.29 275.399C1408.64 283.688 1397.26 293.666 1387.88 305.575C1384.71 309.592 1382.32 314.51 1380.7 319.41C1377.07 330.241 1370.49 339.704 1366.9 350.458C1361.04 367.966 1360.04 385.919 1363 404.062C1363.83 409.128 1365.24 414.093 1367.3 418.863C1371.69 429.048 1380.58 433.96 1391.73 432.467C1408.19 430.251 1422.67 422.868 1437.19 415.409C1438.19 414.893 1439.2 414.372 1440.2 413.856" stroke="#CEFD94" stroke-width="2.5096" stroke-linecap="round" stroke-linejoin="round"/>
</g>
</svg>
