<?xml version="1.0" encoding="UTF-8"?> <svg xmlns="http://www.w3.org/2000/svg" width="236" height="36" viewBox="0 0 236 36" fill="none"><g clip-path="url(#clip0_5113_112178)"><path d="M0 0.682129V12.2331H11.535V35.3176H23.086V12.2331H34.6209V0.682129H0ZM46.1719 23.7666V12.2316H34.6195V35.3161H69.2564V23.7652L46.1719 23.7666ZM46.1719 0.682129H69.2564V12.2331H46.1719V0.682129Z" fill="#FFFEFB"></path><path d="M89.5356 13.2408V27.7959H84.1939V13.2408H78.8084V8.58313H94.921V13.2408H89.5356ZM107.38 22.0321H98.8655C98.8584 22.3492 98.9179 22.6643 99.0401 22.957C99.1622 23.2497 99.3444 23.5136 99.5747 23.7317C99.8051 23.9497 100.079 24.117 100.378 24.2229C100.677 24.3288 100.994 24.3709 101.311 24.3464C102.625 24.3393 103.915 23.988 105.051 23.3275L106.987 26.5296C105.236 27.6077 103.222 28.1819 101.165 28.1889C96.7986 28.1889 94.4261 25.1032 94.4261 20.6785C94.4261 15.7006 97.2353 13.1389 101.02 13.1389C104.804 13.1389 107.453 15.7588 107.453 21.1151C107.395 21.4644 107.395 21.7701 107.38 22.0175V22.0321ZM100.83 16.7486C99.6951 16.7486 99.0838 17.52 98.9091 18.961H103.028C102.781 17.5054 102.3 16.7486 100.845 16.7486H100.83ZM116.579 28.1453C112.358 28.1453 109.826 25.4526 109.826 20.5766C109.826 16.21 112.067 13.0952 116.696 13.0952C117.834 13.0575 118.959 13.344 119.941 13.9212C120.923 14.4984 121.721 15.3426 122.241 16.3556L118.835 18.9755C118.151 17.7238 117.671 17.1125 116.608 17.1125C115.546 17.1125 114.716 18.3788 114.716 20.6639C114.716 22.9491 115.4 24.128 116.754 24.128C117.685 24.128 118.355 23.6041 119.257 22.2359L122.387 24.6811C120.698 27.1555 119.141 28.1307 116.565 28.1307L116.579 28.1453ZM133.463 27.8542V19.6596C133.463 17.7674 132.837 17.2871 131.818 17.2871C130.8 17.2871 130.13 17.782 130.13 19.6159V27.8687H125.181V9.82032L130.13 7.84082V14.3906C131.154 13.5506 132.444 13.1018 133.769 13.1243C136.927 13.1243 138.426 15.2494 138.426 19.0337V27.8687L133.463 27.8542Z" fill="#FFFEFB"></path><path d="M150.29 28.1446C144.57 28.1446 141.557 23.9236 141.557 18.218C141.557 12.032 145.196 8.29136 150.29 8.29136C155.02 8.29136 156.883 10.3291 158.208 13.9679L153.376 15.86C152.677 14.0698 152.022 12.949 150.261 12.949C148.034 12.949 147.059 15.1759 147.059 18.2325C147.059 21.2891 147.99 23.5015 150.305 23.5015C151.978 23.5015 152.692 22.5991 153.74 20.7797L158.252 23.1813C157.584 24.7218 156.463 26.0228 155.038 26.9118C153.614 27.8008 151.953 28.2358 150.275 28.1592L150.29 28.1446ZM170.463 18.8293C170.19 18.4736 169.843 18.1813 169.446 17.9728C169.049 17.7642 168.612 17.6443 168.164 17.6212C166.956 17.6212 166.213 18.2034 166.213 19.95V27.8098H161.265V13.4002H166.213V14.4482C166.897 13.7269 167.806 13.2602 168.79 13.1252C169.775 12.9903 170.776 13.1951 171.628 13.7059L170.463 18.8293ZM182.253 27.8244V26.8637C181.241 27.7063 179.96 28.1559 178.643 28.13C175.485 28.13 173.986 26.005 173.986 22.2061V13.4293H178.935V21.5802C178.935 23.4433 179.575 23.9382 180.594 23.9382C181.613 23.9382 182.239 23.4433 182.239 21.6384V13.4293H187.216V27.868L182.253 27.8244ZM199.079 27.8244V19.6298C199.079 17.7377 198.438 17.2573 197.434 17.2573C196.43 17.2573 195.746 17.7522 195.746 19.5862V27.8389H190.797V13.4293H195.746V14.39C196.77 13.5499 198.06 13.1012 199.385 13.1237C202.543 13.1237 204.042 15.2487 204.042 19.0331V27.868L199.079 27.8244ZM213.707 28.1155C209.486 28.1155 206.939 25.4228 206.939 20.5468C206.939 16.1803 209.195 13.0655 213.809 13.0655C214.948 13.0302 216.075 13.3175 217.059 13.8943C218.042 14.4711 218.843 15.314 219.369 16.3258L215.963 18.9021C215.264 17.6503 214.799 17.039 213.736 17.039C212.673 17.039 211.844 18.3053 211.844 20.5905C211.844 22.8756 212.528 24.0546 213.882 24.0546C214.813 24.0546 215.483 23.5306 216.385 22.1624L219.514 24.6077C217.841 27.1403 216.269 28.1009 213.721 28.1009L213.707 28.1155ZM230.591 27.8244V19.6298C230.591 17.7377 229.965 17.2573 228.946 17.2573C227.927 17.2573 227.272 17.7522 227.272 19.5862V27.8389H222.324V9.79054L227.272 7.81104V14.3609C228.29 13.5184 229.576 13.0691 230.897 13.0946C234.07 13.0946 235.554 15.2196 235.554 19.004V27.8389L230.591 27.8244Z" fill="#FFFEFB"></path></g><defs><clipPath id="clip0_5113_112178"><rect width="235.554" height="36" fill="white"></rect></clipPath></defs></svg> 