<?xml version="1.0" encoding="UTF-8"?> <svg xmlns="http://www.w3.org/2000/svg" width="58" height="58" viewBox="0 0 58 58" fill="none"><path d="M48.2609 11.4066C45.8443 8.19242 43.3309 6.69409 40.3343 6.69409C38.4009 6.69409 36.5159 7.32242 34.7034 7.92658H34.6309C32.6976 8.57908 30.8609 9.15909 28.8793 9.15909C26.9218 9.15909 24.9643 8.50659 23.0551 7.90242C21.1943 7.27409 19.2851 6.64575 17.3759 6.64575C14.3551 6.64575 11.8901 8.19242 9.64256 11.4549C6.09006 16.6024 8.09592 22.1124 9.73925 26.5833C10.4642 28.5408 11.1409 30.4257 11.1409 31.8274C11.1409 39.0774 12.6876 51.3541 18.3909 51.3541C22.3059 51.3541 23.5384 46.8108 24.6017 42.7508C25.7134 38.4974 26.7043 35.5249 29.0243 35.5249C31.0301 35.5249 31.7792 37.4583 32.8426 42.1224C33.7609 46.2066 34.8968 51.2574 39.7301 51.2574C46.4726 51.2574 46.9801 36.3707 46.9801 31.8032C46.9801 30.4499 47.6326 28.5891 48.3334 26.6316L48.3817 26.5591C49.9284 22.0399 51.9584 16.4091 48.2609 11.4066Z" stroke="#FFFEFB" stroke-width="3" stroke-linecap="round" stroke-linejoin="round"></path></svg> 