<?xml version="1.0" encoding="UTF-8"?> <svg xmlns="http://www.w3.org/2000/svg" width="64" height="64" viewBox="0 0 64 64" fill="none"><path d="M31.9988 22.3999C28.0255 22.3999 24.7988 24.5599 24.7988 27.1999C24.7988 29.8399 28.0255 31.9999 31.9988 31.9999C35.9722 31.9999 39.1988 34.1599 39.1988 36.7999C39.1988 39.4399 35.9722 41.5999 31.9988 41.5999" stroke="#76B39D" stroke-width="3" stroke-linecap="round" stroke-linejoin="round"></path><path d="M32 22.3999V41.5999" stroke="#76B39D" stroke-width="3" stroke-linecap="round" stroke-linejoin="round"></path><path d="M32 22.3999C34.6667 22.3999 36.9867 23.3599 38.24 24.7999L32 22.3999Z" stroke="#76B39D" stroke-width="3" stroke-linecap="round" stroke-linejoin="round"></path><path d="M32 22.4001V20.0001" stroke="#76B39D" stroke-width="3" stroke-linecap="round" stroke-linejoin="round"></path><path d="M32 41.5997V43.9997" stroke="#76B39D" stroke-width="3" stroke-linecap="round" stroke-linejoin="round"></path><path d="M31.9988 41.6001C29.3321 41.6001 27.0121 40.6401 25.7588 39.2001L31.9988 41.6001Z" stroke="#76B39D" stroke-width="3" stroke-linecap="round" stroke-linejoin="round"></path><path d="M56 32.0002C56 35.1469 55.3867 38.2669 54.16 41.1735C52.96 44.0802 51.1733 46.7202 48.96 48.9602C46.72 51.2002 44.08 52.9602 41.1733 54.1602C38.2667 55.3869 35.1467 56.0002 32 56.0002C28.8533 56.0002 25.7333 55.3869 22.8267 54.1602C19.92 52.9335 17.28 51.1735 15.04 48.9602C12.8 46.7202 11.04 44.0802 9.84 41.1735C8.61333 38.2669 8 35.1469 8 32.0002C8 25.6269 10.5333 19.5202 15.04 15.0402C19.52 10.5335 25.6267 8.00021 32 8.00021C38.3733 8.00021 44.48 10.5335 48.96 15.0402C53.4667 19.5202 56 25.6269 56 32.0002Z" stroke="#76B39D" stroke-width="3" stroke-linecap="round" stroke-linejoin="round"></path></svg> 