<svg xmlns="http://www.w3.org/2000/svg" width="64" height="64" fill="none"><path stroke="#0C2233" stroke-linecap="round" stroke-linejoin="round" stroke-width="3" d="M21.039 37.493h-8.214a5.485 5.485 0 0 0-5.493 5.493V51.2a5.485 5.485 0 0 0 5.493 5.493h8.214a5.486 5.486 0 0 0 5.493-5.493v-8.214c-.027-3.04-2.48-5.493-5.493-5.493M26.504 37.494 37.49 26.506M40.215 23.786V32M40.213 23.786H32"/><path fill="#0C2233" d="M41.945 42.72h-8c-1.093 0-2 .906-2 2s.907 2 2 2h8c1.094 0 2-.907 2-2 0-1.094-.906-2-2-2M56.612 36.054c-1.093 0-2 .906-2 2v1.333a3.335 3.335 0 0 1-3.333 3.333h-1.334c-1.093 0-2 .907-2 2 0 1.094.907 2 2 2h1.334a7.33 7.33 0 0 0 7.333-7.333v-1.333c0-1.094-.907-2-2-2M56.61 20.054c-1.094 0-2 .906-2 2v8c0 1.093.906 2 2 2s2-.907 2-2v-8c0-1.094-.907-2-2-2M51.279 5.387h-1.334c-1.093 0-2 .906-2 2s.907 2 2 2h1.334a3.335 3.335 0 0 1 3.333 3.333v1.333c0 1.094.907 2 2 2s2-.906 2-2V12.72a7.33 7.33 0 0 0-7.333-7.333M41.945 5.387h-8c-1.093 0-2 .906-2 2s.907 2 2 2h8c1.094 0 2-.907 2-2 0-1.094-.906-2-2-2M25.944 5.387h-1.333a7.33 7.33 0 0 0-7.334 7.333v1.333c0 1.094.907 2 2 2 1.094 0 2-.906 2-2V12.72a3.335 3.335 0 0 1 3.334-3.333h1.333c1.093 0 2-.907 2-2 0-1.094-.907-2-2-2M19.277 20.054c-1.093 0-2 .906-2 2v8c0 1.093.907 2 2 2 1.094 0 2-.907 2-2v-8c0-1.094-.906-2-2-2"/></svg>