<?xml version="1.0" encoding="UTF-8"?> <svg xmlns="http://www.w3.org/2000/svg" width="64" height="64" viewBox="0 0 64 64" fill="none"><path d="M40.2668 55.1999C37.6001 55.9999 34.9335 56.5332 32.0001 56.5332C18.4001 56.5332 7.4668 45.5999 7.4668 31.7332C7.4668 18.1332 18.4001 7.19989 32.2668 7.19989C45.8668 7.19989 56.8001 18.1332 56.8001 31.9999C56.8001 33.5999 56.8001 34.6666 56.8001 34.6666C56.8001 39.1999 53.0668 42.9332 48.5335 42.9332C44.0001 42.9332 40.2668 39.1999 40.2668 34.6666V23.7332" stroke="#0C2233" stroke-width="3" stroke-linecap="round" stroke-linejoin="round"></path><path d="M32.001 40.2667C27.201 40.2667 23.7344 36.5334 23.7344 32.2667V32.0001C23.7344 27.4667 27.4677 24.0001 31.7344 24.0001H32.001C36.5344 24.0001 40.001 27.7334 40.001 32.0001C40.2677 36.5334 36.5344 40.2667 32.001 40.2667Z" stroke="#0C2233" stroke-width="3" stroke-linecap="round" stroke-linejoin="round"></path></svg> 