<svg xmlns="http://www.w3.org/2000/svg" width="40" height="36" fill="none"><path fill="#76B39D" d="M0 36V.937L40 0v35.13z"/><g clip-path="url(#a)"><path fill="#0C2233" d="M20 6C13.373 6 8 11.373 8 18c0 6.016 4.432 10.984 10.206 11.852V21.18h-2.969v-3.154h2.969v-2.099c0-3.475 1.693-5 4.581-5 1.383 0 2.115.103 2.461.149v2.753h-1.97c-1.226 0-1.654 1.163-1.654 2.473v1.724h3.593l-.487 3.154h-3.106v8.697C27.481 29.083 32 24.075 32 18c0-6.627-5.373-12-12-12"/></g><defs><clipPath id="a"><path fill="#fff" d="M8 6h24v24H8z"/></clipPath></defs></svg>