<?xml version="1.0" encoding="UTF-8"?> <svg xmlns="http://www.w3.org/2000/svg" id="Layer_1" data-name="Layer 1" version="1.1" viewBox="0 0 64 64"><defs><style> .cls-1 { stroke-width: 0px; } .cls-1, .cls-2 { fill: none; } .cls-2 { stroke: #0c2233; stroke-linecap: round; stroke-linejoin: round; stroke-width: 3px; } </style></defs><path class="cls-1" d="M31.6,56c-1.4,0-2.7-.4-3.9-.9-2.6-1.1-4.6-3.3-5.4-5.9,0-.3-.1-.6-.2-.8-.1-.7-.2-1.2-.2-1.7,0-2.5,1-5,2.8-7l5.5-6.2s.7-.8,1.4-1.5c.7.8,1.4,1.5,1.4,1.5l5.5,6.2c1.8,2,2.8,4.5,2.8,7s0,1-.2,1.7c0,.2-.1.5-.2.8-.7,2.7-2.7,4.8-5.4,5.9-1.3.5-2.6.8-3.9.9Z"></path><path class="cls-2" d="M31.6,56c-1.4,0-2.7-.4-3.9-.9-2.6-1.1-4.6-3.3-5.4-5.9,0-.3-.1-.6-.2-.8-.1-.7-.2-1.2-.2-1.7,0-2.5,1-5,2.8-7l5.5-6.2s.7-.8,1.4-1.5c.7.8,1.4,1.5,1.4,1.5l5.5,6.2c1.8,2,2.8,4.5,2.8,7s0,1-.2,1.7c0,.2-.1.5-.2.8-.7,2.7-2.7,4.8-5.4,5.9-1.3.5-2.6.8-3.9.9Z"></path><path class="cls-1" d="M33.9,11.4c-.9-1.6-1.5-2.8-1.5-2.8-.4-.7-1.3-1.2-2.2-1.2s-1.4.3-1.9.8l-11.9,13.3c-3.9,4.2-6,9.6-6,15.1s.2,2.1.5,3.5c.2.5.3,1.1.4,1.7,2.3,8.5,10.5,14.2,20,14.8,10,0,19.1-6,21.4-14.8.2-.6.3-1.2.5-1.7.3-1.4.4-2.5.4-3.4v-.3c0-5.8-2.9-12.3-5.7-16.5l-2.5-3.9c-.4-.7-1.2-1-2-1.1-.8,0-1.6.4-2,1l-2.9,4.1c0,0-2.8-5.3-4.6-8.6Z"></path><path class="cls-2" d="M33.9,11.4c-.9-1.6-1.5-2.8-1.5-2.8-.4-.7-1.3-1.2-2.2-1.2s-1.4.3-1.9.8l-11.9,13.3c-3.9,4.2-6,9.6-6,15.1s.2,2.1.5,3.5c.2.5.3,1.1.4,1.7,2.3,8.5,10.5,14.2,20,14.8,10,0,19.1-6,21.4-14.8.2-.6.3-1.2.5-1.7.3-1.4.4-2.5.4-3.4v-.3c0-5.8-2.9-12.3-5.7-16.5l-2.5-3.9c-.4-.7-1.2-1-2-1.1-.8,0-1.6.4-2,1l-2.9,4.1c0,0-2.8-5.3-4.6-8.6Z"></path><metadata></metadata></svg> 