<?xml version="1.0" encoding="UTF-8"?> <svg xmlns="http://www.w3.org/2000/svg" width="1440" height="818" viewBox="0 0 1440 818" fill="none"><mask id="mask0_1926_2944" style="mask-type:alpha" maskUnits="userSpaceOnUse" x="0" y="0" width="1440" height="818"><rect width="1440" height="818" fill="#0C2233"></rect></mask><g mask="url(#mask0_1926_2944)"><rect width="1440" height="818" fill="#0C2233"></rect><path d="M1361.36 -14.1001C1330.25 14.7725 1291.81 34.7433 1251.06 51.6175C1228.59 60.9164 1204.56 67.1607 1182.54 77.4637C1167.62 84.4647 1153.46 92.4464 1143.18 104.879C1132.6 117.648 1128.86 131.202 1134.87 146.572C1144.63 171.437 1151.39 197.2 1162.09 221.785C1170.96 242.199 1181.06 262.137 1190.72 282.267C1205.51 313.124 1220.48 343.926 1230.83 376.297C1238 398.752 1240.81 421.688 1238.85 444.816C1237.47 460.999 1231.83 476.683 1227.81 492.53C1221.96 515.349 1216.29 538.23 1210.41 561.049C1203.84 586.559 1197.82 612.209 1191.06 637.691C1187.22 652.17 1182.35 666.615 1180.55 681.346C1177.56 705.567 1183.61 728.167 1202.14 747.152C1220.73 766.221 1236.18 771.765 1262.89 777.365C1281.58 781.284 1300.45 783.553 1319.55 784.562C1333.61 785.291 1345.63 781.204 1355.1 771.261C1369.73 755.886 1388.36 745.387 1409.41 738.33C1418.14 735.392 1428.94 733.631 1440.06 732.351" stroke="#CEFD94" stroke-width="1.95526" stroke-linecap="round" stroke-linejoin="round"></path><path d="M1416.54 -14.1001C1412.92 -9.92473 1409.22 -5.79607 1405.45 -1.7001C1379.56 26.4159 1348.98 49.4318 1314.62 68.6413C1286.4 84.4086 1256.69 97.5092 1225.7 108.601C1211.67 113.613 1198.93 121.398 1194.68 135.905C1191.72 146.012 1193.04 156.263 1195.59 166.09C1204.27 199.609 1215.03 232.676 1228.84 264.795C1241.4 293.999 1255.97 322.451 1272.14 350.315C1282.28 367.759 1288.37 386.604 1290.96 406.57C1293.54 426.564 1289.51 445.466 1284.35 464.367C1278.18 487.046 1269.47 509.254 1265.09 532.27C1261.38 551.76 1260.47 571.642 1262.05 591.356C1264.31 619.808 1269.91 647.863 1278.65 675.307C1282.09 686.114 1287.15 696.646 1297.34 704.231C1307.29 711.624 1318.04 714.17 1331.35 711.932C1346.86 709.354 1360.93 702.998 1376.5 700.537C1389.34 698.519 1402.11 695.945 1415.08 694.124C1423.41 692.956 1431.74 691.831 1440.06 690.645" stroke="#FF6A39" stroke-width="9.77632" stroke-linecap="round" stroke-linejoin="round"></path><path d="M1439.71 -14.1001C1433.63 -6.26311 1427.15 1.35903 1420.24 8.74765C1396.3 34.3696 1368.2 56.2132 1338.13 76.0626C1310.57 94.2632 1281.34 110.227 1252.74 127.026C1243.58 132.402 1235.21 138.31 1230.12 147.245C1224.58 156.959 1225.52 167.603 1227.47 177.43C1231.69 198.909 1237.13 220.243 1243.64 241.33C1255.47 279.609 1271.9 316.095 1294.99 350.175C1304.5 364.233 1310.6 379.351 1313.37 395.791C1317.89 422.786 1312.64 448.604 1302.42 473.694C1294.71 492.623 1288.51 511.832 1284.67 531.546C1281.68 546.837 1281.06 562.488 1283.19 577.863C1287.06 605.643 1296.34 631.849 1314.62 655.205C1323.09 665.985 1333.94 671.164 1348.7 671.388C1367.42 671.641 1386.11 670.856 1404.54 668.418C1416.53 666.83 1428.38 664.812 1440.07 662.225" stroke="#FF6A39" stroke-width="4.88816" stroke-linecap="round" stroke-linejoin="round"></path><path d="M1440.06 19.6064C1424.95 35.9903 1408.37 51.286 1390.79 65.839C1370.78 82.4144 1348.75 97.0048 1327.55 112.38C1309.96 125.149 1291.71 137.469 1279.98 155.362C1273.62 165.048 1270.95 175.72 1269.06 186.864C1266.73 200.698 1267.74 214.335 1269.57 227.861C1273.53 256.925 1283.54 284.425 1298.64 310.579C1309.02 328.583 1321.51 345.388 1332.87 362.86C1344.29 380.444 1349.64 399.261 1347.69 419.339C1346.02 436.223 1337.87 451.57 1330.61 467.08C1321.67 486.122 1312.76 505.219 1307.92 525.494C1300.75 555.314 1303.05 583.766 1323.75 609.473C1336.11 624.848 1353.04 633.862 1373.59 637.673C1398.5 642.264 1420.16 635.949 1440.07 624.88" stroke="#CEFD94" stroke-width="3.91053" stroke-miterlimit="10"></path><path d="M1440.06 38.9976C1425.99 52.6259 1411.07 65.5723 1395.7 78.2198C1377.1 93.4828 1358.19 108.433 1339.47 123.556C1325.38 134.924 1312.42 146.908 1302.82 161.442C1295.4 172.754 1291.05 185.243 1289.07 198.32C1283.97 232.148 1294.83 263.286 1309.55 293.695C1318.55 312.26 1330.66 329.227 1344.13 345.499C1355.55 359.305 1364.7 374.031 1369.36 391.087C1374.67 410.521 1371.5 428.526 1362.31 446.222C1357.44 455.661 1350.42 463.974 1344.94 473.105C1332.48 493.827 1324.68 516.059 1319.33 538.939C1312.69 567.471 1331.73 602.588 1360.83 615.469C1385.19 626.248 1410.64 621.853 1430.96 606.702C1434.16 604.321 1437.17 601.808 1440.05 599.192" stroke="#CEFD94" stroke-width="2.44408" stroke-linecap="round" stroke-linejoin="round"></path><path d="M1440.06 61.5649C1415.25 83.6934 1389.55 105.042 1364.42 126.914C1353.45 136.493 1341.58 145.254 1332.96 156.678C1320.88 172.693 1314.02 190.31 1311.5 209.688C1308.07 236.318 1317.54 260.035 1329.06 283.611C1340.54 307.132 1358.73 326.733 1375.09 347.456C1387.83 363.583 1398.09 380.864 1404.66 399.793C1406.74 405.757 1406.84 418.666 1406.84 418.666C1407.69 436.839 1397.24 450.504 1384.15 462.965C1374.14 472.488 1362.72 480.858 1355.48 492.534C1344.78 509.781 1337.08 527.926 1335.22 547.64C1333.24 568.783 1351.99 594.461 1374.33 598.884C1393.3 602.634 1409.66 597.035 1421.96 584.63C1429.57 576.956 1435.25 568.419 1440.06 559.475" stroke="#FFFEFB" stroke-width="0.977632" stroke-linecap="round" stroke-linejoin="round"></path><path d="M1440.06 175.985C1433.58 180.81 1427.54 186.022 1422.09 191.734C1409.19 205.232 1408.46 220.378 1416.45 236.678C1422.21 248.396 1430.47 258.031 1440.06 266.774" stroke="#0A91AB" stroke-width="0.977632" stroke-linecap="round" stroke-linejoin="round"></path><path d="M1387.43 -14.1001C1386.68 -13.3341 1385.91 -12.5682 1385.15 -11.8069C1357.56 15.6365 1324.27 36.1584 1289 54.4198C1266.5 66.0679 1242.19 74.2178 1217.52 81.8072C1201.06 86.8746 1185.02 94.2679 1171.48 104.459C1162.92 110.927 1158.11 119.694 1157.51 130.445C1156.6 147.076 1162.14 162.62 1167.02 178.102C1178.47 214.223 1193.19 249.424 1210.72 283.556C1224.37 310.187 1237.99 336.817 1251.11 363.64C1256.71 375.064 1260.14 387.216 1262.19 399.789C1264.43 413.539 1264.26 427.204 1263.13 440.786C1261.93 455.068 1258.41 469.266 1254.17 483.067C1248.44 501.688 1244.06 520.478 1240.6 539.519C1237.07 558.925 1235 578.414 1232.96 597.96C1230.5 621.48 1229.34 645.005 1230.41 668.497C1231.54 693.419 1239.72 716.631 1259.8 734.864C1274.49 748.194 1293.21 754.999 1313.91 758.805C1333.01 762.331 1346.6 755.279 1360.1 745.167C1380.65 729.792 1404.68 721.171 1430.95 716.748C1433.97 716.234 1437.01 715.795 1440.04 715.398" stroke="#0A91AB" stroke-width="0.977632" stroke-linecap="round" stroke-linejoin="round"></path><path d="M1440.06 93.3994C1439.26 94.072 1438.47 94.7445 1437.66 95.4124C1418.41 111.427 1396.83 125.205 1378.92 142.57C1365.14 155.955 1350.61 168.864 1344.09 186.869C1338.27 202.996 1338.18 219.212 1340.13 235.955C1343.28 262.81 1358.85 284.285 1376 305.035C1395.99 329.266 1417.79 352.23 1440.06 374.858" stroke="#CEFD94" stroke-width="1.95526" stroke-linecap="round" stroke-linejoin="round"></path><path d="M1440.06 130.473C1425.8 141.696 1411.65 153.04 1398.56 165.389C1387.89 175.468 1379.59 186.924 1375.18 200.31C1368.48 220.724 1372.88 239.793 1384.17 258.106C1394.78 275.27 1408.62 290.113 1423.38 304.535C1428.73 309.77 1434.3 314.754 1440.06 319.522" stroke="#CEFD94" stroke-width="2.44408" stroke-linecap="round" stroke-linejoin="round"></path><path d="M1361.36 -14.1001C1330.25 14.7725 1291.81 34.7433 1251.06 51.6175C1228.59 60.9164 1204.56 67.1607 1182.54 77.4637C1167.62 84.4647 1153.46 92.4464 1143.18 104.879C1132.6 117.648 1128.86 131.202 1134.87 146.572C1144.63 171.437 1151.39 197.2 1162.09 221.785C1170.96 242.199 1181.06 262.137 1190.72 282.267C1205.51 313.124 1220.48 343.926 1230.83 376.297C1238 398.752 1240.81 421.688 1238.85 444.816C1237.47 460.999 1231.83 476.683 1227.81 492.53C1221.96 515.349 1216.29 538.23 1210.41 561.049C1203.84 586.559 1197.82 612.209 1191.06 637.691C1187.22 652.17 1182.35 666.615 1180.55 681.346C1177.56 705.567 1183.61 728.167 1202.14 747.152C1220.73 766.221 1236.18 771.765 1262.89 777.365C1281.58 781.284 1300.45 783.553 1319.55 784.562C1333.61 785.291 1345.63 781.204 1355.1 771.261C1369.73 755.886 1388.36 745.387 1409.41 738.33C1418.14 735.392 1428.94 733.631 1440.06 732.351" stroke="#CEFD94" stroke-width="1.95526" stroke-linecap="round" stroke-linejoin="round"></path><path d="M1416.54 -14.1001C1412.92 -9.92473 1409.22 -5.79607 1405.45 -1.7001C1379.56 26.4159 1348.98 49.4318 1314.62 68.6413C1286.4 84.4086 1256.69 97.5092 1225.7 108.601C1211.67 113.613 1198.93 121.398 1194.68 135.905C1191.72 146.012 1193.04 156.263 1195.59 166.09C1204.27 199.609 1215.03 232.676 1228.84 264.795C1241.4 293.999 1255.97 322.451 1272.14 350.315C1282.28 367.759 1288.37 386.604 1290.96 406.57C1293.54 426.564 1289.51 445.466 1284.35 464.367C1278.18 487.046 1269.47 509.254 1265.09 532.27C1261.38 551.76 1260.47 571.642 1262.05 591.356C1264.31 619.808 1269.91 647.863 1278.65 675.307C1282.09 686.114 1287.15 696.646 1297.34 704.231C1307.29 711.624 1318.04 714.17 1331.35 711.932C1346.86 709.354 1360.93 702.998 1376.5 700.537C1389.34 698.519 1402.11 695.945 1415.08 694.124C1423.41 692.956 1431.74 691.831 1440.06 690.645" stroke="#FF6A39" stroke-width="9.77632" stroke-linecap="round" stroke-linejoin="round"></path><path d="M1439.71 -14.1001C1433.63 -6.26311 1427.15 1.35903 1420.24 8.74765C1396.3 34.3696 1368.2 56.2132 1338.13 76.0626C1310.57 94.2632 1281.34 110.227 1252.74 127.026C1243.58 132.402 1235.21 138.31 1230.12 147.245C1224.58 156.959 1225.52 167.603 1227.47 177.43C1231.69 198.909 1237.13 220.243 1243.64 241.33C1255.47 279.609 1271.9 316.095 1294.99 350.175C1304.5 364.233 1310.6 379.351 1313.37 395.791C1317.89 422.786 1312.64 448.604 1302.42 473.694C1294.71 492.623 1288.51 511.832 1284.67 531.546C1281.68 546.837 1281.06 562.488 1283.19 577.863C1287.06 605.643 1296.34 631.849 1314.62 655.205C1323.09 665.985 1333.94 671.164 1348.7 671.388C1367.42 671.641 1386.11 670.856 1404.54 668.418C1416.53 666.83 1428.38 664.812 1440.07 662.225" stroke="#FF6A39" stroke-width="4.88816" stroke-linecap="round" stroke-linejoin="round"></path><path d="M1440.06 19.6064C1424.95 35.9903 1408.37 51.286 1390.79 65.839C1370.78 82.4144 1348.75 97.0048 1327.55 112.38C1309.96 125.149 1291.71 137.469 1279.98 155.362C1273.62 165.048 1270.95 175.72 1269.06 186.864C1266.73 200.698 1267.74 214.335 1269.57 227.861C1273.53 256.925 1283.54 284.425 1298.64 310.579C1309.02 328.583 1321.51 345.388 1332.87 362.86C1344.29 380.444 1349.64 399.261 1347.69 419.339C1346.02 436.223 1337.87 451.57 1330.61 467.08C1321.67 486.122 1312.76 505.219 1307.92 525.494C1300.75 555.314 1303.05 583.766 1323.75 609.473C1336.11 624.848 1353.04 633.862 1373.59 637.673C1398.5 642.264 1420.16 635.949 1440.07 624.88" stroke="#CEFD94" stroke-width="3.91053" stroke-miterlimit="10"></path><path d="M1440.06 38.9976C1425.99 52.6259 1411.07 65.5723 1395.7 78.2198C1377.1 93.4828 1358.19 108.433 1339.47 123.556C1325.38 134.924 1312.42 146.908 1302.82 161.442C1295.4 172.754 1291.05 185.243 1289.07 198.32C1283.97 232.148 1294.83 263.286 1309.55 293.695C1318.55 312.26 1330.66 329.227 1344.13 345.499C1355.55 359.305 1364.7 374.031 1369.36 391.087C1374.67 410.521 1371.5 428.526 1362.31 446.222C1357.44 455.661 1350.42 463.974 1344.94 473.105C1332.48 493.827 1324.68 516.059 1319.33 538.939C1312.69 567.471 1331.73 602.588 1360.83 615.469C1385.19 626.248 1410.64 621.853 1430.96 606.702C1434.16 604.321 1437.17 601.808 1440.05 599.192" stroke="#CEFD94" stroke-width="2.44408" stroke-linecap="round" stroke-linejoin="round"></path><path d="M1440.06 61.5649C1415.25 83.6934 1389.55 105.042 1364.42 126.914C1353.45 136.493 1341.58 145.254 1332.96 156.678C1320.88 172.693 1314.02 190.31 1311.5 209.688C1308.07 236.318 1317.54 260.035 1329.06 283.611C1340.54 307.132 1358.73 326.733 1375.09 347.456C1387.83 363.583 1398.09 380.864 1404.66 399.793C1406.74 405.757 1406.84 418.666 1406.84 418.666C1407.69 436.839 1397.24 450.504 1384.15 462.965C1374.14 472.488 1362.72 480.858 1355.48 492.534C1344.78 509.781 1337.08 527.926 1335.22 547.64C1333.24 568.783 1351.99 594.461 1374.33 598.884C1393.3 602.634 1409.66 597.035 1421.96 584.63C1429.57 576.956 1435.25 568.419 1440.06 559.475" stroke="#FFFEFB" stroke-width="0.977632" stroke-linecap="round" stroke-linejoin="round"></path><path d="M1440.06 175.985C1433.58 180.81 1427.54 186.022 1422.09 191.734C1409.19 205.232 1408.46 220.378 1416.45 236.678C1422.21 248.396 1430.47 258.031 1440.06 266.774" stroke="#0A91AB" stroke-width="0.977632" stroke-linecap="round" stroke-linejoin="round"></path><path d="M1387.43 -14.1001C1386.68 -13.3341 1385.91 -12.5682 1385.15 -11.8069C1357.56 15.6365 1324.27 36.1584 1289 54.4198C1266.5 66.0679 1242.19 74.2178 1217.52 81.8072C1201.06 86.8746 1185.02 94.2679 1171.48 104.459C1162.92 110.927 1158.11 119.694 1157.51 130.445C1156.6 147.076 1162.14 162.62 1167.02 178.102C1178.47 214.223 1193.19 249.424 1210.72 283.556C1224.37 310.187 1237.99 336.817 1251.11 363.64C1256.71 375.064 1260.14 387.216 1262.19 399.789C1264.43 413.539 1264.26 427.204 1263.13 440.786C1261.93 455.068 1258.41 469.266 1254.17 483.067C1248.44 501.688 1244.06 520.478 1240.6 539.519C1237.07 558.925 1235 578.414 1232.96 597.96C1230.5 621.48 1229.34 645.005 1230.41 668.497C1231.54 693.419 1239.72 716.631 1259.8 734.864C1274.49 748.194 1293.21 754.999 1313.91 758.805C1333.01 762.331 1346.6 755.279 1360.1 745.167C1380.65 729.792 1404.68 721.171 1430.95 716.748C1433.97 716.234 1437.01 715.795 1440.04 715.398" stroke="#0A91AB" stroke-width="0.977632" stroke-linecap="round" stroke-linejoin="round"></path><path d="M1440.06 93.3994C1439.26 94.072 1438.47 94.7445 1437.66 95.4124C1418.41 111.427 1396.83 125.205 1378.92 142.57C1365.14 155.955 1350.61 168.864 1344.09 186.869C1338.27 202.996 1338.18 219.212 1340.13 235.955C1343.28 262.81 1358.85 284.285 1376 305.035C1395.99 329.266 1417.79 352.23 1440.06 374.858" stroke="#CEFD94" stroke-width="1.95526" stroke-linecap="round" stroke-linejoin="round"></path><path d="M1440.06 130.473C1425.8 141.696 1411.65 153.04 1398.56 165.389C1387.89 175.468 1379.59 186.924 1375.18 200.31C1368.48 220.724 1372.88 239.793 1384.17 258.106C1394.78 275.27 1408.62 290.113 1423.38 304.535C1428.73 309.77 1434.3 314.754 1440.06 319.522" stroke="#CEFD94" stroke-width="2.44408" stroke-linecap="round" stroke-linejoin="round"></path></g></svg> 