<?xml version="1.0" encoding="UTF-8"?> <svg xmlns="http://www.w3.org/2000/svg" width="1440" height="636" viewBox="0 0 1440 636" fill="none"><mask id="mask0_4581_512" style="mask-type:alpha" maskUnits="userSpaceOnUse" x="0" y="0" width="1440" height="636"><rect width="1440" height="636" fill="#0C2233"></rect></mask><g mask="url(#mask0_4581_512)"><rect width="1440" height="636" fill="#0C2233"></rect><path d="M1520.99 226.426C1513.22 240.905 1501.51 252.779 1486.71 262.401C1462.55 278.123 1437.99 293.32 1415.1 310.863C1399.66 322.692 1386.97 337.281 1376.48 353.972C1357.42 384.261 1350.07 417.585 1349.34 452.778C1348.8 479.902 1345.45 506.67 1339.19 533C1336.52 544.273 1331.8 555.202 1331.25 566.849C1330.3 586.582 1336.92 604.354 1347.22 620.917C1358 638.192 1371.55 653.167 1388 664.703C1402.04 674.558 1417.23 683.28 1435.94 680.273C1438.55 679.859 1440.94 679.129 1443.28 678.288C1463.36 670.996 1483.54 663.938 1503.12 655.338C1509.25 652.647 1515.18 649.635 1520.98 646.394" stroke="#CEFD94" stroke-width="5.57686" stroke-linecap="round" stroke-linejoin="round"></path><path d="M1521 294.989C1499.33 311.353 1477.53 327.484 1455.04 342.657C1438.98 353.493 1424.83 366.167 1413.83 381.884C1403.06 397.244 1396.43 414.7 1392.69 433.254C1386.78 462.515 1382 491.91 1379.76 521.714C1378.64 536.7 1377.26 551.675 1378.16 566.679C1379.61 590.861 1389.08 611.96 1405.96 628.92C1422.15 645.191 1442.35 646.972 1463.63 640.602C1485.08 634.18 1503.45 622.416 1521 609.14" stroke="#CEFD94" stroke-width="3.48554" stroke-linecap="round" stroke-linejoin="round"></path><path d="M1395.76 -49.9995C1395.83 -48.3765 1395.9 -46.7593 1395.96 -45.1363C1396.7 -22.7061 1394.84 -0.474355 1389.26 21.1911C1386.55 31.7406 1382.24 41.9341 1376.93 51.5729C1366.83 69.8347 1361.4 89.6027 1358.63 110.211C1356.23 128.041 1346.7 142.041 1334.47 154.266C1322.76 165.96 1311.46 178.033 1302.18 191.689C1299.12 196.196 1295.94 200.931 1293.62 206.086C1288.02 218.603 1280.18 229.859 1273.22 241.617C1267.35 251.46 1261.06 261.04 1254.87 270.638C1247.68 281.83 1240.46 293.069 1232.66 303.916C1228.39 309.853 1224.7 316.375 1220.81 322.68C1212.21 336.569 1205.35 351.421 1199.21 366.484C1187.47 395.178 1182.68 424.62 1191.64 455.329C1195.25 467.717 1197.32 480.188 1195.08 493.633C1193.28 504.544 1188.4 513.459 1182.65 521.849C1177.69 529.129 1173.08 536.666 1168.55 544.145C1159.46 559.16 1150.5 574.17 1140.73 588.766C1135.29 596.898 1128.33 603.735 1123.26 612.259C1117.42 622.113 1115.84 632.418 1117.8 642.81C1121.71 663.617 1125.55 684.483 1130.58 705.109C1133.78 718.262 1138.42 730.394 1149.5 738.988C1155.56 743.693 1162.51 746.788 1169.49 749.747C1182.37 755.241 1195.27 760.776 1208.41 765.651C1220.55 770.158 1232.7 774.665 1244.99 778.775C1253.84 781.741 1262.8 784.601 1271.6 787.818C1279.55 790.737 1287.85 792.769 1295.63 796.19C1317.87 805.998 1337.07 820.535 1356.07 835.44C1390.01 862.097 1421.86 891.224 1454.64 919.212C1469.34 931.77 1483.56 944.812 1499.11 956.383C1506.14 961.626 1513.41 966.267 1520.97 970.366" stroke="#CEFD94" stroke-width="2.78843" stroke-linecap="round" stroke-linejoin="round"></path><path d="M1506.44 -50C1501.02 -26.1744 1498.62 -1.88185 1500.73 23.1639C1503.26 53.1078 1504.93 83.1393 1502.66 113.27C1501.02 134.807 1497.01 155.795 1491.06 176.544C1489 183.708 1486.98 190.789 1484.24 197.719C1478.17 213.033 1466.81 223.296 1452.43 229.187C1424.32 240.694 1400.27 258.494 1376.53 276.692C1354.68 293.436 1340.13 315.58 1331.88 342.155C1328.67 352.495 1323.06 362.116 1318.32 371.965C1308.87 391.669 1306.95 412.243 1308.46 433.99C1310.25 459.835 1313.89 485.745 1309.71 511.847C1307.8 523.722 1304.36 534.879 1298.38 544.973C1290.29 558.635 1287.62 573.475 1286.38 588.865C1285.15 604.353 1287.2 619.334 1293.61 633.591C1299.04 645.664 1307.65 654.976 1318.56 662.227C1333.29 671.977 1348.87 680.325 1363.94 689.491C1373.54 695.329 1381.8 703.158 1391.88 708.483C1408.02 716.977 1424.53 717.339 1441.51 712.324C1468.37 704.373 1494.87 695.288 1520.98 685.107" stroke="#FF6A39" stroke-width="6.97108" stroke-linecap="round" stroke-linejoin="round"></path><path d="M1432.22 -50C1432.81 -38.8666 1432.84 -27.7157 1431.88 -16.5415C1430.16 3.72864 1425.84 23.4616 1420.72 43.1538C1413.68 70.167 1406.86 97.221 1402.85 125.034C1398.95 152.193 1382.58 171.582 1359.22 184.998C1348.69 191.029 1339.32 198.186 1331.13 207.288C1324.2 215 1319.33 223.892 1313.75 232.45C1308.35 240.758 1303.45 249.358 1298.03 257.654C1293.76 264.181 1289.55 270.889 1285.7 277.702C1280.16 287.487 1273.52 296.559 1267.64 306.116C1259.63 319.141 1252.02 332.353 1246.63 346.534C1240.92 361.526 1236.24 376.875 1233.54 392.901C1229.73 415.576 1229.78 438.053 1233.25 460.659C1236.49 481.647 1235.64 502.162 1228.42 522.601C1223.36 536.975 1216.16 549.848 1208.33 562.745C1198.37 579.197 1186.33 594.458 1179.17 612.585C1164.35 650.206 1167.3 690.618 1202.44 721.309C1212.93 730.458 1225.86 736.524 1239.62 740.832C1255.87 745.929 1272.14 751.043 1288.47 755.69C1316.04 763.56 1343.54 771.669 1368.96 784.992C1383.59 792.658 1398.57 796.733 1414.74 797.153C1425.33 797.421 1435.76 795.314 1446.24 794.152C1463.4 792.237 1468.62 797.042 1467.68 814.568C1467.22 823.366 1466.85 832.118 1467.05 840.945C1467.37 857.858 1472.54 872.366 1483.29 885.508C1495.58 900.559 1507.88 915.598 1520.98 929.919" stroke="#0A91AB" stroke-width="1.39422" stroke-linecap="round" stroke-linejoin="round"></path><path d="M1520.99 341.694C1505.6 353.177 1489.83 364.153 1472.9 373.558C1454.92 383.524 1441.18 398.633 1432.21 417.823C1424.54 434.293 1419.78 451.609 1415.85 469.24C1408.34 502.955 1406.17 537.103 1410.23 571.233C1412.86 593.663 1427.69 604.002 1447.56 607.102C1462.24 609.373 1475.68 603.471 1487.96 595.893C1499.32 588.899 1510.03 580.912 1520.99 573.288" stroke="#FFFEFB" stroke-width="1.39422" stroke-linecap="round" stroke-linejoin="round"></path><path d="M1468.85 -50C1469 -46.1935 1469.22 -42.3695 1469.55 -38.528C1470.93 -22.5022 1467.77 -6.01527 1465.11 10.0864C1460.65 37.012 1456.16 63.9259 1451.26 90.7348C1448.72 104.711 1447.79 118.892 1445.26 132.904C1438.64 169.614 1418.89 197.24 1387.45 215.742C1363.49 229.835 1343.39 247.887 1326.46 269.482C1318.8 279.249 1312.84 290.493 1306.68 301.493C1298.48 316.117 1290.28 330.683 1283.43 346.032C1269.61 376.98 1264.18 408.991 1269.26 442.928C1271.61 458.697 1275.18 474.425 1274.04 490.719C1273.39 500.072 1270.72 508.888 1268.47 517.773C1264.06 535.399 1258.27 552.691 1249.99 568.881C1246.32 576.026 1242.45 583.137 1239.06 590.347C1227.61 614.564 1220 639.773 1226.24 666.985C1229.76 682.409 1239.07 693.776 1252.42 702.288C1268.45 712.511 1286.86 714.963 1304.53 719.838C1315.63 722.903 1326.89 725.151 1337.91 728.601C1348.03 731.794 1357.17 736.71 1366.55 741.369C1391.62 753.793 1417.73 756.023 1444.42 747.54C1464.78 741.089 1485.3 737.814 1506.56 741.935C1511.4 742.87 1516.17 744.131 1520.99 745.199" stroke="#FF6A39" stroke-width="13.9422" stroke-linecap="round" stroke-linejoin="round"></path></g></svg> 