<?xml version="1.0" encoding="UTF-8"?> <svg xmlns="http://www.w3.org/2000/svg" xmlns:xlink="http://www.w3.org/1999/xlink" id="Layer_1" data-name="Layer 1" version="1.1" viewBox="0 0 1440 714"><defs><style> .cls-1 { clip-path: url(#clippath); } .cls-1, .cls-2, .cls-3, .cls-4, .cls-5, .cls-6, .cls-7, .cls-8 { fill: none; } .cls-1, .cls-2, .cls-9 { stroke-width: 0px; } .cls-3 { stroke-width: 2px; } .cls-3, .cls-4, .cls-5, .cls-6, .cls-7, .cls-8 { stroke-linecap: round; stroke-linejoin: round; } .cls-3, .cls-5, .cls-7 { stroke: #cefd94; } .cls-10 { clip-path: url(#clippath-1); } .cls-4 { stroke: #0a91ab; stroke-width: 1px; } .cls-5 { stroke-width: 4px; } .cls-6 { stroke-width: 5px; } .cls-6, .cls-8 { stroke: #ff6a39; } .cls-7 { stroke-width: 2.5px; } .cls-8 { stroke-width: 10px; } .cls-9 { fill: #0c2233; } </style><clipPath id="clippath"><rect class="cls-2" y=".2" width="1440" height="713.1"></rect></clipPath><clipPath id="clippath-1"><rect class="cls-1" y=".2" width="1440" height="713.1"></rect></clipPath></defs><g class="cls-10"><rect class="cls-2" y=".2" width="1440" height="713.1"></rect><rect class="cls-9" y=".2" width="1440" height="713.1"></rect><path class="cls-5" d="M-189.8,688.1c10.1-11.3,23.3-21.6,38.8-30.8,25.4-15.1,51-29.8,75.6-45.9,16.6-10.9,31.2-23.1,44.3-36.5,23.7-24.2,37.3-48.5,45.1-72.9,6.1-18.8,14.6-37.9,25.8-57.1,4.8-8.2,11.3-16.6,14.2-24.7,4.9-13.8,2.5-24.9-3.6-34.5-6.3-10-15.7-18-28.4-23.1-10.9-4.3-23-7.7-40.8-2.4-2.5.7-4.8,1.7-7.1,2.7-19.9,8.5-39.9,16.9-59.6,26.3-6.2,2.9-12.2,6-18.2,9.3"></path><path class="cls-7" d="M-175.7,640.8c23.2-15.1,46.5-30,70.3-44.4,17-10.3,32.5-21.5,45.8-34.3,13-12.5,22.7-25.7,29.9-39.1,11.4-21.2,21.8-42.3,30-63.3,4.1-10.5,8.4-21.1,10.7-31.3,3.6-16.4-.7-29.3-12.7-38.1-11.5-8.4-29.7-6.1-50.5,2-21,8.2-40.3,19.5-59.1,31.7"></path><path class="cls-3" d="M-131.6,857c.3-1.1.5-2.2.8-3.3,3.9-15.3,10.2-31,19.7-46.9,4.6-7.8,10.7-15.5,17.5-23.1,13-14.4,22-28.9,28.8-43.7,5.9-12.7,17.5-24,31.2-34.6,13.1-10.1,26-20.4,37.3-31.5,3.7-3.6,7.6-7.5,10.8-11.4,7.7-9.6,17.2-18.7,26-28.1,7.4-7.8,15.1-15.5,22.8-23.2,8.9-9,17.8-18,27.2-26.8,5.1-4.8,9.9-10,14.7-15,10.7-11.1,20.1-22.5,28.8-34,16.7-21.8,27.1-43,25.2-62.6-.8-7.9-.1-16.2,4.7-25.8,3.9-7.8,10.2-14.8,17.2-21.6,6-5.9,11.8-11.9,17.5-17.8,11.4-11.9,22.7-23.9,34.7-35.6,6.7-6.6,14.4-12.5,20.8-19.3,7.4-7.8,10.9-15.2,11.3-22,.7-13.7,1.4-27.4,1-40.7-.2-8.5-2-16.1-10.4-20.1-4.6-2.2-10.3-3.1-16.1-3.9-10.7-1.5-21.4-3.1-32.4-4.2-10.2-1-20.4-2-30.9-2.7-7.5-.5-15.1-.9-22.5-1.6-6.7-.6-13.9-.6-20.3-1.6-18.4-2.9-33-9.6-47.4-16.5-25.7-12.5-48.9-27-73.2-40.6-10.9-6.1-21.3-12.6-33.2-17.9-5.4-2.4-11.1-4.3-17.2-5.8"></path><path class="cls-6" d="M-233.1,876.3c9.9-17.4,17-34.6,20.2-51.5,3.8-20.2,8.5-40.6,16.7-61.8,5.9-15.1,13.9-30.3,23.6-45.7,3.4-5.3,6.7-10.5,10.6-15.8,8.7-11.6,21.2-20.7,35.6-27.3,28.1-12.8,53.9-29.3,79.4-46,23.5-15.4,41.4-33.2,54.4-53,5.1-7.7,12.2-15.3,18.6-22.9,12.7-15.2,18.7-29.8,21.8-44.5,3.7-17.5,5.6-34.8,14.8-53.5,4.2-8.5,9.6-16.8,17.2-24.8,10.2-10.8,15.7-21.5,20-32.4,4.3-10.9,5.5-20.9,2.5-29.6-2.5-7.4-8.5-12.3-17-15.4-11.5-4.2-24.1-7.2-36-10.9-7.6-2.4-13.6-6.3-21.7-8.2-13.1-3-28.1-.4-44.7,6-26.3,10.2-52.4,21.1-78.5,32.7"></path><path class="cls-4" d="M-165.1,863.3c1.7-7.6,4-15.3,7.2-23.1,5.7-14.3,13.7-28.7,22.5-43.1,12-19.9,23.8-39.7,33.2-59.6,9.1-19.4,28.1-35.7,52.3-49,10.9-6,21-12.6,30.3-20.3,7.9-6.5,14.2-13.5,21.1-20.4,6.7-6.7,12.9-13.5,19.6-20.1,5.3-5.2,10.5-10.6,15.4-16,7.1-7.7,15-15.1,22.4-22.8,10-10.4,19.7-20.8,27.6-31.6,8.3-11.3,15.7-22.7,21.5-34.3,8.1-16.3,12.7-31.8,14.2-46.8,1.3-13.9,6.3-28.2,17.1-43.6,7.6-10.8,16.8-20.9,26.7-31.2,12.5-13.1,26.7-25.7,37-39.5,21.3-28.5,26.9-55.9,1-70.9-7.7-4.5-18.4-6.4-30.1-7-13.9-.7-27.7-1.4-41.8-1.7-23.7-.6-47.2-1.4-67.8-6.2-11.9-2.7-24.8-2.9-39.5-.4-9.7,1.7-19.7,4.9-29.5,7.6-16.1,4.3-19.9,1.9-15.5-10.3,2.2-6.1,4.4-12.3,6-18.3,3.2-11.6,1.4-20.7-5.8-27.9-8.2-8.2-16.4-16.5-25.5-24.1"></path><path class="cls-8" d="M-198.7,869.7c.6-2.6,1.2-5.2,1.7-7.8,2-10.8,8.3-22.7,14.1-34.3,9.6-19.4,19.2-38.7,29.2-58.1,5.2-10.1,9-20,14.2-30.1,13.6-26.5,37.4-49,70-67.2,24.9-13.9,47-29.9,67-47.7,9-8.1,16.8-16.9,24.7-25.5,10.5-11.5,21-23,30.5-34.8,19-23.8,30.6-46.8,32.9-69.3,1.1-10.5,1-20.7,5.4-32.1,2.5-6.6,6.8-13.1,10.7-19.6,7.7-12.9,16.5-25.9,27.4-38.5,4.8-5.6,9.8-11.2,14.4-16.7,15.5-18.7,27.6-37.4,27.5-55.1,0-10-6.3-16.2-16.8-19.8-12.6-4.3-29-2.7-44.2-3-9.6-.2-19.4.2-28.8-.2-8.6-.4-16-2.2-23.7-3.8-20.4-4.2-43.9-1.2-70.2,9.3-20,8-39.5,13.8-58.1,14.7-4.3.2-8.4.2-12.6.3"></path></g><metadata></metadata></svg> 