<?xml version="1.0" encoding="UTF-8"?> <svg xmlns="http://www.w3.org/2000/svg" width="182" height="32" viewBox="0 0 182 32" fill="none"><path fill-rule="evenodd" clip-rule="evenodd" d="M14.6012 3.70784C14.9412 3.06784 15.6065 2.6665 16.3318 2.6665C17.0572 2.6665 17.7225 3.06784 18.0625 3.70784L21.3465 9.90117C21.3838 9.97317 21.4385 10.0345 21.5038 10.0825C21.5692 10.1305 21.6452 10.1625 21.7252 10.1758L28.6292 11.3852C29.3438 11.5105 29.9292 12.0198 30.1545 12.7092C30.3785 13.3985 30.2038 14.1558 29.6985 14.6772L24.8238 19.7145C24.7678 19.7732 24.7252 19.8438 24.6998 19.9198C24.6745 19.9972 24.6678 20.0785 24.6785 20.1598L25.6612 27.0998C25.7625 27.8172 25.4598 28.5332 24.8732 28.9598C24.2865 29.3865 23.5132 29.4532 22.8612 29.1345L16.5652 26.0545C16.4932 26.0185 16.4132 25.9998 16.3318 25.9998C16.2505 25.9998 16.1705 26.0185 16.0972 26.0532L9.80117 29.1332C9.14917 29.4518 8.37583 29.3838 7.78917 28.9585C7.2025 28.5318 6.89983 27.8172 7.00117 27.0985L7.98383 20.1585C7.99583 20.0785 7.98783 19.9958 7.9625 19.9185C7.93717 19.8412 7.89583 19.7705 7.8385 19.7132L2.96383 14.6758C2.45983 14.1545 2.28383 13.3972 2.50783 12.7078C2.73183 12.0185 3.3185 11.5092 4.03317 11.3838L10.9372 10.1745C11.0172 10.1598 11.0932 10.1278 11.1585 10.0812C11.2238 10.0332 11.2785 9.97184 11.3158 9.89984L14.6012 3.70784Z" fill="#CEFD94"></path><path fill-rule="evenodd" clip-rule="evenodd" d="M51.9351 3.70784C52.2751 3.06784 52.9405 2.6665 53.6658 2.6665C54.3911 2.6665 55.0565 3.06784 55.3965 3.70784L58.6805 9.90117C58.7178 9.97317 58.7725 10.0345 58.8378 10.0825C58.9031 10.1305 58.9791 10.1625 59.0591 10.1758L65.9631 11.3852C66.6778 11.5105 67.2631 12.0198 67.4885 12.7092C67.7125 13.3985 67.5378 14.1558 67.0325 14.6772L62.1578 19.7145C62.1018 19.7732 62.0591 19.8438 62.0338 19.9198C62.0085 19.9972 62.0018 20.0785 62.0125 20.1598L62.9951 27.0998C63.0965 27.8172 62.7938 28.5332 62.2071 28.9598C61.6205 29.3865 60.8471 29.4532 60.1951 29.1345L53.8991 26.0545C53.8272 26.0185 53.7471 25.9998 53.6658 25.9998C53.5845 25.9998 53.5045 26.0185 53.4312 26.0532L47.1352 29.1332C46.4832 29.4518 45.7098 29.3838 45.1232 28.9585C44.5365 28.5318 44.2338 27.8172 44.3352 27.0985L45.3178 20.1585C45.3298 20.0785 45.3218 19.9958 45.2965 19.9185C45.2712 19.8412 45.2298 19.7705 45.1725 19.7132L40.2978 14.6758C39.7938 14.1545 39.6178 13.3972 39.8418 12.7078C40.0658 12.0185 40.6525 11.5092 41.3672 11.3838L48.2711 10.1745C48.3512 10.1598 48.4271 10.1278 48.4925 10.0812C48.5578 10.0332 48.6125 9.97184 48.6498 9.89984L51.9351 3.70784Z" fill="#CEFD94"></path><path fill-rule="evenodd" clip-rule="evenodd" d="M89.2672 3.70784C89.6072 3.06784 90.2725 2.6665 90.9978 2.6665C91.7232 2.6665 92.3885 3.06784 92.7285 3.70784L96.0125 9.90117C96.0498 9.97317 96.1045 10.0345 96.1698 10.0825C96.2352 10.1305 96.3112 10.1625 96.3912 10.1758L103.295 11.3852C104.01 11.5105 104.595 12.0198 104.821 12.7092C105.045 13.3985 104.87 14.1558 104.365 14.6772L99.4898 19.7145C99.4338 19.7732 99.3912 19.8438 99.3658 19.9198C99.3405 19.9972 99.3338 20.0785 99.3445 20.1598L100.327 27.0998C100.429 27.8172 100.126 28.5332 99.5392 28.9598C98.9525 29.3865 98.1792 29.4532 97.5272 29.1345L91.2312 26.0545C91.1592 26.0185 91.0792 25.9998 90.9978 25.9998C90.9165 25.9998 90.8365 26.0185 90.7632 26.0532L84.4672 29.1332C83.8152 29.4518 83.0418 29.3838 82.4552 28.9585C81.8685 28.5318 81.5658 27.8172 81.6672 27.0985L82.6498 20.1585C82.6618 20.0785 82.6538 19.9958 82.6285 19.9185C82.6032 19.8412 82.5618 19.7705 82.5045 19.7132L77.6298 14.6758C77.1258 14.1545 76.9498 13.3972 77.1738 12.7078C77.3978 12.0185 77.9845 11.5092 78.6992 11.3838L85.6032 10.1745C85.6832 10.1598 85.7592 10.1278 85.8245 10.0812C85.8898 10.0332 85.9445 9.97184 85.9818 9.89984L89.2672 3.70784Z" fill="#CEFD94"></path><path fill-rule="evenodd" clip-rule="evenodd" d="M126.601 3.70784C126.941 3.06784 127.606 2.6665 128.332 2.6665C129.057 2.6665 129.722 3.06784 130.062 3.70784L133.346 9.90117C133.384 9.97317 133.438 10.0345 133.504 10.0825C133.569 10.1305 133.645 10.1625 133.725 10.1758L140.629 11.3852C141.344 11.5105 141.929 12.0198 142.154 12.7092C142.378 13.3985 142.204 14.1558 141.698 14.6772L136.824 19.7145C136.768 19.7732 136.725 19.8438 136.7 19.9198C136.674 19.9972 136.668 20.0785 136.678 20.1598L137.661 27.0998C137.762 27.8172 137.46 28.5332 136.873 28.9598C136.286 29.3865 135.513 29.4532 134.861 29.1345L128.565 26.0545C128.493 26.0185 128.413 25.9998 128.332 25.9998C128.25 25.9998 128.17 26.0185 128.097 26.0532L121.801 29.1332C121.149 29.4518 120.376 29.3838 119.789 28.9585C119.202 28.5318 118.9 27.8172 119.001 27.0985L119.984 20.1585C119.996 20.0785 119.988 19.9958 119.962 19.9185C119.937 19.8412 119.896 19.7705 119.838 19.7132L114.964 14.6758C114.46 14.1545 114.284 13.3972 114.508 12.7078C114.732 12.0185 115.318 11.5092 116.033 11.3838L122.937 10.1745C123.017 10.1598 123.093 10.1278 123.158 10.0812C123.224 10.0332 123.278 9.97184 123.316 9.89984L126.601 3.70784Z" fill="#CEFD94"></path><path fill-rule="evenodd" clip-rule="evenodd" d="M163.935 3.70784C164.275 3.06784 164.94 2.6665 165.666 2.6665C166.391 2.6665 167.056 3.06784 167.396 3.70784L170.68 9.90117C170.718 9.97317 170.772 10.0345 170.838 10.0825C170.903 10.1305 170.979 10.1625 171.059 10.1758L177.963 11.3852C178.678 11.5105 179.263 12.0198 179.488 12.7092C179.712 13.3985 179.538 14.1558 179.032 14.6772L174.158 19.7145C174.102 19.7732 174.059 19.8438 174.034 19.9198C174.008 19.9972 174.002 20.0785 174.012 20.1598L174.995 27.0998C175.096 27.8172 174.794 28.5332 174.207 28.9598C173.62 29.3865 172.847 29.4532 172.195 29.1345L165.899 26.0545C165.827 26.0185 165.747 25.9998 165.666 25.9998C165.584 25.9998 165.504 26.0185 165.431 26.0532L159.135 29.1332C158.483 29.4518 157.71 29.3838 157.123 28.9585C156.536 28.5318 156.234 27.8172 156.335 27.0985L157.318 20.1585C157.33 20.0785 157.322 19.9958 157.296 19.9185C157.271 19.8412 157.23 19.7705 157.172 19.7132L152.298 14.6758C151.794 14.1545 151.618 13.3972 151.842 12.7078C152.066 12.0185 152.652 11.5092 153.367 11.3838L160.271 10.1745C160.351 10.1598 160.427 10.1278 160.492 10.0812C160.558 10.0332 160.612 9.97184 160.65 9.89984L163.935 3.70784Z" fill="#CEFD94"></path></svg> 