<?xml version="1.0" encoding="UTF-8"?> <svg xmlns="http://www.w3.org/2000/svg" width="24" height="24" viewBox="0 0 24 24" fill="none"><path d="M15.1008 20.7C14.1008 21 13.1008 21.2 12.0008 21.2C6.90078 21.2 2.80078 17.1 2.80078 11.9C2.80078 6.79995 6.90078 2.69995 12.1008 2.69995C17.2008 2.69995 21.3008 6.79995 21.3008 12C21.3008 12.6 21.3008 13 21.3008 13C21.3008 14.7 19.9008 16.1 18.2008 16.1C16.5008 16.1 15.1008 14.7 15.1008 13V8.89995" stroke="#76B39D" stroke-width="1.5" stroke-linecap="round" stroke-linejoin="round"></path><path d="M12.0004 15.1C10.2004 15.1 8.90039 13.7 8.90039 12.1V12C8.90039 10.3 10.3004 9 11.9004 9H12.0004C13.7004 9 15.0004 10.4 15.0004 12C15.1004 13.7 13.7004 15.1 12.0004 15.1Z" stroke="#76B39D" stroke-width="1.5" stroke-linecap="round" stroke-linejoin="round"></path></svg> 