<svg width="1440" height="783" viewBox="0 0 1440 783" fill="none" xmlns="http://www.w3.org/2000/svg">
<mask id="mask0_2521_5071" style="mask-type:alpha" maskUnits="userSpaceOnUse" x="0" y="0" width="1440" height="783">
<mask id="mask1_2521_5071" style="mask-type:alpha" maskUnits="userSpaceOnUse" x="0" y="0" width="1440" height="783">
<rect width="1440" height="783" fill="#0C2233"/>
</mask>
<g mask="url(#mask1_2521_5071)">
<rect width="1440" height="783" fill="#0C2233"/>
</g>
</mask>
<g mask="url(#mask0_2521_5071)">
<mask id="mask2_2521_5071" style="mask-type:alpha" maskUnits="userSpaceOnUse" x="0" y="0" width="1440" height="783">
<rect width="1440" height="783" fill="#0C2233"/>
</mask>
<g mask="url(#mask2_2521_5071)">
<rect width="1440" height="783" fill="#0C2233"/>
</g>
<path d="M1455.36 35C1424.25 70.3763 1385.81 94.8455 1345.06 115.521C1322.59 126.914 1298.56 134.565 1276.54 147.189C1261.62 155.767 1247.46 165.547 1237.18 180.78C1226.6 196.425 1222.86 213.032 1228.87 231.864C1238.63 262.331 1245.39 293.896 1256.09 324.019C1264.96 349.032 1275.06 373.461 1284.72 398.125C1299.51 435.933 1314.48 473.673 1324.83 513.335C1332 540.849 1334.81 568.952 1332.85 597.289C1331.47 617.118 1325.83 636.334 1321.81 655.75C1315.96 683.71 1310.29 711.744 1304.41 739.704C1297.84 770.961 1291.82 802.388 1285.06 833.61C1281.22 851.35 1276.35 869.049 1274.55 887.098C1271.56 916.775 1277.61 944.466 1296.14 967.727C1314.73 991.092 1330.18 997.885 1356.89 1004.75C1375.58 1009.55 1394.45 1012.33 1413.55 1013.56C1427.61 1014.46 1439.63 1009.45 1449.1 997.267C1463.73 978.428 1482.36 965.564 1503.41 956.918C1512.14 953.318 1522.94 951.161 1534.06 949.593" stroke="#CEFD94" stroke-width="1.95526" stroke-linecap="round" stroke-linejoin="round"/>
<path d="M1510.54 35C1506.92 40.1159 1503.22 45.1745 1499.45 50.1931C1473.56 84.6424 1442.98 112.843 1408.62 136.379C1380.4 155.698 1350.69 171.75 1319.7 185.341C1305.67 191.481 1292.93 201.02 1288.68 218.794C1285.72 231.178 1287.04 243.738 1289.59 255.778C1298.27 296.849 1309.03 337.364 1322.84 376.717C1335.4 412.5 1349.97 447.361 1366.14 481.501C1376.28 502.874 1382.37 525.965 1384.96 550.428C1387.54 574.926 1383.51 598.085 1378.35 621.244C1372.18 649.032 1363.47 676.242 1359.09 704.443C1355.38 728.322 1354.47 752.683 1356.05 776.837C1358.31 811.699 1363.91 846.074 1372.65 879.699C1376.09 892.941 1381.15 905.845 1391.34 915.138C1401.29 924.197 1412.04 927.315 1425.35 924.574C1440.86 921.415 1454.93 913.627 1470.5 910.611C1483.34 908.139 1496.11 904.986 1509.08 902.755C1517.41 901.324 1525.74 899.945 1534.06 898.491" stroke="#FF6A39" stroke-width="9.77632" stroke-linecap="round" stroke-linejoin="round"/>
<path d="M1533.71 35C1527.63 44.6023 1521.15 53.9414 1514.24 62.9943C1490.3 94.3877 1462.2 121.152 1432.13 145.472C1404.57 167.773 1375.34 187.332 1346.74 207.916C1337.58 214.502 1329.21 221.741 1324.12 232.688C1318.58 244.591 1319.52 257.632 1321.47 269.673C1325.68 295.99 1331.13 322.13 1337.64 347.967C1349.47 394.869 1365.9 439.573 1388.99 481.329C1398.5 498.554 1404.6 517.078 1407.36 537.221C1411.89 570.297 1406.64 601.93 1396.42 632.671C1388.71 655.865 1382.51 679.401 1378.67 703.556C1375.68 722.291 1375.05 741.467 1377.19 760.305C1381.06 794.343 1390.34 826.451 1408.62 855.069C1417.09 868.277 1427.94 874.623 1442.7 874.898C1461.42 875.207 1480.11 874.245 1498.54 871.258C1510.53 869.313 1522.38 866.84 1534.07 863.67" stroke="#FF6A39" stroke-width="4.88816" stroke-linecap="round" stroke-linejoin="round"/>
<path d="M1534.06 76.2988C1518.95 96.3732 1502.37 115.114 1484.79 132.946C1464.78 153.255 1442.75 171.132 1421.55 189.97C1403.96 205.615 1385.71 220.711 1373.98 242.634C1367.62 254.502 1364.95 267.578 1363.06 281.232C1360.73 298.182 1361.74 314.891 1363.57 331.464C1367.53 367.074 1377.53 400.768 1392.64 432.814C1403.02 454.874 1415.51 475.464 1426.87 496.871C1438.29 518.416 1443.64 541.472 1441.69 566.073C1440.02 586.76 1431.87 605.564 1424.61 624.568C1415.67 647.899 1406.76 671.298 1401.92 696.139C1394.75 732.677 1397.05 767.538 1417.75 799.035C1430.11 817.873 1447.04 828.917 1467.58 833.587C1492.5 839.212 1514.16 831.475 1534.07 817.913" stroke="#CEFD94" stroke-width="3.91053" stroke-miterlimit="10"/>
<path d="M1534.06 100.058C1519.99 116.756 1505.07 132.618 1489.7 148.115C1471.1 166.816 1452.19 185.133 1433.47 203.663C1419.38 217.591 1406.42 232.275 1396.82 250.083C1389.4 263.943 1385.05 279.245 1383.07 295.268C1377.97 336.716 1388.83 374.868 1403.55 412.126C1412.55 434.873 1424.66 455.663 1438.13 475.6C1449.55 492.516 1458.7 510.559 1463.36 531.457C1468.67 555.268 1465.5 577.328 1456.31 599.011C1451.44 610.576 1444.42 620.762 1438.94 631.949C1426.48 657.34 1418.68 684.579 1413.33 712.613C1406.69 747.572 1425.73 790.599 1454.83 806.381C1479.18 819.589 1504.64 814.204 1524.96 795.64C1528.16 792.722 1531.17 789.643 1534.05 786.439" stroke="#CEFD94" stroke-width="2.44408" stroke-linecap="round" stroke-linejoin="round"/>
<path d="M1534.06 127.709C1509.25 154.822 1483.56 180.979 1458.42 207.778C1447.45 219.514 1435.58 230.25 1426.96 244.247C1414.88 263.869 1408.02 285.454 1405.5 309.197C1402.07 341.826 1411.54 370.885 1423.06 399.772C1434.54 428.59 1452.73 452.608 1469.09 477.998C1481.83 497.758 1492.09 518.931 1498.66 542.124C1500.74 549.432 1500.84 565.249 1500.84 565.249C1501.69 587.515 1491.24 604.259 1478.15 619.526C1468.14 631.194 1456.72 641.449 1449.48 655.755C1438.78 676.888 1431.08 699.12 1429.22 723.275C1427.24 749.18 1445.99 780.642 1468.33 786.061C1487.3 790.657 1503.66 783.795 1515.96 768.596C1523.57 759.194 1529.25 748.734 1534.06 737.775" stroke="#FFFEFB" stroke-width="0.977632" stroke-linecap="round" stroke-linejoin="round"/>
<path d="M1481.43 35C1480.68 35.9385 1479.92 36.877 1479.15 37.8097C1451.56 71.4349 1418.27 96.5794 1383 118.954C1360.5 133.226 1336.19 143.212 1311.52 152.511C1295.06 158.72 1279.02 167.778 1265.48 180.265C1256.93 188.19 1252.11 198.931 1251.52 212.105C1250.6 232.482 1256.14 251.527 1261.02 270.497C1272.47 314.754 1287.19 357.884 1304.72 399.704C1318.37 432.334 1331.99 464.963 1345.11 497.827C1350.71 511.824 1354.14 526.714 1356.19 542.119C1358.43 558.966 1358.26 575.71 1357.13 592.351C1355.93 609.85 1352.41 627.247 1348.17 644.156C1342.44 666.972 1338.07 689.993 1334.6 713.324C1331.08 737.101 1329 760.981 1326.96 784.929C1324.51 813.747 1323.34 842.571 1324.41 871.355C1325.54 901.891 1333.73 930.331 1353.8 952.672C1368.49 969.004 1387.21 977.341 1407.91 982.005C1427.01 986.325 1440.61 977.685 1454.1 965.295C1474.65 946.457 1498.68 935.893 1524.95 930.474C1527.97 929.845 1531.01 929.307 1534.05 928.82" stroke="#0A91AB" stroke-width="0.977632" stroke-linecap="round" stroke-linejoin="round"/>
<path d="M1534.06 166.714C1533.26 167.538 1532.47 168.362 1531.66 169.18C1512.41 188.803 1490.83 205.684 1472.92 226.96C1459.14 243.361 1444.61 259.177 1438.09 281.238C1432.27 300.997 1432.18 320.866 1434.13 341.381C1437.28 374.285 1452.85 400.597 1470 426.022C1489.99 455.71 1511.79 483.847 1534.06 511.573" stroke="#CEFD94" stroke-width="1.95526" stroke-linecap="round" stroke-linejoin="round"/>
</g>
</svg>
