<?xml version="1.0" encoding="UTF-8"?> <svg xmlns="http://www.w3.org/2000/svg" width="58" height="58" viewBox="0 0 58 58" fill="none"><path d="M51.3538 21.0733C51.3538 23.8766 50.2905 26.7041 48.1397 28.8549L44.563 32.4316L29.1688 47.8257C29.0963 47.8982 29.0722 47.9224 28.9997 47.9708C28.9272 47.9224 28.903 47.8982 28.8305 47.8257L9.85968 28.8549C7.70885 26.7041 6.64551 23.9008 6.64551 21.0733C6.64551 18.2458 7.70885 15.4183 9.85968 13.2675C14.1613 8.98995 21.1213 8.98995 25.423 13.2675L28.9755 16.8441L32.5522 13.2675C36.8538 8.98995 43.7897 8.98995 48.0913 13.2675C50.2905 15.4183 51.3538 18.2216 51.3538 21.0733Z" stroke="#FFFEFB" stroke-width="3" stroke-linecap="round" stroke-linejoin="round"></path></svg> 