<?xml version="1.0" encoding="UTF-8"?> <svg xmlns="http://www.w3.org/2000/svg" width="64" height="64" viewBox="0 0 64 64" fill="none"><path d="M56.6666 30.3736V48.267C56.6666 52.907 53.0932 56.667 48.6666 56.667H15.3333C10.9066 56.667 7.33325 52.907 7.33325 48.267V30.3736C7.33325 27.867 8.37326 25.5203 10.2133 23.9203L26.8799 9.28031C29.8399 6.66698 34.1599 6.66698 37.1199 9.28031L53.7866 23.9203C55.6266 25.5203 56.6666 27.867 56.6666 30.3736Z" stroke="#0C2233" stroke-width="3" stroke-linecap="round" stroke-linejoin="round"></path><path d="M44.1867 26.2133C40.9867 23.04 35.8133 23.04 32.6133 26.2133L32 26.8L31.4133 26.1866C28.2133 23.0133 23.0133 23.0133 19.8133 26.1866C18.2667 27.7333 17.4133 29.7866 17.4133 32C17.4133 34.1866 18.2667 36.24 19.8133 37.7866L30.4533 48.4267C30.56 48.5333 30.7467 48.6933 30.88 48.7733C31.2267 48.9866 31.6 49.12 32 49.12C32.4 49.12 32.7733 49.0133 33.12 48.7733C33.2267 48.6933 33.4133 48.5333 33.52 48.4533L44.1867 37.7866C45.7333 36.24 46.5867 34.1866 46.5867 32C46.5867 29.8133 45.7333 27.76 44.1867 26.2133Z" stroke="#0C2233" stroke-width="3" stroke-linecap="round" stroke-linejoin="round"></path></svg> 