<svg xmlns="http://www.w3.org/2000/svg" width="1440" height="1076" fill="none"><mask id="a" width="1440" height="1076" x="0" y="0" maskUnits="userSpaceOnUse" style="mask-type:alpha"><path fill="#0C2233" d="M0 0h1440v1076H0z"/></mask><g mask="url(#a)"><path fill="#0C2233" d="M0 0h1440v1076H0z"/><path stroke="#CEFD94" stroke-linecap="round" stroke-linejoin="round" stroke-width="3.004" d="M1346.67-240.471c14.11 35.034 24.5 71.302 34.42 107.806 11.45 42.251 18.8 84.908 23.01 128.315 1.07 10.925-2.38 21.295-.96 32.196 2.19 16.897-1.38 33.68-3.27 50.457-3.9 34.265-13.77 67.21-25.14 99.452-26.96 76.304-67.13 143.824-133.94 192.705-17.15 12.571-31.92 27.305-43.21 46.034-12.96 21.466-33.02 30.757-59.13 28.609-17.38-1.436-34.56-4.866-51.97-5.018-44.79-.41-88.388 7.592-131.179 20.419-22.106 6.64-36.612 19.435-40.488 43.395-1.48 9.419-2.661 18.931-4.615 28.324-3.377 16.245 1.344 23.768 17.312 28.095 8.066 2.161 17.614 2.177 22.913 9.598 15.574 21.701 37.231 26.732 61.837 23.288 20.4-2.851 37.8 4.404 49.8 19.198 18.19 22.505 18.84 40.614-4.03 56.968-14.4 10.283-29.19 19.895-46.88 24.938-14.65 4.188-29.942 6.907-43.76 13.893-16.065 8.069-23.192 24.004-18.28 39.02 3.87 11.768 13.739 13.86 23.632 16.409 32.298 8.23 60.388 24.149 84.318 47.113 33.86 32.5 45.11 80.699 17.2 124.365-10.62 16.65-23.82 31.496-35.49 47.403-32.06 43.749-66.354 85.689-103.065 125.599"/><path stroke="#FF6A39" stroke-linecap="round" stroke-linejoin="round" stroke-width="15.02" d="M1508.09-251.431c-.69 4.624-1.14 9.298-1.23 14.037-.7 31.884 8.89 61.055 23.94 89.191 16.11 30.04 21.21 62.328 14.53 96.62-5.03 25.85-13.32 50.59-21.56 75.394-16.64 49.896-37.45 98.291-54.62 147.94-26.67 77.153-63.45 148.099-117.92 209.432-17.66 19.883-36.51 38.807-51.52 60.884-30.3 44.355-52.66 92.223-67.04 144.223-6.25 22.562-16.63 44.197-34.15 61.391-8.48 8.405-14.43 18.781-20.61 29.114-26.09 43.762-21.51 90.051-12.08 136.46 5.74 28.282 8.56 56.361 4.31 84.892-6.77 45.413-25.94 85.831-51.04 123.823-18.16 27.45-38.74 52.94-60.01 77.89"/><path stroke="#FF6A39" stroke-linecap="round" stroke-linejoin="round" stroke-width="7.51" d="M1559.59 238.956c-18.48 15.89-35.08 33.792-51.51 51.643-26.68 28.963-54.29 57.13-79.23 87.715-32.37 39.734-65.87 78.497-97.31 118.921-26.12 33.58-40.76 73.157-52.11 113.827-4.88 17.342-12.96 32.82-22.95 47.849-21.23 31.896-34.04 66.858-36.45 105.727-.7 11.337-.67 22.456.25 33.565 9.19 109.255-19.34 207.777-83.64 296.127"/><path stroke="#CEFD94" stroke-linecap="round" stroke-linejoin="round" stroke-width="6.008" d="M1527.5 434.983c-8.71 7.739-18.62 14.116-27.52 21.591-41.85 35.055-84.26 69.393-118.93 112.02-51.25 63.077-86.04 133.422-96.57 214.951-3.97 30.836-5.16 61.473-4.63 92.513.73 43.714-9 85.903-22.63 127.322-9.56 29.08-22.21 56.61-36.65 83.26"/><path stroke="#CEFD94" stroke-linecap="round" stroke-linejoin="round" stroke-width="3.755" d="M1476.9 586.574c-1.79 1.192-3.55 2.413-5.11 3.806-45.13 40.233-83.61 85.704-106.53 142.101-15.25 37.52-23.63 77.52-27.97 117.75-8.48 79.274-25.7 156.019-54.2 229.719"/><path stroke="#0A91AB" stroke-linecap="round" stroke-linejoin="round" stroke-width="1.502" d="M1428.37-244.234c21.32 146.637 41.71 301.761-14.21 438.583-51.47 125.945-159.65 216.807-253.16 314.787-10.13 10.623-20.26 21.568-27.01 34.671-18.94 36.832-7.61 82.332-18.47 122.389-5.25 19.356-15.67 37.364-17.64 57.348-2.73 27.74 11.13 54.026 18.22 80.975 14.99 56.976-.95 118.604-30.45 169.344-29.5 50.737-71.58 92.537-113.146 133.697"/></g></svg>