<?xml version="1.0" encoding="UTF-8"?> <svg xmlns="http://www.w3.org/2000/svg" width="128" height="64" viewBox="0 0 128 64" fill="none"><g clip-path="url(#clip0_5113_112157)"><path fill-rule="evenodd" clip-rule="evenodd" d="M34.1287 8.17207C33.558 8.16825 32.9924 8.27829 32.4652 8.49563C31.938 8.71296 31.4599 9.03317 31.0592 9.43744C30.6583 9.84169 30.3431 10.3218 30.1319 10.8493C29.9207 11.3768 29.8178 11.9412 29.8293 12.5089C29.9012 13.5991 30.387 14.6212 31.1883 15.368C31.9895 16.1148 33.0462 16.5304 34.144 16.5304C35.242 16.5304 36.2987 16.1148 37.0999 15.368C37.9012 14.6212 38.387 13.5991 38.4588 12.5089C38.467 11.9394 38.3609 11.3741 38.1465 10.8461C37.9323 10.318 37.614 9.83783 37.2107 9.43383C36.8073 9.02985 36.3268 8.71013 35.7975 8.49346C35.2683 8.27678 34.701 8.1675 34.1287 8.17207ZM30.7868 45.6882H37.554V20.6876H30.7868V45.6882ZM56.3292 20.0146C52.8793 20.0146 50.461 21.41 48.8332 23.4476V20.6814H42.2238V56H48.966V43.091C50.5968 45.0274 52.9812 46.3429 56.357 46.3429C63.2724 46.3429 68.5106 40.6905 68.5106 33.1849C68.5106 25.6791 63.2724 20.0146 56.3292 20.0146ZM55.0937 40.0635C51.2578 40.0635 48.6388 37.1191 48.6388 33.1756C48.6388 29.2322 51.2578 26.2846 55.0937 26.2846C59.0873 26.2846 61.5797 29.3582 61.5797 33.1756C61.5797 36.9931 59.075 40.0635 55.0814 40.0635H55.0937ZM12.7589 19.8609C10.7154 19.861 8.70221 20.3524 6.8906 21.2932V8H0V45.6912H6.85659V32.5364C6.85659 30.9851 7.47582 29.4972 8.57808 28.4004C9.68034 27.3035 11.1753 26.6873 12.7341 26.6873C14.293 26.6873 15.7879 27.3035 16.8902 28.4004C17.9925 29.4972 18.6117 30.9851 18.6117 32.5364V45.6912H25.4713V32.4994C25.4631 29.1458 24.1191 25.9321 21.7339 23.5628C19.3484 21.1938 16.1166 19.8625 12.7465 19.8609H12.7589ZM114.2 20.0146C111.585 20.0146 109.028 20.7863 106.854 22.2322C104.679 23.6779 102.985 25.7328 101.984 28.1372C100.983 30.5415 100.721 33.1872 101.232 35.7396C101.742 38.2919 103.001 40.6364 104.85 42.4766C106.699 44.3168 109.055 45.57 111.62 46.0777C114.185 46.5854 116.843 46.3248 119.26 45.3289C121.676 44.333 123.741 42.6466 125.193 40.4827C126.646 38.3189 127.422 35.7749 127.422 33.1726C127.422 31.4436 127.079 29.7316 126.414 28.1344C125.749 26.5372 124.774 25.086 123.545 23.8642C122.316 22.6421 120.857 21.6732 119.251 21.0126C117.645 20.3521 115.925 20.0129 114.187 20.0146H114.2ZM114.2 39.8053C112.881 39.806 111.592 39.4174 110.496 38.6891C109.399 37.9605 108.545 36.9248 108.04 35.7129C107.535 34.501 107.402 33.1673 107.659 31.8805C107.916 30.5936 108.55 29.4114 109.482 28.4836C110.415 27.5556 111.602 26.9236 112.895 26.6676C114.188 26.4114 115.528 26.5424 116.746 27.0444C117.965 27.5463 119.006 28.3964 119.738 29.4873C120.471 30.5781 120.862 31.8606 120.862 33.1726C120.862 34.0444 120.689 34.9076 120.353 35.7129C120.018 36.5182 119.526 37.25 118.906 37.866C118.286 38.482 117.55 38.9703 116.741 39.3031C115.931 39.6359 115.063 39.8066 114.187 39.8053H114.2ZM86.0381 20.0146C82.5913 20.0146 80.1698 21.41 78.5452 23.4476V20.6814H71.9356V56H78.675V43.091C80.3088 45.0274 82.6901 46.3429 86.066 46.3429C92.9842 46.3429 98.2226 40.6905 98.2226 33.1849C98.2226 25.6791 92.9657 20.0146 86.0258 20.0146H86.0381ZM84.8027 40.0635C80.9668 40.0635 78.3476 37.1191 78.3476 33.1756C78.3476 29.2322 80.9668 26.2846 84.8027 26.2846C88.7963 26.2846 91.2887 29.3582 91.2887 33.1756C91.2887 36.9931 88.7746 40.0635 84.781 40.0635H84.8027Z" fill="#FFFEFB"></path></g><defs><clipPath id="clip0_5113_112157"><rect width="127.422" height="64" fill="white"></rect></clipPath></defs></svg> 