<svg xmlns="http://www.w3.org/2000/svg" width="1025" height="392" fill="none"><path fill="#CEFD94" d="M777.872 310.413h212.812c18.206 0 32.966-14.758 32.966-32.963s-14.76-32.963-32.966-32.963H777.872c-18.205 0-32.963 14.758-32.963 32.963s14.758 32.963 32.963 32.963"/><path fill="#0A91AB" d="M755.019 229.008H967.74c18.23 0 33.01-14.778 33.01-33.008s-14.78-33.009-33.01-33.009H755.019c-18.23 0-33.009 14.779-33.009 33.009s14.779 33.008 33.009 33.008M777.917 392h212.721c18.232 0 33.012-14.778 33.012-33.008s-14.78-33.009-33.012-33.009H777.917c-18.23 0-33.008 14.778-33.008 33.009 0 18.23 14.778 33.008 33.008 33.008"/><path fill="#CEFD94" d="M690.362 147.513h212.721c18.23 0 33.009-14.779 33.009-33.009s-14.779-33.008-33.009-33.008H690.362c-18.23 0-33.008 14.778-33.008 33.008s14.778 33.009 33.008 33.009M245.775 310.413H32.963C14.758 310.413 0 295.655 0 277.45s14.758-32.963 32.963-32.963h212.812c18.205 0 32.963 14.758 32.963 32.963s-14.758 32.963-32.963 32.963"/><path fill="#0A91AB" d="M268.63 229.008H55.909C37.679 229.008 22.9 214.23 22.9 196s14.779-33.009 33.009-33.009H268.63c18.23 0 33.008 14.779 33.008 33.009s-14.778 33.008-33.008 33.008M245.729 392H33.009C14.778 392 0 377.221 0 358.991s14.778-33.008 33.008-33.008H245.73c18.23 0 33.009 14.778 33.009 33.008S263.959 392 245.729 392"/><path fill="#CEFD94" d="M332.614 147.513H119.893c-18.23 0-33.008-14.779-33.008-33.009s14.778-33.008 33.008-33.008h212.721c18.23 0 33.009 14.778 33.009 33.008s-14.779 33.009-33.009 33.009"/><path fill="#0A91AB" d="M668.803 66.005H354.944c-18.227 0-33.003-14.776-33.003-33.003C321.941 14.776 336.717 0 354.944 0h313.859c18.227 0 33.002 14.776 33.002 33.002s-14.775 33.003-33.002 33.003"/><path fill="#0C2233" d="M511.873 92.946c113.86 0 206.162 92.301 206.162 206.162v92.206H305.711v-92.206c0-113.861 92.302-206.163 206.162-206.163"/><path fill="#FFFEFB" d="M840.012 202.288q-1.547-.021-2.606-.36-1.06-.36-1.738-.975a4.5 4.5 0 0 1-1.017-1.398 6 6 0 0 1-.445-1.653l2.988-.594q.148.763.551 1.293.424.53 1.059.805.636.255 1.42.254.954 0 1.462-.317.53-.318.53-.933a.93.93 0 0 0-.275-.678q-.255-.297-.89-.508-.615-.213-1.759-.382-1.76-.276-2.776-.826-.996-.552-1.441-1.356a3.9 3.9 0 0 1-.424-1.823q0-1.78 1.271-2.818 1.272-1.038 3.772-1.039 1.76 0 2.861.551t1.695 1.463q.615.91.827 2.076l-3.009.615q-.17-.721-.488-1.187a1.82 1.82 0 0 0-.784-.72q-.487-.234-1.271-.234-.869 0-1.335.34a1.06 1.06 0 0 0-.445.89q0 .339.191.614.19.275.826.509.657.232 1.992.445 1.356.212 2.225.614.89.381 1.399.911.53.509.741 1.145.212.614.212 1.292 0 1.209-.572 2.119-.551.89-1.717 1.378t-3.03.487m16.085-5.382q0 2.543-.953 3.962-.954 1.42-2.776 1.42a3.6 3.6 0 0 1-1.335-.233 2.6 2.6 0 0 1-1.017-.699q-.424-.487-.721-1.251-.276-.783-.403-1.843l.128-1.229q0 .826.233 1.42.254.593.741.911.488.318 1.145.318 1.08 0 1.589-.721.509-.741.509-2.034 0-1.272-.509-1.95-.488-.699-1.589-.699-.657 0-1.145.297a1.87 1.87 0 0 0-.741.869q-.233.572-.233 1.398l-.128-1.144q.17-1.441.615-2.331.466-.89 1.187-1.293.741-.402 1.737-.402 1.822 0 2.734 1.398.932 1.377.932 3.836m-7.077-4.959v12.926h-2.904v-12.926zm-.318 3.348v-.635h.487l-.021.635zm-.021 3.984v-.572h.508l.021.572zm12.944 2.988q-1.506 0-2.671-.572a4.2 4.2 0 0 1-1.822-1.717q-.657-1.144-.657-2.797 0-1.737.615-2.966a4.33 4.33 0 0 1 1.78-1.886q1.165-.657 2.797-.657 1.547 0 2.564.614a3.76 3.76 0 0 1 1.526 1.653q.508 1.06.508 2.437v.636q0 .296-.042.699h-7.692v-1.632h5.742l-.657.594q.064-1.293-.445-1.95-.508-.657-1.589-.657-1.124 0-1.695.678-.572.657-.572 2.204 0 1.462.572 2.162.593.678 1.78.678.657 0 1.059-.191.404-.212.615-.53.232-.339.339-.72l2.5.699a5 5 0 0 1-.805 1.653q-.53.742-1.462 1.165-.91.403-2.288.403m10.181 0q-1.505 0-2.67-.572a4.2 4.2 0 0 1-1.822-1.717q-.657-1.144-.657-2.797 0-1.737.614-2.966a4.33 4.33 0 0 1 1.78-1.886q1.166-.657 2.797-.657 1.548 0 2.564.614a3.76 3.76 0 0 1 1.526 1.653q.509 1.06.509 2.437v.636q0 .296-.043.699h-7.692v-1.632h5.743l-.657.594q.063-1.293-.445-1.95-.509-.657-1.589-.657-1.123 0-1.696.678-.572.657-.572 2.204 0 1.462.572 2.162.594.678 1.78.678.657 0 1.06-.191.402-.212.614-.53a2.4 2.4 0 0 0 .339-.72l2.501.699a5 5 0 0 1-.805 1.653q-.53.742-1.462 1.165-.912.403-2.289.403m5.032-5.234q0-2.542.954-3.963.974-1.419 2.776-1.398.996-.021 1.716.402.72.403 1.144 1.293.446.89.636 2.331l-.127 1.208q0-1.23-.572-1.929-.552-.72-1.547-.72-1.102 0-1.611.742-.508.72-.508 2.034 0 1.25.487 1.949.509.7 1.632.7.657 0 1.123-.297.487-.318.742-.89.254-.572.254-1.399l.127 1.166q-.127 1.06-.424 1.843-.297.763-.741 1.251a2.55 2.55 0 0 1-1.039.699 3.6 3.6 0 0 1-1.335.233q-1.822 0-2.755-1.398-.932-1.399-.932-3.857m7.099 4.958v-12.989h2.882v12.989zm.297-2.691h-.488l.021-.657h.467zm.021-4.047h-.488l-.042-.572h.53z"/><path fill="#1E2037" d="M835.504 283.784q-1.482 0-2.67-.488a5.8 5.8 0 0 1-2.034-1.377 6.1 6.1 0 0 1-1.271-2.119q-.445-1.23-.445-2.713 0-1.97.805-3.454a5.9 5.9 0 0 1 2.267-2.331q1.462-.826 3.391-.826 1.716 0 3.009.678a5.1 5.1 0 0 1 2.055 1.886q.784 1.208.954 2.861l-2.946.487q-.233-1.504-.995-2.331-.764-.826-2.162-.826-1.102 0-1.844.53a3.17 3.17 0 0 0-1.123 1.398 5 5 0 0 0-.36 1.928q0 1.209.36 2.098.382.87 1.123 1.378.764.487 1.865.487.954 0 1.59-.381.634-.403 1.017-1.145.381-.741.551-1.758l2.903.423q-.17 1.653-.975 2.903a5.67 5.67 0 0 1-2.077 1.971q-1.292.721-2.988.721m11.664 0q-1.61 0-2.776-.636a4.53 4.53 0 0 1-1.801-1.844q-.636-1.207-.636-2.839 0-1.674.636-2.861a4.4 4.4 0 0 1 1.822-1.801q1.188-.636 2.755-.636 1.59 0 2.734.636a4.26 4.26 0 0 1 1.801 1.801q.657 1.187.657 2.861 0 2.479-1.399 3.899-1.377 1.42-3.793 1.42m0-7.989q-1.124 0-1.716.72-.594.72-.594 1.929 0 .805.255 1.419.254.594.784.933t1.25.339q1.144 0 1.738-.721.593-.741.593-1.97 0-.805-.275-1.399a2.07 2.07 0 0 0-.785-.911q-.508-.339-1.25-.339m8.853-5.298v12.99h-2.903v-12.99zm4.056 0v12.99h-2.903v-12.99zm3.908 13.202a3.75 3.75 0 0 1-1.568-.318 2.5 2.5 0 0 1-1.081-.975q-.402-.657-.402-1.631 0-1.378.868-2.225.87-.848 2.861-.848h2.925l.021 1.632h-2.501q-.636 0-.996.254a.79.79 0 0 0-.36.678q0 .296.127.551.148.255.466.403.34.148.89.148.615 0 1.06-.212.467-.232.72-.636.255-.402.255-.89v-2.352q0-.827-.382-1.25-.36-.424-1.186-.424-.7 0-1.166.36-.445.34-.593 1.229l-2.713-.381a4.6 4.6 0 0 1 .615-1.844q.487-.826 1.462-1.292t2.522-.466q1.525 0 2.479.487.975.466 1.399 1.377.445.89.445 2.183v6.23h-2.882v-3.179l.487.721h-.699l.381-1.611q-.042 1.357-.445 2.31t-1.165 1.462q-.742.509-1.844.509m17.263-5.298q0 2.543-.954 3.963t-2.776 1.42q-.741 0-1.335-.233a2.6 2.6 0 0 1-1.017-.7q-.424-.487-.72-1.25-.276-.784-.403-1.844l.127-1.229q0 .827.233 1.42.255.594.742.911t1.144.318q1.081 0 1.589-.72.509-.742.509-2.035 0-1.27-.509-1.949-.487-.699-1.589-.699-.657 0-1.144.296a1.9 1.9 0 0 0-.742.869q-.233.573-.233 1.399l-.127-1.145q.17-1.44.614-2.331.467-.89 1.187-1.292.742-.403 1.738-.403 1.822 0 2.733 1.399.933 1.377.933 3.835m-7.078-7.904v12.99h-2.903v-12.99zm-.318 6.294v-.636h.488l-.022.636zm-.021 3.984v-.573h.509l.021.573zm13.028 3.009q-1.61 0-2.776-.636a4.53 4.53 0 0 1-1.801-1.844q-.636-1.207-.636-2.839 0-1.674.636-2.861a4.4 4.4 0 0 1 1.822-1.801q1.188-.636 2.755-.636 1.59 0 2.734.636a4.26 4.26 0 0 1 1.801 1.801q.657 1.187.657 2.861 0 2.479-1.399 3.899-1.377 1.42-3.793 1.42m0-7.989q-1.124 0-1.716.72-.594.72-.594 1.929 0 .805.255 1.419.254.594.784.933t1.25.339q1.144 0 1.738-.721.593-.741.593-1.97 0-.805-.275-1.399a2.07 2.07 0 0 0-.785-.911q-.508-.339-1.25-.339m8.536 1.229h.487l-.233.805q.19-1.42.424-2.288.254-.87.593-1.314.339-.466.784-.615a2.9 2.9 0 0 1 1.017-.169h.488v3.305h-1.102q-.806 0-1.293.17-.466.17-.657.593-.19.424-.191 1.187v4.789h-2.903v-10.044h2.903v4.301zm6.75 6.675a3.75 3.75 0 0 1-1.568-.318 2.5 2.5 0 0 1-1.081-.975q-.403-.657-.403-1.631 0-1.378.869-2.225t2.861-.848h2.924l.021 1.632h-2.5q-.636 0-.996.254a.79.79 0 0 0-.36.678q0 .296.127.551.148.255.466.403.34.148.89.148.615 0 1.06-.212.465-.232.72-.636.255-.402.254-.89v-2.352q0-.827-.381-1.25-.36-.424-1.187-.424-.699 0-1.165.36-.445.34-.594 1.229l-2.712-.381a4.6 4.6 0 0 1 .615-1.844q.486-.826 1.462-1.292.975-.466 2.521-.466 1.526 0 2.48.487.974.466 1.398 1.377.445.89.445 2.183v6.23h-2.882v-3.179l.488.721h-.7l.382-1.611q-.043 1.357-.445 2.31-.403.954-1.166 1.462-.742.509-1.843.509m6.566-10.256h6.696v2.415h-6.696zm1.166 6.887v-9.409h2.881v8.858q0 .593.255.89.254.296.911.296.339 0 .678-.084l.636-.149.318 2.67q-.382.106-.721.191a5 5 0 0 1-.72.127 6 6 0 0 1-.933.064q-1.165 0-1.907-.467a2.76 2.76 0 0 1-1.059-1.25 4.3 4.3 0 0 1-.339-1.737m9.347-7.947h-3.009v-1.886h3.009zm-.064 11.104h-2.882v-10.044h2.882zm6.066.297q-1.61 0-2.776-.636a4.52 4.52 0 0 1-1.801-1.844q-.636-1.207-.636-2.839 0-1.674.636-2.861a4.4 4.4 0 0 1 1.822-1.801q1.186-.636 2.755-.636 1.59 0 2.733.636a4.27 4.27 0 0 1 1.802 1.801q.657 1.187.657 2.861 0 2.479-1.399 3.899-1.378 1.42-3.793 1.42m0-7.989q-1.123 0-1.717.72-.593.72-.593 1.929 0 .805.254 1.419.255.594.784.933.53.339 1.251.339 1.144 0 1.737-.721.594-.741.594-1.97 0-.805-.276-1.399a2.07 2.07 0 0 0-.784-.911q-.509-.339-1.25-.339m8.472.466h.72l-.445.763q.17-1.463.636-2.289.487-.847 1.186-1.208.7-.36 1.59-.36 1.08 0 1.759.466.699.445 1.017 1.251.318.804.318 1.886v6.717h-2.882v-5.891q0-.53-.17-.932a1.34 1.34 0 0 0-.551-.636q-.36-.255-.953-.254-.594 0-.996.233a1.56 1.56 0 0 0-.636.614q-.212.382-.212.975v5.891h-2.903v-10.044h2.903v3.454z"/><path fill="#FFFEFB" d="M822.622 365.279q-1.482 0-2.67-.487a5.8 5.8 0 0 1-2.034-1.377 6.15 6.15 0 0 1-1.271-2.119q-.445-1.23-.445-2.713 0-1.97.805-3.454a5.9 5.9 0 0 1 2.267-2.331q1.462-.826 3.391-.826 1.716 0 3.009.678a5.1 5.1 0 0 1 2.055 1.886q.784 1.208.954 2.86l-2.946.488q-.233-1.505-.995-2.331-.764-.827-2.162-.827-1.102 0-1.844.53a3.16 3.16 0 0 0-1.123 1.399 5 5 0 0 0-.36 1.928q0 1.208.36 2.098a3.2 3.2 0 0 0 1.123 1.377q.764.488 1.865.488.954 0 1.59-.382.634-.402 1.017-1.144.381-.741.551-1.759l2.903.424q-.17 1.653-.975 2.903a5.67 5.67 0 0 1-2.077 1.971q-1.291.72-2.988.72m13.55-3.093h-.72l.445-.763q-.17 1.44-.636 2.288t-1.165 1.208q-.7.36-1.611.36-1.08 0-1.759-.445a2.83 2.83 0 0 1-1.017-1.271q-.318-.827-.318-1.907v-6.718h2.903v5.891q0 .508.17.933.169.423.53.678.381.233.974.233.573 0 .975-.212.424-.233.636-.636.233-.423.233-.996v-5.891h2.882v10.045h-2.882v-3.433zm7.93 3.093q-1.695 0-2.67-.466t-1.441-1.229a4.8 4.8 0 0 1-.615-1.695l2.692-.53q.149.572.402.975.255.381.657.593.424.212 1.039.212.72 0 1.059-.233.339-.254.36-.72a.76.76 0 0 0-.169-.488q-.17-.212-.636-.381-.467-.19-1.377-.36-1.42-.297-2.247-.721-.804-.445-1.165-1.038-.36-.615-.36-1.441 0-1.442 1.038-2.268 1.06-.826 3.157-.826 1.441 0 2.353.381.931.36 1.419 1.06.487.678.679 1.61l-2.755.615q-.17-.806-.572-1.187-.403-.402-1.145-.402-.635 0-.974.233a.75.75 0 0 0-.34.657q0 .275.128.508.148.234.635.424.488.17 1.462.36 1.442.297 2.247.742.805.446 1.123 1.059.339.615.339 1.357 0 .974-.466 1.695-.445.72-1.399 1.123-.954.381-2.458.381m4.566-10.341h6.696v2.416h-6.696zm1.165 6.887v-9.408h2.882v8.857q0 .594.254.89t.911.297q.339 0 .679-.085l.635-.148.318 2.67a29 29 0 0 1-.72.191 5 5 0 0 1-.721.127 6 6 0 0 1-.932.063q-1.166 0-1.907-.466a2.76 2.76 0 0 1-1.06-1.25 4.3 4.3 0 0 1-.339-1.738m10.941 3.454q-1.61 0-2.775-.635a4.53 4.53 0 0 1-1.802-1.844q-.635-1.208-.635-2.839 0-1.674.635-2.861a4.4 4.4 0 0 1 1.823-1.801q1.187-.636 2.754-.636 1.59 0 2.734.636a4.26 4.26 0 0 1 1.801 1.801q.657 1.187.657 2.861 0 2.478-1.398 3.899-1.378 1.419-3.794 1.419m0-7.988q-1.122 0-1.716.72t-.593 1.928q0 .805.254 1.42.255.593.784.933.53.339 1.25.339 1.144 0 1.738-.721.593-.741.593-1.971 0-.805-.275-1.398a2.07 2.07 0 0 0-.784-.911q-.509-.339-1.251-.339m14.872.529h.72l-.424.7q.17-1.463.615-2.289.466-.848 1.144-1.208.7-.36 1.632-.36 1.08 0 1.759.466.699.446 1.017 1.25.339.806.339 1.886v6.718h-2.882v-5.891q0-.53-.169-.933a1.34 1.34 0 0 0-.551-.635q-.36-.255-.975-.255-.573 0-.996.233-.403.213-.636.615-.212.381-.212.975h-.36zm-6.4-.063h.721l-.445.763q.17-1.463.635-2.289.488-.848 1.187-1.208t1.589-.36q1.081 0 1.759.466.699.446 1.017 1.25.318.806.318 1.886v6.718h-2.882v-5.891q0-.53-.169-.933a1.34 1.34 0 0 0-.551-.635q-.36-.255-.954-.255-.592 0-.996.233-.402.213-.635.615-.213.381-.212.975v5.891h-2.903v-10.045h2.903v3.454zm19.05 7.501q-1.505 0-2.67-.572a4.2 4.2 0 0 1-1.822-1.716q-.657-1.145-.657-2.798 0-1.737.614-2.966a4.34 4.34 0 0 1 1.78-1.886q1.166-.657 2.797-.657 1.547 0 2.564.614a3.75 3.75 0 0 1 1.526 1.653q.509 1.06.509 2.437v.636q0 .297-.043.699h-7.692v-1.631h5.743l-.657.593q.063-1.293-.445-1.95-.509-.657-1.589-.657-1.123 0-1.696.679-.572.656-.572 2.203 0 1.463.572 2.162.594.678 1.78.678.657 0 1.06-.191.402-.212.614-.53a2.4 2.4 0 0 0 .339-.72l2.501.699a5 5 0 0 1-.805 1.653q-.53.742-1.462 1.166-.912.402-2.289.402m7.999-6.738h.487l-.233.805q.19-1.42.424-2.289.254-.868.593-1.314.34-.465.784-.614.446-.17 1.017-.17h.488v3.306h-1.102q-.805 0-1.293.17-.466.169-.657.593-.19.424-.19 1.187v4.789h-2.903v-10.045h2.903v4.302zm8.746-6.252h7.862v2.882h-7.862zm-.106 8.54v-2.882h7.438v2.882zm1.823 4.175h-3.052v-12.715h3.052zm11.546.296q-1.61 0-2.776-.635a4.52 4.52 0 0 1-1.801-1.844q-.636-1.208-.636-2.839 0-1.674.636-2.861a4.4 4.4 0 0 1 1.822-1.801q1.186-.636 2.755-.636 1.589 0 2.733.636a4.25 4.25 0 0 1 1.801 1.801q.657 1.187.657 2.861 0 2.478-1.398 3.899-1.378 1.419-3.793 1.419m0-7.988q-1.123 0-1.717.72-.593.72-.593 1.928 0 .805.254 1.42.255.593.784.933.53.339 1.251.339 1.144 0 1.737-.721.593-.741.593-1.971 0-.805-.275-1.398a2.07 2.07 0 0 0-.784-.911q-.509-.339-1.25-.339m12.858 2.013a3.5 3.5 0 0 0-.36-1.039 1.86 1.86 0 0 0-.678-.72q-.424-.255-1.06-.254-.975 0-1.61.635-.615.636-.615 2.013 0 .89.276 1.505.275.593.784.89.53.297 1.186.297.678 0 1.081-.276.424-.297.657-.784.232-.487.36-1.123l2.776.53q-.254 1.97-1.398 3.136-1.145 1.165-3.412 1.165-1.59 0-2.776-.593a4.26 4.26 0 0 1-1.844-1.759q-.657-1.165-.657-2.903 0-1.716.636-2.903a4.5 4.5 0 0 1 1.822-1.822q1.188-.636 2.755-.636 1.59 0 2.586.508a3.4 3.4 0 0 1 1.546 1.441q.552.933.742 2.289zm10.301 2.882h-.72l.445-.763q-.17 1.44-.636 2.288t-1.166 1.208-1.61.36q-1.081 0-1.759-.445a2.83 2.83 0 0 1-1.017-1.271q-.318-.827-.318-1.907v-6.718h2.903v5.891q0 .508.17.933.17.423.529.678.383.233.975.233.573 0 .975-.212.424-.233.636-.636.233-.423.233-.996v-5.891h2.882v10.045h-2.882v-3.433zm7.93 3.093q-1.695 0-2.67-.466t-1.441-1.229a4.8 4.8 0 0 1-.615-1.695l2.691-.53q.149.572.403.975.255.381.657.593.424.212 1.038.212.721 0 1.06-.233.339-.254.36-.72a.76.76 0 0 0-.169-.488q-.17-.212-.636-.381-.466-.19-1.378-.36-1.42-.297-2.246-.721-.805-.445-1.165-1.038-.36-.615-.36-1.441 0-1.442 1.038-2.268 1.06-.826 3.157-.826 1.441 0 2.352.381.933.36 1.42 1.06.488.678.678 1.61l-2.754.615q-.17-.806-.573-1.187-.402-.402-1.144-.402-.636 0-.975.233a.75.75 0 0 0-.339.657q0 .275.127.508.149.234.636.424.487.17 1.462.36 1.442.297 2.247.742.804.446 1.123 1.059.339.615.339 1.357 0 .974-.467 1.695-.444.72-1.398 1.123-.954.381-2.458.381M430.808 39.297q-1.547-.021-2.606-.36-1.06-.36-1.738-.975a4.4 4.4 0 0 1-1.017-1.399 6 6 0 0 1-.445-1.653l2.988-.593q.148.763.551 1.292.424.53 1.059.806.637.255 1.42.254.954 0 1.462-.318.53-.318.53-.932a.92.92 0 0 0-.275-.678q-.255-.297-.89-.509-.615-.212-1.759-.381-1.76-.276-2.776-.827-.996-.551-1.441-1.356a3.9 3.9 0 0 1-.424-1.822q0-1.78 1.272-2.819 1.27-1.038 3.771-1.038 1.76 0 2.861.55 1.102.552 1.695 1.463.615.912.827 2.077l-3.009.614q-.17-.72-.488-1.186a1.83 1.83 0 0 0-.784-.72q-.487-.234-1.271-.234-.869 0-1.335.34a1.07 1.07 0 0 0-.445.89q0 .338.191.614.19.275.826.508.657.234 1.992.445 1.356.212 2.225.615.89.381 1.399.91.53.51.741 1.145.213.614.212 1.293 0 1.207-.572 2.119-.55.89-1.716 1.377-1.166.488-3.031.488m5.596-10.341h6.696v2.415h-6.696zm1.165 6.887v-9.409h2.882v8.858q0 .593.255.89.254.296.911.296.339 0 .678-.084l.636-.149.318 2.67q-.382.105-.721.191a5 5 0 0 1-.72.127 6 6 0 0 1-.933.064q-1.166 0-1.907-.466a2.78 2.78 0 0 1-1.06-1.25 4.3 4.3 0 0 1-.339-1.738m8.903-3.306h.487l-.233.805q.19-1.42.424-2.288.254-.87.593-1.314.339-.466.784-.615.445-.17 1.017-.17h.488v3.306h-1.102q-.805 0-1.293.17-.466.169-.657.593-.19.424-.191 1.187V39h-2.903V28.956h2.903v4.301zm6.75 6.675a3.75 3.75 0 0 1-1.568-.318 2.5 2.5 0 0 1-1.081-.975q-.403-.657-.403-1.631 0-1.378.869-2.225.869-.849 2.861-.848h2.924l.021 1.632h-2.5q-.636 0-.996.254a.79.79 0 0 0-.36.678q0 .297.127.551.148.255.466.403.34.148.89.148.615 0 1.06-.212a1.76 1.76 0 0 0 .72-.636q.255-.402.254-.89v-2.352q0-.826-.381-1.25-.36-.424-1.187-.424-.699 0-1.165.36-.446.339-.594 1.23l-2.712-.382q.127-1.038.615-1.844.487-.826 1.462-1.292t2.521-.466q1.526 0 2.48.487.975.466 1.398 1.377.445.89.445 2.183V39h-2.882v-3.179l.488.72h-.7l.382-1.61q-.043 1.358-.445 2.31-.403.954-1.166 1.462-.742.51-1.843.509m6.566-10.256h6.696v2.415h-6.696zm1.166 6.887v-9.409h2.882v8.858q0 .593.254.89.254.296.911.296.339 0 .678-.084l.636-.149.318 2.67q-.382.105-.721.191a5 5 0 0 1-.72.127 6 6 0 0 1-.933.064q-1.165 0-1.907-.466a2.77 2.77 0 0 1-1.059-1.25 4.3 4.3 0 0 1-.339-1.738m10.878 3.432q-1.506 0-2.671-.572a4.2 4.2 0 0 1-1.822-1.716q-.657-1.144-.657-2.797 0-1.739.615-2.967a4.33 4.33 0 0 1 1.78-1.886q1.165-.657 2.797-.657 1.547 0 2.564.615a3.75 3.75 0 0 1 1.526 1.653q.508 1.059.508 2.437v.635q0 .297-.042.7h-7.692v-1.632h5.742l-.657.593q.064-1.292-.445-1.95-.508-.656-1.589-.656-1.124 0-1.695.678-.572.657-.572 2.204 0 1.461.572 2.161.593.678 1.78.678.657 0 1.059-.19.404-.212.615-.53.232-.34.339-.72l2.5.698a5 5 0 0 1-.805 1.653q-.53.742-1.462 1.166-.91.402-2.288.403m9.444-7.988q-.975 0-1.378.36-.381.36-.381.932t.381.933q.403.339 1.399.339t1.398-.34q.403-.36.403-.932 0-.593-.445-.932-.445-.36-1.377-.36m-1.759 4.068.063.021-.19.318a3 3 0 0 0-.106.233.4.4 0 0 0-.043.191q0 .255.17.36.19.106.572.106.89 0 1.78-.042a24 24 0 0 1 1.674-.064q1.738 0 2.479.72.742.721.742 1.971 0 .933-.508 1.611-.488.699-1.632 1.038-1.123.36-3.052.36-1.992 0-3.093-.254-1.103-.233-1.547-.699a1.46 1.46 0 0 1-.424-1.038q0-.487.339-.87.36-.38 1.059-.614.7-.233 1.675-.275l.339.063q-.403 0-.679.106-.274.106-.423.276a.56.56 0 0 0-.149.381q0 .318.212.509.233.19.848.275t1.78.085q1.27 0 1.907-.106.657-.084.89-.318a.69.69 0 0 0 .233-.53.63.63 0 0 0-.212-.487q-.19-.19-.699-.19h-4.175q-.783 0-1.292-.17-.487-.17-.721-.488a1.2 1.2 0 0 1-.233-.72q0-.445.339-.826.34-.403 1.102-.615zm2.331-4.132 1.822-.148-.021.508-.911-.381q.571.063 1.059.17.488.105.869.317.404.213.636.572.233.36.233.912 0 .826-.509 1.377-.487.551-1.44.826-.933.276-2.31.276-2.077 0-3.221-.848-1.123-.847-1.123-2.437 0-1.08.529-1.843.53-.763 1.526-1.166t2.373-.402h5.001v2.415h-1.144q-.381 0-.869-.02-.466-.023-1.08-.043-.615-.042-1.42-.085m-2.903 7.332v-.36h.296v.36zm11.52-.551 1.589.996-1.822.042-3.878-10.086h3.158l1.186 3.687q.213.657.424 1.377.212.72.445 1.483.233.742.445 1.463.212.698.36 1.335l-1.525-2.586h1.695l-1.462 2.522q.254-.975.529-1.928a64 64 0 0 0 .551-1.865q.276-.911.509-1.738l1.017-3.75h3.115l-3.899 9.98q-.487 1.23-1.123 1.992-.615.763-1.505 1.123t-2.161.36a7 7 0 0 1-.848-.042l-.741-.084.339-2.437q.339.063.657.106.317.042.635.042.657 0 1.039-.127.402-.128.699-.572.297-.424.572-1.293m12.484 1.208a3.75 3.75 0 0 1-1.568-.318 2.48 2.48 0 0 1-1.08-.975q-.403-.657-.403-1.631 0-1.378.869-2.225.869-.849 2.861-.848h2.924l.021 1.632h-2.5q-.636 0-.996.254a.79.79 0 0 0-.361.678q0 .297.127.551.149.255.467.403.339.148.89.148.614 0 1.059-.212.466-.232.721-.636.254-.402.254-.89v-2.352q0-.826-.381-1.25-.361-.424-1.187-.424-.7 0-1.166.36-.444.339-.593 1.23l-2.712-.382a4.6 4.6 0 0 1 .614-1.844q.487-.826 1.462-1.292t2.522-.466q1.526 0 2.479.487.975.466 1.399 1.377.445.89.445 2.183V39h-2.882v-3.179l.487.72h-.699l.381-1.61q-.042 1.358-.445 2.31-.402.954-1.165 1.462-.741.51-1.844.509m9.804-7.438h.72l-.445.763q.17-1.463.636-2.289.488-.847 1.187-1.208.7-.36 1.589-.36 1.081 0 1.759.466.699.446 1.017 1.25.318.805.318 1.887V39h-2.882v-5.891q0-.53-.17-.932a1.34 1.34 0 0 0-.551-.636q-.36-.255-.953-.254-.594 0-.996.233-.402.212-.636.614-.212.383-.212.975V39h-2.903V28.956h2.903v3.454zm7.506 2.267q0-2.543.953-3.962.976-1.42 2.776-1.399.996-.021 1.717.403.72.403 1.144 1.292.445.89.636 2.331l-.127 1.208q0-1.23-.572-1.928-.552-.72-1.547-.72-1.103 0-1.611.741-.508.72-.508 2.034 0 1.251.487 1.95.509.7 1.632.7.657 0 1.123-.297a2 2 0 0 0 .741-.89q.255-.573.255-1.399l.127 1.166q-.127 1.059-.424 1.843-.297.763-.742 1.25a2.55 2.55 0 0 1-1.038.7 3.6 3.6 0 0 1-1.335.233q-1.822 0-2.755-1.399-.932-1.398-.932-3.857M527.358 39V26.01h2.882V39zm.296-2.691h-.487l.021-.657h.466zm.022-4.048h-.488l-.042-.572h.53zM537.682 39h-3.051V26.286h3.051zm3.753-7.226h.72l-.445.763q.17-1.463.636-2.289.487-.847 1.187-1.208.7-.36 1.589-.36 1.08 0 1.759.466.699.446 1.017 1.25.318.805.318 1.887V39h-2.882v-5.891q0-.53-.17-.932a1.34 1.34 0 0 0-.551-.636q-.36-.255-.953-.254-.594 0-.996.233a1.56 1.56 0 0 0-.636.614q-.212.383-.212.975V39h-2.903V28.956h2.903v3.454zm12.125 7.523q-1.695 0-2.67-.466t-1.441-1.23a4.8 4.8 0 0 1-.614-1.695l2.691-.53q.148.573.403.975.254.382.656.593.424.213 1.039.212.72 0 1.059-.233.339-.255.361-.72a.76.76 0 0 0-.17-.488q-.17-.21-.636-.381-.466-.19-1.377-.36-1.42-.297-2.246-.72-.806-.445-1.166-1.039-.36-.615-.36-1.441 0-1.44 1.038-2.267 1.06-.827 3.158-.827 1.44 0 2.352.382.932.36 1.42 1.06.487.677.678 1.61l-2.755.614q-.17-.805-.572-1.186-.403-.403-1.144-.403-.636 0-.975.233a.75.75 0 0 0-.339.657q0 .276.127.508.149.234.636.424.487.17 1.462.36 1.44.297 2.246.742.805.445 1.123 1.06.339.614.339 1.356 0 .975-.466 1.695-.445.72-1.399 1.123-.953.382-2.458.382m8.105-11.4h-3.009V26.01h3.009zM561.601 39h-2.882V28.956h2.882zm5.451-7.713q-.975 0-1.377.36-.382.36-.382.932t.382.933q.402.339 1.398.339t1.399-.34q.403-.36.403-.932 0-.593-.445-.932-.445-.36-1.378-.36m-1.759 4.068.064.021-.191.318a4 4 0 0 0-.106.233.4.4 0 0 0-.042.191q0 .255.169.36.191.106.573.106.89 0 1.78-.042a24 24 0 0 1 1.674-.064q1.737 0 2.479.72.742.721.742 1.971 0 .933-.509 1.611-.488.699-1.632 1.038-1.123.36-3.051.36-1.992 0-3.094-.254-1.102-.233-1.547-.699a1.46 1.46 0 0 1-.424-1.038q0-.487.339-.87.361-.38 1.06-.614t1.674-.275l.339.063a1.9 1.9 0 0 0-.678.106 1.05 1.05 0 0 0-.424.276.56.56 0 0 0-.148.381q0 .318.212.509.233.19.847.275.615.085 1.78.085 1.272 0 1.907-.106.657-.084.89-.318a.69.69 0 0 0 .234-.53.63.63 0 0 0-.212-.487q-.191-.19-.7-.19h-4.174q-.784 0-1.293-.17-.488-.17-.72-.488a1.2 1.2 0 0 1-.233-.72q0-.445.339-.826.339-.403 1.102-.615zm2.331-4.132 1.823-.148-.021.508-.912-.381q.573.063 1.06.17.487.105.869.317.402.213.635.572.233.36.233.912 0 .826-.508 1.377-.487.551-1.441.826-.933.276-2.31.276-2.076 0-3.221-.848-1.123-.847-1.123-2.437 0-1.08.53-1.843t1.526-1.166 2.373-.402h5.001v2.415h-1.144q-.382 0-.869-.02-.466-.023-1.081-.043-.615-.042-1.42-.085m-2.903 7.332v-.36h.297v.36zm10.652-6.781h.72l-.445.763q.17-1.463.636-2.289.487-.847 1.187-1.208.7-.36 1.589-.36 1.08 0 1.759.466.699.446 1.017 1.25.318.805.318 1.887V39h-2.882v-5.891q0-.53-.17-.932a1.34 1.34 0 0 0-.551-.636q-.36-.255-.953-.254-.594 0-.996.233-.403.212-.636.614-.212.383-.212.975V39h-2.903V26.01h2.903v6.4zm7.234-2.818h6.696v2.415h-6.696zm1.165 6.887v-9.409h2.882v8.858q0 .593.254.89.255.296.912.296.339 0 .678-.084l.635-.149.318 2.67q-.381.105-.72.191a5 5 0 0 1-.721.127 6 6 0 0 1-.932.064q-1.166 0-1.907-.466a2.76 2.76 0 0 1-1.06-1.25 4.3 4.3 0 0 1-.339-1.738m10.555 3.454q-1.695 0-2.67-.466t-1.441-1.23a4.8 4.8 0 0 1-.614-1.695l2.691-.53q.148.573.403.975.253.382.657.593.423.213 1.038.212.72 0 1.059-.233.34-.255.361-.72a.76.76 0 0 0-.17-.488q-.17-.21-.636-.381-.466-.19-1.377-.36-1.42-.297-2.246-.72-.806-.445-1.166-1.039-.36-.615-.36-1.441 0-1.44 1.038-2.267 1.06-.827 3.158-.827 1.44 0 2.352.382.933.36 1.42 1.06.488.677.678 1.61l-2.755.614q-.17-.805-.572-1.186-.403-.403-1.144-.403-.636 0-.975.233a.75.75 0 0 0-.339.657q0 .276.127.508.149.234.636.424.487.17 1.462.36 1.44.297 2.246.742.805.445 1.123 1.06.339.614.339 1.356 0 .975-.466 1.695-.445.72-1.399 1.123-.953.382-2.458.382M369.06 252.785q-4.044 0-7.279-1.329-3.235-1.33-5.546-3.755-2.253-2.427-3.466-5.777t-1.213-7.394q0-5.372 2.195-9.416 2.254-4.102 6.181-6.355 3.987-2.253 9.243-2.253 4.68 0 8.203 1.849a13.87 13.87 0 0 1 5.604 5.141q2.137 3.293 2.599 7.799l-8.029 1.329q-.636-4.102-2.716-6.355t-5.892-2.253q-3.003 0-5.026 1.444-2.022 1.387-3.061 3.813-.982 2.368-.982 5.257 0 3.292.982 5.719 1.04 2.369 3.061 3.755 2.08 1.328 5.084 1.328 2.6 0 4.332-1.039 1.734-1.098 2.773-3.12t1.502-4.795l7.915 1.156q-.463 4.506-2.658 7.914a15.46 15.46 0 0 1-5.661 5.372q-3.524 1.965-8.145 1.965m31.796 0q-4.39 0-7.567-1.734-3.177-1.79-4.91-5.025-1.734-3.294-1.734-7.741 0-4.564 1.734-7.799 1.79-3.235 4.968-4.91 3.235-1.733 7.509-1.733 4.334 0 7.452 1.733 3.178 1.675 4.911 4.91 1.791 3.235 1.791 7.799 0 6.759-3.813 10.629-3.755 3.87-10.341 3.871m0-21.779q-3.061 0-4.679 1.964-1.617 1.965-1.617 5.257 0 2.195.693 3.87a5.53 5.53 0 0 0 2.137 2.542q1.444.925 3.409.925 3.119 0 4.737-1.965 1.617-2.022 1.617-5.372 0-2.194-.751-3.813-.751-1.617-2.137-2.484-1.387-.924-3.409-.924m40.541 1.444h1.964l-1.155 1.907q.462-3.987 1.675-6.239 1.271-2.311 3.12-3.293 1.906-.982 4.448-.982 2.946 0 4.795 1.271 1.906 1.213 2.773 3.408.924 2.195.924 5.141v18.313h-7.857v-16.06q0-1.444-.462-2.542a3.65 3.65 0 0 0-1.502-1.733q-.981-.693-2.657-.693-1.56 0-2.715.636a4.26 4.26 0 0 0-1.733 1.675q-.578 1.04-.578 2.657h-.982zm-17.446-.173h1.965l-1.214 2.08q.462-3.987 1.733-6.239 1.33-2.311 3.235-3.293 1.907-.982 4.333-.982 2.946 0 4.795 1.271 1.906 1.213 2.773 3.408.866 2.195.866 5.141v18.313h-7.856v-16.06q0-1.444-.462-2.542a3.66 3.66 0 0 0-1.502-1.733q-.983-.693-2.6-.693t-2.715.636a4.26 4.26 0 0 0-1.733 1.675q-.578 1.04-.578 2.657v16.06h-7.914v-27.382h7.914v9.416zm66.143 5.834q0 6.933-2.6 10.803t-7.567 3.871q-2.022 0-3.64-.636-1.56-.577-2.772-1.906-1.156-1.329-1.965-3.409-.75-2.137-1.097-5.025l.346-3.351q0 2.253.636 3.871.693 1.617 2.022 2.484 1.328.866 3.119.866 2.946 0 4.333-1.964 1.386-2.022 1.386-5.546 0-3.465-1.386-5.314-1.329-1.907-4.333-1.907-1.79 0-3.119.809t-2.022 2.368q-.636 1.56-.636 3.813l-.346-3.119q.462-3.928 1.675-6.355 1.271-2.426 3.235-3.524 2.022-1.097 4.737-1.097 4.968 0 7.452 3.812 2.542 3.756 2.542 10.456m-19.295-13.517v35.238h-7.914v-35.238zm-.866 9.127v-1.733h1.329l-.058 1.733zm-.058 10.86v-1.559h1.387l.057 1.559zm35.46 8.204q-4.39 0-7.567-1.734-3.178-1.79-4.911-5.025-1.733-3.294-1.733-7.741 0-4.564 1.733-7.799 1.791-3.235 4.968-4.91 3.235-1.733 7.51-1.733 4.333 0 7.452 1.733 3.177 1.675 4.911 4.91 1.79 3.235 1.79 7.799 0 6.759-3.812 10.629-3.755 3.87-10.341 3.871m0-21.779q-3.062 0-4.679 1.964-1.617 1.965-1.618 5.257 0 2.195.694 3.87a5.52 5.52 0 0 0 2.137 2.542q1.444.925 3.408.925 3.12 0 4.737-1.965 1.618-2.022 1.618-5.372 0-2.194-.751-3.813-.751-1.617-2.138-2.484-1.386-.924-3.408-.924m34.533 13.344h-1.964l1.213-2.079q-.462 3.928-1.733 6.239-1.27 2.31-3.177 3.292-1.906.983-4.39.983-2.947 0-4.795-1.214-1.85-1.27-2.773-3.466-.867-2.253-.867-5.199v-18.312h7.915v16.059q0 1.387.462 2.542t1.444 1.849q1.04.635 2.657.635 1.56 0 2.658-.578 1.155-.635 1.733-1.733.635-1.155.635-2.715v-16.059h7.857v27.382h-7.857v-9.359zm16.938-12.073h1.965l-1.214 2.08q.463-3.987 1.733-6.239 1.33-2.311 3.235-3.293 1.907-.982 4.333-.982 2.946 0 4.795 1.271 1.906 1.213 2.773 3.408.866 2.195.866 5.141v18.313h-7.856v-16.06q0-1.444-.462-2.542a3.66 3.66 0 0 0-1.502-1.733q-.983-.693-2.6-.693t-2.715.636a4.26 4.26 0 0 0-1.733 1.675q-.578 1.04-.578 2.657v16.06h-7.914v-27.382h7.914v9.416zm20.463 6.181q0-6.931 2.599-10.803 2.658-3.87 7.568-3.812 2.714-.058 4.679 1.097 1.964 1.098 3.119 3.524 1.214 2.427 1.733 6.355l-.346 3.292q0-3.35-1.56-5.256-1.502-1.965-4.217-1.965-3.004 0-4.39 2.022-1.387 1.965-1.387 5.546 0 3.408 1.329 5.315 1.386 1.906 4.448 1.906 1.79 0 3.062-.809 1.327-.866 2.022-2.426.693-1.56.693-3.813l.346 3.178q-.346 2.888-1.155 5.025-.808 2.08-2.022 3.409t-2.83 1.906q-1.618.636-3.64.636-4.968 0-7.51-3.813t-2.541-10.514m19.352 13.518v-35.412h7.856v35.412zm.809-7.337h-1.329l.058-1.791h1.271zm.057-11.033h-1.328l-.116-1.56h1.444zm18.361-11.901h-8.203v-5.141h8.203zm-.173 30.271h-7.857v-27.382h7.857zm10.239-19.699h1.964l-1.213 2.08q.462-3.987 1.733-6.239 1.328-2.311 3.235-3.293t4.332-.982q2.947 0 4.795 1.271 1.906 1.213 2.773 3.408t.866 5.141v18.313h-7.856v-16.06q0-1.444-.462-2.542a3.66 3.66 0 0 0-1.502-1.733q-.982-.693-2.6-.693-1.617 0-2.715.636a4.26 4.26 0 0 0-1.733 1.675q-.578 1.04-.578 2.657v16.06h-7.914v-27.382h7.914v9.416zm32.546-1.329q-2.658 0-3.755.982-1.04.982-1.04 2.542t1.04 2.542q1.098.924 3.813.924t3.812-.924q1.098-.982 1.098-2.542 0-1.617-1.213-2.542-1.213-.981-3.755-.982m-4.795 11.092.174.057-.52.867a8 8 0 0 0-.289.635 1.15 1.15 0 0 0-.116.52q0 .693.462.982.52.29 1.56.289 2.427 0 4.853-.115a64 64 0 0 1 4.563-.174q4.737 0 6.759 1.964 2.022 1.965 2.022 5.373 0 2.541-1.386 4.39-1.329 1.907-4.449 2.831-3.062.982-8.318.982-5.43 0-8.434-.693-3.005-.635-4.217-1.907-1.156-1.212-1.156-2.83 0-1.329.925-2.369.981-1.04 2.888-1.675 1.906-.636 4.564-.751l.924.173q-1.098 0-1.849.289-.75.29-1.155.751-.404.462-.404 1.04 0 .867.577 1.386.636.52 2.311.751t4.853.231q3.465 0 5.199-.288 1.79-.231 2.426-.867.635-.577.635-1.444 0-.808-.577-1.329-.52-.52-1.907-.52h-11.38q-2.137 0-3.524-.462-1.328-.462-1.964-1.328a3.24 3.24 0 0 1-.635-1.965q0-1.212.924-2.253.924-1.097 3.004-1.675zm6.355-11.265 4.968-.404-.058 1.386-2.484-1.04q1.56.174 2.888.462a8.6 8.6 0 0 1 2.369.867 4.53 4.53 0 0 1 1.733 1.56q.635.981.635 2.484 0 2.253-1.386 3.754-1.329 1.503-3.928 2.253-2.543.751-6.297.751-5.661 0-8.781-2.31-3.061-2.311-3.061-6.644 0-2.946 1.444-5.025t4.159-3.178q2.715-1.097 6.47-1.097h13.633v6.585h-3.119q-1.04 0-2.369-.057-1.27-.058-2.946-.116a242 242 0 0 0-3.87-.231m-7.914 19.988v-.982h.808v.982zm-210.511 59.79q-3.408 0-6.123-1.213a12.86 12.86 0 0 1-4.621-3.639q-1.849-2.369-2.831-5.546t-.982-7.047q0-5.547 1.906-9.705 1.965-4.16 5.777-6.471 3.87-2.368 9.59-2.368 4.737 0 8.029 1.618 3.293 1.559 5.142 4.448 1.906 2.888 2.484 6.932l-7.799 1.617q-.693-3.408-2.6-5.257-1.848-1.906-5.488-1.906-3.061 0-4.968 1.387-1.905 1.328-2.83 3.812-.867 2.484-.867 5.893 0 2.368.462 4.274.52 1.907 1.618 3.293 1.097 1.386 2.831 2.138 1.733.75 4.274.751 2.369 0 3.871-.463 1.56-.462 2.426-1.213.924-.75 1.271-1.733.405-1.04.404-2.137l.289.058q0 2.426-.577 4.679a11.5 11.5 0 0 1-1.907 4.044q-1.27 1.733-3.466 2.772-2.137.982-5.315.982m2.427-13.113v-6.816h16.406v19.352h-7.857v-15.251000000000001l3.351 2.715zm7.567 4.795 1.156-2.369h.866l-.058 2.369zm19.021-9.878h1.329l-.636 2.195q.52-3.871 1.155-6.239.694-2.369 1.618-3.582.925-1.271 2.137-1.675 1.213-.462 2.773-.462h1.329v9.012h-3.004q-2.195 0-3.524.462-1.27.462-1.791 1.617t-.52 3.235v13.056h-7.914v-27.382h7.914v11.727zm24.289 18.428q-4.39 0-7.568-1.734-3.177-1.79-4.91-5.025-1.733-3.294-1.733-7.741 0-4.564 1.733-7.799 1.791-3.235 4.968-4.91 3.235-1.734 7.51-1.733 4.332 0 7.452 1.733 3.177 1.675 4.91 4.91 1.791 3.235 1.791 7.799 0 6.759-3.813 10.629-3.755 3.87-10.34 3.871m0-21.779q-3.062 0-4.68 1.964-1.617 1.965-1.617 5.257 0 2.195.693 3.87a5.52 5.52 0 0 0 2.138 2.542q1.443.924 3.408.925 3.119 0 4.737-1.965 1.617-2.022 1.617-5.372 0-2.194-.751-3.813-.75-1.617-2.137-2.484-1.386-.924-3.408-.924m38.601-6.412 2.368 10.802q.809 3.525 1.444 7.279.694 3.697 1.329 7.683l-1.329-4.217h2.369l-2.137 4.275q.52-4.044 1.27-7.568.81-3.523 1.618-7.509l2.137-10.745h7.741l-7.683 27.382h-9.647l-2.484-11.785q-.693-3.293-1.213-6.643a184 184 0 0 1-.809-6.817l1.675 3.64h-2.599l1.502-3.64a73 73 0 0 1-.925 6.759q-.577 3.466-1.155 6.701l-2.253 11.785h-9.705l-7.683-27.382h8.087l2.6 10.745a143 143 0 0 1 1.675 7.509q.693 3.582 1.213 7.626l-2.137-4.333h2.311l-1.271 4.275q.693-3.986 1.328-7.683.636-3.755 1.387-7.337l2.368-10.802zm16.512 0h18.255v6.585h-18.255zm3.178 18.774v-25.649h7.856v24.147q0 1.618.693 2.427t2.484.808q.924 0 1.849-.231.982-.231 1.733-.404l.866 7.279q-1.039.288-1.964.52-.866.23-1.964.346-1.04.174-2.542.174-3.177 0-5.199-1.271a7.55 7.55 0 0 1-2.888-3.409q-.924-2.138-.924-4.737m24.095-11.091h1.964l-1.213 2.08q.462-3.987 1.733-6.239 1.329-2.311 3.235-3.293t4.332-.982q2.947 0 4.795 1.271 1.906 1.213 2.773 3.408.866 2.195.866 5.141v18.313h-7.856v-16.06q0-1.444-.462-2.542a3.66 3.66 0 0 0-1.502-1.733q-.982-.693-2.6-.693-1.617 0-2.715.636a4.27 4.27 0 0 0-1.733 1.675q-.577 1.04-.577 2.657v16.06h-7.915v-35.412h7.915v17.446z"/><path fill="#1E2037" d="m707.665 110.494 1.314-2.035v12.037h-3.051v-12.715h5.085q1.654 0 2.734.509 1.102.487 1.653 1.483.55.975.551 2.437 0 1.23-.572 2.246a4.14 4.14 0 0 1-1.653 1.611q-1.059.593-2.607.593h-3.432v-2.712h3.093q.996 0 1.484-.424.508-.424.508-1.314 0-.593-.233-.953a1.3 1.3 0 0 0-.657-.573q-.444-.19-1.144-.19zm13.583 10.277q-1.505 0-2.67-.572a4.2 4.2 0 0 1-1.822-1.716q-.657-1.145-.657-2.798 0-1.737.614-2.966a4.34 4.34 0 0 1 1.78-1.886q1.166-.657 2.797-.657 1.547 0 2.565.614a3.76 3.76 0 0 1 1.525 1.653q.509 1.06.509 2.437v.636q0 .297-.043.699h-7.692v-1.632h5.743l-.657.594q.063-1.293-.445-1.95-.509-.657-1.589-.657-1.123 0-1.696.678-.572.657-.572 2.204 0 1.463.572 2.162.594.678 1.78.678.658 0 1.06-.191.402-.212.615-.53.232-.339.339-.72l2.5.699a5 5 0 0 1-.805 1.653q-.53.741-1.462 1.166-.912.402-2.289.402m7.999-6.738h.487l-.233.805q.191-1.42.424-2.289.254-.869.593-1.314.34-.465.784-.614.445-.17 1.017-.17h.488v3.306h-1.102q-.806 0-1.293.17-.465.169-.657.593-.19.423-.19 1.187v4.789h-2.903v-10.045h2.903v4.302zm7.994-3.751v10.214h-2.882v-10.193q0-.975.381-1.716.382-.742 1.187-1.166.826-.424 2.056-.424.593 0 .953.043t.657.106l-.212 2.034a2 2 0 0 0-.508-.064 5 5 0 0 0-.467-.021q-.572 0-.868.297-.297.275-.297.89m-4.238.169h6.378v2.416h-6.378zm11.548 10.341q-1.61 0-2.776-.635a4.53 4.53 0 0 1-1.801-1.844q-.636-1.208-.636-2.84 0-1.674.636-2.86a4.4 4.4 0 0 1 1.822-1.801q1.187-.636 2.755-.636 1.589 0 2.734.636a4.26 4.26 0 0 1 1.801 1.801q.657 1.186.657 2.86 0 2.48-1.399 3.9-1.377 1.419-3.793 1.419m0-7.989q-1.124 0-1.716.721-.594.72-.594 1.928 0 .805.254 1.42.255.593.785.932.529.34 1.25.34 1.145 0 1.737-.721.594-.741.594-1.971 0-.805-.276-1.398a2.06 2.06 0 0 0-.784-.911q-.509-.34-1.25-.34m8.535 1.23h.488l-.233.805q.19-1.42.423-2.289.255-.869.594-1.314.339-.465.784-.614.445-.17 1.017-.17h.487v3.306h-1.102q-.804 0-1.292.17-.466.169-.657.593-.19.423-.191 1.187v4.789h-2.903v-10.045h2.903v4.302zm13.083-.7h.72l-.424.7q.17-1.462.615-2.289.466-.848 1.144-1.208.699-.36 1.632-.36 1.08 0 1.758.466.7.445 1.018 1.25.339.806.339 1.886v6.718h-2.882v-5.891q0-.53-.17-.933a1.33 1.33 0 0 0-.551-.635q-.36-.255-.974-.255-.573 0-.996.233a1.56 1.56 0 0 0-.636.615q-.212.381-.212.975h-.36zm-6.4-.063h.72l-.445.763q.17-1.462.636-2.289.488-.848 1.187-1.208t1.589-.36q1.081 0 1.759.466.699.445 1.017 1.25.318.806.318 1.886v6.718h-2.882v-5.891q0-.53-.17-.933a1.34 1.34 0 0 0-.55-.635q-.36-.255-.954-.255t-.996.233q-.402.212-.636.615-.212.381-.212.975v5.891h-2.903v-10.045h2.903v3.454zm17.037 7.438a3.75 3.75 0 0 1-1.569-.318 2.5 2.5 0 0 1-1.08-.975q-.403-.657-.403-1.632 0-1.377.869-2.225.869-.847 2.861-.847h2.924l.021 1.631h-2.5q-.636 0-.996.255a.79.79 0 0 0-.361.678q0 .296.128.551.148.253.466.402.339.149.89.149.614 0 1.059-.212a1.77 1.77 0 0 0 .721-.636q.254-.402.254-.89v-2.352q0-.827-.381-1.25-.361-.424-1.187-.424-.7 0-1.166.36-.444.34-.593 1.229l-2.712-.381a4.6 4.6 0 0 1 .614-1.844q.488-.826 1.462-1.293.975-.466 2.522-.466 1.526 0 2.479.488.975.466 1.399 1.377.445.89.445 2.183v6.23h-2.882v-3.179l.487.721h-.699l.382-1.611q-.043 1.356-.445 2.31-.403.954-1.166 1.462-.741.509-1.843.509m9.803-7.438h.72l-.445.763q.17-1.462.636-2.289.488-.848 1.187-1.208t1.589-.36q1.081 0 1.759.466.699.445 1.017 1.25.318.806.318 1.886v6.718h-2.882v-5.891q0-.53-.169-.933a1.34 1.34 0 0 0-.551-.635q-.36-.255-.954-.255t-.996.233q-.402.212-.636.615-.212.381-.212.975v5.891h-2.903v-10.045h2.903v3.454zm14.796 1.547a3.5 3.5 0 0 0-.361-1.039 1.84 1.84 0 0 0-.678-.72q-.424-.255-1.059-.255-.975 0-1.611.636-.614.636-.614 2.013 0 .89.275 1.505.276.593.784.89.53.297 1.187.297.678 0 1.081-.276a2 2 0 0 0 .656-.784q.234-.487.361-1.123l2.776.53q-.255 1.97-1.399 3.136-1.144 1.165-3.412 1.165-1.588 0-2.776-.593a4.26 4.26 0 0 1-1.843-1.759q-.657-1.166-.657-2.903 0-1.716.636-2.903a4.5 4.5 0 0 1 1.822-1.822q1.186-.636 2.755-.636 1.589 0 2.585.508a3.4 3.4 0 0 1 1.547 1.441q.551.933.742 2.289zm8.351 5.954q-1.504 0-2.67-.572a4.2 4.2 0 0 1-1.822-1.716q-.657-1.145-.657-2.798 0-1.737.614-2.966a4.34 4.34 0 0 1 1.78-1.886q1.166-.657 2.797-.657 1.547 0 2.565.614a3.76 3.76 0 0 1 1.525 1.653q.509 1.06.509 2.437v.636q0 .297-.043.699h-7.692v-1.632h5.743l-.657.594q.063-1.293-.445-1.95-.509-.657-1.589-.657-1.123 0-1.696.678-.572.657-.572 2.204 0 1.463.572 2.162.594.678 1.78.678.658 0 1.06-.191.402-.212.615-.53.233-.339.339-.72l2.5.699a5 5 0 0 1-.805 1.653q-.53.741-1.462 1.166-.912.402-2.289.402m14.64.021q-1.484 0-2.67-.487a5.8 5.8 0 0 1-2.034-1.377 6.2 6.2 0 0 1-1.272-2.119q-.445-1.23-.445-2.713 0-1.97.805-3.454a5.9 5.9 0 0 1 2.268-2.331q1.462-.826 3.39-.826 1.717 0 3.009.678a5.1 5.1 0 0 1 2.056 1.886q.783 1.208.953 2.86l-2.945.488q-.234-1.504-.996-2.331-.763-.827-2.162-.827-1.102 0-1.843.53a3.15 3.15 0 0 0-1.123 1.399 5 5 0 0 0-.36 1.928q0 1.208.36 2.098a3.17 3.17 0 0 0 1.123 1.377q.762.488 1.865.488.953 0 1.589-.382.636-.403 1.017-1.144.381-.742.551-1.759l2.903.424q-.17 1.653-.975 2.903a5.67 5.67 0 0 1-2.076 1.971q-1.293.72-2.988.72m9.417-6.759h.488l-.233.805q.19-1.42.424-2.289.254-.869.593-1.314.339-.465.784-.614.445-.17 1.017-.17h.487v3.306h-1.101q-.806 0-1.293.17-.466.169-.657.593-.19.423-.191 1.187v4.789h-2.903v-10.045h2.903v4.302zm8.846 6.738q-1.505 0-2.67-.572a4.2 4.2 0 0 1-1.822-1.716q-.657-1.145-.657-2.798 0-1.737.615-2.966a4.33 4.33 0 0 1 1.78-1.886q1.165-.657 2.797-.657 1.547 0 2.564.614a3.76 3.76 0 0 1 1.526 1.653q.508 1.06.508 2.437v.636q0 .297-.042.699h-7.692v-1.632h5.742l-.657.594q.064-1.293-.445-1.95-.508-.657-1.589-.657-1.123 0-1.695.678-.572.657-.572 2.204 0 1.463.572 2.162.593.678 1.78.678.657 0 1.059-.191.404-.212.615-.53.232-.339.339-.72l2.5.699a5 5 0 0 1-.805 1.653q-.53.741-1.462 1.166-.91.402-2.289.402m8.127-.063a3.75 3.75 0 0 1-1.568-.318 2.5 2.5 0 0 1-1.08-.975q-.403-.657-.403-1.632 0-1.377.869-2.225.869-.847 2.861-.847h2.924l.021 1.631h-2.5q-.636 0-.996.255a.79.79 0 0 0-.361.678q0 .296.127.551.149.253.467.402.339.149.89.149.614 0 1.059-.212a1.77 1.77 0 0 0 .721-.636q.254-.402.254-.89v-2.352q0-.827-.381-1.25-.361-.424-1.187-.424-.7 0-1.166.36-.444.34-.593 1.229l-2.712-.381a4.6 4.6 0 0 1 .614-1.844q.487-.826 1.462-1.293t2.522-.466q1.526 0 2.479.488.975.466 1.399 1.377.445.89.445 2.183v6.23h-2.882v-3.179l.487.721h-.699l.381-1.611q-.042 1.356-.445 2.31-.402.954-1.165 1.462-.741.509-1.844.509m6.567-10.257h6.696v2.416h-6.696zm1.165 6.887v-9.408h2.882v8.857q0 .594.254.89.255.297.912.297.339 0 .678-.085l.635-.148.318 2.67a29 29 0 0 1-.72.191 5 5 0 0 1-.721.127 6 6 0 0 1-.932.063q-1.166 0-1.907-.466a2.76 2.76 0 0 1-1.06-1.25 4.3 4.3 0 0 1-.339-1.738m9.347-7.946h-3.009v-1.886h3.009zm-.063 11.104h-2.882v-10.045h2.882zm7.337 0h-3.369l-3.751-10.045h3.136l1.25 3.942.594 1.907q.317.954.593 1.865.276.91.487 1.737l-1.547-2.225h1.886l-1.546 2.247q.232-.827.508-1.738.276-.933.572-1.886.318-.954.615-1.907l1.292-3.942h3.009zm8.267.275q-1.505 0-2.67-.572a4.2 4.2 0 0 1-1.823-1.716q-.656-1.145-.656-2.798 0-1.737.614-2.966a4.34 4.34 0 0 1 1.78-1.886q1.165-.657 2.797-.657 1.548 0 2.564.614a3.76 3.76 0 0 1 1.526 1.653q.509 1.06.509 2.437v.636q0 .297-.043.699h-7.692v-1.632h5.743l-.657.594q.063-1.293-.445-1.95-.509-.657-1.589-.657-1.123 0-1.696.678-.572.657-.572 2.204 0 1.463.572 2.162.594.678 1.78.678.657 0 1.06-.191.402-.212.614-.53a2.4 2.4 0 0 0 .339-.72l2.501.699a5 5 0 0 1-.805 1.653q-.53.741-1.463 1.166-.91.402-2.288.402M183.649 110.494l1.314-2.035v12.037h-3.052v-12.715h5.086q1.653 0 2.733.509 1.102.487 1.653 1.483.552.975.551 2.437 0 1.23-.572 2.246-.571 1.018-1.653 1.611-1.06.593-2.606.593h-3.433v-2.712h3.094q.996 0 1.483-.424.509-.424.509-1.314 0-.593-.233-.953a1.32 1.32 0 0 0-.657-.573q-.445-.19-1.145-.19zm11.3 10.214a3.75 3.75 0 0 1-1.568-.318 2.5 2.5 0 0 1-1.081-.975q-.402-.657-.402-1.632 0-1.377.869-2.225.868-.847 2.86-.847h2.925l.021 1.631h-2.501q-.635 0-.996.255a.79.79 0 0 0-.36.678q0 .296.127.551.149.253.467.402.338.149.89.149.613 0 1.059-.212a1.77 1.77 0 0 0 .721-.636q.254-.402.254-.89v-2.352q0-.827-.382-1.25-.36-.424-1.186-.424-.7 0-1.166.36-.444.34-.593 1.229l-2.713-.381q.128-1.039.615-1.844.487-.826 1.462-1.293t2.522-.466q1.525 0 2.479.488.975.466 1.399 1.377.445.89.445 2.183v6.23h-2.882v-3.179l.487.721h-.699l.381-1.611q-.042 1.356-.445 2.31t-1.165 1.462q-.742.509-1.844.509m10.312-11.316h-3.009v-1.886h3.009zm-.063 11.104h-2.882v-10.045h2.882zm.853-4.959q0-2.542.953-3.963.975-1.419 2.776-1.398.996-.021 1.716.403.721.402 1.145 1.292.444.89.636 2.331l-.128 1.208q0-1.229-.572-1.928-.55-.721-1.547-.721-1.101 0-1.61.742-.509.72-.509 2.034 0 1.25.488 1.95.509.699 1.631.699.657 0 1.123-.297a2 2 0 0 0 .742-.89q.254-.571.254-1.398l.128 1.165q-.128 1.06-.424 1.844-.297.762-.742 1.25a2.56 2.56 0 0 1-1.038.699 3.6 3.6 0 0 1-1.335.233q-1.823 0-2.755-1.398-.933-1.399-.932-3.857m7.098 4.959v-12.989999999999998h2.882v12.99zm.297-2.691h-.487l.021-.657h.466zm.021-4.048h-.487l-.043-.572h.53zm14.139 5.637a68 68 0 0 1 .36-1.632q.233-.932.467-1.886.254-.954.487-1.78t.424-1.377l1.674-4.938h4.429v12.715h-3.052v-5.319q0-1.103.021-2.331.043-1.251.085-2.373.043-1.145.043-1.95l.953 1.738h-1.632l1.102-1.823a448 448 0 0 1-.593 2.204q-.339 1.251-.742 2.649a81 81 0 0 1-.868 2.818l-1.526 4.387h-2.755L225 116.003a131 131 0 0 1-.848-2.839l-.72-2.522q-.318-1.208-.615-2.267l.996 1.886h-1.377l.826-1.78q.042.868.042 2.013.022 1.123.022 2.352v7.65h-2.903v-12.715h4.852l1.695 5.044q.192.509.403 1.314.233.783.466 1.737.255.954.466 1.886.213.912.339 1.653l-1.313-2.437h1.525zm13.807 1.377q-1.505 0-2.67-.572a4.2 4.2 0 0 1-1.822-1.716q-.657-1.145-.657-2.798 0-1.737.614-2.966a4.34 4.34 0 0 1 1.78-1.886q1.166-.657 2.797-.657 1.547 0 2.564.614a3.75 3.75 0 0 1 1.526 1.653q.509 1.06.509 2.437v.636q0 .297-.043.699h-7.692v-1.631h5.743l-.657.593q.063-1.293-.445-1.95-.509-.657-1.589-.657-1.123 0-1.696.679-.572.656-.572 2.203 0 1.463.572 2.162.594.678 1.78.678.657 0 1.06-.191.402-.212.614-.53a2.4 2.4 0 0 0 .339-.72l2.501.699a5 5 0 0 1-.805 1.653q-.53.742-1.462 1.166-.912.402-2.289.402m5.032-5.234q0-2.542.954-3.963.975-1.419 2.776-1.398.996-.021 1.716.403.72.402 1.144 1.292.446.89.636 2.331l-.127 1.208q0-1.229-.572-1.928-.55-.721-1.547-.721-1.103 0-1.611.742-.508.72-.508 2.034 0 1.25.487 1.95.508.699 1.632.699.657 0 1.123-.297.487-.318.742-.89.254-.571.254-1.398l.127 1.165q-.127 1.06-.424 1.844-.296.762-.741 1.25a2.55 2.55 0 0 1-1.039.699 3.6 3.6 0 0 1-1.335.233q-1.822 0-2.755-1.398-.932-1.399-.932-3.857m7.099 4.959v-12.989999999999998h2.882v12.99zm.297-2.691h-.488l.021-.657h.467zm.021-4.048h-.488l-.042-.572h.53zm6.735-4.365h-3.009v-1.886h3.009zm-.064 11.104h-2.882v-10.045h2.882zm3.989.212a3.75 3.75 0 0 1-1.568-.318 2.5 2.5 0 0 1-1.08-.975q-.403-.657-.403-1.632 0-1.377.869-2.225.868-.847 2.86-.847h2.925l.021 1.631h-2.501q-.635 0-.996.255a.79.79 0 0 0-.36.678q0 .296.127.551.149.253.467.402.339.149.89.149.613 0 1.059-.212a1.77 1.77 0 0 0 .721-.636q.254-.402.254-.89v-2.352q0-.827-.382-1.25-.36-.424-1.186-.424-.7 0-1.166.36-.444.34-.593 1.229l-2.712-.381a4.6 4.6 0 0 1 .614-1.844q.487-.826 1.462-1.293t2.522-.466q1.526 0 2.479.488.975.466 1.399 1.377.444.89.445 2.183v6.23h-2.882v-3.179l.487.721h-.699l.381-1.611q-.042 1.356-.445 2.31-.402.954-1.165 1.462-.742.509-1.844.509"/><path fill="#FFFEFB" d="M97.618 202.288q-1.484 0-2.67-.487a5.8 5.8 0 0 1-2.034-1.378 6.1 6.1 0 0 1-1.272-2.119q-.445-1.228-.445-2.712 0-1.97.805-3.454a5.9 5.9 0 0 1 2.268-2.331q1.463-.827 3.39-.827 1.717 0 3.009.678a5.1 5.1 0 0 1 2.056 1.886q.784 1.209.953 2.861l-2.945.488q-.232-1.505-.996-2.331t-2.161-.827q-1.103 0-1.844.53a3.16 3.16 0 0 0-1.123 1.398q-.36.87-.36 1.929 0 1.207.36 2.098a3.2 3.2 0 0 0 1.123 1.377q.762.487 1.865.487.953 0 1.589-.381.636-.403 1.017-1.144.381-.742.551-1.759l2.903.424q-.17 1.653-.975 2.903a5.7 5.7 0 0 1-2.076 1.971q-1.293.72-2.988.72m11.664 0q-1.61 0-2.776-.636a4.5 4.5 0 0 1-1.801-1.843q-.636-1.208-.636-2.84 0-1.673.636-2.861a4.4 4.4 0 0 1 1.822-1.801q1.186-.636 2.755-.635 1.588 0 2.733.635a4.26 4.26 0 0 1 1.801 1.801q.657 1.188.657 2.861 0 2.48-1.398 3.899-1.377 1.42-3.793 1.42m0-7.989q-1.123 0-1.717.721-.593.72-.593 1.928 0 .805.254 1.42.255.593.784.932.53.339 1.25.339 1.145 0 1.738-.72.594-.742.593-1.971 0-.805-.275-1.399a2.08 2.08 0 0 0-.784-.911q-.509-.339-1.25-.339m8.471.466h.721l-.445.763q.17-1.462.636-2.288.487-.848 1.186-1.208.7-.36 1.59-.36 1.08 0 1.758.466.7.444 1.018 1.25.318.805.317 1.886v6.717h-2.881V196.1q0-.53-.17-.932a1.35 1.35 0 0 0-.551-.636q-.36-.254-.954-.254-.593 0-.995.233a1.56 1.56 0 0 0-.636.615q-.212.381-.212.974v5.891h-2.903v-10.044h2.903v3.454zm7.234-2.818h6.697v2.416h-6.697zm1.166 6.887v-9.409h2.882v8.858q0 .593.254.89.255.297.911.297.339 0 .678-.085l.636-.148.318 2.67q-.38.106-.721.19a4.6 4.6 0 0 1-.72.127 6 6 0 0 1-.932.064q-1.166 0-1.908-.466a2.77 2.77 0 0 1-1.059-1.25 4.3 4.3 0 0 1-.339-1.738m10.878 3.433q-1.505 0-2.67-.572a4.2 4.2 0 0 1-1.823-1.717q-.657-1.144-.657-2.797 0-1.737.615-2.967a4.34 4.34 0 0 1 1.78-1.886q1.165-.656 2.797-.656 1.547 0 2.564.614a3.76 3.76 0 0 1 1.526 1.653q.509 1.06.509 2.437v.636q0 .296-.043.699h-7.692v-1.632h5.743l-.657.594q.063-1.293-.445-1.95t-1.59-.657q-1.122 0-1.695.678-.572.657-.572 2.204 0 1.462.572 2.161.594.68 1.78.679.657 0 1.06-.191.402-.212.614-.53a2.4 2.4 0 0 0 .339-.72l2.501.699a5 5 0 0 1-.805 1.653q-.53.742-1.463 1.165-.91.403-2.288.403m7.935-7.502h.72l-.445.763q.17-1.462.636-2.288.488-.848 1.187-1.208t1.589-.36q1.081 0 1.759.466.699.444 1.017 1.25.318.805.318 1.886v6.717h-2.882V196.1q0-.53-.169-.932a1.35 1.35 0 0 0-.551-.636q-.36-.254-.954-.254t-.996.233q-.402.212-.636.615-.212.381-.212.974v5.891h-2.903v-10.044h2.903v3.454zm7.234-2.818h6.696v2.416H152.2zm1.165 6.887v-9.409h2.882v8.858q0 .593.255.89.254.297.911.297.339 0 .678-.085.36-.085.636-.148l.318 2.67q-.382.106-.721.19a4.7 4.7 0 0 1-.72.127 6 6 0 0 1-.933.064q-1.166 0-1.907-.466a2.8 2.8 0 0 1-1.06-1.25 4.3 4.3 0 0 1-.339-1.738m12.259 3.369a3.75 3.75 0 0 1-1.568-.318 2.5 2.5 0 0 1-1.081-.974q-.402-.657-.402-1.632 0-1.377.868-2.225.87-.848 2.861-.848h2.924l.022 1.632h-2.501q-.636 0-.996.254a.79.79 0 0 0-.36.678q0 .297.127.551.148.255.466.403.34.148.89.148.615 0 1.06-.212.466-.233.72-.635.255-.403.255-.89v-2.352q0-.826-.382-1.251-.36-.424-1.187-.424-.699 0-1.165.361-.445.339-.593 1.229l-2.713-.382q.127-1.038.615-1.843.487-.826 1.462-1.293t2.522-.466q1.525 0 2.479.487.975.466 1.399 1.378.445.89.445 2.182v6.23h-2.882v-3.178l.487.72h-.699l.381-1.61q-.042 1.356-.445 2.31-.403.953-1.165 1.462-.742.508-1.844.508m9.804-7.438h.72l-.445.763q.17-1.462.636-2.288.487-.848 1.186-1.208.7-.36 1.59-.36 1.08 0 1.758.466.7.444 1.018 1.25.318.805.318 1.886v6.717h-2.882V196.1q0-.53-.17-.932a1.35 1.35 0 0 0-.551-.636q-.36-.254-.953-.254-.594 0-.996.233a1.56 1.56 0 0 0-.636.615q-.212.381-.212.974v5.891h-2.903v-10.044h2.903v3.454zm7.505 2.268q0-2.542.954-3.963.975-1.42 2.776-1.398.996-.022 1.716.402.721.403 1.145 1.293.444.89.635 2.331l-.127 1.208q0-1.23-.572-1.929-.55-.72-1.547-.72-1.101 0-1.61.741-.509.721-.509 2.035 0 1.25.488 1.949.509.7 1.631.7.657 0 1.123-.297.487-.318.742-.89.254-.572.254-1.399l.127 1.166q-.127 1.06-.423 1.843-.297.763-.742 1.251a2.56 2.56 0 0 1-1.038.699 3.6 3.6 0 0 1-1.335.233q-1.823 0-2.755-1.399-.933-1.398-.933-3.856m7.099 4.958v-12.989h2.882v12.989zm.297-2.691h-.487l.021-.657h.466zm.021-4.047h-.487l-.043-.572h.53zm12.211 7.035q-1.547-.021-2.607-.36-1.059-.36-1.737-.975a4.4 4.4 0 0 1-1.017-1.399 6 6 0 0 1-.445-1.652l2.987-.594q.149.763.551 1.293.424.53 1.06.805.636.255 1.42.254.953 0 1.462-.317.53-.318.53-.933a.92.92 0 0 0-.276-.678q-.254-.297-.89-.508-.615-.213-1.759-.382-1.758-.276-2.776-.826-.996-.552-1.441-1.357a3.94 3.94 0 0 1-.423-1.822q0-1.78 1.271-2.818 1.272-1.04 3.772-1.039 1.758 0 2.861.551 1.101.552 1.695 1.462.615.912.826 2.077l-3.009.615q-.17-.721-.487-1.187a1.83 1.83 0 0 0-.784-.72q-.487-.234-1.272-.234-.869 0-1.335.339a1.07 1.07 0 0 0-.445.89q0 .34.191.615.19.275.827.509.656.232 1.991.445 1.357.212 2.225.614.89.381 1.399.911.53.509.742 1.145.212.614.212 1.292 0 1.208-.573 2.119-.55.89-1.716 1.378t-3.03.487M210 189.277h8.328v2.882H210zm-.021 9.832h8.349v2.882h-8.349zm-.021-2.267v-2.543h7.84v2.543zm1.822 5.149h-3.051v-12.714h3.051zm13.647.297q-1.568 0-2.797-.487a5.9 5.9 0 0 1-2.055-1.42 6.4 6.4 0 0 1-1.272-2.119 7.8 7.8 0 0 1-.445-2.67q0-1.929.805-3.412a6.05 6.05 0 0 1 2.289-2.331q1.483-.869 3.475-.869 1.504 0 2.713.509a5.75 5.75 0 0 1 2.076 1.377q.848.87 1.293 2.077.466 1.208.466 2.649 0 1.907-.784 3.433a5.7 5.7 0 0 1-2.225 2.394q-1.462.869-3.539.869m0-2.734q1.165 0 1.95-.487a3.06 3.06 0 0 0 1.165-1.398q.403-.912.403-2.098 0-1.06-.403-1.929a3.2 3.2 0 0 0-1.186-1.377q-.763-.53-1.929-.53t-1.949.53a3.2 3.2 0 0 0-1.187 1.377 4.75 4.75 0 0 0-.381 1.929q0 1.186.381 2.098a3.06 3.06 0 0 0 1.166 1.398q.783.487 1.97.487"/><path fill="#1E2037" d="M77.766 280.881q.996 0 1.525-.382.552-.381.763-1.017.234-.657.233-1.462v-7.247h3.052v7.671q0 2.5-1.441 3.92-1.42 1.399-4.132 1.399-2.734 0-4.196-1.399-1.462-1.42-1.462-3.92v-7.671h3.051v7.226q0 .805.233 1.462.255.657.827 1.038.572.382 1.547.382m11.036 2.903q-1.695 0-2.67-.466-.975-.467-1.44-1.229a4.8 4.8 0 0 1-.615-1.696l2.69-.529q.15.572.404.974.254.382.656.594.424.212 1.039.212.72 0 1.06-.233.337-.255.36-.721a.76.76 0 0 0-.17-.487q-.17-.213-.636-.382-.466-.19-1.377-.36-1.42-.297-2.246-.72-.806-.445-1.166-1.039-.36-.615-.36-1.441 0-1.44 1.038-2.267 1.06-.827 3.158-.827 1.44 0 2.352.382.932.36 1.42 1.059.487.678.678 1.611l-2.755.614q-.17-.805-.572-1.186-.403-.403-1.145-.403-.635 0-.974.233a.75.75 0 0 0-.34.657q0 .276.128.509.148.232.635.423.489.17 1.463.361 1.441.296 2.246.741t1.123 1.06q.339.615.339 1.356 0 .975-.466 1.695-.445.721-1.399 1.123-.953.382-2.458.382m9.842-.021q-1.505 0-2.67-.572a4.2 4.2 0 0 1-1.822-1.717q-.657-1.144-.657-2.797 0-1.737.614-2.967a4.34 4.34 0 0 1 1.78-1.886q1.166-.657 2.798-.657 1.546 0 2.564.615a3.75 3.75 0 0 1 1.525 1.653q.509 1.059.509 2.437v.635q0 .297-.042.7H95.55v-1.632h5.743l-.657.593q.064-1.292-.445-1.949-.508-.657-1.59-.657-1.122 0-1.694.678-.573.657-.573 2.204 0 1.462.573 2.161.593.678 1.78.678.656 0 1.06-.19.401-.213.614-.53.233-.339.339-.721l2.5.7a5 5 0 0 1-.805 1.653q-.53.742-1.462 1.165-.911.403-2.289.403m7.999-6.739h.487l-.233.805q.191-1.42.424-2.288.255-.868.593-1.314.34-.466.784-.615a2.9 2.9 0 0 1 1.018-.169h.487v3.306h-1.102q-.805 0-1.293.169-.465.17-.656.593-.192.425-.191 1.187v4.789h-2.903v-10.044h2.903v4.302zm8.683-6.251h8.328v2.882h-8.328zm-.021 9.832h8.349v2.882h-8.349zm-.022-2.267v-2.543h7.841v2.543zm1.823 5.149h-3.052v-12.714h3.052zm10.443-10.044 2.225 4.937 1.356-.318 3.03 5.383v.042h-3.348l-2.246-4.937-1.356.296-3.009-5.361v-.042zm-.276 4.026 2.331.657-2.225 5.361h-3.242v-.042zm3.793 1.992-2.352-.678 2.247-5.34h3.072v.042zm-2.288.254v-2.543h1.208v2.543zm15.908-1.314q0 2.544-.953 3.963-.954 1.42-2.776 1.42a3.6 3.6 0 0 1-1.335-.233 2.6 2.6 0 0 1-1.017-.7q-.424-.486-.721-1.25-.276-.784-.403-1.843l.128-1.229q0 .827.233 1.419.254.594.741.912.488.317 1.145.317 1.08 0 1.589-.72.509-.742.509-2.034 0-1.272-.509-1.95-.488-.699-1.589-.699-.657 0-1.145.296a1.87 1.87 0 0 0-.741.869q-.234.573-.233 1.399l-.128-1.144q.17-1.441.615-2.331.466-.891 1.187-1.293.741-.402 1.737-.403 1.822 0 2.734 1.399.932 1.377.932 3.835m-7.077-4.958v12.926h-2.904v-12.926zm-.318 3.348v-.636h.487l-.021.636zm-.021 3.984v-.572h.508l.021.572zm12.944 2.988q-1.505 0-2.67-.572a4.2 4.2 0 0 1-1.823-1.717q-.657-1.144-.657-2.797 0-1.737.615-2.967a4.34 4.34 0 0 1 1.78-1.886q1.165-.657 2.797-.657 1.547 0 2.564.615a3.75 3.75 0 0 1 1.526 1.653q.508 1.059.508 2.437v.635q0 .297-.042.7h-7.692v-1.632h5.742l-.657.593q.065-1.292-.445-1.949-.508-.657-1.589-.657-1.123 0-1.695.678-.572.657-.572 2.204 0 1.462.572 2.161.593.678 1.78.678.657 0 1.059-.19a1.6 1.6 0 0 0 .615-.53q.233-.339.339-.721l2.501.7a5 5 0 0 1-.806 1.653q-.53.742-1.462 1.165-.91.403-2.288.403m7.998-6.739h.488l-.233.805q.19-1.42.423-2.288.255-.868.594-1.314.339-.466.784-.615a2.8 2.8 0 0 1 1.017-.169h.487v3.306h-1.102q-.804 0-1.292.169-.466.17-.657.593-.19.425-.191 1.187v4.789h-2.903v-10.044h2.903v4.302zm7.192-4.641h-3.01v-1.886h3.01zm-.064 11.104h-2.882v-10.044h2.882zm6.002.276q-1.504 0-2.67-.572a4.2 4.2 0 0 1-1.822-1.717q-.657-1.144-.657-2.797 0-1.737.614-2.967a4.34 4.34 0 0 1 1.78-1.886q1.166-.657 2.797-.657 1.547 0 2.565.615a3.75 3.75 0 0 1 1.525 1.653q.509 1.059.509 2.437v.635q0 .297-.043.7h-7.692v-1.632h5.743l-.657.593q.063-1.292-.445-1.949-.509-.657-1.589-.657-1.123 0-1.696.678-.572.657-.572 2.204 0 1.462.572 2.161.594.678 1.78.678.657 0 1.06-.19.402-.213.615-.53.233-.339.339-.721l2.5.7a5 5 0 0 1-.805 1.653q-.53.742-1.462 1.165-.912.403-2.289.403m7.935-7.502h.721l-.445.763q.17-1.463.635-2.289.488-.847 1.187-1.207t1.589-.361q1.081 0 1.759.467a2.54 2.54 0 0 1 1.017 1.25q.318.805.318 1.886v6.717h-2.882v-5.891q0-.53-.169-.932a1.34 1.34 0 0 0-.551-.636q-.36-.254-.954-.254-.592 0-.996.233-.402.212-.635.614-.212.382-.212.975v5.891h-2.903v-10.044h2.903v3.454zm14.796 1.547a3.5 3.5 0 0 0-.36-1.038 1.86 1.86 0 0 0-.679-.721q-.423-.254-1.059-.254-.975 0-1.611.636-.614.636-.614 2.013 0 .89.275 1.504.276.594.784.89.53.297 1.187.297.678 0 1.081-.275.423-.298.657-.784.232-.488.36-1.124l2.776.53q-.255 1.97-1.399 3.136t-3.411 1.166q-1.59 0-2.776-.593a4.27 4.27 0 0 1-1.844-1.759q-.657-1.166-.657-2.903 0-1.717.636-2.904a4.53 4.53 0 0 1 1.822-1.822q1.187-.636 2.755-.636 1.59 0 2.585.509a3.4 3.4 0 0 1 1.547 1.441q.552.932.742 2.289zm8.351 5.955q-1.504 0-2.67-.572a4.2 4.2 0 0 1-1.822-1.717q-.657-1.144-.657-2.797 0-1.737.615-2.967a4.34 4.34 0 0 1 1.78-1.886q1.165-.657 2.797-.657 1.547 0 2.564.615a3.75 3.75 0 0 1 1.526 1.653q.508 1.059.508 2.437v.635q0 .297-.042.7h-7.692v-1.632h5.742l-.657.593q.064-1.292-.445-1.949t-1.589-.657q-1.123 0-1.695.678-.573.657-.572 2.204 0 1.462.572 2.161.593.678 1.78.678.657 0 1.059-.19a1.6 1.6 0 0 0 .615-.53q.232-.339.339-.721l2.5.7a5 5 0 0 1-.805 1.653q-.53.742-1.462 1.165-.91.403-2.289.403"/><path fill="#FFFEFB" d="M88.611 363.881q.15-.72.36-1.632.234-.932.467-1.886.255-.953.487-1.78.234-.827.424-1.377l1.674-4.938h4.429v12.715H93.4v-5.319q0-1.103.022-2.331.042-1.25.085-2.373.042-1.145.042-1.95l.953 1.738h-1.631l1.102-1.823q-.255.954-.594 2.204t-.741 2.649a80 80 0 0 1-.87 2.818l-1.525 4.387h-2.755l-1.483-4.493q-.465-1.504-.848-2.839l-.72-2.522q-.318-1.208-.615-2.267l.996 1.886h-1.377l.826-1.78q.043.868.043 2.013.02 1.124.02 2.352v7.65h-2.902v-12.715h4.853l1.695 5.044q.19.509.402 1.314.234.784.466 1.737.255.954.467 1.886.212.912.339 1.653l-1.314-2.437h1.526zm13.807 1.377q-1.504 0-2.67-.572a4.2 4.2 0 0 1-1.822-1.716q-.657-1.145-.657-2.797 0-1.739.614-2.967a4.34 4.34 0 0 1 1.78-1.886q1.166-.657 2.798-.657 1.547 0 2.564.615a3.75 3.75 0 0 1 1.525 1.652q.51 1.06.509 2.437v.636q0 .297-.042.699h-7.692v-1.631h5.742l-.657.593q.064-1.293-.445-1.95-.509-.656-1.589-.656-1.123 0-1.695.678-.572.657-.572 2.203 0 1.463.572 2.162.593.678 1.78.678.657 0 1.059-.191.403-.212.615-.529.233-.34.339-.721l2.5.699a5 5 0 0 1-.805 1.653q-.53.742-1.462 1.166-.911.402-2.289.402m8.127-.063a3.75 3.75 0 0 1-1.568-.318 2.5 2.5 0 0 1-1.081-.975q-.402-.657-.402-1.632 0-1.376.869-2.225.868-.847 2.86-.847h2.925l.021 1.631h-2.501q-.635 0-.996.255a.79.79 0 0 0-.36.678q0 .296.127.551.149.254.466.402.34.149.89.149.615 0 1.06-.212.467-.233.72-.636.255-.402.255-.89v-2.352q0-.827-.382-1.25-.36-.424-1.186-.424-.7 0-1.166.36-.444.34-.593 1.229l-2.713-.381a4.6 4.6 0 0 1 .615-1.844q.487-.827 1.462-1.292.975-.467 2.522-.467 1.525 0 2.479.488.975.466 1.399 1.377.445.89.445 2.183v6.23h-2.882v-3.179l.487.721h-.699l.381-1.611q-.042 1.356-.445 2.31t-1.165 1.462q-.742.509-1.844.509m11.52.085q-1.695 0-2.67-.467-.975-.465-1.441-1.229a4.8 4.8 0 0 1-.614-1.695l2.691-.53q.149.573.402.975.255.381.657.593.424.212 1.039.212.72 0 1.059-.233.339-.254.36-.72a.76.76 0 0 0-.169-.488q-.17-.212-.636-.381-.467-.19-1.377-.36-1.42-.297-2.246-.721-.806-.445-1.166-1.038-.36-.615-.36-1.441 0-1.442 1.038-2.268 1.06-.826 3.158-.826 1.44 0 2.352.381.932.361 1.42 1.06.487.678.678 1.61l-2.755.615q-.17-.805-.572-1.187-.403-.402-1.145-.402-.635 0-.974.233a.75.75 0 0 0-.339.657q0 .275.127.508.149.234.636.424.486.17 1.462.36 1.44.297 2.246.742.805.445 1.123 1.06.339.613.339 1.356 0 .975-.466 1.695-.445.72-1.399 1.123-.953.382-2.458.382m11.792-3.094h-.721l.445-.763q-.17 1.44-.635 2.288-.467.848-1.166 1.208-.7.36-1.61.361-1.081 0-1.759-.445a2.84 2.84 0 0 1-1.017-1.272q-.318-.827-.318-1.907v-6.718h2.903v5.891q0 .51.169.933.17.423.53.678.381.233.975.233.571 0 .975-.212.423-.233.635-.636.234-.423.233-.996v-5.891h2.882v10.045h-2.882v-3.433zm6.277-3.666h.487l-.233.805q.19-1.42.424-2.289.254-.869.593-1.313.339-.466.784-.615.446-.17 1.017-.17h.488v3.306h-1.102q-.805 0-1.293.17-.467.17-.657.593-.19.424-.191 1.187v4.789h-2.903v-10.045h2.903v4.302zm8.846 6.738q-1.504 0-2.67-.572a4.2 4.2 0 0 1-1.823-1.716q-.657-1.145-.657-2.797 0-1.739.615-2.967a4.34 4.34 0 0 1 1.78-1.886q1.165-.657 2.797-.657 1.547 0 2.564.615a3.75 3.75 0 0 1 1.526 1.652q.508 1.06.508 2.437v.636q0 .297-.042.699h-7.692v-1.631h5.743l-.657.593q.063-1.293-.445-1.95-.509-.656-1.59-.656-1.123 0-1.695.678-.572.657-.572 2.203 0 1.463.572 2.162.594.678 1.78.678.657 0 1.06-.191.402-.212.614-.529.234-.34.339-.721l2.501.699a5 5 0 0 1-.806 1.653q-.53.742-1.462 1.166-.91.402-2.288.402m14.334-7.438h.721l-.424.7q.17-1.463.615-2.289.466-.848 1.144-1.208.699-.36 1.632-.36 1.08 0 1.758.466a2.55 2.55 0 0 1 1.018 1.25q.339.806.339 1.886v6.718h-2.882v-5.891q0-.53-.17-.933a1.33 1.33 0 0 0-.551-.635q-.36-.255-.975-.255-.572 0-.995.234a1.56 1.56 0 0 0-.636.614q-.212.381-.212.975h-.36zm-6.399-.063h.72l-.445.763q.17-1.463.636-2.289.488-.848 1.187-1.208t1.589-.36q1.081 0 1.759.466.699.446 1.017 1.25.318.806.318 1.886v6.718h-2.882v-5.891q0-.53-.17-.933a1.33 1.33 0 0 0-.551-.635q-.36-.255-.953-.255-.594 0-.996.234-.402.212-.636.614-.212.381-.212.975v5.891h-2.903v-10.045h2.903v3.455zm19.05 7.501q-1.504 0-2.67-.572a4.2 4.2 0 0 1-1.823-1.716q-.657-1.145-.657-2.797 0-1.739.615-2.967a4.34 4.34 0 0 1 1.78-1.886q1.165-.657 2.797-.657 1.547 0 2.564.615a3.75 3.75 0 0 1 1.526 1.652q.508 1.06.508 2.437v.636q0 .297-.042.699h-7.692v-1.631h5.742l-.656.593q.063-1.293-.445-1.95-.51-.656-1.59-.656-1.123 0-1.695.678-.572.657-.572 2.203 0 1.463.572 2.162.594.678 1.78.678.657 0 1.06-.191.402-.212.614-.529.232-.34.339-.721l2.501.699a5 5 0 0 1-.806 1.653q-.53.742-1.462 1.166-.91.402-2.288.402m7.935-7.501h.72l-.445.763q.17-1.463.636-2.289.488-.848 1.187-1.208t1.589-.36q1.08 0 1.759.466.699.446 1.017 1.25.318.806.318 1.886v6.718h-2.882v-5.891q0-.53-.17-.933a1.33 1.33 0 0 0-.551-.635q-.36-.255-.953-.255-.594 0-.996.234-.403.212-.636.614-.212.381-.212.975v5.891h-2.903v-10.045h2.903v3.455zm7.234-2.819h6.696v2.416h-6.696zm1.165 6.887v-9.408h2.882v8.857q0 .594.254.89.255.297.912.297.339 0 .678-.085l.635-.148.318 2.67a29 29 0 0 1-.72.191 5 5 0 0 1-.721.127 6 6 0 0 1-.932.064q-1.166 0-1.907-.467a2.76 2.76 0 0 1-1.06-1.25 4.3 4.3 0 0 1-.339-1.738"/></svg>