<?xml version="1.0" encoding="UTF-8"?> <svg xmlns="http://www.w3.org/2000/svg" width="254" height="32" viewBox="0 0 254 32" fill="none"><g id="Logo Here"><path id="Vector" fill-rule="evenodd" clip-rule="evenodd" d="M193.589 13.5285C194.873 15.2494 193.992 17.3506 192.249 18.3106C189.018 20.0885 185.133 20.4865 180.087 19.5356C180.138 19.2109 180.205 18.8762 180.288 18.531C180.999 15.565 183.111 13.151 185.924 12.0885C188.474 11.0912 191.791 11.1146 193.589 13.5267V13.5285ZM193.544 20.739C192.488 21.366 191.347 21.8359 190.159 22.1347C186.858 22.9995 183.404 23.0768 180.067 22.3602C180.295 26.3335 184.063 29.0675 187.76 29.1459C190.069 29.1937 192.353 28.3617 194.276 27.0714C194.813 27.7825 195.48 28.4933 195.907 29.2703C193.331 31.4837 189.061 32.3743 185.812 31.7591C183.119 31.2435 180.567 29.7057 179.008 27.3949C177.737 25.5105 177.162 23.1781 177.2 20.8882C177.331 13.1463 185.439 6.3304 192.936 9.66378C196.123 11.0804 197.946 15.075 196.066 18.2663C195.438 19.2885 194.572 20.1378 193.544 20.739ZM172.743 0.0835593L168.532 25.361C168.259 27.7965 169.885 28.6943 170.596 28.9679C171.915 29.4749 173.744 29.2667 174.69 27.8925L176.923 29.4767C175.787 31.0871 173.948 32.0299 171.999 31.9993C171.191 31.9953 170.391 31.8432 169.635 31.5494C166.954 30.5201 165.494 28.0277 165.827 25.0428C166.286 20.9381 168.804 7.55714 169.707 2.84453H163.689L164.1 0.0835593H172.743ZM155.437 0.0693568C155.42 0.159963 154.682 4.42133 153.78 9.24433H161.983L161.575 12.0157H153.271C152.283 17.3471 151.25 23.0111 150.998 25.2755C150.722 27.713 152.283 28.6837 152.995 28.9573C154.313 29.4639 156.144 29.2561 157.087 27.8819L159.32 29.4657C158.185 31.0765 156.346 32.0189 154.397 31.9883C153.588 31.9872 152.787 31.8373 152.031 31.5457C149.349 30.5167 148 27.9085 148.333 24.9235C148.587 22.6411 149.536 17.2332 150.494 12.0157H144.632L145.132 9.24972H151.007C151.928 4.33577 152.731 0.440771 152.802 0.0693568H155.437ZM123.241 25.713L125.596 27.0782C128.6 28.831 132.971 30.5662 136.086 28.0899C137.183 27.2242 137.744 25.6935 137.357 24.4492C136.85 22.8294 135.389 22.2074 132.161 21.4272C128.771 20.611 124.68 19.0538 124.993 14.4937C125.112 12.7588 125.848 11.3026 127.198 10.3926C131.84 7.27102 138.525 9.68683 139.399 9.93743L140.646 10.293L139.921 15.0128H137.123L137.541 12.277C137.572 12.0638 134.756 11.582 134.513 11.5554C132.847 11.3774 131.156 11.5284 129.618 12.2662C128.378 12.8656 127.444 13.973 127.829 15.4202C128.441 17.6602 130.976 18.243 132.871 18.7765C135.961 19.637 139.476 20.4866 140.111 23.9318C140.532 26.225 139.679 28.8292 137.789 30.3317C135.644 32.0382 132.516 32.2126 129.932 31.7308C127.857 31.3259 125.876 30.5234 124.096 29.3664C123.9 29.6188 123.668 30.019 123.439 30.2551C120.648 33.1456 115.812 32.1715 113.89 28.7939C113.744 28.529 112.991 26.9966 113.19 26.714C111.441 29.1902 108.936 31.592 105.847 31.9476C103.165 32.2481 99.9762 31.0962 98.5968 28.6462C97.3764 26.4882 97.6332 24.2855 97.9709 22.3994L99.6947 12.2059H93.3078L93.8131 9.51603H102.922L100.626 22.8916C100.296 24.739 100.24 26.0437 100.939 27.2882C101.701 28.6394 103.2 29.0837 104.324 29.2204C106.739 29.5138 109.038 27.962 111.08 25.0215C111.798 23.9962 112.447 22.9215 113.02 21.8054L114.828 12.2059H108.389L108.775 9.51603H117.883L115.89 21.5211C115.575 24.0615 115.143 28.017 118.162 29.0711C119.311 29.4714 120.664 29.2293 121.526 28.3406C122.192 27.6437 122.727 26.6284 123.241 25.713ZM83.3574 0H95.0844L94.6783 2.77621H90.3426L85.9173 29.2254H90.4612L90.0554 31.9999H78.1191L78.5228 29.2254H83.2009L85.307 17.1683H66.9064L64.7985 29.2254H69.1324L68.7267 31.9999H57L57.4061 29.2254H62.0818L66.5093 2.77621H61.8346L62.2383 0H73.9671L73.5612 2.77621H69.2257L67.3706 14.3921H85.7729L87.6263 2.77621H82.9519L83.3574 0Z" fill="#FFFEFB"></path></g></svg> 