<?xml version="1.0" encoding="UTF-8"?> <svg xmlns="http://www.w3.org/2000/svg" width="24" height="24" viewBox="0 0 24 24" fill="none"><path d="M18.7094 21.25H8.47946C7.07946 21.25 5.93945 20.11 5.93945 18.71V8.48001C5.93945 7.08001 7.07946 5.94 8.47946 5.94H18.7094C20.1094 5.94 21.2495 7.08001 21.2495 8.48001V18.71C21.2495 20.11 20.1094 21.25 18.7094 21.25Z" stroke="#FF6A39" stroke-width="1.5" stroke-linecap="round" stroke-linejoin="round"></path><path d="M3.48999 17.32C3.02999 16.86 2.75 16.22 2.75 15.52V5.29001C2.75 3.89001 3.89001 2.75 5.29001 2.75H15.52C16.31 2.75 17.02 3.10999 17.49 3.67999" stroke="#FF6A39" stroke-width="1.5" stroke-linecap="round" stroke-linejoin="round"></path><path d="M5.93945 18.1L8.86945 15.17C9.36945 14.67 10.1795 14.67 10.6695 15.17L11.4195 15.92C11.9195 16.42 12.7295 16.42 13.2195 15.92L16.5194 12.62C17.0194 12.12 17.8295 12.12 18.3195 12.62L21.2495 15.55" stroke="#FF6A39" stroke-width="1.5" stroke-linecap="round" stroke-linejoin="round"></path><path d="M10.4095 8.42004C9.63955 8.42004 9.01953 9.04003 9.01953 9.81003C9.01953 10.58 9.63955 11.2 10.4095 11.2C11.1795 11.2 11.7995 10.58 11.7995 9.81003C11.7995 9.04003 11.1695 8.42004 10.4095 8.42004Z" fill="#FF6A39"></path></svg> 