<?xml version="1.0" encoding="UTF-8"?> <svg xmlns="http://www.w3.org/2000/svg" xmlns:xlink="http://www.w3.org/1999/xlink" id="Layer_1" data-name="Layer 1" version="1.1" viewBox="0 0 1440 659"><defs><style> .cls-1 { stroke: #0a91ab; } .cls-1, .cls-2, .cls-3, .cls-4, .cls-5, .cls-6, .cls-7, .cls-8 { fill: none; } .cls-1, .cls-3, .cls-4, .cls-5, .cls-6, .cls-7, .cls-8 { stroke-linecap: round; stroke-linejoin: round; } .cls-1, .cls-4 { stroke-width: 1.4px; } .cls-9 { clip-path: url(#clippath); } .cls-2 { stroke-width: 0px; } .cls-3 { stroke-width: 13.9px; } .cls-3, .cls-8 { stroke: #ff6a39; } .cls-4 { stroke: #0c2233; } .cls-5 { stroke-width: 3.5px; } .cls-5, .cls-6, .cls-7 { stroke: #cefd94; } .cls-6 { stroke-width: 5.6px; } .cls-7 { stroke-width: 2.8px; } .cls-8 { stroke-width: 7px; } </style><clipPath id="clippath"><rect class="cls-2" width="1440" height="659"></rect></clipPath></defs><g class="cls-9"><path class="cls-6" d="M1540-73.6c-7.8,14.5-19.5,26.4-34.3,36-24.2,15.7-48.7,30.9-71.6,48.5-15.4,11.8-28.1,26.4-38.6,43.1-19.1,30.3-26.4,63.6-27.1,98.8-.5,27.1-3.9,53.9-10.2,80.2-2.7,11.3-7.4,22.2-7.9,33.8-.9,19.7,5.7,37.5,16,54.1,10.8,17.3,24.3,32.2,40.8,43.8,14,9.9,29.2,18.6,47.9,15.6,2.6-.4,5-1.1,7.3-2,20.1-7.3,40.3-14.4,59.8-22.9,6.1-2.7,12.1-5.7,17.9-8.9"></path><path class="cls-5" d="M1540-5c-21.7,16.4-43.5,32.5-66,47.7-16.1,10.8-30.2,23.5-41.2,39.2-10.8,15.4-17.4,32.8-21.1,51.4-5.9,29.3-10.7,58.7-12.9,88.5-1.1,15-2.5,30-1.6,45,1.4,24.2,10.9,45.3,27.8,62.2,16.2,16.3,36.4,18.1,57.7,11.7,21.4-6.4,39.8-18.2,57.4-31.5"></path><path class="cls-7" d="M1414.8-350c0,1.6.1,3.2.2,4.9.7,22.4-1.1,44.7-6.7,66.3-2.7,10.5-7,20.7-12.3,30.4-10.1,18.3-15.5,38-18.3,58.6-2.4,17.8-11.9,31.8-24.2,44.1-11.7,11.7-23,23.8-32.3,37.4-3.1,4.5-6.2,9.2-8.6,14.4-5.6,12.5-13.4,23.8-20.4,35.5-5.9,9.8-12.2,19.4-18.3,29-7.2,11.2-14.4,22.4-22.2,33.3-4.3,5.9-8,12.5-11.8,18.8-8.6,13.9-15.5,28.7-21.6,43.8-11.7,28.7-16.5,58.1-7.6,88.8,3.6,12.4,5.7,24.9,3.4,38.3-1.8,10.9-6.7,19.8-12.4,28.2-5,7.3-9.6,14.8-14.1,22.3-9.1,15-18.1,30-27.8,44.6-5.4,8.1-12.4,15-17.5,23.5-5.8,9.9-7.4,20.2-5.5,30.6,3.9,20.8,7.8,41.7,12.8,62.3,3.2,13.2,7.8,25.3,18.9,33.9,6.1,4.7,13,7.8,20,10.8,12.9,5.5,25.8,11,38.9,15.9,12.1,4.5,24.3,9,36.6,13.1,8.8,3,17.8,5.8,26.6,9,8,2.9,16.2,5,24,8.4,22.2,9.8,41.4,24.3,60.4,39.2,33.9,26.7,65.8,55.8,98.6,83.8,14.7,12.6,28.9,25.6,44.5,37.2,7,5.2,14.3,9.9,21.9,14"></path><path class="cls-8" d="M1525.4-350c-5.4,23.8-7.8,48.1-5.7,73.2,2.5,29.9,4.2,60,1.9,90.1-1.6,21.5-5.7,42.5-11.6,63.3-2.1,7.2-4.1,14.2-6.8,21.2-6.1,15.3-17.4,25.6-31.8,31.5-28.1,11.5-52.2,29.3-75.9,47.5-21.8,16.7-36.4,38.9-44.7,65.5-3.2,10.3-8.8,20-13.6,29.8-9.4,19.7-11.4,40.3-9.9,62,1.8,25.8,5.4,51.8,1.2,77.9-1.9,11.9-5.3,23-11.3,33.1-8.1,13.7-10.8,28.5-12,43.9-1.2,15.5.8,30.5,7.2,44.7,5.4,12.1,14,21.4,25,28.6,14.7,9.8,30.3,18.1,45.4,27.3,9.6,5.8,17.9,13.7,27.9,19,16.1,8.5,32.7,8.9,49.6,3.8,26.9-8,53.4-17,79.5-27.2"></path><path class="cls-1" d="M1451.2-350c.6,11.1.6,22.3-.3,33.5-1.7,20.3-6,40-11.2,59.7-7,27-13.9,54.1-17.9,81.9-3.9,27.2-20.3,46.5-43.6,60-10.5,6-19.9,13.2-28.1,22.3-6.9,7.7-11.8,16.6-17.4,25.2-5.4,8.3-10.3,16.9-15.7,25.2-4.3,6.5-8.5,13.2-12.3,20-5.5,9.8-12.2,18.9-18.1,28.4-8,13-15.6,26.2-21,40.4-5.7,15-10.4,30.3-13.1,46.4-3.8,22.7-3.8,45.2-.3,67.8,3.2,21,2.4,41.5-4.8,61.9-5.1,14.4-12.3,27.2-20.1,40.1-10,16.5-22,31.7-29.2,49.8-14.8,37.6-11.9,78,23.3,108.7,10.5,9.1,23.4,15.2,37.2,19.5,16.2,5.1,32.5,10.2,48.8,14.9,27.6,7.9,55.1,16,80.5,29.3,14.6,7.7,29.6,11.7,45.8,12.2,10.6.3,21-1.8,31.5-3,17.2-1.9,22.4,2.9,21.4,20.4-.5,8.8-.8,17.5-.6,26.4.3,16.9,5.5,31.4,16.2,44.6,12.3,15.1,24.6,30.1,37.7,44.4"></path><path class="cls-2" d="M1540,41.7c-15.4,11.5-31.2,22.5-48.1,31.9-18,10-31.7,25.1-40.7,44.3-7.7,16.5-12.4,33.8-16.4,51.4-7.5,33.7-9.7,67.9-5.6,102,2.6,22.4,17.5,32.8,37.3,35.9,14.7,2.3,28.1-3.6,40.4-11.2,11.4-7,22.1-15,33-22.6"></path><path class="cls-4" d="M1540,41.7c-15.4,11.5-31.2,22.5-48.1,31.9-18,10-31.7,25.1-40.7,44.3-7.7,16.5-12.4,33.8-16.4,51.4-7.5,33.7-9.7,67.9-5.6,102,2.6,22.4,17.5,32.8,37.3,35.9,14.7,2.3,28.1-3.6,40.4-11.2,11.4-7,22.1-15,33-22.6"></path><path class="cls-3" d="M1487.8-350c.2,3.8.4,7.6.7,11.5,1.4,16-1.8,32.5-4.5,48.6-4.5,26.9-8.9,53.8-13.8,80.6-2.5,14-3.5,28.2-6,42.2-6.6,36.7-26.4,64.3-57.8,82.8-24,14.1-44.1,32.1-61,53.7-7.7,9.8-13.6,21-19.8,32-8.2,14.6-16.4,29.2-23.2,44.5-13.8,30.9-19.2,63-14.2,96.9,2.3,15.8,5.9,31.5,4.8,47.8-.7,9.4-3.3,18.2-5.6,27.1-4.4,17.6-10.2,34.9-18.5,51.1-3.7,7.1-7.5,14.3-10.9,21.5-11.4,24.2-19.1,49.4-12.8,76.6,3.5,15.4,12.8,26.8,26.2,35.3,16,10.2,34.4,12.7,52.1,17.6,11.1,3.1,22.4,5.3,33.4,8.8,10.1,3.2,19.3,8.1,28.6,12.8,25.1,12.4,51.2,14.7,77.9,6.2,20.4-6.5,40.9-9.7,62.1-5.6,4.8.9,9.6,2.2,14.4,3.3"></path></g><metadata></metadata></svg> 