<svg xmlns="http://www.w3.org/2000/svg" width="1440" height="894" fill="none"><mask id="a" width="1440" height="894" x="0" y="0" maskUnits="userSpaceOnUse" style="mask-type:alpha"><path fill="#0C2233" d="M0 0h1440v894H0z"/></mask><g mask="url(#a)"><path fill="#0C2233" d="M0 0h1440v894H0z"/><path stroke="#CEFD94" stroke-linecap="round" stroke-linejoin="round" stroke-width="5.019" d="M1440.19 99.541c-7.92 14.694-19.88 26.746-34.98 36.51-24.65 15.957-49.7 31.38-73.06 49.185-15.76 12.004-28.7 26.811-39.41 43.751-19.44 30.739-26.94 64.559-27.68 100.276-.56 27.528-3.97 54.694-10.36 81.417-2.73 11.441-7.54 22.533-8.1 34.353-.98 20.027 5.79 38.063 16.3 54.873 10.99 17.532 24.81 32.73 41.6 44.438 14.33 10.001 29.82 18.854 48.91 15.802 2.66-.421 5.1-1.161 7.49-2.014 20.49-7.401 41.08-14.564 61.06-23.292 6.25-2.731 12.3-5.789 18.22-9.077"/><path stroke="#CEFD94" stroke-linecap="round" stroke-linejoin="round" stroke-width="3.137" d="M1440.2 169.126c-22.1 16.608-44.35 32.979-67.3 48.378-16.38 10.997-30.82 23.861-42.05 39.811-10.99 15.589-17.75 33.305-21.57 52.135-6.02 29.697-10.9 59.529-13.19 89.777-1.14 15.21-2.55 30.408-1.63 45.635 1.48 24.542 11.14 45.955 28.37 63.168 16.52 16.513 37.13 18.32 58.83 11.856 21.9-6.518 40.63-18.457 58.54-31.931"/><path stroke="#CEFD94" stroke-linecap="round" stroke-linejoin="round" stroke-width="2.51" d="M1312.42-181c.08 1.647.15 3.288.21 4.936.75 22.764-1.15 45.327-6.84 67.315-2.76 10.706-7.17 21.051-12.59 30.834-10.29 18.534-15.84 38.596-18.66 59.512-2.45 18.095-12.18 32.303-24.66 44.71-11.94 11.868-23.47 24.121-32.94 37.98-3.13 4.574-6.36 9.38-8.73 14.611-5.72 12.704-13.71 24.127-20.82 36.061-5.99 9.989-12.41 19.712-18.72 29.453-7.34 11.359-14.7 22.764-22.66 33.773-4.36 6.026-8.12 12.644-12.1 19.044-8.77 14.095-15.77 29.169-22.03 44.456-11.98 29.121-16.87 59.002-7.72 90.168 3.68 12.573 5.79 25.229 3.5 38.874-1.83 11.074-6.81 20.122-12.68 28.636-5.06 7.389-9.77 15.038-14.39 22.628-9.26 15.239-18.41 30.473-28.38 45.286-5.55 8.253-12.65 15.192-17.82 23.842-5.96 10.002-7.57 20.46-5.58 31.006 3.99 21.117 7.91 42.294 13.05 63.227 3.26 13.349 7.99 25.662 19.3 34.383 6.18 4.776 13.27 7.916 20.4 10.92 13.14 5.576 26.3 11.193 39.7 16.14 12.39 4.574 24.79 9.149 37.33 13.32 9.03 3.01 18.17 5.913 27.14 9.178 8.12 2.962 16.59 5.024 24.53 8.496 22.69 9.955 42.28 24.708 61.66 39.835 34.63 27.054 67.13 56.614 100.57 85.019 15 12.745 29.52 25.982 45.38 37.725a184 184 0 0 0 22.3 14.191"/><path stroke="#FF6A39" stroke-linecap="round" stroke-linejoin="round" stroke-width="6.274" d="M1425.35-181c-5.54 24.18-7.98 48.835-5.83 74.253 2.58 30.39 4.28 60.869 1.97 91.448-1.67 21.858-5.76 43.159-11.84 64.216-2.09 7.27-4.16 14.458-6.96 21.49-6.19 15.542-17.77 25.959-32.45 31.937-28.68 11.678-53.22 29.744-77.44 48.213-22.29 16.993-37.14 39.467-45.55 66.438-3.29 10.493-9.01 20.258-13.84 30.253-9.65 19.997-11.6 40.877-10.06 62.948 1.83 26.231 5.53 52.526 1.27 79.017-1.95 12.052-5.46 23.375-11.56 33.619-8.26 13.865-10.98 28.927-12.24 44.545-1.25 15.72.83 30.923 7.37 45.392 5.55 12.254 14.33 21.704 25.46 29.063 15.04 9.895 30.93 18.368 46.3 27.67 9.8 5.925 18.22 13.871 28.51 19.275 16.47 8.621 33.32 8.988 50.64 3.898 27.4-8.07 54.45-17.289 81.08-27.622"/><path stroke="#0A91AB" stroke-linecap="round" stroke-linejoin="round" stroke-width="1.255" d="M1349.62-181c.6 11.299.63 22.616-.35 33.957-1.75 20.572-6.16 40.598-11.39 60.584-7.18 27.415-14.14 54.872-18.23 83.1-3.98 27.563-20.68 47.24-44.51 60.856-10.75 6.12-20.3 13.385-28.66 22.622-7.07 7.827-12.04 16.851-17.74 25.537-5.51 8.432-10.5 17.159-16.04 25.579-4.35 6.624-8.64 13.432-12.58 20.347-5.64 9.93-12.42 19.138-18.42 28.837-8.17 13.219-15.94 26.627-21.44 41.019-5.82 15.216-10.59 30.793-13.35 47.058-3.89 23.013-3.85 45.824-.3 68.766 3.3 21.301 2.43 42.122-4.93 62.866-5.16 14.587-12.51 27.652-20.5 40.741-10.16 16.696-22.45 32.185-29.75 50.582-15.12 38.181-12.11 79.195 23.75 110.343 10.7 9.285 23.89 15.441 37.93 19.814 16.58 5.172 33.18 10.363 49.84 15.079 28.13 7.987 56.19 16.217 82.12 29.738 14.93 7.78 30.21 11.915 46.72 12.342 10.8.273 21.44-1.866 32.13-3.045 17.52-1.944 22.84 2.932 21.88 20.72-.47 8.929-.85 17.81-.64 26.769.32 17.165 5.6 31.889 16.57 45.226 12.54 15.275 25.08 30.538 38.45 45.073"/><path stroke="#FFFEFB" stroke-linecap="round" stroke-linejoin="round" stroke-width="1.255" d="M1440.19 216.526c-15.7 11.655-31.79 22.794-49.06 32.34-18.35 10.114-32.37 25.448-41.52 44.924-7.83 16.714-12.68 34.288-16.69 52.182-7.66 34.217-9.88 68.873-5.74 103.511 2.69 22.765 17.82 33.258 38.09 36.404 14.97 2.305 28.69-3.685 41.22-11.376 11.59-7.098 22.52-15.204 33.7-22.942"/><path stroke="#FF6A39" stroke-linecap="round" stroke-linejoin="round" stroke-width="12.548" d="M1386.99-181c.15 3.863.38 7.744.72 11.643 1.4 16.264-1.82 32.997-4.54 49.338-4.55 27.327-9.12 54.641-14.12 81.85-2.6 14.184-3.54 28.576-6.12 42.796-6.76 37.257-26.92 65.295-58.99 84.072-24.45 14.303-44.95 32.623-62.22 54.54-7.82 9.913-13.91 21.324-20.19 32.487-8.37 14.843-16.73 29.626-23.72 45.203-14.1 31.409-19.65 63.896-14.46 98.339 2.4 16.003 6.04 31.966 4.87 48.503-.66 9.492-3.38 18.438-5.67 27.456-4.5 17.888-10.41 35.438-18.86 51.869-3.75 7.252-7.69 14.469-11.16 21.786-11.67 24.578-19.44 50.162-13.08 77.779 3.6 15.654 13.09 27.19 26.72 35.829 16.35 10.375 35.14 12.863 53.17 17.811 11.32 3.111 22.81 5.392 34.05 8.893 10.33 3.241 19.65 8.23 29.23 12.959 25.58 12.608 52.21 14.872 79.45 6.263 20.77-6.548 41.7-9.872 63.4-5.689 4.94.948 9.8 2.228 14.72 3.313"/><path stroke="#CEFD94" stroke-linecap="round" stroke-linejoin="round" stroke-width="2.51" d="M1440.2 263.234c-6.33 4.018-12.63 8.064-18.91 12.165-12.65 8.289-24.03 18.267-33.41 30.176-3.17 4.017-5.56 8.935-7.18 13.835-3.63 10.831-10.21 20.294-13.8 31.048-5.86 17.508-6.86 35.461-3.9 53.604.83 5.066 2.24 10.031 4.3 14.801 4.39 10.185 13.28 15.097 24.43 13.604 16.46-2.216 30.94-9.599 45.46-17.058l3.01-1.553"/></g></svg>