<svg xmlns="http://www.w3.org/2000/svg" width="1440" height="1286" fill="none"><path fill="#0C2233" d="M0 0h1440v1286H0z"/><mask id="a" width="1440" height="1286" x="0" y="0" maskUnits="userSpaceOnUse" style="mask-type:alpha"><path fill="#0C2233" fill-rule="evenodd" d="M1401.16 1H0v1284h.007v1l38.828-1H1440V1h-.01V0z" clip-rule="evenodd"/></mask><g stroke-linecap="round" stroke-linejoin="round" mask="url(#a)"><path stroke="#76B39D" stroke-width="3.075" d="M86.457-20.376c15.546 13.808 29.126 29.95 41.056 48.254 30.233 46.337 60.365 92.673 85.655 141.933 24.331 47.398 45.024 96.257 54.156 149.054 3.026 17.463 5.855 35.185 5.399 53.253-.306 12.11 3.081 24.08 2.319 36.34-1.965 31.145-3.631 62.235-6.916 93.325-2.979 28.316-6.963 56.53-10.649 84.697-5.603 42.855-6.311 85.804-3.686 128.455 4.244 68.192 22.06 133.1 54.769 194.023 46.29 86.315 98.631 169.092 146.681 254.342 22.917 40.63 43.507 82.38 55.068 128.2 5.933 23.45 10.767 46.86 9.485 70.6"/><path stroke="#FF6A39" stroke-width="1.538" d="M-97.993 19.491c24.221-.102 48.435-.825 72.664-1.006 30.336-.204 58.196 8.63 83.534 25.338C77.129 56.287 92.58 72.5 106.506 89.963c32.3 40.482 60.923 83.431 82.425 130.726 18.728 41.237 33.511 83.691 42.902 128.259 7.066 33.464 7.977 67.03 6.358 100.595-1.006 20.339-6.766 40.38-10.397 60.57-3.128 17.313-6.46 34.571-8.582 52.089-2.727 22.257-6.963 44.372-9.337 66.684-1.359 12.77.252 25.84-.306 38.705-3.938 92.673 23.624 176.71 67.689 256.919 51.587 93.88 106.199 185.95 159.852 278.62 15.247 26.36 27.405 54.57 32.654 84.75 4.409 25.23 6.453 50.2 3.301 74.23"/><path stroke="#0C2233" stroke-width="15.377" d="M439.804 1362.12c11.749-38.89 6.468-83.06-14.547-117.79-18.626-30.84-36.694-61.99-54.51-93.28-31.499-55.47-62.943-111-93.428-167.078-27.663-50.832-56.333-101.05-82.118-152.786-15.546-31.248-24.835-64.758-27.405-99.338-1.666-21.958-1.006-44.27 1.313-66.629 3.379-32.858 7.018-65.52 12.37-98.119 5.045-30.642 10.955-60.97 19.537-90.858 9.187-32.002 9.085-63.296-1.564-95.903-9.541-29.173-18.374-58.754-27.561-88.131-11.003-35.13-25.039-68.9-48.254-98.175a931 931 0 0 0-64.106-72.735c-7.623-7.772-16.56-12.464-26.705-15.749C-6.21 92.833-46.322 86.789-87.04 84.4"/><path stroke="#76B39D" stroke-width="3.075" d="M-97.99 1239.17c19.632 10.93 37.637 24.64 54.495 40.34 15.694 14.63 31.043 29.94 48.608 42.15 19.521 13.63 39.098 27.19 58.871 40.46"/><path stroke="#0C2233" stroke-width="1.538" d="M124.805 1362.12c-22.933-13.81-45.26-28.62-66.59-45.11-33.165-25.69-62.99-54.71-89.694-87.11-19.616-23.79-39.602-47.03-66.51-63.04"/><path stroke="#CEFD94" stroke-width="7.689" d="M388.157 1362.12c1.139-2.02 2.255-4.08 3.332-6.2 3.057-6.05 6.79-16.52 9.234-23.73 2.445-7.22 3.749-14.47 3.828-21.94.149-14.2-3.993-22.62-10.838-34.43-25.691-44.27-50.879-88.89-76.421-133.21-28.017-48.56-58.298-95.75-82.48-146.527-20.339-42.753-43.712-83.69-70.762-122.805-20.292-29.329-42.352-57.292-62.236-86.865-15.293-22.768-21.195-49.567-14.94-74.857 11.207-45.323 22.768-90.606 34.226-135.882 8.936-35.381 23.672-69.049 26.399-106.505 1.564-21.353.856-42.352-1.517-62.99-3.277-28.819-12.622-56.632-23.624-83.635-30.485-74.857-78.637-133.705-152.535-169.645C-52.041 142.282-74.77 134.643-98 128.576"/><path stroke="#FF6A39" stroke-width="6.151" d="M243.286 1362.12c-38.769-16.49-78.433-30.54-116.274-49.56-43.358-21.85-77.835-52.54-106.552-91.11-16.3-21.85-33.817-42.8-46.942-66.83-9.439-17.26-16.755-35.54-15.75-55.67 3.435-69.71 21.354-135.121 57.796-195.187 6.86-11.309 13.831-22.005 23.12-31.499 22.006-22.516 46.738-17.966 67.887.149 17.266 14.736 27.758 34.832 39.727 53.457 53.15 82.68 101.703 168.03 144.205 256.71 14.13 29.48 28.567 58.86 40.481 89.45.048.12.095.25.15.37 7.717 19.61 5.485 41.78-6.24 59.29-7.176 10.71-16.496 22.39-25.754 27.56a86 86 0 0 1-5.572 2.87"/><path stroke="#0A91AB" stroke-width="3.844" d="M224.057 1220.05c.252-11.96-2.727-23.42-4.692-35.13-6.609-39.02-18.775-76.17-39.067-110.09-15.6-26.04-35.027-49.17-60.317-66.78-16.402-11.354-37.904-11.503-52.145 0-22.508 18.17-32.709 42.8-37.354 70.32-1.619 9.54.103 20.14-1.21 28.87-2.876 18.78.456 35.63 8.684 50.88 28.466 52.8 72.775 79.78 132.904 89.44 55.162 8.87 53.197-27.5 53.197-27.5z"/></g></svg>