<?xml version="1.0" encoding="UTF-8"?> <svg xmlns="http://www.w3.org/2000/svg" width="1440" height="1068" viewBox="0 0 1440 1068" fill="none"><mask id="mask0_1560_30566" style="mask-type:alpha" maskUnits="userSpaceOnUse" x="0" y="0" width="1440" height="1068"><rect width="1440" height="1068" fill="#0C2233"></rect></mask><g mask="url(#mask0_1560_30566)"><rect width="1440" height="1068" fill="#0C2233"></rect><path d="M-13.2066 1073.45C-11.4746 1070.32 -9.6579 1067.2 -7.75656 1064.12C-0.815374 1052.84 7.37601 1042.45 15.2027 1031.79C27.8284 1014.58 36.9053 995.812 42.134 974.989C48.5803 949.269 61.0497 926.251 75.0884 903.884C92.6823 875.898 103.498 845.112 111.461 813.212C116.657 792.428 119.913 771.344 122.706 750.103C125.5 728.596 126.757 706.952 129.023 685.412C130.768 669.004 133.164 652.653 136.354 636.407C138.523 625.455 139.311 614.112 137.077 602.47C134.674 589.942 122.772 580.663 109.885 578.065C98.3407 575.727 86.5355 576.027 75.0558 572.048C54.7011 565.01 43.254 551.524 38.6504 530.805C36.417 520.706 37.1332 510.743 37.4653 500.781C38.0253 483.714 31.4162 469.637 21.4863 456.581C14.0177 446.749 5.30536 437.998 -3.86924 429.845C-26.1644 410.083 -46.2586 388.048 -67.7008 367.427C-70.1295 365.096 -72.5583 362.771 -75.0001 360.453" stroke="#FF6A39" stroke-width="6.51332" stroke-linecap="round" stroke-linejoin="round"></path><path d="M67.1256 1073.45C81.9846 1055.08 90.9574 1033.7 94.8512 1010.15C97.3842 994.855 98.7321 979.371 103.075 964.434C112.94 930.464 129.779 900.765 159.972 880.964C183.915 865.245 191.383 853.075 206.509 828.872C220.092 807.098 230.517 783.52 243.214 761.258C251.236 747.18 255.254 732.972 254.069 716.928C252.819 699.992 255.019 683.153 257.357 666.477C259.727 649.411 265.412 632.995 268.335 615.962C272.477 591.759 268.635 569.262 256.4 548.08C248.345 534.132 237.588 522.425 226.441 510.952C215.059 499.277 206.574 485.629 202.003 469.943C197.003 452.876 189.208 437.386 178.256 423.406C166.483 408.377 151.781 396.207 138.758 382.397C132.279 375.553 127.311 367.759 124.582 358.714C119.816 342.963 111.293 329.706 98.5041 319.281C84.6608 308.003 69.2353 298.992 54.272 289.355C27.764 272.223 5.50138 251.237 -7.98379 222.196C-20.4141 195.427 -25.8772 166.712 -29.9859 137.775C-32.1217 122.551 -33.3068 107.093 -36.6276 92.0975C-39.981 76.7696 -48.4393 65.1597 -63.9626 58.7524C-65.9616 57.9255 -67.9085 57.0595 -69.8099 56.1544" stroke="#0A91AB" stroke-width="1.44791" stroke-linecap="round" stroke-linejoin="round"></path><path d="M-69.8016 16.9999C-63.1339 21.7597 -55.203 23.8564 -46.686 24.1169C-33.2659 24.5467 -19.8459 24.2471 -6.4258 24.182C15.7391 24.0843 31.1972 37.83 31.627 62.0655C31.8549 75.1535 28.5341 87.7531 28.2411 100.743C27.7136 122.218 37.025 137.806 55.9993 147.215C75.5661 156.917 82.8654 173.229 83.6273 193.85C83.9919 203.585 82.5399 213.287 84.9752 223.087C88.3937 236.735 96.878 245.877 109.64 249.692C158.313 264.193 187.25 298.3 205.046 343.783C215.77 371.209 222.477 399.892 230.375 428.171C238.86 458.625 248.464 488.616 268.129 514.239C276.613 525.289 287.103 534.86 292.729 548.079C299.637 564.422 301.311 581.033 298.381 598.627C294.76 620.401 285.625 640.821 282.825 662.563C281.178 675.156 279.472 687.983 282.102 701.241C286.836 725.183 283.88 747.713 266.911 767.67C253.1 783.916 244.974 803.913 236.685 823.48C225.238 850.45 217.079 871.065 190.538 884.322C156.334 901.421 131.245 926.881 118.516 963.847C112.499 981.375 109.959 999.301 108.319 1017.55C107.199 1029.92 107.466 1042.28 107.7 1054.65C107.824 1060.94 107.622 1067.21 107.166 1073.46" stroke="#CEFD94" stroke-width="2.60533" stroke-linecap="round" stroke-linejoin="round"></path><path d="M20.2479 1093C22.7931 1089.39 25.4682 1085.86 28.2803 1082.43C51.9191 1053.6 66.294 1020.41 74.4838 984.463C79.8068 960.996 90.446 940.15 103.856 920.761C119.818 897.601 131.983 872.717 142.835 846.93C150.785 828.02 160.254 809.767 169.238 791.31C179.501 770.258 184.304 747.653 189.243 724.979C196.188 692.868 201.614 660.442 213.676 629.473C223.316 604.726 216.194 581.703 200.82 560.72C188.97 544.575 172.624 533.481 157.483 521.142C137.922 505.175 121.755 486.505 111.458 463.66C103.199 445.305 88.9955 433.205 72.8896 423.391C51.0844 410.121 31.3523 394.565 14.3159 375.758C2.04835 362.242 -8.76874 347.445 -20.6874 333.62C-36.1501 315.765 -52.475 298.833 -69.8261 282.743" stroke="#FF6A39" stroke-width="13.0266" stroke-linecap="round" stroke-linejoin="round"></path><path d="M-54.5305 1073.45C-54.0096 1070.34 -53.3975 1067.22 -52.6357 1064.12C-47.9344 1044.94 -37.5096 1029.72 -22.9045 1017.91C-3.59811 1002.29 10.4405 983.219 20.2468 960.82C31.8241 934.377 43.4665 907.934 54.0867 881.1C64.0166 855.94 70.5606 829.699 75.659 803.061C79.7677 781.749 84.6709 760.567 88.187 739.125C90.5897 724.422 87.9917 710.416 80.0998 698.214C63.6259 672.826 48.4608 646.578 29.1869 622.968C13.299 603.531 -4.52272 586.628 -24.5844 571.729C-34.9441 564.065 -44.5485 555.483 -49.2172 542.656C-52.2124 534.432 -52.5706 526.11 -49.7772 518.218C-38.1087 484.991 -47.0098 456.321 -69.8063 431.636" stroke="#CEFD94" stroke-width="5.21065" stroke-linecap="round" stroke-linejoin="round"></path><path d="M-69.7977 1001.66C-65.7411 999.119 -61.4631 996.801 -56.9702 994.691C-29.3096 981.734 -13.1287 958.911 -3.2639 930.86C3.84007 910.701 8.4111 889.851 14.0695 869.294C20.2163 846.967 27.125 824.965 38.4744 804.571C47.4862 788.39 53.7372 771.056 54.9483 752.512C56.231 732.75 50.9698 713.736 38.9953 698.343C24.7873 680.157 12.6175 660.85 0.649478 641.284C-12.0153 620.597 -30.3645 608.069 -53.747 601.655C-59.7636 600.001 -65.103 597.716 -69.7977 594.838" stroke="#CEFD94" stroke-width="3.25666" stroke-linecap="round" stroke-linejoin="round"></path></g></svg> 