<?xml version="1.0" encoding="UTF-8"?> <svg xmlns="http://www.w3.org/2000/svg" width="1440" height="653" viewBox="0 0 1440 653" fill="none"><mask id="mask0_2970_25660" style="mask-type:alpha" maskUnits="userSpaceOnUse" x="0" y="0" width="1441" height="653"><rect x="0.00012207" width="1440" height="653" fill="#0C2233"></rect></mask><g mask="url(#mask0_2970_25660)"><rect width="1440" height="653" fill="#0C2233"></rect><path d="M-116.961 699.768C-116.222 683.786 -111.622 666.908 -103.927 649.488C-91.3751 621.043 -78.3404 592.697 -67.371 563.823C-59.9699 544.35 -55.5946 524.819 -53.5852 505.302C-49.9381 469.885 -56.0937 440.517 -67.8522 414.465C-76.9252 394.395 -83.7825 372.61 -88.3047 349.083C-90.2496 339.018 -90.547 327.762 -94.2059 318.92C-100.392 303.928 -111.553 295.703 -125.039 290.947C-139.124 286.007 -154.48 284.692 -170.802 287.921C-184.741 290.675 -199.134 295.054 -212.061 310.429C-213.864 312.569 -215.392 314.782 -216.851 317.046C-229.299 336.494 -241.912 355.851 -253.535 375.9C-257.167 382.169 -260.547 388.54 -263.744 394.979" stroke="#CEFD94" stroke-width="4.01272" stroke-linecap="round" stroke-linejoin="round"></path><path d="M73.2095 812.072C72.5858 810.947 71.9685 809.823 71.3578 808.686C62.9668 792.928 56.5887 775.479 53.1807 755.825C51.5149 746.26 51.1753 735.82 51.7758 725.078C52.9326 704.708 50.0837 686.529 44.9453 669.624C40.505 654.993 42.735 638.109 47.5983 620.613C52.2569 603.871 56.4791 587.14 58.643 570.682C59.3539 565.253 60.0677 559.581 60.0011 554.202C59.8124 541.167 61.7304 527.474 62.8265 514.027C63.7677 502.747 65.1217 491.356 66.3872 480.029C67.8504 466.833 69.3103 453.591 71.3451 440.22C72.4628 432.897 72.9382 425.564 73.6453 418.24C75.2113 402.1 75.1478 386.481 74.4686 371.222C73.2065 342.122 66.4991 317.372 49.0672 301.409C42.0429 294.961 36.1398 287.369 33.1104 276.035C30.6414 266.847 31.1738 256.933 32.5364 246.791C33.6966 238.01 34.5067 229.289 35.2765 220.667C36.8131 203.366 38.2606 186.154 40.4603 168.67C41.6827 158.931 44.4904 149.064 45.2984 139.303C46.2181 128.031 43.7964 119.44 38.7021 113.278C28.5097 100.933 18.3446 88.5016 7.37385 77.083C0.390293 69.7895 -7.31639 64.2571 -18.5976 65.8335C-24.7671 66.6896 -31.0415 69.3457 -37.2951 72.1238C-48.8375 77.2195 -60.4073 82.2978 -71.9244 88.0228C-82.571 93.3145 -93.222 98.6102 -103.843 104.296C-111.491 108.385 -119.18 112.623 -126.877 116.493C-133.841 119.984 -140.75 124.361 -147.759 127.366C-167.803 135.932 -187.227 138.92 -206.627 141.497C-241.301 146.087 -275.277 147.41 -309.545 150.21C-324.915 151.461 -340.102 152.028 -355.76 154.593C-362.846 155.747 -369.9 157.505 -376.977 159.859" stroke="#CEFD94" stroke-width="2.00636" stroke-linecap="round" stroke-linejoin="round"></path><path d="M-9.47733 890.122C-13.7532 869.007 -20.4525 849.686 -30.7859 833C-43.1393 813.05 -54.8814 792.431 -63.7167 768.963C-70.0255 752.182 -74.3638 734.121 -77.1694 714.866C-78.1375 708.217 -79.1031 701.653 -79.4733 694.687C-80.2924 679.294 -75.3985 663.84 -66.7116 649.422C-49.7322 621.247 -37.9893 591.372 -26.6151 561.425C-16.1471 533.869 -13.0154 507.536 -16.144 482.435C-17.3545 472.663 -16.5267 461.725 -16.4292 451.235C-16.258 430.273 -22.0175 413.991 -30.7467 399.273C-41.1167 381.778 -52.8887 365.538 -58.8931 343.651C-61.6165 333.685 -62.9435 323.16 -62.0033 311.617C-60.7352 295.998 -63.9268 283.344 -68.3819 271.304C-72.8802 259.199 -79.6435 249.769 -89.4162 243.943C-97.6968 239.014 -107.381 238.325 -118.063 240.753C-132.481 244.07 -147.034 248.994 -161.496 252.969C-170.707 255.501 -179.613 255.642 -189.005 258.887C-204.035 264.106 -216.495 275.485 -227.427 291.099C-244.712 315.808 -261.337 341.09 -277.283 366.891" stroke="#FF6A39" stroke-width="5.0159" stroke-linecap="round" stroke-linejoin="round"></path><path d="M45.9694 837.785C41.6398 830.119 37.7205 822.047 34.5306 813.262C28.7297 797.339 25.0601 779.972 22.0034 762.069C17.8194 737.502 13.4563 713.06 6.73256 690.046C0.150579 667.588 5.60323 641.974 18.3667 615.763C24.124 603.963 28.6198 592.163 31.5554 579.784C34.0397 569.297 34.5716 559.409 35.7491 549.262C36.8799 539.425 37.5312 529.732 38.6834 519.887C39.5907 512.14 40.3869 504.307 40.8861 496.644C41.6004 485.64 43.3922 474.371 44.4464 463.287C45.8762 448.188 46.9414 433.235 46.015 419.14C45.0392 404.234 43.1667 389.799 39.5825 376.264C34.5026 357.122 26.6159 340.838 16.1203 326.882C6.36357 313.935 -0.169435 298.445 -1.92118 278.521C-3.1709 264.528 -2.28669 250.103 -0.946446 235.224C0.743205 216.262 4.40657 196.693 3.41519 178.493C1.33668 140.74 -14.9923 113.492 -51.9706 115.997C-63.0032 116.754 -74.7803 121.467 -86.568 128.045C-100.488 135.804 -114.431 143.567 -128.255 151.709C-151.604 165.441 -174.98 178.945 -198.625 187.2C-212.237 191.956 -224.849 199.56 -237.078 210.659C-245.081 217.929 -252.136 226.814 -259.56 235.048C-271.715 248.542 -277.29 248.733 -282.713 235.35C-285.446 228.642 -288.227 222.028 -291.464 215.766C-297.614 203.717 -306.546 196.832 -319.174 194.879C-333.615 192.621 -348.055 190.376 -362.848 189.221" stroke="#0A91AB" stroke-width="1.00318" stroke-linecap="round" stroke-linejoin="round"></path><path d="M18.6039 863.616C17.165 860.956 15.6592 858.34 14.0692 855.786C7.4395 845.126 4.03682 830.933 0.400055 817.368C-5.67949 794.683 -11.7376 771.989 -17.4466 749.077C-20.4317 737.141 -24.6986 726.198 -27.7046 714.244C-35.5861 682.93 -30.4878 648.954 -13.4672 613.357C-0.497966 586.238 8.20717 558.965 13.3049 531.356C15.6175 518.862 16.1426 506.496 16.8967 494.173C17.9105 477.778 18.9448 461.424 18.6992 445.454C18.2026 413.252 11.0745 386.188 -4.58793 365.146C-11.8523 355.357 -20.0134 346.457 -24.8585 333.829C-27.6417 326.583 -28.7274 318.301 -30.1587 310.272C-33.0222 294.369 -34.7413 277.736 -34.2136 260.148C-33.9695 252.374 -33.5657 244.486 -33.548 236.858C-33.4661 211.216 -36.59 187.553 -50.7606 172.203C-58.7809 163.49 -69.7082 161.805 -82.6614 165.046C-98.2038 168.926 -112.817 180.131 -127.723 189.054C-137.084 194.655 -146.286 200.968 -155.718 206.228C-164.395 211.048 -172.942 213.926 -181.581 217.163C-204.652 225.825 -224.936 242.617 -241.91 267.594C-254.865 286.632 -269.047 303.477 -286.37 315.477C-290.315 318.214 -294.317 320.661 -298.291 323.285" stroke="#FF6A39" stroke-width="10.0318" stroke-linecap="round" stroke-linejoin="round"></path></g></svg> 