<svg xmlns="http://www.w3.org/2000/svg" width="40" height="36" fill="none"><path fill="#76B39D" d="M0 36V.937L40 0v35.13z"/><g clip-path="url(#a)"><path fill="#0C2233" d="M29.8 6H10.2C9 6 8 7 8 8.2v19.6C8 29 9 30 10.2 30h19.6c1.2 0 2.2-1 2.2-2.2V8.2C32 7 31 6 29.8 6M15 26h-4V15h4zm-2-12.3c-1.2 0-2-.802-2-1.802 0-1.097.8-1.898 2-1.898s2 .8 2 1.8c0 1.098-.8 1.9-2 1.9M29 26h-4v-6c0-1.602-1.102-2-1.398-2C23.3 18 22 18.2 22 20v6h-4V15h4v1.602c.602-.903 1.602-1.602 3.5-1.602s3.5 1.5 3.5 5z"/></g><defs><clipPath id="a"><path fill="#fff" d="M8 6h24v24H8z"/></clipPath></defs></svg>