<svg xmlns="http://www.w3.org/2000/svg" id="a" width="623" height="623" data-name="Layer 1"><defs><style>.b,.d{fill:none}.b,.f,.g{stroke-width:0}.d{stroke:#cefd94;stroke-width:3px}.f{fill:#0c2233}.g{fill:#cefd94}</style></defs><path d="M0 0h623v623H0z" class="f"/><path d="M2 120h621v385H2z" class="b"/><path d="M2 120h621v385H2z" class="f"/><path d="m53.4 135.39-.44-1.89-.5-.89-4.61-.95v-2.28l-3.67.95-7.39-7.39-4.17 6.89 2.28 8.33-.89 6.45 1.83 1.83-1.83 4.67v4.17l2.78 2.45 5.71 1.92-7.32-2.31-3 2.56-2.28 2.28v5.11l-4.61 6.95-.5 3.22.89 2.28-2.28 2.39-1.39 2.78-.44 5-2.33 3.72-2.28 1.45 1.33 2.28-4.11 1.83-.89 4.17-.94 3.22 1.33.94-1.83 2.78v4.17l1.72 3.28 44.45 11.39 29.17 6.89 3.22-13.43-3.11 13.32 22.47 5.65-51.88-12.36.02-.07-44.51-11.39-2 1.33.94 2.78v1.83l-6.06 10.17L4 237.58v5.56l2.28 2.78.5 8.72-.89 7.39 1.33 6.06L10 272.7l.5 7.39h4.61l.44-1.83 2.33.94v1.83l-1.89.95-.44 2.28v1.83l-1.89-.45-2.28 3.22 2.78 3.28 2.78 6.45-1.39 2.78-1.89 1.83 3.28 8.34 1.83 3.72 2.28 5.95 2.33 5.11v4.67l-.89 3.67-.5.95 4.17 1.33 2.28 2.78 2.78-.45 2.33.45 2.28 1.83.94 2.39.89 2.72 3.72.44 3.22 1.89 1.39 1.83 2.33 3.28 1.83 2.72 1.83 2.78 2.78.45.44.94.94 2.78.44 4.61.44 3.67 2.78 2.39 2.78.39 2.78.5 8.28 1.89 6.06.89 4.11-.5 3.44-1.61v-6.45V382l16.61 11.84 8.33 5.56 10.11 6.89 30.45 3.39 12.4-79.92-12.34 79.97 9.34.94.61-4.11 20.06 1.5v-.02l5.06 2.85 5.56 6.06.89 2.78 7 5.06.39 3.72 4.22 6 1.33 6.5 3.28 3.67 6.44 5.06 4.61 2.78 2.78-1.33 2.28-1.89.94-6.45 4.61-1.83 6.45 1.83 6.45.95 3.28 3.17 4.11 3.28 3.72 3.22v3.67l2.78 3.28v4.11l2.33 2.78 2.28 2.39 3.22 3.17 1.39 5.11 3.67 6.95 2.78 6.95 6.06 5.56 4.11 1.83 7.89 1.33 7.33 2.11-.89-2.11.45-3.67-.95-5.56-1.33-2.78 1.83-3.67-.94-2.78h-3.67l.45-2.28 2.72-1.45 1.44-3.22v-2.33l2.78-.44 1.33-1.83-.44-1.83 2.78-1.44 5.56-.89.45-1.89-1.89-1.83-.89-2.28 3.22.44 4.67.5 5.5-2.78 5.56-3.28 3.67-4.61.94-2.28-1.39-2.78 3.22-1.83v2.28l2.78 2.33 4.11-2.78 3.72-.72-.44-3.22v-3.28l2.78-4.61 1.33-5.06-.89-5.56-2.28-5.56-4.61-5.56v-11.06l-1.89-12.06-.97-.37.97.03 1.39 8.67.5 3.72v11.06l4.61 5.56 2.28 5.56.89 5.56-1.33 5.06-2.78 4.61v3.28l.44 3.22 5.11-2.06 5.06 2.78 7.33.95 6.5-.95 6.45-.5v2.78l4.61 1.83 5.56 3.72 1.39-3.22 4.11.45 1.89-1.39 2.33-.44 6.45 1.83 2.78 3.28 1.83-1.45.94-2.78-1.83-.44-2.78-2.72-3.28-1.89 1.83-2.78 2.33-1.39v-3.22l-2.72.95-2.39 4.11-.89-1.83.89-3.22-1.83-.89-2.28 1.33-5.11-1.33 6.06-1.89 5.56.94-2.78-2.61 4.33-2 6.28-1.89 5.5.72-1.33-10.17v-55.07h-7.39l7.72-.44 44.18-4.39 1.09-2.52-.87 2.51 16.17-2.06 4.11-3.72h5.11l14.78-1.39-14.78 1.39h-5.11l-4.11 3.72-1.83.39-1.83 4.22 2.28 2.28-2.28-2.28 1.83-4.22-14.78 1.89-13.83 1.39-30.06 2.78-.39 55.51 1.33 10.17 3.72.22.95-5.34 2.39 1.28v3.67l4.5-.33.28 2.56h3.83l5.56-3.22 5.11.45 5.06 3.22 5.5 2.33 6.06.44 4.61.5 2.78-2.78 1.83-2.78 5.56 2.28 5.06 2.33 4.17 2.28 5.06 3.28 5.11 3.22.89 4.61-.45 5.56.45 7.39 1.39-2.28 1.83-.94.5 4.17-.94 2.72-.5 2.78 2.33 2.78 3.72 3.28 3.22-.94v4.17l2.33 2.78v3.28l4.61 2.72 4.11 3.72 2.78 2.78 1.39 2.78 2.28 1.83h3.28l4.61-3.28.44-2.28.89-2.78 1.45-6-.5-11.56-3.22-4.61-5.5-8.33-2.78-6.95-7.39-12-2.78-6.5-4.61-8.33-1.93-6.46h.1l-1.44-3.71.94-9.22 1.83-.95.95-1.83-2.78-.45 8.84-6.45.11.06-1.67-3.72-1.72-2.39h1.39l4.11-.95v-2.78l2.33-.39 3.22-1.45 1.83-4.61 3.72-1.33v-2.78l2.33-6.06 4.96-3.27.09.05 1.39-1.39 3.72-.94v-3.22l1.83-5.11 4.11-5.5 7.39-1.39 4.17-3.28-1.39-2.28-5.06 1.39 2.28-2.78.5-2.78-5.11-.95 2.78-.89 5.11 1.39 2.28-3.28 2.33-3.67 3.17 1.39-.89 6.5 1.83-2.78.5-3.72-5.11-6.95-3.22.5-2.78 2.78-4.17.89-.45-2.33 3.22.5 4.17-3.28 1.83-1.83-.44-3.72-1.89.72h-2.72l-16.17 3.67-19.84 4.61-17.56.94-.1.02.1-.02 17.56-.95 19.84-4.61 16.17-3.67 4.61-.72-2.28-3.67-3.72-1.39-5.56-1.39-4.61-2.78h5.06l2.33-1.33-2.78-2.78-5.5-5.56-4.11-3.72.89-8.28-2.78-5.16 2.78 5.17-.89 8.28 11 7.39.89-.89-.89-2.33-5.56-4.67 5.11 1.89-3.28-3.22v-4.17l-.89-5.56-.45-5.06h1.33l.94 5.56 1.39 3.67-.44 4.61 2.72-.89 1.89 1.83 3.22 3.72-.45 3.67-.44 7.39 1.83-1.83 2.28-5.11.5-5.56 2.78-5.56v-2.5l3.55-3.83-3.83.39-4.89-3.39-1.08-4.47 6.24.85 4.61-6.89 1.83-5.56v-6.95l-3.28-1.83.08-.9 2.26-6.55 1.89-3.17 6.89-5.56 4.17-.94 4.11-.89h4.61l1.44-1.89.44-5.56-1.89-1.61-2.78-.95-1.33-.44 3.95 1.22 2.06 1.78 4.61 1.89 1.83-1.89h3.67l4.22-1.83v-2.33l-3.28-3.72 1.83 2.39-.89 2.78-3.72-.5-1.33-1.89-3.28-3.67-1.83-5.56-.95-.22-.05-5.06-1.15-2.98 1.2 2.7 1.45-7.83 3.67-5.56 5.56-6 3.17-3.22-.39-5.11 3.67.5.94-2.78.89 2.28 6-5.56h4.17l2.28-1.83-1.33-1.83-2.78-.94-3.72-4.61-1.39-3.22-3.72 1.83-1.83-2.33-.44-4.61-.45-6.45-2.28-8.78-3.72-5.11-3.28.94-4.61 3.22-4.11-3.67-3.67 1.83.39 10.17-3.67 3.22.95 9.72-.95 7.39-1.83 6-.94 1.61-5.55 1.67 1.89 3.67-.93 7.54.66-5.59-18.61 3.39 1.33 14.28.23.45-.23-.45-1.33-14.28-7.89.67-6.89 1.39-4.61 2.28-7.39 10.17.44 7 .89 4.61-3.67 1.33-2.78 2.78-5.06 1.44-7.89.39-9.67 2.39v5.06l2.78 3.22-2.78 2.78-3.67 4.17v.22l-8.56 6.3-.05-.52-2.95 2.28-9.28 6.06-3.67 2.28-4.11 2.33-1.45-1.83h-2.78l-4.11.44-3.67-.44-2.33-.72-12.45 1.39 6.45 36.06v4.17l-2.78 1.83-2.72 4.17-1.89 2.78-3.22.45-.95 6.95-3.22 1.89 3.22-1.89.94-6.95 3.22-.44 1.89-2.78 2.72-4.17 2.78-1.83v-4.17l-6.45-36.06-20.7-.66 20.64.61 12.28-1.45 3 .83-.44-2.78 2.78-4.17.89-5.06 2.28-1.89.94-4.17 4.17-4.11-1.39-3.28-1.39-2.78-1.83-3.22-.89-4.17-1.44-.95-4.11 1.45-3.28 1.83-.45 2.78-.89 2.28-2.33-.45v-3.67l1.83-4.22 1.83-4.11-.45-5.56-.5-6.45-2.22-.94-4.67-1.83-3.67-2.78-4.61-.5-2.78 2.33-2.33 5.06-3.22 4.61-1.39-1.33-3.22 4.61-3.22 7.84-1.89 7.39 2.78 6.95 1.83 8.78v6.06l-2.72 6.44-1.39 4.11-4.17 1.45-2.78-.94-3.67-6.45-.95-6.28.5-2.05-.94-4.61v-8.34l.94-6.95-.5-4.67 1.83-6.89 1.83-4.17 1.89-4.17-1.89 2.33-3.67 4.17-2.78 4.61v-2.33l2.33-5.56 1.83-5.94 1.89-5.11 2.28-.45 2.72 3.17 1.45-3.17 5.06-1.45 3.28-2.78 4.61-.39 6.5 2.83 3.89-3.17 5.72-.17 1.83-1.39-2.78-.5h-3.67l-2.78-2.28-1.83-1.39-4.61-.45-.44-2.78-2.78-1.39h-1.44l-5 .89-2.33.94-3.22 1.39-3.28 1.89h-7.78l-3.28-3.72h-1.83l-4.17.44-1.39-1.83.94-3.22 2.72-1.83v-2.78l-3.17 1.33-5.56 4.61-4.61 4.67-4.61 2.72-4.61.94-4.17-.94-1.39-2.72-.89.89-2.78.5-3.72.95-4.61.39-1.83.28.44 7.39.5 1.33-4.22 3.72-2.28 1.83v3.28l.45 3.72.94 2.28-.94 7.39 1.83 2.78-1.83-2.78.94-7.39-.94-2.28-.44-3.72v-3.28l2.28-1.83 4.22-3.72-.5-1.33-.44-7.39 3.22-4.89 3.67-2.78 8.33-5.94 8.78-5.56-1.39-.5-6 .5-13.39-.5-1.39-1.83-4.17-1.39-4.11-1.39 2.78-2.89h-10.45l.5 3.39-3.28-.94-3.67-.94-4.61-2.33-1.83-3.67-1.39-4.61h-1.39v4.17l-1.39.44-12 .5-8.5.17-15.95-.67-17.45-.67-17.73-.95-17.07-1.16v-.11l-27.16-2.67-21.67-2.28-19.39-2.78-19.39-4.22-16.17-2.72-14.28-3.22-.78 10.84-.39 8.33.89 4.61-.89-4.61.39-8.34.61-10.83-8-1.67-4.17 19.95-2.24 9.72 6.35-29.67-7.5-2.06-16.17-4.17-11.06-3.72-15.73-4.11-3.22.94v5.06l-2.33 2.78-.89 1.83.5 2.33h2.28l-.44 3.72-.5 3.67-2.28 2.28-1.39 2.33-3.22.94v-1.83l-.5-1.89.5-2.33 2.28-3.17 2.78-3.28Zm528.32 92.68-12.43 4.26zM511.6 394.76l-5.21-2.52.16-.03zM373.52 248.85l.02.05-.03-.05-.11-.18.11.18Zm-5.18-9.23 1 2.15-1.27-2.15-44.19-.75 44.45.75Zm-.37-6.5.15 5.54-.15-.43zm-4.11-5.06 1.83 3.72zM78.09 174.44l-2.28.94zm-6.45-.5-2.78.5zm-11.11-.89-2.28.44zm-6.45-1.39-3.72.94zm83.07 39.28.94-3.72zm-1.83-6.5-.94-3.67zm-3.67-6.89.45-2.78-.89-5.11.89 5.11-.44 2.78Zm-6-5.11-.5-2.78.94-6.89 3.28-7-3.28 7-.94 6.89zm-1.39-20.78-.94-3.67zm396.12 106.77-.11-.2-14.64 7.12 14.69-6.96.05.03Zm-14.83 6.97v-.09zm0-7.18 13.22-2.68-15.43 3.04 2.21-.41v.04Zm-13.98-1.23-3.74-24.33 1.6 16.51-.5 12.95.78-14.84zm-16.53 22.24-1.44 5.91 2.88 7.98 2.28 6h.04l-2.32-6-2.78-8.33 1.33-5.56Zm5.38 20.29.18.04 6.45 1.39-6.62-1.43Zm40.35-39.68.6.44zm6.02 4.38.93.67zm-62.31 49.24 19.39-2.78 2.49-.41-2.48.41-19.39 2.78-31.9 3.72-17.95 2.28-5.11.5-5.72 3.22-.23-.08 5.95-3.14 5.11-.5 17.95-2.28zm26.1-2.6 2.73-1.73h.02zm80.48-117.56-.05 4.58h.05l17.09-1.36-17.09 1.3zm-8.72 5.45h-.04l.03.07.39 15.5v.24l.06-.02zM333.97 349.4l1.68 38.28-.41-.16-3.28-.44-3.67-3.28-5.06-.39 5.06.39 3.67 3.28 3.28.44zm-21.85 35.84 6.95-.5zl-4.61-.5-4.17.5-2.78-1.83h-3.17l-4.61.39-1.89-1.83-1.83-1.33-4.61-.5-3.67-1.39-3.28-1.83-3.22-1.39-5.11-.94.5-31.89-35.9-.44 35.9.44-.5 31.89 5.11.94 3.22 1.39 3.28 1.83 3.67 1.39 4.61.5 1.83 1.33 1.89 1.83 4.61-.39h3.17l2.78 1.83 4.17-.5zm-128.8 20.34 45.73 3.22-45.75-3.1zm207.64-40.78-4.06-.11-.48 1.54.5-1.32 4.05-.11Zm-3.95-.47.47-1.09-.18.16-.29.92Zm5.39-10.76.08-.27-.5-5.95.03-.04-.03.04v4.11l-5.56.95-2.28-1.89 2.28 1.89 5.56-.95.5 1.83-.07.27Zm3.62-11.37 1.02-1.3-.18-.06 2.29-4.42-3.13 5.77Zm148.4-71.73 4.5 17.61-4.25-17.66zm4.92-1.22.55-.13.34 1.03 1.94-2.3-2.82 1.41Zm-53.96-23.2h3.67l43-8.72-43.01 8.72h-3.67Zm53.91-1.49 1.47 1.96-1.31-1.8-.15-.16Zm-315.68 89.71v-.1l-2.11-.21 2.1.21v.09Zm12.45.22 55.76 1.92-55.71-2.02.81-15.27zm87.51 3.02.22 6.47-.11-20.3-.1 13.83Zm.27 7.94 53.08-2.33zm137.27-42.56-4.3-.88 4.24.83zM310.3 198.5l.28 5.38-77.15-3.54 76.38 3.71-.89 2.71 2.33-3.66-.94-4.6Zm-77.13 1.82 2.66-35.02-3.93 48.56.19.02 1.08-13.55Zm-3.44 43.28 1.59-19.94-1.66 20.17 59.29 2.71zm-2.49 29.75.19-2.44-.2 2.42-3.64-.37 3.36.37zm-61.45 53.89 6.6-59.91h-.06l-6.6 59.9h.06Zm-14.43-76.06-2.19 13.32h-.12zm.23-1.42-.65-.12zm-46.38 67.4 40.89 6.81-40.72-6.97 13.99-73.07-.18-.04-16.59 86.79-1.83 1.83 1.83-1.83 2.61-13.5Zm52.62-105.41-1.96 11.98 1.97-12-3.51-1.73zm1.05-6.37v-.02zm138.53 45.26 1.33-1.83zm14.72-11.89v-.12h.16zM73.66 313.46l16.42 24.11-.16-.24-16.26-23.86Zm20 29.5-.13.25.22-.1.94-11.06 2.78-2.28-2.78 2.28-.94 11.06-.09-.14Zm-3.57 20.98-.44-1.39zm6-8.34-.89-2.33-.94-4.11-2.33-2.78 2.33 2.78.94 4.11zm361.26 67-22.42-.88h-10.11 10.11zm-3.02-5.55 2.75 4.17-.19-.95-2.5-3.28.85-5.62-.9 5.68Zm3.65 8.67-.41-2.02.25 2.02zm11.81-.06 22.77-.11 1.06 1.22h.17l-1.17-1.23-22.82.11Zm25.65 1.11h.12l-1.11-10.6zm-.99-10.61.51.07zm-18.89-51.29 2.28 2.28 6.5 8.33-6.5-8.34-2.28-2.28Zm13.89 11.06 6.45 8.33 3.67 5.56 2.28 3.22-2.28-3.22-3.67-5.56-6.44-8.33Zm11.06-21.23 15.67-.5zm-251.1-79.51-.42-.04.42.03v.22-.22Zm80.18 18.46-81.03-3.23 76.65 3zm.88.04h-.11l-5.32-4.61zm-12.32-13.44.39 1.17-.39-1.01-2.6-16.92zm15.45 25v.32-.04l-1.11-.78-.15-.28.15.28zm-3.71-8.37-1.03 1-.04-.08 1.07-.93Zm1.05-1.02h-.01l-.03-.25.05.25Zm26.89-12.84 6.05-1.89zm9.14 2.9-3.02-4.7 2.21 3.19zm.03.04 5.16-2.94-.89-6 1.83-1.83-2.78-3.28 2.28-1.83 4.22-1.89 2.72-3.17 1.89-3.72-1.89-2.78-3.22-4.61-.07-.12.07.12 3.22 4.61 1.89 2.78-1.89 3.72-2.72 3.17-4.22 1.89-2.28 1.83 2.78 3.28-1.83 1.83.89 6-5 2.89 1.77 6.31-1.94-6.26Zm32.23 50.34-.34-.26.28.21 3.88-3.23-1.32 1.18-2.44 2-.06.11Zm-20.12 67.39-2.11-7.77-.02-.64-.15.53 2.27 7.88Zm181.88-154 1.27 1.11.04-.55-1.31-.57Zm1.41-.97.13-1.93.05-5.7zM552.19 276v-.37l-.43-.92.43 1.3Zm-141.25 45.86 3.22-2.33 2.78-.89 4.42-.32-7.2 1.21zl-.5 3.22-2.72 1.39-.44 2.78-.07.06.07-.06.45-2.78 2.72-1.39.5-3.22Zm18.89-7.44-4.11 1.89-1.83 1.83 1.83-1.83z" style="stroke-width:0;fill:rgba(255,255,255,.08);fill-rule:evenodd"/><path d="m53.4 135.39-.44-1.89-.5-.89-4.61-.95v-2.28l-3.67.95-7.39-7.39-4.17 6.89 2.28 8.33-.89 6.45 1.83 1.83-1.83 4.67v4.17l2.78 2.45 5.71 1.92-7.32-2.31-3 2.56-2.28 2.28v5.11l-4.61 6.95-.5 3.22.89 2.28-2.28 2.39-1.39 2.78-.44 5-2.33 3.72-2.28 1.45 1.33 2.28-4.11 1.83-.89 4.17-.94 3.22 1.33.94-1.83 2.78v4.17l1.72 3.28 44.45 11.39 29.17 6.89 3.22-13.43-3.11 13.32 22.47 5.65-51.88-12.36.02-.07-44.51-11.39-2 1.33.94 2.78v1.83l-6.06 10.17L4 237.58v5.56l2.28 2.78.5 8.72-.89 7.39 1.33 6.06L10 272.7l.5 7.39h4.61l.44-1.83 2.33.94v1.83l-1.89.95-.44 2.28v1.83l-1.89-.45-2.28 3.22 2.78 3.28 2.78 6.45-1.39 2.78-1.89 1.83 3.28 8.34 1.83 3.72 2.28 5.95 2.33 5.11v4.67l-.89 3.67-.5.95 4.17 1.33 2.28 2.78 2.78-.45 2.33.45 2.28 1.83.94 2.39.89 2.72 3.72.44 3.22 1.89 1.39 1.83 2.33 3.28 1.83 2.72 1.83 2.78 2.78.45.44.94.94 2.78.44 4.61.44 3.67 2.78 2.39 2.78.39 2.78.5 8.28 1.89 6.06.89 4.11-.5 3.44-1.61v-6.45V382l16.61 11.84 8.33 5.56 10.11 6.89 30.45 3.39 12.4-79.92-12.34 79.97 9.34.94.61-4.11 20.06 1.5v-.02l5.06 2.85 5.56 6.06.89 2.78 7 5.06.39 3.72 4.22 6 1.33 6.5 3.28 3.67 6.44 5.06 4.61 2.78 2.78-1.33 2.28-1.89.94-6.45 4.61-1.83 6.45 1.83 6.45.95 3.28 3.17 4.11 3.28 3.72 3.22v3.67l2.78 3.28v4.11l2.33 2.78 2.28 2.39 3.22 3.17 1.39 5.11 3.67 6.95 2.78 6.95 6.06 5.56 4.11 1.83 7.89 1.33 7.33 2.11-.89-2.11.45-3.67-.95-5.56-1.33-2.78 1.83-3.67-.94-2.78h-3.67l.45-2.28 2.72-1.45 1.44-3.22v-2.33l2.78-.44 1.33-1.83-.44-1.83 2.78-1.44 5.56-.89.45-1.89-1.89-1.83-.89-2.28 3.22.44 4.67.5 5.5-2.78 5.56-3.28 3.67-4.61.94-2.28-1.39-2.78 3.22-1.83v2.28l2.78 2.33 4.11-2.78 3.72-.72-.44-3.22v-3.28l2.78-4.61 1.33-5.06-.89-5.56-2.28-5.56-4.61-5.56v-11.06l-1.89-12.06-.97-.37.97.03 1.39 8.67.5 3.72v11.06l4.61 5.56 2.28 5.56.89 5.56-1.33 5.06-2.78 4.61v3.28l.44 3.22 5.11-2.06 5.06 2.78 7.33.95 6.5-.95 6.45-.5v2.78l4.61 1.83 5.56 3.72 1.39-3.22 4.11.45 1.89-1.39 2.33-.44 6.45 1.83 2.78 3.28 1.83-1.45.94-2.78-1.83-.44-2.78-2.72-3.28-1.89 1.83-2.78 2.33-1.39v-3.22l-2.72.95-2.39 4.11-.89-1.83.89-3.22-1.83-.89-2.28 1.33-5.11-1.33 6.06-1.89 5.56.94-2.78-2.61 4.33-2 6.28-1.89 5.5.72-1.33-10.17v-55.07h-7.39l7.72-.44 44.18-4.39 1.09-2.52-.87 2.51 16.17-2.06 4.11-3.72h5.11l14.78-1.39-14.78 1.39h-5.11l-4.11 3.72-1.83.39-1.83 4.22 2.28 2.28-2.28-2.28 1.83-4.22-14.78 1.89-13.83 1.39-30.06 2.78-.39 55.51 1.33 10.17 3.72.22.95-5.34 2.39 1.28v3.67l4.5-.33.28 2.56h3.83l5.56-3.22 5.11.45 5.06 3.22 5.5 2.33 6.06.44 4.61.5 2.78-2.78 1.83-2.78 5.56 2.28 5.06 2.33 4.17 2.28 5.06 3.28 5.11 3.22.89 4.61-.45 5.56.45 7.39 1.39-2.28 1.83-.94.5 4.17-.94 2.72-.5 2.78 2.33 2.78 3.72 3.28 3.22-.94v4.17l2.33 2.78v3.28l4.61 2.72 4.11 3.72 2.78 2.78 1.39 2.78 2.28 1.83h3.28l4.61-3.28.44-2.28.89-2.78 1.45-6-.5-11.56-3.22-4.61-5.5-8.33-2.78-6.95-7.39-12-2.78-6.5-4.61-8.33-1.93-6.46h.1l-1.44-3.71.94-9.22 1.83-.95.95-1.83-2.78-.45 8.84-6.45.11.06-1.67-3.72-1.72-2.39h1.39l4.11-.95v-2.78l2.33-.39 3.22-1.45 1.83-4.61 3.72-1.33v-2.78l2.33-6.06 4.96-3.27.09.05 1.39-1.39 3.72-.94v-3.22l1.83-5.11 4.11-5.5 7.39-1.39 4.17-3.28-1.39-2.28-5.06 1.39 2.28-2.78.5-2.78-5.11-.95 2.78-.89 5.11 1.39 2.28-3.28 2.33-3.67 3.17 1.39-.89 6.5 1.83-2.78.5-3.72-5.11-6.95-3.22.5-2.78 2.78-4.17.89-.45-2.33 3.22.5 4.17-3.28 1.83-1.83-.44-3.72-1.89.72h-2.72l-16.17 3.67-19.84 4.61-17.56.94-.1.02.1-.02 17.56-.95 19.84-4.61 16.17-3.67 4.61-.72-2.28-3.67-3.72-1.39-5.56-1.39-4.61-2.78h5.06l2.33-1.33-2.78-2.78-5.5-5.56-4.11-3.72.89-8.28-2.78-5.16 2.78 5.17-.89 8.28 11 7.39.89-.89-.89-2.33-5.56-4.67 5.11 1.89-3.28-3.22v-4.17l-.89-5.56-.45-5.06h1.33l.94 5.56 1.39 3.67-.44 4.61 2.72-.89 1.89 1.83 3.22 3.72-.45 3.67-.44 7.39 1.83-1.83 2.28-5.11.5-5.56 2.78-5.56v-2.5l3.55-3.83-3.83.39-4.89-3.39-1.08-4.47 6.24.85 4.61-6.89 1.83-5.56v-6.95l-3.28-1.83.08-.9 2.26-6.55 1.89-3.17 6.89-5.56 4.17-.94 4.11-.89h4.61l1.44-1.89.44-5.56-1.89-1.61-2.78-.95-1.33-.44 3.95 1.22 2.06 1.78 4.61 1.89 1.83-1.89h3.67l4.22-1.83v-2.33l-3.28-3.72 1.83 2.39-.89 2.78-3.72-.5-1.33-1.89-3.28-3.67-1.83-5.56-.95-.22-.05-5.06-1.15-2.98 1.2 2.7 1.45-7.83 3.67-5.56 5.56-6 3.17-3.22-.39-5.11 3.67.5.94-2.78.89 2.28 6-5.56h4.17l2.28-1.83-1.33-1.83-2.78-.94-3.72-4.61-1.39-3.22-3.72 1.83-1.83-2.33-.44-4.61-.45-6.45-2.28-8.78-3.72-5.11-3.28.94-4.61 3.22-4.11-3.67-3.67 1.83.39 10.17-3.67 3.22.95 9.72-.95 7.39-1.83 6-.94 1.61-5.55 1.67 1.89 3.67-.93 7.54.66-5.59-18.61 3.39 1.33 14.28.23.45-.23-.45-1.33-14.28-7.89.67-6.89 1.39-4.61 2.28-7.39 10.17.44 7 .89 4.61-3.67 1.33-2.78 2.78-5.06 1.44-7.89.39-9.67 2.39v5.06l2.78 3.22-2.78 2.78-3.67 4.17v.22l-8.56 6.3-.05-.52-2.95 2.28-9.28 6.06-3.67 2.28-4.11 2.33-1.45-1.83h-2.78l-4.11.44-3.67-.44-2.33-.72-12.45 1.39 6.45 36.06v4.17l-2.78 1.83-2.72 4.17-1.89 2.78-3.22.45-.95 6.95-3.22 1.89 3.22-1.89.94-6.95 3.22-.44 1.89-2.78 2.72-4.17 2.78-1.83v-4.17l-6.45-36.06-20.7-.66 20.64.61 12.28-1.45 3 .83-.44-2.78 2.78-4.17.89-5.06 2.28-1.89.94-4.17 4.17-4.11-1.39-3.28-1.39-2.78-1.83-3.22-.89-4.17-1.44-.95-4.11 1.45-3.28 1.83-.45 2.78-.89 2.28-2.33-.45v-3.67l1.83-4.22 1.83-4.11-.45-5.56-.5-6.45-2.22-.94-4.67-1.83-3.67-2.78-4.61-.5-2.78 2.33-2.33 5.06-3.22 4.61-1.39-1.33-3.22 4.61-3.22 7.84-1.89 7.39 2.78 6.95 1.83 8.78v6.06l-2.72 6.44-1.39 4.11-4.17 1.45-2.78-.94-3.67-6.45-.95-6.28.5-2.05-.94-4.61v-8.34l.94-6.95-.5-4.67 1.83-6.89 1.83-4.17 1.89-4.17-1.89 2.33-3.67 4.17-2.78 4.61v-2.33l2.33-5.56 1.83-5.94 1.89-5.11 2.28-.45 2.72 3.17 1.45-3.17 5.06-1.45 3.28-2.78 4.61-.39 6.5 2.83 3.89-3.17 5.72-.17 1.83-1.39-2.78-.5h-3.67l-2.78-2.28-1.83-1.39-4.61-.45-.44-2.78-2.78-1.39h-1.44l-5 .89-2.33.94-3.22 1.39-3.28 1.89h-7.78l-3.28-3.72h-1.83l-4.17.44-1.39-1.83.94-3.22 2.72-1.83v-2.78l-3.17 1.33-5.56 4.61-4.61 4.67-4.61 2.72-4.61.94-4.17-.94-1.39-2.72-.89.89-2.78.5-3.72.95-4.61.39-1.83.28.44 7.39.5 1.33-4.22 3.72-2.28 1.83v3.28l.45 3.72.94 2.28-.94 7.39 1.83 2.78-1.83-2.78.94-7.39-.94-2.28-.44-3.72v-3.28l2.28-1.83 4.22-3.72-.5-1.33-.44-7.39 3.22-4.89 3.67-2.78 8.33-5.94 8.78-5.56-1.39-.5-6 .5-13.39-.5-1.39-1.83-4.17-1.39-4.11-1.39 2.78-2.89h-10.45l.5 3.39-3.28-.94-3.67-.94-4.61-2.33-1.83-3.67-1.39-4.61h-1.39v4.17l-1.39.44-12 .5-8.5.17-15.95-.67-17.45-.67-17.73-.95-17.07-1.16v-.11l-27.16-2.67-21.67-2.28-19.39-2.78-19.39-4.22-16.17-2.72-14.28-3.22-.78 10.84-.39 8.33.89 4.61-.89-4.61.39-8.34.61-10.83-8-1.67-4.17 19.95-2.24 9.72 6.35-29.67-7.5-2.06-16.17-4.17-11.06-3.72-15.73-4.11-3.22.94v5.06l-2.33 2.78-.89 1.83.5 2.33h2.28l-.44 3.72-.5 3.67-2.28 2.28-1.39 2.33-3.22.94v-1.83l-.5-1.89.5-2.33 2.28-3.17 2.78-3.28Zm528.32 92.68-12.43 4.26zM511.6 394.76l-5.21-2.52.16-.03zM373.52 248.85l.02.05-.03-.05-.11-.18.11.18Zm-5.18-9.23 1 2.15-1.27-2.15-44.19-.75 44.45.75Zm-.37-6.5.15 5.54-.15-.43zm-4.11-5.06 1.83 3.72zM78.09 174.44l-2.28.94zm-6.45-.5-2.78.5zm-11.11-.89-2.28.44zm-6.45-1.39-3.72.94zm83.07 39.28.94-3.72zm-1.83-6.5-.94-3.67zm-3.67-6.89.45-2.78-.89-5.11.89 5.11-.44 2.78Zm-6-5.11-.5-2.78.94-6.89 3.28-7-3.28 7-.94 6.89zm-1.39-20.78-.94-3.67zm396.12 106.77-.11-.2-14.64 7.12 14.69-6.96.05.03Zm-14.83 6.97v-.09zm0-7.18 13.22-2.68-15.43 3.04 2.21-.41v.04Zm-13.98-1.23-3.74-24.33 1.6 16.51-.5 12.95.78-14.84zm-16.53 22.24-1.44 5.91 2.88 7.98 2.28 6h.04l-2.32-6-2.78-8.33 1.33-5.56Zm5.38 20.29.18.04 6.45 1.39-6.62-1.43Zm40.35-39.68.6.44zm6.02 4.38.93.67zm-62.31 49.24 19.39-2.78 2.49-.41-2.48.41-19.39 2.78-31.9 3.72-17.95 2.28-5.11.5-5.72 3.22-.23-.08 5.95-3.14 5.11-.5 17.95-2.28zm26.1-2.6 2.73-1.73h.02zm80.48-117.56-.05 4.58h.05l17.09-1.36-17.09 1.3zm-8.72 5.45h-.04l.03.07.39 15.5v.24l.06-.02zM333.97 349.4l1.68 38.28-.41-.16-3.28-.44-3.67-3.28-5.06-.39 5.06.39 3.67 3.28 3.28.44zm-21.85 35.84 6.95-.5zl-4.61-.5-4.17.5-2.78-1.83h-3.17l-4.61.39-1.89-1.83-1.83-1.33-4.61-.5-3.67-1.39-3.28-1.83-3.22-1.39-5.11-.94.5-31.89-35.9-.44 35.9.44-.5 31.89 5.11.94 3.22 1.39 3.28 1.83 3.67 1.39 4.61.5 1.83 1.33 1.89 1.83 4.61-.39h3.17l2.78 1.83 4.17-.5zm-128.8 20.34 45.73 3.22-45.75-3.1zm207.64-40.78-4.06-.11-.48 1.54.5-1.32 4.05-.11Zm-3.95-.47.47-1.09-.18.16-.29.92Zm5.39-10.76.08-.27-.5-5.95.03-.04-.03.04v4.11l-5.56.95-2.28-1.89 2.28 1.89 5.56-.95.5 1.83-.07.27Zm3.62-11.37 1.02-1.3-.18-.06 2.29-4.42-3.13 5.77Zm148.4-71.73 4.5 17.61-4.25-17.66zm4.92-1.22.55-.13.34 1.03 1.94-2.3-2.82 1.41Zm-53.96-23.2h3.67l43-8.72-43.01 8.72h-3.67Zm53.91-1.49 1.47 1.96-1.31-1.8-.15-.16Zm-315.68 89.71v-.1l-2.11-.21 2.1.21v.09Zm12.45.22 55.76 1.92-55.71-2.02.81-15.27zm87.51 3.02.22 6.47-.11-20.3-.1 13.83Zm.27 7.94 53.08-2.33zm137.27-42.56-4.3-.88 4.24.83zM310.3 198.5l.28 5.38-77.15-3.54 76.38 3.71-.89 2.71 2.33-3.66-.94-4.6Zm-77.13 1.82 2.66-35.02-3.93 48.56.19.02 1.08-13.55Zm-3.44 43.28 1.59-19.94-1.66 20.17 59.29 2.71zm-2.49 29.75.19-2.44-.2 2.42-3.64-.37 3.36.37zm-61.45 53.89 6.6-59.91h-.06l-6.6 59.9h.06Zm-14.43-76.06-2.19 13.32h-.12zm.23-1.42-.65-.12zm-46.38 67.4 40.89 6.81-40.72-6.97 13.99-73.07-.18-.04-16.59 86.79-1.83 1.83 1.83-1.83 2.61-13.5Zm52.62-105.41-1.96 11.98 1.97-12-3.51-1.73zm1.05-6.37v-.02zm138.53 45.26 1.33-1.83zm14.72-11.89v-.12h.16zM73.66 313.46l16.42 24.11-.16-.24-16.26-23.86Zm20 29.5-.13.25.22-.1.94-11.06 2.78-2.28-2.78 2.28-.94 11.06-.09-.14Zm-3.57 20.98-.44-1.39zm6-8.34-.89-2.33-.94-4.11-2.33-2.78 2.33 2.78.94 4.11zm361.26 67-22.42-.88h-10.11 10.11zm-3.02-5.55 2.75 4.17-.19-.95-2.5-3.28.85-5.62-.9 5.68Zm3.65 8.67-.41-2.02.25 2.02zm11.81-.06 22.77-.11 1.06 1.22h.17l-1.17-1.23-22.82.11Zm25.65 1.11h.12l-1.11-10.6zm-.99-10.61.51.07zm-18.89-51.29 2.28 2.28 6.5 8.33-6.5-8.34-2.28-2.28Zm13.89 11.06 6.45 8.33 3.67 5.56 2.28 3.22-2.28-3.22-3.67-5.56-6.44-8.33Zm11.06-21.23 15.67-.5zm-251.1-79.51-.42-.04.42.03v.22-.22Zm80.18 18.46-81.03-3.23 76.65 3zm.88.04h-.11l-5.32-4.61zm-12.32-13.44.39 1.17-.39-1.01-2.6-16.92zm15.45 25v.32-.04l-1.11-.78-.15-.28.15.28zm-3.71-8.37-1.03 1-.04-.08 1.07-.93Zm1.05-1.02h-.01l-.03-.25.05.25Zm26.89-12.84 6.05-1.89zm9.14 2.9-3.02-4.7 2.21 3.19zm.03.04 5.16-2.94-.89-6 1.83-1.83-2.78-3.28 2.28-1.83 4.22-1.89 2.72-3.17 1.89-3.72-1.89-2.78-3.22-4.61-.07-.12.07.12 3.22 4.61 1.89 2.78-1.89 3.72-2.72 3.17-4.22 1.89-2.28 1.83 2.78 3.28-1.83 1.83.89 6-5 2.89 1.77 6.31-1.94-6.26Zm32.23 50.34-.34-.26.28.21 3.88-3.23-1.32 1.18-2.44 2-.06.11Zm-20.12 67.39-2.11-7.77-.02-.64-.15.53 2.27 7.88Zm181.88-154 1.27 1.11.04-.55-1.31-.57Zm1.41-.97.13-1.93.05-5.7zM552.19 276v-.37l-.43-.92.43 1.3Zm-141.25 45.86 3.22-2.33 2.78-.89 4.42-.32-7.2 1.21zl-.5 3.22-2.72 1.39-.44 2.78-.07.06.07-.06.45-2.78 2.72-1.39.5-3.22Zm18.89-7.44-4.11 1.89-1.83 1.83 1.83-1.83z" class="b"/><path d="m410.02 200.13 2.28-.45 2.72 3.17 1.45-3.17 5.06-1.45 3.28-2.78 4.61-.39 6.5 2.83 3.89-3.17 5.72-.17 1.83-1.39-2.78-.5h-3.67l-2.78-2.28-1.83-1.39-4.61-.45-.44-2.78-2.78-1.39h-1.44l-5 .89-2.33.94-3.22 1.39-3.28 1.89h-7.78l-3.28-3.72h-1.83l-4.17.44-1.39-1.83.94-3.22 2.72-1.83v-2.78l-3.17 1.33-5.56 4.61-4.61 4.67-4.61 2.72-4.61.94-4.17-.94-1.39-2.72-.89.89-2.78.5-3.72.95-4.61.39-1.33.2-.17-.42 2.9-4.39 3.67-2.78 8.33-5.94 8.78-5.56-1.39-.5-6 .5-13.39-.5-1.39-1.83-4.17-1.39-4.11-1.39 2.78-2.89h-10.45l.5 3.39-3.28-.94-3.67-.94-4.61-2.33-1.83-3.67-1.39-4.61h-1.39v4.17l-1.39.44-12 .5-8.5.17-15.95-.67-17.45-.67-17.73-.95-17.07-1.16v-.11l-27.16-2.67-21.67-2.28-19.39-2.78-19.39-4.22-16.17-2.72-14.28-3.22-.02.28-.16-.03v-.24l-7.99-1.67-.08.38h-.06l.08-.38-7.5-2.06-16.17-4.17-11.06-3.72L59.84 122l-3.22.94V128l-2.33 2.78-.89 1.83.5 2.33h2.28l-.44 3.72-.5 3.67-2.28 2.28-1.39 2.33-3.22.94v-1.83l-.5-1.89.5-2.33 2.28-3.17 2.78-3.28-.44-1.89-.5-.89-4.61-.95v-2.28l-3.67.95-7.39-7.39-4.17 6.89 2.28 8.33-.89 6.45 1.83 1.83-1.83 4.67v4.17l1.81 1.6-.22.6-.43-.14-3 2.56-2.28 2.28v5.11l-4.61 6.95-.5 3.22.89 2.28-2.28 2.39-1.39 2.78-.44 5-2.33 3.72-2.28 1.45 1.33 2.28-4.11 1.83-.89 4.17-.94 3.22 1.33.94-1.83 2.78v4.17l1.72 3.28.18.05v.04l-.35-.09-2 1.33.94 2.78v1.83l-6.06 10.17L4 237.57v5.56l2.28 2.78.5 8.72-.89 7.39 1.33 6.06 2.78 4.61.5 7.39h4.61l.44-1.83 2.33.94v1.83l-1.89.95-.44 2.28v1.83l-1.89-.45-2.28 3.22 2.78 3.28 2.78 6.45-1.39 2.78-1.89 1.83 3.28 8.34 1.83 3.72 2.28 5.95 2.33 5.11v4.67l-.89 3.67-.5.95 4.17 1.33 2.28 2.78 2.78-.45 2.33.45 2.28 1.83.94 2.39.89 2.72 3.72.44 3.22 1.89 1.39 1.83 2.33 3.28 1.83 2.72 1.83 2.78 2.78.45.44.94.94 2.78.44 4.61.44 3.67 2.78 2.39 2.78.39 2.78.5 8.28 1.89 6.06.89 4.11-.5 3.44-1.61v-6.45 12.45l16.61 11.84 8.33 5.56 10.11 6.89 30.18 3.36.47.37.24-.24 8.95.91.61-4.11 20.06 1.5v-.02l5.06 2.85 5.56 6.06.89 2.78 7 5.06.39 3.72 4.22 6 1.33 6.5 3.28 3.67 6.44 5.06 4.61 2.78 2.78-1.33 2.28-1.89.94-6.45 4.61-1.83 6.45 1.83 6.45.95 3.28 3.17 4.11 3.28 3.72 3.22v3.67l2.78 3.28v4.11l2.33 2.78 2.28 2.39 3.22 3.17 1.39 5.11 3.67 6.95 2.78 6.95 6.06 5.56 4.11 1.83 7.89 1.33 7.33 2.11-.89-2.11.45-3.67-.95-5.56-1.33-2.78 1.83-3.67-.94-2.78h-3.67l.45-2.28 2.72-1.45 1.44-3.22v-2.33l2.78-.44 1.33-1.83-.44-1.83 2.78-1.44 5.56-.89.45-1.89-1.89-1.83-.89-2.28 3.22.44 4.67.5 5.5-2.78 5.56-3.28 3.67-4.61.94-2.28-1.39-2.78 3.22-1.83v2.28l2.78 2.33 4.11-2.78 3.72-.72-.21-1.53.21 1.53 5.11-2.06 5.06 2.78 7.33.95 6.5-.95 6.45-.5v2.78l4.61 1.83 5.56 3.72 1.39-3.22 4.11.45 1.89-1.39 2.33-.44 6.45 1.83 2.78 3.28 1.83-1.45.94-2.78-1.83-.44-2.78-2.72-3.28-1.89 1.83-2.78 2.33-1.39v-3.22l-2.72.95-2.39 4.11-.89-1.83.89-3.22-1.83-.89-2.28 1.33-5.11-1.33 6.06-1.89 5.56.94-2.78-2.61 4.33-2 6.28-1.89 1.33.17 1.05.38 6.5.5.03-.13.32.02.67-3.77.39-1.5 2.27 1.21v3.67l4.5-.33.28 2.56h3.83l5.56-3.22 5.11.45 5.06 3.22 5.5 2.33 6.06.44 4.61.5 2.78-2.78 1.83-2.78 5.56 2.28 5.06 2.33 4.17 2.28 5.06 3.28 5.11 3.22.89 4.61-.45 5.56.45 7.39 1.39-2.28 1.83-.94.5 4.17-.94 2.72-.5 2.78 2.33 2.78 3.72 3.28 3.22-.94v4.17l2.33 2.78v3.28l4.61 2.72 4.11 3.72 2.78 2.78 1.39 2.78 2.28 1.83h3.28l4.61-3.28.44-2.28.89-2.78 1.45-6-.5-11.56-3.22-4.61-5.5-8.33-2.78-6.95-7.39-12-2.78-6.5-4.61-8.33-1.93-6.46h.1l-1.44-3.71.94-9.22 1.83-.95.95-1.83-2.78-.45 8.84-6.45M409.97 200.18l-1.89 5.11-1.83 5.94-2.33 5.56v2.33l2.78-4.61 3.67-4.17 1.89-2.33-1.89 4.17-1.83 4.17-1.83 6.89.5 4.67-.94 6.95v8.34l.94 4.61-.5 2.05.95 6.28 3.67 6.45 2.78.95 4.17-1.45 1.39-4.11 2.72-6.44v-6.06l-1.83-8.78-2.78-6.95 1.89-7.39 3.22-7.84 3.22-4.61 1.39 1.33 3.22-4.61 2.33-5.06 2.78-2.33 4.61.5 3.67 2.78 4.67 1.83 2.22.94.5 6.45.45 5.56-1.83 4.11-1.83 4.22v3.67l2.33.45.89-2.28.45-2.78 3.28-1.83 4.11-1.45 1.44.95.89 4.17 1.83 3.22 1.39 2.78 1.39 3.28-4.17 4.11-.94 4.17-2.28 1.89-.89 5.06-2.76 4.14.35 2.35.07.46v.05l3.22.39 4.11-.44h2.78l1.45 1.83 4.11-2.33 3.67-2.28 9.28-6.06 2.95-2.28.05.52 8.56-6.3v-.22l3.67-4.17 2.78-2.78-2.78-3.22v-5.06l9.67-2.39 7.89-.39 5.06-1.44 2.78-2.78 3.67-1.33-.89-4.61-.44-7 7.39-10.17 4.61-2.28 6.89-1.39 7.75-.65 18.82-3.6.22-1.74-1.89-3.67 5.55-1.67.94-1.61 1.83-6 .95-7.39-.95-9.72 3.67-3.22-.39-10.17 3.67-1.83 4.11 3.67 4.61-3.22 3.28-.94 3.72 5.11 2.28 8.78.44 6.45.44 4.61 1.83 2.33 3.72-1.83 1.39 3.22 3.72 4.61 2.78.94 1.33 1.83-2.28 1.83h-4.17l-6 5.56-.89-2.28-.94 2.78-3.67-.5.39 5.11-3.17 3.22-5.56 6-3.67 5.56-1.45 7.83-.26-.59.05.46.16.41.05 5.06.95.22 1.83 5.56 3.28 3.67 1.33 1.89 3.72.5.89-2.78-1.83-2.39 3.28 3.72v2.33l-4.22 1.83h-3.67l-1.83 1.89-4.61-1.89-.1-.09.1.09-.44 5.56-1.44 1.89h-4.61l-4.11.89-4.17.94-6.68 5.39-.26.26-1.83 3.07-2.26 6.55-.08.9 3.28 1.83v6.95l-1.83 5.56-4.61 6.89-6.2-.85-.03.07 1.06 4.39 4.89 3.39 3.83-.39-3.55 3.83v2.5l-2.78 5.56-.5 5.56-2.28 5.11-1.83 1.83.44-7.39.45-3.67-3.22-3.72-1.89-1.83-2.72.89.44-4.61-1.39-3.67-.94-5.56h-1.33l.45 5.06.89 5.56v4.17l3.28 3.22-5.11-1.89 5.56 4.67.89 2.33-.89.89-10.53-7.07-.08.04 3.71 3.36 5.5 5.56 2.78 2.78-2.33 1.33h-5.06l4.61 2.78 5.56 1.39 3.72 1.39 1.87 3 .59.74-.16.08.43 3.57-1.83 1.83-4.17 3.28-3.22-.5.45 2.33 4.17-.89 2.78-2.78 3.22-.5 5.11 6.95-.5 3.72-1.83 2.78.89-6.5-3.17-1.39-2.33 3.67-2.28 3.28-5.11-1.39-2.78.89 5.11.95-.5 2.78-2.28 2.78 5.06-1.39 1.39 2.28-4.17 3.28-7.39 1.39-4.11 5.5-1.83 5.11v3.22l-3.72.94-1.39 1.39-.09-.05-4.96 3.27-2.33 6.06v2.78l-3.72 1.33-1.83 4.61-3.22 1.45-2.33.39v2.78l-4.11.95h-1.39l1.72 2.39 1.67 3.72-.11-.06m0 0-5.05-2.55-.16.03zm-91.59-136.85h-.23" style="fill:none;stroke:rgba(255,255,255,.12);stroke-width:2px"/><circle cx="181" cy="179" r="10.5" class="d"/><circle cx="181" cy="179" r="2" class="g"/><circle cx="115" cy="219" r="10.5" class="d"/><circle cx="115" cy="219" r="2" class="g"/><circle cx="140" cy="293" r="10.5" class="d"/><circle cx="140" cy="293" r="2" class="g"/><circle cx="208" cy="303" r="10.5" class="d"/><circle cx="208" cy="303" r="2" class="g"/><circle cx="395" cy="287" r="10.5" class="d"/><circle cx="395" cy="287" r="2" class="g"/><circle cx="358" cy="367" r="10.5" class="d"/><circle cx="358" cy="367" r="2" class="g"/><circle cx="431" cy="349" r="10.5" class="d"/><circle cx="431" cy="349" r="2" class="g"/><circle cx="432" cy="393" r="10.5" class="d"/><circle cx="432" cy="393" r="2" class="g"/><circle cx="510" cy="460" r="10.5" class="d"/><circle cx="510" cy="460" r="2" class="g"/><circle cx="527" cy="341" r="10.5" class="d"/><circle cx="527" cy="341" r="2" class="g"/><circle cx="519" cy="259" r="10.5" class="d"/><circle cx="519" cy="259" r="2" class="g"/><circle cx="544" cy="221" r="10.5" class="d"/><circle cx="544" cy="221" r="2" class="g"/><circle cx="578" cy="223" r="10.5" class="d"/><circle cx="578" cy="223" r="2" class="g"/></svg>