<?xml version="1.0" encoding="UTF-8"?> <svg xmlns="http://www.w3.org/2000/svg" width="1474" height="765" viewBox="0 0 1474 765" fill="none"><mask id="mask0_1725_3595" style="mask-type:alpha" maskUnits="userSpaceOnUse" x="0" y="0" width="1474" height="765"><rect width="1474" height="765" fill="#D9D9D9"></rect></mask><g mask="url(#mask0_1725_3595)"><path d="M0 807L1474 763.588C1474 527.289 1473.57 29.5311 1473.57 -42L0 1.41197V807Z" fill="#0C2233"></path><g opacity="0.05"><path d="M-2033.26 664.546C-2034.09 691.465 -2031.7 717.978 -2022.6 743.779C-2012 773.746 -1989.63 790.812 -1955.65 796.297C-1936.57 799.395 -1917.27 800.309 -1898.07 800.918C-1834.08 802.899 -1771.09 808.943 -1710.56 830.123C-1674.85 842.617 -1640.76 857.905 -1613.36 881.879C-1587.64 904.379 -1571.02 932.415 -1564.38 965.479C-1555.73 1008.35 -1571.41 1043.44 -1599.36 1076.56C-1623.13 1104.75 -1654.65 1124.61 -1683.61 1147.41C-1712.95 1170.52 -1742.36 1194.19 -1764.06 1223.95C-1795.25 1266.72 -1783.2 1329.75 -1717.36 1345.59C-1696.5 1350.62 -1676.74 1344.78 -1660.06 1334.42C-1627.82 1314.31 -1600.59 1288.91 -1575.37 1261.69C-1543.07 1226.85 -1510.15 1192.77 -1464.46 1171.28C-1438.07 1158.89 -1410.9 1150.56 -1381.38 1146.75C-1351.92 1142.99 -1323.36 1146.95 -1294.29 1148.98C-1271.81 1150.56 -1248.87 1150.61 -1225.94 1147.71C-1211.1 1145.84 -1195.65 1145.79 -1180.53 1144.62C-1140.14 1141.47 -1099.97 1137.3 -1059.96 1130.55C-1001.44 1120.64 -942.687 1121.56 -887.508 1144.97C-844.325 1163.31 -804.154 1186.72 -763.984 1210.19C-704.621 1244.78 -660.936 1292.42 -622.495 1344.68C-602.912 1371.35 -584.723 1399.08 -560.398 1422.29C-536.24 1445.35 -507.953 1464.6 -476.263 1478.36C-428.115 1499.23 -379.743 1519.7 -330.478 1538.34C-281.493 1556.83 -230.61 1565.06 -177.887 1561.1C-158.08 1559.62 -138.664 1553.58 -118.914 1550.58C-86.6102 1545.71 -54.6411 1540.43 -21.1657 1543.78C15.2108 1547.43 51.9773 1549.42 88.4655 1552.21C116.808 1554.39 144.872 1552.57 172.824 1551.09C195.81 1549.87 219.801 1549.42 240.053 1534.89C256.735 1522.9 264.658 1507.87 266.499 1489.53C268.954 1464.9 263.263 1441.13 255.898 1417.67C247.641 1391.36 244.405 1365.1 247.195 1337.21C252.551 1283.27 275.649 1236.14 310.017 1193.88C332.39 1166.41 362.908 1146.95 401.683 1139.44C423.442 1135.22 441.631 1122.02 460.6 1111.7C521.86 1078.34 583.008 1044.76 645.384 1013.07C669.709 1000.73 693.7 987.929 720.424 980.31C760.427 968.933 800.487 966.139 842.331 973.555C878.038 979.853 910.62 992.246 940.971 1008.75C978.296 1029.02 1017.18 1045.63 1057.69 1059.54C1095.52 1072.55 1125.53 1095.76 1149.8 1124.25C1211.23 1196.32 1254.3 1277.33 1283.48 1364.23C1295.25 1399.28 1303.79 1435.8 1304.68 1472.57C1305.52 1507.06 1292.3 1538.34 1265.24 1563.99C1221.94 1605.08 1169.78 1635 1116.61 1663.9C1088.71 1679.03 1058.19 1690.51 1036.15 1713.72C1011.83 1739.42 998.047 1768.42 1000.17 1802.76C1002.06 1833.69 1036.93 1862.59 1071.08 1863.91C1118.5 1865.69 1156.39 1848.06 1190.31 1819.92C1224.95 1791.13 1252.68 1757.1 1281.42 1723.68C1309.59 1690.87 1343.79 1663.44 1378.94 1637.03C1391.16 1627.89 1403.71 1619.05 1417.88 1612.9C1442.66 1602.14 1468.38 1601.53 1495.49 1606.35C1586.66 1622.6 1673.52 1652.62 1763.07 1674C1804.36 1683.91 1845.59 1693.56 1887.6 1700.72C1929.44 1707.88 1971.79 1714.48 2009.5 1734.55C2032.77 1746.94 2055.81 1759.79 2080.42 1769.9C2114.73 1784.02 2150.6 1793.57 2187.48 1800.57C2218.73 1806.52 2249.97 1804.74 2281.21 1802.66C2292.98 1801.89 2305.09 1799 2314.46 1792.8C2341.69 1774.87 2369.59 1757.45 2388.33 1730.94C2406.24 1705.75 2411.77 1678.83 2406.13 1649.22C2404.12 1638.55 2404.68 1627.33 2403.12 1616.36C2399.44 1589.84 2395.03 1563.48 2390.17 1537.07C2385.15 1509.8 2379.46 1482.63 2373.49 1455.5C2365.57 1419.34 2358.37 1383.03 2349.11 1347.12C2342.75 1322.48 2337.34 1297.8 2333.04 1272.76C2328.36 1245.49 2327.69 1218.11 2331.15 1191.14C2337.17 1143.5 2355.31 1100.38 2392.02 1064.17C2429.4 1027.24 2477.16 1007.74 2527.42 991.129C2566.2 978.329 2605.98 967.612 2638.73 942.674C2670.25 918.651 2674.49 888.786 2647.77 861.004C2628.07 840.535 2601.52 828.244 2575.52 816.004C2519.33 789.593 2462.09 765.061 2410.82 730.676C2384.65 713.153 2359.21 695.021 2334.49 675.822C2311.84 658.198 2290.75 639.151 2270.67 619.394C2239.93 589.224 2209.91 558.496 2193.79 518.575C2183.63 493.434 2179.28 468.293 2180.51 441.678C2181.68 416.944 2181.74 392.107 2180.4 367.372C2179.56 351.475 2175.26 335.679 2172.75 319.832C2169.18 297.18 2176.43 276.204 2184.64 255.227C2195.46 227.496 2212.09 202.253 2223.86 174.927C2232.39 155.119 2239.7 134.803 2236.47 113.979C2230.61 75.8355 2235.3 37.2353 2228.54 -0.552759C2222.63 -33.922 2205.17 -63.2789 2181.96 -89.4867C2168.68 -104.47 2156.41 -120.316 2139.28 -132.303C2109.32 -153.229 2077.79 -148.302 2045.49 -138.449C2023.9 -131.846 2005.38 -120.316 1988.19 -107.619C1954.27 -82.4777 1924.03 -53.7304 1898.31 -21.3261C1878.45 3.6627 1869.69 31.902 1867.07 62.681C1864.67 90.3617 1862.38 118.094 1857.25 145.622C1853.51 165.735 1851.84 186.203 1843.3 205.199C1826.84 241.717 1778.75 265.233 1734.84 248.117C1710.96 238.771 1699.08 221.858 1693.55 200.373C1685.46 168.63 1691.49 137.444 1700.19 106.615C1706.94 82.6417 1705.44 59.8368 1693.72 37.0319C1681.89 14.0239 1676.15 -10.6093 1671.35 -35.8521C1665.32 -67.2405 1665.49 -98.6289 1667.44 -129.763C1669.34 -160.644 1673.91 -191.423 1673.3 -222.405C1672.46 -265.729 1663.76 -307.174 1634.58 -343.032C1620.13 -360.758 1600.88 -373.608 1579.57 -382.953C1551.12 -395.448 1523.44 -409.11 1495.55 -422.468C1464.19 -437.451 1431.89 -438.67 1397.63 -434.76C1347.14 -428.969 1302.78 -408.399 1257.03 -390.724C1212.4 -373.455 1166.93 -357.761 1119.17 -349.432C1075.38 -341.762 1031.8 -342.727 987.837 -353.241C965.074 -358.675 940.804 -360.86 917.204 -364.161C889.977 -368.021 862.639 -371.881 835.357 -375.284C812.705 -378.077 789.997 -381.074 767.234 -383.461C738.111 -386.509 708.764 -389.708 680.31 -395.854C651.8 -402 623.123 -404.844 594.557 -402.304C544.289 -397.835 499.209 -380.008 459.317 -351.565C430.863 -331.3 405.645 -307.682 377.637 -287.01C369.268 -280.814 361.513 -273.399 352.084 -268.98C321.119 -254.352 310.575 -253.895 281.563 -279.95C267.894 -292.242 257.237 -307.327 245.131 -321.091C223.929 -345.216 204.235 -370.408 180.969 -393.061C162.167 -411.396 140.018 -424.957 115.302 -435.725C61.3508 -459.241 10.2453 -487.48 -41.4184 -514.805C-80.8635 -535.68 -121.927 -553.863 -159.419 -577.938C-200.203 -604.196 -234.627 -635.889 -266.596 -670.579C-311.62 -719.389 -350.396 -772.058 -388.447 -825.337C-404.682 -848.04 -427.222 -866.02 -449.371 -884.355C-492.22 -919.756 -531.832 -958.002 -558.166 -1005.85C-560.509 -1010.06 -563.299 -1014.07 -566.201 -1018.04C-575.016 -1030.23 -581.32 -1032.05 -595.603 -1025.3C-620.263 -1013.67 -643.417 -999.548 -667.631 -987.105C-710.87 -964.909 -756.452 -948.301 -803.206 -934.13C-872.221 -913.205 -938.168 -886.54 -1001.38 -853.729C-1075.58 -815.179 -1153.86 -785.111 -1236.88 -765.811C-1274.37 -757.075 -1312.25 -750.777 -1350.58 -745.901C-1403.53 -739.197 -1456.59 -735.438 -1509.93 -735.489C-1576.99 -735.54 -1642.66 -744.225 -1706.82 -763.119C-1748.49 -775.41 -1788.78 -767.995 -1825.71 -748.491C-1868.5 -725.94 -1897.91 -690.641 -1926.14 -654.834C-1953.98 -619.535 -1973.84 -579.563 -2001.51 -544.213C-2031.47 -505.968 -2053.9 -464.827 -2068.35 -419.776C-2075.44 -397.683 -2080.63 -375.487 -2084.53 -352.733C-2090.11 -320.278 -2090.95 -287.721 -2089.11 -255.216C-2087.6 -229.16 -2084.7 -203.003 -2079.4 -177.1C-2076.66 -163.996 -2075.55 -150.334 -2073.6 -136.976C-2070.08 -113.003 -2066.62 -89.0296 -2063.22 -65.0566C-2060.87 -48.4989 -2059.42 -31.7891 -2057.64 -15.1299C-2053.62 22.1502 -2055.35 59.5828 -2054.74 96.9644C-2053.96 143.59 -2045.7 189.301 -2025 232.067C-2007.7 267.772 -1986.67 301.954 -1967.92 337.05C-1956.04 359.347 -1946.78 382.66 -1945.16 407.7C-1942.99 441.12 -1954.48 471.036 -1975.9 497.853C-1997.27 524.619 -2013.45 553.569 -2022.77 585.618C-2028.46 605.223 -2033.37 624.879 -2033.54 645.348C-2033.54 651.442 -2032.03 657.69 -2034.76 663.633" stroke="#FFFEFB" stroke-width="2" stroke-linecap="round" stroke-linejoin="round"></path><path d="M2763.31 1333.5C2730.12 1355.04 2694.97 1373.78 2657.42 1388.05C2607.32 1407.1 2565.31 1405.12 2522.29 1367.69C2492.5 1341.73 2467 1313.14 2452.83 1277.43C2436.87 1237.31 2432.35 1196.78 2448.65 1155.59C2460.42 1125.93 2484.13 1106.57 2512.92 1090.93C2551.92 1069.75 2595.1 1058.12 2637.5 1044.81C2687.44 1029.12 2728.95 1004.49 2749.76 958.114C2763.54 927.386 2772.07 896.048 2756.84 863.034C2749.37 846.832 2736.92 835.404 2721.86 825.246C2669.3 789.947 2609.49 766.685 2551.69 740.172C2509.07 720.618 2466.55 700.911 2428.67 674.145C2370.54 633.106 2324.23 583.891 2302.86 518.219C2295.33 495.16 2290.98 471.542 2287.8 447.62C2283.33 414.301 2284.9 380.932 2285.84 347.664C2286.63 320.238 2291.87 293.065 2297.39 265.994C2304.09 233.082 2316.98 201.439 2322.22 168.426C2324.9 151.512 2324.28 133.685 2323.45 116.111C2322.11 86.7546 2318.37 57.6516 2315.86 28.4472C2314.63 13.8196 2315.75 -0.807863 2312.57 -15.4863C2305.09 -50.0745 2299.46 -84.7136 2277.75 -115.543C2256.27 -145.967 2244.22 -180.301 2234.57 -215.245C2226.26 -245.465 2219.67 -276.142 2207.62 -305.347C2190.33 -347.249 2158.14 -371.374 2107.48 -376.606C2064.79 -380.974 2026.58 -373.203 1987.97 -357.153C1953.55 -342.83 1917.61 -341.865 1885.03 -364.924C1880.01 -368.479 1873.93 -371.577 1866.45 -371.323C1836.21 -370.308 1809.38 -380.06 1783.43 -393.113C1726.64 -421.657 1670.85 -451.928 1612.1 -477.272C1547.21 -505.258 1479.81 -526.539 1410.02 -542.081C1360.08 -553.204 1316.45 -540.811 1273.21 -519.022C1227.91 -496.217 1182.22 -473.768 1131.56 -461.273C1062.1 -444.106 997.936 -453.299 938.74 -490.681C926.522 -498.401 914.136 -505.918 899.853 -510.083C874.746 -517.447 849.919 -513.943 826.374 -505.054C799.148 -494.795 770.973 -489.36 741.961 -485.602C702.85 -480.523 663.461 -480.066 624.128 -478.085C565.434 -475.139 507.243 -467.52 450.056 -454.213C377.47 -437.3 310.073 -446.544 249.26 -488.192C206.244 -517.701 157.202 -536.595 107.38 -554.016C66.2053 -568.39 23.4687 -579.209 -15.7532 -597.95C-64.5714 -621.314 -106.304 -652.346 -137.547 -694.198C-149.878 -710.705 -152.779 -730.513 -158.693 -749.102C-171.302 -788.769 -195.181 -822.342 -223.356 -853.73C-258.561 -892.94 -298.509 -928.341 -335.555 -966.028C-366.743 -997.772 -395.977 -1030.99 -421.698 -1066.85C-458.074 -1117.48 -508.455 -1150.24 -575.238 -1161.21C-600.735 -1165.43 -626.176 -1167.06 -651.561 -1165.33C-681.02 -1163.35 -706.405 -1150.09 -730.619 -1135.31C-771.905 -1110.07 -809.23 -1080.36 -847.002 -1051.15C-883.769 -1022.76 -924.162 -999.245 -966.23 -978.217C-1002.44 -960.085 -1038.59 -941.801 -1075.92 -925.751C-1116.31 -908.381 -1158.1 -894.261 -1201.78 -885.728C-1235.2 -879.176 -1269.68 -877.957 -1303.44 -881.106C-1363.92 -886.744 -1417.14 -909.193 -1461.39 -947.692C-1499.44 -980.808 -1533.08 -1017.53 -1565.88 -1054.86C-1583.91 -1075.33 -1601.42 -1077.61 -1628.87 -1065.98C-1680.31 -1044.19 -1724.17 -1012.86 -1766.85 -979.487C-1801.38 -952.467 -1835.58 -925.04 -1868.11 -896.14C-1937.91 -834.024 -1998.11 -765.406 -2036.16 -682.11C-2053.45 -644.271 -2074.32 -607.702 -2094.85 -571.133C-2124.03 -519.123 -2143 -463.965 -2158.9 -407.791C-2173.52 -356.239 -2183.23 -303.671 -2196.11 -251.763C-2201.3 -230.837 -2197.17 -209.302 -2193.16 -188.529C-2190.26 -173.495 -2187.19 -158.512 -2187.19 -143.377C-2187.08 -108.433 -2186.41 -73.4383 -2188.81 -38.5961C-2190.7 -10.9154 -2193.49 16.7655 -2198.46 44.3954C-2204.15 75.7331 -2211.51 107.02 -2210.01 139.373C-2208.22 177.669 -2198.51 213.527 -2174.75 245.271C-2149.69 278.742 -2130.11 314.245 -2120.01 353.81C-2111.92 385.656 -2111.87 417.603 -2115.66 450.109C-2121.07 496.582 -2140.04 539.652 -2153.66 584.043C-2158.85 600.905 -2161.86 617.92 -2164.7 635.188C-2168.05 655.809 -2165.93 675.871 -2164.09 696.188C-2162.81 710.612 -2158.57 724.63 -2155.55 738.75C-2150.98 760.285 -2155 780.5 -2160.18 800.968C-2164.03 816.205 -2170.73 830.579 -2177.65 844.8C-2185.29 860.444 -2187.97 876.595 -2188.53 893.61C-2189.03 910.472 -2191.09 927.385 -2201.53 942.419C-2214.75 961.415 -2236.17 967.866 -2257.82 974.011C-2282.87 981.122 -2308.81 985.947 -2332.69 996.105C-2358.08 1006.87 -2378.61 1022.06 -2372.98 1055.68C-2370.91 1068.02 -2364.89 1079.3 -2355.23 1087.07C-2333.81 1104.29 -2308.54 1114.9 -2279.24 1115.41C-2244.26 1116.02 -2214.41 1103.42 -2188.41 1083.57C-2164.81 1065.54 -2139.43 1053.35 -2107.91 1054.56C-2095.58 1055.02 -2083.13 1056.7 -2071.86 1060.81C-2032.92 1075.03 -1996.49 1069.6 -1960.5 1052.28C-1950.35 1047.4 -1940.25 1041.31 -1928.48 1039.99C-1899.41 1036.64 -1882.84 1057.26 -1889.65 1083.77C-1902.14 1132.63 -1916.32 1181.13 -1927.86 1230.1C-1938.47 1275.05 -1929.09 1318.17 -1901.92 1358.04C-1875.92 1396.18 -1846.18 1431.02 -1805.18 1456.42C-1781.74 1470.89 -1755.19 1478.16 -1726.34 1478.71C-1667.43 1479.83 -1614.54 1463.12 -1565.77 1434.58C-1529.34 1413.25 -1490.34 1397.4 -1447.77 1391.36C-1413.85 1386.53 -1379.32 1386.99 -1344.72 1390.49C-1314.04 1393.59 -1283.69 1399.48 -1252.39 1398.41C-1198.44 1396.59 -1150.68 1381.04 -1109.11 1349.5C-1077.76 1325.68 -1045.4 1303.79 -1006.18 1290.64C-949.715 1271.69 -901.845 1282.82 -858.718 1318.98C-812.689 1357.53 -778.712 1404.05 -747.301 1452.86C-712.877 1506.34 -660.432 1539.87 -595.044 1556.58C-561.178 1565.21 -526.252 1569.17 -491.996 1576.13C-446.469 1585.37 -400.999 1595.02 -355.416 1604.06C-331.537 1608.79 -307.38 1612.04 -283.222 1615.39C-230.777 1622.65 -178.053 1624.43 -125.218 1623.31C-97.8794 1622.76 -70.6527 1621.84 -43.5376 1624.94C1.20774 1630.12 43.9448 1641.85 83.5573 1661.51C125.011 1682.13 160.383 1709.81 193.747 1740.29C223.596 1767.56 253.556 1795.19 288.594 1817.18C314.147 1833.23 342.879 1843.34 374.067 1838.82C404.976 1834.35 435.941 1829.12 465.343 1817.64C488.553 1808.6 509.531 1797.73 525.487 1779.55C538.71 1764.51 545.07 1747.4 548.585 1728.4C554.109 1698.59 545.907 1670.55 540.551 1641.75C534.693 1610.01 528.444 1577.81 532.573 1545.61C537.594 1506.09 546.409 1467.13 569.563 1432.19C576.649 1421.47 579.717 1409.49 580.442 1396.89C582.507 1360.93 593.107 1327.66 620.668 1300.69C644.715 1277.18 655.818 1247.67 668.761 1218.97C682.096 1189.31 694.092 1159.34 714.009 1132.27C744.472 1090.83 786.539 1070.82 840.1 1076.86C919.325 1085.85 995.927 1104.59 1062.21 1147.31C1144.17 1200.13 1196 1271.74 1218.09 1361.44C1224.17 1386.17 1227.74 1410.91 1225.34 1435.8C1222.83 1461.5 1210.39 1484.45 1193.66 1505.28C1161.97 1544.74 1117.89 1571.56 1075.71 1600.15C1013.06 1642.56 956.426 1689.85 913.689 1750.09C885.514 1789.81 888.75 1834.65 916.535 1872.09C926.02 1884.83 938.684 1894.23 952.632 1902.61C956.482 1904.95 960.276 1906.17 964.739 1906.17" stroke="#FFFEFB" stroke-width="2" stroke-linecap="round" stroke-linejoin="round"></path><path d="M1318.07 1314.97C1336.1 1352.5 1340.78 1394 1360.03 1431.13C1384.8 1478.92 1424.81 1511.48 1476.92 1531.9C1547.38 1559.47 1619.19 1584.11 1692.33 1605.24C1725.64 1614.84 1759.61 1621.74 1793.98 1627.48C1844.14 1635.86 1894.74 1639.47 1945.29 1636.42C2010.12 1632.51 2074.9 1625.15 2133.98 1597.72C2186.54 1573.34 2218.28 1533.98 2229.16 1480.95C2234.91 1453.07 2239.6 1425.13 2242.83 1396.89C2246.12 1368.5 2248.63 1340.06 2250.87 1311.57C2253.54 1277.84 2255.16 1244.07 2258.79 1210.44C2266.04 1142.43 2287.46 1078.59 2336.56 1025.52C2365.41 994.331 2399.77 968.326 2440.34 949.28C2460.87 939.629 2481.62 929.623 2499.81 915.91C2502.54 913.828 2506.11 911.746 2508.79 909.358C2524.75 895.188 2524.86 881.982 2510.24 866.745C2493.95 849.781 2475.15 835.153 2456.4 820.78C2423.88 795.842 2390.68 771.666 2357.82 747.134C2298.73 702.946 2239.37 658.86 2186.15 608.527C2135.93 561.038 2095.2 507.759 2068.59 446.354C2048.73 400.49 2013.75 373.114 1960.02 364.48C1936.03 360.62 1912.37 361.788 1889.11 365.242C1866.79 368.543 1844.47 371.793 1822.16 374.84C1798.45 378.091 1774.79 376.009 1751.13 377.025C1722.34 378.294 1694.45 372.555 1666.89 366.867C1634.42 360.162 1602.39 351.375 1570.48 342.69C1546.54 336.189 1539.35 321.054 1543.14 298.909C1546.15 281.132 1548.89 263.203 1551.57 245.376C1556.92 209.264 1564.68 173.609 1578.74 139.478C1591.23 109.004 1597.82 77.7171 1594.02 45.6176C1591.85 26.876 1586.66 8.13439 1584.48 -10.5565C1580.47 -44.8399 1575.83 -79.2758 1579.52 -114.067C1582.42 -141.291 1591.46 -167.905 1589.22 -195.687C1585.88 -238.351 1570.42 -276.647 1539.4 -308.848C1516.69 -332.364 1488.63 -347.55 1454.1 -354.712C1426.81 -360.35 1399.98 -360.604 1373.76 -355.982C1324.55 -347.347 1278.74 -328.859 1232.99 -310.423C1193.21 -294.373 1151.42 -282.945 1108.52 -276.393C1069.69 -270.502 1030.24 -266.692 990.797 -269.029C956.206 -271.06 921.894 -274.412 887.582 -280.507C804.619 -295.338 723.496 -316.771 641.314 -334.396C616.598 -339.678 591.269 -343.792 566.441 -334.497C545.854 -326.777 527.275 -315.857 510.203 -302.855C480.521 -280.202 462.612 -251.201 450.84 -217.73C438.9 -183.701 425.008 -150.179 408.493 -117.673C395.661 -92.3291 378.924 -69.6258 356.216 -50.681C328.655 -27.6729 302.321 -30.4156 284.132 -60.5343C264.438 -93.1925 249.206 -127.882 231.632 -161.556C207.139 -208.486 186.273 -257.042 156.759 -301.738C141.528 -324.796 121.665 -343.132 96.6705 -358.064C47.2944 -387.522 -0.910447 -418.555 -49.4497 -449.182C-94.9762 -477.98 -144.464 -500.937 -189.99 -529.634C-253.035 -569.352 -310.223 -614.961 -361.83 -666.92C-404.567 -709.889 -448.81 -751.791 -495.508 -791.305C-523.349 -814.872 -554.146 -835.29 -588.96 -850.019C-617.136 -861.904 -646.204 -869.878 -677.28 -873.485C-732.57 -879.935 -785.238 -869.269 -837.961 -857.232C-900.114 -843.061 -955.962 -815.99 -1010.69 -786.684C-1069.33 -755.295 -1129.03 -725.685 -1194.03 -706.181C-1229.46 -695.566 -1266.17 -690.233 -1302.43 -682.919C-1333.12 -676.723 -1364.08 -671.593 -1394.93 -666.564C-1420.1 -662.501 -1445.65 -659.251 -1471.09 -655.899C-1495.19 -652.699 -1519.41 -649.956 -1543.51 -646.959C-1563.82 -644.42 -1584.52 -643.15 -1605.05 -641.728C-1635.79 -639.646 -1666.81 -639.696 -1697.39 -636.446C-1758.76 -629.945 -1815.94 -612.676 -1866.27 -578.443C-1887.08 -564.273 -1903.98 -546.801 -1920.72 -529.278C-1938.52 -510.587 -1957.32 -492.608 -1974.62 -473.511C-1998.44 -447.252 -2017.41 -418.25 -2022.1 -384.424C-2026.45 -353.086 -2028.79 -321.292 -2025.61 -289.446C-2024.33 -276.495 -2024.77 -263.492 -2023.1 -250.439C-2019.75 -224.638 -2014.4 -199.243 -2009.82 -173.644C-2006.14 -152.973 -2002.4 -132.25 -1998.55 -111.579C-1994.03 -87.1992 -1989.46 -62.8196 -1985.83 -38.3895C-1983.21 -20.7144 -1981.2 -2.78555 -1979.64 15.1434C-1976.74 48.4619 -1975.96 81.8314 -1972.27 115.099C-1969.6 139.225 -1966.19 163.096 -1961.67 187.018C-1955.42 219.981 -1937.91 247.103 -1917.15 273.514C-1891.88 305.613 -1864.82 336.697 -1847.41 373.368C-1833.74 402.166 -1826.93 431.726 -1829.44 463.572C-1831.06 483.938 -1833.46 504.204 -1835.75 524.418C-1838.65 550.169 -1843.34 575.818 -1848.97 601.162C-1859.07 646.569 -1840.77 677.703 -1802.05 698.883C-1771.81 715.39 -1738.22 723.516 -1705.53 734.03C-1658.11 749.216 -1612.02 767.45 -1566.22 786.242C-1503.23 812.145 -1443.53 842.467 -1390.75 883.709C-1361.96 906.26 -1336.41 931.757 -1308.23 954.866C-1266.61 988.998 -1221.64 1017.19 -1167.36 1031.2C-1125.74 1041.97 -1083.56 1044.46 -1040.15 1040.5C-1014.21 1038.11 -987.652 1038.87 -961.15 1041.82C-935.039 1044.71 -909.822 1049.08 -884.771 1056.5C-857.656 1064.52 -833.832 1077.17 -811.348 1092.3C-771.568 1119.12 -728.386 1140 -679.958 1148.94C-645.032 1155.39 -614.179 1166.76 -590.579 1191.04C-571.609 1210.54 -560.953 1234.37 -552.919 1259.15C-543.211 1289.02 -529.654 1317.66 -517.547 1346.71C-504.045 1379.17 -473.917 1398.37 -441.836 1415.23C-397.649 1438.49 -352.736 1460.53 -310.278 1486.59C-275.743 1507.77 -236.465 1517.98 -194.119 1512.44C-170.742 1509.4 -148.481 1501.98 -128.674 1490.45C-98.9929 1473.13 -66.8012 1464.95 -32.1542 1466.63C-9.83734 1467.7 12.3122 1470.64 34.7965 1471.61C62.9157 1472.78 78.3148 1465.46 86.8511 1438.24C94.8851 1412.74 99.0694 1386.58 103.477 1360.38C108.498 1331.02 109 1300.44 126.91 1273.68C131.987 1266.11 136.45 1258.14 143.313 1251.99C174.501 1224.11 198.77 1191.14 226.276 1160.52C264.661 1117.7 304.887 1076.46 357.443 1047.15C386.009 1031.26 416.918 1020.84 449.835 1015.56C464.787 1013.17 476.002 1004.59 488.611 998.292C535.365 974.979 582.62 952.479 625.469 923.122C634.117 917.231 643.1 911.339 651.692 905.397C680.592 885.588 713.621 884.064 746.985 886.706C771.143 888.636 795.356 891.429 819.403 895.594C870.509 904.381 918.435 920.583 962.288 945.165C1002.79 967.919 1044.13 988.439 1088.32 1004.59C1131.28 1020.28 1175.64 1044.71 1196.5 1081.33C1229.2 1138.68 1289.45 1255.7 1317.85 1314.87L1318.07 1314.97Z" stroke="#FFFEFB" stroke-width="2" stroke-linecap="round" stroke-linejoin="round"></path><path d="M1284.21 1294.45C1310.05 1347.42 1325.5 1403.8 1340.79 1460.13C1353.68 1507.61 1389.27 1538.19 1440.77 1551.34C1497.4 1565.87 1552.41 1584.41 1608.03 1601.58C1649.32 1614.32 1689.99 1629 1732.56 1638.04C1763.08 1644.55 1793.88 1649.78 1824.84 1654.3C1862.22 1659.78 1899.88 1662.32 1937.43 1665.62C1962.31 1667.81 1987.42 1669.08 2012.3 1671.51C2035.12 1673.75 2058 1676.64 2080.7 1680.35C2104.86 1684.26 2129.47 1684.77 2154.29 1681.22C2180.8 1677.41 2206.63 1672.68 2230.51 1661.31C2261.3 1646.63 2277.48 1623.01 2283.12 1591.98C2285.57 1578.42 2285.24 1565.11 2285.29 1551.7C2285.46 1442.86 2284.07 1333.96 2285.91 1225.17C2286.97 1160.26 2310.4 1101.24 2354.98 1049.64C2393.2 1005.4 2445.2 979.953 2500.99 959.587C2526.82 950.14 2552.87 941.455 2576.03 926.776C2608.72 906.003 2601.25 886.043 2584.95 864.761C2576.25 853.384 2563.7 844.902 2549.25 838.808C2484.36 811.279 2427.68 772.221 2371.1 732.96C2307.05 688.519 2249.03 637.982 2193.29 585.313C2158.48 552.401 2134.38 513.038 2122.44 468.444C2117.36 449.499 2117.47 429.539 2119.59 410.035C2122.99 379.206 2112.28 352.998 2092.92 328.212C2080.76 312.67 2072.06 295.198 2076.46 274.781C2079.31 261.677 2087.18 251.519 2096.6 241.869C2113.45 224.6 2131.25 208.194 2145.03 188.386C2168.8 154.255 2179.9 118.042 2176.11 77.3586C2174.38 58.5154 2178.34 39.3166 2175.77 20.1178C2170.31 -21.0224 2152.84 -56.3723 2115.13 -80.7009C2090.97 -96.2935 2064.41 -91.4176 2039.08 -80.9548C1986.53 -59.3181 1956.12 -21.4287 1942.73 28.7014C1937.1 49.7794 1939.44 70.7053 1942.06 92.1388C1944.63 112.709 1947.19 133.431 1948.31 154.204C1949.43 174.927 1951.71 195.649 1953.89 216.321C1956.01 236.18 1951.94 254.058 1938.32 268.534C1909.42 299.262 1874.89 323.184 1830.2 332.072C1810.78 335.932 1791.31 337.202 1771.28 336.339C1758.06 335.78 1744.5 336.796 1731.17 335.729C1686.36 332.174 1646.36 318.206 1617.74 285.548C1603.07 268.838 1599.61 247.303 1601.5 226.124C1605.19 184.323 1613.56 143.386 1626.16 102.906C1632.47 82.641 1630.63 60.5469 1626.33 39.7736C1621.7 17.5275 1618.63 -4.82002 1615.79 -27.2694C1613.05 -48.8045 1613.72 -70.3397 1613.33 -91.8748C1612.77 -120.368 1618.47 -148.252 1624.66 -175.831C1628.34 -192.287 1627.11 -208.134 1623.49 -223.371C1615.34 -257.959 1601.23 -290.77 1575.84 -318.501C1545.1 -352.125 1506.77 -373.761 1459.46 -383.31C1406.18 -394.077 1357.13 -381.431 1308.09 -364.924C1261.62 -349.28 1216.65 -329.98 1169 -317.029C1141.72 -309.613 1114.16 -305.448 1085.98 -302.198C1052.29 -298.337 1018.87 -300.166 985.558 -303.061C957.327 -305.499 929.152 -309.816 901.033 -314.184C873.862 -318.4 846.747 -323.174 819.52 -327.237C791.234 -331.453 763.337 -337.852 735.106 -342.779C691.198 -350.499 647.847 -360.708 604.051 -368.936C580.227 -373.406 560.588 -365.736 542.679 -355.832C480.805 -321.752 435.893 -273.806 408.387 -212.502C396.504 -186.04 381.272 -161.61 357.839 -141.598C336.304 -123.212 319.454 -127.682 301.433 -141.802C274.653 -162.829 258.641 -190.56 242.238 -218.444C215.792 -263.394 190.797 -309.207 156.82 -350.144C143.764 -365.889 125.688 -375.691 107.388 -385.646C53.381 -415.003 1.88514 -447.915 -50.5596 -479.456C-87.2151 -501.499 -126.549 -519.428 -163.037 -541.522C-222.735 -577.684 -275.626 -620.806 -324.165 -669.056C-365.172 -709.841 -402.72 -753.317 -443.839 -794.051C-477.035 -826.913 -512.352 -857.031 -554.252 -879.887C-581.088 -894.514 -610.77 -903.352 -642.292 -907.415C-665.614 -910.463 -689.102 -911.021 -711.921 -908.837C-751.868 -905.079 -791.146 -896.749 -829.81 -886.337C-909.76 -864.853 -982.736 -830.315 -1051.97 -788.769C-1102.69 -758.345 -1158.04 -737.725 -1216.67 -724.367C-1255.73 -715.478 -1294.89 -706.641 -1334.51 -700.292C-1363.8 -695.569 -1393.03 -690.388 -1422.71 -687.341C-1454.4 -684.09 -1486.04 -680.484 -1517.78 -677.538C-1565.99 -673.069 -1614.14 -672.764 -1662.4 -673.272C-1676.68 -673.424 -1690.96 -677.538 -1705.25 -677.69C-1755.52 -678.198 -1800.6 -663.063 -1841.77 -637.668C-1875.13 -617.098 -1902.53 -590.484 -1927.13 -561.939C-1946.77 -539.185 -1967.75 -517.803 -1990.4 -497.588C-2019.24 -471.787 -2033.3 -440.093 -2039.05 -403.829C-2045.75 -361.267 -2050.82 -318.806 -2049.2 -275.837C-2048.03 -245.465 -2042.96 -215.499 -2036.65 -185.532C-2032.02 -163.489 -2028.67 -140.989 -2024.94 -118.692C-2021.03 -95.4808 -2017.12 -72.2191 -2012.38 -49.1094C-2009.43 -34.7866 -2007.03 -19.9047 -2006.86 -5.32789C-2006.52 26.3653 -2004.74 58.0586 -2004.01 89.7009C-2003.34 117.026 -1997.71 143.539 -1991.91 170.153C-1988.67 185.085 -1986.44 200.17 -1983.76 215.204C-1979.52 238.974 -1964.85 257.664 -1949.17 276.254C-1926.41 303.274 -1905.04 331.311 -1887.57 361.48C-1872.96 386.824 -1865.2 414.505 -1867.66 442.998C-1871.79 490.284 -1884.79 535.589 -1911.4 577.085C-1923.17 595.42 -1933.94 614.263 -1938.23 635.545C-1945.21 670.234 -1931.65 712.39 -1894.05 724.529C-1879.26 729.304 -1863.58 730.268 -1848.41 732.554C-1801.04 739.766 -1755.85 753.327 -1710.6 767.193C-1645.49 787.204 -1582.95 812.244 -1525.87 847.594C-1450.89 894.017 -1395.1 954.762 -1361.34 1031.61C-1351.24 1054.67 -1329.43 1061.73 -1306.28 1066.7C-1277.6 1072.85 -1248.64 1073.66 -1219.24 1069.6C-1197.93 1066.65 -1176.28 1070.67 -1155.08 1072.34C-1117.86 1075.29 -1081.32 1078.33 -1043.77 1072.39C-1015.32 1067.87 -986.084 1069.55 -956.793 1073.61C-912.996 1079.71 -873.16 1093.93 -835.166 1113.33C-814.244 1124.05 -794.103 1136.03 -773.516 1147.31C-746.122 1162.34 -717.054 1174.48 -687.874 1186.31C-644.524 1203.94 -614.34 1234.36 -593.195 1271.8C-576.625 1301.2 -560.612 1330.86 -544.544 1360.53C-524.013 1398.36 -491.932 1426.55 -452.096 1446.82C-397.531 1474.6 -339.117 1495.32 -283.38 1521.07C-260.394 1531.69 -234.619 1536.62 -208.619 1534.53C-182.676 1532.45 -158.183 1524.17 -133.578 1516.6C-98.0388 1505.58 -62.0526 1495.22 -23.8349 1498.47C4.67497 1500.91 33.1289 1504.16 61.8619 1503.14C102.59 1501.67 139.19 1478.11 143.765 1437.37C146.554 1412.64 148.228 1387.9 149.065 1363.01C150.572 1318.57 167.365 1279.16 196.767 1243.4C221.483 1213.39 242.461 1180.98 269.019 1151.98C309.691 1107.49 358.899 1075.34 419.267 1057.1C466.355 1042.88 510.152 1022.16 553.168 999.965C586.253 982.9 617.106 962.38 650.86 946.33C700.125 922.865 753.407 915.958 807.414 921.393C860.026 926.675 909.346 943.435 954.928 969.237C991.918 990.162 1030.75 1008.04 1071.09 1023.43C1116.5 1040.8 1154.39 1068.79 1179.83 1107.08C1209.73 1152.08 1260.84 1246.7 1284.27 1294.75L1284.21 1294.45Z" stroke="#FFFEFB" stroke-width="2" stroke-linecap="round" stroke-linejoin="round"></path><path d="M342.933 -362.639C302.819 -366.042 272.021 -385.545 248.309 -412.921C216.285 -449.896 173.771 -471.127 127.408 -488.192C67.5987 -510.235 8.73733 -534.157 -48.1708 -562.143C-85.8863 -580.681 -122.04 -601.099 -153.451 -627.307C-190.274 -658.137 -219.285 -694.909 -236.414 -738.03C-248.353 -768.149 -269.442 -792.477 -290.364 -817.06C-337.397 -872.269 -391.293 -922.399 -436.205 -979.183C-456.235 -1004.53 -474.2 -1031.04 -488.483 -1059.58C-502.152 -1086.91 -526.254 -1101.69 -558.055 -1107.12C-613.569 -1116.62 -661.048 -1100.32 -701.051 -1066.64C-751.32 -1024.34 -806.276 -989.594 -868.373 -962.777C-943.19 -930.525 -1015.55 -893.601 -1089.7 -859.978C-1131.43 -841.033 -1176.4 -830.214 -1222.04 -821.783C-1247.37 -817.11 -1272.92 -812.895 -1298.47 -810.305C-1323.19 -807.816 -1348.13 -806.241 -1373.4 -808.222C-1442.86 -813.606 -1507.64 -834.684 -1572.92 -854.645C-1605.72 -864.701 -1639.92 -869.628 -1674.57 -867.952C-1708.44 -866.326 -1740.96 -858.352 -1772.32 -846.315C-1827.61 -825.135 -1877.99 -797.302 -1919.55 -757.33C-1948.9 -729.141 -1969.88 -695.823 -1990.52 -662.302C-2020.7 -613.238 -2046.26 -562.143 -2072.09 -511.149C-2096.36 -463.203 -2113.88 -413.429 -2124.81 -361.369C-2135.53 -310.375 -2136.53 -259.077 -2134.52 -207.779C-2133.35 -178.016 -2127.55 -148.354 -2122.14 -118.743C-2113.6 -72.067 -2108.35 -24.7812 -2114.1 22.5047C-2118.17 55.8231 -2119.07 89.0908 -2118.96 122.46C-2118.96 130.282 -2121.58 137.748 -2121.91 145.621C-2123.36 178.634 -2110.81 207.737 -2093.63 235.824C-2072.31 270.666 -2049.72 304.798 -2038.39 344.16C-2022.27 400.182 -2028.46 453.511 -2056.19 505.064C-2070.58 531.881 -2085.76 558.038 -2092.73 587.852C-2099.76 617.818 -2101.77 647.582 -2100.71 678.107C-2099.32 720.009 -2088.83 760.133 -2076.05 799.902C-2062.33 842.769 -2031.25 868.57 -1982.54 877.052C-1973.45 878.626 -1964.69 879.084 -1955.71 879.084C-1914.2 879.185 -1872.63 877.56 -1831.23 879.541C-1785.21 881.725 -1742.3 893.762 -1708.05 924.186C-1678.14 950.698 -1673.57 982.189 -1688.18 1017.94C-1696.89 1039.12 -1712.06 1056.95 -1728.08 1074.07C-1755.3 1103.07 -1783.64 1131.21 -1807.02 1163C-1826.05 1188.85 -1841.67 1216.48 -1848.25 1247.11C-1856.9 1287.29 -1845.52 1323.96 -1818.96 1356.67C-1807.86 1370.33 -1794.86 1382.57 -1780.24 1393.29C-1747.94 1416.95 -1712.73 1415.68 -1675.8 1404.36C-1630.88 1390.54 -1592.61 1366.62 -1555.29 1340.97C-1522.15 1318.17 -1487.89 1296.99 -1446.88 1287.34C-1411.84 1279.06 -1378.76 1283.32 -1347.79 1300.69C-1327.82 1311.87 -1308.02 1322.53 -1283.63 1325.58C-1264.05 1328.02 -1247.42 1323.5 -1231.41 1315.22C-1209.43 1303.84 -1193.7 1285.3 -1173.78 1271.44C-1164.07 1264.68 -1153.47 1259.96 -1141.7 1256.66C-1118.04 1250.11 -1096.67 1239.03 -1077.48 1225.07C-1044.06 1200.79 -1006.07 1189.06 -963.61 1191.29C-937.555 1192.66 -912.504 1199.62 -888.624 1209.37C-827.699 1234.16 -777.152 1271.08 -734.526 1317.66C-703.562 1351.48 -677.451 1388.76 -644.813 1421.22C-591.364 1474.35 -529.49 1516.3 -452.274 1537.28C-405.854 1549.87 -360.161 1564.65 -312.961 1574.76C-290.476 1579.58 -267.713 1583.14 -244.783 1586.29C-227.375 1588.68 -209.801 1588.83 -192.449 1590.15C-173.926 1591.57 -155.012 1588.57 -136.322 1586.9C-131.412 1586.44 -126.503 1585.88 -121.593 1585.88C-75.62 1585.93 -29.5359 1584.36 16.2696 1588.52C42.994 1590.96 69.0492 1597.21 93.8768 1606.66C151.287 1628.5 201.388 1660.44 246.524 1699.14C266.33 1716.11 283.849 1735.05 302.763 1752.73C323.685 1772.33 350.13 1778.89 378.975 1775.63C401.124 1773.1 421.768 1764.31 443.192 1758.57C451.784 1756.28 460.264 1751.71 467.238 1746.48C488.774 1730.33 493.461 1715.09 476.667 1685.79C462.998 1661.86 444.419 1640.53 431.196 1616.31C425.115 1605.13 421.321 1593.7 421.712 1580.96C422.716 1549.87 412.729 1520.46 404.528 1490.75C395.712 1459.01 392.142 1427.57 413.51 1397.96C415.295 1395.52 417.192 1393.13 419.201 1390.85C435.939 1372 432.424 1359.21 419.033 1342.14C409.047 1329.44 400.734 1316.19 397.777 1300.64C391.696 1268.9 407.094 1245.38 433.986 1227.66C514.327 1174.68 592.883 1119.63 672.108 1065.38C704.356 1043.29 739.616 1026.78 779.34 1020.74C817.111 1015 854.492 1019.11 890.423 1032.47C925.962 1045.63 959.437 1063 994.81 1076.35C1012.05 1082.85 1029.74 1088.29 1046.98 1094.74C1086.09 1109.37 1116.27 1134.51 1141.93 1164.22C1187.63 1217.09 1223.33 1274.99 1245.09 1339.6C1255.3 1369.82 1264.73 1400.4 1264.9 1432.19C1265.12 1476.33 1246.82 1514.37 1214.24 1546.67C1175.19 1585.37 1126.93 1613.36 1079.06 1641.7C1041.23 1664.1 1006.3 1689.44 980.081 1723.42C962.06 1746.79 948.223 1771.62 949.171 1801.39C950.287 1836.28 967.248 1862.49 999.998 1880.67C1026.05 1895.14 1054.45 1902.15 1084.36 1899.77C1135.02 1895.65 1180.93 1879.35 1220.94 1850.14C1253.8 1826.17 1277.68 1794.53 1306.86 1767.51C1342.06 1734.85 1374.92 1699.45 1419.17 1676.03C1441.82 1664.1 1466.48 1657.45 1492.64 1653.59C1535.1 1647.34 1574.66 1658.31 1614.49 1667.5C1692.6 1685.48 1768.31 1710.37 1844.8 1733.07C1875.43 1742.16 1906.62 1749.78 1935.75 1762.48C1970.9 1777.77 2002.58 1797.93 2032.15 1820.89C2062.78 1844.66 2098.6 1857 2137.83 1863.86C2173.76 1870.1 2209.69 1874.88 2246.34 1874.47C2300.18 1873.91 2350.45 1862.38 2393.47 1831.71C2421.81 1811.49 2443.85 1786.1 2462.03 1757.6C2497.91 1701.38 2518.22 1639.72 2539.14 1578.31C2543.21 1566.38 2538.86 1553.12 2529.99 1543.22C2489.87 1498.27 2468.12 1444.28 2440.72 1393.08C2431.18 1375.2 2418.24 1359.1 2409.65 1340.82C2395.47 1310.7 2385.04 1279.87 2381.08 1247.01C2379.24 1231.87 2379.07 1216.94 2378.96 1201.86C2378.62 1139.59 2409.03 1092.56 2465.94 1059.39C2503.26 1037.65 2544.77 1023.94 2586.34 1010.53C2617.86 1000.37 2648.21 988.232 2674.71 969.135C2698.98 951.714 2716.73 929.772 2720.91 901.99C2724.2 880.049 2712.93 860.799 2693.29 847.391C2655.3 821.487 2613.62 801.476 2570.33 783.699C2501.54 755.46 2435.92 722.345 2378.79 676.684C2339.12 644.991 2300.79 612.231 2273.01 570.685C2254.6 543.157 2240.98 514.358 2236.47 481.751C2233.17 458.133 2235.29 435.43 2239.09 412.168C2241.49 397.439 2241.1 381.999 2236.86 367.168C2225.87 328.415 2232.78 290.932 2246.23 253.855C2255.04 229.526 2267.26 206.467 2275.91 182.037C2289.97 142.37 2292.37 102.601 2279.43 62.6288C2273.4 43.9888 2275.52 25.2472 2274.13 6.50557C2272.79 -12.0329 2272.73 -31.13 2263.47 -48.2971C2254.32 -65.2611 2243.94 -81.6662 2234.18 -98.3255C2206.34 -145.764 2178.89 -193.405 2153.84 -242.113C2150.43 -248.716 2147.76 -255.827 2142.96 -261.464C2126.95 -280.308 2107.53 -282.999 2081.7 -263.902C2065.52 -251.966 2050.06 -239.117 2034.78 -226.165C2002.92 -199.145 1971.9 -171.21 1939.54 -144.748C1901.38 -113.512 1865.39 -79.8888 1821.87 -54.4428C1814.79 -50.3288 1807.65 -46.1133 1799.17 -44.6403C1769.76 -39.5613 1756.65 -51.9541 1747.5 -72.8798C1737.57 -95.583 1733.61 -120.013 1730.6 -144.545C1725.86 -183.552 1728.87 -222.559 1728.37 -261.566C1727.53 -327.238 1695.95 -375.793 1633.13 -407.791C1587.1 -431.206 1540.01 -452.69 1492.7 -473.869C1472 -483.113 1450.63 -486.719 1428.26 -488.192C1380.22 -491.392 1336.98 -477.577 1294.25 -459.292C1245.48 -438.418 1197.11 -416.476 1144.5 -404.083C1111.53 -396.363 1078.16 -391.183 1044.13 -393.367C1015.23 -395.246 987.166 -402.001 959.884 -410.432C931.541 -419.219 903.143 -427.904 874.075 -434.304C849.415 -439.738 823.862 -438.215 799.258 -434.101C779.396 -430.748 759.757 -431.663 740.286 -432.678C720.703 -433.694 701.007 -436.284 681.313 -436.792C655.927 -437.402 630.542 -438.214 604.989 -437.402C553.884 -435.777 506.46 -423.536 460.32 -404.337C427.793 -390.776 395.099 -377.368 361.512 -365.991C355.319 -363.908 349.74 -364.873 343.937 -363.908" stroke="#FFFEFB" stroke-width="2" stroke-linecap="round" stroke-linejoin="round"></path><path d="M2763.32 841.248C2753.11 820.373 2731.68 810.266 2712.32 798.788C2658.93 767.145 2599.85 745.204 2543.83 718.082C2495.68 694.769 2448.93 669.323 2408.53 635.344C2368.2 601.365 2344.65 558.702 2330.93 511.06C2324.12 487.493 2320.6 463.419 2317.09 439.243C2311.68 401.81 2312.29 364.327 2315.42 327.149C2318.71 288.599 2326.69 250.455 2335.39 212.413C2342.87 179.907 2345.99 146.589 2342.36 112.559C2339.07 81.9835 2337.18 51.0013 2337.4 20.0192C2337.57 -3.39512 2337.23 -27.419 2327.8 -49.2589C2309.78 -90.9578 2295 -133.571 2280.04 -176.133C2263.75 -222.555 2249.86 -269.588 2234.91 -316.365C2216.11 -375.231 2174.32 -411.648 2111.33 -429.475C2087 -436.383 2061.78 -439.227 2036.46 -442.021C1991.04 -447.049 1945.57 -449.334 1899.88 -448.928C1888.72 -448.827 1877.56 -447.252 1866.4 -446.643C1819.81 -444.052 1775.74 -454.464 1732.55 -468.635C1644.51 -497.535 1557.7 -529.482 1468.82 -556.299C1440.87 -564.73 1412.59 -570.52 1383.18 -573.72C1341.56 -578.24 1301.67 -575.65 1262.56 -561.276C1244.65 -554.724 1229.64 -544.008 1213.24 -535.323C1177.65 -516.479 1139.65 -505.153 1099.42 -497.23C1052.62 -487.986 1011.05 -498.652 969.317 -515.768C942.09 -526.942 915.868 -540.3 885.238 -544.617C863.87 -547.614 843.059 -547.817 823.755 -541.163C782.859 -527.044 740.792 -518.409 697.776 -512.213C660.898 -506.931 623.796 -503.579 586.694 -499.82C551.377 -496.265 516.117 -492.202 480.856 -488.443C440.072 -484.075 398.841 -482.043 357.778 -485.802C334.903 -487.935 312.977 -494.639 292.167 -503.832C262.15 -517.089 233.194 -532.174 203.792 -546.446C154.137 -570.52 101.469 -588.043 48.5781 -605.058C-20.8832 -627.355 -72.8262 -668.799 -110.821 -725.634C-125.327 -747.321 -135.871 -770.685 -146.974 -793.845C-165.33 -832.04 -189.655 -867.237 -218.109 -899.692C-244.499 -929.76 -273.287 -958.304 -305.089 -983.7C-334.547 -1007.16 -359.71 -1033.58 -381.19 -1063.19C-394.245 -1081.17 -406.463 -1099.91 -422.922 -1115.4C-441.055 -1132.46 -461.586 -1147.4 -484.238 -1159.49C-514.142 -1175.43 -543.991 -1191.03 -577.801 -1200.02C-639.229 -1216.42 -696.248 -1207.28 -750.534 -1178.89C-797.009 -1154.61 -837.347 -1122.31 -880.363 -1093.56C-940.953 -1053.03 -1001.38 -1012.29 -1066.54 -977.96C-1109.33 -955.46 -1154.19 -936.871 -1203.12 -929.506C-1274.81 -918.739 -1343.33 -927.729 -1400.74 -971.104C-1430.42 -993.553 -1456.92 -1019.81 -1482.86 -1046.12C-1505.91 -1069.43 -1529.78 -1092.09 -1555.56 -1112.76C-1574.92 -1128.25 -1599.13 -1129.77 -1623.46 -1120.48C-1663.41 -1105.24 -1700.23 -1084.57 -1737.16 -1064.3C-1781.85 -1039.82 -1825.48 -1013.72 -1873.58 -994.518C-1887.08 -989.134 -1897.79 -979.179 -1904.88 -965.822C-1931.21 -916.25 -1963.4 -869.625 -1995.82 -823.253C-2030.74 -773.326 -2057.63 -719.793 -2083.97 -665.955C-2099.65 -633.907 -2115.77 -602.01 -2130.67 -569.657C-2148.02 -532.021 -2170.22 -496.112 -2181.49 -456.344C-2189.25 -428.968 -2195.33 -401.185 -2201.69 -373.505C-2210 -337.393 -2216.75 -300.976 -2226.18 -265.169C-2233.38 -237.945 -2231.43 -210.671 -2230.65 -183.447C-2230.14 -166.635 -2231.87 -150.129 -2232.54 -133.469C-2233.44 -109.699 -2244.2 -88.012 -2249.84 -65.2071C-2252.46 -54.5919 -2249.23 -43.7227 -2246.77 -33.6662C-2241.69 -12.4866 -2245.43 8.03268 -2248.78 28.552C-2254.02 60.4991 -2260.83 92.4459 -2257.71 124.799C-2252.8 176.453 -2233.38 224.247 -2206.99 269.755C-2186.07 305.766 -2175.02 344.062 -2169.22 384.288C-2165.15 412.832 -2165.54 441.274 -2167.43 469.615C-2169.61 502.527 -2176.7 535.186 -2186.01 567.031C-2196.45 602.788 -2203.31 638.595 -2198.79 675.519C-2197.23 688.522 -2193.94 701.524 -2193.94 714.526C-2193.94 758.714 -2205.99 800.718 -2224.62 841.197C-2233.38 860.295 -2241.25 879.798 -2253.86 897.371C-2264.51 912.202 -2277.85 924.189 -2294.03 933.941C-2321.2 950.295 -2350.27 964.364 -2373.08 986.254C-2414.48 1025.87 -2407.62 1086.82 -2361.09 1120.39C-2329.85 1142.94 -2292.97 1153.41 -2255.2 1161.53C-2225.9 1167.83 -2196.84 1174.99 -2166.93 1179.16C-2151.14 1181.34 -2136.8 1177.58 -2122.86 1173.62C-2101.15 1167.42 -2079.39 1164.12 -2057.19 1168.08C-2021.82 1174.33 -2003.74 1197.49 -1993.03 1226.44C-1984.99 1248.18 -1983.54 1271.44 -1976.57 1293.33C-1962.23 1338.38 -1942.2 1381.2 -1912.74 1420.26C-1884.51 1457.69 -1853.83 1492.33 -1809.58 1515.34C-1781.13 1530.12 -1750.94 1538.29 -1718.53 1542.46C-1693.2 1545.71 -1668.26 1544.49 -1643.54 1541.65C-1599.25 1536.62 -1558.96 1521.28 -1523.03 1496.9C-1487.72 1472.93 -1448.27 1457.23 -1405.2 1449.46C-1368.49 1442.81 -1332.28 1448.75 -1296.85 1456.93C-1250.43 1467.59 -1203.96 1470.69 -1156.14 1466.99C-1130.93 1465.06 -1105.65 1460.53 -1079.88 1463.68C-1055.05 1466.73 -1041.6 1484.36 -1049.08 1506.6C-1059.12 1536.62 -1076.03 1563.44 -1094.72 1589.39C-1127.08 1634.24 -1162.34 1677.26 -1196.31 1721.04C-1215.51 1745.82 -1225.16 1774.06 -1223.93 1803.83C-1222.48 1839.13 -1214.73 1873.66 -1194.98 1905" stroke="#FFFEFB" stroke-width="2" stroke-linecap="round" stroke-linejoin="round"></path><path d="M-436.207 -1239.99C-419.079 -1233.74 -406.581 -1221.45 -393.693 -1210.43C-371.6 -1191.59 -348.558 -1173.66 -327.691 -1153.54C-279.041 -1106.61 -232.119 -1058.41 -186.816 -1008.74C-149.212 -967.5 -112.277 -925.7 -73.6133 -885.22C-47.8931 -858.301 -23.1774 -830.569 4.21663 -804.971C41.8764 -769.773 85.0037 -742.956 136.612 -726.55C176.67 -713.853 212.434 -693.029 246.746 -669.919C282.732 -645.692 324.576 -633.909 368.373 -626.9C397.664 -622.227 426.397 -614.66 455.464 -609.022C487.601 -602.775 519.96 -601.403 553.212 -604.552C595.503 -608.565 635.004 -619.535 673.557 -634.468C690.797 -641.121 707.869 -648.384 724.383 -656.409C758.919 -673.17 795.574 -682.566 834.126 -688.407C876.696 -694.858 919.265 -694.705 961.277 -689.88C1029.06 -682.109 1096.96 -682.312 1164.81 -683.531C1208.1 -684.293 1251.45 -684.09 1294.64 -685.918C1340.16 -687.848 1385.69 -687.442 1431.22 -688.052C1466.48 -688.509 1501.74 -690.185 1537 -690.236C1563.94 -690.236 1590.06 -691.302 1616.17 -699.733C1659.63 -713.802 1684.29 -741.788 1696.12 -780.642C1700.58 -795.219 1702.64 -810.355 1701.7 -825.693C1699.85 -856.218 1702.48 -886.692 1704.76 -917.065C1707.67 -955.717 1714.53 -994.114 1725.8 -1031.6C1732.49 -1053.89 1749.96 -1066.85 1772.55 -1075.58C1800.84 -1086.5 1829.46 -1097.32 1859.7 -1101.74C1883.75 -1105.24 1908.29 -1105.45 1933.29 -1102.91C1991.54 -1096.96 2035.5 -1068.57 2076.45 -1034.04C2097.32 -1016.46 2115.06 -996.044 2135.59 -978.217C2156.79 -959.78 2180.23 -944.441 2210.3 -938.753C2240.09 -933.115 2267.99 -936.416 2296.11 -946.117C2336.78 -960.135 2374.88 -979.588 2416.51 -991.371C2438.43 -997.619 2460.8 -1000.77 2483.4 -994.927C2512.75 -987.359 2522.06 -978.877 2509.73 -951.349C2502.26 -934.689 2490.77 -919.605 2476.93 -905.942C2432.8 -862.415 2387.61 -819.497 2353.57 -768.453C2333.71 -738.74 2318.14 -707.352 2309.66 -673.322C2309.05 -670.884 2307.71 -668.954 2306.54 -667.38C2286.62 -640.867 2284.33 -611.968 2287.24 -580.681C2289.69 -554.219 2292.14 -527.757 2296.39 -501.6C2303.08 -460.562 2312.62 -419.929 2324 -379.652C2333.93 -344.607 2342.86 -309.409 2349.89 -273.704C2363 -207.372 2375.22 -140.735 2397.65 -76.231C2406.58 -50.4803 2410.26 -23.8152 2414.16 2.90048C2421.92 56.078 2420.19 109.408 2418.57 162.535C2416.4 234.454 2412.04 306.322 2414.22 378.19C2415.73 427.762 2419.52 477.282 2440.27 524.517C2463.48 577.238 2500.31 618.581 2555.76 644.941C2621.6 676.228 2687.43 707.464 2752.49 740.122C2756.17 741.951 2759.63 744.186 2763.2 746.167" stroke="#FFFEFB" stroke-width="2" stroke-linecap="round" stroke-linejoin="round"></path><path d="M-378.621 -1238.77C-337.67 -1207.79 -302.408 -1171.57 -266.534 -1136.12C-223.239 -1093.41 -181.619 -1049.22 -139.998 -1005.08C-106.69 -969.733 -73.2143 -934.434 -38.902 -899.744C-2.74865 -863.175 35.6924 -829.552 81.9442 -803.801C109.003 -788.716 138.127 -777.644 168.98 -770.99C196.653 -764.997 220.978 -752.757 240.896 -735.234C272.028 -707.858 309.521 -692.519 349.635 -680.634C386.347 -669.765 422.946 -657.88 460.885 -652.192C486.995 -648.281 513.72 -645.843 541.17 -648.281C572.134 -651.024 601.816 -656.458 630.772 -666.159C653.982 -673.879 675.239 -685.256 696.328 -696.633C730.138 -714.918 767.184 -725.33 804.788 -734.32C845.907 -744.122 887.975 -749.608 929.373 -758.445C954.144 -763.727 976.796 -754.991 998.945 -745.392C1029.41 -732.187 1061.99 -726.498 1095.24 -721.774C1141.72 -715.172 1188.19 -717.762 1234.5 -720.099C1272.89 -722.029 1311.27 -724.822 1349.66 -727.26C1383.63 -729.393 1417.61 -732.898 1451.36 -736.961C1481.05 -740.567 1510.67 -745.646 1538.35 -756.464C1579.85 -772.666 1604.07 -802.633 1616.12 -841.589C1622.93 -863.581 1626.11 -886.081 1629.79 -908.581C1633.53 -931.386 1637.6 -954.242 1642.23 -976.945C1645.97 -995.331 1648.59 -1014.17 1651.05 -1032.87C1655.79 -1068.98 1671.74 -1099.05 1706.95 -1119.62C1735.12 -1136.12 1766.7 -1143.59 1798.23 -1150.75C1828.35 -1157.61 1859.49 -1161.01 1890.51 -1160.55C1966.61 -1159.38 2035.79 -1138.15 2096.55 -1096.1C2124.67 -1076.65 2154.35 -1059.53 2185.14 -1044.09C2212.76 -1030.22 2243.17 -1027.84 2274.69 -1028.7C2302.7 -1029.46 2330.09 -1033.78 2357.6 -1036.93C2387.45 -1040.33 2417.35 -1043.13 2447.37 -1045.11C2485.25 -1047.65 2522.58 -1047.24 2557.11 -1030.33C2591.37 -1013.51 2603.59 -991.319 2585.45 -953.582C2573.85 -929.456 2556.83 -908.937 2538.48 -889.027C2516.1 -864.75 2489.6 -844.078 2466.28 -820.714C2406.14 -760.375 2361.28 -691.757 2339.58 -612.321C2330.65 -579.612 2327.86 -545.685 2333.22 -511.249C2340.3 -465.791 2352.02 -421.197 2360.05 -375.994C2365.41 -345.926 2370.82 -315.858 2376.85 -285.943C2386.89 -236.27 2396.37 -186.546 2408.15 -137.127C2416.79 -100.913 2426.39 -64.9031 2434.76 -28.6388C2441.17 -0.805654 2442.96 27.8402 2439.61 56.5876C2438.11 69.7931 2440 83.4044 2440.34 96.7623C2441.57 143.032 2442.68 189.404 2441.57 235.674C2440.84 266.961 2440.28 298.248 2440.9 329.484C2441.51 358.79 2444.69 388.045 2448.26 417.25C2450.27 433.858 2451.5 450.568 2453.95 467.177C2459.81 506.691 2476.1 541.788 2503.33 573.328C2533.57 608.374 2575.86 627.776 2617.59 647.025C2667.64 670.186 2715.73 696.597 2765.94 719.351" stroke="#FFFEFB" stroke-width="2" stroke-linecap="round" stroke-linejoin="round"></path><path d="M917.261 -171.362C897.231 -170.549 879.49 -178.473 861.078 -183.653C805.621 -199.246 750.331 -215.651 693.59 -226.927C669.543 -231.701 644.883 -235.307 620.111 -237.491C611.185 -238.304 601.588 -237.491 593.442 -239.929C564.821 -248.563 541.779 -232.26 534.08 -204.274C523.201 -164.912 515.947 -124.736 502.334 -85.9835C493.351 -60.5375 478.957 -37.0216 472.485 -10.5091C463.391 27.025 457.421 64.1021 461.438 102.957C464.451 131.755 467.91 160.35 475.833 188.132C489.836 236.992 515.278 264.622 569.285 274.476C601.867 280.418 634.06 274.323 665.582 266.146C699.839 257.258 733.649 246.338 768.798 241.259C782.467 239.278 796.973 236.332 811.591 239.227C819.011 240.7 826.208 237.855 833.015 234.605C869.893 216.676 908.725 210.023 950.848 213.324C990.293 216.422 1026.73 228.917 1064.61 236.992C1087.15 241.818 1109.91 245.22 1132.84 248.166C1187.96 255.277 1243.42 256.445 1298.88 257.511C1337.66 258.273 1371.8 245.017 1401.87 223.482C1437.97 197.579 1467.71 166.038 1489.97 129.571C1508.71 98.9442 1518.42 66.1843 1512.45 29.7676C1508.88 7.82619 1508.27 -14.8262 1506.09 -37.1232C1503.19 -66.7847 1501.07 -96.4972 1499.06 -126.159C1497.5 -149.218 1495.44 -172.378 1495.55 -195.589C1495.66 -216.972 1492.81 -237.897 1482.49 -257.807C1467.48 -286.809 1427.03 -300.674 1393.89 -293.411C1347.75 -283.304 1303.68 -268.168 1260.22 -251.458C1235.95 -242.113 1213.96 -228.501 1187.96 -222.051C1164.09 -216.109 1140.21 -211.944 1115.6 -210.115C1062.82 -206.153 1010.21 -200.516 960.5 -182.993C946.719 -178.117 934.054 -170.854 918.823 -170.042" stroke="#FFFEFB" stroke-width="2" stroke-linecap="round" stroke-linejoin="round"></path><path d="M1865.06 528.073C1816.02 522.181 1775.74 541.38 1736.46 564.54C1691.77 590.901 1647.2 617.362 1605.24 647.379C1576.28 668.152 1558.76 695.071 1554.75 727.933C1545.88 800.004 1513.96 861.105 1456.94 912.098C1418.34 946.585 1376.16 976.653 1330.74 1003.06C1312.61 1013.63 1301.51 1026.17 1308.43 1050.71C1315.68 1076.46 1319.53 1102.61 1324.49 1128.72C1332.47 1170.52 1343.13 1211.86 1359.2 1251.78C1380.12 1303.84 1408.8 1352.45 1449.08 1394.15C1483.72 1430.01 1524.06 1459.87 1570.26 1483.85C1619.08 1509.14 1671.02 1526.05 1724.64 1539C1758.95 1547.28 1794.32 1552.92 1830.25 1552.82C1906.07 1552.67 1972.58 1529.45 2031.16 1485.93C2073.78 1454.29 2103.97 1414.52 2124.44 1368.75C2136.27 1342.29 2143.75 1314.41 2149.21 1286.07C2154.63 1258.03 2159.42 1229.94 2164.45 1201.86C2169.13 1175.8 2172.37 1149.54 2179.73 1123.95C2191.45 1083.41 2212.76 1046.59 2233.13 1009.36C2249.58 979.193 2266.88 949.531 2277.76 916.873C2295.11 864.762 2282.84 818.136 2248.97 775.625C2224.03 744.287 2191.84 719.095 2159.98 693.395C2095.37 641.285 2020 603.7 1949.31 559.918C1930.51 548.287 1912.88 534.675 1889.33 529.952C1881.91 528.428 1874.83 529.393 1867.8 528.073" stroke="#FFFEFB" stroke-width="2" stroke-linecap="round" stroke-linejoin="round"></path><path d="M2765.99 797.364C2728.72 768.617 2686.15 747.792 2642.86 727.832C2595.1 705.84 2546 686.184 2500.98 659.621C2467.34 639.813 2436.59 617.313 2415 585.467C2398.77 561.494 2388.78 535.642 2381.81 508.57C2372.27 471.595 2363.95 434.213 2361 396.425C2359.04 371.893 2359.49 347.006 2362.34 322.068C2364.9 299.873 2367.02 277.474 2368.7 255.126C2373.16 194.635 2374.5 134.144 2373.66 73.5509C2373.27 44.1433 2369.87 14.9898 2366.07 -14.2147C2361.27 -51.0885 2353.02 -87.1497 2341.36 -122.551C2332.1 -150.739 2320.1 -178.166 2312.29 -206.71C2301.86 -244.752 2293.1 -283.15 2282.55 -321.192C2269.55 -368.173 2255.77 -414.849 2226.7 -456.599C2196.19 -500.431 2152.28 -526.486 2099.27 -541.723C2069.48 -550.307 2039.02 -556.808 2008.22 -561.024C1971.51 -566.052 1934.46 -568.134 1897.14 -566.357C1856.52 -564.427 1816.07 -559.5 1775.35 -560.211C1734.62 -560.871 1694.06 -563.055 1653.44 -568.084C1598.32 -574.89 1545.76 -589.72 1492.87 -603.84C1463.58 -611.662 1433.51 -616.08 1403.27 -620.093C1365.38 -625.172 1327.39 -625.781 1289.45 -624.258C1249.34 -622.683 1209.61 -616.842 1170.22 -608.97C1134.35 -601.808 1100.2 -589.466 1064.5 -582.101C1046.03 -578.292 1026.61 -578.749 1008.42 -581.289C970.151 -586.673 932.66 -596.12 894.609 -602.926C863.868 -608.411 833.182 -610.087 802.217 -607.395C791.505 -606.481 781.072 -603.891 771.364 -599.066C731.974 -579.511 690.967 -563.766 646.892 -555.132C623.012 -550.459 599.021 -546.244 574.64 -543.958C555.001 -542.13 535.474 -539.996 515.724 -538.981C492.403 -537.762 470.03 -541.672 447.434 -545.329C428.298 -548.428 409.105 -551.373 389.856 -553.862C324.747 -562.242 260.809 -573.873 203.733 -606.227C168.082 -626.441 129.251 -640.561 90.0289 -653.919C55.9956 -665.499 25.7006 -682.616 -2.5861 -703.592C-46.383 -736.047 -72.773 -780.285 -102.566 -822.137C-140.17 -874.959 -179.336 -926.613 -224.528 -974.356C-242.27 -993.097 -259.677 -1012.19 -279.595 -1029.01C-309.444 -1054.25 -334.662 -1083.1 -359.656 -1112.1C-395.363 -1153.54 -439.942 -1184.73 -489.597 -1210.78C-507.841 -1220.33 -526.754 -1228.41 -545.891 -1236.28C-550.187 -1238.06 -554.372 -1240.09 -559.281 -1239.89" stroke="#FFFEFB" stroke-width="2" stroke-linecap="round" stroke-linejoin="round"></path><path d="M956.045 621.936C977.637 623.256 998.894 625.897 1018.98 634.024C1043.86 644.08 1063.5 660.435 1083.14 676.79C1104.56 694.617 1125.71 713.054 1151.6 725.244C1192.33 744.442 1232.89 763.54 1270.83 787.309C1299.11 805.035 1335.32 802.09 1360.54 782.992C1378.89 769.025 1388.49 750.791 1396.25 731.491C1412.37 691.366 1417.34 649.566 1412.15 607.308C1408.91 580.694 1396.47 556.518 1380.29 534.171C1350.5 493.081 1316.63 455.191 1270.43 428.323C1248.12 415.321 1223.9 406.788 1197.01 403.335C1170.51 399.932 1144.18 400.389 1118.01 401.912C1100.66 402.877 1083.08 405.925 1065.68 408.109C1051.73 409.835 1037.22 410.902 1022.94 411.004C978.753 411.258 934.454 412.629 890.434 408.464C861.868 405.773 833.469 403.487 804.736 403.741C745.429 404.299 692.873 421.923 645.394 453.718C597.078 486.072 565.556 529.954 539.612 578.053C523.544 607.867 510.768 638.9 496.987 669.526C484.378 697.461 493.081 717.067 523.655 732.862C562.989 753.229 603.55 751.4 644.111 737.535C681.045 724.939 713.349 704.115 742.64 681.005C767.244 661.603 794.639 651.851 824.878 644.995C858.688 637.275 892.498 629.453 926.699 623.307C935.849 621.682 945.5 624.475 954.762 621.936" stroke="#FFFEFB" stroke-width="2" stroke-linecap="round" stroke-linejoin="round"></path><path d="M1811.5 1456.57C1861.6 1455.96 1905.01 1438.54 1943.89 1411.37C1989.98 1379.12 2021.44 1337.72 2036.68 1286.07C2042.81 1265.14 2046.61 1244.02 2050.07 1222.68C2054.47 1195.51 2055.25 1168.03 2060.22 1140.96C2062.06 1131.01 2061.67 1120.65 2062.68 1110.49C2065.97 1077.07 2076.4 1045.58 2088.51 1014.24C2100.06 984.273 2116.9 956.288 2128.4 926.423C2145.25 882.54 2136.49 840.587 2111.27 801.022C2085.05 759.881 2041.03 740.785 1994.72 725.751C1963.81 715.694 1931.51 710.311 1898.48 708.127C1870.36 706.298 1842.41 703.707 1814.12 705.891C1782.1 708.329 1756.71 721.789 1736.57 743.832C1711.69 771.055 1698.85 804.628 1680.5 835.254C1663.15 864.205 1642.56 890.819 1618.74 915.605C1582.97 952.885 1541.58 985.492 1510.05 1026.28C1481.77 1062.85 1458.61 1101.65 1450.47 1145.89C1442.04 1191.5 1451.58 1235.53 1472.84 1277.38C1492.14 1315.43 1522.44 1344.63 1559.65 1369.01C1605.07 1398.72 1652.27 1424.88 1705.77 1440.62C1739.69 1450.63 1774.51 1456.32 1810.16 1457.74" stroke="#FFFEFB" stroke-width="2" stroke-linecap="round" stroke-linejoin="round"></path><path d="M1261.27 175.942C1288.5 174.47 1315 170.507 1340.33 160.248C1393.16 138.814 1426.14 102.449 1439.02 51.6078C1444.49 30.0219 1440.64 7.77539 1437.91 -14.1152C1436.01 -29.6063 1433.22 -44.945 1431.32 -60.436C1428.42 -84.1043 1423.85 -107.518 1419.89 -131.034C1417.43 -145.662 1416.26 -160.849 1410.01 -175.07C1403.65 -189.596 1395.84 -195.488 1378.99 -195.742C1348.36 -196.148 1318.62 -189.291 1289.44 -182.942C1233.48 -170.753 1177.58 -157.953 1122.01 -144.392C1099.42 -138.856 1077.15 -132.101 1054.89 -125.498C1017.35 -114.426 990.174 -77.7046 991.681 -42.2021C992.573 -20.9718 997.818 -0.706535 1001.67 19.9143C1003.23 28.4471 1005.13 37.2845 1005.02 45.5126C1004.62 76.0884 1022.26 97.2172 1047.25 113.47C1082.57 136.478 1122.74 150.547 1164.86 160.045C1196.16 167.105 1227.96 171.879 1259.93 175.892" stroke="#FFFEFB" stroke-width="2" stroke-linecap="round" stroke-linejoin="round"></path><path d="M-762.817 -841.54C-776.208 -837.121 -790.546 -837.172 -804.382 -834.632C-838.193 -828.436 -870.273 -818.125 -902.075 -806.291C-951.339 -787.956 -994.132 -759.361 -1039.88 -735.489C-1111.41 -698.159 -1186.34 -668.954 -1267.46 -653.819C-1308.63 -646.149 -1349.36 -636.448 -1390.7 -629.846C-1435.39 -622.735 -1479.92 -614.862 -1524.44 -607.193C-1568.68 -599.574 -1612.98 -591.956 -1657.17 -583.677C-1687.96 -577.938 -1718.98 -573.214 -1749.39 -565.951C-1812.16 -550.917 -1867.28 -523.998 -1907.23 -475.798C-1915.09 -466.351 -1926.36 -461.527 -1935.68 -454.162C-1961.07 -434.1 -1977.69 -409.517 -1985.06 -379.703C-1994.21 -342.728 -1988.35 -305.803 -1985.34 -268.777C-1984.33 -256.588 -1984.05 -244.398 -1982.49 -232.208C-1978.92 -204.477 -1974.23 -176.897 -1969.6 -149.267C-1963.63 -113.663 -1952.59 -79.0752 -1947.18 -43.3696C-1942.43 -12.1335 -1938.92 19.0517 -1936.52 50.4909C-1934.23 80.1524 -1934.34 110.068 -1928.71 139.425C-1917.61 196.97 -1894.84 249.285 -1850.26 293.269C-1820.47 322.677 -1793.19 354.471 -1777.62 392.869C-1770.48 410.544 -1766.69 428.727 -1765.29 447.672C-1762.39 486.679 -1760.66 525.737 -1757.03 564.642C-1755.14 584.704 -1752.85 605.071 -1744.43 624.473C-1735.33 645.449 -1721.1 661.956 -1699.9 672.978C-1656.61 695.478 -1611.14 713.864 -1564.72 730.269C-1490.68 756.528 -1417.04 783.345 -1353.27 827.888C-1297.98 866.489 -1240.85 902.652 -1184.49 939.83C-1159.56 956.286 -1133.11 970.507 -1102.87 977.618C-1087.97 981.123 -1072.8 983.815 -1057.4 983.662C-1021.19 983.256 -984.815 982.443 -949.052 986.659C-893.204 993.262 -839.476 1006.72 -795.01 1041C-783.628 1049.79 -771.856 1058.12 -760.251 1066.6C-731.686 1087.43 -699.159 1088.59 -666.688 1078.44C-623.783 1064.93 -580.153 1053.75 -536.58 1042.63C-509.074 1035.62 -479.895 1038.06 -454.008 1047.76C-424.214 1058.93 -413.781 1076.25 -431.132 1114.09C-439.055 1131.36 -450.269 1147.16 -459.475 1163.97C-476.157 1194.54 -485.307 1226.49 -482.908 1260.37C-480.564 1292.98 -466.337 1321.57 -443.239 1347.07C-414.897 1378.3 -377.906 1398.52 -339.856 1417.41C-314.303 1430.06 -289.699 1443.92 -265.095 1457.94C-237.143 1473.84 -216.835 1472.93 -191.561 1456.37C-170.527 1442.55 -150.665 1427.11 -131.249 1411.42C-104.859 1390.04 -79.5298 1367.54 -53.419 1345.8C-41.2005 1335.64 -31.6602 1323.4 -20.167 1312.68C-10.6266 1303.74 -8.45074 1290.84 -2.81572 1279.82C10.9092 1253.1 33.1704 1235.79 62.9077 1224.92C95.0998 1213.18 123.219 1195.31 148.66 1173.92C190.058 1139.13 225.04 1098.85 263.425 1061.47C293.776 1031.91 324.295 1002.96 360.169 978.888C392.584 957.099 428.347 941.912 467.234 932.567C489.383 927.234 505.284 914.384 515.327 895.998C523.528 881.015 515.327 865.117 496.804 854.502C478.616 844.09 458.531 840.129 437.832 837.538C387.731 831.24 350.684 808.588 339.414 758.255C333.389 731.234 342.037 704.569 357.491 680.393C372.499 656.928 393.533 637.577 411.219 615.94C434.429 587.498 451.724 556.363 464.444 523.146C472.088 503.135 484.195 484.952 491.727 464.788C498.924 445.64 504.67 426.594 504.838 406.176C505.117 376.717 520.181 359.398 552.987 352.693C592.097 344.719 631.431 337.609 670.765 330.701C696.15 326.232 720.475 318.41 745.637 313.179C771.358 307.795 797.134 303.986 823.3 300.938C844.836 298.45 866.26 298.45 887.629 299.161C916.92 300.126 945.987 303.732 974.665 309.827C1017.79 319.02 1061.64 323.286 1105.83 320.493C1126.08 319.223 1145.89 313.026 1166.14 311.401C1189.63 309.522 1213.46 309.369 1237.06 310.131C1257.2 310.741 1277.34 312.823 1297.37 315.617C1308.58 317.141 1319.4 320.086 1330.79 321C1367.33 323.845 1396.84 309.573 1424.52 290.374C1465.41 261.982 1491.3 224.296 1509.27 180.87C1519.53 155.983 1532.48 132.06 1541.29 106.462C1552.5 73.9053 1555.57 41.4505 1549.6 7.62413C1546.7 -8.73037 1544.92 -25.542 1543.35 -42.252C1538.44 -95.074 1544.02 -147.998 1540.51 -200.667C1537.44 -246.988 1513.45 -300.165 1450.07 -320.38C1415.48 -331.402 1382.9 -325.713 1349.53 -316.672C1296.47 -302.299 1247.04 -279.798 1195.71 -261.514C1160.73 -249.07 1124.97 -242.62 1087.25 -241.604C1061.31 -240.893 1035.37 -237.135 1009.48 -232.919C975.167 -227.383 940.24 -222.101 905.203 -225.402C876.805 -228.094 849.634 -234.748 823.189 -246.429C785.864 -262.936 745.247 -272.129 704.295 -278.478C674.502 -283.151 644.932 -288.585 614.693 -291.226C547.575 -297.017 506.958 -269.183 491.727 -212.806C480.066 -169.685 468.127 -126.716 451.445 -84.8652C440.454 -57.2353 424.944 -31.2305 415.459 -3.19424C406.254 23.9786 401.845 51.6596 405.081 80.864C408.708 114.132 415.292 146.739 421.596 179.549C424.051 192.399 425.334 205.554 426.896 218.557C428.737 233.946 425.557 249.234 419.029 263.557C412 278.997 396.266 286.158 380.254 288.749C333.946 296.215 290.094 289.561 250.481 264.877C218.735 245.12 205.792 215.255 197.032 183.206C185.651 141.406 195.191 101.688 211.594 62.579C220.465 41.3994 226.267 19.2551 228.778 -3.19424C230.731 -20.3106 226.714 -37.63 223.143 -54.2385C215.109 -91.4678 202.835 -127.732 186.543 -162.93C170.866 -196.909 151.394 -228.957 132.927 -261.616C115.074 -293.258 83.7738 -312.66 56.4356 -335.922C26.1962 -361.673 -6.94443 -384.02 -39.8619 -406.774C-75.0668 -431.103 -112.838 -451.724 -149.884 -473.462C-193.179 -498.857 -234.465 -526.741 -274.244 -556.453C-315.308 -587.131 -354.53 -619.688 -393.696 -652.396C-434.647 -686.578 -472.307 -723.859 -513.817 -757.533C-562.133 -796.743 -616.084 -826.506 -679.966 -838.848C-706.746 -844.029 -734.308 -841.235 -761.59 -841.54" stroke="#FFFEFB" stroke-width="2" stroke-linecap="round" stroke-linejoin="round"></path><path d="M-754.776 -807.41C-770.956 -803.144 -787.861 -803.448 -804.431 -800.655C-846.554 -793.544 -885.33 -779.12 -923.492 -762.359C-965.95 -743.719 -1004.39 -718.781 -1045.34 -697.855C-1111.96 -663.826 -1181.2 -635.84 -1256.74 -621.974C-1298.92 -614.203 -1340.82 -604.909 -1382.61 -595.259C-1465.29 -576.161 -1547.97 -557.064 -1630.21 -536.596C-1673.45 -525.828 -1717.47 -517.245 -1758.93 -500.585C-1799.6 -484.282 -1837.37 -464.321 -1871.29 -438.215C-1894.28 -420.489 -1918.16 -403.119 -1933.78 -379.45C-1949.34 -355.782 -1954.09 -329.676 -1948.12 -301.589C-1945.16 -287.723 -1943.99 -273.248 -1942.09 -259.077C-1939.52 -239.98 -1936.9 -220.832 -1934.84 -201.735C-1933 -184.67 -1930.82 -167.553 -1928.37 -150.691C-1923.62 -118.591 -1917.54 -86.3903 -1905.71 -55.7129C-1901.14 -43.8788 -1900.92 -31.7399 -1900.19 -20.2105C-1898.52 6.60677 -1895.73 33.3733 -1893.61 60.1398C-1890.32 102.245 -1892.21 145.01 -1875.53 185.744C-1862.14 218.352 -1844.79 248.47 -1817.73 273.358C-1790 298.854 -1762.66 324.351 -1741.18 354.876C-1717.03 389.211 -1701.68 426.084 -1692.98 465.904C-1687.06 493.026 -1685.17 520.757 -1677.52 547.676C-1670.27 573.122 -1658.56 596.08 -1639.64 615.786C-1603.71 653.27 -1558.97 677.852 -1507.3 694.156C-1429.81 718.637 -1359.68 755.967 -1294.23 800.917C-1230.01 845.003 -1161.78 882.232 -1082.89 901.228C-1057.23 907.424 -1031.34 911.792 -1005.23 915.906C-975.379 920.63 -945.363 923.982 -915.402 927.385C-874.339 932.058 -833.778 938.356 -793.608 947.142C-778.879 950.393 -766.548 957.351 -754.888 965.579C-751.373 968.068 -748.026 970.658 -744.232 972.944C-726.155 983.813 -721.022 984.626 -704.061 973.909C-678.787 957.961 -653.848 941.505 -626.287 929.011C-601.069 917.583 -574.512 911.995 -546.058 910.065C-516.097 908.084 -486.081 907.12 -456.343 908.593C-405.684 911.132 -355.36 916.566 -307.658 934.8C-261.629 952.424 -236.02 984.575 -226.48 1027.65C-222.742 1044.41 -215.544 1058.07 -200.536 1067.67C-160.143 1093.52 -120.53 1120.44 -78.7977 1144.51C-48.1678 1162.19 -14.4693 1171.33 21.5725 1168.59C69.3864 1164.93 112.626 1149.64 150.174 1121.45C192.018 1090.07 223.652 1050.7 255.844 1011.7C269.848 994.733 284.466 978.226 297.354 960.551C327.984 918.649 326.645 877.103 297.466 834.947C280.114 809.806 269.346 782.226 269.346 752.158C269.346 718.687 282.736 689.077 305.499 663.326C329.657 635.899 358 611.723 380.373 582.823C402.076 554.787 416.303 524.313 422.049 490.233C425.787 468.19 426.68 446.553 417.642 425.678C405.144 396.829 379.815 378.748 352.365 362.038C327.314 346.75 298.972 338.572 271.634 328.668C233.751 314.904 207.026 291.744 187.332 260C168.753 230.084 153.912 198.848 149.058 164.819C143.479 125.608 149.56 87.2621 165.907 50.236C174.164 31.4943 183.761 12.7019 183.426 -8.17294C182.924 -40.1201 186.272 -71.4069 168.418 -102.491C148.723 -136.825 136.281 -174.613 116.475 -209.201C103.197 -232.362 87.2401 -253.744 67.0991 -272.689C20.9589 -316.216 -30.7045 -354.258 -79.1321 -395.5C-108.758 -420.692 -143.795 -439.586 -178.163 -458.785C-221.96 -483.266 -262.633 -511.455 -302.357 -540.811C-348.553 -574.892 -392.518 -611.308 -436.593 -647.674C-474.532 -678.961 -511.355 -711.467 -551.469 -740.519C-592.198 -769.977 -637.445 -791.716 -688.16 -802.178C-709.306 -806.546 -731.511 -808.832 -753.605 -807.562" stroke="#FFFEFB" stroke-width="2" stroke-linecap="round" stroke-linejoin="round"></path><path d="M1221.1 -115.288C1203.25 -111.174 1184.95 -108.888 1167.54 -103.098C1136.69 -92.8387 1105.95 -82.2237 1077.94 -66.3771C1060.25 -56.3714 1057.41 -45.35 1065.78 -28.6907C1070.57 -19.1929 1076.77 -10.4569 1083.24 -1.92411C1094.9 13.5162 1100.87 31.4957 1110.13 48.0026C1132.11 87.0096 1168.94 108.748 1214.52 118.5C1242.97 124.594 1272.21 129.267 1301.44 123.426C1339.16 115.909 1363.71 99.6057 1374.98 61.4113C1383.35 32.9179 1381.9 3.96758 1377.99 -25.0845C1375.87 -40.8803 1372.75 -56.1682 1367.5 -71.4561C1358.13 -98.5782 1335.76 -108.228 1308.19 -112.8C1279.74 -117.472 1251.06 -114.323 1222.5 -115.237" stroke="#FFFEFB" stroke-width="2" stroke-linecap="round" stroke-linejoin="round"></path><path d="M1831.59 423.292C1814.91 427.406 1797.61 426.543 1780.7 427.864C1725.14 432.181 1672.41 443.406 1626.77 474.489C1612.55 484.19 1598.21 493.586 1587.78 507.249C1580.47 516.798 1569.48 524.01 1558.37 528.987C1520.32 546.002 1504.31 577.085 1493.21 611.064C1484 639.253 1479.04 668.356 1473.79 697.459C1468.77 725.241 1467.1 753.684 1455.55 780.4C1430.5 838.402 1387.43 877.46 1318.91 891.376C1254.42 904.48 1199.35 888.379 1151.65 848.509C1126.82 827.787 1107.79 802.29 1085.59 779.434C1061.49 754.649 1035.49 732.047 997.828 722.397C966.25 714.27 938.577 720.721 912.298 733.368C894.947 741.697 878.377 752.871 866.437 768.108C843.284 797.668 850.592 819.203 876.033 840.992C897.737 859.581 924.684 871.67 952.246 881.015C985.944 892.443 1018.42 905.343 1047.09 925.304C1067.07 939.221 1089.66 946.585 1113.88 952.629C1152.76 962.33 1180.6 986.405 1198.23 1019.17C1227.58 1073.76 1252.18 1130.29 1278.57 1186.11C1308.31 1249.04 1334.81 1313.24 1365.16 1375.87C1392.67 1432.65 1436.52 1479.83 1498.73 1506.9C1547.83 1528.29 1595.08 1553.73 1646.86 1569.88C1685.8 1582.02 1725.08 1592.33 1765.92 1598.28C1805.09 1603.91 1844.25 1609.5 1883.75 1607.37C1955.78 1603.51 2025.52 1592.13 2087.45 1554.29C2138.61 1522.95 2170.8 1480.14 2189.16 1427.37C2199.59 1397.4 2207.01 1366.72 2212.54 1335.84C2216.5 1313.8 2219.34 1291.35 2221.35 1268.95C2227.82 1196.07 2239.21 1124.2 2277.26 1058.07C2306.55 1007.23 2345.38 964.057 2396.43 930.129C2409.54 921.394 2425.11 914.74 2434.92 903.109C2452.95 881.624 2451.22 862.528 2428.34 841.45C2409.93 824.486 2389.29 809.553 2369.7 793.707C2356.7 783.193 2343.31 773.035 2330.98 761.963C2289.92 725.089 2246.07 691.212 2201.21 658.299C2182.07 644.23 2164.05 628.79 2146.31 613.299C2125.33 595.015 2103.69 577.542 2084.21 557.683C2060.95 533.964 2038.91 509.433 2017.82 484.139C1996.34 458.338 1966.72 444.472 1934.75 432.943C1901.66 421.007 1867.24 423.496 1832.93 423.343" stroke="#FFFEFB" stroke-width="2" stroke-linecap="round" stroke-linejoin="round"></path><path d="M1836.94 462.302C1809.27 466.874 1782.71 474.035 1757.88 486.53C1723.29 503.951 1691.27 524.774 1658.96 545.192C1634.25 560.785 1609.86 576.885 1585.26 592.63C1543.69 619.244 1521.1 656.626 1511.78 701.119C1506.48 726.565 1504.36 752.62 1497.83 777.761C1489.52 809.607 1470.55 837.237 1447.23 861.768C1417.49 893.055 1382.4 918.501 1340.28 934.957C1317.46 943.845 1292.96 947.858 1269.36 954.613C1246.55 961.165 1243.7 968.784 1243.36 989.862C1242.81 1027.6 1259.88 1061.12 1271.32 1095.71C1292.91 1161.18 1317.4 1225.94 1348.42 1288.36C1369.18 1330.11 1386.58 1373.38 1417.77 1410.35C1434.73 1430.42 1455.88 1445.65 1478.08 1460.33C1531.53 1495.58 1587.94 1526 1649.59 1547.84C1688.03 1561.46 1727.59 1571.06 1768.65 1576.39C1800.39 1580.5 1832.14 1582.58 1863.72 1580.5C1931.4 1576.08 1996.23 1562.83 2052.69 1525.04C2094.53 1497 2124.38 1461.35 2146.53 1418.94C2164.66 1384.2 2175.04 1347.48 2183.19 1310.25C2187.54 1290.34 2189.66 1269.82 2192 1249.45C2201.26 1167.93 2223.13 1090.12 2270.28 1018.86C2292.15 985.798 2312.79 952.124 2339.01 921.65C2344.7 915.047 2350.34 908.445 2356.42 902.197C2371.71 886.402 2379.46 865.12 2360.33 843.687C2328.19 807.626 2301.52 767.451 2262.69 736.418C2224.19 705.639 2185.81 674.707 2146.47 644.741C2116.4 621.834 2085.83 599.385 2056.37 575.768C2022.17 548.341 1988.47 520.356 1952.21 495.062C1918.4 471.495 1880.79 460.322 1838.33 462.252" stroke="#FFFEFB" stroke-width="2" stroke-linecap="round" stroke-linejoin="round"></path><path d="M662.905 -115.292C635.399 -108.638 619.275 -89.846 607.113 -68.768C596.177 -49.8232 587.585 -29.5577 580.221 -9.19072C568.225 23.9246 577.264 56.0239 590.989 86.8537C597.851 102.294 610.516 111.487 630.713 114.534C649.18 117.328 666.197 114.687 682.934 110.928C713.174 104.173 742.911 95.6913 768.91 78.6765C784.197 68.6708 790.725 54.6019 793.738 39.3648C796.639 24.6864 798.146 9.50018 796.918 -5.63534C794.965 -30.0147 788.995 -53.5816 779.343 -76.2849C769.803 -98.7342 748.434 -106.2 724.611 -110.568C704.693 -114.225 684.664 -116.358 664.356 -115.343" stroke="#FFFEFB" stroke-width="2" stroke-linecap="round" stroke-linejoin="round"></path><path d="M1836.94 586.581C1811.55 586.835 1792.25 601.259 1771.6 611.367C1740.03 626.807 1708.5 642.704 1680.27 663.325C1640.33 692.479 1609.53 728.54 1600.94 774.404C1590.84 828.546 1561.32 871.261 1522.49 910.826C1499.34 934.444 1474.9 956.893 1451.41 980.155C1421.01 1010.22 1393.61 1042.02 1381.9 1082.55C1376.43 1101.29 1375.54 1120.59 1376.65 1139.79C1379.22 1183.62 1388.65 1226.23 1404.49 1267.78C1424.41 1319.99 1456.66 1363.93 1504.86 1398.31C1540.51 1423.71 1577.11 1447.48 1617.39 1466.47C1657.79 1485.57 1699.91 1499.44 1744.55 1508.12C1778.8 1514.77 1813.23 1516.86 1847.71 1514.72C1891 1512.03 1930.33 1497.51 1966.93 1476.22C2041.42 1432.85 2083.99 1369.36 2105.63 1293.23C2111.71 1271.95 2113.95 1249.6 2117.07 1227.55C2122.98 1186.16 2130.18 1144.87 2142.18 1104.44C2153.78 1065.28 2169.74 1027.85 2191.39 992.142C2209.74 961.82 2222.46 928.857 2228.66 894.777C2233.29 869.331 2224.75 844.443 2214.54 820.521C2189.88 762.874 2145.19 721.429 2088.78 688.771C2045.6 663.833 1999.68 643.822 1953.43 624.42C1932.96 615.836 1912.26 607.506 1892.12 598.313C1874.76 590.39 1857.25 586.683 1838.33 586.581" stroke="#FFFEFB" stroke-width="2" stroke-linecap="round" stroke-linejoin="round"></path><path d="M1835.6 631.634C1791.36 641.335 1752.03 660.635 1715.26 684.202C1685.63 703.146 1665.99 729.253 1654.78 760.794C1635.25 815.749 1603.06 864.406 1563.84 909.508C1543.03 933.481 1520.66 956.133 1497 977.821C1457 1014.54 1427.98 1057.66 1415.88 1108.25C1407.84 1141.72 1406.73 1176.06 1414.76 1210.59C1420.45 1235.07 1426.31 1259.1 1436.47 1282.46C1446.62 1305.77 1461.68 1326.09 1479.76 1344.37C1543.64 1408.88 1622.7 1451.24 1713.75 1476.43C1745.89 1485.32 1778.25 1491.26 1811.61 1491.77C1867.07 1492.58 1917.62 1477.7 1961.41 1446.72C2004.1 1416.5 2037.63 1379.12 2059.27 1333.56C2070.04 1310.85 2078.36 1287.49 2082.04 1262.91C2087.39 1227.56 2091.24 1192 2098.38 1156.96C2113.34 1083.67 2136.71 1012.71 2174.37 946.128C2185.2 926.98 2191.84 906.461 2191.28 885.23C2190.72 862.578 2183.52 840.534 2174.26 819.456C2151.44 767.447 2111.05 730.37 2056.65 704.721C2004.26 679.986 1948.02 664.292 1893.24 645.144C1875.05 638.795 1857.25 630.974 1837 631.786" stroke="#FFFEFB" stroke-width="2" stroke-linecap="round" stroke-linejoin="round"></path><path d="M73.8522 759.58C38.0893 777.153 3.666 796.149 -25.4018 822.763C-54.3021 849.225 -72.8809 879.445 -79.018 916.725C-86.2152 960.405 -74.9455 998.701 -42.4187 1031.16C-17.4237 1056.09 15.8285 1061.73 51.145 1060.51C103.59 1058.63 138.181 1030.44 167.583 994.739C179.635 980.112 191.909 965.433 199.608 948.419C221.144 900.625 208.703 857.91 174.167 819.411C153.803 796.708 126.632 781.115 100.521 764.71C93.4354 760.24 84.3969 758.259 75.247 759.631" stroke="#FFFEFB" stroke-width="2" stroke-linecap="round" stroke-linejoin="round"></path><path d="M-773.515 -653.869C-782.107 -648.383 -792.428 -650.974 -801.745 -649.602C-845.04 -643.203 -885.378 -630.404 -922.034 -608.716C-956.123 -588.552 -991.048 -569.912 -1027.76 -553.812C-1083.61 -529.382 -1141.97 -511.452 -1201.94 -498.095C-1300.58 -476.102 -1393.09 -442.479 -1476.61 -388.591C-1526.6 -356.39 -1574.41 -322.208 -1615.36 -280.814C-1655.37 -240.435 -1681.25 -192.692 -1698.66 -140.886C-1709.15 -109.701 -1716.68 -77.8045 -1722.09 -45.7558C-1728.29 -9.13596 -1736.66 27.5851 -1733.25 65.0176C-1730.24 98.1837 -1718.24 128.556 -1695.87 155.221C-1676.68 178.077 -1652.19 195.143 -1626.41 211.497C-1552.82 258.174 -1493.46 317.446 -1444.03 385.404C-1417.02 422.582 -1395.38 462.605 -1366.87 499.022C-1322.12 556.11 -1267 602.278 -1199.04 634.987C-1172.65 647.685 -1143.86 654.338 -1113.62 657.741C-1065.03 663.227 -1020.06 652.104 -975.762 637.476C-923.094 620.106 -872.769 597.402 -820.491 578.965C-783.836 566.065 -746.623 555.145 -707.903 550.32C-668.625 545.444 -629.403 546.764 -590.014 554.281C-559.719 560.072 -528.921 564.744 -497.845 567.69C-468.777 570.433 -439.877 572.159 -410.754 571.855C-385.982 571.652 -361.768 567.334 -339.953 557.075C-279.028 528.48 -214.03 509.688 -149.813 488.914C-125.209 480.94 -100.549 472.712 -74.7169 469.97C-42.3016 466.516 -11.8945 473.525 14.9416 491.505C29.0012 500.952 43.9536 508.824 61.7514 511.059C82.8966 513.751 101.81 498.768 103.428 479.366C105.604 453.361 93.9434 432.334 74.8624 415.014C56.5626 398.406 35.1942 384.54 16.3923 368.287C-11.2249 344.365 -34.658 316.989 -57.1981 289.105C-67.4081 276.509 -79.3475 266.859 -94.7461 259.799C-132.294 242.683 -167.667 222.468 -196.567 194.178C-234.45 157.101 -257.882 113.218 -268.818 63.7987C-276.963 26.8233 -279.307 -10.7105 -279.474 -48.2953C-279.865 -126.259 -280.143 -204.272 -279.251 -282.236C-278.972 -308.291 -287.731 -330.283 -306.422 -349.177C-327.511 -370.56 -349.27 -391.435 -370.583 -412.614C-406.959 -448.676 -446.683 -481.537 -487.189 -513.636C-527.303 -545.431 -568.701 -575.855 -608.704 -607.802C-626.111 -621.668 -642.291 -636.549 -663.771 -645.437C-676.603 -650.77 -689.938 -653.716 -703.997 -653.818C-726.76 -653.97 -749.524 -653.818 -772.287 -653.818" stroke="#FFFEFB" stroke-width="2" stroke-linecap="round" stroke-linejoin="round"></path><path d="M-737.367 -694.096C-750.478 -690.388 -764.148 -692.724 -777.594 -691.048C-813.859 -686.629 -848.338 -677.386 -881.925 -664.79C-920.979 -650.162 -955.961 -628.779 -991.668 -608.666C-1064.42 -567.628 -1143.09 -539.693 -1226.11 -522.627C-1297.86 -507.847 -1367.09 -487.582 -1432.09 -456.295C-1495.3 -425.872 -1554.17 -389.201 -1611.63 -350.55C-1649.85 -324.85 -1681.82 -294.426 -1705.31 -256.638C-1722.88 -228.348 -1733.26 -197.722 -1741.18 -166.384C-1750.05 -131.491 -1756.3 -96.1918 -1760.6 -60.4862C-1764.56 -27.6248 -1768.07 5.28734 -1769.19 38.2503C-1771.87 116.62 -1740.68 180.92 -1670.44 228.409C-1587.25 284.634 -1517.62 351.728 -1468.02 435.38C-1446.1 472.355 -1423.89 509.331 -1393.43 541.634C-1368.43 568.146 -1341.09 592.475 -1311.41 614.416C-1276.1 640.471 -1238.33 663.53 -1196.43 680.393C-1170.76 690.703 -1144.2 697.865 -1116.2 701.572C-1092.88 704.62 -1069.5 704.874 -1046.57 703.045C-1006.4 699.846 -967.733 689.383 -931.468 673.028C-884.826 651.95 -838.128 630.974 -788.138 617.159C-761.47 609.794 -734.355 604.207 -706.57 600.906C-682.468 598.061 -658.533 595.929 -634.263 596.335C-590.912 597.046 -549.013 605.223 -507.001 614.314C-475.981 621.019 -444.346 624.168 -412.043 622.238C-361.662 619.292 -319.037 597.909 -275.463 578.152C-234.847 559.715 -192.779 543.868 -148.257 535.793C-90.9024 525.381 -33.883 527.107 20.2913 550.166C60.9638 567.486 101.414 564.743 142.142 551.233C152.519 547.779 163.51 545.189 172.772 540.059C189.733 530.663 192.801 511.87 185.158 487.897C176.845 461.791 159.381 440.408 143.146 418.721C106.881 370.317 71.1183 321.61 35.9134 272.546C5.61821 230.34 -36.6165 198.85 -85.4347 174.775C-118.185 158.624 -147.532 138.866 -167.115 109.001C-187.088 78.5778 -196.183 46.1735 -194.397 10.2647C-192.891 -19.4476 -180.226 -44.7918 -165.776 -70.1361C-144.463 -107.416 -142.734 -145.509 -159.025 -184.719C-171.188 -213.924 -180.394 -243.839 -186.308 -274.821C-192.947 -309.613 -216.826 -335.922 -244.889 -358.879C-270.331 -379.653 -296.497 -399.664 -322.44 -419.879C-367.13 -454.619 -407.747 -493.474 -452.436 -528.163C-496.289 -562.193 -540.03 -596.223 -583.325 -630.811C-601.625 -645.438 -616.633 -663.418 -638.336 -674.592C-659.983 -685.715 -683.193 -691.759 -707.965 -692.826C-717.338 -693.232 -726.711 -693.639 -736.084 -694.045" stroke="#FFFEFB" stroke-width="2" stroke-linecap="round" stroke-linejoin="round"></path><path d="M-776.206 -734.27C-789.596 -729.851 -803.934 -730.054 -817.771 -727.311C-861.512 -718.575 -902.073 -702.983 -940.849 -683.124C-984.144 -660.928 -1023.03 -632.232 -1067.94 -612.322C-1122.9 -587.943 -1180.42 -570.369 -1239.39 -556.503C-1291.11 -544.314 -1343.17 -533.495 -1393.38 -516.277C-1472.49 -489.206 -1546.86 -452.993 -1622.18 -418.557C-1655.71 -403.218 -1691.03 -390.775 -1721.33 -370.001C-1762.67 -341.66 -1787.22 -303.923 -1797.82 -257.958C-1805.13 -226.112 -1807.86 -194.013 -1808.25 -161.659C-1808.7 -126.716 -1808.08 -91.8226 -1808.42 -56.8788C-1808.75 -25.1348 -1815.39 6.30448 -1813.72 38.15C-1812.55 60.6501 -1809.7 82.8961 -1806.13 105.244C-1802.67 126.931 -1799.04 148.111 -1789.84 168.63C-1781.47 187.423 -1769.2 203.523 -1754.69 218.456C-1730.25 243.546 -1701.52 264.573 -1672.84 285.194C-1615.82 326.182 -1574.37 377.429 -1543.01 436.498C-1530.35 460.37 -1518.13 484.496 -1506.19 508.672C-1490.4 540.568 -1466.91 566.166 -1437.46 587.65C-1375.08 633.209 -1310.47 675.975 -1243.35 715.642C-1207.93 736.568 -1169.54 751.602 -1128.2 759.373C-1067.44 770.801 -1008.02 762.471 -950.333 744.593C-914.236 733.419 -879.756 718.182 -845.723 702.386C-808.175 684.914 -769.064 670.134 -727.834 662.77C-701.388 658.046 -674.217 655.71 -646.21 658.96C-612.455 662.871 -579.092 667.442 -545.839 674.096C-510.411 681.206 -475.318 689.129 -441.508 701.218C-402.23 715.236 -367.973 706.347 -335.614 684.203C-311.065 667.391 -286.127 651.037 -260.63 635.495C-225.313 613.96 -186.147 600.348 -144.247 594.05C-96.1541 586.787 -49.6787 594.812 -3.65011 607.205C23.9113 614.62 52.142 619.445 80.596 623.458C104.252 626.81 127.796 628.892 151.564 627.978C192.906 626.353 226.772 611.37 253.608 581.962C266.775 567.537 279.774 553.164 289.37 536.606C305.717 508.418 299.915 489.422 278.603 468.547C250.204 440.765 216.227 418.163 187.773 390.381C160.156 363.411 134.659 334.969 116.693 301.498C96.3851 263.608 75.2956 226.074 55.322 188.083C43.3825 165.431 30.1599 143.438 17.2161 121.345C-1.64164 89.042 10.4653 67.8622 29.8252 46.835C39.1983 36.6769 50.3008 28.2459 58.2233 16.5133C76.1884 -10.2024 70.8878 -41.8958 52.309 -63.9896C11.8596 -112.088 -20.1094 -164.707 -52.4132 -217.376C-76.7944 -257.094 -97.4928 -298.946 -129.294 -334.804C-137.44 -343.997 -147.929 -349.787 -157.804 -356.39C-207.85 -389.759 -256.724 -424.499 -305.096 -459.951C-355.42 -496.875 -404.741 -534.918 -453.224 -573.772C-485.919 -599.929 -518.669 -626.188 -550.08 -653.716C-573.959 -674.693 -599.065 -694.755 -628.97 -708.57C-654.634 -720.455 -681.749 -728.226 -710.482 -732.187C-732.018 -735.184 -753.387 -733.305 -774.811 -734.27" stroke="#FFFEFB" stroke-width="2" stroke-linecap="round" stroke-linejoin="round"></path><path d="M-768.164 -770.838C-783.954 -766.775 -800.468 -767.232 -816.425 -763.727C-855.814 -755.042 -893.084 -741.989 -928.958 -724.771C-984.416 -698.157 -1034.46 -663.264 -1090.81 -638.021C-1133.16 -619.025 -1176.73 -603.89 -1223.26 -595.002C-1273.48 -585.402 -1322.91 -572.603 -1371.95 -558.89C-1464.51 -532.936 -1555.95 -504.036 -1647.51 -475.492C-1718.81 -453.246 -1784.31 -419.775 -1841.5 -374.521C-1858.74 -360.909 -1877.09 -347.297 -1883.73 -325C-1888.03 -310.525 -1888.75 -297.065 -1886.63 -282.184C-1884.34 -266.439 -1882.67 -250.542 -1880.33 -234.797C-1877.04 -212.855 -1873.8 -190.812 -1870.51 -168.871C-1868.05 -152.364 -1866.43 -135.603 -1864.37 -118.994C-1861.75 -98.272 -1860.35 -77.4479 -1856.89 -56.7763C-1854.89 -44.7897 -1854.94 -32.3969 -1854.33 -20.258C-1852.38 15.8539 -1851.2 51.9658 -1850.81 88.1793C-1850.31 130.284 -1841.94 170.968 -1819.46 209.01C-1802.66 237.452 -1779.57 260.46 -1751.89 279.202C-1689.69 321.459 -1646.56 376.414 -1615.48 440.308C-1598.63 474.998 -1589.54 512.024 -1575.59 547.629C-1558.41 591.613 -1526.88 621.529 -1479.13 639.305C-1428.35 658.199 -1382.6 685.728 -1337.02 713.206C-1295.51 738.194 -1256.79 766.89 -1213.94 790.102C-1179.02 808.996 -1141.92 823.776 -1101.41 827.382C-1064.14 830.683 -1026.54 828.652 -988.991 825.858C-963.605 823.979 -938.777 820.932 -914.005 815.802C-871.045 806.913 -832.604 789.797 -797.511 765.773C-767.049 744.899 -732.904 735.908 -694.463 739.972C-644.362 745.203 -596.771 759.882 -548.678 772.224C-521.619 779.182 -495.563 789.594 -469.508 799.65C-431.458 814.329 -393.018 816.97 -352.959 803.815C-313.57 790.864 -277.918 774.052 -252.756 742.46C-244.387 731.997 -238.641 720.011 -230.104 709.497C-211.47 686.54 -187.367 673.893 -156.347 668.967C-133.806 665.411 -112.55 667.494 -92.1303 674.554C-58.5991 686.134 -43.8696 710.818 -58.9335 743.629C-70.2593 768.364 -89.7309 788.425 -112.104 805.948C-130.348 820.22 -149.094 834.34 -154.897 857.094C-158.3 870.351 -157.407 884.064 -155.9 897.27C-152.999 922.766 -149.596 948.365 -140.279 972.846C-116.846 1034.3 -75.8947 1081.08 -7.77241 1105.71C31.7285 1119.98 69.3325 1114.45 104.537 1095.66C145.154 1073.97 175.115 1041.56 203.792 1008.2C221.311 987.778 238.272 967.106 247.924 942.372C261.091 908.647 256.572 875.684 241.117 843.736C227.839 816.31 213.89 789.137 199.663 762.066C184.544 733.369 190.346 707.415 213.11 686.439C232.637 668.459 254.786 652.968 273.365 634.074C301.651 605.276 327.985 575.31 347.29 540.417C373.066 493.893 358.392 452.651 318.947 423.243C288.875 400.794 254.284 384.389 223.543 362.752C188.226 337.916 162.896 306.578 143.871 270.872C128.361 241.718 116.254 211.092 103.032 180.973C82.6116 134.399 88.9156 90.7699 112.237 46.5823C124.511 23.3203 134.721 -1.16105 138.46 -27.4704C141.863 -51.4943 134.554 -72.369 120.773 -92.0756C68.9979 -165.925 14.8799 -238.352 -44.0925 -307.63C-74.6109 -343.437 -111.936 -372.997 -153.613 -398.037C-206.392 -429.679 -255.88 -465.334 -304.977 -501.496C-355.692 -538.878 -405.069 -577.53 -453.664 -617.146C-480.053 -638.631 -506.499 -660.013 -532.554 -681.853C-562.626 -707.096 -593.981 -730.815 -631.585 -746.459C-659.704 -758.14 -688.772 -766.064 -719.848 -768.908C-735.526 -770.33 -751.092 -770.33 -766.77 -770.889" stroke="#FFFEFB" stroke-width="2" stroke-linecap="round" stroke-linejoin="round"></path></g></g></svg> 