<svg xmlns="http://www.w3.org/2000/svg" xmlns:xlink="http://www.w3.org/1999/xlink" xml:space="preserve" id="Layer_1" x="0" y="0" version="1.1" viewBox="0 0 1440 1528"><style>.st1{fill:#0c2233}</style><defs><path id="SVGID_1_" d="M0 0h1440v1528H0z"/></defs><clipPath id="SVGID_00000125602085022127301100000005874376097783405191_"><use xlink:href="#SVGID_1_" style="overflow:visible"/></clipPath><g style="clip-path:url(#SVGID_00000125602085022127301100000005874376097783405191_)"><path d="M0 0h1440v1528H0z" class="st1"/><path d="M0 0h1440v1524H0z" class="st1"/><path d="M0 0h1440v1528H0z" class="st1"/><path d="M-82.7 1318.6c30-1.2 58.7-8.1 84.8-27.1 14.2-10.3 20.8-26.5 26.5-44 7.8-23.8 11.6-49.2 14.1-75 4.8-49-4.6-95.7-28.6-139.2-32-57.7-58.3-117.6-69.4-184.2-5-30.2-6.6-60.4-5.9-90.6.4-19 2-37.5 4.7-55.7 4.9-33.8 12.5-66.7 18.9-100 4.3-22.7 9.3-45.1 13.8-67.7 4.8-23.6 11.1-46.7 17-69.8C2.9 427 14.3 389.4 6.4 346.2c-5.2-28.1-18.6-50.3-36-69.4-29.6-32.4-64.1-55.1-100.1-74.8-34.9-19.1-71-29.3-107.6-34.7-34.9-5.1-69.9-6.7-104.9-6.4-13.2.1-26.6-1.1-39.9-2.5" style="fill:none;stroke:#ff6a39;stroke-width:8.3215;stroke-linecap:round;stroke-linejoin:round"/><path d="M-396.9 101.1c28.1 1.5 56.1 2.8 84.1 2.7 43.9-.2 87.6 3.8 131.5 14.3 49.5 11.8 97.5 31.3 143.8 57.4 45.9 25.9 89.8 56.7 131 93.6 26 23.3 34.6 51.5 19.5 90.5-30.3 77.6-63 153.8-88.4 234.2-7.7 24.2-14.2 49.3-20.1 74.6-4.1 18-13.8 103.7-12.7 128.4 1.7 41.1 8.2 80.9 19.7 120.8 11.8 40.8 31.2 78.1 43.9 118.4 22.7 72.2 29.8 142.9 8.4 212.7-19.4 62.8-56.5 100.2-112.9 112.3-7.2 1.5-14.4 3-21.5 4.6" style="fill:none;stroke:#ff6a39;stroke-width:16.6429;stroke-linecap:round;stroke-linejoin:round"/><path d="M-141.8 1114.8c5 6.5 23 40.9 27.3 49.4 10.7 21.7 24.1 41.6 47.5 42.9 72.5-3.7-6.3-91.6-22.4-105.8-32.9-29.1-45.7-67.5-49.8-112.9-3.6-39.7-4.5-79-5.6-118.5-1.2-40.2-2.1-80.5-2.2-120.5-.2-38.4-.8-76.8.4-115.1 1.1-35.7 1.5-71.6 2.7-107.3 1.1-33.3 4.7-66.1 4.6-99.5-.2-43.9-6.6-86.5-38.1-120-14.4-15.4-31.3-22.7-49.5-27-26.3-6.2-52.3-3.6-78.3-7.1-16.2-2.1-32.5-4.3-48.8-6.7" style="fill:none;stroke:#cefd94;stroke-width:4.1607;stroke-linecap:round;stroke-linejoin:round"/><path d="M-54.9 1426.1c11.2-7.6 23.2-13.7 35.5-19.4 55.5-25.3 91.3-74 115.4-136.4 13.7-35.4 20.3-73.9 20.9-113.9.4-25.1-2.6-50.6-9.3-75.7-17.6-65.9-39-130.9-51.6-198.1-7.4-39.6-10.4-79.3-5.8-118.4 3.6-31 11.3-60.5 19.7-89.4 12.6-43.5 27.3-85.9 45.1-126.3 16.6-37.7 35.3-73.9 51.9-111.5 15.3-34.6 29.7-70.3 34.4-110.2 3.6-30.7-4.6-58.3-24.2-84.6-39-52.3-87.7-84.4-138.7-113.6-27.2-15.6-54.8-28.5-83-40.6-42.3-18.2-85.2-30-128.7-37.4-62.9-10.7-125.5-12.4-187.6-6.8-16.8 1.5-33.6 1.7-50.6 1.2" style="fill:none;stroke:#0a91ab;stroke-width:1.6643;stroke-linecap:round;stroke-linejoin:round"/><path d="M-36.1 1499.2c9.7-17.2 22.4-32.5 37.9-45.7 19-16.2 40.5-27.9 58.4-46.6 31.8-33.3 52.9-75.1 69.3-121.4 8.8-25 15.3-51.1 19-78 8.8-62.5 2.5-125.8-15.1-187.9-15.9-56.4-27.8-113.3-31-171-2-35.6 1.4-70.9 9-105.5 17.7-81.5 50.5-153.4 83.9-225.1 19.1-41.1 37.4-82.8 48.8-128.3 20.6-81.6 7-156-51.9-220.3-36.8-40.2-77.9-71.5-122.4-96-27.1-14.9-54.6-27.6-82.9-38-24.8-9.1-49.5-18.5-74.6-25.3-27.8-7.6-56.1-13.5-84.2-17.4-61.9-8.7-123.6-11-185.1-9.9-23.6.4-47.1 0-70.7-.9" style="fill:none;stroke:#cefd94;stroke-width:3.3286;stroke-linecap:round;stroke-linejoin:round"/><path d="M-94.3 1273.4c1.4.2 2.9.4 4.4.6 9.7 1.2 19.2 1.7 28.6 1.3 28.8-1.1 50.6-15.1 63.2-45.3 6.9-16.4 7.5-34.9 7.5-53.4 0-18.1-1.7-36.4-2-54.7-.7-33.9-15.4-60.2-34.8-85.8-45.2-59.8-69.5-128.8-74.8-205.7-4.2-59.9-.5-118.4 6.2-176.4 8.8-75.9 18.5-151.7 27.1-227.7 3.6-32.6.8-65.7-14.9-95.9-19.5-37.3-46.4-65.9-80-85-27.7-15.8-56.3-23.1-86-27.1-39.8-5.4-79.6-6.8-119.3-10.2" style="fill:none;stroke:#cefd94;stroke-width:6.6572;stroke-linecap:round;stroke-linejoin:round"/></g></svg>