<?xml version="1.0" encoding="UTF-8"?> <svg xmlns="http://www.w3.org/2000/svg" width="24" height="24" viewBox="0 0 24 24" fill="none"><path d="M10.67 19.97C10.43 19.99 10.19 20 9.95 20C8.78 20 7.66999 19.72 6.67999 19.23L2.78999 19.79L3.38 15.88H3.39C2.99 15 2.75 14.03 2.75 13C2.75 11.11 3.51999 9.40001 4.75999 8.14001" stroke="#0A91AB" stroke-width="1.5" stroke-linecap="round" stroke-linejoin="round"></path><path d="M10.8605 11.78C11.3024 11.78 11.6606 11.4308 11.6606 11C11.6606 10.5692 11.3024 10.22 10.8605 10.22C10.4187 10.22 10.0605 10.5692 10.0605 11C10.0605 11.4308 10.4187 11.78 10.8605 11.78Z" fill="#0A91AB"></path><path d="M14.0598 11.78C14.5016 11.78 14.8598 11.4308 14.8598 11C14.8598 10.5692 14.5016 10.22 14.0598 10.22C13.6179 10.22 13.2598 10.5692 13.2598 11C13.2598 11.4308 13.6179 11.78 14.0598 11.78Z" fill="#0A91AB"></path><path d="M17.2512 11.78C17.693 11.78 18.0512 11.4308 18.0512 11C18.0512 10.5692 17.693 10.22 17.2512 10.22C16.8093 10.22 16.4512 10.5692 16.4512 11C16.4512 11.4308 16.8093 11.78 17.2512 11.78Z" fill="#0A91AB"></path><path d="M20.6194 13.88L21.2094 17.79L17.3194 17.23C16.6194 17.58 15.8594 17.82 15.0494 17.93C14.7294 17.98 14.3894 18 14.0494 18C10.0694 18 6.85938 14.87 6.85938 11C6.85938 9.07 7.64937 7.35 8.94937 6.08C10.2394 4.79 12.0494 4 14.0594 4C18.0394 4 21.2494 7.13 21.2494 11C21.2494 12.03 21.0094 13 20.6094 13.88H20.6194V13.88Z" stroke="#0A91AB" stroke-width="1.5" stroke-linecap="round" stroke-linejoin="round"></path></svg> 