<?xml version="1.0" encoding="UTF-8"?> <svg xmlns="http://www.w3.org/2000/svg" width="96" height="96" viewBox="0 0 96 96" fill="none"><path d="M31.5604 52.1199C33.8358 52.1199 35.6804 50.2753 35.6804 47.9999C35.6804 45.7245 33.8358 43.8799 31.5604 43.8799C29.285 43.8799 27.4404 45.7245 27.4404 47.9999C27.4404 50.2753 29.285 52.1199 31.5604 52.1199Z" fill="#0C2233"></path><path d="M48.0009 52.1199C50.2763 52.1199 52.1208 50.2753 52.1208 47.9999C52.1208 45.7245 50.2763 43.8799 48.0009 43.8799C45.7254 43.8799 43.8809 45.7245 43.8809 47.9999C43.8809 50.2753 45.7254 52.1199 48.0009 52.1199Z" fill="#0C2233"></path><path d="M64.4403 52.1199C66.7157 52.1199 68.5603 50.2753 68.5603 47.9999C68.5603 45.7245 66.7157 43.8799 64.4403 43.8799C62.1649 43.8799 60.3203 45.7245 60.3203 47.9999C60.3203 50.2753 62.1649 52.1199 64.4403 52.1199Z" fill="#0C2233"></path><path d="M81.76 63.2H81.72C83.8 58.56 85 53.4 85 48C85 27.56 68.44 11 48 11C27.56 11 11 27.56 11 48C11 68.44 27.56 85 48 85C54.04 85 59.76 83.52 64.8 80.96L84.8 83.92L81.76 63.2Z" stroke="#0C2233" stroke-width="4.5" stroke-linecap="round" stroke-linejoin="round"></path></svg> 