<svg xmlns="http://www.w3.org/2000/svg" width="138" height="24" fill="none"><path fill="#FFFEFB" d="M36.678 16.088c0 2.778-1.434 4.47-3.568 4.47-2.194 0-3.63-1.692-3.63-4.47V6.704h-3.312v9.321c0 4.757 2.524 7.853 6.822 7.853 4.267 0 6.97-3.16 6.97-7.853v-9.32h-3.282zM46.482.036h-3.241V23.64h3.241V.037M64.49 6.724h-3.242V23.64h3.242zm14.104 0-4.536 12.424L69.49 6.724h-3.458l6.359 16.916h3.303L82.05 6.724zm37.492 6.885-1.914-.46c-1.173-.295-1.76-.95-1.76-1.835 0-1.214 1.081-1.967 2.531-1.933.894 0 1.79.294 2.654.754a9.7 9.7 0 0 1 2.346 1.64V8.23c-.556-.426-2.562-1.869-5.155-1.869-3.579 0-5.74 2.492-5.74 5.245 0 2.59 1.759 3.869 4.075 4.459l1.851.46c1.636.392 2.438 1.015 2.438 2.197 0 1.18-.957 2.294-2.716 2.294-1.111 0-2.223-.393-3.117-.918-1.08-.591-1.883-1.312-2.098-1.541l-.062 3.606c.214.23 2.068 1.836 5.369 1.836 3.674 0 5.957-2.688 5.957-5.442.002-2.392-1.573-4.228-4.659-4.95m-26.35-7.083c-4.383 0-7.686 3.87-7.686 8.654 0 4.787 3.58 8.654 8.425 8.654 3.705 0 5.74-1.869 5.74-1.869v-3.442s-2.252 2.131-5.493 2.131c-2.932 0-4.845-1.738-5.34-4.163H97.08c.031-.427.063-.886.063-1.312 0-4.784-3.15-8.653-7.408-8.653m-4.384 7.344c.401-2.425 1.945-4.196 4.382-4.196 2.407 0 3.857 1.77 4.229 4.196zM61.706 0l-1.164 2.14 1.164 2.14h2.325l1.163-2.14L64.033 0zm-41.5 6.724H19.7v.003l-.006-.003-6.392 11.184-.031-11.184H9.604v.003l-.005-.003-6.368 11.144-.02-.654.031-10.49H0v16.915h3.241c.199-.361.695-1.243 1.333-2.377l5.518-9.656V23.64h3.21l.003-.005.007.005 6.841-11.97v11.972h3.21V6.724zm115.375 11.469-.739.703c-.65.618-1.333 1.093-2.03 1.414-.672.309-1.498.466-2.453.466a4.74 4.74 0 0 1-2.412-.644c-.748-.426-1.335-1.024-1.797-1.824-.391-.679-.61-1.421-.666-2.264a29 29 0 0 0 1.985.576c1.009.25 2.06.374 3.12.374a8.1 8.1 0 0 0 2.923-.53c.964-.368 1.761-.92 2.37-1.64.662-.782.998-1.738.998-2.836a4.93 4.93 0 0 0-.866-2.835c-.554-.81-1.324-1.448-2.288-1.893a7.2 7.2 0 0 0-3.051-.646c-1.317 0-2.598.353-3.809 1.048-1.221.7-2.237 1.741-3.018 3.093-.786 1.358-1.184 2.993-1.184 4.855 0 1.67.383 3.142 1.139 4.375a7.46 7.46 0 0 0 2.954 2.785 8.15 8.15 0 0 0 3.775.923c1.237 0 2.359-.24 3.338-.713.938-.455 1.854-1.097 2.722-1.909l.658-.616zm-9.744-4.962a5.3 5.3 0 0 1 .839-1.603 5.4 5.4 0 0 1 1.857-1.561c.703-.351 1.423-.53 2.14-.53 1.072 0 1.937.254 2.574.752.563.441.826.983.826 1.702 0 .414-.098.947-.863 1.412-.741.448-1.624.677-2.621.677-1.438-.004-3.033-.287-4.752-.849M55.284 1.905h-3.21v4.786h-4.086v2.983h4.086v13.933h3.21V9.674h4.105V6.691h-4.105zm43.872 4.786h-.19v16.916h3.24V9.65h5.519V6.668h-8.568z"/></svg>