<?xml version="1.0" encoding="UTF-8"?> <svg xmlns="http://www.w3.org/2000/svg" width="949" height="192" viewBox="0 0 949 192" fill="none"><path d="M280.36 117.96H280.54V63.38H287.06V127.47H278.92L241.62 72.34H241.44V127.47H234.92V63.38H243.07L280.36 117.96Z" fill="white"></path><path d="M380.39 95.42C380.39 100.31 379.54 104.8 377.86 108.91C376.17 113.01 373.83 116.56 370.84 119.55C367.85 122.54 364.32 124.88 360.25 126.57C356.18 128.26 351.75 129.1 346.99 129.1C342.22 129.1 337.8 128.25 333.73 126.57C329.66 124.88 326.13 122.54 323.14 119.55C320.15 116.56 317.81 113.02 316.13 108.91C314.44 104.81 313.6 100.31 313.6 95.42C313.6 90.53 314.44 86.04 316.13 81.93C317.82 77.83 320.16 74.28 323.14 71.29C326.13 68.3 329.66 65.96 333.73 64.27C337.8 62.58 342.22 61.73 346.99 61.73C351.76 61.73 356.18 62.58 360.25 64.27C364.32 65.96 367.85 68.3 370.84 71.29C373.83 74.28 376.16 77.82 377.86 81.93C379.54 86.04 380.39 90.53 380.39 95.42ZM373.51 95.47C373.51 91.73 372.91 88.18 371.7 84.81C370.49 81.44 368.74 78.47 366.45 75.91C364.16 73.35 361.37 71.31 358.08 69.81C354.79 68.3 351.09 67.55 346.99 67.55C342.89 67.55 339.19 68.3 335.9 69.81C332.61 71.32 329.82 73.35 327.53 75.91C325.24 78.47 323.49 81.44 322.28 84.81C321.07 88.19 320.47 91.74 320.47 95.47C320.47 99.21 321.07 102.76 322.28 106.14C323.49 109.51 325.24 112.47 327.53 115C329.82 117.53 332.61 119.55 335.9 121.06C339.19 122.57 342.88 123.32 346.99 123.32C351.09 123.32 354.79 122.57 358.08 121.06C361.37 119.55 364.16 117.54 366.45 115C368.74 112.47 370.49 109.52 371.7 106.14C372.9 102.76 373.51 99.21 373.51 95.47Z" fill="white"></path><path d="M425.47 119.05H425.65L446.47 63.38H453.44L428.9 127.47H422.03L397.58 63.38H404.65L425.47 119.05Z" fill="white"></path><path d="M471.99 127.47H464.84L492.54 63.38H498.88L526.4 127.47H519.16L512.1 110.63H478.97L471.99 127.47ZM481.41 104.66H509.65L495.53 70.62L481.41 104.66Z" fill="white"></path><path d="M630.95 117.06C629.86 118.69 628.55 120.23 627.01 121.68C625.47 123.13 623.69 124.41 621.67 125.51C619.65 126.61 617.41 127.49 614.97 128.13C612.52 128.77 609.86 129.09 606.96 129.09C602.13 129.09 597.67 128.24 593.56 126.56C589.46 124.87 585.93 122.53 582.97 119.54C580.01 116.55 577.7 113.01 576.05 108.9C574.39 104.8 573.56 100.3 573.56 95.41C573.56 90.52 574.4 86.03 576.09 81.92C577.78 77.82 580.12 74.27 583.1 71.28C586.09 68.29 589.62 65.95 593.69 64.26C597.76 62.57 602.18 61.72 606.95 61.72C609.3 61.72 611.61 61.97 613.88 62.46C616.14 62.95 618.27 63.64 620.26 64.53C622.25 65.42 624.06 66.49 625.69 67.73C627.32 68.98 628.68 70.38 629.76 71.95L624.33 75.93C623.67 74.9 622.78 73.88 621.66 72.85C620.54 71.82 619.23 70.92 617.72 70.13C616.21 69.35 614.57 68.71 612.79 68.23C611.01 67.75 609.09 67.51 607.04 67.51C602.88 67.51 599.15 68.26 595.86 69.77C592.57 71.27 589.78 73.3 587.49 75.86C585.2 78.42 583.45 81.38 582.24 84.75C581.03 88.12 580.43 91.67 580.43 95.4C580.43 99.13 581.05 102.68 582.29 106.05C583.52 109.42 585.29 112.38 587.58 114.94C589.87 117.5 592.66 119.53 595.95 121.03C599.24 122.54 602.93 123.29 607.04 123.29C610.72 123.29 614.22 122.54 617.54 121.03C620.86 119.52 623.64 117.11 625.87 113.79L630.95 117.06Z" fill="white"></path><path d="M661.63 127.47H655.11V63.38H673.94C677.08 63.38 679.99 63.68 682.68 64.28C685.36 64.88 687.69 65.86 689.65 67.22C691.61 68.58 693.14 70.34 694.22 72.52C695.31 74.69 695.85 77.35 695.85 80.49C695.85 82.84 695.43 84.99 694.58 86.92C693.73 88.85 692.59 90.53 691.14 91.94C689.69 93.36 687.97 94.49 685.98 95.33C683.99 96.18 681.82 96.72 679.46 96.96L698.2 127.47H690.23L672.49 97.5H661.63V127.47ZM661.63 91.89H672.95C678.2 91.89 682.24 90.94 685.08 89.04C687.92 87.14 689.34 84.29 689.34 80.49C689.34 78.38 688.95 76.6 688.16 75.15C687.37 73.7 686.29 72.53 684.9 71.62C683.51 70.72 681.82 70.05 679.83 69.63C677.84 69.21 675.63 69 673.22 69H661.63V91.89Z" fill="white"></path><path d="M728.8 121.67H763.1V127.47H722.28V63.38H762.02V69.17H728.8V91.17H759.84V96.96H728.8V121.67Z" fill="white"></path><path d="M788.81 63.38H810.08C814.06 63.38 818.06 64.04 822.07 65.37C826.08 66.7 829.7 68.7 832.93 71.39C836.16 74.07 838.77 77.43 840.76 81.44C842.75 85.45 843.75 90.12 843.75 95.42C843.75 100.79 842.76 105.47 840.76 109.45C838.77 113.43 836.16 116.77 832.93 119.45C829.7 122.14 826.08 124.14 822.07 125.47C818.06 126.8 814.06 127.46 810.08 127.46H788.81V63.38ZM795.33 121.67H808.27C813.1 121.67 817.31 120.92 820.9 119.41C824.49 117.9 827.46 115.93 829.82 113.48C832.17 111.04 833.94 108.24 835.12 105.11C836.3 101.97 836.89 98.74 836.89 95.42C836.89 92.1 836.3 88.87 835.12 85.74C833.94 82.6 832.18 79.81 829.82 77.37C827.47 74.93 824.49 72.95 820.9 71.44C817.31 69.93 813.1 69.18 808.27 69.18H795.33V121.67Z" fill="white"></path><path d="M876.8 63.38H870.28V127.47H876.8V63.38Z" fill="white"></path><path d="M927.3 127.47H920.79V69.17H899.33V63.38H948.76V69.17H927.3V127.47Z" fill="white"></path><path d="M82.7699 5.89999L161.16 51.16V141.68L82.7699 186.94L4.37988 141.68V51.16L82.7699 5.89999Z" stroke="white" stroke-width="8.76"></path><path d="M4.37988 141.67L82.7699 10.63L161.16 141.66L4.37988 51.15V141.67ZM161.16 141.68L4.37988 51.16L82.7699 186.94L161.16 51.16L4.37988 141.68L82.7699 10.65L161.16 141.68Z" stroke="white" stroke-width="8.76" stroke-linejoin="round"></path></svg> 