<?xml version="1.0" encoding="UTF-8"?> <svg xmlns="http://www.w3.org/2000/svg" id="a" data-name="Layer 1" width="793.36" height="63.27" viewBox="0 0 793.36 63.27"><defs><style> .b { fill: none; } .b, .c { stroke-width: 0px; } .c { fill: #0c2233; } </style></defs><path class="b" d="m8.37,41.92c-2.46,0-4.4-.46-5.8-1.37-1.4-.93-2.26-2.32-2.58-4.17l4.37-.7c.19.84.6,1.49,1.23,1.96.65.45,1.61.67,2.86.67.78,0,1.45-.08,1.99-.25.54-.17.94-.4,1.2-.7.28-.32.42-.69.42-1.12,0-.54-.18-.95-.53-1.23-.34-.28-.98-.51-1.93-.7l-3.33-.59c-1.87-.34-3.28-.92-4.23-1.76-.93-.86-1.4-2.12-1.4-3.78,0-1.21.31-2.26.92-3.14.63-.88,1.53-1.55,2.69-2.02,1.16-.47,2.52-.7,4.09-.7,2.43,0,4.28.48,5.57,1.43,1.31.93,2.12,2.28,2.44,4.03l-4.34.7c-.13-.75-.49-1.35-1.06-1.82-.58-.49-1.46-.73-2.63-.73-.69,0-1.3.08-1.82.25-.5.17-.89.41-1.15.73-.26.32-.39.68-.39,1.09,0,.54.2.96.59,1.26.41.28,1.12.5,2.13.67l3.81.7c1.62.3,2.85.9,3.67,1.79.84.88,1.26,2.08,1.26,3.61,0,1.23-.32,2.29-.95,3.16-.62.88-1.53,1.55-2.74,2.02-1.21.47-2.66.7-4.34.7Z"></path><path class="c" d="m8.37,41.92c-2.46,0-4.4-.46-5.8-1.37-1.4-.93-2.26-2.32-2.58-4.17l4.37-.7c.19.84.6,1.49,1.23,1.96.65.45,1.61.67,2.86.67.78,0,1.45-.08,1.99-.25.54-.17.94-.4,1.2-.7.28-.32.42-.69.42-1.12,0-.54-.18-.95-.53-1.23-.34-.28-.98-.51-1.93-.7l-3.33-.59c-1.87-.34-3.28-.92-4.23-1.76-.93-.86-1.4-2.12-1.4-3.78,0-1.21.31-2.26.92-3.14.63-.88,1.53-1.55,2.69-2.02,1.16-.47,2.52-.7,4.09-.7,2.43,0,4.28.48,5.57,1.43,1.31.93,2.12,2.28,2.44,4.03l-4.34.7c-.13-.75-.49-1.35-1.06-1.82-.58-.49-1.46-.73-2.63-.73-.69,0-1.3.08-1.82.25-.5.17-.89.41-1.15.73-.26.32-.39.68-.39,1.09,0,.54.2.96.59,1.26.41.28,1.12.5,2.13.67l3.81.7c1.62.3,2.85.9,3.67,1.79.84.88,1.26,2.08,1.26,3.61,0,1.23-.32,2.29-.95,3.16-.62.88-1.53,1.55-2.74,2.02-1.21.47-2.66.7-4.34.7Z"></path><path class="b" d="m25.14,41.92c-2.02,0-3.62-.62-4.82-1.85-1.19-1.25-1.79-3.01-1.79-5.29,0-1.51.29-2.8.87-3.86.58-1.08,1.38-1.89,2.41-2.44,1.03-.56,2.2-.84,3.53-.84,1.92,0,3.45.6,4.59,1.79,1.16,1.18,1.74,2.83,1.74,4.96,0,.63-.02,1.07-.06,1.32h-9.83l.53-.64v.14c0,1.18.26,2.07.78,2.69.54.62,1.26.92,2.16.92.69,0,1.25-.15,1.68-.45.43-.32.74-.74.92-1.26l3.47.64c-.35,1.21-1.05,2.21-2.07,3-1.01.78-2.38,1.18-4.12,1.18Zm2.86-7.7c.02-.13.03-.31.03-.53,0-.88-.23-1.59-.7-2.13-.47-.56-1.13-.84-1.99-.84s-1.62.31-2.18.92c-.54.62-.82,1.47-.84,2.58l-.53-1.01h6.8l-.59,1.01Z"></path><path class="c" d="m25.14,41.92c-2.02,0-3.62-.62-4.82-1.85-1.19-1.25-1.79-3.01-1.79-5.29,0-1.51.29-2.8.87-3.86.58-1.08,1.38-1.89,2.41-2.44,1.03-.56,2.2-.84,3.53-.84,1.92,0,3.45.6,4.59,1.79,1.16,1.18,1.74,2.83,1.74,4.96,0,.63-.02,1.07-.06,1.32h-9.83l.53-.64v.14c0,1.18.26,2.07.78,2.69.54.62,1.26.92,2.16.92.69,0,1.25-.15,1.68-.45.43-.32.74-.74.92-1.26l3.47.64c-.35,1.21-1.05,2.21-2.07,3-1.01.78-2.38,1.18-4.12,1.18Zm2.86-7.7c.02-.13.03-.31.03-.53,0-.88-.23-1.59-.7-2.13-.47-.56-1.13-.84-1.99-.84s-1.62.31-2.18.92c-.54.62-.82,1.47-.84,2.58l-.53-1.01h6.8l-.59,1.01Z"></path><path class="b" d="m40.04,41.92c-2.02,0-3.62-.62-4.82-1.85-1.19-1.25-1.79-3.01-1.79-5.29,0-1.51.29-2.8.87-3.86.58-1.08,1.38-1.89,2.41-2.44,1.03-.56,2.2-.84,3.53-.84,1.92,0,3.45.6,4.59,1.79,1.16,1.18,1.74,2.83,1.74,4.96,0,.63-.02,1.07-.06,1.32h-9.83l.53-.64v.14c0,1.18.26,2.07.78,2.69.54.62,1.26.92,2.16.92.69,0,1.25-.15,1.68-.45.43-.32.74-.74.92-1.26l3.47.64c-.35,1.21-1.05,2.21-2.07,3-1.01.78-2.38,1.18-4.12,1.18Zm2.86-7.7c.02-.13.03-.31.03-.53,0-.88-.23-1.59-.7-2.13-.47-.56-1.13-.84-1.99-.84s-1.62.31-2.18.92c-.54.62-.82,1.47-.84,2.58l-.53-1.01h6.8l-.59,1.01Z"></path><path class="c" d="m40.04,41.92c-2.02,0-3.62-.62-4.82-1.85-1.19-1.25-1.79-3.01-1.79-5.29,0-1.51.29-2.8.87-3.86.58-1.08,1.38-1.89,2.41-2.44,1.03-.56,2.2-.84,3.53-.84,1.92,0,3.45.6,4.59,1.79,1.16,1.18,1.74,2.83,1.74,4.96,0,.63-.02,1.07-.06,1.32h-9.83l.53-.64v.14c0,1.18.26,2.07.78,2.69.54.62,1.26.92,2.16.92.69,0,1.25-.15,1.68-.45.43-.32.74-.74.92-1.26l3.47.64c-.35,1.21-1.05,2.21-2.07,3-1.01.78-2.38,1.18-4.12,1.18Zm2.86-7.7c.02-.13.03-.31.03-.53,0-.88-.23-1.59-.7-2.13-.47-.56-1.13-.84-1.99-.84s-1.62.31-2.18.92c-.54.62-.82,1.47-.84,2.58l-.53-1.01h6.8l-.59,1.01Z"></path><path class="b" d="m49.09,27.92h3.92v2.49h-.48c.45-.84,1.07-1.51,1.88-2.02.8-.5,1.78-.76,2.94-.76.95,0,1.79.19,2.52.56.73.37,1.3.92,1.71,1.65.41.73.62,1.6.62,2.6v9.18h-4v-8.29c0-.77-.21-1.33-.64-1.71-.43-.39-1.04-.59-1.82-.59-.73,0-1.35.21-1.88.62-.5.39-.76.93-.76,1.62v8.34h-4v-13.72Z"></path><path class="c" d="m49.09,27.92h3.92v2.49h-.48c.45-.84,1.07-1.51,1.88-2.02.8-.5,1.78-.76,2.94-.76.95,0,1.79.19,2.52.56.73.37,1.3.92,1.71,1.65.41.73.62,1.6.62,2.6v9.18h-4v-8.29c0-.77-.21-1.33-.64-1.71-.43-.39-1.04-.59-1.82-.59-.73,0-1.35.21-1.88.62-.5.39-.76.93-.76,1.62v8.34h-4v-13.72Z"></path><path class="b" d="m71.1,27.92h4v13.72h-4v-13.72Zm-.06-5.21h4.12v3.33h-4.12v-3.33Z"></path><path class="c" d="m71.1,27.92h4v13.72h-4v-13.72Zm-.06-5.21h4.12v3.33h-4.12v-3.33Z"></path><path class="b" d="m78.45,27.92h3.92v2.49h-.48c.45-.84,1.07-1.51,1.88-2.02.8-.5,1.78-.76,2.94-.76.95,0,1.79.19,2.52.56.73.37,1.3.92,1.71,1.65.41.73.62,1.6.62,2.6v9.18h-4v-8.29c0-.77-.21-1.33-.64-1.71-.43-.39-1.04-.59-1.82-.59-.73,0-1.35.21-1.88.62-.5.39-.76.93-.76,1.62v8.34h-4v-13.72Z"></path><path class="c" d="m78.45,27.92h3.92v2.49h-.48c.45-.84,1.07-1.51,1.88-2.02.8-.5,1.78-.76,2.94-.76.95,0,1.79.19,2.52.56.73.37,1.3.92,1.71,1.65.41.73.62,1.6.62,2.6v9.18h-4v-8.29c0-.77-.21-1.33-.64-1.71-.43-.39-1.04-.59-1.82-.59-.73,0-1.35.21-1.88.62-.5.39-.76.93-.76,1.62v8.34h-4v-13.72Z"></path><path class="b" d="m94.49,37.47h4v4.17h-4v-4.17Zm0-9.55h4v4.17h-4v-4.17Z"></path><path class="c" d="m94.49,37.47h4v4.17h-4v-4.17Zm0-9.55h4v4.17h-4v-4.17Z"></path><path class="b" d="m174.34,48.66v14.22h-5.22v-14.22h-5.26v-4.55h15.74v4.55h-5.26Zm17.44,8.59h-8.32c0,.31.05.62.17.9.12.29.3.54.52.76.23.21.49.38.78.48.29.1.6.14.91.12,1.29,0,2.55-.35,3.66-1l1.89,3.13c-1.71,1.05-3.68,1.61-5.69,1.62-4.27,0-6.58-3.02-6.58-7.34,0-4.86,2.74-7.37,6.44-7.37s6.29,2.56,6.29,7.79c-.06.34-.06.64-.07.88h0Zm-6.4-5.16c-1.11,0-1.71.75-1.88,2.16h4.02c-.24-1.42-.71-2.16-2.13-2.16h-.01Zm15.39,11.14c-4.12,0-6.6-2.63-6.6-7.4,0-4.27,2.19-7.31,6.71-7.31,1.11-.04,2.21.24,3.17.81.96.56,1.74,1.39,2.25,2.38l-3.33,2.56c-.67-1.22-1.14-1.82-2.18-1.82s-1.85,1.24-1.85,3.47.67,3.38,1.99,3.38c.91,0,1.56-.51,2.45-1.85l3.06,2.39c-1.65,2.42-3.17,3.37-5.69,3.37h.01Zm16.5-.28v-8.01c0-1.85-.61-2.32-1.61-2.32s-1.65.48-1.65,2.28v8.06h-4.83v-17.64l4.83-1.93v6.4c1-.82,2.26-1.26,3.56-1.24,3.09,0,4.55,2.08,4.55,5.77v8.63h-4.85Z"></path><path class="c" d="m174.34,48.66v14.22h-5.22v-14.22h-5.26v-4.55h15.74v4.55h-5.26Zm17.44,8.59h-8.32c0,.31.05.62.17.9.12.29.3.54.52.76.23.21.49.38.78.48.29.1.6.14.91.12,1.29,0,2.55-.35,3.66-1l1.89,3.13c-1.71,1.05-3.68,1.61-5.69,1.62-4.27,0-6.58-3.02-6.58-7.34,0-4.86,2.74-7.37,6.44-7.37s6.29,2.56,6.29,7.79c-.06.34-.06.64-.07.88h0Zm-6.4-5.16c-1.11,0-1.71.75-1.88,2.16h4.02c-.24-1.42-.71-2.16-2.13-2.16h-.01Zm15.39,11.14c-4.12,0-6.6-2.63-6.6-7.4,0-4.27,2.19-7.31,6.71-7.31,1.11-.04,2.21.24,3.17.81.96.56,1.74,1.39,2.25,2.38l-3.33,2.56c-.67-1.22-1.14-1.82-2.18-1.82s-1.85,1.24-1.85,3.47.67,3.38,1.99,3.38c.91,0,1.56-.51,2.45-1.85l3.06,2.39c-1.65,2.42-3.17,3.37-5.69,3.37h.01Zm16.5-.28v-8.01c0-1.85-.61-2.32-1.61-2.32s-1.65.48-1.65,2.28v8.06h-4.83v-17.64l4.83-1.93v6.4c1-.82,2.26-1.26,3.56-1.24,3.09,0,4.55,2.08,4.55,5.77v8.63h-4.85Z"></path><path class="b" d="m233.71,63.22c-5.59,0-8.53-4.12-8.53-9.7,0-6.04,3.56-9.7,8.53-9.7,4.62,0,6.44,1.99,7.74,5.55l-4.72,1.85c-.68-1.75-1.32-2.84-3.04-2.84-2.18,0-3.13,2.18-3.13,5.16s.91,5.15,3.17,5.15c1.64,0,2.33-.88,3.36-2.66l4.41,2.35c-.65,1.51-1.75,2.78-3.14,3.65-1.39.87-3.01,1.29-4.65,1.22h.01Zm19.71-9.1c-.27-.35-.61-.63-.99-.84-.39-.2-.82-.32-1.25-.34-1.18,0-1.9.57-1.9,2.28v7.68h-4.84v-14.08h4.84v1.02c.67-.7,1.55-1.16,2.52-1.29.96-.13,1.94.07,2.77.57l-1.14,5.01Zm11.52,8.79v-.94c-.99.82-2.24,1.26-3.53,1.24-3.09,0-4.55-2.08-4.55-5.79v-8.58h4.84v7.96c0,1.82.63,2.3,1.62,2.3s1.61-.48,1.61-2.25v-8.02h4.86v14.11l-4.85-.04Zm16.44,0v-8.01c0-1.85-.62-2.32-1.61-2.32s-1.65.48-1.65,2.28v8.06h-4.83v-14.08h4.83v.94c1-.82,2.26-1.26,3.56-1.24,3.09,0,4.55,2.08,4.55,5.77v8.63l-4.85-.04Zm14.29.28c-4.12,0-6.61-2.63-6.61-7.4,0-4.27,2.2-7.31,6.71-7.31,1.11-.03,2.21.25,3.18.81.96.56,1.74,1.39,2.26,2.38l-3.33,2.52c-.68-1.22-1.14-1.82-2.18-1.82s-1.85,1.24-1.85,3.47.67,3.38,1.99,3.38c.91,0,1.57-.51,2.45-1.85l3.06,2.39c-1.64,2.47-3.17,3.41-5.66,3.41h-.01Zm16.5-.28v-8.01c0-1.85-.61-2.32-1.61-2.32s-1.64.48-1.64,2.28v8.06h-4.84v-17.64l4.84-1.93v6.4c.99-.82,2.25-1.26,3.54-1.24,3.1,0,4.55,2.08,4.55,5.77v8.63h-4.85Z"></path><path class="c" d="m233.71,63.22c-5.59,0-8.53-4.12-8.53-9.7,0-6.04,3.56-9.7,8.53-9.7,4.62,0,6.44,1.99,7.74,5.55l-4.72,1.85c-.68-1.75-1.32-2.84-3.04-2.84-2.18,0-3.13,2.18-3.13,5.16s.91,5.15,3.17,5.15c1.64,0,2.33-.88,3.36-2.66l4.41,2.35c-.65,1.51-1.75,2.78-3.14,3.65-1.39.87-3.01,1.29-4.65,1.22h.01Zm19.71-9.1c-.27-.35-.61-.63-.99-.84-.39-.2-.82-.32-1.25-.34-1.18,0-1.9.57-1.9,2.28v7.68h-4.84v-14.08h4.84v1.02c.67-.7,1.55-1.16,2.52-1.29.96-.13,1.94.07,2.77.57l-1.14,5.01Zm11.52,8.79v-.94c-.99.82-2.24,1.26-3.53,1.24-3.09,0-4.55-2.08-4.55-5.79v-8.58h4.84v7.96c0,1.82.63,2.3,1.62,2.3s1.61-.48,1.61-2.25v-8.02h4.86v14.11l-4.85-.04Zm16.44,0v-8.01c0-1.85-.62-2.32-1.61-2.32s-1.65.48-1.65,2.28v8.06h-4.83v-14.08h4.83v.94c1-.82,2.26-1.26,3.56-1.24,3.09,0,4.55,2.08,4.55,5.77v8.63l-4.85-.04Zm14.29.28c-4.12,0-6.61-2.63-6.61-7.4,0-4.27,2.2-7.31,6.71-7.31,1.11-.03,2.21.25,3.18.81.96.56,1.74,1.39,2.26,2.38l-3.33,2.52c-.68-1.22-1.14-1.82-2.18-1.82s-1.85,1.24-1.85,3.47.67,3.38,1.99,3.38c.91,0,1.57-.51,2.45-1.85l3.06,2.39c-1.64,2.47-3.17,3.41-5.66,3.41h-.01Zm16.5-.28v-8.01c0-1.85-.61-2.32-1.61-2.32s-1.64.48-1.64,2.28v8.06h-4.84v-17.64l4.84-1.93v6.4c.99-.82,2.25-1.26,3.54-1.24,3.1,0,4.55,2.08,4.55,5.77v8.63h-4.85Z"></path><path class="b" d="m204.21,0v11.29h11.27v22.56h11.29V11.29h11.27V0h-33.83Zm45.12,22.56v-11.27h-11.29v22.56h33.84v-11.29h-22.56Zm0-22.56h22.56v11.29h-22.56V0Z"></path><path class="c" d="m204.21,0v11.29h11.27v22.56h11.29V11.29h11.27V0h-33.83Zm45.12,22.56v-11.27h-11.29v22.56h33.84v-11.29h-22.56Zm0-22.56h22.56v11.29h-22.56V0Z"></path><path class="b" d="m390.21,16.99h2.98c1.82-.27,3.67-.03,5.36.69,2.12,1.29,3.66,3.37,4.29,5.78q.45,1.27,1.52.82h.84v-10.04h-28.08v1.77h1.15c.5,0,1,.11,1.45.32.45.21.85.53,1.17.92,1.07,1.74,1.26,3.7,1.26,13.87,0,10.8-.24,13.44-1.26,14.79-.25.35-.58.63-.95.83-.38.2-.79.31-1.22.33-1.6.29-1.6.26-1.6.98-.09.24-.09.5,0,.74h17.72c.12-.23.18-.49.18-.75s-.06-.52-.18-.75c-.43-.12-.87-.21-1.31-.26-.48-.06-.95-.15-1.41-.29-.66-.49-1.19-1.14-1.52-1.9-.33-.76-.47-1.59-.39-2.41-.26-1.74-.39-4.94-.39-7.58v-2.09h1.05c1.3-.04,2.61.1,3.87.42.61.38,1.12.89,1.51,1.49.39.6.64,1.28.74,2l.24.82h1.6v-11.7h-1.46l-.24,1.14c-.1.73-.37,1.42-.78,2.03-.41.61-.96,1.1-1.6,1.46-.62.19-1.27.23-1.91.13h-3.01v-2.85c0-2.96.16-9.19.26-10.17l.13-.53Zm122.46,20.94c-1.24-2.01-3.17-3.49-5.42-4.15-1.73-.54-3.32-1.44-4.68-2.64-.31-.3-.54-.67-.67-1.08-.13-.41-.16-.85-.09-1.27,0-.83.33-1.63.92-2.22.4-.42.9-.72,1.45-.87.55-.15,1.14-.15,1.69,0,1.14.33,2.18.96,2.99,1.84.82.87,1.38,1.95,1.64,3.13.42,1.19.47,1.19,1.23.87l.47-.18v-6.58l-.34-.16c-2.58-.91-5.31-1.29-8.03-1.11-2.35.06-4.59,1-6.28,2.64-.77.73-1.37,1.61-1.76,2.6-.39.99-.57,2.05-.51,3.11.02,1.62.65,3.17,1.78,4.33,1.24,1.24,2.77,2.14,4.45,2.64,4.06,1.61,5.23,2.64,5.23,4.52.02.79-.23,1.56-.71,2.19-.48.63-1.15,1.08-1.91,1.27-.91.2-1.86.2-2.77,0-1.2-.47-2.26-1.22-3.12-2.19-.85-.97-1.46-2.13-1.78-3.38l-.34-.85h-.47c-.23.02-.45.07-.65.16h-.26v7.5h.45c1.77.59,3.59,1,5.44,1.22h2.62c1.13.08,2.28-.02,3.38-.32,1.4-.26,2.7-.88,3.78-1.81,1.08-.93,1.91-2.12,2.39-3.47.31-.75.47-1.56.47-2.38.1-1.15-.1-2.31-.58-3.35Zm-24.65-13.66c-1.57-.66-3.26-.99-4.96-.95-1.7.04-3.37.44-4.91,1.18-1.44.71-2.72,1.72-3.75,2.96-1.03,1.24-1.8,2.69-2.24,4.25-.57,1.7-.81,3.49-.71,5.28-.02.97.06,1.95.24,2.91.42,2.36,1.55,4.52,3.23,6.21,1.68,1.69,3.83,2.82,6.17,3.24,1.52.19,3.06.19,4.58,0,1.58-.28,3.09-.86,4.45-1.72,1.12-.64,2.08-1.54,2.77-2.64-.04-.17-.12-.33-.23-.47-.11-.14-.24-.26-.4-.34-.3.11-.58.26-.84.45-1.3.87-2.84,1.3-4.4,1.24-1.03.07-2.07-.09-3.04-.48-.96-.38-1.83-.98-2.54-1.74-.55-.51-1-1.12-1.33-1.8-.81-1.64-1.25-3.45-1.28-5.28v-1.03h14.5v-.53c.03-.53.03-1.06,0-1.58,0-1.87-.5-3.7-1.43-5.31-.93-1.61-2.27-2.94-3.88-3.86Zm-7.3,9.14h-1.83v-1.56c.6-3.99,2.09-6.37,3.93-6.37s2.62,2.35,2.96,6.66v1.22h-1.57l-3.48.05Zm-37.63-10.01c-.9-.04-1.8.16-2.62.55-1.77.87-3.2,2.31-4.06,4.09l-.34.63v-5.28h-.13c-.31,0-10,1.95-10.31,2.09-.31.13-.21.16-.21.63s0,.55.21.58l1.02.21c.29,0,.57.08.82.21s.48.32.65.55c.65.87.79,2.4.79,8.93.13,2.94,0,5.88-.37,8.8-.09.44-.31.84-.63,1.15-.32.31-.73.51-1.17.57l-.89.18h-.34v.74c-.1.25-.1.52,0,.77h14.63v-.77c.05-.25.05-.51,0-.77-.88-.03-1.76-.15-2.62-.34-.47-.25-.85-.63-1.1-1.1-.25-.47-.35-1.01-.29-1.54-.21-1.53-.31-6.02-.26-9.46.05-3.43,0-3.64.29-3.88.88-.68,1.96-1.02,3.06-.98,1.04.02,2.06.28,2.98.77.32.18.66.31,1.02.4,0,0,2.62-6.39,2.62-6.68-.34-.39-.76-.7-1.24-.88-.48-.18-1-.25-1.51-.18Zm-17.64,11.09c-.09-1.89-.63-3.73-1.57-5.36-.94-1.64-2.25-3.02-3.83-4.04-1.87-1.02-3.96-1.58-6.08-1.64-2.13-.06-4.24.39-6.16,1.3-2.72,1.45-4.78,3.91-5.73,6.87-.98,3.31-.98,6.83,0,10.14.52,1.81,1.48,3.45,2.8,4.78,1.65,1.62,3.77,2.66,6.05,2.96,1.46.12,2.93.12,4.4,0,.54-.08,1.07-.2,1.6-.34,2.13-.6,4.05-1.8,5.52-3.46s2.46-3.71,2.82-5.91c.26-1.75.32-3.52.18-5.28Zm-10.89,13.21c-2.62.79-4.58-1.77-5.23-7.16-.24-2.82-.24-5.66,0-8.48.52-4.33,1.86-6.52,3.92-6.52.42-.03.83.05,1.22.22.38.17.72.43.98.76,1.75,1.77,2.62,5.28,2.62,10.56.22,2.99-.25,5.99-1.36,8.77-.49.81-1.25,1.42-2.15,1.72v.13Zm47.1-23.77c-.74-.1-1.49-.1-2.22,0-1.42,0-2.82.31-4.11.9l-.81.34v-5.73c.14-1.93.14-3.88,0-5.81-.31,0-10.31,1.93-10.47,2.01-.08.19-.08.41,0,.61,0,.55,0,.53,1.18.79.33.07.65.2.94.37.51.48.85,1.12.97,1.82.3,2.01.39,4.05.29,6.07v23.19l.71.16c1.05.24,4,.74,4.97.85,1.93.16,3.88.16,5.81,0,2.15-.22,4.19-1.03,5.92-2.34,1.73-1.31,3.06-3.07,3.87-5.08.48-1.3.82-2.64.99-4.01.16-1.86.09-3.73-.18-5.57-.28-2.07-1.18-4-2.59-5.53-1.4-1.53-3.24-2.59-5.26-3.03Zm-6.86,23.32c0-.34-.26-11.91-.21-16.53v-3.62l.76-.18c.51-.07,1.03-.07,1.54,0,.57-.06,1.14.07,1.62.37.98.68,1.79,1.58,2.37,2.62.58,1.04.93,2.21,1,3.4.19,1.92.19,3.86,0,5.78-.16,2.8-1.22,5.46-3.04,7.58-.51.49-1.16.82-1.86.95-.53.09-1.07.09-1.6,0-.5,0-.5-.16-.5-.37h-.11Z"></path><path class="c" d="m390.21,16.99h2.98c1.82-.27,3.67-.03,5.36.69,2.12,1.29,3.66,3.37,4.29,5.78q.45,1.27,1.52.82h.84v-10.04h-28.08v1.77h1.15c.5,0,1,.11,1.45.32.45.21.85.53,1.17.92,1.07,1.74,1.26,3.7,1.26,13.87,0,10.8-.24,13.44-1.26,14.79-.25.35-.58.63-.95.83-.38.2-.79.31-1.22.33-1.6.29-1.6.26-1.6.98-.09.24-.09.5,0,.74h17.72c.12-.23.18-.49.18-.75s-.06-.52-.18-.75c-.43-.12-.87-.21-1.31-.26-.48-.06-.95-.15-1.41-.29-.66-.49-1.19-1.14-1.52-1.9-.33-.76-.47-1.59-.39-2.41-.26-1.74-.39-4.94-.39-7.58v-2.09h1.05c1.3-.04,2.61.1,3.87.42.61.38,1.12.89,1.51,1.49.39.6.64,1.28.74,2l.24.82h1.6v-11.7h-1.46l-.24,1.14c-.1.73-.37,1.42-.78,2.03-.41.61-.96,1.1-1.6,1.46-.62.19-1.27.23-1.91.13h-3.01v-2.85c0-2.96.16-9.19.26-10.17l.13-.53Zm122.46,20.94c-1.24-2.01-3.17-3.49-5.42-4.15-1.73-.54-3.32-1.44-4.68-2.64-.31-.3-.54-.67-.67-1.08-.13-.41-.16-.85-.09-1.27,0-.83.33-1.63.92-2.22.4-.42.9-.72,1.45-.87.55-.15,1.14-.15,1.69,0,1.14.33,2.18.96,2.99,1.84.82.87,1.38,1.95,1.64,3.13.42,1.19.47,1.19,1.23.87l.47-.18v-6.58l-.34-.16c-2.58-.91-5.31-1.29-8.03-1.11-2.35.06-4.59,1-6.28,2.64-.77.73-1.37,1.61-1.76,2.6-.39.99-.57,2.05-.51,3.11.02,1.62.65,3.17,1.78,4.33,1.24,1.24,2.77,2.14,4.45,2.64,4.06,1.61,5.23,2.64,5.23,4.52.02.79-.23,1.56-.71,2.19-.48.63-1.15,1.08-1.91,1.27-.91.2-1.86.2-2.77,0-1.2-.47-2.26-1.22-3.12-2.19-.85-.97-1.46-2.13-1.78-3.38l-.34-.85h-.47c-.23.02-.45.07-.65.16h-.26v7.5h.45c1.77.59,3.59,1,5.44,1.22h2.62c1.13.08,2.28-.02,3.38-.32,1.4-.26,2.7-.88,3.78-1.81,1.08-.93,1.91-2.12,2.39-3.47.31-.75.47-1.56.47-2.38.1-1.15-.1-2.31-.58-3.35Zm-24.65-13.66c-1.57-.66-3.26-.99-4.96-.95-1.7.04-3.37.44-4.91,1.18-1.44.71-2.72,1.72-3.75,2.96-1.03,1.24-1.8,2.69-2.24,4.25-.57,1.7-.81,3.49-.71,5.28-.02.97.06,1.95.24,2.91.42,2.36,1.55,4.52,3.23,6.21,1.68,1.69,3.83,2.82,6.17,3.24,1.52.19,3.06.19,4.58,0,1.58-.28,3.09-.86,4.45-1.72,1.12-.64,2.08-1.54,2.77-2.64-.04-.17-.12-.33-.23-.47-.11-.14-.24-.26-.4-.34-.3.11-.58.26-.84.45-1.3.87-2.84,1.3-4.4,1.24-1.03.07-2.07-.09-3.04-.48-.96-.38-1.83-.98-2.54-1.74-.55-.51-1-1.12-1.33-1.8-.81-1.64-1.25-3.45-1.28-5.28v-1.03h14.5v-.53c.03-.53.03-1.06,0-1.58,0-1.87-.5-3.7-1.43-5.31-.93-1.61-2.27-2.94-3.88-3.86Zm-7.3,9.14h-1.83v-1.56c.6-3.99,2.09-6.37,3.93-6.37s2.62,2.35,2.96,6.66v1.22h-1.57l-3.48.05Zm-37.63-10.01c-.9-.04-1.8.16-2.62.55-1.77.87-3.2,2.31-4.06,4.09l-.34.63v-5.28h-.13c-.31,0-10,1.95-10.31,2.09-.31.13-.21.16-.21.63s0,.55.21.58l1.02.21c.29,0,.57.08.82.21s.48.32.65.55c.65.87.79,2.4.79,8.93.13,2.94,0,5.88-.37,8.8-.09.44-.31.84-.63,1.15-.32.31-.73.51-1.17.57l-.89.18h-.34v.74c-.1.25-.1.52,0,.77h14.63v-.77c.05-.25.05-.51,0-.77-.88-.03-1.76-.15-2.62-.34-.47-.25-.85-.63-1.1-1.1-.25-.47-.35-1.01-.29-1.54-.21-1.53-.31-6.02-.26-9.46.05-3.43,0-3.64.29-3.88.88-.68,1.96-1.02,3.06-.98,1.04.02,2.06.28,2.98.77.32.18.66.31,1.02.4,0,0,2.62-6.39,2.62-6.68-.34-.39-.76-.7-1.24-.88-.48-.18-1-.25-1.51-.18Zm-17.64,11.09c-.09-1.89-.63-3.73-1.57-5.36-.94-1.64-2.25-3.02-3.83-4.04-1.87-1.02-3.96-1.58-6.08-1.64-2.13-.06-4.24.39-6.16,1.3-2.72,1.45-4.78,3.91-5.73,6.87-.98,3.31-.98,6.83,0,10.14.52,1.81,1.48,3.45,2.8,4.78,1.65,1.62,3.77,2.66,6.05,2.96,1.46.12,2.93.12,4.4,0,.54-.08,1.07-.2,1.6-.34,2.13-.6,4.05-1.8,5.52-3.46s2.46-3.71,2.82-5.91c.26-1.75.32-3.52.18-5.28Zm-10.89,13.21c-2.62.79-4.58-1.77-5.23-7.16-.24-2.82-.24-5.66,0-8.48.52-4.33,1.86-6.52,3.92-6.52.42-.03.83.05,1.22.22.38.17.72.43.98.76,1.75,1.77,2.62,5.28,2.62,10.56.22,2.99-.25,5.99-1.36,8.77-.49.81-1.25,1.42-2.15,1.72v.13Zm47.1-23.77c-.74-.1-1.49-.1-2.22,0-1.42,0-2.82.31-4.11.9l-.81.34v-5.73c.14-1.93.14-3.88,0-5.81-.31,0-10.31,1.93-10.47,2.01-.08.19-.08.41,0,.61,0,.55,0,.53,1.18.79.33.07.65.2.94.37.51.48.85,1.12.97,1.82.3,2.01.39,4.05.29,6.07v23.19l.71.16c1.05.24,4,.74,4.97.85,1.93.16,3.88.16,5.81,0,2.15-.22,4.19-1.03,5.92-2.34,1.73-1.31,3.06-3.07,3.87-5.08.48-1.3.82-2.64.99-4.01.16-1.86.09-3.73-.18-5.57-.28-2.07-1.18-4-2.59-5.53-1.4-1.53-3.24-2.59-5.26-3.03Zm-6.86,23.32c0-.34-.26-11.91-.21-16.53v-3.62l.76-.18c.51-.07,1.03-.07,1.54,0,.57-.06,1.14.07,1.62.37.98.68,1.79,1.58,2.37,2.62.58,1.04.93,2.21,1,3.4.19,1.92.19,3.86,0,5.78-.16,2.8-1.22,5.46-3.04,7.58-.51.49-1.16.82-1.86.95-.53.09-1.07.09-1.6,0-.5,0-.5-.16-.5-.37h-.11Z"></path><path class="b" d="m619.07,38.8c-.68.14-1.51.14-1.91.14-2.93,0-4.64-1.64-4.64-4.57,0-2.59,1.5-4.16,3.96-4.16,1.03,0,1.84.14,2.59.55v8.05h0Zm0-19.86v6.89c-.75-.34-1.91-.48-3.07-.48-5.6,0-9.08,3.82-9.08,9.28,0,5.93,3.96,9.15,10.1,9.15,2.52,0,5.46-.34,7.64-.89v-23.89h-5.6v-.07Zm-18.77,20.61c-.55.07-1.3.14-1.78.14-1.43,0-2.25-.55-2.25-1.77,0-1.16.89-1.77,2.59-1.77h1.43v3.41Zm-1.98-14.19c-2.32,0-4.44.55-6.07,1.44v4.71c1.36-.82,2.93-1.44,5.05-1.44,1.64,0,2.93.55,2.93,2.11v.68h-1.84c-4.78,0-7.64,1.64-7.64,5.39,0,4.23,3.48,5.46,7.85,5.46,2.52,0,5.46-.41,7.16-.75v-11.12c0-4.92-3.21-6.48-7.44-6.48"></path><g><path class="c" d="m617.57,11.71c7.92,4.78,13.3,12.69,13.3,22.04,0-9.28-5.39-17.26-13.3-22.04,0,0,0,0,0,0-4.92-2.93-10.78-4.64-16.92-4.64-16.03,0-25.58,9.82-25.58,23.75,0,12.22,12.49,25.04,27.91,25.04,2.25,0,4.57-.21,6.82-.62-5.56-1.16-10.69-3.26-14.86-6,4.17,2.74,9.3,4.84,14.86,6,3.07.62,6.28.96,9.48.96,9.01,0,21.22-4.98,21.22-19.52,0-12.42-8.4-23.82-22.93-24.97Zm-33.16,21.63h0c-.07-14.06,12.83-21.7,30.78-21.7,0,0,0,0,0,0-17.95,0-30.84,7.64-30.77,21.7Zm21.35,9.62c-1.71.34-4.64.75-7.16.75-4.37,0-7.85-1.23-7.85-5.46,0-3.76,2.86-5.39,7.64-5.39h1.84v-.68c0-1.57-1.3-2.11-2.93-2.11-2.11,0-3.68.62-5.05,1.44v-4.71c1.64-.89,3.75-1.43,6.07-1.44,0,0,0,0,0,0h0s0,0,0,0c4.23,0,7.44,1.57,7.44,6.48v11.12Zm18.91-.06c-2.18.55-5.12.89-7.64.89-6.14,0-10.1-3.21-10.1-9.15,0-5.46,3.48-9.28,9.08-9.28,1.16,0,2.32.14,3.07.48v-6.82h5.6v23.89Z"></path><path class="c" d="m612.52,34.37c0,2.93,1.71,4.57,4.64,4.57.41,0,1.23,0,1.91-.14v-8.04c-.75-.41-1.57-.55-2.59-.55-2.45,0-3.96,1.57-3.96,4.16Z"></path><path class="c" d="m596.27,37.91c0,1.23.82,1.77,2.25,1.77.48,0,1.23-.07,1.78-.14v-3.41h-1.43c-1.71,0-2.59.62-2.59,1.77Z"></path></g><path class="b" d="m789.33,25.36c-2.38,0-4.92.48-6.82,1.37-.27.14-.41.41-.41.68v15.36c0,.41.34.75.75.75h4.16c.41,0,.75-.34.75-.75v-11.26c0-.34.27-.68.62-.75.48-.07.89-.14,1.3-.14.96,0,1.91.14,2.8.34.48.14.89-.21.89-.68v-3.82c0-.34-.21-.62-.55-.68-1.16-.34-2.11-.41-3.48-.41m-18.9,7.78c-.55,0-.89-.55-.68-1.03.48-1.37,1.5-2.32,2.93-2.32,1.71,0,2.46,1.09,2.73,2.45.07.48-.27.82-.75.82h-4.23v.07h0Zm2.39-7.92c-5.12,0-8.74,3.55-8.74,9.62,0,5.46,3.55,8.94,9.62,8.94,2.25,0,4.57-.34,6.14-1.37.21-.14.34-.41.34-.62v-3c0-.55-.55-.89-1.03-.68-1.43.55-3,.89-4.85.89-2.05,0-4.3-.75-4.85-2.66v-.07h10.44c.41,0,.75-.34.75-.75v-1.71c.07-4.64-1.91-8.6-7.85-8.6m-15.56,12.22c0,.34-.21.62-.55.68-.55.14-1.09.27-1.91.27-2.32,0-3.96-1.64-3.96-4.16,0-2.86,1.71-4.16,4.3-4.16.55,0,1.09,0,1.51.14.34.07.62.41.62.75v6.48Zm-12.08-3.14c0,5.73,3.62,8.87,8.88,8.87,1.36,0,2.59-.21,3.21-.55v.41c0,2.11-1.51,3.21-3.55,3.21s-3.41-.27-5.19-1.23c-.48-.27-1.09.07-1.09.62v3.48c0,.27.14.55.41.68,1.91.82,3.82,1.16,5.87,1.16,3.96,0,9.21-1.64,9.21-7.99v-15.77c0-.34-.21-.55-.48-.68-2.05-.75-4.37-1.16-7.16-1.16-6.34-.14-10.1,3.27-10.1,8.94m-9.08-9.08c-2.59,0-5.87.55-8.4,1.5-.27.07-.48.41-.48.68v15.29c0,.41.34.75.75.75h4.16c.41,0,.75-.34.75-.75v-11.47c0-.34.21-.62.55-.68.75-.21,1.57-.27,2.32-.27,1.91,0,2.59,1.09,2.59,2.59v9.89c0,.41.34.75.75.75h4.16c.41,0,.75-.34.75-.75v-10.17c-.14-5.66-3.21-7.37-7.92-7.37m-16.11,14.4c-.55.07-1.37.07-1.77.07-1.37,0-2.32-.62-2.32-1.77s.89-1.77,2.59-1.77h.75c.41,0,.75.34.75.75v2.73h0Zm-2.04-14.4c-2.18,0-4.16.48-5.8,1.3-.27.14-.41.41-.41.68v3.07c0,.55.55.89,1.09.68,1.09-.55,2.45-.89,4.03-.89s3,.55,3,2.11c0,.41-.34.75-.75.75h-1.16c-4.92,0-7.78,1.71-7.78,5.46,0,4.3,3.55,5.53,7.99,5.53,2.25,0,4.91-.34,6.62-.62.34-.07.62-.34.62-.75v-10.58c.14-5.19-3-6.75-7.44-6.75m-15.56,0c-1.3,0-2.32.21-3.14.41-.48.14-.96-.21-.96-.68v-6.28c0-.41-.34-.75-.75-.75h-4.16c-.41,0-.75.34-.75.75v24.02c0,.41.34.75.75.75h4.16c.41,0,.75-.34.75-.75v-11.47c0-.34.21-.62.55-.68.75-.21,1.57-.27,2.32-.27,1.91,0,2.59,1.09,2.59,2.59v9.89c0,.41.34.75.75.75h4.16c.41,0,.75-.34.75-.75v-10.17c-.07-5.53-3.27-7.37-7.03-7.37m-20.27,9.28c0-2.73,1.71-4.37,4.51-4.37,1.23,0,2.25.21,3.41.89.48.27,1.09-.07,1.09-.62v-3.41c0-.27-.14-.55-.41-.62-1.37-.75-2.73-1.09-4.64-1.09-5.66,0-9.48,3.82-9.48,9.35s3.55,9.28,9.48,9.28c1.64,0,3.27-.27,4.71-1.09.21-.14.41-.41.41-.62v-3.27c0-.55-.62-.96-1.09-.62-.96.55-1.98.82-3.14.82h-.07c-3.14-.27-4.78-2.11-4.78-4.64Zm-10.85-8.87c-.27,0-.48.14-.62.34l-2.05,3.21c-.27.48-.96.48-1.23,0l-1.91-3.14c-.14-.21-.41-.34-.62-.34h-4.91c-.62,0-.96.68-.62,1.16l5.05,7.03c.21.27.21.62,0,.89l-5.46,7.58c-.34.48,0,1.16.62,1.16h4.44c.27,0,.48-.14.62-.34l2.52-3.75c.27-.41.96-.41,1.23,0l2.59,3.75c.14.21.34.34.62.34h4.71c.62,0,.96-.68.62-1.16l-5.46-7.58c-.21-.27-.21-.62,0-.89l5.12-7.03c.27-.55-.07-1.23-.68-1.23h-4.58Zm-23.55,7.51c-.55,0-.89-.55-.68-1.03.48-1.37,1.5-2.32,2.93-2.32,1.71,0,2.46,1.09,2.73,2.45.07.48-.27.82-.75.82h-4.23v.07h0Zm2.52-7.92c-4.98,0-8.74,3.55-8.74,9.62,0,5.46,3.55,8.94,9.62,8.94,2.25,0,4.57-.34,6.14-1.37.21-.14.34-.41.34-.62v-3c0-.55-.55-.89-1.03-.68-1.43.55-3,.89-4.85.89-2.04,0-4.3-.75-4.85-2.66v-.07h10.44c.41,0,.75-.34.75-.75v-1.71c-.07-4.64-1.98-8.6-7.85-8.6"></path><path class="c" d="m789.33,25.36c-2.38,0-4.92.48-6.82,1.37-.27.14-.41.41-.41.68v15.36c0,.41.34.75.75.75h4.16c.41,0,.75-.34.75-.75v-11.26c0-.34.27-.68.62-.75.48-.07.89-.14,1.3-.14.96,0,1.91.14,2.8.34.48.14.89-.21.89-.68v-3.82c0-.34-.21-.62-.55-.68-1.16-.34-2.11-.41-3.48-.41m-18.9,7.78c-.55,0-.89-.55-.68-1.03.48-1.37,1.5-2.32,2.93-2.32,1.71,0,2.46,1.09,2.73,2.45.07.48-.27.82-.75.82h-4.23v.07h0Zm2.39-7.92c-5.12,0-8.74,3.55-8.74,9.62,0,5.46,3.55,8.94,9.62,8.94,2.25,0,4.57-.34,6.14-1.37.21-.14.34-.41.34-.62v-3c0-.55-.55-.89-1.03-.68-1.43.55-3,.89-4.85.89-2.05,0-4.3-.75-4.85-2.66v-.07h10.44c.41,0,.75-.34.75-.75v-1.71c.07-4.64-1.91-8.6-7.85-8.6m-15.56,12.22c0,.34-.21.62-.55.68-.55.14-1.09.27-1.91.27-2.32,0-3.96-1.64-3.96-4.16,0-2.86,1.71-4.16,4.3-4.16.55,0,1.09,0,1.51.14.34.07.62.41.62.75v6.48Zm-12.08-3.14c0,5.73,3.62,8.87,8.88,8.87,1.36,0,2.59-.21,3.21-.55v.41c0,2.11-1.51,3.21-3.55,3.21s-3.41-.27-5.19-1.23c-.48-.27-1.09.07-1.09.62v3.48c0,.27.14.55.41.68,1.91.82,3.82,1.16,5.87,1.16,3.96,0,9.21-1.64,9.21-7.99v-15.77c0-.34-.21-.55-.48-.68-2.05-.75-4.37-1.16-7.16-1.16-6.34-.14-10.1,3.27-10.1,8.94m-9.08-9.08c-2.59,0-5.87.55-8.4,1.5-.27.07-.48.41-.48.68v15.29c0,.41.34.75.75.75h4.16c.41,0,.75-.34.75-.75v-11.47c0-.34.21-.62.55-.68.75-.21,1.57-.27,2.32-.27,1.91,0,2.59,1.09,2.59,2.59v9.89c0,.41.34.75.75.75h4.16c.41,0,.75-.34.75-.75v-10.17c-.14-5.66-3.21-7.37-7.92-7.37m-16.11,14.4c-.55.07-1.37.07-1.77.07-1.37,0-2.32-.62-2.32-1.77s.89-1.77,2.59-1.77h.75c.41,0,.75.34.75.75v2.73h0Zm-2.04-14.4c-2.18,0-4.16.48-5.8,1.3-.27.14-.41.41-.41.68v3.07c0,.55.55.89,1.09.68,1.09-.55,2.45-.89,4.03-.89s3,.55,3,2.11c0,.41-.34.75-.75.75h-1.16c-4.92,0-7.78,1.71-7.78,5.46,0,4.3,3.55,5.53,7.99,5.53,2.25,0,4.91-.34,6.62-.62.34-.07.62-.34.62-.75v-10.58c.14-5.19-3-6.75-7.44-6.75m-15.56,0c-1.3,0-2.32.21-3.14.41-.48.14-.96-.21-.96-.68v-6.28c0-.41-.34-.75-.75-.75h-4.16c-.41,0-.75.34-.75.75v24.02c0,.41.34.75.75.75h4.16c.41,0,.75-.34.75-.75v-11.47c0-.34.21-.62.55-.68.75-.21,1.57-.27,2.32-.27,1.91,0,2.59,1.09,2.59,2.59v9.89c0,.41.34.75.75.75h4.16c.41,0,.75-.34.75-.75v-10.17c-.07-5.53-3.27-7.37-7.03-7.37m-20.27,9.28c0-2.73,1.71-4.37,4.51-4.37,1.23,0,2.25.21,3.41.89.48.27,1.09-.07,1.09-.62v-3.41c0-.27-.14-.55-.41-.62-1.37-.75-2.73-1.09-4.64-1.09-5.66,0-9.48,3.82-9.48,9.35s3.55,9.28,9.48,9.28c1.64,0,3.27-.27,4.71-1.09.21-.14.41-.41.41-.62v-3.27c0-.55-.62-.96-1.09-.62-.96.55-1.98.82-3.14.82h-.07c-3.14-.27-4.78-2.11-4.78-4.64Zm-10.85-8.87c-.27,0-.48.14-.62.34l-2.05,3.21c-.27.48-.96.48-1.23,0l-1.91-3.14c-.14-.21-.41-.34-.62-.34h-4.91c-.62,0-.96.68-.62,1.16l5.05,7.03c.21.27.21.62,0,.89l-5.46,7.58c-.34.48,0,1.16.62,1.16h4.44c.27,0,.48-.14.62-.34l2.52-3.75c.27-.41.96-.41,1.23,0l2.59,3.75c.14.21.34.34.62.34h4.71c.62,0,.96-.68.62-1.16l-5.46-7.58c-.21-.27-.21-.62,0-.89l5.12-7.03c.27-.55-.07-1.23-.68-1.23h-4.58Zm-23.55,7.51c-.55,0-.89-.55-.68-1.03.48-1.37,1.5-2.32,2.93-2.32,1.71,0,2.46,1.09,2.73,2.45.07.48-.27.82-.75.82h-4.23v.07h0Zm2.52-7.92c-4.98,0-8.74,3.55-8.74,9.62,0,5.46,3.55,8.94,9.62,8.94,2.25,0,4.57-.34,6.14-1.37.21-.14.34-.41.34-.62v-3c0-.55-.55-.89-1.03-.68-1.43.55-3,.89-4.85.89-2.04,0-4.3-.75-4.85-2.66v-.07h10.44c.41,0,.75-.34.75-.75v-1.71c-.07-4.64-1.98-8.6-7.85-8.6"></path></svg> 