<?xml version="1.0" encoding="UTF-8"?> <svg xmlns="http://www.w3.org/2000/svg" width="64" height="64" viewBox="0 0 64 64" fill="none"><path d="M7.33203 21.0663V15.5463C7.33203 10.9863 11.012 7.33301 15.5454 7.33301H21.3054" stroke="#0C2233" stroke-width="3" stroke-linecap="round" stroke-linejoin="round"></path><path d="M56.2663 21.0663V15.5463C56.2663 10.9863 52.5863 7.33301 48.0529 7.33301H42.293" stroke="#0C2233" stroke-width="3" stroke-linecap="round" stroke-linejoin="round"></path><path d="M7.33203 42.7197V48.2397C7.33203 52.7997 11.012 56.4531 15.5454 56.4531H21.3054" stroke="#0C2233" stroke-width="3" stroke-linecap="round" stroke-linejoin="round"></path><path d="M56.2663 42.7197V48.2397C56.2663 52.7997 52.5863 56.4531 48.0529 56.4531H42.293" stroke="#0C2233" stroke-width="3" stroke-linecap="round" stroke-linejoin="round"></path><path d="M31.4617 28.5327C35.0994 28.5327 38.0483 25.5838 38.0483 21.946C38.0483 18.3083 35.0994 15.3594 31.4617 15.3594C27.824 15.3594 24.875 18.3083 24.875 21.946C24.875 25.5838 27.824 28.5327 31.4617 28.5327Z" stroke="#0C2233" stroke-width="3" stroke-linecap="round" stroke-linejoin="round"></path><path d="M18.1836 46.7461V42.9861C18.1836 38.6128 21.7302 35.0928 26.0769 35.0928H37.8903C42.2636 35.0928 45.7836 38.6394 45.7836 42.9861V46.7461" stroke="#0C2233" stroke-width="3" stroke-linecap="round" stroke-linejoin="round"></path></svg> 