<?xml version="1.0" encoding="UTF-8"?> <svg xmlns="http://www.w3.org/2000/svg" width="64" height="64" viewBox="0 0 64 64" fill="none"><path d="M49.8931 56.6667H22.6132C18.8799 56.6667 15.8398 53.6267 15.8398 49.8933V22.6134C15.8398 18.88 18.8799 15.84 22.6132 15.84H49.8931C53.6265 15.84 56.6665 18.88 56.6665 22.6134V49.8933C56.6665 53.6267 53.6265 56.6667 49.8931 56.6667Z" stroke="#0C2233" stroke-width="3" stroke-linecap="round" stroke-linejoin="round"></path><path d="M9.30729 46.1867C8.08062 44.96 7.33398 43.2533 7.33398 41.3866V14.1067C7.33398 10.3733 10.374 7.33331 14.1073 7.33331H41.3873C43.494 7.33331 45.3873 8.29329 46.6406 9.81329" stroke="#0C2233" stroke-width="3" stroke-linecap="round" stroke-linejoin="round"></path><path d="M15.8398 48.2667L23.6532 40.4534C24.9865 39.12 27.1465 39.12 28.4532 40.4534L30.4532 42.4534C31.7865 43.7867 33.9465 43.7867 35.2532 42.4534L44.0531 33.6533C45.3865 32.32 47.5465 32.32 48.8532 33.6533L56.6665 41.4666" stroke="#0C2233" stroke-width="3" stroke-linecap="round" stroke-linejoin="round"></path><path d="M27.7594 22.4534C25.7061 22.4534 24.0527 24.1067 24.0527 26.1601C24.0527 28.2134 25.7061 29.8668 27.7594 29.8668C29.8128 29.8668 31.4661 28.2134 31.4661 26.1601C31.4661 24.1067 29.7861 22.4534 27.7594 22.4534Z" fill="#0C2233"></path></svg> 