<?xml version="1.0" encoding="UTF-8"?> <svg xmlns="http://www.w3.org/2000/svg" width="64" height="64" viewBox="0 0 64 64" fill="none"><path d="M32.6446 8C30.3639 8.00093 28.1059 8.45322 26.0008 9.33081C23.8957 10.2084 21.985 11.4939 20.3789 13.1133C17.1161 16.3881 15.2784 20.8189 15.2656 25.4417C15.2656 37.3309 30.9506 54.8668 31.4839 55.5883C31.6407 55.7412 31.8206 55.8682 32.0172 55.9647C32.2345 56.0095 32.4587 56.0095 32.676 55.9647C32.8825 56.0118 33.0969 56.0118 33.3033 55.9647C33.5092 55.8848 33.6924 55.7555 33.8367 55.5883C34.4954 54.8668 50.0236 37.3309 50.0236 25.4417C50.0225 20.8227 48.1959 16.3913 44.9417 13.1133C43.3298 11.493 41.4137 10.2071 39.3033 9.3296C37.193 8.45209 34.9301 8.00024 32.6446 8V8Z" stroke="#0A91AB" stroke-width="3" stroke-linecap="round" stroke-linejoin="round"></path><path d="M33.5535 31.5279C35.1569 31.2403 36.5856 30.3403 37.5374 29.0183C38.0185 28.3732 38.3662 27.6387 38.5601 26.8577C38.754 26.0766 38.7903 25.2648 38.6668 24.4696C38.5379 23.6746 38.2524 22.9131 37.827 22.2292C37.4016 21.5453 36.8447 20.9527 36.1886 20.4856C34.8797 19.5247 33.2492 19.1087 31.6399 19.3249C30.0364 19.6125 28.6078 20.5125 27.6559 21.8345C26.698 23.1562 26.2929 24.7991 26.5266 26.4146C26.8217 28.0066 27.721 29.4228 29.0362 30.3672C30.3369 31.3202 31.9545 31.7358 33.5535 31.5279V31.5279Z" stroke="#0A91AB" stroke-width="3" stroke-linecap="round" stroke-linejoin="round"></path></svg> 