<?xml version="1.0" encoding="UTF-8"?> <svg xmlns="http://www.w3.org/2000/svg" width="64" height="64" viewBox="0 0 64 64" fill="none"><path d="M45.9126 17.8907H19.8227C14.6095 17.8907 11.5246 23.7496 14.4899 28.0541C18.9618 34.4869 23.4576 40.8957 27.9294 47.3285V59.7158L37.758 62.1311V47.3285C42.2299 40.8957 46.7256 34.4869 51.1975 28.0541C54.2106 23.7496 51.1497 17.8907 45.9126 17.8907Z" stroke="#0C2233" stroke-width="3" stroke-linecap="round" stroke-linejoin="round"></path><path d="M25.4482 5.63199C25.4482 3.99431 24.1206 2.6667 22.4829 2.6667C20.8452 2.6667 19.5176 3.99431 19.5176 5.63199C19.5176 7.26968 20.8452 8.59729 22.4829 8.59729C24.1206 8.59729 25.4482 7.26968 25.4482 5.63199Z" stroke="#0C2233" stroke-width="3" stroke-linecap="round" stroke-linejoin="round"></path><path d="M35.7997 5.63199C35.7997 3.99431 34.4721 2.6667 32.8344 2.6667C31.1967 2.6667 29.8691 3.99431 29.8691 5.63199C29.8691 7.26968 31.1967 8.59729 32.8344 8.59729C34.4721 8.59729 35.7997 7.26968 35.7997 5.63199Z" stroke="#0C2233" stroke-width="3" stroke-linecap="round" stroke-linejoin="round"></path><path d="M46.1454 5.63199C46.1454 3.99431 44.8178 2.6667 43.1801 2.6667C41.5424 2.6667 40.2148 3.99431 40.2148 5.63199C40.2148 7.26968 41.5424 8.59729 43.1801 8.59729C44.8178 8.59729 46.1454 7.26968 46.1454 5.63199Z" stroke="#0C2233" stroke-width="3" stroke-linecap="round" stroke-linejoin="round"></path></svg> 