<?xml version="1.0" encoding="UTF-8"?> <svg xmlns="http://www.w3.org/2000/svg" width="64" height="64" viewBox="0 0 64 64" fill="none"><path d="M14.9517 17.9215C12.6845 17.9215 10.8002 19.6586 10.8002 21.7487C10.8002 23.8388 12.6845 25.5759 14.9517 25.5759C17.219 25.5759 19.1032 23.8388 19.1032 21.7487V3.88379H23.9748C23.9748 3.94028 23.9748 3.94028 23.9748 3.98265C23.9748 4.33571 23.9748 4.7029 24.082 5.05596C24.419 6.73653 25.522 8.21939 27.0693 9.13735C28.1263 9.80111 29.3978 10.1542 30.7153 10.1542C30.7153 10.1542 30.7153 10.1542 30.7766 10.1542V14.5886H30.7153C28.1723 14.5886 25.8437 13.8684 23.9595 12.5974V21.7346C23.9595 26.3244 19.9152 29.9962 14.9364 29.9962C9.95763 29.9962 5.97461 26.3244 5.97461 21.7346C5.97461 17.1448 9.95763 13.4165 14.9364 13.4165V17.9215H14.9517Z" stroke="#0C2233" stroke-width="3" stroke-linecap="round" stroke-linejoin="round"></path><path d="M53.4918 59.6676H37.7435C34.266 59.6676 31.4473 57.0691 31.4473 53.8633V39.3454C31.4473 36.1396 34.266 33.541 37.7435 33.541H53.4918C56.9692 33.541 59.788 36.1396 59.788 39.3454V53.8633C59.788 57.0691 56.9692 59.6676 53.4918 59.6676Z" stroke="#0C2233" stroke-width="3" stroke-linecap="round" stroke-linejoin="round"></path><path d="M45.6174 51.6459C48.6379 51.6459 51.0864 49.3887 51.0864 46.6042C51.0864 43.8198 48.6379 41.5625 45.6174 41.5625C42.597 41.5625 40.1484 43.8198 40.1484 46.6042C40.1484 49.3887 42.597 51.6459 45.6174 51.6459Z" stroke="#0C2233" stroke-width="3" stroke-linecap="round" stroke-linejoin="round"></path><path d="M53.5076 40.8418C54.379 40.8418 55.0855 40.1906 55.0855 39.3872C55.0855 38.5839 54.379 37.9326 53.5076 37.9326C52.6361 37.9326 51.9297 38.5839 51.9297 39.3872C51.9297 40.1906 52.6361 40.8418 53.5076 40.8418Z" fill="#0C2233"></path></svg> 