<?xml version="1.0" encoding="UTF-8"?> <svg xmlns="http://www.w3.org/2000/svg" width="64" height="64" viewBox="0 0 64 64" fill="none"><path d="M21.0387 37.4932H12.8254C9.78536 37.4932 7.33203 39.9465 7.33203 42.9865V51.1999C7.33203 54.2399 9.78536 56.6932 12.8254 56.6932H21.0387C24.0787 56.6932 26.5321 54.2399 26.5321 51.1999V42.9865C26.5054 39.9465 24.0521 37.4932 21.0387 37.4932Z" stroke="#0C2233" stroke-width="3" stroke-linecap="round" stroke-linejoin="round"></path><path d="M26.5039 37.4935L37.4906 26.5068" stroke="#0C2233" stroke-width="3" stroke-linecap="round" stroke-linejoin="round"></path><path d="M40.2148 23.7861V31.9995" stroke="#0C2233" stroke-width="3" stroke-linecap="round" stroke-linejoin="round"></path><path d="M40.2133 23.7861H32" stroke="#0C2233" stroke-width="3" stroke-linecap="round" stroke-linejoin="round"></path><path d="M41.9453 42.7197H33.9453C32.852 42.7197 31.9453 43.6264 31.9453 44.7197C31.9453 45.8131 32.852 46.7197 33.9453 46.7197H41.9453C43.0386 46.7197 43.9453 45.8131 43.9453 44.7197C43.9453 43.6264 43.0386 42.7197 41.9453 42.7197Z" fill="#0C2233"></path><path d="M56.612 36.0537C55.5186 36.0537 54.612 36.9604 54.612 38.0537V39.387C54.612 41.227 53.1186 42.7204 51.2786 42.7204H49.9453C48.852 42.7204 47.9453 43.627 47.9453 44.7204C47.9453 45.8137 48.852 46.7204 49.9453 46.7204H51.2786C55.332 46.7204 58.612 43.4404 58.612 39.387V38.0537C58.612 36.9604 57.7053 36.0537 56.612 36.0537Z" fill="#0C2233"></path><path d="M56.6094 20.0537C55.516 20.0537 54.6094 20.9604 54.6094 22.0537V30.0537C54.6094 31.147 55.516 32.0537 56.6094 32.0537C57.7027 32.0537 58.6094 31.147 58.6094 30.0537V22.0537C58.6094 20.9604 57.7027 20.0537 56.6094 20.0537Z" fill="#0C2233"></path><path d="M51.2786 5.38672H49.9453C48.852 5.38672 47.9453 6.29339 47.9453 7.38672C47.9453 8.48005 48.852 9.38672 49.9453 9.38672H51.2786C53.1186 9.38672 54.612 10.8801 54.612 12.7201V14.0534C54.612 15.1467 55.5186 16.0534 56.612 16.0534C57.7053 16.0534 58.612 15.1467 58.612 14.0534V12.7201C58.612 8.66672 55.332 5.38672 51.2786 5.38672Z" fill="#0C2233"></path><path d="M41.9453 5.38672H33.9453C32.852 5.38672 31.9453 6.29339 31.9453 7.38672C31.9453 8.48005 32.852 9.38672 33.9453 9.38672H41.9453C43.0386 9.38672 43.9453 8.48005 43.9453 7.38672C43.9453 6.29339 43.0386 5.38672 41.9453 5.38672Z" fill="#0C2233"></path><path d="M25.944 5.38672H24.6107C20.5573 5.38672 17.2773 8.66672 17.2773 12.7201V14.0534C17.2773 15.1467 18.184 16.0534 19.2773 16.0534C20.3707 16.0534 21.2773 15.1467 21.2773 14.0534V12.7201C21.2773 10.8801 22.7707 9.38672 24.6107 9.38672H25.944C27.0373 9.38672 27.944 8.48005 27.944 7.38672C27.944 6.29339 27.0373 5.38672 25.944 5.38672Z" fill="#0C2233"></path><path d="M19.2773 20.0537C18.184 20.0537 17.2773 20.9604 17.2773 22.0537V30.0537C17.2773 31.147 18.184 32.0537 19.2773 32.0537C20.3707 32.0537 21.2773 31.147 21.2773 30.0537V22.0537C21.2773 20.9604 20.3707 20.0537 19.2773 20.0537Z" fill="#0C2233"></path></svg> 