<svg xmlns="http://www.w3.org/2000/svg" width="143" height="30" fill="none"><path fill="#FFFEFB" fill-rule="evenodd" d="M140.46 3.344S141.028 3 141.518 3s.982.344.982.344v16.655s-.451.19-.982.19c-.529 0-1.058-.19-1.058-.19V3.343zm-16.153 6.113 2.426 8.05h.044l2.565-8.05h2.153l2.721 8.05h.047l2.312-8.05h2.153l-3.468 10.777h-2.063l-2.836-8.049h-.044l-2.562 8.049h-2.202l-3.536-10.777zm-5.025 5.367c0-2.182-1.362-3.75-3.54-3.75s-3.536 1.568-3.536 3.75 1.358 3.752 3.536 3.752 3.54-1.57 3.54-3.752m2.175 0c0 3.139-2.518 5.662-5.715 5.662s-5.714-2.523-5.714-5.662 2.518-5.661 5.714-5.661 5.715 2.523 5.715 5.661m-18.545-3.775c-2.177 0-3.54 1.568-3.54 3.752 0 2.182 1.361 3.75 3.54 3.75 2.175 0 3.535-1.568 3.535-3.75 0-2.184-1.36-3.752-3.535-3.752m-3.54-7.704v7.614h.048c.725-1.115 2.198-1.82 3.741-1.82 3.311 0 5.465 2.433 5.465 5.662 0 3.182-2.13 5.661-5.465 5.661-1.453 0-2.948-.66-3.741-1.82h-.047v1.547h-2.04V3.343s.6-.344 1.082-.344.958.344.958.344zM86.6 3c.493 0 .984.344.984.344v7.728h.044c.522-1.137 1.882-1.933 3.54-1.933 2.084 0 3.899 1.25 3.899 4.115v6.935h-2.04v-6.367c0-2.024-1.157-2.774-2.45-2.774-1.702 0-2.993 1.091-2.993 3.592v5.548H85.54V3.343S86.106 3 86.6 3m-6.943 8.073c-2.222 0-3.355 1.797-3.355 3.82 0 2.025 1.358 3.661 3.469 3.661 1.132 0 1.926-.41 2.608-1.205l1.453 1.455c-1.066 1.183-2.518 1.66-4.085 1.66-3.31 0-5.622-2.297-5.622-5.616 0-3.32 2.268-5.685 5.622-5.685 1.567 0 3.063.546 4.129 1.706l-1.543 1.41c-.747-.796-1.543-1.206-2.676-1.206M64.848 9.436v1.66h.047c.521-1.136 1.883-1.933 3.536-1.933 2.087 0 3.902 1.25 3.902 4.115v6.935H70.29v-6.366c0-2.025-1.156-2.775-2.447-2.775-1.7 0-2.995 1.093-2.995 3.593v5.548h-2.04V9.436zm-6.764 10.798v-1.66h-.047c-.52 1.137-1.882 1.932-3.536 1.932-2.087 0-3.902-1.25-3.902-4.114V9.455h2.044v6.367c0 2.024 1.155 2.775 2.447 2.775 1.7 0 2.994-1.093 2.994-3.594V9.457h2.04v10.777zM43.08 18.576c2.175 0 3.536-1.57 3.536-3.752s-1.361-3.75-3.536-3.75c-2.178 0-3.54 1.568-3.54 3.75s1.36 3.752 3.54 3.752m-3.54-9.14v1.546h.047c.793-1.16 2.29-1.82 3.742-1.82 3.334 0 5.464 2.48 5.464 5.662 0 3.229-2.154 5.662-5.464 5.662-1.543 0-3.015-.704-3.742-1.82h-.047v7.579s-.54.38-1.04.38-1-.38-1-.38V9.436s.48-.394 1-.394 1.04.394 1.04.394" clip-rule="evenodd"/><path fill="#FFFEFB" d="M8.316 1.577A4.6 4.6 0 0 1 10 2.587c1.589 1.481 2.417 4.064 2.754 6.903.377 3.166.21 6.638.14 9.187 2.481-1.079 5.21-.968 7.848-.567 2.27.345 2.718 1.422 2.17 3.622-1.078 4.333-7.348 6.009-10.129 2.211-1.321-1.807-1.418-4.038-1.472-6.307-.056-2.419 0-5.135-.475-7.51-.27-1.348-.615-2.688-1.267-3.709a3.1 3.1 0 0 0-1.125-1.175c-.45-.3-.984-.507-1.629-.587a1 1 0 0 0-.08-.004C4.774 4.436 3.31 5.71 2.503 6.833 1.698 7.956.84 9.757.424 11.473c-1.95 8.05 3 16.155 11.05 18.103s16.154-2.999 18.101-11.05c1.95-8.05-2.999-16.155-11.049-18.103a14.94 14.94 0 0 0-10.21 1.154"/></svg>