<svg width="143" height="30" viewBox="0 0 143 30" fill="none" xmlns="http://www.w3.org/2000/svg">
<path fill-rule="evenodd" clip-rule="evenodd" d="M140.46 3.34402C140.46 3.34402 141.028 3.00009 141.518 3.00009C142.009 3.00009 142.5 3.34402 142.5 3.34402V19.9994C142.5 19.9994 142.049 20.189 141.518 20.189C140.989 20.189 140.46 19.9994 140.46 19.9994V3.34295V3.34402ZM124.307 9.45651L126.733 17.5061H126.777L129.342 9.45651H131.495L134.216 17.5061H134.263L136.575 9.45651H138.728L135.26 20.234H133.197L130.361 12.1854H130.317L127.755 20.234H125.553L122.017 9.45651H124.307ZM119.282 14.8244C119.282 12.6419 117.92 11.0733 115.742 11.0733C113.564 11.0733 112.206 12.6419 112.206 14.8244C112.206 17.0069 113.564 18.5765 115.742 18.5765C117.92 18.5765 119.282 17.0069 119.282 14.8244ZM121.457 14.8244C121.457 17.9626 118.939 20.4858 115.742 20.4858C112.546 20.4858 110.028 17.9626 110.028 14.8244C110.028 11.6862 112.546 9.16294 115.742 9.16294C118.939 9.16294 121.457 11.6862 121.457 14.8244ZM102.912 11.0487C100.735 11.0487 99.3728 12.6172 99.3728 14.8008C99.3728 16.9833 100.733 18.5519 102.912 18.5519C105.087 18.5519 106.447 16.9833 106.447 14.8008C106.447 12.6172 105.087 11.0487 102.912 11.0487ZM99.3728 3.34509V10.9587H99.4199C100.145 9.84437 101.618 9.13937 103.161 9.13937C106.472 9.13937 108.626 11.5715 108.626 14.8008C108.626 17.9829 106.496 20.4622 103.161 20.4622C101.708 20.4622 100.213 19.8022 99.4199 18.6429H99.3728V20.189H97.3328V3.34295C97.3328 3.34295 97.9328 2.99902 98.4149 2.99902C98.897 2.99902 99.3728 3.34295 99.3728 3.34295V3.34509ZM86.6003 3.00009C87.0931 3.00009 87.5839 3.34402 87.5839 3.34402V11.0722H87.6278C88.1496 9.93544 89.5103 9.13937 91.1678 9.13937C93.2517 9.13937 95.0667 10.3897 95.0667 13.2537V20.189H93.0267V13.8215C93.0267 11.7976 91.8696 11.0476 90.5764 11.0476C88.8749 11.0476 87.5839 12.1394 87.5839 14.6401V20.1879H85.5406V3.34295C85.5406 3.34295 86.1064 3.00009 86.6003 3.00009ZM79.6574 11.0733C77.4353 11.0733 76.3017 12.8701 76.3017 14.8929C76.3017 16.9179 77.6603 18.554 79.771 18.554C80.9035 18.554 81.6974 18.1447 82.3789 17.3486L83.8317 18.8036C82.7656 19.9865 81.3139 20.4644 79.7474 20.4644C76.4367 20.4644 74.1246 18.1672 74.1246 14.8479C74.1246 11.5276 76.3928 9.16294 79.7474 9.16294C81.3139 9.16294 82.8096 9.70937 83.8756 10.8687L82.3328 12.2787C81.586 11.4826 80.7899 11.0733 79.6574 11.0733ZM64.8482 9.43616V11.0958H64.8953C65.416 9.96008 66.7778 9.16294 68.431 9.16294C70.5182 9.16294 72.3332 10.4133 72.3332 13.2783V20.2126H70.2899V13.8472C70.2899 11.8222 69.1339 11.0722 67.8428 11.0722C66.1425 11.0722 64.8482 12.1651 64.8482 14.6647V20.2126H62.8082V9.43616H64.8482ZM58.0843 20.234V18.5733H58.0371C57.5164 19.7111 56.1546 20.5061 54.5014 20.5061C52.4143 20.5061 50.5993 19.2569 50.5993 16.3919V9.45544H52.6425V15.8219C52.6425 17.8458 53.7985 18.5969 55.0896 18.5969C56.79 18.5969 58.0843 17.504 58.0843 15.0033V9.45651H60.1243V20.234H58.0843ZM43.08 18.5765C45.255 18.5765 46.6157 17.0069 46.6157 14.8244C46.6157 12.6419 45.255 11.0733 43.08 11.0733C40.9018 11.0733 39.54 12.6419 39.54 14.8244C39.54 17.0069 40.9007 18.5765 43.08 18.5765ZM39.54 9.43616V10.9822H39.5871C40.38 9.82294 41.8768 9.16294 43.3286 9.16294C46.6628 9.16294 48.7928 11.6412 48.7928 14.8244C48.7928 18.0526 46.6393 20.4858 43.3286 20.4858C41.7857 20.4858 40.3136 19.7819 39.5871 18.6665H39.54V26.2447C39.54 26.2447 39 26.6251 38.5007 26.6251C37.9993 26.6251 37.5 26.2447 37.5 26.2447V9.43616C37.5 9.43616 37.98 9.04187 38.4996 9.04187C39.0193 9.04187 39.54 9.43616 39.54 9.43616Z" fill="#FFFEFB"/>
<path d="M8.31552 1.57724C8.94345 1.78896 9.51838 2.13353 10.0011 2.58749C11.5896 4.06799 12.4176 6.65061 12.7548 9.48973C13.1324 12.6562 12.9648 16.128 12.895 18.6772C15.376 17.5983 18.1053 17.7093 20.743 18.1095C23.0136 18.4545 23.4614 19.5315 22.9139 21.7323C21.835 26.0651 15.565 27.741 12.7844 23.9433C11.4629 22.1358 11.3658 19.905 11.3118 17.6358C11.2555 15.2171 11.3118 12.5013 10.8374 10.1269C10.5674 8.77835 10.2224 7.43848 9.56989 6.41736C9.30552 5.94111 8.93052 5.53198 8.44489 5.24173C7.9949 4.94173 7.4609 4.73548 6.81627 4.65523C6.78939 4.6521 6.76234 4.65059 6.73527 4.65073C4.77477 4.43623 3.3104 5.71048 2.50378 6.83323C1.69753 7.9556 0.839905 9.75673 0.424781 11.4731C-1.52522 19.5232 3.42365 27.6281 11.4738 29.5758C19.5239 31.5239 27.628 26.577 29.575 18.5261C31.525 10.476 26.5761 2.37111 18.526 0.423365C14.9526 -0.441383 11.3684 0.0554907 8.31552 1.57724V1.57724Z" fill="#FFFEFB"/>
</svg>
