<?xml version="1.0" encoding="UTF-8"?> <svg xmlns="http://www.w3.org/2000/svg" width="59" height="58" viewBox="0 0 59 58" fill="none"><path d="M46.9485 51.4266H12.0277C10.7479 51.4212 9.52243 50.9085 8.62017 50.0008C7.7125 49.0985 7.19973 47.8731 7.19434 46.5933V31.7066C7.19973 30.4268 7.7125 29.2014 8.62017 28.2991C9.52243 27.3915 10.7479 26.8787 12.0277 26.8733H46.9485C48.2304 26.8733 49.4598 27.3825 50.3662 28.2889C51.2726 29.1954 51.7818 30.4247 51.7818 31.7066V46.4966C51.8035 47.1418 51.6882 47.7843 51.4435 48.3816C51.2191 48.9835 50.8642 49.5282 50.4043 49.9766C49.9538 50.4362 49.4161 50.8012 48.8227 51.0502C48.2292 51.2992 47.5921 51.4272 46.9485 51.4266V51.4266Z" stroke="#FFFEFB" stroke-width="3" stroke-linecap="round" stroke-linejoin="round"></path><path d="M25.7539 44.0315H33.1489" stroke="#FFFEFB" stroke-width="3" stroke-linecap="round" stroke-linejoin="round"></path><path d="M44.2414 36.6365C43.918 36.6305 43.5985 36.565 43.2989 36.4432C43.0002 36.321 42.729 36.1402 42.5014 35.9115C42.2755 35.6815 42.0952 35.411 41.9697 35.114C41.8427 34.816 41.777 34.4955 41.7764 34.1715C41.7917 33.8493 41.8569 33.5313 41.9697 33.229C42.1101 32.9384 42.2802 32.6631 42.4772 32.4074C42.959 31.9646 43.5871 31.7151 44.2414 31.7065C44.8891 31.7118 45.5108 31.9622 45.9814 32.4074C46.2165 32.6346 46.391 32.9171 46.4889 33.229C46.7309 33.8341 46.7309 34.509 46.4889 35.114C46.3633 35.4169 46.1737 35.6889 45.933 35.9115C45.7147 36.1463 45.4518 36.3352 45.1597 36.4674C44.8675 36.5829 44.5556 36.6404 44.2414 36.6365V36.6365Z" fill="#FFFEFB"></path><path d="M34.3339 36.6366C33.683 36.6113 33.0605 36.364 32.5697 35.9358C32.3439 35.7058 32.1635 35.4352 32.038 35.1383C31.9118 34.8401 31.8467 34.5196 31.8467 34.1958C31.8467 33.872 31.9118 33.5515 32.038 33.2533C32.1635 32.9564 32.3439 32.6858 32.5697 32.4558C32.8133 32.2419 33.091 32.0703 33.3914 31.9483C33.8418 31.761 34.3354 31.7024 34.8172 31.7791C35.2947 31.873 35.7327 32.1089 36.0739 32.4558C36.309 32.683 36.4835 32.9655 36.5814 33.2775C36.7809 33.7246 36.8399 34.2219 36.7505 34.7033C36.6499 35.1836 36.4055 35.6219 36.0497 35.96C35.8128 36.1827 35.5333 36.3553 35.228 36.4675C34.9418 36.5744 34.6394 36.6316 34.3339 36.6366Z" fill="#FFFEFB"></path><path d="M24.5216 36.6365C24.1983 36.6305 23.8788 36.565 23.5791 36.4432C23.2818 36.3154 23.0049 36.1444 22.7575 35.9357C22.5387 35.6958 22.3666 35.4171 22.25 35.114C22.123 34.816 22.0573 34.4955 22.0566 34.1715C22.076 33.5195 22.324 32.895 22.7575 32.4074C23.2392 31.9646 23.8674 31.7151 24.5216 31.7065C25.1694 31.7118 25.7911 31.9622 26.2616 32.4074C26.4968 32.6346 26.6713 32.9171 26.7691 33.229C26.8954 33.5272 26.9605 33.8477 26.9605 34.1715C26.9605 34.4954 26.8954 34.8159 26.7691 35.114C26.6471 35.4144 26.4755 35.6921 26.2616 35.9357C26.0247 36.1584 25.7452 36.3311 25.44 36.4432C25.1494 36.567 24.8374 36.6327 24.5216 36.6365Z" fill="#FFFEFB"></path><path d="M44.2414 46.7625C43.918 46.7565 43.5985 46.6909 43.2989 46.5692C43.0002 46.447 42.729 46.2662 42.5014 46.0375C42.2755 45.8075 42.0952 45.5369 41.9697 45.24C41.8427 44.942 41.777 44.6215 41.7764 44.2975C41.7957 43.6454 42.0438 43.0209 42.4772 42.5334C42.959 42.0906 43.5871 41.8411 44.2414 41.8325C44.8891 41.8377 45.5108 42.0881 45.9814 42.5334C46.2165 42.7606 46.391 43.043 46.4889 43.355C46.6152 43.6532 46.6802 43.9737 46.6802 44.2975C46.6802 44.6213 46.6152 44.9418 46.4889 45.24C46.3668 45.5403 46.1953 45.8181 45.9814 46.0617C45.7537 46.2904 45.4825 46.4712 45.1839 46.5934C44.8841 46.712 44.5637 46.7696 44.2414 46.7625V46.7625Z" fill="#FFFEFB"></path><path d="M14.6623 46.4967C14.3389 46.4906 14.0194 46.4251 13.7198 46.3033C13.4211 46.1811 13.1499 46.0003 12.9223 45.7717C12.6964 45.5416 12.5161 45.2711 12.3906 44.9742C12.2636 44.6761 12.1979 44.3556 12.1973 44.0316C12.2166 43.3796 12.4647 42.7551 12.8981 42.2675C13.3799 41.8247 14.008 41.5752 14.6623 41.5667C15.31 41.5719 15.9317 41.8223 16.4023 42.2675C16.6374 42.4947 16.8119 42.7772 16.9098 43.0892C17.1518 43.6942 17.1518 44.3691 16.9098 44.9742C16.7842 45.277 16.5946 45.549 16.3539 45.7717C16.117 45.9944 15.8375 46.167 15.5323 46.2792C15.264 46.4206 14.9655 46.4952 14.6623 46.4967V46.4967Z" fill="#FFFEFB"></path><path d="M14.6623 36.6365C14.3389 36.6305 14.0194 36.565 13.7198 36.4432C13.4211 36.321 13.1499 36.1402 12.9223 35.9115C12.6964 35.6815 12.5161 35.411 12.3906 35.114C12.2636 34.816 12.1979 34.4955 12.1973 34.1715C12.2166 33.5195 12.4647 32.895 12.8981 32.4074C13.3799 31.9646 14.008 31.7151 14.6623 31.7065C15.31 31.7118 15.9317 31.9622 16.4023 32.4074C16.6374 32.6346 16.8119 32.9171 16.9098 33.229C17.1518 33.8341 17.1518 34.509 16.9098 35.114C16.7842 35.4169 16.5946 35.6889 16.3539 35.9115C16.117 36.1343 15.8375 36.3069 15.5323 36.419C15.264 36.5605 14.9655 36.6351 14.6623 36.6365V36.6365Z" fill="#FFFEFB"></path><path d="M18.4316 26.7766V21.9432C18.438 20.2018 19.1326 18.5336 20.364 17.3022C21.5953 16.0709 23.2636 15.3763 25.005 15.3699H33.9225C34.8018 15.3744 35.673 15.2018 36.4841 14.8624C37.2956 14.5256 38.0281 14.0235 38.635 13.3882C39.2596 12.7636 39.7454 12.0142 40.0608 11.1891C40.3729 10.3721 40.5208 9.5016 40.4958 8.62741V6.57324" stroke="#FFFEFB" stroke-width="3" stroke-linecap="round" stroke-linejoin="round"></path></svg> 