<?xml version="1.0" encoding="UTF-8"?> <svg xmlns="http://www.w3.org/2000/svg" width="96" height="97" viewBox="0 0 96 97" fill="none"><path d="M47.9997 11.1797C49.3197 11.1797 50.6398 11.6597 51.6798 12.5797C55.2398 15.7397 61.0797 21.8596 65.0797 30.3796C65.9197 32.1796 66.6797 34.0597 67.3197 36.0597C67.8397 37.7397 68.2797 39.4196 68.6397 41.1396C70.5197 50.3796 68.4397 59.9397 65.5197 68.7397C64.3997 72.1797 63.5197 76.1397 61.4797 79.1797C61.3597 79.3397 61.2797 79.4996 61.1997 79.6196C60.1197 81.0596 58.4397 81.8997 56.6397 81.8997C56.6397 81.8997 52.3197 81.8997 47.9997 81.8997C43.6797 81.8997 39.3597 81.8997 39.3597 81.8997C37.5597 81.8997 35.8798 81.0596 34.7998 79.6196C34.7198 79.4596 34.6397 79.3397 34.5197 79.1797C32.4797 76.1397 31.5997 72.2197 30.4797 68.7397C27.5997 59.9397 25.4797 50.3796 27.3597 41.1396C27.7197 39.4196 28.1598 37.7397 28.6798 36.0597C29.3198 34.0597 30.0798 32.1796 30.9198 30.3796C34.9198 21.8596 40.7597 15.7797 44.3197 12.5797C45.3597 11.6597 46.6797 11.1797 47.9997 11.1797Z" stroke="#0C2233" stroke-width="4.5" stroke-linecap="round" stroke-linejoin="round"></path><path d="M61.4795 79.1801L68.6395 84.4601C69.7195 85.2601 71.0395 85.4201 72.2795 84.9801C72.7995 84.7401 73.2395 84.4601 73.5995 84.1001C74.1195 83.5801 74.4795 82.9401 74.6395 82.1801L77.1995 69.5C77.5595 67.78 77.0795 66.1 75.9995 64.78L69.1595 56.8201C69.1995 56.7401 69.1995 56.6601 69.1995 56.5801" stroke="#0C2233" stroke-width="4.5" stroke-linecap="round" stroke-linejoin="round"></path><path d="M26.7998 56.7793L19.9598 64.7394C18.8798 66.0594 18.3998 67.7793 18.7598 69.4593L21.3197 82.1393C21.5597 83.4193 22.4798 84.4593 23.6798 84.9393C24.9198 85.3793 26.2397 85.2193 27.3197 84.4193L34.4798 79.1393" stroke="#0C2233" stroke-width="4.5" stroke-linecap="round" stroke-linejoin="round"></path><path d="M48.0001 47.3401C52.3742 47.3401 55.9202 43.7941 55.9202 39.42C55.9202 35.0459 52.3742 31.5 48.0001 31.5C43.626 31.5 40.0801 35.0459 40.0801 39.42C40.0801 43.7941 43.626 47.3401 48.0001 47.3401Z" stroke="#0C2233" stroke-width="4.5" stroke-linecap="round" stroke-linejoin="round"></path><path d="M32.1602 67.1396H63.8401" stroke="#0C2233" stroke-width="4.5" stroke-linecap="round" stroke-linejoin="round"></path></svg> 