<?xml version="1.0" encoding="UTF-8"?> <svg xmlns="http://www.w3.org/2000/svg" xmlns:xlink="http://www.w3.org/1999/xlink" version="1.1" id="Layer_1" x="0px" y="0px" viewBox="0 0 559 468" style="enable-background:new 0 0 559 468;" xml:space="preserve"> <style type="text/css"> .st0{fill:#0A91AB;} .st1{fill:#0A91AB;filter:url(#Adobe_OpacityMaskFilter);} .st2{mask:url(#mask0_3278_151_00000133501610270891260980000006030137568282592952_);} .st3{fill:none;filter:url(#Adobe_OpacityMaskFilter_00000020359584176129460330000008377880946528550077_);} .st4{mask:url(#mask1_3278_151_00000029003708681779995670000000167537779498207886_);} .st5{fill:#CEFD94;fill-opacity:0.5;} .st6{fill:#0C2233;fill-opacity:0.25;} .st7{fill:#FFFFFF;} .st8{fill:none;stroke:#000000;stroke-width:0.6585;stroke-opacity:0.12;} .st9{fill:#FFFEFB;filter:url(#Adobe_OpacityMaskFilter_00000172432795462138838300000001372859420927309709_);} .st10{mask:url(#mask2_3278_151_00000131363847589053814440000014310188263182049447_);} .st11{fill:#FFFEFB;} .st12{fill:none;stroke:#76B39D;stroke-width:0.9568;stroke-linecap:round;stroke-linejoin:round;} .st13{fill:none;stroke:#0C2233;stroke-width:4.7842;stroke-linecap:round;stroke-linejoin:round;} .st14{fill:none;stroke:#CEFD94;stroke-width:2.3921;stroke-linecap:round;stroke-linejoin:round;} .st15{fill:none;stroke:#FF6A39;stroke-width:1.9137;stroke-miterlimit:10;} .st16{fill:none;stroke:#0A91AB;stroke-width:1.1961;stroke-linecap:round;stroke-linejoin:round;} .st17{fill:none;stroke:#FF6A39;stroke-width:0.4784;stroke-linecap:round;stroke-linejoin:round;} .st18{fill:#0C2233;} </style> <path class="st0" d="M537.5,184L34.1,80.5c-2.2,14.6-3.4,29.5-2.9,44.5c0.6,18.8,3.6,37,8.4,54.9c9.5,35.4,26.3,67.2,49.7,95.5 c13.4,16.3,28.6,30.5,45.4,42.9l217.7,44.8c10.2-2.4,20.3-5.5,30.2-9.2c32.3-11.9,61.1-29.9,86.3-53.6l-0.1,0 c8.6-8,16.5-16.5,23.7-25.5c12-14.9,22.1-31.2,30.1-48.7C528.6,212.6,533.5,198.4,537.5,184L537.5,184z"></path> <defs> <filter id="Adobe_OpacityMaskFilter" filterUnits="userSpaceOnUse" x="-67.6" y="-196.3" width="738.2" height="719.6"> <feColorMatrix type="matrix" values="1 0 0 0 0 0 1 0 0 0 0 0 1 0 0 0 0 0 1 0"></feColorMatrix> </filter> </defs> <mask maskUnits="userSpaceOnUse" x="-67.6" y="-196.3" width="738.2" height="719.6" id="mask0_3278_151_00000133501610270891260980000006030137568282592952_"> <path class="st1" d="M537.5,184L34.1,80.5c-2.2,14.6-3.4,29.5-2.9,44.5c0.6,18.8,3.6,37,8.4,54.9c9.5,35.4,26.3,67.2,49.7,95.5 c13.4,16.3,28.6,30.5,45.4,42.9l217.7,44.8c10.2-2.4,20.3-5.5,30.2-9.2c32.3-11.9,61.1-29.9,86.3-53.6l-0.1,0 c8.6-8,16.5-16.5,23.7-25.5c12-14.9,22.1-31.2,30.1-48.7C528.6,212.6,533.5,198.4,537.5,184L537.5,184z"></path> </mask> <g class="st2"> <defs> <filter id="Adobe_OpacityMaskFilter_00000135684139121313573060000010531214254861825956_" filterUnits="userSpaceOnUse" x="-67.6" y="-196.3" width="738.2" height="719.6"> <feColorMatrix type="matrix" values="1 0 0 0 0 0 1 0 0 0 0 0 1 0 0 0 0 0 1 0"></feColorMatrix> </filter> </defs> <mask maskUnits="userSpaceOnUse" x="-67.6" y="-196.3" width="738.2" height="719.6" id="mask1_3278_151_00000029003708681779995670000000167537779498207886_"> <rect x="41.5" y="-88.7" transform="matrix(0.9757 -0.2189 0.2189 0.9757 -26.5874 65.6686)" style="fill:none;filter:url(#Adobe_OpacityMaskFilter_00000135684139121313573060000010531214254861825956_);" width="483" height="483"></rect> </mask> <g class="st4"> <rect x="-9.8" y="-135.4" transform="matrix(0.9757 -0.2189 0.2189 0.9757 -28.4898 69.9595)" class="st5" width="622.4" height="597.9"></rect> </g> </g> <g> <rect x="135.8" y="52.6" class="st6" width="252.9" height="363.5"></rect> </g> <rect x="135.8" y="52.6" class="st7" width="252.9" height="363.5"></rect> <rect x="136.1" y="53" class="st8" width="252.2" height="362.9"></rect> <rect x="135.8" y="52.6" class="st7" width="252.9" height="363.5"></rect> <rect x="136.1" y="53" class="st8" width="252.2" height="362.9"></rect> <rect x="135.8" y="52.6" class="st7" width="252.9" height="363.5"></rect> <rect x="136.1" y="53" class="st8" width="252.2" height="362.9"></rect> <rect x="135.8" y="52.6" class="st7" width="252.9" height="363.5"></rect> <rect x="136.1" y="53" class="st8" width="252.2" height="362.9"></rect> <defs> <filter id="Adobe_OpacityMaskFilter_00000085940156689091174770000008680623676995315330_" filterUnits="userSpaceOnUse" x="135.8" y="39.7" width="322.7" height="442.1"> <feColorMatrix type="matrix" values="1 0 0 0 0 0 1 0 0 0 0 0 1 0 0 0 0 0 1 0"></feColorMatrix> </filter> </defs> <mask maskUnits="userSpaceOnUse" x="135.8" y="39.7" width="322.7" height="442.1" id="mask2_3278_151_00000131363847589053814440000014310188263182049447_"> <rect x="135.8" y="52.6" style="fill:#FFFEFB;filter:url(#Adobe_OpacityMaskFilter_00000085940156689091174770000008680623676995315330_);" width="252.9" height="363.5"></rect> </mask> <g class="st10"> <rect x="135.8" y="52.6" class="st11" width="252.9" height="363.5"></rect> <path class="st12" d="M417.7,479.4c-15.2-15.9-34-26.9-54-36.1c-11-5.1-22.8-8.5-33.5-14.2c-7.3-3.9-14.2-8.2-19.3-15.1 c-5.2-7-7-14.5-4.1-22.9c4.8-13.7,8.1-27.8,13.3-41.4c4.3-11.2,9.3-22.2,14-33.3c7.2-17,14.6-33.9,19.6-51.7 c3.5-12.3,4.9-25,3.9-37.7c-0.7-8.9-3.4-17.5-5.4-26.2c-2.9-12.5-5.6-25.1-8.5-37.7c-3.2-14-6.2-28.1-9.5-42.1 c-1.9-8-4.3-15.9-5.1-24c-1.5-13.3,1.5-25.7,10.6-36.2c9.1-10.5,16.7-13.5,29.7-16.6c9.1-2.2,18.4-3.4,27.7-4 c6.9-0.4,12.8,1.8,17.4,7.3c7.2,8.5,16.3,14.2,26.6,18.1c4.3,1.6,9.6,2.6,15,3.3"></path> <path class="st13" d="M444.7,479.4c-1.8-2.3-3.6-4.6-5.4-6.8c-12.7-15.5-27.6-28.1-44.5-38.7c-13.8-8.7-28.3-15.9-43.5-22 c-6.9-2.8-13.1-7-15.2-15c-1.4-5.6-0.8-11.2,0.4-16.6c4.2-18.4,9.5-36.6,16.3-54.3c6.1-16.1,13.3-31.7,21.2-47 c5-9.6,7.9-20,9.2-30.9c1.3-11-0.7-21.4-3.2-31.8c-3-12.5-7.3-24.7-9.4-37.3c-1.8-10.7-2.3-21.6-1.5-32.5 c1.1-15.6,3.8-31.1,8.1-46.2c1.7-5.9,4.2-11.7,9.1-15.9c4.9-4.1,10.1-5.5,16.6-4.2c7.6,1.4,14.5,4.9,22.1,6.3 c6.3,1.1,12.5,2.5,18.9,3.5c4.1,0.6,8.2,1.3,12.2,1.9"></path> <path class="st14" d="M456,479.4c-3-4.3-6.1-8.5-9.5-12.6c-11.7-14.1-25.5-26.1-40.2-37c-13.5-10-27.8-18.8-41.8-28 c-4.5-3-8.6-6.2-11.1-11.1c-2.7-5.3-2.2-11.2-1.3-16.6c2.1-11.8,4.7-23.5,7.9-35.1c5.8-21,13.8-41.1,25.1-59.8 c4.7-7.7,7.6-16,9-25.1c2.2-14.8-0.4-29-5.4-42.8c-3.8-10.4-6.8-21-8.7-31.8c-1.5-8.4-1.8-17-0.7-25.5c1.9-15.3,6.4-29.7,15.4-42.5 c4.1-5.9,9.5-8.8,16.7-8.9c9.2-0.1,18.3,0.3,27.3,1.6c5.9,0.9,11.7,2,17.4,3.4"></path> <path class="st15" d="M456.2,460.8c-7.4-9-15.5-17.4-24.1-25.4c-9.8-9.1-20.6-17.1-30.9-25.6c-8.6-7-17.5-13.8-23.3-23.6 c-3.1-5.3-4.4-11.2-5.3-17.3c-1.1-7.6-0.6-15.1,0.2-22.5c1.9-16,6.8-31.1,14.2-45.5c5.1-9.9,11.2-19.1,16.8-28.7 c5.6-9.7,8.2-20,7.3-31.1c-0.8-9.3-4.8-17.7-8.4-26.2c-4.4-10.5-8.7-21-11.1-32.1c-3.5-16.4-2.4-32,7.7-46.2 c6.1-8.5,14.3-13.4,24.4-15.5c12.2-2.5,22.8,0.9,32.5,7"></path> <path class="st16" d="M456.2,450.2c-6.9-7.5-14.2-14.6-21.7-21.6c-9.1-8.4-18.4-16.6-27.5-24.9c-6.9-6.3-13.2-12.8-17.9-20.8 c-3.6-6.2-5.8-13.1-6.7-20.3c-2.5-18.6,2.8-35.7,10-52.4c4.4-10.2,10.3-19.5,16.9-28.5c5.6-7.6,10.1-15.7,12.3-25.1 c2.6-10.7,1-20.6-3.4-30.3c-2.4-5.2-5.8-9.8-8.5-14.8c-6.1-11.4-9.9-23.6-12.5-36.2c-3.2-15.7,6.1-35,20.3-42.1 c11.9-5.9,24.4-3.5,34.3,4.8c1.6,1.3,3,2.7,4.4,4.1"></path> <path class="st17" d="M430.4,479.4c-0.4-0.4-0.7-0.8-1.1-1.3c-13.5-15.1-29.8-26.4-47.1-36.4c-11-6.4-22.9-10.9-35-15.1 c-8.1-2.8-15.9-6.9-22.5-12.5c-4.2-3.6-6.5-8.4-6.8-14.3c-0.4-9.1,2.3-17.7,4.7-26.2c5.6-19.9,12.8-39.2,21.4-58 c6.7-14.6,13.3-29.3,19.8-44c2.7-6.3,4.4-13,5.4-19.9c1.1-7.6,1-15.1,0.5-22.5c-0.6-7.9-2.3-15.7-4.4-23.2 c-2.8-10.2-4.9-20.6-6.6-31c-1.7-10.7-2.7-21.4-3.7-32.1c-1.2-12.9-1.8-25.9-1.2-38.8c0.6-13.7,4.6-26.5,14.4-36.5 c7.2-7.3,16.4-11.1,26.5-13.2c9.3-1.9,16,1.9,22.6,7.5c10.1,8.5,21.8,13.2,34.7,15.6c1.5,0.3,3,0.5,4.5,0.7"></path> <path class="st18" d="M229.2,80.3c0-0.3-0.1-0.7-0.4-0.9c-0.2-0.2-0.5-0.4-0.9-0.4h0l-59.1,1.5c-0.7,0-1.2,0.6-1.2,1.2v11.8 c0,0.3,0.1,0.7,0.4,0.9c0.2,0.2,0.5,0.4,0.9,0.4h0l59.1-1.4c0.7,0,1.2-0.6,1.2-1.2L229.2,80.3L229.2,80.3z M228,80.3l0,4l-7.2,0 h-0.1v1.4h4.9l0,3.8h-5l0,2.8l-6.5,0.2V80.7L228,80.3L228,80.3z M187.9,93.2c-0.5-0.2-1-0.5-1.4-0.8c-0.8-0.6-1.4-1.3-1.8-2.1h0 l0-0.1c-0.2-0.5-0.4-0.9-0.6-1.4c-0.2-0.6-0.2-1.1-0.2-1.8c0-0.7,0-1.4,0-2.1v-3.5l6.4-0.2v1.3c0,1.4,0,2.8,0,4.2 c0,0.2,0,0.3,0.1,0.4l0,0.1c0,0,0.1,0.1,0.1,0.1c0,0,0,0,0,0c0.1,0,0.1,0.1,0.2,0.1c0,0,0.1,0,0.1,0c0,0,0.1,0,0.1,0 c0.1,0,0.1-0.1,0.2-0.1c0,0,0,0,0,0c0,0,0.1-0.1,0.1-0.1l0-0.1c0-0.1,0.1-0.2,0.1-0.4c0-1.4,0-2.8,0-4.2v-1.3l6.4-0.2v1 c0,1.6,0,3.2,0,4.8c0,0.6-0.1,1.1-0.1,1.5c-0.2,0.8-0.5,1.6-1,2.3c-0.5,0.8-1.2,1.4-1.9,1.9c-0.2,0.2-0.5,0.3-0.7,0.4l0,0 L187.9,93.2L187.9,93.2z M199.2,81.1l13.7-0.3v3.6h-7.2v1.4h5v3.8h-1.4c-1.1,0-3.6,0-3.6,0s0,1.9,0,2.7v0.5l-6.5,0.2L199.2,81.1 L199.2,81.1z M182.4,81.5c0,1.8,0,5.6,0,5.6s-1.6,0-2.3,0h-1.3v6.4l-6.4,0.1V87l-3.6,0v-5.2L182.4,81.5L182.4,81.5z"></path> <path class="st18" d="M171.2,219.6l2.4-3.8v17.3h-5.5v-18.3h7.5c1.8,0,3.2,0.3,4.3,0.8c1.1,0.5,2,1.3,2.5,2.3 c0.6,1,0.8,2.3,0.8,3.8c0,1.2-0.3,2.4-0.9,3.5c-0.6,1-1.4,1.9-2.5,2.5c-1.1,0.6-2.5,0.9-4.1,0.9h-4.6v-4.9h3.9 c0.8,0,1.4-0.2,1.7-0.5c0.4-0.3,0.6-0.9,0.6-1.5c0-0.4-0.1-0.8-0.3-1.1c-0.2-0.3-0.5-0.5-0.8-0.6c-0.3-0.2-0.8-0.2-1.3-0.2H171.2z M188.9,233.4c-0.8,0-1.5-0.2-2.1-0.5c-0.7-0.3-1.2-0.8-1.6-1.5c-0.4-0.7-0.6-1.5-0.6-2.4c0-1.3,0.4-2.4,1.3-3.1 c0.9-0.8,2.3-1.2,4.3-1.2h3.7l0,2.3h-2.8c-0.4,0-0.8,0.1-1,0.3c-0.2,0.2-0.4,0.5-0.4,0.8c0,0.2,0.1,0.4,0.2,0.6 c0.1,0.2,0.3,0.3,0.5,0.4c0.3,0.1,0.6,0.2,1,0.2c0.4,0,0.8-0.1,1.1-0.2c0.3-0.2,0.5-0.4,0.7-0.7c0.2-0.3,0.3-0.6,0.3-1V224 c0-0.5-0.1-1-0.4-1.2c-0.3-0.3-0.7-0.4-1.3-0.4c-0.4,0-0.8,0.1-1.2,0.3c-0.3,0.2-0.5,0.6-0.6,1.3l-4.9-0.7c0.1-0.9,0.4-1.8,0.8-2.6 c0.5-0.8,1.2-1.4,2.2-1.9c1-0.5,2.3-0.7,3.9-0.7c1.6,0,2.8,0.2,3.8,0.7c1,0.5,1.7,1.1,2.1,2c0.4,0.9,0.7,1.9,0.7,3.2v9.1h-5.2v-4.8 l0.8,1.3H193l0.7-2.6c-0.1,1.3-0.3,2.4-0.6,3.4c-0.3,0.9-0.9,1.7-1.5,2.2C190.9,233.1,190,233.4,188.9,233.4z M205.9,224.1h0.8 l-0.4,1.3c0.2-1.6,0.4-2.8,0.7-3.8c0.2-0.9,0.5-1.6,0.8-2.1c0.3-0.4,0.7-0.7,1-0.9c0.4-0.1,0.8-0.2,1.3-0.2h0.6v6H209 c-0.7,0-1.2,0.1-1.6,0.2c-0.4,0.1-0.6,0.3-0.8,0.6c-0.1,0.3-0.2,0.8-0.2,1.3v6.5h-5.2v-14.6h5.2v6.9L205.9,224.1z M212.5,218.5h9.9 v4.3h-9.9V218.5z M213.9,228.3V215h5.2v12.2c0,0.4,0.1,0.7,0.3,0.9c0.2,0.2,0.5,0.3,1,0.3c0.3,0,0.6,0,0.9-0.1 c0.3-0.1,0.6-0.2,0.8-0.2l0.5,4.8c-0.4,0.1-0.8,0.2-1.1,0.3c-0.3,0.1-0.7,0.1-1.1,0.2c-0.4,0.1-0.9,0.1-1.5,0.1 c-1.2,0-2.2-0.2-2.9-0.7c-0.8-0.5-1.3-1.1-1.6-1.9C214.1,230.1,213.9,229.3,213.9,228.3z M229.4,222.6h1.3l-0.8,0.9 c0.2-1.4,0.6-2.6,1-3.4c0.4-0.8,1-1.3,1.6-1.6c0.6-0.3,1.3-0.5,2.1-0.5c0.9,0,1.7,0.2,2.3,0.6c0.6,0.4,1.1,1,1.4,1.7 c0.3,0.7,0.5,1.6,0.5,2.7v10.1h-5.2v-8.5c0-0.4-0.1-0.7-0.2-1c-0.1-0.3-0.3-0.5-0.6-0.6c-0.2-0.2-0.6-0.2-0.9-0.2s-0.7,0.1-1,0.2 c-0.3,0.1-0.5,0.4-0.6,0.6c-0.1,0.3-0.2,0.6-0.2,1v8.5h-5.2v-14.6h5.2v5L229.4,222.6z M248.5,233.5c-1.4,0-2.7-0.3-3.9-0.8 c-1.1-0.6-2-1.4-2.7-2.4c-0.7-1.1-1-2.5-1-4.1c0-1.7,0.3-3.2,0.9-4.4c0.6-1.2,1.5-2.2,2.6-2.8c1.1-0.7,2.5-1,4.2-1 c1.5,0,2.8,0.3,3.8,0.9c1,0.6,1.7,1.4,2.2,2.4c0.5,1,0.7,2.2,0.7,3.5c0,0.4,0,0.7,0,0.9c0,0.3,0,0.6,0,1h-10.6v-2.2h7l-1.2,0.7 c0.1-1.1,0-1.8-0.4-2.3c-0.3-0.5-0.9-0.7-1.7-0.7c-0.9,0-1.5,0.3-1.9,0.8c-0.4,0.5-0.5,1.4-0.5,2.7c0,1.2,0.2,2.1,0.6,2.6 c0.4,0.5,1.1,0.7,2,0.7c0.5,0,0.9-0.1,1.1-0.2c0.3-0.1,0.5-0.3,0.6-0.5c0.2-0.2,0.3-0.5,0.4-0.7l4.4,1.3c-0.2,0.8-0.6,1.6-1.1,2.3 c-0.5,0.7-1.2,1.3-2.1,1.7C251,233.3,249.9,233.5,248.5,233.5z M262.2,224.1h0.8l-0.4,1.3c0.2-1.6,0.4-2.8,0.7-3.8 c0.2-0.9,0.5-1.6,0.8-2.1c0.3-0.4,0.7-0.7,1-0.9c0.4-0.1,0.8-0.2,1.3-0.2h0.6v6h-1.8c-0.7,0-1.2,0.1-1.6,0.2 c-0.4,0.1-0.6,0.3-0.8,0.6c-0.1,0.3-0.2,0.8-0.2,1.3v6.5h-5.2v-14.6h5.2v6.9L262.2,224.1z M275.7,233.5c-1.7,0-3.1-0.2-4.1-0.7 c-1-0.5-1.6-1.1-2.1-1.8c-0.4-0.7-0.7-1.5-0.8-2.3l4.8-0.9c0.1,0.5,0.3,0.9,0.5,1.2c0.2,0.3,0.4,0.5,0.7,0.6c0.3,0.1,0.7,0.2,1,0.2 c0.5,0,0.8-0.1,1-0.2c0.2-0.1,0.3-0.4,0.4-0.6c0-0.2-0.1-0.3-0.2-0.5c-0.1-0.1-0.4-0.3-0.8-0.4c-0.4-0.2-0.9-0.3-1.7-0.5 c-1.4-0.3-2.5-0.7-3.4-1.1c-0.8-0.4-1.4-1-1.8-1.6c-0.3-0.6-0.5-1.3-0.5-2.1c0-1.5,0.5-2.6,1.6-3.5c1.1-0.8,2.7-1.3,4.9-1.3 c1.5,0,2.7,0.2,3.7,0.5c0.9,0.4,1.7,0.9,2.1,1.5c0.5,0.7,0.8,1.4,0.9,2.3l-4.9,1.1c-0.1-0.6-0.3-1-0.6-1.3 c-0.3-0.3-0.7-0.5-1.3-0.5c-0.4,0-0.8,0.1-1,0.2c-0.2,0.1-0.3,0.3-0.3,0.6c0,0.2,0,0.4,0.1,0.5c0.1,0.2,0.4,0.3,0.8,0.5 c0.4,0.1,1.1,0.3,2,0.5c1.4,0.3,2.6,0.7,3.3,1.2c0.8,0.5,1.3,1,1.6,1.6c0.3,0.6,0.5,1.2,0.5,2c0,1-0.2,1.8-0.7,2.6 c-0.4,0.7-1.2,1.3-2.1,1.6S277.2,233.5,275.7,233.5z M289.1,222.6h1.3l-0.8,0.9c0.2-1.4,0.6-2.6,1-3.4c0.4-0.8,1-1.3,1.6-1.6 c0.6-0.3,1.3-0.5,2.1-0.5c0.9,0,1.7,0.2,2.3,0.6c0.6,0.4,1.1,1,1.4,1.7c0.3,0.7,0.5,1.6,0.5,2.7v10.1h-5.2v-8.5 c0-0.4-0.1-0.7-0.2-1c-0.1-0.3-0.3-0.5-0.6-0.6c-0.2-0.2-0.6-0.2-0.9-0.2s-0.7,0.1-1,0.2c-0.3,0.1-0.5,0.4-0.6,0.6 c-0.1,0.3-0.2,0.6-0.2,1v8.5h-5.2v-18.7h5.2v9.1L289.1,222.6z M306.3,217.4h-5.2v-3.1h5.2V217.4z M306.3,233.1h-5.2v-14.6h5.2 V233.1z M323.6,225.6c0,2.5-0.4,4.5-1.3,5.8c-0.8,1.4-2.1,2-3.8,2c-0.6,0-1.1-0.1-1.6-0.2c-0.5-0.2-0.9-0.4-1.3-0.9 c-0.4-0.4-0.7-1-1-1.7c-0.3-0.7-0.5-1.6-0.7-2.7l0.2-2.2c0,0.6,0.1,1.2,0.2,1.6c0.2,0.4,0.4,0.8,0.7,1c0.3,0.2,0.7,0.3,1.2,0.3 c0.8,0,1.4-0.3,1.7-0.8c0.3-0.6,0.5-1.4,0.5-2.4c0-0.9-0.2-1.7-0.5-2.2c-0.3-0.5-0.9-0.8-1.7-0.8c-0.4,0-0.8,0.1-1.2,0.3 c-0.3,0.2-0.6,0.6-0.7,1c-0.2,0.4-0.2,0.9-0.2,1.6l-0.2-2.1c0.2-1.4,0.6-2.6,1-3.4c0.5-0.8,1-1.3,1.6-1.6c0.7-0.3,1.4-0.5,2.1-0.5 c1.6,0,2.9,0.7,3.7,2C323.2,221.4,323.6,223.2,323.6,225.6z M314.1,218.5v4.9v13.8h-5.2v-18.7H314.1z M313.6,223.2v-1h0.7v1H313.6z M313.6,229.4v-0.9h0.7v0.9H313.6z M177.1,264.5c-1.5,0-2.9-0.2-4.1-0.7c-1.2-0.5-2.2-1.2-3-2c-0.8-0.9-1.4-1.9-1.9-3.1 c-0.4-1.2-0.6-2.5-0.6-3.9c0-1.9,0.4-3.5,1.2-5c0.8-1.4,1.9-2.6,3.3-3.4c1.4-0.8,3.1-1.2,5-1.2c1.5,0,2.8,0.2,4,0.7 c1.2,0.5,2.2,1.1,3,2c0.8,0.9,1.5,1.9,1.9,3c0.4,1.2,0.7,2.4,0.7,3.9c0,1.9-0.4,3.5-1.1,5c-0.7,1.5-1.8,2.6-3.2,3.5 C180.9,264.1,179.2,264.5,177.1,264.5z M177.1,259.6c0.9,0,1.7-0.2,2.3-0.6c0.6-0.4,1.1-0.9,1.3-1.7c0.3-0.7,0.4-1.6,0.4-2.6 c0-0.8-0.2-1.6-0.5-2.3c-0.3-0.7-0.7-1.3-1.3-1.7c-0.6-0.4-1.4-0.6-2.3-0.6c-0.9,0-1.7,0.2-2.3,0.6c-0.6,0.4-1,1-1.3,1.7 c-0.3,0.7-0.4,1.4-0.4,2.3c0,1,0.1,1.9,0.4,2.6c0.3,0.7,0.7,1.3,1.3,1.7C175.4,259.4,176.2,259.6,177.1,259.6z M198.9,264.1h-6.1 l-5.1-14.6h5.6l1.6,5.8c0.3,0.9,0.5,1.8,0.7,2.7c0.2,0.9,0.5,1.8,0.7,2.6c0.2,0.9,0.4,1.7,0.6,2.6l-2.6-4.4h3.1l-2.6,4.4 c0.2-0.9,0.4-1.7,0.6-2.6c0.2-0.9,0.5-1.8,0.7-2.6c0.2-0.9,0.5-1.8,0.8-2.7l1.7-5.8h5.4L198.9,264.1z M212.1,264.5 c-1.4,0-2.7-0.3-3.9-0.8c-1.1-0.6-2-1.4-2.7-2.4c-0.7-1.1-1-2.5-1-4.1c0-1.7,0.3-3.2,0.9-4.4c0.6-1.2,1.5-2.2,2.6-2.8 c1.1-0.7,2.5-1,4.2-1c1.5,0,2.8,0.3,3.8,0.9c1,0.6,1.7,1.4,2.2,2.4c0.5,1,0.7,2.2,0.7,3.5c0,0.4,0,0.7,0,0.9c0,0.3,0,0.6,0,1h-10.6 v-2.2h7l-1.2,0.7c0.1-1.1,0-1.8-0.4-2.3c-0.3-0.5-0.9-0.7-1.7-0.7c-0.9,0-1.5,0.3-1.9,0.8c-0.4,0.5-0.6,1.4-0.6,2.7 c0,1.2,0.2,2.1,0.6,2.6c0.4,0.5,1.1,0.7,2,0.7c0.5,0,0.9-0.1,1.1-0.2c0.3-0.1,0.5-0.3,0.6-0.5c0.2-0.2,0.3-0.5,0.4-0.7l4.4,1.3 c-0.2,0.8-0.6,1.6-1.1,2.3c-0.5,0.7-1.2,1.3-2.1,1.7C214.6,264.3,213.4,264.5,212.1,264.5z M225.8,255.1h0.8l-0.4,1.3 c0.2-1.6,0.4-2.8,0.7-3.8c0.2-0.9,0.5-1.6,0.8-2.1c0.3-0.4,0.7-0.7,1-0.9c0.4-0.1,0.8-0.2,1.3-0.2h0.6v6h-1.8 c-0.7,0-1.2,0.1-1.6,0.2c-0.4,0.1-0.6,0.3-0.8,0.6c-0.1,0.3-0.2,0.8-0.2,1.3v6.5h-5.2v-14.6h5.2v6.9L225.8,255.1z M242.8,264.1 h-6.1l-5.1-14.6h5.6l1.6,5.8c0.3,0.9,0.5,1.8,0.7,2.7c0.2,0.9,0.5,1.8,0.7,2.6c0.2,0.9,0.4,1.7,0.6,2.6l-2.6-4.4h3.1l-2.6,4.4 c0.2-0.9,0.4-1.7,0.6-2.6c0.2-0.9,0.5-1.8,0.7-2.6c0.2-0.9,0.5-1.8,0.8-2.7l1.7-5.8h5.4L242.8,264.1z M254.5,248.4h-5.2v-3.1h5.2 V248.4z M254.5,264.1h-5.2v-14.6h5.2V264.1z M264.3,264.5c-1.4,0-2.7-0.3-3.9-0.8c-1.1-0.6-2-1.4-2.7-2.4c-0.7-1.1-1-2.5-1-4.1 c0-1.7,0.3-3.2,0.9-4.4c0.6-1.2,1.5-2.2,2.6-2.8c1.1-0.7,2.5-1,4.2-1c1.5,0,2.8,0.3,3.8,0.9c1,0.6,1.7,1.4,2.2,2.4 c0.5,1,0.7,2.2,0.7,3.5c0,0.4,0,0.7,0,0.9c0,0.3,0,0.6,0,1h-10.6v-2.2h7l-1.2,0.7c0.1-1.1,0-1.8-0.4-2.3c-0.3-0.5-0.9-0.7-1.7-0.7 c-0.9,0-1.5,0.3-1.9,0.8c-0.4,0.5-0.5,1.4-0.5,2.7c0,1.2,0.2,2.1,0.6,2.6c0.4,0.5,1.1,0.7,2,0.7c0.5,0,0.9-0.1,1.1-0.2 c0.3-0.1,0.5-0.3,0.6-0.5c0.2-0.2,0.3-0.5,0.4-0.7l4.4,1.3c-0.2,0.8-0.6,1.6-1.1,2.3c-0.5,0.7-1.2,1.3-2.1,1.7 C266.9,264.3,265.7,264.5,264.3,264.5z M286.2,249.5l1,5.8c0.2,1.2,0.4,2.5,0.6,3.8c0.1,1.3,0.3,2.6,0.4,4.1l-0.5-3.1h1.1l-1.2,3.1 c0.1-1.4,0.3-2.8,0.5-4c0.2-1.2,0.4-2.5,0.6-3.9l0.9-5.8h5.1l-3.7,14.6h-6.4l-0.9-6.2c-0.2-1.1-0.3-2.3-0.4-3.5 c-0.1-1.2-0.1-2.4-0.2-3.6l0.8,2.7h-1.4l0.7-2.7c0,1.1-0.1,2.3-0.2,3.6c-0.1,1.2-0.3,2.4-0.4,3.5l-0.8,6.2h-6.5l-3.7-14.6h5.3 l1.1,5.8c0.3,1.4,0.5,2.7,0.7,3.9c0.2,1.2,0.3,2.6,0.4,4L278,260h1.1l-0.5,3.1c0.2-1.4,0.3-2.8,0.5-4.1c0.1-1.3,0.3-2.6,0.5-3.8 l1-5.8H286.2z"></path> </g> </svg> 