<?xml version="1.0" encoding="utf-8"?>
<!-- Generator: Adobe Illustrator 28.0.0, SVG Export Plug-In . SVG Version: 6.00 Build 0)  -->
<svg version="1.1" id="Layer_1" xmlns="http://www.w3.org/2000/svg" xmlns:xlink="http://www.w3.org/1999/xlink" x="0px" y="0px"
	 viewBox="0 0 1440 700.5" style="enable-background:new 0 0 1440 700.5;" xml:space="preserve">
<style type="text/css">
	.st0{fill:none;}
	.st1{fill:#0C2233;}
	.st2{clip-path:url(#SVGID_00000148643064496659723570000001748862494084218803_);}
	.st3{clip-path:url(#SVGID_00000070086895171584814320000016640499317719609223_);fill:none;}
	.st4{clip-path:url(#SVGID_00000134234424389871353420000001974315235913591743_);}
	
		.st5{clip-path:url(#SVGID_00000152954212948595760070000007533047354773219004_);fill:none;stroke:#CEFD94;stroke-width:4.0127;stroke-linecap:round;stroke-linejoin:round;}
	.st6{clip-path:url(#SVGID_00000176045206542671075280000008276990095356825771_);}
	
		.st7{clip-path:url(#SVGID_00000133514073391054849980000006055761882170321304_);fill:none;stroke:#CEFD94;stroke-width:2.508;stroke-linecap:round;stroke-linejoin:round;}
	.st8{clip-path:url(#SVGID_00000013156673736082434790000009848114541864556472_);}
	
		.st9{clip-path:url(#SVGID_00000141442198959653307260000013210386658390611626_);fill:none;stroke:#CEFD94;stroke-width:2.0064;stroke-linecap:round;stroke-linejoin:round;}
	.st10{clip-path:url(#SVGID_00000149382255972392293420000008553506459267802810_);}
	
		.st11{clip-path:url(#SVGID_00000057131445152742254000000014900757777709176493_);fill:none;stroke:#FF6A39;stroke-width:5.0159;stroke-linecap:round;stroke-linejoin:round;}
	.st12{clip-path:url(#SVGID_00000093891762144890930190000003188341031716213950_);}
	
		.st13{clip-path:url(#SVGID_00000125594891957364420060000000109394395327666827_);fill:none;stroke:#0A91AB;stroke-width:1.0032;stroke-linecap:round;stroke-linejoin:round;}
	.st14{clip-path:url(#SVGID_00000095330580464555096950000005864281339929368999_);}
	
		.st15{clip-path:url(#SVGID_00000089547374748560843560000003154523236197479345_);fill:none;stroke:#FFFEFB;stroke-width:1.0032;stroke-linecap:round;stroke-linejoin:round;}
	.st16{clip-path:url(#SVGID_00000006667307783991620570000012703883883331477140_);}
	
		.st17{clip-path:url(#SVGID_00000049182982587475193680000009286682491707936178_);fill:none;stroke:#FF6A39;stroke-width:10.0318;stroke-linecap:round;stroke-linejoin:round;}
</style>
<g>
	<rect y="152.5" class="st0" width="1440" height="548"/>
	<rect x="0" class="st1" width="1440" height="700.5"/>
	<g>
		<defs>
			<rect id="SVGID_1_" y="152.5" width="1440" height="548"/>
		</defs>
		<clipPath id="SVGID_00000115510204240043666910000011358259855067820457_">
			<use xlink:href="#SVGID_1_"  style="overflow:visible;"/>
		</clipPath>
	</g>
	<g>
		<defs>
			<rect id="SVGID_00000118362887229562641570000008920942630355829644_" y="152.5" width="1440" height="548"/>
		</defs>
		<defs>
			<rect id="SVGID_00000041992976516312297560000011541741593142758830_" width="1440" height="700.5"/>
		</defs>
		<clipPath id="SVGID_00000172431933024692510500000006126839169086892162_">
			<use xlink:href="#SVGID_00000118362887229562641570000008920942630355829644_"  style="overflow:visible;"/>
		</clipPath>
		
			<clipPath id="SVGID_00000130633997829900632370000009734456552930734978_" style="clip-path:url(#SVGID_00000172431933024692510500000006126839169086892162_);">
			<use xlink:href="#SVGID_00000041992976516312297560000011541741593142758830_"  style="overflow:visible;"/>
		</clipPath>
		
			<rect x="52.8" y="164.2" style="clip-path:url(#SVGID_00000130633997829900632370000009734456552930734978_);fill:none;" width="1440" height="548"/>
	</g>
	<g>
		<defs>
			<rect id="SVGID_00000022546570976842163320000003870060779985842581_" y="152.5" width="1440" height="548"/>
		</defs>
		<defs>
			<rect id="SVGID_00000023978677338337622180000016905787282581342608_" y="152.5" width="1440" height="548"/>
		</defs>
		<clipPath id="SVGID_00000176765539359907304240000012874246542092309662_">
			<use xlink:href="#SVGID_00000022546570976842163320000003870060779985842581_"  style="overflow:visible;"/>
		</clipPath>
		
			<clipPath id="SVGID_00000074425325162999011140000000182286166677881984_" style="clip-path:url(#SVGID_00000176765539359907304240000012874246542092309662_);">
			<use xlink:href="#SVGID_00000023978677338337622180000016905787282581342608_"  style="overflow:visible;"/>
		</clipPath>
		
			<path style="clip-path:url(#SVGID_00000074425325162999011140000000182286166677881984_);fill:none;stroke:#CEFD94;stroke-width:4.0127;stroke-linecap:round;stroke-linejoin:round;" d="
			M1565.3,311.5c-6.3,11.7-15.9,21.4-28,29.2c-19.7,12.8-39.7,25.1-58.4,39.3c-12.6,9.6-22.9,21.4-31.5,35
			c-15.5,24.6-21.5,51.6-22.1,80.2c-0.4,22-3.2,43.7-8.3,65.1c-2.2,9.1-6,18-6.5,27.5c-0.8,16,4.6,30.4,13,43.9
			c8.8,14,19.8,26.2,33.3,35.5c11.5,8,23.8,15.1,39.1,12.6c2.1-0.3,4.1-0.9,6-1.6c16.4-5.9,32.8-11.6,48.8-18.6
			c5-2.2,9.8-4.6,14.6-7.3"/>
	</g>
	<g>
		<defs>
			<rect id="SVGID_00000132063350824829529210000004523959954050312611_" y="152.5" width="1440" height="548"/>
		</defs>
		<defs>
			<rect id="SVGID_00000136391606337638501040000010824334799644496566_" y="152.5" width="1440" height="548"/>
		</defs>
		<clipPath id="SVGID_00000008865486677247694390000010733407278504679613_">
			<use xlink:href="#SVGID_00000132063350824829529210000004523959954050312611_"  style="overflow:visible;"/>
		</clipPath>
		
			<clipPath id="SVGID_00000093151270467917741270000013053017161222250648_" style="clip-path:url(#SVGID_00000008865486677247694390000010733407278504679613_);">
			<use xlink:href="#SVGID_00000136391606337638501040000010824334799644496566_"  style="overflow:visible;"/>
		</clipPath>
		
			<path style="clip-path:url(#SVGID_00000093151270467917741270000013053017161222250648_);fill:none;stroke:#CEFD94;stroke-width:2.508;stroke-linecap:round;stroke-linejoin:round;" d="
			M1565.3,367.1c-17.7,13.3-35.5,26.4-53.8,38.7c-13.1,8.8-24.6,19.1-33.6,31.8c-8.8,12.5-14.2,26.6-17.2,41.7
			c-4.8,23.7-8.7,47.6-10.6,71.8c-0.9,12.2-2,24.3-1.3,36.5c1.2,19.6,8.9,36.7,22.7,50.5c13.2,13.2,29.7,14.6,47,9.5
			c17.5-5.2,32.5-14.8,46.8-25.5"/>
	</g>
	<g>
		<defs>
			<rect id="SVGID_00000100380411332439687840000004608349517099212974_" y="152.5" width="1440" height="548"/>
		</defs>
		<defs>
			<rect id="SVGID_00000073702720023267475940000014574515079442857348_" y="152.5" width="1440" height="548"/>
		</defs>
		<clipPath id="SVGID_00000098922422384552101870000001466597204565849489_">
			<use xlink:href="#SVGID_00000100380411332439687840000004608349517099212974_"  style="overflow:visible;"/>
		</clipPath>
		
			<clipPath id="SVGID_00000113328942771110149690000003518227866379624118_" style="clip-path:url(#SVGID_00000098922422384552101870000001466597204565849489_);">
			<use xlink:href="#SVGID_00000073702720023267475940000014574515079442857348_"  style="overflow:visible;"/>
		</clipPath>
		
			<path style="clip-path:url(#SVGID_00000113328942771110149690000003518227866379624118_);fill:none;stroke:#CEFD94;stroke-width:2.0064;stroke-linecap:round;stroke-linejoin:round;" d="
			M1463.2,87.2c0.1,1.3,0.1,2.6,0.2,3.9c0.6,18.2-0.9,36.2-5.5,53.8c-2.2,8.6-5.7,16.8-10.1,24.7c-8.2,14.8-12.7,30.9-14.9,47.6
			c-2,14.5-9.7,25.8-19.7,35.7c-9.6,9.5-18.8,19.3-26.3,30.4c-2.5,3.7-5.1,7.5-7,11.7c-4.6,10.2-11,19.3-16.6,28.8
			c-4.8,8-9.9,15.8-15,23.5c-5.9,9.1-11.8,18.2-18.1,27c-3.5,4.8-6.5,10.1-9.7,15.2c-7,11.3-12.6,23.3-17.6,35.5
			c-9.6,23.3-13.5,47.2-6.2,72.1c2.9,10.1,4.6,20.2,2.8,31.1c-1.5,8.9-5.4,16.1-10.1,22.9c-4.1,5.9-7.8,12-11.5,18.1
			c-7.4,12.2-14.7,24.4-22.7,36.2c-4.4,6.6-10.1,12.1-14.2,19.1c-4.8,8-6.1,16.4-4.5,24.8c3.2,16.9,6.3,33.8,10.4,50.5
			c2.6,10.7,6.4,20.5,15.4,27.5c4.9,3.8,10.6,6.3,16.3,8.7c10.5,4.5,21,8.9,31.7,12.9c9.9,3.7,19.8,7.3,29.8,10.6
			c7.2,2.4,14.5,4.7,21.7,7.3c6.5,2.4,13.3,4,19.6,6.8c18.1,8,33.8,19.8,49.3,31.8c27.7,21.6,53.7,45.3,80.4,68
			c12,10.2,23.6,20.8,36.3,30.2c5.7,4.3,11.7,8,17.8,11.3"/>
	</g>
	<g>
		<defs>
			<rect id="SVGID_00000061474057418467499110000005809611325497152396_" y="152.5" width="1440" height="548"/>
		</defs>
		<defs>
			<rect id="SVGID_00000172423634665519770070000018181934624434815627_" y="152.5" width="1440" height="548"/>
		</defs>
		<clipPath id="SVGID_00000010272869847443023170000008796310421039006142_">
			<use xlink:href="#SVGID_00000061474057418467499110000005809611325497152396_"  style="overflow:visible;"/>
		</clipPath>
		
			<clipPath id="SVGID_00000171678492414316829070000010315854556361018786_" style="clip-path:url(#SVGID_00000010272869847443023170000008796310421039006142_);">
			<use xlink:href="#SVGID_00000172423634665519770070000018181934624434815627_"  style="overflow:visible;"/>
		</clipPath>
		
			<path style="clip-path:url(#SVGID_00000171678492414316829070000010315854556361018786_);fill:none;stroke:#FF6A39;stroke-width:5.0159;stroke-linecap:round;stroke-linejoin:round;" d="
			M1553.5,87.2c-4.4,19.3-6.4,39-4.7,59.4c2.1,24.3,3.4,48.7,1.6,73.1c-1.3,17.5-4.6,34.5-9.5,51.3c-1.7,5.8-3.3,11.6-5.6,17.2
			c-5,12.4-14.2,20.8-26,25.5c-22.9,9.3-42.5,23.8-61.9,38.5c-17.8,13.6-29.7,31.6-36.4,53.1c-2.6,8.4-7.2,16.2-11.1,24.2
			c-7.7,16-9.3,32.7-8,50.3c1.5,21,4.4,42,1,63.2c-1.6,9.6-4.4,18.7-9.2,26.9c-6.6,11.1-8.8,23.1-9.8,35.6
			c-1,12.6,0.7,24.7,5.9,36.3c4.4,9.8,11.5,17.4,20.3,23.2c12,7.9,24.7,14.7,37,22.1c7.8,4.7,14.6,11.1,22.8,15.4
			c13.2,6.9,26.6,7.2,40.5,3.1c21.9-6.5,43.5-13.8,64.8-22.1"/>
	</g>
	<g>
		<defs>
			<rect id="SVGID_00000114793276362452662090000017972237898471718036_" y="152.5" width="1440" height="548"/>
		</defs>
		<defs>
			<rect id="SVGID_00000174594765961386965510000004659280542411634607_" y="152.5" width="1440" height="548"/>
		</defs>
		<clipPath id="SVGID_00000080195625869799124700000011013730576979507619_">
			<use xlink:href="#SVGID_00000114793276362452662090000017972237898471718036_"  style="overflow:visible;"/>
		</clipPath>
		
			<clipPath id="SVGID_00000079466856286205530160000013858772671540983177_" style="clip-path:url(#SVGID_00000080195625869799124700000011013730576979507619_);">
			<use xlink:href="#SVGID_00000174594765961386965510000004659280542411634607_"  style="overflow:visible;"/>
		</clipPath>
		
			<path style="clip-path:url(#SVGID_00000079466856286205530160000013858772671540983177_);fill:none;stroke:#0A91AB;stroke-width:1.0032;stroke-linecap:round;stroke-linejoin:round;" d="
			M1492.9,87.2c0.5,9,0.5,18.1-0.3,27.1c-1.4,16.4-4.9,32.5-9.1,48.4c-5.7,21.9-11.3,43.9-14.6,66.4c-3.2,22-16.5,37.8-35.6,48.7
			c-8.6,4.9-16.2,10.7-22.9,18.1c-5.7,6.3-9.6,13.5-14.2,20.4c-4.4,6.7-8.4,13.7-12.8,20.4c-3.5,5.3-6.9,10.7-10.1,16.3
			c-4.5,7.9-9.9,15.3-14.7,23.1c-6.5,10.6-12.7,21.3-17.1,32.8c-4.7,12.2-8.5,24.6-10.7,37.6c-3.1,18.4-3.1,36.6-0.2,55
			c2.6,17,1.9,33.7-3.9,50.3c-4.1,11.7-10,22.1-16.4,32.6c-8.1,13.3-17.9,25.7-23.8,40.4c-12.1,30.5-9.7,63.3,19,88.2
			c8.6,7.4,19.1,12.3,30.3,15.8c13.3,4.1,26.5,8.3,39.8,12.1c22.5,6.4,44.9,13,65.7,23.8c11.9,6.2,24.2,9.5,37.3,9.9
			c8.6,0.2,17.1-1.5,25.7-2.4c14-1.6,18.3,2.3,17.5,16.6c-0.4,7.1-0.7,14.2-0.5,21.4c0.3,13.7,4.5,25.5,13.2,36.2
			c10,12.2,20,24.4,30.7,36"/>
	</g>
	<g>
		<defs>
			<rect id="SVGID_00000096768778899218707490000007521767339922312593_" y="152.5" width="1440" height="548"/>
		</defs>
		<defs>
			<rect id="SVGID_00000060711028055194167970000005602360218785276094_" y="152.5" width="1440" height="548"/>
		</defs>
		<clipPath id="SVGID_00000026127217691845740460000017018513202995472269_">
			<use xlink:href="#SVGID_00000096768778899218707490000007521767339922312593_"  style="overflow:visible;"/>
		</clipPath>
		
			<clipPath id="SVGID_00000095332929926202884680000001507822505827920548_" style="clip-path:url(#SVGID_00000026127217691845740460000017018513202995472269_);">
			<use xlink:href="#SVGID_00000060711028055194167970000005602360218785276094_"  style="overflow:visible;"/>
		</clipPath>
		
			<path style="clip-path:url(#SVGID_00000095332929926202884680000001507822505827920548_);fill:none;stroke:#FFFEFB;stroke-width:1.0032;stroke-linecap:round;stroke-linejoin:round;" d="
			M1565.3,405c-12.6,9.3-25.4,18.2-39.2,25.9c-14.7,8.1-25.9,20.3-33.2,35.9c-6.3,13.4-10.1,27.4-13.3,41.7
			c-6.1,27.4-7.9,55.1-4.6,82.8c2.2,18.2,14.2,26.6,30.5,29.1c12,1.8,22.9-2.9,32.9-9.1c9.3-5.7,18-12.2,26.9-18.3"/>
	</g>
	<g>
		<defs>
			<rect id="SVGID_00000129186506946340959020000017813678711671160723_" y="152.5" width="1440" height="548"/>
		</defs>
		<defs>
			<rect id="SVGID_00000061445805361621605480000006040345764231676305_" y="152.5" width="1440" height="548"/>
		</defs>
		<clipPath id="SVGID_00000182498096919380589950000013340539242544722333_">
			<use xlink:href="#SVGID_00000129186506946340959020000017813678711671160723_"  style="overflow:visible;"/>
		</clipPath>
		
			<clipPath id="SVGID_00000149369549255934287310000014858766755741951398_" style="clip-path:url(#SVGID_00000182498096919380589950000013340539242544722333_);">
			<use xlink:href="#SVGID_00000061445805361621605480000006040345764231676305_"  style="overflow:visible;"/>
		</clipPath>
		
			<path style="clip-path:url(#SVGID_00000149369549255934287310000014858766755741951398_);fill:none;stroke:#FF6A39;stroke-width:10.0318;stroke-linecap:round;stroke-linejoin:round;" d="
			M1522.8,87.2c0.1,3.1,0.3,6.2,0.6,9.3c1.1,13-1.4,26.4-3.6,39.4c-3.6,21.8-7.3,43.7-11.3,65.4c-2.1,11.3-2.8,22.8-4.9,34.2
			c-5.4,29.8-21.5,52.2-47.2,67.2c-19.5,11.4-35.9,26.1-49.8,43.6c-6.2,7.9-11.1,17-16.1,26c-6.7,11.9-13.4,23.7-19,36.1
			c-11.3,25.1-15.7,51.1-11.6,78.6c1.9,12.8,4.8,25.6,3.9,38.8c-0.5,7.6-2.7,14.7-4.5,22c-3.6,14.3-8.3,28.3-15.1,41.5
			c-3,5.8-6.2,11.6-8.9,17.4c-9.3,19.6-15.5,40.1-10.5,62.2c2.9,12.5,10.5,21.7,21.4,28.6c13.1,8.3,28.1,10.3,42.5,14.2
			c9.1,2.5,18.2,4.3,27.2,7.1c8.2,2.6,15.7,6.6,23.4,10.4c20.4,10.1,41.8,11.9,63.5,5c16.6-5.2,33.3-7.9,50.7-4.5
			c3.9,0.8,7.8,1.8,11.8,2.6"/>
	</g>
</g>
</svg>
