<?xml version="1.0" encoding="UTF-8"?> <svg xmlns="http://www.w3.org/2000/svg" width="1250" height="606" viewBox="0 0 1250 606" fill="none"><path fill-rule="evenodd" clip-rule="evenodd" d="M1049.7 263.547L793.947 217.665V409.78L1049.7 363.375V263.547ZM1062.9 360.98L1189.07 338.087C1201.04 335.914 1209.75 325.487 1209.75 313.318C1209.75 301.13 1201.02 290.693 1189.02 288.541L1062.9 265.915V360.98ZM548.097 173.56L780.747 215.297V412.175L548.097 454.388V173.56ZM534.897 171.192L269.247 123.534V504.985L534.897 456.783V171.192ZM0.29657 75.2844L256.047 121.166V507.38L0.29657 553.785V75.2844Z" fill="#0C2233"></path><path fill-rule="evenodd" clip-rule="evenodd" d="M1049.7 244.804L793.947 198.018V201.373L1049.7 248.159V244.804ZM1062.9 250.573L1209.45 277.383L1210.04 274.137L1062.9 247.219V250.573ZM548.097 153.044L780.747 195.603V198.958L548.097 156.398V153.044ZM534.897 150.629L269.247 102.032V105.387L534.897 153.984V150.629ZM1.41891 53.0369L256.047 99.6173V102.972L0.825073 56.283L1.41891 53.0369Z" fill="#0C2233"></path><path fill-rule="evenodd" clip-rule="evenodd" d="M534.897 475.761L6.10352e-05 573.612L0.593893 576.858L534.897 479.115V475.761ZM548.097 476.701L1209.22 355.758L1208.63 352.512L548.097 473.346V476.701Z" fill="#0C2233"></path><path d="M67.2888 31.3031L63.4683 30.6031L67.7993 25.8979C67.3543 26.8497 66.8833 27.809 66.3863 28.7759C65.9132 29.7471 65.414 30.7259 64.8889 31.7122C64.3919 32.6791 63.8689 33.6535 63.32 34.6354L57.5299 45.0887L50.9243 43.8785L62.8117 23.9139L70.417 25.3073L74.4187 48.1829L67.5275 46.9204L65.9265 35.113C65.7851 34.0045 65.6416 32.908 65.4959 31.8234C65.3783 30.7193 65.2683 29.6413 65.1658 28.5892C65.0677 27.5133 64.9912 26.4536 64.9363 25.4103L67.2888 31.3031ZM68.6292 43.727L57.4176 41.673L58.3596 36.5313L69.5712 38.5854L68.6292 43.727ZM91.6482 33.6993L91.5836 40.6993C91.5794 42.1993 91.5211 43.7263 91.4086 45.2803C91.3005 46.8104 91.1749 48.4358 91.0319 50.1564L91.063 46.361L92.3484 46.5965L90.2821 50.019C90.7108 48.3508 91.1749 46.8243 91.6746 45.4397C92.1981 44.0595 92.7272 42.5818 93.2618 41.0068L95.5402 34.4124L101.467 35.4983L94.02 51.7741L86.4861 50.3938L86.7072 42.9427C86.7566 41.5987 86.8483 40.2254 86.9822 38.823C87.1399 37.4249 87.3377 36.0096 87.5756 34.577L87.9705 37.86L86.3638 37.5656L87.7898 34.6162C87.5218 35.9449 87.1715 37.32 86.7388 38.7415C86.3343 40.1435 85.931 41.472 85.5289 42.7269L83.3083 49.8116L75.703 48.4182L74.5095 30.5594L80.758 31.7041L80.8362 38.7303C80.8773 40.3862 80.86 41.9576 80.7844 43.4445C80.737 44.912 80.6179 46.5017 80.4273 48.2135L79.7443 44.2873L81.0297 44.5228L79.7132 48.0827C80.2133 46.4275 80.684 44.8654 81.1254 43.3963C81.5711 41.9034 82.046 40.4527 82.5501 39.0443L84.9713 32.4761L91.6482 33.6993ZM102.935 53.7765C102.031 53.6108 101.23 53.2796 100.534 52.783C99.8422 52.2626 99.328 51.5779 98.9914 50.729C98.6787 49.8844 98.627 48.8908 98.8364 47.7482C99.1198 46.201 99.8443 45.0667 101.01 44.3453C102.18 43.6001 103.943 43.4434 106.299 43.8751L110.584 44.6601L110.136 47.3089L106.851 46.7071C106.351 46.6155 105.922 46.6723 105.565 46.8774C105.231 47.0869 105.032 47.3702 104.966 47.7273C104.918 47.9891 104.934 48.2381 105.014 48.4741C105.094 48.7101 105.266 48.9138 105.529 49.0852C105.817 49.2609 106.199 49.3924 106.675 49.4796C107.151 49.5668 107.585 49.5479 107.977 49.4229C108.369 49.2979 108.691 49.0862 108.942 48.7878C109.222 48.47 109.401 48.0969 109.479 47.6684L110.186 43.8122C110.304 43.1695 110.224 42.6629 109.948 42.2924C109.699 41.9024 109.242 41.6464 108.575 41.5243C108.052 41.4284 107.563 41.4742 107.111 41.6619C106.686 41.8302 106.347 42.2724 106.093 42.9885L100.56 41.1628C100.879 40.0897 101.384 39.1488 102.073 38.3402C102.791 37.5121 103.771 36.9291 105.014 36.5909C106.261 36.2289 107.849 36.2246 109.777 36.5778C111.61 36.9136 113.047 37.4599 114.09 38.2168C115.132 38.9736 115.821 39.9118 116.157 41.0313C116.493 42.1508 116.528 43.4365 116.262 44.8886L114.32 55.4932L108.25 54.3811L109.283 48.7396L109.924 50.4807L108.531 50.2256L109.866 47.3702C109.516 48.8806 109.036 50.1581 108.426 51.2027C107.821 52.2236 107.069 52.9715 106.17 53.4465C105.275 53.8976 104.197 54.0077 102.935 53.7765ZM124.072 46.4669L125.036 46.6436L124.339 48.029C124.917 46.2159 125.447 44.7999 125.929 43.7811C126.415 42.7385 126.885 41.988 127.338 41.5297C127.791 41.0715 128.257 40.8124 128.735 40.7524C129.218 40.6686 129.745 40.6791 130.316 40.7837L130.995 40.908L129.713 47.9064L127.606 47.5204C126.797 47.3721 126.153 47.328 125.674 47.3879C125.224 47.4284 124.883 47.612 124.651 47.9385C124.443 48.2694 124.275 48.78 124.149 49.4703L122.762 57.0399L116.692 55.9278L119.819 38.8605L125.889 39.9726L124.417 48.0064L124.072 46.4669ZM138.016 60.3881C136.326 60.0785 134.871 59.4921 133.651 58.629C132.436 57.7421 131.563 56.598 131.033 55.1969C130.506 53.7719 130.418 52.1073 130.767 50.203C131.137 48.1797 131.785 46.5268 132.708 45.2445C133.66 43.9428 134.873 43.0331 136.345 42.5156C137.818 41.9981 139.518 41.916 141.446 42.2693C143.255 42.6007 144.666 43.2282 145.677 44.1516C146.694 45.0513 147.364 46.1582 147.689 47.4725C148.042 48.7674 148.077 50.1884 147.794 51.7357C147.715 52.1641 147.648 52.5331 147.591 52.8426C147.558 53.1564 147.474 53.5469 147.34 54.0143L134.985 51.7509L135.463 49.1444L143.639 50.6424L142.132 51.2151C142.478 49.9991 142.487 49.0781 142.159 48.4521C141.859 47.8067 141.256 47.4011 140.352 47.2354C139.352 47.0522 138.572 47.2167 138.01 47.729C137.477 48.2218 137.073 49.218 136.798 50.7176C136.532 52.1696 136.571 53.2346 136.914 53.9126C137.286 54.5711 137.995 54.9963 139.042 55.1882C139.614 55.2929 140.067 55.3021 140.403 55.216C140.767 55.1104 141.056 54.942 141.27 54.7107C141.509 54.4837 141.704 54.2242 141.856 53.9322L146.765 56.3447C146.324 57.2727 145.73 58.0987 144.982 58.8228C144.235 59.547 143.291 60.063 142.152 60.371C141.013 60.679 139.635 60.6847 138.016 60.3881ZM155.578 50.4309L157.042 50.6991L155.966 51.5353C156.537 49.8932 157.17 48.6559 157.864 47.8235C158.558 46.9911 159.306 46.464 160.109 46.2421C160.913 46.0203 161.767 45.9922 162.671 46.1579C163.742 46.3542 164.591 46.7558 165.218 47.3627C165.85 47.9458 166.263 48.7104 166.459 49.6566C166.659 50.5789 166.646 51.659 166.419 52.8968L164.267 64.644L158.197 63.5319L160.015 53.6057C160.102 53.1296 160.091 52.7216 159.981 52.3816C159.899 52.0222 159.719 51.7308 159.44 51.5075C159.189 51.2647 158.838 51.1019 158.385 51.0191C157.933 50.9362 157.535 50.9616 157.191 51.0954C156.851 51.2053 156.567 51.4116 156.339 51.7144C156.116 51.9933 155.96 52.3708 155.873 52.8469L154.055 62.7731L147.985 61.661L151.112 44.5936L157.182 45.7057L156.109 51.5615L155.578 50.4309ZM174.853 67.137C173.163 66.8274 171.708 66.241 170.488 65.3779C169.273 64.491 168.4 63.3469 167.869 61.9458C167.343 60.5208 167.255 58.8562 167.603 56.9519C167.974 54.9286 168.621 53.2757 169.545 51.9934C170.497 50.6917 171.709 49.782 173.182 49.2645C174.655 48.747 176.355 48.6649 178.283 49.0182C180.092 49.3496 181.503 49.977 182.514 50.9005C183.53 51.8001 184.201 52.9071 184.526 54.2214C184.879 55.5163 184.914 56.9373 184.631 58.4846C184.552 58.913 184.485 59.282 184.428 59.5914C184.395 59.9053 184.311 60.2958 184.176 60.7632L171.822 58.4998L172.3 55.8933L180.476 57.3913L178.969 57.9639C179.315 56.748 179.324 55.827 178.996 55.201C178.696 54.5555 178.093 54.15 177.189 53.9843C176.189 53.8011 175.408 53.9656 174.847 54.4779C174.314 54.9706 173.91 55.9669 173.635 57.4665C173.369 58.9185 173.408 59.9835 173.751 60.6615C174.123 61.32 174.832 61.7452 175.879 61.9371C176.451 62.0418 176.904 62.051 177.24 61.9649C177.603 61.8593 177.893 61.6909 178.107 61.4596C178.346 61.2326 178.541 60.9731 178.693 60.6811L183.602 63.0936C183.161 64.0216 182.567 64.8476 181.819 65.5717C181.071 66.2958 180.128 66.8119 178.989 67.1199C177.85 67.4279 176.471 67.4336 174.853 67.137ZM192.257 70.3257C190.234 69.955 188.699 69.4032 187.652 68.6702C186.634 67.9177 185.953 67.0672 185.61 66.1187C185.268 65.1702 185.124 64.2089 185.179 63.235L191.023 63.1617C191.066 63.7353 191.162 64.2203 191.31 64.6166C191.487 64.9935 191.727 65.2958 192.03 65.5234C192.361 65.7317 192.753 65.8772 193.205 65.9601C193.752 66.0604 194.17 66.0631 194.458 65.9683C194.75 65.8496 194.939 65.6258 195.024 65.297C195.063 65.0827 195.027 64.8792 194.914 64.6864C194.802 64.4936 194.535 64.2725 194.113 64.023C193.72 63.7541 193.088 63.4415 192.218 63.0854C190.622 62.3992 189.393 61.719 188.533 61.0447C187.677 60.3465 187.098 59.6131 186.796 58.8443C186.522 58.056 186.472 57.1858 186.646 56.2337C186.965 54.496 187.842 53.2666 189.278 52.5456C190.718 51.8008 192.712 51.6617 195.259 52.1284C197.021 52.4511 198.41 52.927 199.426 53.5561C200.443 54.1851 201.167 54.9329 201.598 55.7993C202.03 56.6656 202.236 57.6259 202.215 58.68L196.195 58.9056C196.202 58.1935 196.072 57.6284 195.804 57.2103C195.536 56.7922 195.081 56.5242 194.438 56.4065C193.939 56.3149 193.542 56.3284 193.25 56.4471C192.962 56.542 192.79 56.7441 192.733 57.0536C192.694 57.2678 192.704 57.4788 192.765 57.6867C192.849 57.899 193.111 58.1439 193.553 58.4216C193.998 58.6754 194.735 59.0195 195.762 59.4538C197.387 60.1204 198.601 60.8104 199.406 61.5236C200.21 62.2368 200.713 62.981 200.916 63.7562C201.146 64.5119 201.185 65.3063 201.033 66.1395C200.823 67.2821 200.366 68.2317 199.662 68.9883C198.985 69.7255 198.035 70.2155 196.809 70.4585C195.584 70.7014 194.066 70.6572 192.257 70.3257ZM209.438 73.4734C207.415 73.1027 205.88 72.5508 204.833 71.8178C203.815 71.0654 203.134 70.2149 202.791 69.2664C202.448 68.3178 202.304 67.3566 202.36 66.3826L208.204 66.3093C208.247 66.883 208.342 67.368 208.491 67.7643C208.668 68.1411 208.908 68.4434 209.211 68.6711C209.542 68.8793 209.933 69.0249 210.385 69.1077C210.933 69.2081 211.351 69.2108 211.639 69.1159C211.931 68.9973 212.12 68.7735 212.204 68.4446C212.244 68.2304 212.207 68.0269 212.095 67.8341C211.983 67.6413 211.716 67.4201 211.294 67.1706C210.9 66.9017 210.269 66.5892 209.399 66.233C207.802 65.5469 206.574 64.8667 205.713 64.1923C204.857 63.4942 204.278 62.7607 203.976 61.9919C203.702 61.2037 203.653 60.3335 203.827 59.3813C204.145 57.6436 205.023 56.4143 206.459 55.6933C207.899 54.9485 209.893 54.8094 212.44 55.276C214.201 55.5987 215.59 56.0746 216.607 56.7037C217.623 57.3328 218.347 58.0805 218.779 58.9469C219.211 59.8133 219.416 60.7735 219.395 61.8276L213.375 62.0533C213.383 61.3412 213.253 60.7761 212.985 60.3579C212.717 59.9398 212.262 59.6719 211.619 59.5542C211.119 59.4626 210.723 59.4761 210.431 59.5948C210.143 59.6896 209.97 59.8918 209.914 60.2012C209.874 60.4154 209.885 60.6265 209.945 60.8344C210.029 61.0466 210.292 61.2916 210.733 61.5692C211.179 61.8231 211.915 62.1671 212.943 62.6014C214.568 63.2681 215.782 63.9581 216.586 64.6713C217.39 65.3845 217.894 66.1287 218.096 66.9038C218.327 67.6596 218.366 68.454 218.213 69.2871C218.004 70.4297 217.547 71.3793 216.842 72.1359C216.166 72.8731 215.215 73.3632 213.99 73.6061C212.764 73.8491 211.247 73.8048 209.438 73.4734Z" fill="#0C2233"></path><path d="M228.306 554.989L234.733 553.812L238.658 575.236L232.23 576.413L228.306 554.989ZM245.046 561.961L245.334 563.532L240.889 563.239C243.031 562.847 244.728 562.708 245.979 562.823C247.254 562.934 248.202 563.339 248.821 564.037C249.461 564.707 249.903 565.709 250.147 567.042C250.365 568.232 250.281 569.318 249.895 570.299C249.508 571.28 248.766 572.129 247.667 572.847C246.564 573.541 245.025 574.069 243.049 574.431L234.48 576.001L233.499 570.645L241.676 569.147C242.366 569.021 242.854 568.796 243.139 568.473C243.42 568.126 243.519 567.727 243.436 567.275C243.371 566.918 243.259 566.643 243.101 566.45C242.938 566.234 242.693 566.107 242.366 566.068C242.059 566.002 241.631 566.018 241.084 566.119L233.407 567.525L232.557 562.883L239.484 561.614C240.031 561.514 240.451 561.388 240.743 561.236C241.055 561.056 241.262 560.846 241.366 560.605C241.489 560.337 241.515 560.012 241.446 559.631C241.35 559.107 241.115 558.769 240.743 558.616C240.366 558.439 239.761 558.427 238.928 558.579L231.822 559.881L230.841 554.525L238.125 553.191C241.077 552.65 243.3 552.698 244.794 553.335C246.289 553.971 247.208 555.23 247.553 557.11C247.801 558.467 247.683 559.633 247.197 560.607C246.731 561.554 245.927 562.341 244.788 562.968C243.643 563.571 242.207 564.056 240.478 564.421L245.046 561.961ZM256.685 561.12L257.65 560.944L257.489 562.486C257.387 560.586 257.381 559.074 257.47 557.951C257.555 556.803 257.728 555.935 257.99 555.346C258.251 554.757 258.594 554.35 259.02 554.124C259.442 553.874 259.939 553.697 260.51 553.593L261.188 553.468L262.47 560.467L260.364 560.853C259.554 561.001 258.937 561.188 258.511 561.414C258.104 561.611 257.85 561.904 257.749 562.291C257.671 562.674 257.696 563.211 257.822 563.901L259.209 571.471L253.139 572.583L250.012 555.516L256.083 554.404L257.554 562.438L256.685 561.12ZM270.457 569.78C269.553 569.945 268.687 569.92 267.86 569.702C267.028 569.461 266.305 569.003 265.689 568.328C265.097 567.649 264.697 566.739 264.487 565.596C264.204 564.049 264.479 562.731 265.313 561.644C266.143 560.532 267.736 559.761 270.093 559.329L274.378 558.544L274.897 561.18L271.612 561.781C271.112 561.873 270.732 562.078 270.47 562.397C270.233 562.711 270.146 563.046 270.212 563.403C270.26 563.665 270.363 563.892 270.521 564.085C270.679 564.277 270.912 564.407 271.22 564.474C271.551 564.536 271.955 564.523 272.431 564.436C272.907 564.349 273.306 564.177 273.628 563.922C273.95 563.666 274.176 563.354 274.305 562.986C274.454 562.589 274.489 562.177 274.411 561.749L273.705 557.892C273.587 557.25 273.333 556.804 272.943 556.556C272.573 556.279 272.054 556.202 271.388 556.324C270.864 556.42 270.424 556.636 270.067 556.972C269.73 557.28 269.569 557.813 269.585 558.573L263.764 558.827C263.683 557.711 263.821 556.652 264.179 555.652C264.556 554.623 265.266 553.73 266.308 552.973C267.346 552.193 268.829 551.626 270.758 551.273C272.59 550.937 274.128 550.938 275.371 551.276C276.614 551.615 277.591 552.248 278.302 553.175C279.013 554.103 279.502 555.293 279.768 556.745L281.711 567.349L275.641 568.461L274.607 562.82L275.823 564.221L274.431 564.476L274.667 561.333C274.875 562.869 274.878 564.234 274.679 565.427C274.475 566.596 274.037 567.562 273.364 568.325C272.688 569.064 271.719 569.549 270.457 569.78ZM287.202 553.722L288.666 553.454L287.957 554.617C287.909 552.879 288.062 551.498 288.415 550.474C288.769 549.45 289.282 548.691 289.955 548.199C290.627 547.707 291.416 547.378 292.32 547.212C293.391 547.016 294.328 547.091 295.129 547.436C295.926 547.757 296.584 548.326 297.102 549.141C297.616 549.933 297.986 550.947 298.213 552.185L300.365 563.932L294.295 565.044L292.477 555.118C292.389 554.642 292.234 554.264 292.011 553.985C291.807 553.678 291.535 553.47 291.195 553.36C290.875 553.222 290.488 553.194 290.036 553.277C289.584 553.36 289.22 553.525 288.946 553.772C288.667 553.995 288.474 554.289 288.369 554.653C288.259 554.993 288.248 555.401 288.335 555.877L290.153 565.803L284.083 566.915L280.957 549.847L287.027 548.736L288.099 554.591L287.202 553.722ZM300.693 555.2C300.157 552.272 300.23 549.921 300.914 548.148C301.618 546.346 302.945 545.266 304.897 544.909C305.802 544.743 306.644 544.773 307.423 544.999C308.203 545.226 308.927 545.757 309.597 546.594C310.291 547.426 310.924 548.664 311.495 550.306L311.752 552.916C311.547 551.797 311.176 550.979 310.638 550.463C310.096 549.922 309.421 549.726 308.611 549.875C307.659 550.049 307.042 550.506 306.759 551.247C306.496 551.96 306.471 552.899 306.685 554.065C306.886 555.16 307.233 555.982 307.727 556.532C308.245 557.076 308.98 557.262 309.933 557.087C310.48 556.987 310.908 556.773 311.217 556.446C311.55 556.114 311.766 555.681 311.865 555.146C311.964 554.611 311.948 553.987 311.817 553.273L312.476 555.662C312.517 556.958 312.435 558.056 312.23 558.954C312.026 559.853 311.729 560.584 311.341 561.147C310.952 561.71 310.477 562.142 309.917 562.441C309.357 562.74 308.731 562.953 308.041 563.08C306.161 563.424 304.588 562.9 303.325 561.508C302.085 560.111 301.208 558.009 300.693 555.2ZM313.335 561.557L312.288 555.844L309.325 539.669L315.395 538.557L319.405 560.445L313.335 561.557ZM313.079 557.138L312.222 557.295L311.999 556.081L312.856 555.924L313.079 557.138ZM311.689 549.754L310.832 549.911L310.643 548.875L311.5 548.718L311.689 549.754Z" fill="#0C2233"></path><path d="M784.423 458.329L786.42 453.313L790.122 473.523L783.695 474.7L779.771 453.276L788.59 451.661C790.637 451.286 792.372 451.288 793.794 451.667C795.236 452.018 796.388 452.73 797.249 453.802C798.109 454.875 798.701 456.292 799.024 458.053C799.29 459.505 799.191 460.913 798.727 462.277C798.283 463.614 797.486 464.768 796.336 465.742C795.185 466.715 793.67 467.374 791.79 467.718L786.469 468.693L785.423 462.98L790.029 462.136C790.933 461.971 791.577 461.656 791.96 461.192C792.361 460.7 792.491 460.062 792.347 459.276C792.251 458.752 792.065 458.344 791.79 458.05C791.515 457.756 791.147 457.564 790.688 457.476C790.249 457.36 789.72 457.359 789.101 457.472L784.423 458.329ZM811.558 470.15C809.868 470.459 808.3 470.427 806.853 470.052C805.402 469.653 804.181 468.893 803.188 467.771C802.191 466.625 801.518 465.1 801.169 463.196C800.798 461.172 800.817 459.397 801.227 457.871C801.655 456.316 802.467 455.036 803.66 454.03C804.854 453.024 806.414 452.345 808.342 451.991C810.152 451.66 811.693 451.747 812.966 452.252C814.235 452.733 815.255 453.53 816.025 454.644C816.814 455.729 817.35 457.046 817.634 458.593C817.712 459.021 817.78 459.39 817.836 459.7C817.917 460.005 817.977 460.4 818.017 460.885L805.662 463.148L805.185 460.541L813.361 459.043L812.155 460.113C812.047 458.853 811.729 457.989 811.2 457.52C810.691 457.023 809.984 456.857 809.08 457.023C808.08 457.206 807.408 457.637 807.065 458.315C806.741 458.964 806.717 460.039 806.991 461.539C807.257 462.991 807.671 463.973 808.232 464.485C808.813 464.969 809.627 465.115 810.674 464.924C811.246 464.819 811.673 464.667 811.956 464.467C812.259 464.24 812.47 463.98 812.588 463.687C812.731 463.391 812.821 463.079 812.86 462.752L818.305 463.267C818.222 464.291 817.959 465.274 817.517 466.216C817.075 467.159 816.375 467.976 815.42 468.667C814.464 469.359 813.177 469.853 811.558 470.15ZM824.877 456.343L825.841 456.167L825.681 457.709C825.579 455.809 825.573 454.297 825.662 453.174C825.747 452.026 825.92 451.158 826.181 450.569C826.442 449.98 826.786 449.573 827.212 449.347C827.634 449.097 828.13 448.92 828.702 448.816L829.38 448.691L830.662 455.69L828.555 456.076C827.746 456.224 827.128 456.411 826.702 456.637C826.296 456.834 826.042 457.127 825.94 457.514C825.863 457.897 825.887 458.434 826.014 459.124L827.4 466.694L821.33 467.806L818.204 450.739L824.274 449.627L825.746 457.661L824.877 456.343ZM838.539 446.719L841.717 464.072L835.647 465.184L832.475 447.866C832.279 446.795 832.331 445.801 832.63 444.885C832.926 443.946 833.506 443.151 834.371 442.5C835.255 441.821 836.435 441.347 837.911 441.077C838.601 440.95 839.141 440.876 839.531 440.854C839.944 440.827 840.324 440.819 840.67 440.829L841.036 445.043C840.79 445.039 840.547 445.059 840.309 445.103C840.091 445.118 839.874 445.145 839.66 445.185C839.279 445.254 838.975 445.409 838.748 445.647C838.521 445.885 838.451 446.243 838.539 446.719ZM830.7 448.45L841.305 446.507L842.22 451.506L831.615 453.449L830.7 448.45ZM854.561 462.273C852.704 462.613 851.032 462.55 849.545 462.084C848.076 461.591 846.849 460.733 845.863 459.511C844.9 458.285 844.246 456.732 843.902 454.851C843.553 452.947 843.612 451.251 844.077 449.764C844.567 448.272 845.412 447.046 846.615 446.088C847.841 445.125 849.382 444.474 851.239 444.134C853.072 443.798 854.72 443.865 856.184 444.335C857.648 444.805 858.861 445.653 859.823 446.879C860.81 448.101 861.478 449.664 861.826 451.568C862.345 454.401 861.956 456.773 860.657 458.683C859.354 460.57 857.322 461.767 854.561 462.273ZM852.21 449.639C851.258 449.814 850.593 450.28 850.215 451.038C849.857 451.768 849.776 452.668 849.972 453.74C850.103 454.454 850.323 455.053 850.633 455.537C850.944 456.022 851.341 456.38 851.826 456.611C852.331 456.813 852.893 456.858 853.512 456.745C854.464 456.57 855.119 456.118 855.477 455.388C855.86 454.654 855.953 453.751 855.756 452.68C855.626 451.966 855.405 451.367 855.095 450.882C854.78 450.374 854.383 450.016 853.902 449.809C853.417 449.578 852.853 449.521 852.21 449.639ZM868.853 448.288L869.817 448.112L869.656 449.654C869.554 447.754 869.548 446.242 869.637 445.118C869.723 443.971 869.896 443.103 870.157 442.514C870.418 441.925 870.762 441.517 871.188 441.292C871.609 441.042 872.106 440.865 872.677 440.761L873.356 440.636L874.638 447.635L872.531 448.021C871.722 448.169 871.104 448.356 870.678 448.581C870.271 448.779 870.017 449.071 869.916 449.459C869.838 449.842 869.863 450.379 869.989 451.069L871.376 458.639L865.306 459.751L862.18 442.683L868.25 441.572L869.721 449.605L868.853 448.288ZM891.668 442.301L893.132 442.033L892.423 443.196C892.375 441.458 892.528 440.077 892.881 439.052C893.235 438.028 893.748 437.27 894.421 436.778C895.093 436.285 895.882 435.957 896.786 435.791C897.857 435.595 898.794 435.669 899.595 436.014C900.392 436.336 901.05 436.904 901.568 437.72C902.082 438.511 902.453 439.526 902.679 440.764L904.831 452.511L898.761 453.623L896.943 443.697C896.856 443.22 896.7 442.843 896.477 442.564C896.273 442.257 896.001 442.048 895.661 441.938C895.341 441.8 894.954 441.773 894.502 441.856C894.05 441.938 893.686 442.103 893.412 442.351C893.133 442.574 892.941 442.867 892.835 443.231C892.725 443.571 892.714 443.979 892.801 444.455L892.087 444.586L891.668 442.301ZM881.456 444.171L882.92 443.903L882.211 445.067C882.163 443.328 882.316 441.947 882.67 440.923C883.023 439.899 883.536 439.14 884.209 438.648C884.881 438.156 885.67 437.827 886.574 437.661C887.646 437.465 888.582 437.54 889.383 437.885C890.18 438.206 890.838 438.775 891.356 439.59C891.87 440.382 892.241 441.396 892.467 442.634L892.696 443.884L894.619 454.381L888.549 455.493L886.731 445.567C886.644 445.091 886.488 444.713 886.265 444.435C886.061 444.127 885.789 443.919 885.449 443.809C885.129 443.671 884.742 443.643 884.29 443.726C883.838 443.809 883.474 443.974 883.2 444.221C882.921 444.444 882.729 444.738 882.623 445.102C882.513 445.442 882.502 445.85 882.589 446.326L884.407 456.252L878.337 457.364L875.211 440.296L881.281 439.185L882.354 445.04L881.456 444.171ZM911.765 451.61C910.861 451.776 909.995 451.75 909.168 451.532C908.336 451.291 907.613 450.833 906.997 450.158C906.405 449.479 906.005 448.569 905.795 447.426C905.512 445.879 905.787 444.561 906.621 443.474C907.451 442.362 909.044 441.591 911.401 441.159L915.685 440.374L916.205 443.01L912.92 443.611C912.42 443.703 912.04 443.908 911.778 444.227C911.54 444.541 911.454 444.876 911.52 445.233C911.568 445.495 911.671 445.722 911.829 445.915C911.987 446.107 912.22 446.237 912.528 446.304C912.859 446.366 913.263 446.353 913.739 446.266C914.215 446.179 914.614 446.008 914.936 445.752C915.258 445.496 915.484 445.184 915.613 444.816C915.762 444.419 915.797 444.007 915.719 443.579L915.013 439.722C914.895 439.08 914.641 438.634 914.251 438.386C913.881 438.109 913.362 438.032 912.696 438.154C912.172 438.25 911.732 438.466 911.375 438.802C911.038 439.11 910.877 439.643 910.893 440.403L905.072 440.657C904.991 439.541 905.129 438.482 905.487 437.482C905.864 436.453 906.574 435.56 907.616 434.803C908.654 434.023 910.137 433.456 912.065 433.103C913.898 432.767 915.436 432.768 916.679 433.106C917.922 433.445 918.899 434.078 919.61 435.005C920.321 435.933 920.81 437.123 921.076 438.575L923.018 449.179L916.948 450.291L915.915 444.65L917.131 446.051L915.739 446.306L915.975 443.163C916.182 444.699 916.186 446.064 915.987 447.257C915.783 448.426 915.344 449.392 914.672 450.155C913.996 450.894 913.027 451.379 911.765 451.61ZM928.51 435.552L929.974 435.284L929.264 436.448C929.217 434.709 929.37 433.328 929.723 432.304C930.077 431.28 930.59 430.521 931.263 430.029C931.935 429.537 932.724 429.208 933.628 429.042C934.699 428.846 935.636 428.921 936.437 429.266C937.234 429.587 937.892 430.156 938.41 430.971C938.924 431.763 939.294 432.777 939.521 434.015L941.673 445.762L935.603 446.874L933.785 436.948C933.697 436.472 933.542 436.094 933.319 435.816C933.115 435.508 932.843 435.3 932.503 435.19C932.183 435.052 931.796 435.024 931.344 435.107C930.892 435.19 930.528 435.355 930.254 435.602C929.975 435.825 929.782 436.119 929.677 436.483C929.567 436.823 929.556 437.231 929.643 437.707L931.461 447.633L925.391 448.745L922.265 431.677L928.335 430.566L929.407 436.421L928.51 435.552ZM953.299 434.038C953.112 433.555 952.884 433.117 952.616 432.724C952.347 432.33 952.01 432.035 951.605 431.839C951.223 431.638 950.759 431.588 950.212 431.688C949.45 431.827 948.857 432.219 948.434 432.862C948.03 433.478 947.943 434.416 948.175 435.678C948.327 436.511 948.561 437.182 948.875 437.69C949.209 438.17 949.603 438.504 950.055 438.691C950.527 438.851 951.025 438.883 951.549 438.787C952.072 438.691 952.477 438.482 952.762 438.159C953.048 437.836 953.244 437.431 953.352 436.944C953.479 436.428 953.533 435.852 953.515 435.216L959.531 435.221C959.736 437.546 959.31 439.518 958.253 441.139C957.197 442.759 955.336 443.813 952.67 444.302C950.861 444.633 949.219 444.602 947.744 444.208C946.27 443.813 945.032 443.031 944.03 441.862C943.048 440.664 942.372 439.053 942.001 437.03C941.643 435.078 941.697 433.358 942.163 431.871C942.624 430.359 943.456 429.124 944.658 428.166C945.88 427.18 947.407 426.518 949.24 426.183C951.144 425.834 952.722 425.852 953.974 426.238C955.245 426.596 956.28 427.28 957.081 428.289C957.881 429.299 958.522 430.584 959.004 432.144L953.299 434.038ZM971.275 440.894C969.585 441.203 968.017 441.171 966.57 440.796C965.12 440.397 963.898 439.637 962.905 438.515C961.908 437.369 961.235 435.844 960.886 433.94C960.515 431.916 960.535 430.141 960.944 428.615C961.373 427.06 962.184 425.78 963.377 424.774C964.571 423.768 966.131 423.089 968.06 422.735C969.869 422.404 971.41 422.491 972.683 422.996C973.952 423.477 974.972 424.274 975.742 425.388C976.531 426.473 977.067 427.79 977.351 429.337C977.429 429.765 977.497 430.134 977.554 430.444C977.634 430.749 977.694 431.144 977.734 431.629L965.379 433.892L964.902 431.285L973.079 429.787L971.872 430.857C971.764 429.598 971.446 428.733 970.917 428.264C970.408 427.767 969.701 427.601 968.797 427.767C967.797 427.95 967.125 428.381 966.782 429.059C966.458 429.708 966.434 430.783 966.708 432.283C966.974 433.735 967.388 434.717 967.949 435.229C968.53 435.713 969.344 435.859 970.391 435.668C970.963 435.563 971.39 435.411 971.673 435.211C971.976 434.984 972.187 434.724 972.305 434.431C972.448 434.135 972.538 433.823 972.577 433.496L978.022 434.011C977.939 435.035 977.677 436.018 977.234 436.961C976.792 437.903 976.092 438.72 975.137 439.411C974.181 440.103 972.894 440.597 971.275 440.894Z" fill="#0C2233"></path><path d="M323.128 76.4954L326.773 72.5132L323.07 92.7227L316.643 91.5452L320.568 70.1217L329.387 71.7375C331.434 72.1126 333.056 72.7295 334.252 73.5883C335.476 74.4276 336.3 75.5012 336.725 76.8091C337.149 78.1171 337.2 79.6518 336.878 81.4133C336.612 82.8653 336.02 84.147 335.103 85.2583C334.214 86.3502 333.059 87.1473 331.639 87.6498C330.218 88.1522 328.567 88.2311 326.687 87.8866L321.367 86.9119L322.413 81.199L327.019 82.0429C327.924 82.2086 328.637 82.1424 329.159 81.8444C329.71 81.527 330.057 80.9755 330.201 80.19C330.297 79.6663 330.268 79.2182 330.115 78.8457C329.962 78.4732 329.686 78.1644 329.288 77.9193C328.918 77.6547 328.424 77.4657 327.805 77.3523L323.128 76.4954ZM343.745 85.6977L344.709 85.8743L344.013 87.2597C344.591 85.4466 345.121 84.0307 345.603 83.0118C346.089 81.9692 346.559 81.2187 347.012 80.7605C347.465 80.3022 347.93 80.0431 348.409 79.9831C348.892 79.8994 349.419 79.9098 349.99 80.0145L350.668 80.1388L349.386 87.1371L347.28 86.7511C346.47 86.6029 345.826 86.5587 345.348 86.6187C344.898 86.6592 344.557 86.8427 344.324 87.1692C344.116 87.5001 343.949 88.0107 343.822 88.701L342.436 96.2706L336.366 95.1586L339.493 78.0912L345.563 79.2033L344.091 87.2371L343.745 85.6977ZM357.868 99.6516C356.011 99.3114 354.47 98.66 353.244 97.6973C352.046 96.7152 351.203 95.4781 350.713 93.9861C350.248 92.4984 350.187 90.8143 350.532 88.9338C350.881 87.0295 351.536 85.4644 352.499 84.2384C353.486 83.0168 354.711 82.171 356.175 81.7011C357.662 81.2356 359.335 81.1729 361.191 81.5131C363.024 81.8489 364.542 82.496 365.744 83.4543C366.946 84.4126 367.78 85.6356 368.245 87.1233C368.735 88.6153 368.805 90.3134 368.456 92.2178C367.937 95.0504 366.732 97.13 364.84 98.4564C362.953 99.7591 360.629 100.157 357.868 99.6516ZM360.148 87.0052C359.196 86.8308 358.409 87.031 357.787 87.6059C357.193 88.1614 356.798 88.9748 356.602 90.0459C356.471 90.76 356.465 91.3986 356.583 91.9615C356.701 92.5244 356.946 92.9999 357.318 93.3878C357.718 93.7563 358.227 93.9973 358.846 94.1107C359.798 94.2851 360.571 94.0946 361.165 93.5391C361.783 92.988 362.19 92.1768 362.386 91.1057C362.517 90.3916 362.523 89.753 362.405 89.1901C362.291 88.6034 362.046 88.1279 361.67 87.7638C361.298 87.3758 360.791 87.123 360.148 87.0052ZM376.245 103.018C374.221 102.648 372.686 102.096 371.64 101.363C370.621 100.61 369.941 99.7599 369.598 98.8114C369.255 97.8628 369.111 96.9016 369.167 95.9276L375.011 95.8543C375.053 96.428 375.149 96.913 375.298 97.3093C375.475 97.6862 375.715 97.9884 376.017 98.2161C376.348 98.4243 376.74 98.5699 377.192 98.6528C377.74 98.7531 378.157 98.7558 378.445 98.6609C378.738 98.5423 378.926 98.3185 379.011 97.9896C379.051 97.7754 379.014 97.5719 378.902 97.3791C378.789 97.1863 378.522 96.9651 378.101 96.7157C377.707 96.4467 377.075 96.1342 376.206 95.778C374.609 95.0919 373.381 94.4117 372.52 93.7373C371.664 93.0392 371.085 92.3057 370.783 91.5369C370.509 90.7487 370.459 89.8785 370.634 88.9263C370.952 87.1886 371.829 85.9593 373.265 85.2383C374.706 84.4935 376.7 84.3544 379.247 84.821C381.008 85.1437 382.397 85.6196 383.414 86.2487C384.43 86.8778 385.154 87.6255 385.586 88.4919C386.018 89.3583 386.223 90.3185 386.202 91.3726L380.182 91.5983C380.19 90.8862 380.06 90.3211 379.792 89.903C379.524 89.4848 379.069 89.2169 378.426 89.0992C377.926 89.0076 377.53 89.0211 377.238 89.1398C376.95 89.2346 376.777 89.4368 376.72 89.7462C376.681 89.9605 376.692 90.1715 376.752 90.3794C376.836 90.5916 377.099 90.8366 377.54 91.1142C377.986 91.3681 378.722 91.7121 379.75 92.1464C381.374 92.8131 382.589 93.5031 383.393 94.2163C384.197 94.9295 384.701 95.6737 384.903 96.4488C385.134 97.2046 385.173 97.999 385.02 98.8321C384.811 99.9747 384.354 100.924 383.649 101.681C382.973 102.418 382.022 102.908 380.797 103.151C379.571 103.394 378.054 103.35 376.245 103.018ZM404.754 98.7202C404.217 101.648 403.313 103.832 402.04 105.272C400.772 106.688 399.15 107.215 397.174 106.853C396.508 106.731 395.907 106.522 395.37 106.227C394.834 105.932 394.371 105.503 393.982 104.94C393.617 104.381 393.332 103.652 393.128 102.753C392.947 101.859 392.877 100.764 392.918 99.4673L393.603 96.9357C393.468 97.6736 393.448 98.3219 393.542 98.8804C393.637 99.439 393.848 99.896 394.177 100.251C394.51 100.583 394.938 100.797 395.462 100.893C396.414 101.067 397.139 100.868 397.638 100.295C398.165 99.7027 398.535 98.8233 398.749 97.6569C398.949 96.562 398.904 95.6679 398.613 94.9749C398.345 94.2862 397.735 93.8547 396.783 93.6802C396.259 93.5843 395.783 93.6323 395.354 93.8244C394.926 94.0165 394.57 94.345 394.288 94.81C394.006 95.275 393.8 95.8645 393.669 96.5787L393.899 94.1114C394.471 92.4693 395.104 91.2321 395.797 90.3997C396.515 89.5716 397.275 89.0467 398.079 88.8248C398.906 88.6073 399.772 88.5814 400.676 88.7471C402.58 89.096 403.865 90.1432 404.529 91.8887C405.193 93.6342 405.268 95.9114 404.754 98.7202ZM395.186 88.2949L394.14 94.0078L391.176 110.183L385.106 109.07L389.116 87.1828L395.186 88.2949ZM393.637 93.7312L393.859 92.5172L394.716 92.6742L394.494 93.8882L393.637 93.7312ZM392.351 100.95L392.541 99.9148L393.398 100.072L393.208 101.107L392.351 100.95ZM413.381 109.822C411.691 109.512 410.236 108.926 409.016 108.063C407.801 107.176 406.928 106.032 406.397 104.631C405.871 103.206 405.782 101.541 406.131 99.6369C406.502 97.6136 407.149 95.9608 408.073 94.6785C409.025 93.3767 410.237 92.4671 411.71 91.9496C413.182 91.4321 414.883 91.3499 416.811 91.7032C418.62 92.0346 420.03 92.6621 421.042 93.5855C422.058 94.4852 422.729 95.5921 423.054 96.9064C423.407 98.2013 423.442 99.6223 423.159 101.17C423.08 101.598 423.013 101.967 422.956 102.276C422.923 102.59 422.839 102.981 422.704 103.448L410.35 101.185L410.828 98.5783L419.004 100.076L417.497 100.649C417.843 99.433 417.852 98.512 417.523 97.886C417.223 97.2406 416.621 96.835 415.717 96.6693C414.717 96.4861 413.936 96.6506 413.375 97.1629C412.842 97.6557 412.438 98.6519 412.163 100.152C411.897 101.604 411.936 102.669 412.279 103.347C412.65 104.005 413.36 104.43 414.407 104.622C414.978 104.727 415.432 104.736 415.768 104.65C416.131 104.544 416.42 104.376 416.635 104.145C416.873 103.918 417.069 103.658 417.221 103.366L422.13 105.779C421.689 106.707 421.095 107.533 420.347 108.257C419.599 108.981 418.656 109.497 417.517 109.805C416.378 110.113 414.999 110.119 413.381 109.822ZM436.083 103.833C436.08 103.315 436.022 102.825 435.91 102.362C435.798 101.898 435.588 101.503 435.278 101.176C434.993 100.853 434.577 100.641 434.029 100.541C433.268 100.401 432.575 100.557 431.951 101.009C431.355 101.441 430.941 102.288 430.71 103.55C430.558 104.383 430.538 105.093 430.652 105.679C430.794 106.247 431.044 106.698 431.4 107.034C431.785 107.351 432.24 107.557 432.763 107.653C433.287 107.749 433.739 107.697 434.121 107.496C434.502 107.295 434.829 106.986 435.102 106.568C435.404 106.132 435.659 105.613 435.867 105.011L441.491 107.149C440.858 109.394 439.761 111.088 438.199 112.229C436.637 113.369 434.522 113.695 431.856 113.207C430.047 112.876 428.523 112.264 427.284 111.373C426.045 110.482 425.165 109.312 424.643 107.863C424.149 106.395 424.088 104.649 424.458 102.626C424.816 100.674 425.476 99.0847 426.439 97.8587C427.406 96.6089 428.621 95.7491 430.085 95.2792C431.577 94.7898 433.24 94.7131 435.072 95.0489C436.977 95.3978 438.446 95.9744 439.479 96.7789C440.541 97.5638 441.267 98.5702 441.657 99.798C442.047 101.026 442.191 102.455 442.09 104.084L436.083 103.833ZM444.446 97.3198L455.979 99.4328L455.064 104.432L443.531 102.319L444.446 97.3198ZM443.904 109.141L446.75 93.6086L452.82 94.7207L450.217 108.932C450.125 109.431 450.164 109.82 450.335 110.097C450.506 110.375 450.889 110.568 451.484 110.677C451.817 110.738 452.183 110.756 452.581 110.73C453.007 110.685 453.332 110.659 453.555 110.65L453.164 116.41C452.686 116.47 452.236 116.51 451.813 116.531C451.415 116.557 450.974 116.55 450.489 116.51C450.023 116.498 449.446 116.43 448.755 116.303C447.351 116.046 446.258 115.563 445.478 114.854C444.702 114.121 444.194 113.265 443.955 112.287C443.721 111.284 443.704 110.236 443.904 109.141ZM464.347 99.6742L458.277 98.5621L458.931 94.9915L465.001 96.1036L464.347 99.6742ZM460.991 117.991L454.921 116.879L458.048 99.8118L464.118 100.924L460.991 117.991ZM470.943 107.193L472.407 107.461L471.331 108.298C471.902 106.656 472.535 105.418 473.229 104.586C473.922 103.753 474.671 103.226 475.474 103.004C476.278 102.783 477.132 102.755 478.036 102.92C479.107 103.117 479.956 103.518 480.583 104.125C481.215 104.708 481.628 105.473 481.824 106.419C482.024 107.341 482.01 108.421 481.784 109.659L479.631 121.406L473.561 120.294L475.38 110.368C475.467 109.892 475.456 109.484 475.346 109.144C475.264 108.785 475.084 108.493 474.805 108.27C474.554 108.027 474.203 107.864 473.75 107.781C473.298 107.699 472.9 107.724 472.555 107.858C472.216 107.968 471.932 108.174 471.704 108.477C471.481 108.756 471.325 109.133 471.238 109.609L469.42 119.535L463.35 118.423L466.477 101.356L472.547 102.468L471.474 108.324L470.943 107.193ZM491.461 110.915C490.58 110.754 489.947 110.786 489.562 111.01C489.2 111.239 488.982 111.556 488.908 111.961C488.842 112.318 488.936 112.679 489.189 113.046C489.47 113.392 490.05 113.646 490.931 113.808C491.836 113.973 492.469 113.942 492.831 113.713C493.197 113.46 493.413 113.155 493.478 112.798C493.561 112.346 493.448 111.956 493.139 111.629C492.853 111.306 492.294 111.068 491.461 110.915ZM487.321 116.394L487.463 116.42L487.219 116.744C487.178 116.835 487.137 116.926 487.096 117.017C487.059 117.084 487.032 117.165 487.014 117.26C486.971 117.498 487.011 117.678 487.137 117.799C487.262 117.921 487.515 118.016 487.896 118.086C488.872 118.265 489.843 118.406 490.808 118.509C491.797 118.616 492.708 118.746 493.541 118.899C495.684 119.291 497.114 120.009 497.834 121.051C498.553 122.093 498.776 123.364 498.501 124.863C498.3 125.958 497.828 126.856 497.085 127.556C496.365 128.261 495.3 128.705 493.888 128.89C492.5 129.078 490.712 128.972 488.522 128.571C486.213 128.148 484.44 127.688 483.202 127.19C481.988 126.697 481.178 126.155 480.769 125.564C480.385 124.976 480.254 124.35 480.376 123.683C480.476 123.136 480.768 122.685 481.251 122.33C481.758 121.98 482.44 121.749 483.297 121.635C484.155 121.522 485.147 121.543 486.274 121.701L486.904 121.89C486.595 121.833 486.314 121.819 486.063 121.847C485.812 121.874 485.602 121.947 485.433 122.063C485.292 122.16 485.204 122.304 485.169 122.495C485.122 122.757 485.18 122.976 485.344 123.154C485.504 123.356 485.875 123.547 486.457 123.727C487.039 123.907 487.937 124.109 489.151 124.331C490.436 124.567 491.407 124.708 492.063 124.754C492.742 124.805 493.207 124.755 493.456 124.603C493.724 124.48 493.882 124.288 493.93 124.026C493.974 123.788 493.926 123.582 493.785 123.409C493.649 123.212 493.379 123.076 492.974 123.002L485.94 121.713C484.869 121.517 484.043 121.255 483.464 120.928C482.908 120.604 482.544 120.242 482.371 119.842C482.203 119.417 482.156 119.003 482.23 118.598C482.33 118.05 482.628 117.564 483.125 117.138C483.649 116.693 484.443 116.457 485.506 116.43L487.321 116.394ZM492.445 110.985L496.24 111.422L496.063 112.386L494.522 111.329C495.057 111.5 495.565 111.68 496.048 111.866C496.53 112.053 496.956 112.279 497.326 112.544C497.719 112.812 498.003 113.147 498.175 113.548C498.352 113.925 498.39 114.387 498.29 114.934C498.133 115.791 497.705 116.451 497.005 116.913C496.333 117.356 495.424 117.62 494.277 117.705C493.153 117.794 491.818 117.697 490.271 117.414C487.866 116.973 486.071 116.165 484.884 114.988C483.726 113.791 483.314 112.277 483.65 110.444C483.872 109.23 484.36 108.249 485.112 107.501C485.888 106.758 486.888 106.264 488.114 106.021C489.363 105.783 490.785 105.81 492.38 106.102L501.092 107.698L500.176 112.697L498.605 112.409C498.153 112.326 497.62 112.216 497.005 112.079C496.414 111.946 495.74 111.798 494.983 111.635C494.23 111.447 493.384 111.231 492.445 110.985ZM485.414 121.765L485.519 121.193L486.019 121.285L485.914 121.856L485.414 121.765Z" fill="#0C2233"></path><path d="M887.905 196.985L881.478 195.808L885.403 174.384L891.83 175.562L887.905 196.985ZM897.984 186.211L899.448 186.479L898.372 187.315C898.944 185.673 899.576 184.436 900.27 183.603C900.964 182.771 901.712 182.244 902.516 182.022C903.319 181.8 904.173 181.772 905.078 181.938C906.149 182.134 906.998 182.535 907.625 183.142C908.256 183.725 908.669 184.49 908.865 185.436C909.065 186.359 909.052 187.439 908.825 188.676L906.673 200.424L900.603 199.312L902.421 189.385C902.509 188.909 902.497 188.501 902.387 188.161C902.306 187.802 902.125 187.511 901.846 187.287C901.596 187.044 901.244 186.882 900.792 186.799C900.339 186.716 899.941 186.741 899.597 186.875C899.257 186.985 898.973 187.191 898.745 187.494C898.522 187.773 898.367 188.15 898.28 188.627L896.461 198.553L890.391 197.441L893.518 180.373L899.588 181.485L898.515 187.341L897.984 186.211ZM911.348 183.64L922.881 185.753L921.966 190.752L910.433 188.639L911.348 183.64ZM910.807 195.461L913.652 179.929L919.722 181.041L917.119 195.252C917.027 195.752 917.066 196.14 917.237 196.418C917.408 196.695 917.791 196.888 918.386 196.997C918.719 197.058 919.085 197.076 919.483 197.05C919.909 197.006 920.234 196.979 920.457 196.971L920.066 202.73C919.588 202.79 919.138 202.83 918.715 202.851C918.317 202.877 917.876 202.87 917.391 202.83C916.925 202.819 916.348 202.75 915.657 202.623C914.253 202.366 913.16 201.883 912.38 201.174C911.604 200.441 911.096 199.586 910.857 198.607C910.623 197.605 910.606 196.556 910.807 195.461ZM929.767 205.208C928.077 204.899 926.622 204.312 925.403 203.449C924.187 202.562 923.314 201.418 922.784 200.017C922.258 198.592 922.169 196.927 922.518 195.023C922.889 193 923.536 191.347 924.46 190.065C925.412 188.763 926.624 187.853 928.096 187.336C929.569 186.818 931.269 186.736 933.197 187.089C935.007 187.421 936.417 188.048 937.429 188.972C938.445 189.871 939.115 190.978 939.44 192.293C939.794 193.588 939.829 195.009 939.545 196.556C939.467 196.984 939.399 197.353 939.342 197.663C939.309 197.977 939.226 198.367 939.091 198.834L926.737 196.571L927.214 193.965L935.391 195.463L933.883 196.035C934.229 194.819 934.238 193.898 933.91 193.272C933.61 192.627 933.008 192.221 932.103 192.056C931.103 191.872 930.323 192.037 929.762 192.549C929.228 193.042 928.824 194.038 928.55 195.538C928.284 196.99 928.322 198.055 928.666 198.733C929.037 199.391 929.746 199.816 930.794 200.008C931.365 200.113 931.818 200.122 932.154 200.036C932.518 199.931 932.807 199.762 933.022 199.531C933.26 199.304 933.455 199.044 933.607 198.752L938.516 201.165C938.076 202.093 937.481 202.919 936.734 203.643C935.986 204.367 935.043 204.883 933.904 205.191C932.765 205.499 931.386 205.505 929.767 205.208ZM947.329 195.251L948.793 195.519L947.717 196.355C948.289 194.713 948.921 193.476 949.615 192.644C950.309 191.811 951.057 191.284 951.861 191.062C952.664 190.84 953.518 190.812 954.423 190.978C955.494 191.174 956.343 191.576 956.97 192.183C957.601 192.766 958.014 193.531 958.21 194.477C958.41 195.399 958.397 196.479 958.17 197.717L956.018 209.464L949.948 208.352L951.766 198.426C951.854 197.95 951.842 197.542 951.732 197.202C951.651 196.842 951.47 196.551 951.191 196.328C950.941 196.085 950.589 195.922 950.137 195.839C949.684 195.756 949.286 195.782 948.942 195.916C948.602 196.026 948.318 196.232 948.09 196.535C947.867 196.813 947.712 197.191 947.625 197.667L945.806 207.593L939.736 206.481L942.863 189.414L948.933 190.526L947.86 196.382L947.329 195.251ZM960.693 192.681L972.226 194.794L971.311 199.792L959.778 197.679L960.693 192.681ZM960.152 204.501L962.997 188.969L969.067 190.081L966.464 204.292C966.372 204.792 966.411 205.181 966.582 205.458C966.753 205.735 967.136 205.929 967.731 206.038C968.064 206.099 968.43 206.116 968.828 206.091C969.254 206.046 969.579 206.019 969.802 206.011L969.411 211.77C968.933 211.83 968.483 211.871 968.06 211.892C967.662 211.917 967.221 211.91 966.736 211.871C966.27 211.859 965.693 211.79 965.002 211.664C963.598 211.406 962.505 210.923 961.725 210.215C960.949 209.482 960.441 208.626 960.202 207.648C959.968 206.645 959.951 205.596 960.152 204.501Z" fill="#0C2233"></path><path d="M1092.25 234.724L1093.36 228.654L1102.71 230.368L1101.6 236.438L1092.25 234.724ZM1096.89 213.431L1092.96 234.855L1086.53 233.677L1090.46 212.254L1096.89 213.431ZM1111.66 238.834C1109.8 238.494 1108.26 237.842 1107.03 236.88C1105.84 235.898 1104.99 234.66 1104.5 233.168C1104.04 231.681 1103.98 229.997 1104.32 228.116C1104.67 226.212 1105.33 224.647 1106.29 223.421C1107.28 222.199 1108.5 221.353 1109.97 220.884C1111.45 220.418 1113.12 220.355 1114.98 220.695C1116.81 221.031 1118.33 221.678 1119.53 222.637C1120.74 223.595 1121.57 224.818 1122.04 226.306C1122.53 227.798 1122.6 229.496 1122.25 231.4C1121.73 234.233 1120.52 236.312 1118.63 237.639C1116.74 238.941 1114.42 239.34 1111.66 238.834ZM1113.94 226.188C1112.99 226.013 1112.2 226.213 1111.58 226.788C1110.98 227.344 1110.59 228.157 1110.39 229.228C1110.26 229.942 1110.26 230.581 1110.37 231.144C1110.49 231.707 1110.74 232.182 1111.11 232.57C1111.51 232.939 1112.02 233.18 1112.64 233.293C1113.59 233.467 1114.36 233.277 1114.96 232.721C1115.57 232.17 1115.98 231.359 1116.18 230.288C1116.31 229.574 1116.31 228.935 1116.2 228.372C1116.08 227.786 1115.84 227.31 1115.46 226.946C1115.09 226.558 1114.58 226.305 1113.94 226.188ZM1127.29 239.041L1130.2 241.714L1126.41 241.02L1123.51 222.812L1130.12 224.022L1130.7 230.734C1130.77 231.535 1130.83 232.357 1130.87 233.202C1130.92 234.022 1130.96 234.854 1131 235.699C1131.05 236.543 1131.08 237.373 1131.1 238.189C1131.15 238.986 1131.18 239.754 1131.2 240.494L1129.34 233.917L1132.55 234.506L1128.58 239.867C1129.05 238.773 1129.5 237.735 1129.92 236.756C1130.35 235.776 1130.76 234.829 1131.15 233.916C1131.56 232.984 1131.95 232.059 1132.32 231.142L1134.97 224.912L1141.51 226.109L1132.29 241.58C1131.54 242.845 1130.72 243.815 1129.84 244.489C1128.97 245.192 1127.95 245.633 1126.79 245.813C1125.62 245.993 1124.26 245.939 1122.69 245.652C1122.09 245.543 1121.59 245.427 1121.2 245.306C1120.8 245.184 1120.37 245.044 1119.91 244.885L1121.4 240.361C1121.75 240.498 1122.11 240.625 1122.48 240.742C1122.85 240.86 1123.21 240.951 1123.57 241.016C1124.29 241.147 1124.84 241.188 1125.25 241.139C1125.67 241.118 1126.03 240.951 1126.33 240.637C1126.64 240.3 1126.96 239.768 1127.29 239.041ZM1142.12 244.231C1141.22 244.065 1140.42 243.734 1139.72 243.237C1139.03 242.717 1138.52 242.032 1138.18 241.183C1137.87 240.339 1137.81 239.345 1138.02 238.203C1138.31 236.655 1139.03 235.521 1140.2 234.8C1141.37 234.054 1143.13 233.898 1145.49 234.329L1149.77 235.114L1149.32 237.763L1146.04 237.161C1145.54 237.07 1145.11 237.127 1144.75 237.332C1144.42 237.541 1144.22 237.825 1144.15 238.182C1144.11 238.443 1144.12 238.692 1144.2 238.928C1144.28 239.164 1144.45 239.368 1144.72 239.54C1145 239.715 1145.39 239.847 1145.86 239.934C1146.34 240.021 1146.77 240.002 1147.16 239.877C1147.56 239.752 1147.88 239.541 1148.13 239.242C1148.41 238.924 1148.59 238.551 1148.67 238.123L1149.37 234.267C1149.49 233.624 1149.41 233.117 1149.14 232.747C1148.89 232.357 1148.43 232.101 1147.76 231.979C1147.24 231.883 1146.75 231.929 1146.3 232.116C1145.87 232.285 1145.53 232.727 1145.28 233.443L1139.75 231.617C1140.07 230.544 1140.57 229.603 1141.26 228.795C1141.98 227.966 1142.96 227.383 1144.2 227.045C1145.45 226.683 1147.04 226.679 1148.96 227.032C1150.8 227.368 1152.23 227.914 1153.28 228.671C1154.32 229.428 1155.01 230.366 1155.34 231.486C1155.68 232.605 1155.72 233.891 1155.45 235.343L1153.51 245.947L1147.44 244.835L1148.47 239.194L1149.11 240.935L1147.72 240.68L1149.05 237.825C1148.7 239.335 1148.22 240.612 1147.61 241.657C1147.01 242.678 1146.26 243.426 1145.36 243.901C1144.46 244.352 1143.38 244.462 1142.12 244.231ZM1165.96 225.607L1161.95 247.494L1155.88 246.382L1159.89 224.495L1165.96 225.607ZM1166.9 230.761L1178.43 232.874L1177.52 237.873L1165.98 235.76L1166.9 230.761ZM1166.36 242.582L1169.2 227.05L1175.27 228.162L1172.67 242.373C1172.58 242.873 1172.62 243.261 1172.79 243.538C1172.96 243.816 1173.34 244.009 1173.94 244.118C1174.27 244.179 1174.64 244.197 1175.03 244.171C1175.46 244.126 1175.79 244.1 1176.01 244.091L1175.62 249.851C1175.14 249.911 1174.69 249.951 1174.27 249.972C1173.87 249.998 1173.43 249.991 1172.94 249.951C1172.48 249.94 1171.9 249.871 1171.21 249.744C1169.8 249.487 1168.71 249.004 1167.93 248.295C1167.16 247.562 1166.65 246.707 1166.41 245.728C1166.17 244.725 1166.16 243.677 1166.36 242.582ZM1183.15 249.274L1186.05 251.947L1182.27 251.254L1179.37 233.045L1185.97 234.255L1186.55 240.967C1186.63 241.768 1186.68 242.591 1186.73 243.435C1186.77 244.255 1186.82 245.088 1186.86 245.932C1186.9 246.776 1186.93 247.606 1186.96 248.422C1187.01 249.219 1187.04 249.987 1187.05 250.728L1185.19 244.15L1188.41 244.739L1184.43 250.101C1184.91 249.006 1185.35 247.969 1185.78 246.989C1186.21 246.009 1186.61 245.062 1187 244.15C1187.42 243.217 1187.81 242.292 1188.17 241.375L1190.83 235.145L1197.36 236.342L1188.14 251.813C1187.4 253.079 1186.58 254.048 1185.69 254.723C1184.82 255.425 1183.81 255.866 1182.64 256.046C1181.48 256.227 1180.11 256.173 1178.54 255.885C1177.95 255.776 1177.45 255.661 1177.05 255.539C1176.66 255.417 1176.23 255.277 1175.77 255.118L1177.26 250.594C1177.6 250.731 1177.96 250.858 1178.33 250.976C1178.71 251.093 1179.07 251.184 1179.43 251.25C1180.14 251.381 1180.7 251.421 1181.1 251.372C1181.52 251.351 1181.89 251.184 1182.19 250.87C1182.5 250.533 1182.82 250.001 1183.15 249.274Z" fill="#0C2233"></path><path d="M572.5 138.759C570.834 138.454 569.37 137.915 568.109 137.143C566.877 136.351 565.876 135.368 565.107 134.194C564.338 133.02 563.83 131.697 563.583 130.225C563.34 128.729 563.374 127.136 563.683 125.445C564.098 123.184 564.922 121.305 566.155 119.809C567.393 118.289 568.916 117.227 570.725 116.624C572.561 116.001 574.562 115.888 576.728 116.284C578.68 116.642 580.312 117.335 581.625 118.362C582.966 119.371 583.936 120.656 584.535 122.217C585.163 123.759 585.386 125.497 585.204 127.432L578.808 127.294C578.868 125.755 578.647 124.546 578.144 123.666C577.641 122.787 576.746 122.229 575.461 121.994C574.461 121.811 573.594 121.91 572.86 122.292C572.126 122.674 571.515 123.251 571.03 124.024C570.572 124.776 570.254 125.64 570.075 126.616C569.861 127.783 569.833 128.811 569.989 129.701C570.17 130.595 570.552 131.329 571.136 131.904C571.719 132.478 572.511 132.857 573.511 133.04C574.368 133.197 575.091 133.145 575.68 132.884C576.293 132.627 576.817 132.182 577.253 131.548C577.717 130.895 578.138 130.074 578.516 129.086L584.465 131.061C583.954 132.911 583.113 134.479 581.942 135.766C580.8 137.032 579.417 137.935 577.793 138.474C576.192 139.018 574.428 139.113 572.5 138.759ZM593.297 142.57C591.441 142.229 589.899 141.578 588.673 140.615C587.476 139.633 586.632 138.396 586.143 136.904C585.677 135.416 585.617 133.732 585.961 131.852C586.31 129.948 586.966 128.382 587.929 127.156C588.915 125.935 590.14 125.089 591.604 124.619C593.092 124.154 594.764 124.091 596.621 124.431C598.453 124.767 599.971 125.414 601.173 126.372C602.375 127.331 603.209 128.554 603.675 130.041C604.164 131.533 604.234 133.232 603.885 135.136C603.366 137.968 602.161 140.048 600.27 141.374C598.383 142.677 596.059 143.076 593.297 142.57ZM595.577 129.923C594.625 129.749 593.838 129.949 593.216 130.524C592.622 131.079 592.227 131.893 592.031 132.964C591.9 133.678 591.894 134.317 592.012 134.88C592.131 135.442 592.376 135.918 592.747 136.306C593.147 136.674 593.657 136.915 594.276 137.029C595.228 137.203 596.001 137.013 596.595 136.457C597.212 135.906 597.619 135.095 597.815 134.024C597.946 133.31 597.953 132.671 597.834 132.108C597.72 131.521 597.475 131.046 597.099 130.682C596.727 130.294 596.22 130.041 595.577 129.923ZM611.831 132.79L613.295 133.059L612.22 133.895C612.791 132.253 613.424 131.016 614.117 130.183C614.811 129.351 615.56 128.824 616.363 128.602C617.166 128.38 618.02 128.352 618.925 128.518C619.996 128.714 620.845 129.115 621.472 129.722C622.103 130.305 622.517 131.07 622.712 132.016C622.913 132.939 622.899 134.019 622.672 135.256L620.52 147.004L614.45 145.891L616.269 135.965C616.356 135.489 616.345 135.081 616.235 134.741C616.153 134.382 615.973 134.09 615.694 133.867C615.443 133.624 615.091 133.462 614.639 133.379C614.187 133.296 613.789 133.321 613.444 133.455C613.104 133.565 612.82 133.771 612.593 134.074C612.369 134.353 612.214 134.73 612.127 135.206L610.308 145.133L604.238 144.021L607.365 126.953L613.435 128.065L612.362 133.921L611.831 132.79ZM630.249 149.34C628.226 148.969 626.691 148.417 625.645 147.684C624.626 146.932 623.945 146.081 623.603 145.133C623.26 144.184 623.116 143.223 623.171 142.249L629.016 142.176C629.058 142.749 629.154 143.234 629.303 143.631C629.48 144.007 629.719 144.31 630.022 144.537C630.353 144.746 630.745 144.891 631.197 144.974C631.744 145.074 632.162 145.077 632.45 144.982C632.743 144.864 632.931 144.64 633.016 144.311C633.055 144.097 633.019 143.893 632.906 143.7C632.794 143.508 632.527 143.286 632.105 143.037C631.712 142.768 631.08 142.455 630.211 142.099C628.614 141.413 627.386 140.733 626.525 140.059C625.669 139.36 625.09 138.627 624.788 137.858C624.514 137.07 624.464 136.2 624.639 135.248C624.957 133.51 625.834 132.281 627.27 131.56C628.711 130.815 630.704 130.676 633.251 131.142C635.013 131.465 636.402 131.941 637.418 132.57C638.435 133.199 639.159 133.947 639.591 134.813C640.022 135.68 640.228 136.64 640.207 137.694L634.187 137.92C634.194 137.207 634.064 136.642 633.796 136.224C633.529 135.806 633.073 135.538 632.431 135.42C631.931 135.329 631.535 135.342 631.242 135.461C630.954 135.556 630.782 135.758 630.725 136.067C630.686 136.282 630.696 136.493 630.757 136.701C630.841 136.913 631.104 137.158 631.545 137.435C631.99 137.689 632.727 138.033 633.754 138.468C635.379 139.134 636.594 139.824 637.398 140.538C638.202 141.251 638.705 141.995 638.908 142.77C639.138 143.526 639.177 144.32 639.025 145.153C638.815 146.296 638.358 147.246 637.654 148.002C636.978 148.739 636.027 149.229 634.801 149.472C633.576 149.715 632.059 149.671 630.249 149.34ZM649.42 133.366L643.35 132.254L644.004 128.684L650.074 129.796L649.42 133.366ZM646.064 151.684L639.994 150.571L643.121 133.504L649.191 134.616L646.064 151.684ZM649.532 143.646C650.068 140.718 650.97 138.546 652.238 137.13C653.535 135.695 655.159 135.156 657.111 135.514C658.015 135.679 658.792 136.006 659.441 136.494C660.089 136.982 660.579 137.736 660.908 138.756C661.262 139.78 661.415 141.161 661.367 142.899L660.682 145.431C660.887 144.312 660.83 143.416 660.51 142.742C660.195 142.045 659.633 141.622 658.824 141.474C657.871 141.299 657.132 141.508 656.605 142.101C656.107 142.674 655.75 143.543 655.537 144.71C655.336 145.805 655.37 146.696 655.637 147.385C655.928 148.078 656.55 148.512 657.502 148.686C658.05 148.787 658.526 148.739 658.931 148.542C659.36 148.35 659.715 148.021 659.997 147.557C660.279 147.092 660.486 146.502 660.616 145.788L660.386 148.255C659.964 149.482 659.499 150.479 658.989 151.247C658.479 152.014 657.943 152.593 657.379 152.982C656.816 153.37 656.22 153.606 655.59 153.687C654.96 153.768 654.299 153.746 653.609 153.619C651.729 153.275 650.444 152.228 649.756 150.478C649.092 148.732 649.017 146.455 649.532 143.646ZM659.099 154.072L660.145 148.359L663.109 132.184L669.179 133.296L665.169 155.184L659.099 154.072ZM660.426 149.849L659.569 149.692L659.791 148.478L660.648 148.635L660.426 149.849ZM661.744 142.452L660.887 142.295L661.077 141.259L661.934 141.416L661.744 142.452ZM675.814 157.688C674.124 157.378 672.669 156.791 671.449 155.928C670.234 155.041 669.361 153.897 668.831 152.496C668.304 151.071 668.216 149.407 668.565 147.502C668.935 145.479 669.583 143.826 670.506 142.544C671.458 141.242 672.671 140.333 674.143 139.815C675.616 139.298 677.316 139.215 679.244 139.569C681.053 139.9 682.464 140.528 683.475 141.451C684.492 142.351 685.162 143.458 685.487 144.772C685.84 146.067 685.875 147.488 685.592 149.035C685.513 149.464 685.446 149.832 685.389 150.142C685.356 150.456 685.272 150.846 685.137 151.314L672.783 149.05L673.261 146.444L681.437 147.942L679.93 148.514C680.276 147.298 680.285 146.377 679.957 145.751C679.657 145.106 679.054 144.7 678.15 144.535C677.15 144.352 676.369 144.516 675.808 145.028C675.275 145.521 674.871 146.517 674.596 148.017C674.33 149.469 674.369 150.534 674.712 151.212C675.084 151.87 675.793 152.296 676.84 152.488C677.412 152.592 677.865 152.601 678.201 152.515C678.565 152.41 678.854 152.241 679.068 152.01C679.307 151.783 679.502 151.524 679.654 151.232L684.563 153.644C684.122 154.572 683.528 155.398 682.78 156.122C682.033 156.846 681.089 157.362 679.95 157.67C678.811 157.978 677.433 157.984 675.814 157.688ZM693.162 149.499L694.126 149.676L693.43 151.061C694.008 149.248 694.538 147.832 695.02 146.814C695.506 145.771 695.976 145.021 696.429 144.562C696.882 144.104 697.347 143.845 697.826 143.785C698.309 143.701 698.836 143.712 699.407 143.816L700.085 143.941L698.803 150.939L696.697 150.553C695.887 150.405 695.243 150.36 694.765 150.42C694.315 150.461 693.974 150.644 693.742 150.971C693.533 151.302 693.366 151.812 693.239 152.503L691.853 160.072L685.783 158.96L688.91 141.893L694.98 143.005L693.508 151.039L693.162 149.499ZM702.97 162.478C702.066 162.313 701.265 161.981 700.569 161.485C699.877 160.964 699.363 160.28 699.026 159.431C698.713 158.586 698.662 157.593 698.871 156.45C699.155 154.903 699.879 153.768 701.044 153.047C702.214 152.302 703.978 152.145 706.334 152.577L710.619 153.362L710.17 156.011L706.885 155.409C706.386 155.317 705.957 155.374 705.6 155.579C705.266 155.789 705.066 156.072 705.001 156.429C704.953 156.691 704.969 156.94 705.049 157.176C705.128 157.412 705.3 157.616 705.564 157.787C705.852 157.963 706.234 158.094 706.71 158.181C707.186 158.269 707.62 158.25 708.012 158.125C708.404 158 708.725 157.788 708.977 157.49C709.257 157.172 709.436 156.799 709.514 156.37L710.221 152.514C710.338 151.871 710.259 151.365 709.982 150.994C709.734 150.604 709.277 150.348 708.61 150.226C708.086 150.13 707.598 150.176 707.146 150.364C706.721 150.532 706.382 150.974 706.127 151.69L700.594 149.865C700.914 148.791 701.418 147.851 702.108 147.042C702.825 146.214 703.806 145.631 705.048 145.293C706.296 144.931 707.883 144.926 709.811 145.28C711.644 145.615 713.082 146.162 714.124 146.919C715.167 147.675 715.856 148.614 716.192 149.733C716.528 150.853 716.563 152.138 716.297 153.59L714.354 164.195L708.284 163.083L709.318 157.441L709.958 159.182L708.566 158.927L709.901 156.072C709.55 157.582 709.07 158.86 708.461 159.904C707.855 160.925 707.103 161.673 706.204 162.148C705.31 162.599 704.232 162.709 702.97 162.478ZM718.969 147.4L730.502 149.513L729.586 154.512L718.053 152.399L718.969 147.4ZM718.427 159.221L721.273 143.689L727.343 144.801L724.739 159.012C724.648 159.512 724.687 159.9 724.858 160.178C725.029 160.455 725.411 160.648 726.007 160.757C726.34 160.818 726.706 160.836 727.104 160.811C727.53 160.766 727.855 160.739 728.078 160.731L727.687 166.49C727.209 166.55 726.758 166.591 726.336 166.612C725.938 166.637 725.496 166.63 725.012 166.59C724.546 166.579 723.968 166.51 723.278 166.383C721.874 166.126 720.781 165.643 720.001 164.934C719.225 164.202 718.717 163.346 718.478 162.367C718.244 161.365 718.227 160.316 718.427 159.221ZM738.87 149.755L732.8 148.643L733.454 145.072L739.524 146.184L738.87 149.755ZM735.514 168.072L729.444 166.96L732.571 149.892L738.641 151.004L735.514 168.072ZM746.344 170.609C744.487 170.269 742.946 169.618 741.72 168.655C740.522 167.673 739.678 166.436 739.189 164.944C738.724 163.456 738.663 161.772 739.008 159.892C739.356 157.987 740.012 156.422 740.975 155.196C741.961 153.975 743.187 153.129 744.65 152.659C746.138 152.193 747.81 152.131 749.667 152.471C751.5 152.807 753.017 153.454 754.22 154.412C755.422 155.37 756.256 156.593 756.721 158.081C757.21 159.573 757.281 161.271 756.932 163.175C756.413 166.008 755.208 168.088 753.316 169.414C751.429 170.717 749.105 171.115 746.344 170.609ZM748.624 157.963C747.672 157.788 746.885 157.989 746.263 158.564C745.669 159.119 745.274 159.932 745.078 161.004C744.947 161.718 744.94 162.356 745.059 162.919C745.177 163.482 745.422 163.958 745.794 164.346C746.194 164.714 746.703 164.955 747.322 165.068C748.274 165.243 749.047 165.052 749.641 164.497C750.259 163.946 750.666 163.135 750.862 162.063C750.993 161.349 750.999 160.711 750.881 160.148C750.767 159.561 750.522 159.086 750.146 158.721C749.774 158.334 749.267 158.081 748.624 157.963ZM764.878 160.83L766.342 161.098L765.266 161.935C765.837 160.292 766.47 159.055 767.164 158.223C767.858 157.39 768.606 156.863 769.409 156.641C770.213 156.42 771.067 156.391 771.971 156.557C773.042 156.753 773.892 157.155 774.518 157.762C775.15 158.345 775.563 159.11 775.759 160.056C775.959 160.978 775.946 162.058 775.719 163.296L773.567 175.043L767.497 173.931L769.315 164.005C769.402 163.529 769.391 163.121 769.281 162.781C769.199 162.421 769.019 162.13 768.74 161.907C768.489 161.664 768.138 161.501 767.686 161.418C767.233 161.335 766.835 161.361 766.491 161.495C766.151 161.605 765.867 161.811 765.639 162.114C765.416 162.393 765.261 162.77 765.173 163.246L763.355 173.172L757.285 172.06L760.412 154.993L766.482 156.105L765.409 161.961L764.878 160.83Z" fill="#0C2233"></path><path d="M49.8828 149.534L39.5627 197.965C41.0822 198.221 42.6201 198.37 44.1806 198.363C46.1262 198.351 48.0129 198.116 49.8684 197.699C53.5319 196.874 56.811 195.334 59.7269 193.148C61.407 191.899 62.8613 190.463 64.1364 188.865L68.6003 167.917C68.343 166.926 68.0169 165.939 67.6259 164.972C66.3632 161.817 64.4743 158.979 61.9986 156.48L61.9954 156.493C61.162 155.642 60.2684 154.853 59.3288 154.13C57.7741 152.93 56.0774 151.912 54.2499 151.093C52.8497 150.468 51.3766 149.958 49.8812 149.541L49.8828 149.534Z" fill="#CEFD94"></path><path d="M206.63 159.608L160.145 142.542C159.677 144.01 159.312 145.512 159.098 147.058C158.835 148.985 158.8 150.886 158.951 152.782C159.25 156.526 160.31 159.989 162.062 163.185C163.061 165.025 164.277 166.668 165.679 168.156L185.785 175.537C186.802 175.423 187.825 175.24 188.838 174.989C192.14 174.186 195.217 172.717 198.04 170.62L198.028 170.614C198.988 169.91 199.895 169.137 200.744 168.309C202.152 166.94 203.4 165.404 204.469 163.71C205.286 162.413 205.999 161.027 206.624 159.605L206.63 159.608Z" fill="#CEFD94"></path><path d="M82.7965 256.007L117.481 291.349C118.534 290.223 119.506 289.023 120.362 287.718C121.427 286.09 122.272 284.387 122.949 282.609C124.283 279.099 124.81 275.515 124.597 271.877C124.483 269.786 124.088 267.781 123.46 265.835L108.458 250.549C107.489 250.216 106.486 249.944 105.464 249.735C102.136 249.047 98.7267 249.055 95.2768 249.74L95.286 249.75C94.1163 249.975 92.9653 250.284 91.8436 250.669C89.9847 251.302 88.1993 252.155 86.5073 253.227C85.2133 254.049 83.9749 254.996 82.8011 256.012L82.7965 256.007Z" fill="#CEFD94"></path><path d="M176.847 248.235L225.923 254.842C226.062 253.308 226.093 251.763 225.968 250.207C225.808 248.268 225.431 246.405 224.873 244.587C223.772 240.996 221.988 237.844 219.586 235.103C218.213 233.522 216.671 232.181 214.98 231.032L193.753 228.173C192.785 228.505 191.826 228.906 190.891 229.369C187.841 230.868 185.154 232.967 182.851 235.626L182.865 235.628C182.08 236.524 181.361 237.475 180.711 238.466C179.633 240.108 178.747 241.877 178.069 243.762C177.553 245.205 177.156 246.713 176.854 248.236L176.847 248.235Z" fill="#CEFD94"></path><path d="M46.4969 370.543L95.9207 373.606C95.9495 372.065 95.8694 370.522 95.6326 368.98C95.3343 367.057 94.8235 365.226 94.1371 363.452C92.7806 359.95 90.7741 356.934 88.1818 354.373C86.6987 352.895 85.0637 351.669 83.2949 350.643L61.9177 349.319C60.9754 349.719 60.0475 350.187 59.1482 350.717C56.2142 352.431 53.6855 354.718 51.5796 357.535L51.5932 357.537C50.8744 358.486 50.226 359.487 49.6494 360.523C48.6918 362.237 47.9353 364.066 47.3947 365.994C46.9831 367.471 46.6961 369.003 46.5037 370.544L46.4969 370.543Z" fill="#CEFD94"></path><path d="M207.203 335.984L171.147 369.926C172.251 371.002 173.431 371.999 174.718 372.882C176.324 373.98 178.009 374.861 179.772 375.574C183.253 376.982 186.826 377.583 190.467 377.445C192.56 377.375 194.573 377.022 196.531 376.434L212.126 361.753C212.479 360.792 212.773 359.795 213.002 358.777C213.76 355.464 213.823 352.056 213.21 348.592L213.2 348.601C212.999 347.427 212.713 346.27 212.353 345.14C211.758 343.269 210.942 341.466 209.906 339.752C209.111 338.441 208.19 337.183 207.198 335.989L207.203 335.984Z" fill="#CEFD94"></path><path d="M478.16 317.621L436.675 290.582C437.572 289.328 438.557 288.138 439.668 287.042C441.054 285.677 442.557 284.512 444.166 283.499C447.345 281.499 450.755 280.276 454.364 279.768C456.435 279.468 458.479 279.459 460.51 279.692L478.454 291.387C478.971 292.271 479.436 293.201 479.841 294.162C481.173 297.289 481.837 300.633 481.845 304.15L481.833 304.143C481.843 305.334 481.767 306.524 481.611 307.699C481.356 309.646 480.872 311.565 480.155 313.435C479.604 314.866 478.919 316.266 478.154 317.617L478.16 317.621Z" fill="#CEFD94"></path><path d="M646.389 287.51L604.905 260.471C605.801 259.217 606.786 258.027 607.897 256.931C609.283 255.566 610.786 254.402 612.396 253.388C615.574 251.388 618.984 250.165 622.593 249.657C624.664 249.357 626.708 249.348 628.74 249.581L646.683 261.276C647.2 262.16 647.665 263.09 648.071 264.051C649.402 267.178 650.066 270.522 650.074 274.039L650.063 274.032C650.072 275.223 649.996 276.413 649.84 277.588C649.585 279.536 649.101 281.454 648.384 283.324C647.833 284.755 647.149 286.155 646.383 287.506L646.389 287.51Z" fill="#CEFD94"></path><path d="M615.175 408.751L607.176 359.883C608.706 359.7 610.25 359.625 611.808 359.706C613.751 359.81 615.624 360.135 617.458 360.64C621.078 361.639 624.28 363.333 627.088 365.656C628.707 366.983 630.091 368.487 631.288 370.145L634.748 391.281C634.444 392.259 634.071 393.229 633.634 394.177C632.223 397.268 630.201 400.013 627.609 402.391L627.606 402.377C626.733 403.188 625.803 403.933 624.83 404.611C623.22 405.735 621.476 406.671 619.612 407.402C618.184 407.96 616.688 408.399 615.174 408.745L615.175 408.751Z" fill="#CEFD94"></path><path d="M453.314 392.084L437.164 438.895C438.641 439.334 440.149 439.669 441.699 439.852C443.631 440.078 445.533 440.075 447.425 439.887C451.162 439.515 454.604 438.387 457.765 436.573C459.585 435.538 461.204 434.29 462.664 432.86L469.65 412.613C469.515 411.598 469.312 410.578 469.042 409.57C468.173 406.285 466.645 403.237 464.492 400.456L464.487 400.468C463.764 399.522 462.973 398.63 462.129 397.798C460.732 396.417 459.172 395.2 457.458 394.164C456.145 393.373 454.745 392.687 453.312 392.09L453.314 392.084Z" fill="#CEFD94"></path><path d="M359.188 192.434L346.445 240.285C347.95 240.617 349.478 240.843 351.037 240.914C352.981 241.001 354.877 240.861 356.751 240.538C360.451 239.898 363.804 238.525 366.826 236.488C368.567 235.326 370.091 233.965 371.445 232.432L376.957 211.736C376.75 210.733 376.474 209.731 376.132 208.745C375.03 205.531 373.286 202.601 370.939 199.981L370.935 199.994C370.146 199.102 369.293 198.269 368.391 197.5C366.899 196.223 365.255 195.121 363.471 194.211C362.105 193.516 360.659 192.933 359.186 192.441L359.188 192.434Z" fill="#CEFD94"></path><path d="M901.117 265.034L853.701 279.309C854.209 280.764 854.819 282.184 855.577 283.548C856.523 285.248 857.638 286.788 858.897 288.213C861.384 291.027 864.312 293.16 867.633 294.662C869.536 295.534 871.495 296.117 873.51 296.465L894.019 290.29C894.763 289.587 895.471 288.826 896.131 288.018C898.288 285.392 899.866 282.37 900.864 278.997L900.851 279.001C901.195 277.86 901.456 276.697 901.638 275.526C901.941 273.585 902.016 271.608 901.854 269.612C901.727 268.084 901.465 266.547 901.111 265.035L901.117 265.034Z" fill="#CEFD94"></path><path d="M358.733 403.456L332.563 361.418C331.292 362.288 330.081 363.249 328.962 364.336C327.569 365.694 326.373 367.172 325.326 368.76C323.26 371.896 321.967 375.28 321.384 378.878C321.041 380.943 320.99 382.986 321.18 385.022L332.5 403.204C333.372 403.74 334.292 404.224 335.245 404.649C338.343 406.045 341.673 406.779 345.189 406.86L345.182 406.849C346.373 406.883 347.564 406.831 348.742 406.7C350.694 406.486 352.622 406.042 354.507 405.364C355.949 404.842 357.363 404.187 358.73 403.451L358.733 403.456Z" fill="#CEFD94"></path><path d="M755.899 320.042L712.665 295.898C711.973 297.275 711.377 298.7 710.924 300.193C710.361 302.056 710.029 303.928 709.88 305.824C709.588 309.568 710.092 313.155 711.321 316.586C712.019 318.56 712.962 320.373 714.114 322.063L732.813 332.506C733.836 332.552 734.875 332.532 735.915 332.444C739.302 332.167 742.571 331.2 745.689 329.571L745.677 329.564C746.736 329.019 747.753 328.397 748.721 327.713C750.326 326.581 751.8 325.26 753.121 323.756C754.131 322.602 755.053 321.345 755.893 320.039L755.899 320.042Z" fill="#CEFD94"></path><path d="M961.808 357.678L970.093 308.857C968.564 308.665 967.021 308.581 965.463 308.653C963.519 308.746 961.644 309.06 959.807 309.554C956.182 310.532 952.97 312.207 950.148 314.514C948.522 315.832 947.129 317.327 945.921 318.977L942.338 340.094C942.636 341.073 943.003 342.045 943.434 342.996C944.828 346.095 946.834 348.852 949.412 351.245L949.415 351.231C950.283 352.047 951.209 352.798 952.178 353.481C953.781 354.615 955.519 355.561 957.379 356.303C958.804 356.869 960.297 357.317 961.809 357.671L961.808 357.678Z" fill="#CEFD94"></path><path d="M1108.37 335.029L1151.47 310.647C1150.65 309.34 1149.74 308.09 1148.7 306.926C1147.4 305.477 1145.98 304.221 1144.43 303.108C1141.39 300.912 1138.06 299.478 1134.49 298.744C1132.44 298.314 1130.4 298.178 1128.36 298.283L1109.72 308.828C1109.15 309.678 1108.62 310.576 1108.16 311.51C1106.64 314.547 1105.76 317.843 1105.53 321.353L1105.55 321.347C1105.46 322.535 1105.46 323.727 1105.54 324.91C1105.68 326.869 1106.04 328.814 1106.64 330.725C1107.1 332.188 1107.69 333.629 1108.37 335.025L1108.37 335.029Z" fill="#CEFD94"></path><path d="M57.89 472.456L90.7019 435.368C89.5048 434.398 88.2389 433.512 86.877 432.75C85.1776 431.803 83.4193 431.079 81.5986 430.53C78.0032 429.446 74.391 429.173 70.7769 429.642C68.6997 429.902 66.727 430.437 64.8306 431.201L50.6385 447.243C50.3749 448.232 50.1733 449.252 50.0377 450.286C49.5849 453.654 49.833 457.055 50.7592 460.448L50.7685 460.438C51.0753 461.589 51.4652 462.715 51.9275 463.807C52.6906 465.617 53.6669 467.338 54.855 468.95C55.7665 470.183 56.7981 471.351 57.8947 472.451L57.89 472.456Z" fill="#CEFD94"></path><path d="M194.778 487.292L164.431 448.161C163.256 449.157 162.15 450.237 161.148 451.433C159.902 452.927 158.864 454.52 157.986 456.207C156.253 459.539 155.314 463.037 155.103 466.676C154.973 468.765 155.132 470.803 155.531 472.808L168.656 489.733C169.58 490.176 170.544 490.563 171.536 490.889C174.761 491.96 178.148 492.347 181.654 492.068L181.646 492.057C182.834 491.969 184.013 491.795 185.172 491.544C187.092 491.13 188.964 490.491 190.769 489.623C192.15 488.956 193.49 488.159 194.774 487.286L194.778 487.292Z" fill="#CEFD94"></path></svg> 