<?xml version="1.0" encoding="UTF-8"?> <svg xmlns="http://www.w3.org/2000/svg" width="1440" height="1146" viewBox="0 0 1440 1146" fill="none"><mask id="mask0_2084_6950" style="mask-type:alpha" maskUnits="userSpaceOnUse" x="0" y="0" width="1440" height="1146"><rect width="1440" height="1146" fill="#0C2233"></rect></mask><g mask="url(#mask0_2084_6950)"><rect width="1440" height="1146" fill="#0C2233"></rect><path d="M1509.79 -27.9966C1468.71 8.68263 1430.21 48.1413 1393.65 89.5794C1352.82 135.743 1317.14 186.718 1291.25 243.193C1244.21 345.795 1228.31 453.338 1245.33 565.107C1257.6 646.052 1273.49 726.106 1294.21 805.464C1317.19 893.797 1349.25 978.517 1386.95 1061.14C1418.92 1131.35 1456.96 1198.08 1500 1261.76" stroke="#CEFD94" stroke-width="3.02709" stroke-miterlimit="10"></path><path d="M1627.23 350.731C1623.61 355.643 1620.16 360.692 1616.89 365.891C1592.87 404.033 1552.55 484.907 1535.14 526.443C1503.8 601.381 1502.06 682.382 1513.29 761.988C1529.51 877.095 1569.52 983.398 1640.31 1077.07C1670.7 1117.25 1704.53 1153.69 1741.95 1186.74" stroke="#CEFD94" stroke-width="3.78387" stroke-linecap="round" stroke-linejoin="round"></path><path d="M1599.23 260.433C1596.29 264.358 1593.45 268.361 1590.72 272.472C1563.25 313.865 1516.82 402.185 1497.04 447.721L1496.93 447.579C1472.89 503.024 1465.02 563.123 1460.09 623.124C1452.48 714.927 1464.88 804.421 1495.27 891.148C1517.19 953.928 1547.2 1013 1584.37 1068.24C1616.22 1115.53 1650.44 1160.91 1688.39 1203.34" stroke="#CEFD94" stroke-width="6.05419" stroke-linecap="round" stroke-linejoin="round"></path><path d="M1574.69 181.318C1547.02 216.12 1522.8 253.382 1501.58 292.498C1486.07 321.131 1458.29 380.022 1445.48 409.995L1445.55 410.033C1416.39 478.516 1406.73 550.969 1408.24 625.464C1410.27 728.024 1435.59 825.717 1469.17 921.293C1498.65 1005.09 1541.34 1082.73 1593.34 1154.8C1608.97 1176.41 1625.44 1197.31 1642.69 1217.52" stroke="#FF6A39" stroke-width="7.56773" stroke-linecap="round" stroke-linejoin="round"></path><path d="M1534.22 50.7745C1507.65 75.3851 1483.44 102.376 1462.65 132.387C1436.46 170.169 1389.04 249.409 1369.21 290.893L1369.45 290.932C1337.77 357.219 1321.66 428.984 1312.92 502.529C1304.85 570.313 1314.12 636.213 1326.12 702.064C1337.78 765.901 1352.95 829.059 1373.35 890.765C1414.72 1016.06 1473.04 1133.06 1550.76 1239.46C1552.07 1241.24 1553.37 1243.03 1554.69 1244.81" stroke="#0A91AB" stroke-width="1.51355" stroke-linecap="round" stroke-linejoin="round"></path><path d="M1553.15 111.827C1539.98 125.483 1527.38 139.703 1515.35 154.459C1490.67 184.735 1467.51 216.595 1450.42 252.36C1438.9 276.546 1401.23 355.402 1395.86 370.409C1365.15 456.26 1349.8 543.024 1360.22 634.971C1371.21 732.115 1390.46 827.049 1422.71 919.039C1462.56 1032.76 1521.24 1136.46 1593.39 1232.81" stroke="#FF6A39" stroke-width="15.1355" stroke-linecap="round" stroke-linejoin="round"></path></g></svg> 