<?xml version="1.0" encoding="UTF-8"?> <svg xmlns="http://www.w3.org/2000/svg" width="53" height="54" viewBox="0 0 53 54" fill="none"><path d="M45.6523 7.93311H51.1457" stroke="#FFFEFB" stroke-width="3" stroke-linecap="round" stroke-linejoin="round"></path><path d="M1.8125 7.93311H34.6925" stroke="#FFFEFB" stroke-width="3" stroke-linecap="round" stroke-linejoin="round"></path><path d="M40.1858 13.3732C43.2197 13.3732 45.6791 10.9376 45.6791 7.93317C45.6791 4.92874 43.2197 2.49316 40.1858 2.49316C37.1519 2.49316 34.6924 4.92874 34.6924 7.93317C34.6924 10.9376 37.1519 13.3732 40.1858 13.3732Z" stroke="#FFFEFB" stroke-width="3" stroke-linecap="round" stroke-linejoin="round"></path><path d="M45.6523 46.0664H51.1457" stroke="#FFFEFB" stroke-width="3" stroke-linecap="round" stroke-linejoin="round"></path><path d="M1.8125 46.0664H34.6925" stroke="#FFFEFB" stroke-width="3" stroke-linecap="round" stroke-linejoin="round"></path><path d="M40.1858 51.5065C43.2197 51.5065 45.6791 49.0709 45.6791 46.0665C45.6791 43.062 43.2197 40.6265 40.1858 40.6265C37.1519 40.6265 34.6924 43.062 34.6924 46.0665C34.6924 49.0709 37.1519 51.5065 40.1858 51.5065Z" stroke="#FFFEFB" stroke-width="3" stroke-linecap="round" stroke-linejoin="round"></path><path d="M18.2656 27H51.1456" stroke="#FFFEFB" stroke-width="3" stroke-linecap="round" stroke-linejoin="round"></path><path d="M1.8125 27H7.30583" stroke="#FFFEFB" stroke-width="3" stroke-linecap="round" stroke-linejoin="round"></path><path d="M12.7726 32.4396C15.8065 32.4396 18.266 30.004 18.266 26.9996C18.266 23.9951 15.8065 21.5596 12.7726 21.5596C9.73874 21.5596 7.2793 23.9951 7.2793 26.9996C7.2793 30.004 9.73874 32.4396 12.7726 32.4396Z" stroke="#FFFEFB" stroke-width="3" stroke-linecap="round" stroke-linejoin="round"></path></svg> 