<?xml version="1.0" encoding="UTF-8"?> <svg xmlns="http://www.w3.org/2000/svg" width="45" height="50" viewBox="0 0 45 50" fill="none"><path d="M2.08841 21.6933C2.49241 20.9411 3.15604 20.3614 3.95569 20.0622C4.75534 19.7629 5.63651 19.7645 6.43508 20.0666C7.02748 20.4027 7.50166 20.9135 7.79282 21.5292C8.08397 22.1449 8.17789 22.8355 8.06174 23.5066C7.87508 24.68 7.02174 25.16 4.96841 27.1333C3.63508 28.3866 2.59508 29.5066 1.95508 30.2H8.16841" stroke="#FFFEFB" stroke-width="3" stroke-linecap="round" stroke-linejoin="round"></path><path d="M2.24805 38.3335H8.00805L4.51471 41.7735C4.99693 41.7869 5.47153 41.8971 5.91031 42.0976C6.3491 42.298 6.74312 42.5846 7.06898 42.9403C7.39484 43.296 7.64588 43.7136 7.8072 44.1682C7.96852 44.6229 8.03682 45.1053 8.00805 45.5868C7.86757 46.2908 7.5036 46.9306 6.97028 47.411C6.43696 47.8915 5.76279 48.187 5.04805 48.2535C4.55355 48.2731 4.06047 48.1883 3.60097 48.0045C3.14148 47.8207 2.72591 47.5421 2.38138 47.1868" stroke="#FFFEFB" stroke-width="3" stroke-linecap="round" stroke-linejoin="round"></path><path d="M43.3951 6.75977H16.3018" stroke="#FFFEFB" stroke-width="3" stroke-linecap="round" stroke-linejoin="round"></path><path d="M43.3951 43.2397H16.3018" stroke="#FFFEFB" stroke-width="3" stroke-linecap="round" stroke-linejoin="round"></path><path d="M43.3951 25H16.3018" stroke="#FFFEFB" stroke-width="3" stroke-linecap="round" stroke-linejoin="round"></path><path d="M3.90137 3.10661L6.38137 1.61328V11.8799" stroke="#FFFEFB" stroke-width="3" stroke-linecap="round" stroke-linejoin="round"></path></svg> 