<?xml version="1.0" encoding="UTF-8"?> <svg xmlns="http://www.w3.org/2000/svg" width="1440" height="520" viewBox="0 0 1440 520" fill="none"><path d="M0 0H1440V520H0V0Z" fill="#0C2233"></path><mask id="mask0_1547_29874" style="mask-type:alpha" maskUnits="userSpaceOnUse" x="0" y="0" width="1440" height="520"><rect opacity="0.2" width="1440" height="520" fill="#0C2233"></rect></mask><g mask="url(#mask0_1547_29874)"><path opacity="0.2" d="M-1303.31 359.907C-1303.91 378.432 -1302.2 396.677 -1295.75 414.432C-1288.23 435.054 -1272.36 446.799 -1248.26 450.573C-1234.73 452.705 -1221.03 453.334 -1207.42 453.754C-1162.03 455.117 -1117.35 459.276 -1074.41 473.851C-1049.08 482.45 -1024.9 492.971 -1005.46 509.468C-987.219 524.952 -975.426 544.245 -970.717 566.999C-964.582 596.499 -975.703 620.651 -995.53 643.44C-1012.39 662.839 -1034.75 676.505 -1055.29 692.199C-1076.11 708.102 -1096.96 724.39 -1112.36 744.872C-1134.48 774.302 -1125.93 817.678 -1079.23 828.583C-1064.43 832.043 -1050.42 828.024 -1038.59 820.893C-1015.71 807.052 -996.401 789.576 -978.513 770.842C-955.599 746.864 -932.249 723.411 -899.836 708.626C-881.117 700.098 -861.843 694.366 -840.908 691.745C-820.012 689.158 -799.749 691.884 -779.13 693.282C-763.181 694.366 -746.915 694.401 -730.649 692.408C-720.122 691.115 -709.16 691.08 -698.434 690.276C-669.782 688.109 -641.287 685.243 -612.911 680.595C-571.396 673.779 -529.722 674.408 -490.582 690.521C-459.95 703.139 -431.456 719.252 -402.961 735.4C-360.852 759.203 -329.864 791.988 -302.597 827.954C-288.705 846.304 -275.804 865.388 -258.549 881.361C-241.412 897.229 -221.347 910.476 -198.868 919.948C-164.714 934.314 -130.402 948.4 -95.4566 961.227C-60.709 973.95 -24.6159 979.612 12.7833 976.886C26.8328 975.872 40.6054 971.713 54.6153 969.651C77.5297 966.295 100.207 962.66 123.952 964.967C149.756 967.483 175.836 968.847 201.718 970.769C221.823 972.272 241.73 971.014 261.558 970C277.863 969.161 294.88 968.846 309.246 958.85C321.079 950.601 326.699 940.256 328.005 927.638C329.747 910.686 325.71 894.328 320.486 878.18C314.628 860.075 312.333 842.005 314.312 822.816C318.111 785.696 334.496 753.26 358.875 724.18C374.745 705.271 396.392 691.884 423.897 686.711C439.332 683.81 452.234 674.723 465.69 667.627C509.144 644.664 552.519 621.56 596.765 599.75C614.02 591.256 631.038 582.449 649.994 577.206C678.37 569.376 706.786 567.454 736.468 572.557C761.797 576.891 784.909 585.419 806.438 596.779C832.914 610.725 860.499 622.154 889.231 631.731C916.063 640.679 937.355 656.652 954.571 676.261C998.144 725.858 1028.7 781.607 1049.39 841.41C1057.74 865.527 1063.8 890.658 1064.43 915.964C1065.03 939.696 1055.65 961.227 1036.45 978.878C1005.74 1007.15 968.738 1027.74 931.023 1047.63C911.235 1058.04 889.587 1065.94 873.955 1081.92C856.7 1099.6 846.924 1119.56 848.428 1143.19C849.773 1164.47 874.509 1184.36 898.729 1185.27C932.369 1186.49 959.241 1174.37 983.303 1155C1007.88 1135.18 1027.55 1111.77 1047.93 1088.77C1067.92 1066.19 1092.18 1047.31 1117.11 1029.14C1125.78 1022.85 1134.68 1016.77 1144.73 1012.54C1162.3 1005.13 1180.55 1004.71 1199.78 1008.03C1264.45 1019.21 1326.07 1039.87 1389.59 1054.58C1418.87 1061.4 1448.12 1068.04 1477.92 1072.97C1507.6 1077.9 1537.64 1082.44 1564.4 1096.25C1580.9 1104.78 1597.24 1113.62 1614.7 1120.57C1639.03 1130.29 1664.48 1136.86 1690.64 1141.69C1712.8 1145.78 1734.97 1144.55 1757.13 1143.12C1765.48 1142.59 1774.07 1140.6 1780.72 1136.34C1800.03 1124 1819.82 1112.01 1833.11 1093.77C1845.82 1076.43 1849.74 1057.91 1845.74 1037.53C1844.32 1030.19 1844.71 1022.46 1843.6 1014.91C1840.99 996.669 1837.86 978.528 1834.42 960.353C1830.86 941.584 1826.82 922.884 1822.59 904.22C1816.97 879.334 1811.86 854.343 1805.29 829.631C1800.78 812.68 1796.94 795.693 1793.9 778.461C1790.57 759.692 1790.1 740.853 1792.55 722.293C1796.82 689.508 1809.69 659.833 1835.73 634.912C1862.24 609.502 1896.12 596.08 1931.78 584.651C1959.28 575.843 1987.5 568.467 2010.73 551.306C2033.09 534.773 2036.1 514.222 2017.14 495.103C2003.17 481.017 1984.33 472.558 1965.89 464.135C1926.04 445.96 1885.43 429.078 1849.06 405.415C1830.5 393.356 1812.46 380.878 1794.92 367.666C1778.86 355.538 1763.9 342.431 1749.65 328.834C1727.84 308.072 1706.55 286.926 1695.11 259.454C1687.91 242.152 1684.82 224.851 1685.7 206.536C1686.53 189.514 1686.57 172.422 1685.62 155.401C1685.02 144.461 1681.97 133.59 1680.19 122.685C1677.66 107.097 1682.81 92.6613 1688.62 78.226C1696.3 59.142 1708.09 41.7705 1716.45 22.9661C1722.5 9.33469 1727.68 -4.64625 1725.39 -18.9767C1721.23 -45.2259 1724.56 -71.7894 1719.77 -97.794C1715.57 -120.758 1703.19 -140.96 1686.72 -158.996C1677.31 -169.307 1668.6 -180.212 1656.45 -188.46C1635.2 -202.861 1612.84 -199.47 1589.92 -192.69C1574.61 -188.146 1561.47 -180.212 1549.28 -171.474C1525.21 -154.172 1503.76 -134.389 1485.52 -112.09C1471.43 -94.893 1465.22 -75.4596 1463.36 -54.2785C1461.66 -35.2295 1460.03 -16.1452 1456.39 2.79896C1453.74 16.6401 1452.55 30.7258 1446.5 43.798C1434.82 68.9287 1400.71 85.1115 1369.56 73.3326C1352.62 66.9013 1344.19 55.2621 1340.28 40.4773C1334.54 18.632 1338.81 -2.82856 1344.99 -24.0446C1349.77 -40.5421 1348.71 -56.2358 1340.4 -71.9294C1332.01 -87.7628 1327.93 -104.715 1324.53 -122.086C1320.25 -143.686 1320.37 -165.287 1321.76 -186.713C1323.1 -207.964 1326.35 -229.145 1325.91 -250.466C1325.32 -280.28 1319.14 -308.801 1298.45 -333.478C1288.2 -345.676 1274.54 -354.519 1259.42 -360.95C1239.24 -369.549 1219.61 -378.951 1199.82 -388.143C1177.58 -398.454 1154.67 -399.293 1130.37 -396.602C1094.55 -392.617 1063.09 -378.461 1030.64 -366.298C998.975 -354.414 966.72 -343.614 932.844 -337.882C901.776 -332.604 870.868 -333.268 839.682 -340.503C823.535 -344.243 806.319 -345.746 789.579 -348.018C770.266 -350.674 750.874 -353.331 731.521 -355.672C715.453 -357.595 699.346 -359.657 683.199 -361.3C662.54 -363.397 641.723 -365.599 621.54 -369.828C601.316 -374.057 580.974 -376.015 560.712 -374.267C525.054 -371.191 493.076 -358.923 464.78 -339.35C444.596 -325.404 426.708 -309.151 406.841 -294.925C400.904 -290.661 395.403 -285.558 388.714 -282.517C366.75 -272.451 359.27 -272.136 338.691 -290.067C328.995 -298.525 321.436 -308.906 312.848 -318.378C297.809 -334.981 283.839 -352.317 267.336 -367.906C253.999 -380.524 238.287 -389.856 220.755 -397.266C182.485 -413.449 146.233 -432.882 109.586 -451.686C81.6061 -466.052 52.4782 -478.565 25.8832 -495.132C-3.04678 -513.203 -27.4649 -535.013 -50.1419 -558.885C-82.0796 -592.475 -109.585 -628.72 -136.576 -665.385C-148.093 -681.009 -164.081 -693.382 -179.792 -706C-210.187 -730.362 -238.286 -756.681 -256.965 -789.606C-258.628 -792.507 -260.607 -795.268 -262.665 -797.994C-268.918 -806.383 -273.39 -807.641 -283.521 -802.993C-301.014 -794.988 -317.437 -785.272 -334.613 -776.708C-365.285 -761.434 -397.618 -750.005 -430.783 -740.253C-479.738 -725.853 -526.517 -707.503 -571.356 -684.924C-623.992 -658.395 -679.517 -637.703 -738.406 -624.421C-765.001 -618.409 -791.873 -614.075 -819.062 -610.72C-856.619 -606.106 -894.256 -603.519 -932.091 -603.554C-979.661 -603.589 -1026.24 -609.566 -1071.75 -622.569C-1101.32 -631.027 -1129.89 -625.924 -1156.09 -612.502C-1186.44 -596.983 -1207.3 -572.692 -1227.33 -548.05C-1247.07 -523.758 -1261.16 -496.251 -1280.79 -471.924C-1302.05 -445.605 -1317.96 -417.293 -1328.21 -386.291C-1333.23 -371.086 -1336.91 -355.812 -1339.68 -340.154C-1343.64 -317.819 -1344.23 -295.415 -1342.93 -273.045C-1341.86 -255.115 -1339.8 -237.114 -1336.04 -219.288C-1334.1 -210.271 -1333.31 -200.869 -1331.93 -191.676C-1329.43 -175.179 -1326.98 -158.681 -1324.56 -142.184C-1322.9 -130.789 -1321.87 -119.29 -1320.61 -107.826C-1317.76 -82.1705 -1318.98 -56.4106 -1318.55 -30.6857C-1317.99 1.40059 -1312.14 32.8576 -1297.45 62.2875C-1285.19 86.859 -1270.27 110.382 -1256.97 134.534C-1248.54 149.878 -1241.97 165.921 -1240.82 183.153C-1239.28 206.152 -1247.43 226.739 -1262.63 245.193C-1277.79 263.613 -1289.26 283.536 -1295.87 305.591C-1299.91 319.082 -1303.39 332.609 -1303.51 346.695C-1303.51 350.889 -1302.44 355.188 -1304.38 359.278" stroke="#FFFEFB" stroke-width="2" stroke-linecap="round" stroke-linejoin="round"></path><path opacity="0.2" d="M2099.11 820.264C2075.56 835.084 2050.63 847.982 2023.99 857.803C1988.45 870.911 1958.65 869.547 1928.14 843.787C1907 825.927 1888.92 806.249 1878.87 781.677C1867.55 754.065 1864.34 726.173 1875.9 697.826C1884.25 677.414 1901.07 664.098 1921.49 653.332C1949.15 638.757 1979.79 630.753 2009.86 621.595C2045.28 610.795 2074.73 593.843 2089.49 561.932C2099.26 540.786 2105.32 519.22 2094.52 496.501C2089.21 485.351 2080.39 477.487 2069.7 470.496C2032.42 446.204 1990 430.196 1949 411.951C1918.76 398.494 1888.6 384.933 1861.73 366.513C1820.49 338.272 1787.64 304.403 1772.49 259.21C1767.14 243.341 1764.06 227.088 1761.8 210.626C1758.63 187.697 1759.74 164.733 1760.42 141.839C1760.97 122.965 1764.69 104.266 1768.61 85.6361C1773.36 62.987 1782.5 41.2119 1786.22 18.4928C1788.12 6.85371 1787.68 -5.41468 1787.09 -17.5082C1786.14 -37.7106 1783.49 -57.7384 1781.71 -77.836C1780.84 -87.9022 1781.63 -97.9684 1779.37 -108.07C1774.07 -131.872 1770.07 -155.71 1754.68 -176.926C1739.44 -197.862 1730.89 -221.49 1724.05 -245.537C1718.15 -266.334 1713.48 -287.445 1704.93 -307.543C1692.66 -336.378 1669.83 -352.981 1633.89 -356.581C1603.62 -359.587 1576.51 -354.239 1549.12 -343.194C1524.7 -333.338 1499.22 -332.674 1476.1 -348.542C1472.54 -350.989 1468.23 -353.12 1462.92 -352.946C1441.47 -352.247 1422.44 -358.958 1404.04 -367.94C1363.75 -387.584 1324.17 -408.415 1282.5 -425.856C1236.47 -445.115 1188.66 -459.76 1139.15 -470.456C1103.73 -478.11 1072.79 -469.582 1042.11 -454.587C1009.98 -438.894 977.566 -423.445 941.631 -414.846C892.359 -403.032 846.847 -409.359 804.857 -435.084C796.19 -440.396 787.404 -445.569 777.273 -448.436C759.463 -453.504 741.852 -451.092 725.151 -444.975C705.838 -437.915 685.852 -434.175 665.273 -431.588C637.53 -428.093 609.589 -427.779 581.688 -426.416C540.055 -424.388 498.777 -419.145 458.212 -409.988C406.724 -398.349 358.916 -404.71 315.778 -433.371C285.265 -453.678 250.478 -466.681 215.137 -478.669C185.93 -488.561 155.615 -496.006 127.793 -508.903C93.1642 -524.981 63.5617 -546.337 41.3992 -575.138C32.6529 -586.497 30.5948 -600.129 26.3998 -612.921C17.4556 -640.219 0.517286 -663.323 -19.4685 -684.923C-44.4409 -711.906 -72.7776 -736.268 -99.056 -762.203C-121.179 -784.048 -141.916 -806.907 -160.161 -831.583C-185.964 -866.431 -221.701 -888.975 -269.074 -896.525C-287.16 -899.426 -305.206 -900.544 -323.213 -899.356C-344.109 -897.993 -362.117 -888.87 -379.292 -878.699C-408.579 -861.328 -435.055 -840.88 -461.848 -820.783C-487.928 -801.245 -516.581 -785.062 -546.421 -770.591C-572.106 -758.113 -597.751 -745.53 -624.228 -734.486C-652.881 -722.532 -682.523 -712.815 -713.51 -706.943C-737.216 -702.434 -761.675 -701.595 -785.618 -703.763C-828.518 -707.642 -866.273 -723.091 -897.657 -749.585C-924.648 -772.374 -948.512 -797.644 -971.783 -823.334C-984.566 -837.42 -996.993 -838.993 -1016.46 -830.989C-1052.95 -815.994 -1084.06 -794.429 -1114.34 -771.465C-1138.83 -752.871 -1163.09 -733.996 -1186.17 -714.108C-1235.67 -671.362 -1278.38 -624.141 -1305.37 -566.819C-1317.64 -540.78 -1332.44 -515.614 -1347 -490.448C-1367.7 -454.657 -1381.16 -416.699 -1392.43 -378.042C-1402.8 -342.565 -1409.69 -306.389 -1418.83 -270.668C-1422.51 -256.268 -1419.58 -241.448 -1416.73 -227.152C-1414.68 -216.806 -1412.5 -206.496 -1412.5 -196.08C-1412.42 -172.033 -1411.95 -147.95 -1413.65 -123.973C-1414.99 -104.924 -1416.97 -85.8749 -1420.49 -66.8609C-1424.53 -45.2953 -1429.75 -23.7649 -1428.69 -1.50022C-1427.42 24.8538 -1420.53 49.5305 -1403.67 71.3757C-1385.9 94.4093 -1372.01 118.841 -1364.85 146.069C-1359.11 167.984 -1359.07 189.969 -1361.76 212.338C-1365.6 244.32 -1379.06 273.959 -1388.71 304.508C-1392.4 316.112 -1394.53 327.821 -1396.55 339.705C-1398.93 353.895 -1397.42 367.701 -1396.12 381.682C-1395.21 391.609 -1392.2 401.256 -1390.06 410.972C-1386.82 425.792 -1389.66 439.703 -1393.34 453.789C-1396.08 464.275 -1400.82 474.166 -1405.73 483.953C-1411.15 494.718 -1413.05 505.833 -1413.45 517.542C-1413.81 529.146 -1415.27 540.785 -1422.67 551.131C-1432.05 564.203 -1447.25 568.643 -1462.6 572.872C-1480.37 577.765 -1498.78 581.086 -1515.71 588.076C-1533.72 595.486 -1548.28 605.937 -1544.29 629.075C-1542.82 637.568 -1538.55 645.328 -1531.7 650.676C-1516.51 662.525 -1498.58 669.83 -1477.8 670.179C-1452.99 670.598 -1431.81 661.93 -1413.37 648.264C-1396.63 635.856 -1378.62 627.467 -1356.26 628.306C-1347.52 628.621 -1338.69 629.774 -1330.7 632.605C-1303.07 642.392 -1277.23 638.652 -1251.7 626.733C-1244.5 623.378 -1237.34 619.184 -1228.99 618.275C-1208.37 615.968 -1196.61 630.159 -1201.44 648.404C-1210.31 682.028 -1220.36 715.407 -1228.55 749.101C-1236.07 780.034 -1229.42 809.709 -1210.15 837.146C-1191.71 863.396 -1170.61 887.373 -1141.52 904.849C-1124.9 914.811 -1106.06 919.809 -1085.6 920.193C-1043.81 920.962 -1006.29 909.463 -971.704 889.819C-945.861 875.139 -918.197 864.234 -888.001 860.075C-863.939 856.754 -839.441 857.069 -814.904 859.481C-793.137 861.613 -771.608 865.667 -749.406 864.933C-711.136 863.675 -677.259 852.98 -647.775 831.274C-625.533 814.882 -602.58 799.817 -574.758 790.765C-534.707 777.727 -500.751 785.382 -470.159 810.268C-437.508 836.797 -413.407 868.813 -391.126 902.402C-366.707 939.207 -329.506 962.276 -283.123 973.775C-259.1 979.717 -234.326 982.443 -210.026 987.232C-177.733 993.593 -145.478 1000.23 -113.145 1006.46C-96.2063 1009.71 -79.0702 1011.94 -61.9338 1014.25C-24.7325 1019.25 12.6669 1020.47 50.1453 1019.7C69.5375 1019.32 88.8505 1018.69 108.084 1020.82C139.824 1024.39 170.139 1032.46 198.238 1045.99C227.643 1060.18 252.734 1079.23 276.401 1100.2C297.574 1118.97 318.826 1137.98 343.68 1153.12C361.805 1164.16 382.187 1171.12 404.31 1168.01C426.235 1164.93 448.199 1161.33 469.056 1153.43C485.519 1147.21 500.4 1139.73 511.719 1127.22C521.098 1116.87 525.61 1105.09 528.103 1092.02C532.021 1071.5 526.203 1052.21 522.404 1032.39C518.248 1010.54 513.816 988.385 516.745 966.225C520.307 939.032 526.56 912.224 542.984 888.177C548.01 880.802 550.186 872.553 550.701 863.885C552.165 839.139 559.684 816.245 579.235 797.685C596.292 781.502 604.167 761.195 613.349 741.447C622.808 721.035 631.317 700.413 645.446 681.783C667.054 653.262 696.894 639.491 734.887 643.65C791.085 649.837 845.422 662.734 892.438 692.129C950.575 728.48 987.341 777.762 1003.01 839.488C1007.33 856.51 1009.86 873.532 1008.16 890.658C1006.38 908.344 997.552 924.143 985.679 938.473C963.2 965.631 931.935 984.086 902.016 1003.76C857.572 1032.95 817.402 1065.49 787.087 1106.94C767.101 1134.28 769.397 1165.14 789.106 1190.9C795.834 1199.67 804.817 1206.14 814.711 1211.91C817.442 1213.51 820.133 1214.35 823.299 1214.35" stroke="#FFFEFB" stroke-width="2" stroke-linecap="round" stroke-linejoin="round"></path><path opacity="0.2" d="M1073.93 807.508C1086.71 833.338 1090.04 861.894 1103.69 887.444C1121.26 920.334 1149.64 942.738 1186.6 956.789C1236.59 975.768 1287.52 992.72 1339.41 1007.26C1363.03 1013.87 1387.13 1018.62 1411.51 1022.57C1447.09 1028.34 1482.99 1030.82 1518.84 1028.72C1564.83 1026.03 1610.78 1020.96 1652.69 1002.09C1689.97 985.31 1712.49 958.222 1720.21 921.732C1724.28 902.543 1727.61 883.32 1729.9 863.886C1732.24 844.348 1734.02 824.774 1735.6 805.166C1737.5 781.958 1738.65 758.714 1741.22 735.576C1746.36 688.775 1761.56 644.84 1796.39 608.315C1816.85 586.854 1841.23 568.958 1870 555.851C1884.56 549.21 1899.29 542.324 1912.19 532.887C1914.13 531.454 1916.66 530.021 1918.56 528.379C1929.88 518.627 1929.96 509.539 1919.59 499.053C1908.03 487.379 1894.7 477.313 1881.4 467.421C1858.33 450.26 1834.78 433.623 1811.47 416.741C1769.56 386.332 1727.45 355.993 1689.69 321.355C1654.07 288.675 1625.18 252.01 1606.31 209.753C1592.22 178.191 1567.4 159.352 1529.29 153.41C1512.27 150.753 1495.49 151.557 1478.99 153.934C1463.16 156.206 1447.33 158.443 1431.5 160.54C1414.68 162.777 1397.9 161.344 1381.12 162.043C1360.7 162.917 1340.91 158.967 1321.36 155.052C1298.33 150.439 1275.61 144.392 1252.97 138.415C1235.99 133.941 1230.89 123.525 1233.58 108.286C1235.72 96.0528 1237.66 83.7145 1239.56 71.4463C1243.36 46.5951 1248.86 22.0587 1258.83 -1.42929C1267.7 -22.4007 1272.37 -43.9313 1269.67 -66.0211C1268.13 -78.9186 1264.45 -91.816 1262.91 -104.678C1260.06 -128.271 1256.77 -151.969 1259.38 -175.911C1261.44 -194.646 1267.85 -212.961 1266.27 -232.08C1263.9 -261.44 1252.93 -287.794 1230.93 -309.953C1214.82 -326.136 1194.91 -336.587 1170.42 -341.516C1151.06 -345.395 1132.03 -345.57 1113.43 -342.389C1078.52 -336.447 1046.03 -323.725 1013.58 -311.037C985.361 -299.992 955.718 -292.128 925.285 -287.619C897.74 -283.565 869.76 -280.943 841.78 -282.551C817.243 -283.949 792.903 -286.256 768.564 -290.45C709.715 -300.656 652.171 -315.406 593.876 -327.535C576.344 -331.17 558.377 -334.001 540.765 -327.604C526.162 -322.292 512.983 -314.777 500.873 -305.829C479.819 -290.24 467.115 -270.283 458.764 -247.249C450.295 -223.831 440.441 -200.763 428.726 -178.393C419.624 -160.952 407.751 -145.328 391.644 -132.291C372.093 -116.457 353.413 -118.345 340.511 -139.072C326.541 -161.546 315.737 -185.418 303.27 -208.592C285.897 -240.888 271.096 -274.302 250.16 -305.06C239.356 -320.929 225.267 -333.546 207.537 -343.822C172.512 -364.095 138.318 -385.451 103.887 -406.527C71.5932 -426.345 36.4897 -442.143 4.19577 -461.891C-40.525 -489.224 -81.0904 -520.611 -117.698 -556.367C-148.013 -585.937 -179.397 -614.773 -212.522 -641.966C-232.27 -658.184 -254.116 -672.234 -278.811 -682.371C-298.797 -690.549 -319.416 -696.037 -341.46 -698.519C-380.68 -702.958 -418.039 -695.618 -455.438 -687.334C-499.526 -677.582 -539.141 -658.953 -577.965 -638.785C-619.559 -617.185 -661.906 -596.808 -708.012 -583.386C-733.143 -576.081 -759.183 -572.411 -784.908 -567.378C-806.674 -563.113 -828.639 -559.583 -850.524 -556.123C-868.373 -553.327 -886.499 -551.09 -904.545 -548.783C-921.642 -546.581 -938.818 -544.693 -955.915 -542.631C-970.32 -540.884 -985.003 -540.01 -999.567 -539.031C-1021.37 -537.598 -1043.38 -537.633 -1065.07 -535.396C-1108.6 -530.922 -1149.16 -519.038 -1184.86 -495.481C-1199.62 -485.729 -1211.61 -473.705 -1223.49 -461.647C-1236.11 -448.784 -1249.45 -436.411 -1261.72 -423.269C-1278.62 -405.199 -1292.07 -385.241 -1295.4 -361.963C-1298.48 -340.397 -1300.15 -318.517 -1297.89 -296.602C-1296.98 -287.689 -1297.3 -278.741 -1296.11 -269.758C-1293.73 -252.002 -1289.94 -234.526 -1286.69 -216.91C-1284.08 -202.685 -1281.43 -188.424 -1278.7 -174.199C-1275.49 -157.422 -1272.24 -140.644 -1269.67 -123.832C-1267.81 -111.669 -1266.39 -99.3307 -1265.28 -86.9926C-1263.22 -64.0638 -1262.67 -41.0999 -1260.06 -18.2062C-1258.16 -1.60379 -1255.74 14.8235 -1252.54 31.2861C-1248.1 53.9701 -1235.68 72.6348 -1220.95 90.81C-1203.03 112.9 -1183.83 134.291 -1171.48 159.526C-1161.79 179.344 -1156.96 199.687 -1158.74 221.602C-1159.89 235.618 -1161.59 249.564 -1163.21 263.475C-1165.27 281.195 -1168.6 298.846 -1172.59 316.288C-1179.76 347.535 -1166.78 368.961 -1139.31 383.536C-1117.86 394.895 -1094.03 400.488 -1070.84 407.723C-1037.2 418.174 -1004.51 430.721 -972.022 443.654C-927.341 461.479 -884.995 482.346 -847.556 510.727C-827.135 526.246 -809.009 543.792 -789.024 559.696C-759.5 583.184 -727.602 602.582 -689.094 612.229C-659.571 619.639 -629.651 621.352 -598.861 618.625C-580.459 616.983 -561.62 617.507 -542.822 619.534C-524.3 621.526 -506.412 624.532 -488.643 629.635C-469.409 635.158 -452.51 643.861 -436.561 654.277C-408.343 672.731 -377.712 687.097 -343.36 693.248C-318.585 697.687 -296.7 705.517 -279.959 722.224C-266.503 735.646 -258.944 752.039 -253.245 769.095C-246.359 789.647 -236.742 809.36 -228.154 829.353C-218.577 851.688 -197.206 864.9 -174.45 876.504C-143.106 892.512 -111.247 907.681 -81.13 925.612C-56.6326 940.187 -28.7709 947.212 1.26719 943.403C17.8495 941.305 33.6402 936.202 47.6896 928.268C68.744 916.349 91.579 910.722 116.156 911.876C131.986 912.61 147.698 914.637 163.647 915.301C183.593 916.105 194.516 911.072 200.571 892.337C206.27 874.791 209.238 856.79 212.365 838.755C215.927 818.553 216.283 797.512 228.986 779.092C232.588 773.884 235.754 768.396 240.622 764.167C262.745 744.978 279.96 722.294 299.471 701.218C326.699 671.753 355.234 643.372 392.514 623.204C412.777 612.264 434.702 605.099 458.052 601.464C468.658 599.821 476.613 593.914 485.557 589.58C518.722 573.537 552.242 558.053 582.636 537.85C588.771 533.796 595.143 529.742 601.237 525.652C621.738 512.021 645.166 510.972 668.833 512.79C685.969 514.118 703.145 516.04 720.202 518.906C756.454 524.953 790.45 536.103 821.556 553.02C850.289 568.678 879.614 582.799 910.958 593.914C941.432 604.714 972.895 621.526 987.696 646.727C1010.89 686.188 1053.63 766.718 1073.77 807.438L1073.93 807.508Z" stroke="#FFFEFB" stroke-width="2" stroke-linecap="round" stroke-linejoin="round"></path><path opacity="0.2" d="M1049.91 793.386C1068.24 829.841 1079.2 868.638 1090.04 907.4C1099.19 940.081 1124.44 961.122 1160.96 970.175C1201.13 980.171 1240.16 992.929 1279.61 1004.74C1308.9 1013.52 1337.75 1023.62 1367.95 1029.84C1389.59 1034.31 1411.44 1037.91 1433.4 1041.02C1459.92 1044.8 1486.63 1046.55 1513.27 1048.82C1530.92 1050.32 1548.73 1051.19 1566.38 1052.87C1582.57 1054.41 1598.79 1056.4 1614.9 1058.95C1632.04 1061.65 1649.49 1061.99 1667.1 1059.55C1685.9 1056.93 1704.22 1053.68 1721.16 1045.85C1743.01 1035.75 1754.48 1019.49 1758.48 998.137C1760.22 988.804 1759.98 979.647 1760.02 970.42C1760.14 895.517 1759.15 820.579 1760.46 745.711C1761.21 701.042 1777.83 660.427 1809.45 624.916C1836.56 594.472 1873.45 576.961 1913.02 562.945C1931.35 556.444 1949.83 550.467 1966.25 540.366C1989.45 526.07 1984.14 512.334 1972.59 497.689C1966.41 489.86 1957.51 484.023 1947.26 479.828C1901.23 460.884 1861.02 434.006 1820.89 406.987C1775.46 376.404 1734.3 341.627 1694.76 305.381C1670.07 282.732 1652.97 255.644 1644.5 224.956C1640.9 211.919 1640.98 198.182 1642.48 184.761C1644.9 163.545 1637.3 145.509 1623.57 128.452C1614.94 117.757 1608.77 105.733 1611.89 91.6825C1613.91 82.6648 1619.49 75.6744 1626.18 69.0335C1638.13 57.1497 1650.76 45.86 1660.53 32.2285C1677.39 8.74057 1685.27 -16.1804 1682.57 -44.1772C1681.35 -57.1445 1684.16 -70.3566 1682.34 -83.5686C1678.46 -111.88 1666.07 -136.207 1639.32 -152.949C1622.18 -163.679 1603.34 -160.324 1585.38 -153.124C1548.1 -138.234 1526.53 -112.16 1517.03 -77.6616C1513.03 -63.1564 1514.69 -48.7559 1516.55 -34.006C1518.37 -19.8503 1520.19 -5.58982 1520.99 8.70569C1521.78 22.9662 1523.4 37.2267 1524.94 51.4523C1526.45 65.1187 1523.56 77.422 1513.9 87.3834C1493.4 108.53 1468.9 124.992 1437.2 131.109C1423.43 133.765 1409.62 134.639 1395.41 134.045C1386.03 133.66 1376.42 134.359 1366.96 133.625C1335.18 131.179 1306.8 121.567 1286.5 99.0924C1276.09 87.5931 1273.64 72.7735 1274.98 58.1983C1277.59 29.4325 1283.53 1.26092 1292.48 -26.5961C1296.95 -40.5421 1295.64 -55.7465 1292.59 -70.0421C1289.31 -85.3512 1287.13 -100.73 1285.11 -116.179C1283.17 -130.999 1283.65 -145.819 1283.37 -160.638C1282.98 -180.247 1287.01 -199.435 1291.41 -218.415C1294.02 -229.739 1293.15 -240.644 1290.57 -251.13C1284.8 -274.933 1274.78 -297.512 1256.78 -316.596C1234.97 -339.734 1207.78 -354.624 1174.22 -361.195C1136.43 -368.605 1101.64 -359.902 1066.85 -348.542C1033.89 -337.777 1001.99 -324.495 968.19 -315.582C948.838 -310.479 929.287 -307.613 909.301 -305.376C885.397 -302.72 861.691 -303.978 838.065 -305.97C818.039 -307.648 798.053 -310.619 778.107 -313.625C758.834 -316.526 739.6 -319.811 720.287 -322.608C700.222 -325.509 680.434 -329.913 660.408 -333.303C629.262 -338.616 598.512 -345.641 567.445 -351.303C550.546 -354.379 536.615 -349.101 523.911 -342.286C480.022 -318.833 448.163 -285.838 428.652 -243.65C420.223 -225.44 409.418 -208.628 392.796 -194.857C377.52 -182.204 365.568 -185.28 352.785 -194.997C333.789 -209.467 322.431 -228.551 310.795 -247.74C292.036 -278.672 274.306 -310.199 250.204 -338.371C240.944 -349.206 228.121 -355.952 215.14 -362.803C176.831 -383.005 140.303 -405.654 103.101 -427.36C77.0999 -442.529 49.1988 -454.867 23.3162 -470.071C-19.03 -494.958 -56.548 -524.632 -90.979 -557.837C-120.067 -585.904 -146.702 -615.823 -175.869 -643.855C-199.417 -666.469 -224.468 -687.195 -254.19 -702.924C-273.226 -712.99 -294.28 -719.072 -316.641 -721.868C-333.183 -723.965 -349.845 -724.35 -366.031 -722.847C-394.368 -720.26 -422.229 -714.528 -449.655 -707.363C-506.367 -692.578 -558.132 -668.811 -607.246 -640.219C-643.22 -619.283 -682.48 -605.092 -724.074 -595.9C-751.777 -589.783 -779.559 -583.702 -807.658 -579.333C-828.436 -576.082 -849.174 -572.517 -870.228 -570.42C-892.707 -568.183 -915.146 -565.701 -937.665 -563.674C-971.858 -560.598 -1006.01 -560.388 -1040.25 -560.738C-1050.38 -560.843 -1060.51 -563.674 -1070.64 -563.779C-1106.3 -564.128 -1138.28 -553.712 -1167.48 -536.236C-1191.15 -522.081 -1210.58 -503.766 -1228.03 -484.122C-1241.96 -468.464 -1256.84 -453.749 -1272.91 -439.838C-1293.37 -422.082 -1303.35 -400.272 -1307.42 -375.316C-1312.17 -346.026 -1315.77 -316.805 -1314.62 -287.236C-1313.79 -266.334 -1310.19 -245.712 -1305.72 -225.091C-1302.44 -209.921 -1300.06 -194.437 -1297.41 -179.093C-1294.64 -163.12 -1291.87 -147.112 -1288.51 -131.209C-1286.41 -121.352 -1284.71 -111.111 -1284.59 -101.08C-1284.35 -79.2693 -1283.08 -57.4589 -1282.57 -35.6836C-1282.09 -16.8793 -1278.1 1.36574 -1273.98 19.6808C-1271.69 29.9568 -1270.1 40.3376 -1268.2 50.6835C-1265.19 67.0412 -1254.79 79.9037 -1243.67 92.6963C-1227.52 111.291 -1212.36 130.585 -1199.97 151.346C-1189.6 168.788 -1184.1 187.836 -1185.85 207.445C-1188.77 239.985 -1198 271.163 -1216.87 299.719C-1225.22 312.337 -1232.86 325.304 -1235.91 339.949C-1240.86 363.822 -1231.24 392.832 -1204.56 401.186C-1194.08 404.471 -1182.96 405.135 -1172.19 406.708C-1138.59 411.671 -1106.54 421.003 -1074.44 430.545C-1028.25 444.317 -983.89 461.548 -943.404 485.875C-890.214 517.822 -850.638 559.625 -826.694 612.507C-819.531 628.376 -804.057 633.234 -787.633 636.66C-767.291 640.889 -746.751 641.448 -725.894 638.652C-710.776 636.624 -695.421 639.386 -680.382 640.539C-653.985 642.567 -628.063 644.664 -601.428 640.574C-581.245 637.464 -560.507 638.617 -539.73 641.413C-508.663 645.607 -480.405 655.394 -453.454 668.746C-438.613 676.121 -424.327 684.37 -409.723 692.129C-390.291 702.475 -369.672 710.828 -348.974 718.972C-318.223 731.101 -296.813 752.037 -281.814 777.797C-270.06 798.035 -258.701 818.447 -247.304 838.859C-232.74 864.898 -209.983 884.297 -181.726 898.243C-143.021 917.362 -101.585 931.622 -62.0488 949.343C-45.7435 956.648 -27.4598 960.039 -9.0175 958.606C9.38528 957.173 26.7594 951.475 44.2123 946.267C69.4222 938.683 94.9488 931.553 122.058 933.79C142.282 935.467 162.465 937.704 182.847 937.005C211.737 935.991 237.699 919.774 240.944 891.742C242.923 874.72 244.11 857.698 244.704 840.571C245.772 809.988 257.684 782.865 278.541 758.259C296.073 737.602 310.954 715.302 329.792 695.344C358.643 664.726 393.548 642.601 436.369 630.054C469.772 620.267 500.839 606.006 531.352 590.732C554.82 578.988 576.706 564.867 600.649 553.822C635.594 537.674 673.39 532.921 711.699 536.661C749.019 540.296 784.004 551.83 816.338 569.586C842.576 583.986 870.121 596.29 898.735 606.88C930.95 618.834 957.821 638.093 975.868 664.447C997.081 695.414 1033.33 760.531 1049.95 793.596L1049.91 793.386Z" stroke="#FFFEFB" stroke-width="2" stroke-linecap="round" stroke-linejoin="round"></path><path opacity="0.2" d="M382.223 -346.971C353.768 -349.312 331.922 -362.734 315.102 -381.573C292.385 -407.019 262.229 -421.629 229.341 -433.373C186.916 -448.542 145.163 -465.005 104.796 -484.263C78.0423 -497.021 52.3971 -511.072 30.1159 -529.107C3.99584 -550.323 -16.5836 -575.629 -28.7334 -605.303C-37.2026 -626.03 -52.162 -642.772 -67.0029 -659.689C-100.365 -697.682 -138.596 -732.18 -170.454 -771.257C-184.662 -788.698 -197.405 -806.943 -207.537 -826.587C-217.233 -845.391 -234.33 -855.562 -256.888 -859.302C-296.266 -865.838 -329.945 -854.618 -358.321 -831.445C-393.979 -802.33 -432.961 -778.422 -477.009 -759.967C-530.081 -737.773 -581.41 -712.362 -634.006 -689.224C-663.609 -676.187 -695.507 -668.742 -727.88 -662.94C-745.848 -659.724 -763.974 -656.823 -782.1 -655.041C-799.632 -653.328 -817.322 -652.244 -835.25 -653.607C-884.522 -657.312 -930.469 -671.818 -976.773 -685.554C-1000.04 -692.475 -1024.3 -695.865 -1048.88 -694.711C-1072.9 -693.593 -1095.98 -688.105 -1118.22 -679.822C-1157.44 -665.247 -1193.17 -646.093 -1222.66 -618.585C-1243.47 -599.187 -1258.36 -576.258 -1273 -553.189C-1294.41 -519.425 -1312.54 -484.263 -1330.86 -449.171C-1348.07 -416.176 -1360.5 -381.923 -1368.26 -346.097C-1375.86 -311.005 -1376.57 -275.703 -1375.14 -240.401C-1374.31 -219.919 -1370.2 -199.507 -1366.36 -179.129C-1360.3 -147.008 -1356.58 -114.468 -1360.66 -81.9269C-1363.55 -58.9982 -1364.18 -36.1044 -1364.1 -13.1407C-1364.1 -7.75807 -1365.96 -2.61987 -1366.2 2.79774C-1367.23 25.5168 -1358.32 45.5441 -1346.13 64.8728C-1331.02 88.8501 -1314.99 112.338 -1306.95 139.426C-1295.52 177.979 -1299.91 214.679 -1319.58 250.155C-1329.79 268.61 -1340.55 286.611 -1345.5 307.128C-1350.49 327.75 -1351.91 348.232 -1351.16 369.238C-1350.17 398.074 -1342.73 425.686 -1333.67 453.054C-1323.93 482.553 -1301.89 500.309 -1267.34 506.146C-1260.89 507.23 -1254.67 507.544 -1248.3 507.544C-1218.86 507.614 -1189.37 506.496 -1160.01 507.859C-1127.36 509.362 -1096.93 517.646 -1072.63 538.582C-1051.41 556.827 -1048.17 578.498 -1058.54 603.104C-1064.71 617.679 -1075.48 629.947 -1086.83 641.726C-1106.15 661.684 -1126.25 681.048 -1142.83 702.928C-1156.33 720.719 -1167.41 739.733 -1172.08 760.809C-1178.21 788.457 -1170.14 813.692 -1151.3 836.201C-1143.43 845.603 -1134.21 854.027 -1123.84 861.402C-1100.92 877.69 -1075.95 876.816 -1049.75 869.022C-1017.89 859.515 -990.744 843.052 -964.267 825.401C-940.759 809.708 -916.46 795.132 -887.371 788.491C-862.518 782.794 -839.049 785.73 -817.084 797.684C-802.916 805.373 -788.867 812.713 -771.572 814.81C-757.681 816.488 -745.888 813.377 -734.529 807.68C-718.936 799.851 -707.776 787.093 -693.648 777.551C-686.761 772.903 -679.242 769.652 -670.891 767.38C-654.111 762.871 -638.954 755.252 -625.34 745.64C-601.634 728.932 -574.682 720.858 -544.565 722.396C-526.083 723.34 -508.313 728.129 -491.375 734.84C-448.158 751.896 -412.302 777.306 -382.066 809.358C-360.102 832.636 -341.58 858.291 -318.429 880.626C-280.515 917.186 -236.625 946.057 -181.852 960.492C-148.925 969.16 -116.513 979.331 -83.0314 986.286C-67.0823 989.607 -50.9354 992.054 -34.6698 994.221C-22.3221 995.863 -9.85567 995.968 2.45242 996.877C15.5916 997.856 29.0081 995.793 42.266 994.64C45.7487 994.325 49.2314 993.941 52.7141 993.941C85.3246 993.976 118.014 992.893 150.506 995.759C169.463 997.436 187.945 1001.74 205.556 1008.24C246.28 1023.27 281.819 1045.25 313.836 1071.89C327.885 1083.56 340.312 1096.6 353.728 1108.76C368.569 1122.25 387.328 1126.76 407.789 1124.52C423.5 1122.78 438.143 1116.73 453.34 1112.78C459.435 1111.21 465.45 1108.06 470.397 1104.46C485.674 1093.35 488.998 1082.86 477.086 1062.69C467.39 1046.23 454.211 1031.55 444.832 1014.88C440.518 1007.19 437.827 999.324 438.104 990.551C438.816 969.16 431.732 948.923 425.914 928.475C419.661 906.63 417.128 884.995 432.286 864.618C433.552 862.94 434.898 861.297 436.323 859.724C448.195 846.757 445.702 837.949 436.204 826.205C429.12 817.467 423.223 808.344 421.126 797.649C416.812 775.804 427.735 759.621 446.81 747.422C503.8 710.967 559.523 673.079 615.72 635.75C638.595 620.545 663.607 609.186 691.785 605.026C718.578 601.077 745.094 603.908 770.581 613.101C795.791 622.153 819.536 634.107 844.627 643.3C856.856 647.773 869.401 651.513 881.63 655.952C909.373 666.019 930.784 683.32 948.989 703.767C981.401 740.152 1006.73 779.998 1022.16 824.457C1029.41 845.254 1036.1 866.295 1036.21 888.175C1036.37 918.549 1023.39 944.728 1000.28 966.958C972.576 993.592 938.343 1012.85 904.387 1032.35C877.554 1047.77 852.78 1065.21 834.179 1088.59C821.396 1104.67 811.581 1121.76 812.254 1142.24C813.045 1166.26 825.076 1184.29 848.307 1196.8C866.789 1206.77 886.933 1211.59 908.146 1209.95C944.081 1207.12 976.652 1195.9 1005.03 1175.8C1028.34 1159.3 1045.28 1137.53 1065.97 1118.93C1090.95 1096.46 1114.26 1072.09 1145.64 1055.98C1161.71 1047.77 1179.2 1043.19 1197.76 1040.53C1227.88 1036.23 1255.94 1043.78 1284.2 1050.11C1339.6 1062.48 1393.31 1079.61 1447.57 1095.23C1469.29 1101.49 1491.42 1106.73 1512.07 1115.47C1537.01 1125.99 1559.49 1139.87 1580.46 1155.67C1602.19 1172.02 1627.6 1180.52 1655.42 1185.24C1680.9 1189.53 1706.39 1192.82 1732.39 1192.54C1770.58 1192.16 1806.24 1184.22 1836.75 1163.11C1856.86 1149.2 1872.49 1131.72 1885.39 1112.11C1910.84 1073.42 1925.25 1030.99 1940.09 988.733C1942.98 980.519 1939.89 971.397 1933.6 964.581C1905.14 933.648 1889.71 896.494 1870.28 861.262C1863.51 848.959 1854.33 837.879 1848.23 825.296C1838.18 804.569 1830.78 783.353 1827.97 760.739C1826.66 750.324 1826.54 740.047 1826.46 729.667C1826.23 686.815 1847.8 654.449 1888.16 631.625C1914.64 616.666 1944.08 607.228 1973.57 598.001C1995.93 591.011 2017.46 582.657 2036.26 569.515C2053.47 557.526 2066.06 542.427 2069.03 523.308C2071.36 508.208 2063.37 494.961 2049.44 485.734C2022.48 467.908 1992.92 454.137 1962.21 441.904C1913.41 422.47 1866.87 399.681 1826.35 368.259C1798.21 346.449 1771.02 323.905 1751.31 295.314C1738.25 276.37 1728.59 256.552 1725.39 234.112C1723.05 217.859 1724.56 202.236 1727.25 186.228C1728.95 176.091 1728.67 165.466 1725.67 155.26C1717.87 128.591 1722.78 102.796 1732.31 77.281C1738.57 60.5388 1747.23 44.6704 1753.37 27.8583C1763.34 0.560521 1765.04 -26.8072 1755.86 -54.3147C1751.59 -67.1422 1753.09 -80.0396 1752.1 -92.937C1751.15 -105.695 1751.11 -118.837 1744.54 -130.65C1738.05 -142.325 1730.69 -153.614 1723.77 -165.078C1704.02 -197.724 1684.55 -230.509 1666.78 -264.029C1664.36 -268.573 1662.46 -273.466 1659.06 -277.346C1647.7 -290.313 1633.93 -292.165 1615.6 -279.023C1604.13 -270.809 1593.17 -261.967 1582.32 -253.054C1559.72 -234.459 1537.72 -215.235 1514.77 -197.025C1487.7 -175.529 1462.17 -152.391 1431.3 -134.88C1426.27 -132.049 1421.21 -129.148 1415.19 -128.134C1394.34 -124.639 1385.04 -133.167 1378.55 -147.568C1371.5 -163.191 1368.69 -180.003 1366.55 -196.885C1363.19 -223.729 1365.33 -250.572 1364.97 -277.415C1364.38 -322.609 1341.98 -356.023 1297.41 -378.043C1264.76 -394.156 1231.36 -408.941 1197.8 -423.516C1183.12 -429.877 1167.96 -432.359 1152.09 -433.373C1118.02 -435.575 1087.35 -426.068 1057.03 -413.485C1022.44 -399.119 988.129 -384.02 950.809 -375.492C927.42 -370.179 903.753 -366.614 879.612 -368.117C859.112 -369.41 839.205 -374.059 819.853 -379.861C799.748 -385.907 779.604 -391.884 758.985 -396.288C741.492 -400.028 723.366 -398.98 705.913 -396.149C691.824 -393.842 677.894 -394.471 664.082 -395.17C650.191 -395.869 636.22 -397.651 622.25 -398.001C604.243 -398.42 586.236 -398.98 568.111 -398.42C531.859 -397.302 498.219 -388.878 465.49 -375.666C442.417 -366.334 419.226 -357.107 395.401 -349.277C391.008 -347.844 387.051 -348.509 382.935 -347.844" stroke="#FFFEFB" stroke-width="2" stroke-linecap="round" stroke-linejoin="round"></path><path opacity="0.2" d="M2099.11 481.506C2091.86 467.141 2076.67 460.186 2062.93 452.286C2025.06 430.511 1983.15 415.412 1943.42 396.747C1909.26 380.704 1876.1 363.193 1847.44 339.81C1818.83 316.426 1802.13 287.067 1792.39 254.281C1787.57 238.063 1785.07 221.496 1782.58 204.859C1778.74 179.099 1779.18 153.304 1781.39 127.719C1783.73 101.19 1789.39 74.9406 1795.56 48.7613C1800.86 26.3917 1803.08 3.46331 1800.51 -19.9548C1798.17 -40.9961 1796.83 -62.3171 1796.98 -83.638C1797.1 -99.751 1796.87 -116.284 1790.18 -131.313C1777.39 -160.009 1766.91 -189.334 1756.3 -218.624C1744.74 -250.57 1734.89 -282.936 1724.28 -315.128C1710.95 -355.637 1681.3 -380.698 1636.62 -392.966C1619.37 -397.72 1601.48 -399.677 1583.51 -401.6C1551.3 -405.06 1519.04 -406.633 1486.63 -406.353C1478.72 -406.283 1470.8 -405.2 1462.88 -404.78C1429.84 -402.998 1398.57 -410.163 1367.94 -419.915C1305.49 -439.803 1243.91 -461.788 1180.87 -480.242C1161.04 -486.045 1140.97 -490.029 1120.12 -492.231C1090.59 -495.342 1062.3 -493.559 1034.56 -483.668C1021.85 -479.159 1011.21 -471.784 999.57 -465.807C974.321 -452.84 947.37 -445.045 918.835 -439.593C885.631 -433.231 856.147 -440.571 826.544 -452.35C807.231 -460.04 788.631 -469.232 766.904 -472.203C751.746 -474.266 736.984 -474.405 723.291 -469.826C694.282 -460.11 664.442 -454.168 633.929 -449.904C607.769 -446.269 581.451 -443.962 555.133 -441.375C530.082 -438.929 505.07 -436.133 480.058 -433.546C451.128 -430.54 421.881 -429.142 392.753 -431.729C376.527 -433.197 360.974 -437.81 346.212 -444.137C324.92 -453.259 304.38 -463.64 283.524 -473.462C248.301 -490.029 210.942 -502.088 173.424 -513.797C124.152 -529.141 87.3067 -557.662 60.3556 -596.773C50.0658 -611.698 42.5861 -627.776 34.7105 -643.714C21.69 -669.999 4.43495 -694.221 -15.7487 -716.555C-34.4681 -737.247 -54.8891 -756.89 -77.4474 -774.366C-98.3434 -790.514 -116.192 -808.69 -131.429 -829.067C-140.69 -841.44 -149.357 -854.337 -161.032 -864.998C-173.894 -876.742 -188.458 -887.018 -204.525 -895.337C-225.738 -906.312 -246.911 -917.042 -270.894 -923.228C-314.467 -934.518 -354.914 -928.227 -393.421 -908.688C-426.388 -891.981 -455.001 -869.751 -485.514 -849.968C-528.493 -822.076 -571.354 -794.044 -617.579 -770.417C-647.933 -754.933 -679.753 -742.14 -714.461 -737.072C-765.316 -729.662 -813.915 -735.849 -854.638 -765.698C-875.693 -781.147 -894.491 -799.218 -912.894 -817.323C-929.239 -833.366 -946.177 -848.955 -964.461 -863.18C-978.194 -873.841 -995.37 -874.889 -1012.63 -868.493C-1040.96 -858.007 -1067.08 -843.782 -1093.28 -829.836C-1124.98 -812.989 -1155.93 -795.023 -1190.04 -781.811C-1199.62 -778.106 -1207.22 -771.256 -1212.25 -762.063C-1230.93 -727.95 -1253.76 -695.863 -1276.75 -663.952C-1301.53 -629.594 -1320.6 -592.754 -1339.28 -555.704C-1350.41 -533.65 -1361.84 -511.7 -1372.41 -489.435C-1384.72 -463.535 -1400.47 -438.824 -1408.46 -411.456C-1413.96 -392.617 -1418.28 -373.498 -1422.79 -354.449C-1428.69 -329.598 -1433.48 -304.537 -1440.16 -279.896C-1445.27 -261.161 -1443.88 -242.392 -1443.33 -223.657C-1442.97 -212.088 -1444.2 -200.728 -1444.67 -189.264C-1445.31 -172.906 -1452.95 -157.982 -1456.94 -142.288C-1458.8 -134.983 -1456.51 -127.503 -1454.77 -120.583C-1451.17 -106.008 -1453.82 -91.8868 -1456.19 -77.766C-1459.91 -55.781 -1464.74 -33.7962 -1462.52 -11.5316C-1459.04 24.015 -1445.27 56.9053 -1426.55 88.2226C-1411.71 113.004 -1403.87 139.358 -1399.76 167.04C-1396.87 186.684 -1397.14 206.257 -1398.49 225.76C-1400.03 248.409 -1405.06 270.884 -1411.67 292.799C-1419.07 317.405 -1423.94 342.047 -1420.73 367.457C-1419.62 376.405 -1417.29 385.352 -1417.29 394.3C-1417.29 424.709 -1425.84 453.614 -1439.06 481.472C-1445.27 494.614 -1450.85 508.035 -1459.79 520.129C-1467.35 530.335 -1476.81 538.584 -1488.29 545.295C-1507.56 556.549 -1528.18 566.231 -1544.37 581.295C-1573.73 608.558 -1568.86 650.501 -1535.86 673.604C-1513.7 689.123 -1487.54 696.323 -1460.74 701.916C-1439.97 706.25 -1419.35 711.178 -1398.13 714.045C-1386.93 715.548 -1376.76 712.961 -1366.87 710.234C-1351.47 705.97 -1336.04 703.698 -1320.29 706.425C-1295.2 710.724 -1282.37 726.662 -1274.78 746.585C-1269.08 761.545 -1268.05 777.553 -1263.1 792.617C-1252.93 823.62 -1238.72 853.085 -1217.83 879.963C-1197.8 905.723 -1176.03 929.561 -1144.65 945.394C-1124.47 955.565 -1103.06 961.192 -1080.06 964.059C-1062.09 966.295 -1044.4 965.457 -1026.87 963.5C-995.449 960.039 -966.876 949.483 -941.389 932.706C-916.337 916.209 -888.357 905.409 -857.805 900.061C-831.764 895.482 -806.079 899.572 -780.948 905.199C-748.021 912.539 -715.054 914.671 -681.138 912.119C-663.25 910.791 -645.321 907.68 -627.037 909.847C-609.426 911.945 -599.888 924.073 -605.191 939.382C-612.315 960.039 -624.307 978.494 -637.565 996.354C-660.519 1027.22 -685.531 1056.82 -709.632 1086.95C-723.246 1104.01 -730.093 1123.44 -729.223 1143.92C-728.194 1168.22 -722.692 1191.98 -708.682 1213.55" stroke="#FFFEFB" stroke-width="2" stroke-linecap="round" stroke-linejoin="round"></path><path opacity="0.2" d="M-170.453 -950.735C-158.303 -946.436 -149.438 -937.978 -140.296 -930.393C-124.624 -917.426 -108.28 -905.088 -93.4783 -891.246C-58.9681 -858.95 -25.6848 -825.781 6.45082 -791.597C33.125 -763.216 59.3243 -734.45 86.7504 -706.593C104.995 -688.069 122.527 -668.984 141.959 -651.368C168.672 -627.146 199.264 -608.692 235.872 -597.402C264.287 -588.664 289.656 -574.334 313.995 -558.43C339.522 -541.758 369.203 -533.649 400.27 -528.825C421.048 -525.61 441.429 -520.402 462.048 -516.522C484.844 -512.223 507.798 -511.279 531.385 -513.447C561.384 -516.208 589.404 -523.758 616.751 -534.034C628.98 -538.612 641.09 -543.61 652.804 -549.133C677.302 -560.667 703.303 -567.133 730.65 -571.153C760.846 -575.592 791.043 -575.487 820.843 -572.166C868.928 -566.819 917.092 -566.959 965.216 -567.797C995.927 -568.322 1026.68 -568.182 1057.31 -569.44C1089.6 -570.768 1121.9 -570.489 1154.19 -570.908C1179.2 -571.223 1204.21 -572.376 1229.23 -572.411C1248.34 -572.411 1266.86 -573.145 1285.38 -578.947C1316.21 -588.629 1333.71 -607.888 1342.1 -634.626C1345.26 -644.658 1346.73 -655.073 1346.05 -665.629C1344.75 -686.635 1346.61 -707.607 1348.23 -728.508C1350.29 -755.107 1355.16 -781.531 1363.15 -807.326C1367.9 -822.67 1380.29 -831.583 1396.32 -837.595C1416.38 -845.109 1436.68 -852.554 1458.13 -855.595C1475.19 -858.007 1492.6 -858.147 1510.33 -856.399C1551.65 -852.31 1582.84 -832.771 1611.89 -809.004C1626.69 -796.91 1639.27 -782.859 1653.84 -770.591C1668.87 -757.903 1685.5 -747.348 1706.83 -743.433C1727.96 -739.553 1747.75 -741.825 1767.7 -748.501C1796.55 -758.148 1823.58 -771.535 1853.1 -779.644C1868.65 -783.943 1884.52 -786.11 1900.55 -782.09C1921.37 -776.882 1927.98 -771.045 1919.23 -752.101C1913.93 -740.637 1905.78 -730.256 1895.96 -720.854C1864.66 -690.899 1832.6 -661.365 1808.46 -626.238C1794.37 -605.79 1783.33 -584.19 1777.31 -560.772C1776.88 -559.094 1775.93 -557.766 1775.1 -556.683C1760.97 -538.437 1759.35 -518.55 1761.4 -497.019C1763.14 -478.809 1764.89 -460.599 1767.89 -442.598C1772.64 -414.357 1779.41 -386.395 1787.48 -358.677C1794.53 -334.56 1800.86 -310.338 1805.85 -285.767C1815.15 -240.119 1823.81 -194.262 1839.72 -149.872C1846.06 -132.151 1848.67 -113.801 1851.44 -95.4163C1856.94 -58.8212 1855.71 -22.1212 1854.57 14.4389C1853.02 63.9315 1849.93 113.389 1851.48 162.846C1852.55 196.96 1855.24 231.039 1869.96 263.544C1886.42 299.825 1912.54 328.276 1951.88 346.416C1998.58 367.947 2045.28 389.443 2091.43 411.917C2094.04 413.175 2096.49 414.713 2099.03 416.077" stroke="#FFFEFB" stroke-width="2" stroke-linecap="round" stroke-linejoin="round"></path><path opacity="0.2" d="M-129.609 -949.896C-100.561 -928.576 -75.5484 -903.654 -50.1011 -879.258C-19.3902 -849.863 10.1331 -819.454 39.6567 -789.081C63.2835 -764.754 87.029 -740.462 111.368 -716.59C137.013 -691.424 164.281 -668.285 197.09 -650.565C216.284 -640.184 236.942 -632.564 258.828 -627.985C278.458 -623.861 295.713 -615.437 309.841 -603.379C331.925 -584.54 358.52 -573.984 386.975 -565.805C413.015 -558.325 438.977 -550.147 465.889 -546.232C484.41 -543.541 503.367 -541.863 522.838 -543.54C544.803 -545.428 565.858 -549.168 586.397 -555.844C602.861 -561.157 617.939 -568.986 632.899 -576.815C656.882 -589.398 683.16 -596.563 709.834 -602.75C739.002 -609.496 768.842 -613.27 798.208 -619.352C815.779 -622.987 831.847 -616.975 847.559 -610.369C869.167 -601.282 892.279 -597.367 915.867 -594.116C948.833 -589.573 981.8 -591.355 1014.65 -592.963C1041.88 -594.291 1069.1 -596.214 1096.33 -597.891C1120.43 -599.359 1144.54 -601.771 1168.48 -604.567C1189.53 -607.049 1210.55 -610.544 1230.18 -617.989C1259.62 -629.139 1276.8 -649.761 1285.35 -676.569C1290.18 -691.703 1292.43 -707.187 1295.04 -722.671C1297.69 -738.365 1300.58 -754.093 1303.87 -769.717C1306.52 -782.37 1308.38 -795.337 1310.12 -808.2C1313.49 -833.051 1324.8 -853.743 1349.78 -867.898C1369.76 -879.258 1392.16 -884.396 1414.52 -889.324C1435.89 -894.043 1457.98 -896.384 1479.98 -896.07C1533.96 -895.266 1583.04 -880.656 1626.13 -851.715C1646.08 -838.329 1667.14 -826.55 1688.98 -815.924C1708.57 -806.382 1730.14 -804.739 1752.5 -805.334C1772.37 -805.858 1791.8 -808.829 1811.31 -810.996C1832.48 -813.338 1853.7 -815.26 1874.99 -816.623C1901.86 -818.371 1928.34 -818.091 1952.83 -806.452C1977.13 -794.883 1985.8 -779.609 1972.94 -753.639C1964.71 -737.037 1952.64 -722.916 1939.62 -709.215C1923.75 -692.507 1904.95 -678.282 1888.4 -662.204C1845.74 -620.68 1813.92 -573.46 1798.53 -518.794C1792.19 -496.285 1790.22 -472.937 1794.02 -449.239C1799.04 -417.957 1807.35 -387.269 1813.05 -356.161C1816.85 -335.469 1820.69 -314.777 1824.96 -294.19C1832.09 -260.007 1838.82 -225.789 1847.17 -191.78C1853.3 -166.859 1860.11 -142.078 1866.04 -117.122C1870.59 -97.968 1871.86 -78.2548 1869.49 -58.4717C1868.42 -49.3841 1869.76 -40.0172 1870 -30.8247C1870.87 1.01684 1871.66 32.9287 1870.87 64.7703C1870.36 86.3009 1869.96 107.831 1870.4 129.327C1870.83 149.495 1873.09 169.627 1875.62 189.725C1877.05 201.154 1877.92 212.653 1879.66 224.083C1883.81 251.276 1895.37 275.428 1914.68 297.133C1936.13 321.25 1966.13 334.602 1995.73 347.849C2031.23 363.788 2065.35 381.963 2100.97 397.621" stroke="#FFFEFB" stroke-width="2" stroke-linecap="round" stroke-linejoin="round"></path><path opacity="0.2" d="M789.618 -215.34C775.41 -214.78 762.825 -220.233 749.765 -223.798C710.426 -234.529 671.207 -245.818 630.958 -253.578C613.901 -256.863 596.408 -259.345 578.836 -260.848C572.504 -261.407 565.697 -260.848 559.919 -262.525C539.617 -268.467 523.272 -257.248 517.811 -237.989C510.093 -210.901 504.948 -183.253 495.292 -156.585C488.92 -139.074 478.71 -122.891 474.119 -104.646C467.668 -78.8159 463.433 -53.3006 466.283 -26.562C468.42 -6.74405 470.874 12.9342 476.493 32.0531C486.427 65.6773 504.473 84.6914 542.783 91.4721C565.895 95.5615 588.731 91.3672 611.091 85.7399C635.39 79.6232 659.373 72.1084 684.306 68.6131C694.002 67.25 704.292 65.2227 714.661 67.215C719.925 68.2286 725.03 66.2711 729.858 64.0342C756.018 51.696 783.563 47.1174 813.442 49.3894C841.422 51.5214 867.266 60.1198 894.138 65.6773C910.126 68.9977 926.273 71.3394 942.539 73.3666C981.64 78.2599 1020.98 79.0637 1060.32 79.7977C1087.82 80.322 1112.04 71.1996 1133.37 56.3798C1158.98 38.5541 1180.07 16.8487 1195.86 -8.24703C1209.16 -29.3233 1216.05 -51.8676 1211.81 -76.9285C1209.28 -92.0279 1208.84 -107.617 1207.3 -122.961C1205.24 -143.373 1203.74 -163.82 1202.31 -184.232C1201.21 -200.101 1199.74 -216.039 1199.82 -232.012C1199.9 -246.727 1197.88 -261.127 1190.56 -274.829C1179.92 -294.786 1151.22 -304.328 1127.71 -299.33C1094.99 -292.375 1063.72 -281.959 1032.89 -270.46C1015.67 -264.028 1000.08 -254.661 981.64 -250.222C964.701 -246.133 947.763 -243.267 930.31 -242.008C892.871 -239.282 855.551 -235.402 820.289 -223.344C810.514 -219.988 801.53 -214.99 790.726 -214.431" stroke="#FFFEFB" stroke-width="2" stroke-linecap="round" stroke-linejoin="round"></path><path opacity="0.2" d="M1461.94 265.99C1427.15 261.935 1398.57 275.147 1370.71 291.085C1339.01 309.226 1307.39 327.436 1277.63 348.093C1257.09 362.388 1244.66 380.913 1241.81 403.527C1235.52 453.124 1212.88 495.172 1172.44 530.264C1145.05 553.997 1115.13 574.689 1082.92 592.864C1070.06 600.134 1062.18 608.767 1067.09 625.649C1072.23 643.37 1074.96 661.371 1078.48 679.336C1084.14 708.102 1091.7 736.553 1103.1 764.025C1117.94 799.852 1138.28 833.301 1166.86 861.997C1191.43 886.673 1220.05 907.225 1252.82 923.723C1287.45 941.129 1324.29 952.768 1362.32 961.681C1386.66 967.378 1411.75 971.258 1437.24 971.188C1491.02 971.083 1538.2 955.11 1579.75 925.156C1609.99 903.38 1631.4 876.013 1645.92 844.521C1654.31 826.311 1659.62 807.122 1663.5 787.618C1667.33 768.325 1670.74 748.996 1674.3 729.667C1677.62 711.737 1679.92 693.667 1685.14 676.051C1693.45 648.159 1708.57 622.818 1723.02 597.198C1734.69 576.436 1746.96 556.024 1754.68 533.55C1766.99 497.689 1758.28 465.602 1734.26 436.347C1716.57 414.782 1693.73 397.445 1671.13 379.76C1625.3 343.898 1571.84 318.034 1521.69 287.905C1508.36 279.901 1495.85 270.533 1479.15 267.283C1473.89 266.234 1468.86 266.898 1463.87 265.99" stroke="#FFFEFB" stroke-width="2" stroke-linecap="round" stroke-linejoin="round"></path><path opacity="0.2" d="M2101 451.308C2074.57 431.525 2044.37 417.195 2013.66 403.458C1979.78 388.324 1944.96 374.798 1913.02 356.518C1889.15 342.886 1867.35 327.402 1852.03 305.487C1840.51 288.99 1833.43 271.199 1828.48 252.569C1821.72 227.124 1815.82 201.399 1813.72 175.394C1812.34 158.512 1812.65 141.386 1814.67 124.225C1816.49 108.95 1818 93.5362 1819.18 78.1572C1822.35 36.5289 1823.3 -5.09933 1822.71 -46.7975C1822.43 -67.0349 1820.01 -87.0974 1817.32 -107.195C1813.92 -132.57 1808.06 -157.387 1799.79 -181.748C1793.22 -201.147 1784.71 -220.021 1779.17 -239.665C1771.77 -265.844 1765.56 -292.268 1758.08 -318.447C1748.86 -350.778 1739.08 -382.899 1718.46 -411.63C1696.81 -441.794 1665.67 -459.725 1628.07 -470.21C1606.94 -476.117 1585.33 -480.591 1563.48 -483.492C1537.44 -486.952 1511.16 -488.385 1484.69 -487.162C1455.88 -485.834 1427.18 -482.443 1398.29 -482.933C1369.4 -483.387 1340.63 -484.89 1311.82 -488.351C1272.72 -493.034 1235.44 -503.24 1197.92 -512.957C1177.14 -518.34 1155.81 -521.38 1134.36 -524.142C1107.49 -527.637 1080.54 -528.056 1053.63 -527.008C1025.17 -525.924 996.995 -521.905 969.054 -516.487C943.607 -511.559 919.387 -503.065 894.058 -497.997C880.959 -495.376 867.186 -495.69 854.284 -497.438C827.135 -501.143 800.541 -507.644 773.55 -512.328C751.744 -516.103 729.977 -517.256 708.012 -515.404C700.414 -514.774 693.013 -512.992 686.127 -509.671C658.186 -496.215 629.098 -485.379 597.833 -479.438C580.895 -476.222 563.877 -473.321 546.582 -471.748C532.651 -470.49 518.8 -469.022 504.79 -468.323C488.247 -467.484 472.378 -470.175 456.349 -472.692C442.775 -474.824 429.16 -476.851 415.507 -478.564C369.322 -484.331 323.968 -492.335 283.482 -514.6C258.193 -528.511 230.648 -538.227 202.826 -547.42C178.685 -555.389 157.195 -567.168 137.13 -581.603C106.063 -603.938 87.3437 -634.381 66.2102 -663.182C39.536 -699.532 11.7538 -735.079 -20.3026 -767.934C-32.8877 -780.832 -45.2354 -793.974 -59.364 -805.543C-80.5371 -822.914 -98.4253 -842.767 -116.155 -862.725C-141.484 -891.246 -173.105 -912.707 -208.328 -930.637C-221.269 -937.209 -234.685 -942.766 -248.26 -948.184C-251.307 -949.407 -254.275 -950.805 -257.758 -950.665" stroke="#FFFEFB" stroke-width="2" stroke-linecap="round" stroke-linejoin="round"></path><path opacity="0.2" d="M817.128 330.584C832.443 331.493 847.522 333.31 861.769 338.902C879.42 345.823 893.351 357.078 907.281 368.333C922.479 380.601 937.478 393.289 955.841 401.677C984.732 414.889 1013.5 428.031 1040.41 444.389C1060.48 456.587 1086.16 454.56 1104.05 441.418C1117.07 431.806 1123.88 419.258 1129.38 405.976C1140.82 378.364 1144.34 349.598 1140.66 320.518C1138.36 302.202 1129.54 285.566 1118.06 270.186C1096.93 241.91 1072.91 215.835 1040.14 197.345C1024.31 188.398 1007.13 182.526 988.056 180.149C969.257 177.807 950.577 178.122 932.016 179.17C919.708 179.835 907.242 181.932 894.894 183.435C885 184.623 874.711 185.357 864.579 185.427C833.235 185.602 801.812 186.546 770.587 183.679C750.324 181.827 730.179 180.254 709.798 180.429C667.729 180.813 630.448 192.941 596.769 214.822C562.497 237.086 540.136 267.285 521.734 300.385C510.336 320.902 501.273 342.258 491.498 363.334C482.553 382.558 488.727 396.05 510.415 406.92C538.316 420.936 567.088 419.677 595.859 410.135C622.058 401.467 644.972 387.137 665.75 371.233C683.203 357.882 702.635 351.171 724.085 346.452C748.068 341.14 772.051 335.757 796.311 331.528C802.801 330.409 809.648 332.331 816.217 330.584" stroke="#FFFEFB" stroke-width="2" stroke-linecap="round" stroke-linejoin="round"></path><path opacity="0.2" d="M1423.94 904.956C1459.48 904.536 1490.27 892.548 1517.86 873.848C1550.54 851.653 1572.87 823.167 1583.67 787.621C1588.02 773.22 1590.71 758.68 1593.17 744C1596.29 725.301 1596.85 706.392 1600.37 687.762C1601.68 680.911 1601.4 673.781 1602.11 666.79C1604.45 643.792 1611.85 622.121 1620.44 600.556C1628.63 579.934 1640.58 560.675 1648.73 540.123C1660.68 509.924 1654.47 481.054 1636.58 453.826C1617.98 425.514 1586.76 412.372 1553.91 402.026C1531.98 395.106 1509.07 391.401 1485.64 389.898C1465.69 388.64 1445.87 386.857 1425.8 388.36C1403.09 390.038 1385.08 399.3 1370.79 414.469C1353.14 433.204 1344.04 456.307 1331.02 477.383C1318.71 497.306 1304.11 515.622 1287.21 532.678C1261.84 558.333 1232.47 580.772 1210.11 608.839C1190.05 634.005 1173.62 660.709 1167.85 691.152C1161.87 722.539 1168.64 752.843 1183.72 781.644C1197.41 807.823 1218.9 827.921 1245.3 844.698C1277.51 865.145 1310.99 883.146 1348.95 893.981C1373.01 900.866 1397.7 904.781 1422.99 905.76" stroke="#FFFEFB" stroke-width="2" stroke-linecap="round" stroke-linejoin="round"></path><path opacity="0.2" d="M1033.64 23.6664C1052.95 22.6528 1071.75 19.9262 1089.72 12.8658C1127.2 -1.8841 1150.59 -26.9096 1159.73 -61.8969C1163.61 -76.7516 1160.88 -92.061 1158.94 -107.125C1157.59 -117.786 1155.61 -128.342 1154.27 -139.002C1152.21 -155.29 1148.96 -171.403 1146.15 -187.586C1144.41 -197.652 1143.58 -208.103 1139.15 -217.889C1134.64 -227.886 1129.1 -231.94 1117.15 -232.115C1095.42 -232.395 1074.32 -227.676 1053.63 -223.307C1013.93 -214.918 974.276 -206.11 934.859 -196.778C918.83 -192.968 903.04 -188.32 887.249 -183.776C860.615 -176.156 841.341 -150.886 842.41 -126.454C843.043 -111.844 846.763 -97.898 849.494 -83.7073C850.602 -77.8354 851.947 -71.7537 851.868 -66.0914C851.591 -45.0501 864.097 -30.5099 881.827 -19.3252C906.879 -3.49176 935.373 6.19018 965.253 12.7263C987.455 17.5846 1010.01 20.8701 1032.69 23.6314" stroke="#FFFEFB" stroke-width="2" stroke-linecap="round" stroke-linejoin="round"></path><path opacity="0.2" d="M-402.132 -676.535C-411.63 -673.494 -421.801 -673.529 -431.616 -671.781C-455.599 -667.517 -478.355 -660.422 -500.913 -652.278C-535.859 -639.66 -566.214 -619.982 -598.666 -603.554C-649.402 -577.864 -702.552 -557.767 -760.095 -547.351C-789.302 -542.073 -818.193 -535.397 -847.519 -530.854C-879.219 -525.96 -910.801 -520.543 -942.382 -515.265C-973.766 -510.022 -1005.19 -504.779 -1036.53 -499.082C-1058.38 -495.132 -1080.38 -491.882 -1101.95 -486.883C-1146.47 -476.538 -1185.58 -458.013 -1213.91 -424.843C-1219.49 -418.342 -1227.49 -415.022 -1234.1 -409.954C-1252.1 -396.147 -1263.9 -379.23 -1269.12 -358.713C-1275.61 -333.268 -1271.46 -307.858 -1269.32 -282.377C-1268.61 -273.989 -1268.41 -265.6 -1267.3 -257.212C-1264.77 -238.128 -1261.44 -219.149 -1258.16 -200.134C-1253.92 -175.633 -1246.09 -151.83 -1242.25 -127.259C-1238.88 -105.763 -1236.39 -84.3025 -1234.69 -62.667C-1233.07 -42.2549 -1233.15 -21.6679 -1229.15 -1.46545C-1221.27 38.1356 -1205.13 74.1366 -1173.51 104.405C-1152.37 124.643 -1133.02 146.523 -1121.98 172.947C-1116.91 185.11 -1114.22 197.623 -1113.23 210.661C-1111.17 237.504 -1109.95 264.382 -1107.37 291.156C-1106.03 304.962 -1104.41 318.978 -1098.43 332.329C-1091.98 346.765 -1081.89 358.124 -1066.85 365.709C-1036.14 381.193 -1003.88 393.846 -970.956 405.135C-918.439 423.206 -866.198 441.661 -820.963 472.314C-781.744 498.878 -741.218 523.764 -701.246 549.349C-683.556 560.673 -664.797 570.46 -643.347 575.353C-632.78 577.765 -622.015 579.618 -611.092 579.513C-585.408 579.233 -559.604 578.674 -534.236 581.575C-494.621 586.119 -456.509 595.381 -424.967 618.974C-416.894 625.02 -408.543 630.753 -400.312 636.59C-380.049 650.92 -356.976 651.724 -333.943 644.734C-303.509 635.436 -272.56 627.747 -241.652 620.092C-222.141 615.269 -201.443 616.947 -183.08 623.623C-161.946 631.312 -154.545 643.231 -166.853 669.27C-172.473 681.154 -180.428 692.024 -186.958 703.594C-198.791 724.635 -205.281 746.62 -203.58 769.933C-201.917 792.373 -191.826 812.051 -175.441 829.597C-155.337 851.092 -129.098 865.003 -102.107 878.005C-83.9813 886.709 -66.5288 896.251 -49.0758 905.897C-29.2483 916.837 -14.8425 916.209 3.08541 904.814C18.0055 895.307 32.0948 884.682 45.8672 873.881C64.5865 859.166 82.5538 843.682 101.075 828.723C109.742 821.732 116.51 813.309 124.662 805.934C131.43 799.782 132.973 790.904 136.97 783.32C146.706 764.935 162.497 753.016 183.591 745.536C206.426 737.462 226.372 725.159 244.419 710.444C273.784 686.502 298.599 658.785 325.827 633.06C347.356 612.717 369.004 592.794 394.451 576.227C417.445 561.232 442.813 550.782 470.397 544.351C486.109 540.681 497.388 531.838 504.511 519.185C510.329 508.874 504.512 497.934 491.372 490.629C478.471 483.464 464.224 480.737 449.541 478.955C414.002 474.621 387.723 459.032 379.729 424.394C375.455 405.8 381.589 387.449 392.552 370.812C403.198 354.664 418.118 341.347 430.663 326.458C447.127 306.884 459.395 285.459 468.418 262.6C473.84 248.828 482.428 236.316 487.771 222.439C492.876 209.262 496.952 196.155 497.071 182.104C497.269 161.832 507.955 149.913 531.225 145.299C558.968 139.812 586.869 134.919 614.77 130.165C632.777 127.089 650.032 121.707 667.881 118.107C686.125 114.402 704.409 111.78 722.971 109.683C738.247 107.971 753.444 107.971 768.602 108.46C789.379 109.124 809.998 111.606 830.34 115.8C860.932 122.126 892.039 125.062 923.383 123.14C937.749 122.266 951.798 118.002 966.164 116.883C982.825 115.59 999.725 115.485 1016.47 116.009C1030.75 116.429 1045.04 117.862 1059.25 119.784C1067.2 120.833 1074.88 122.86 1082.95 123.489C1108.87 125.447 1129.81 115.625 1149.44 102.413C1178.45 82.8749 1196.81 56.94 1209.56 27.0558C1216.84 9.92913 1226.02 -6.53351 1232.27 -24.1495C1240.23 -46.5539 1242.4 -68.8884 1238.17 -92.1666C1236.11 -103.421 1234.84 -114.991 1233.74 -126.49C1230.25 -162.84 1234.21 -199.261 1231.72 -235.506C1229.54 -267.383 1212.52 -303.978 1167.57 -317.889C1143.03 -325.474 1119.92 -321.559 1096.25 -315.338C1058.61 -305.446 1023.55 -289.962 987.139 -277.379C962.325 -268.816 936.957 -264.377 910.204 -263.678C891.801 -263.189 873.398 -260.602 855.035 -257.701C830.696 -253.891 805.921 -250.256 781.068 -252.528C760.923 -254.381 741.65 -258.959 722.891 -266.998C696.415 -278.358 667.604 -284.684 638.555 -289.053C617.421 -292.269 596.446 -296.009 574.996 -297.826C527.387 -301.811 498.575 -282.657 487.771 -243.86C479.5 -214.185 471.03 -184.616 459.197 -155.815C451.401 -136.801 440.399 -118.905 433.671 -99.6115C427.141 -80.912 424.014 -61.8628 426.31 -41.7652C428.882 -18.8714 433.552 3.56777 438.024 26.147C439.766 34.9899 440.676 44.0428 441.784 52.9906C443.09 63.5811 440.834 74.1017 436.203 83.9583C431.217 94.5838 420.057 99.512 408.698 101.295C375.85 106.433 344.744 101.854 316.645 84.8671C294.126 71.2706 284.945 50.7184 278.731 28.6635C270.658 -0.102323 277.425 -27.4351 289.061 -54.3484C295.353 -68.9235 299.469 -84.1625 301.25 -99.6115C302.635 -111.39 299.786 -123.309 297.253 -134.739C291.554 -160.359 282.847 -185.315 271.291 -209.537C260.17 -232.92 246.358 -254.975 233.259 -277.449C220.595 -299.224 198.392 -312.576 179 -328.584C157.55 -346.305 134.042 -361.684 110.692 -377.343C85.7196 -394.085 58.9268 -408.276 32.6485 -423.235C1.93759 -440.712 -27.3482 -459.9 -55.5658 -480.347C-84.6937 -501.459 -112.516 -523.863 -140.298 -546.372C-169.347 -569.895 -196.06 -595.55 -225.505 -618.724C-259.778 -645.707 -298.048 -666.189 -343.362 -674.683C-362.358 -678.248 -381.909 -676.325 -401.261 -676.535" stroke="#FFFEFB" stroke-width="2" stroke-linecap="round" stroke-linejoin="round"></path><path opacity="0.2" d="M-396.431 -653.049C-407.908 -650.113 -419.899 -650.322 -431.653 -648.4C-461.533 -643.507 -489.038 -633.58 -516.108 -622.046C-546.225 -609.218 -573.494 -592.057 -602.542 -577.656C-649.796 -554.238 -698.91 -534.98 -752.495 -525.438C-782.415 -520.09 -812.136 -513.694 -841.778 -507.053C-900.43 -493.911 -959.081 -480.768 -1017.42 -466.683C-1048.09 -459.273 -1079.31 -453.366 -1108.72 -441.901C-1137.57 -430.682 -1164.36 -416.946 -1188.42 -398.98C-1204.73 -386.782 -1221.67 -374.828 -1232.75 -358.54C-1243.79 -342.252 -1247.15 -324.287 -1242.92 -304.958C-1240.82 -295.416 -1239.99 -285.455 -1238.65 -275.703C-1236.82 -262.561 -1234.96 -249.384 -1233.5 -236.242C-1232.19 -224.498 -1230.65 -212.719 -1228.91 -201.115C-1225.55 -179.025 -1221.23 -156.865 -1212.84 -135.754C-1209.6 -127.61 -1209.44 -119.256 -1208.92 -111.322C-1207.74 -92.8674 -1205.76 -74.4475 -1204.25 -56.0276C-1201.92 -27.0521 -1203.26 2.37769 -1191.43 30.4095C-1181.93 52.8489 -1169.62 73.5756 -1150.43 90.7023C-1130.76 108.248 -1111.37 125.795 -1096.13 146.801C-1079 170.429 -1068.11 195.804 -1061.94 223.207C-1057.74 241.871 -1056.4 260.955 -1050.98 279.48C-1045.83 296.991 -1037.52 312.79 -1024.1 326.351C-998.618 352.146 -966.877 369.063 -930.23 380.283C-875.259 397.13 -825.513 422.82 -779.09 453.752C-733.538 484.091 -685.137 509.711 -629.177 522.783C-610.972 527.047 -592.608 530.053 -574.087 532.885C-552.914 536.135 -531.622 538.442 -510.37 540.784C-481.242 543.999 -452.471 548.334 -423.976 554.38C-413.528 556.617 -404.781 561.406 -396.51 567.068C-394.017 568.781 -391.643 570.563 -388.951 572.136C-376.129 579.616 -372.488 580.175 -360.456 572.8C-342.529 561.825 -324.838 550.501 -305.288 541.902C-287.4 534.038 -268.562 530.193 -248.378 528.865C-227.126 527.502 -205.833 526.838 -184.74 527.852C-148.805 529.599 -113.108 533.339 -79.2702 545.887C-46.6201 558.015 -28.4546 580.14 -21.6871 609.78C-19.0355 621.314 -13.9302 630.716 -3.28424 637.322C25.3687 655.113 53.4673 673.638 83.0701 690.205C104.797 702.368 128.701 708.66 154.267 706.772C188.184 704.256 218.855 693.735 245.49 674.337C275.172 652.736 297.611 625.648 320.446 598.805C330.38 587.13 340.749 575.771 349.891 563.608C371.618 534.772 370.668 506.181 349.97 477.171C337.662 459.869 330.024 440.89 330.024 420.198C330.024 397.165 339.522 376.787 355.669 359.067C372.805 340.192 392.91 323.555 408.78 303.667C424.175 284.373 434.266 263.402 438.343 239.949C440.994 224.78 441.627 209.89 435.216 195.524C426.351 175.671 408.384 163.229 388.913 151.729C371.143 141.209 351.039 135.581 331.646 128.765C304.774 119.293 285.818 103.355 271.847 81.5098C258.669 60.9229 248.141 39.4272 244.698 16.0091C240.741 -10.9741 245.054 -37.3629 256.65 -62.8432C262.507 -75.7406 269.314 -88.6729 269.077 -103.038C268.721 -125.023 271.095 -146.554 258.431 -167.945C244.461 -191.573 235.635 -217.577 221.586 -241.38C212.167 -257.318 200.848 -272.033 186.561 -285.07C153.832 -315.024 117.185 -341.204 82.8329 -369.585C61.8181 -386.921 36.9645 -399.924 12.5857 -413.136C-18.4813 -429.983 -47.3322 -449.381 -75.5102 -469.584C-108.279 -493.037 -139.465 -518.098 -170.73 -543.123C-197.642 -564.654 -223.762 -587.023 -252.217 -607.016C-281.107 -627.289 -313.203 -642.248 -349.177 -649.448C-364.177 -652.454 -379.928 -654.027 -395.6 -653.153" stroke="#FFFEFB" stroke-width="2" stroke-linecap="round" stroke-linejoin="round"></path><path opacity="0.2" d="M1438.19 193.884C1426.35 196.715 1414.09 196.121 1402.09 197.029C1362.68 200 1325.28 207.725 1292.9 229.116C1282.81 235.792 1272.64 242.258 1265.24 251.66C1260.06 258.231 1252.26 263.194 1244.38 266.62C1217.39 278.329 1206.04 299.719 1198.16 323.102C1191.63 342.501 1188.11 362.529 1184.39 382.556C1180.83 401.675 1179.64 421.249 1171.45 439.634C1153.68 479.549 1123.12 506.428 1074.52 516.005C1028.78 525.022 989.714 513.942 955.877 486.505C938.265 472.244 924.77 454.698 909.019 438.969C891.922 421.913 873.48 406.359 846.766 399.718C824.366 394.126 804.736 398.565 786.096 407.268C773.788 413 762.034 420.689 753.565 431.175C737.141 451.517 742.325 466.337 760.372 481.332C775.767 494.124 794.882 502.443 814.432 508.874C838.336 516.738 861.369 525.616 881.711 539.352C895.88 548.929 911.908 553.998 929.084 558.157C956.668 564.833 976.416 581.4 988.922 603.945C1009.74 641.519 1027.19 680.42 1045.91 718.833C1067.01 762.139 1085.8 806.319 1107.33 849.415C1126.84 888.492 1157.95 920.962 1202.08 939.592C1236.9 954.307 1270.43 971.818 1307.15 982.933C1334.78 991.286 1362.64 998.382 1391.61 1002.47C1419.39 1006.35 1447.17 1010.2 1475.19 1008.73C1526.28 1006.07 1575.75 998.242 1619.68 972.203C1655.97 950.637 1678.81 921.172 1691.83 884.857C1699.23 864.235 1704.49 843.124 1708.41 821.873C1711.22 806.703 1713.24 791.254 1714.66 775.84C1719.26 725.684 1727.33 676.226 1754.32 630.718C1775.1 595.731 1802.64 566.021 1838.85 542.673C1848.15 536.661 1859.2 532.082 1866.16 524.078C1878.94 509.293 1877.72 496.152 1861.49 481.647C1848.43 469.972 1833.79 459.696 1819.9 448.791C1810.68 441.556 1801.18 434.566 1792.43 426.946C1763.3 401.571 1732.2 378.257 1700.38 355.608C1686.8 345.926 1674.02 335.301 1661.44 324.64C1646.55 312.058 1631.2 300.034 1617.39 286.367C1600.88 270.045 1585.25 253.163 1570.29 235.756C1555.06 218.001 1534.04 208.459 1511.36 200.525C1487.9 192.311 1463.48 194.023 1439.14 193.919" stroke="#FFFEFB" stroke-width="2" stroke-linecap="round" stroke-linejoin="round"></path><path opacity="0.2" d="M1441.99 220.731C1422.36 223.876 1403.52 228.805 1385.91 237.403C1361.37 249.392 1338.65 263.722 1315.74 277.773C1298.21 288.503 1280.91 299.583 1263.46 310.418C1233.98 328.733 1217.95 354.458 1211.34 385.077C1207.58 402.588 1206.08 420.518 1201.45 437.82C1195.55 459.735 1182.09 478.749 1165.55 495.631C1144.46 517.162 1119.56 534.672 1089.68 545.997C1073.5 552.114 1056.12 554.875 1039.38 559.524C1023.2 564.032 1021.18 569.275 1020.94 583.781C1020.54 609.75 1032.65 632.819 1040.77 656.621C1056.08 701.675 1073.46 746.239 1095.46 789.196C1110.18 817.927 1122.53 847.706 1144.65 873.151C1156.68 886.957 1171.68 897.443 1187.44 907.544C1225.35 931.801 1265.36 952.738 1309.09 967.767C1336.36 977.134 1364.42 983.74 1393.55 987.41C1416.06 990.241 1438.58 991.674 1460.98 990.241C1508.99 987.2 1554.98 978.078 1595.03 952.074C1624.71 932.78 1645.88 908.243 1661.59 879.058C1674.46 855.151 1681.82 829.88 1687.59 804.26C1690.68 790.559 1692.19 776.438 1693.85 762.422C1700.42 706.324 1715.93 652.776 1749.37 603.738C1764.89 580.984 1779.53 557.811 1798.13 536.84C1802.17 532.296 1806.16 527.752 1810.48 523.453C1821.32 512.583 1826.82 497.938 1813.25 483.188C1790.45 458.372 1771.53 430.724 1743.99 409.368C1716.68 388.187 1689.46 366.901 1661.55 346.279C1640.22 330.516 1618.54 315.067 1597.64 298.814C1573.38 279.94 1549.48 260.681 1523.75 243.275C1499.77 227.057 1473.09 219.368 1442.98 220.696" stroke="#FFFEFB" stroke-width="2" stroke-linecap="round" stroke-linejoin="round"></path><path opacity="0.2" d="M1441.98 306.253C1423.98 306.428 1410.28 316.354 1395.64 323.31C1373.24 333.935 1350.88 344.875 1330.85 359.066C1302.52 379.129 1280.67 403.945 1274.58 435.507C1267.41 472.766 1246.48 502.161 1218.93 529.389C1202.51 545.641 1185.18 561.09 1168.51 577.099C1146.95 597.79 1127.51 619.671 1119.2 647.563C1115.32 660.46 1114.69 673.742 1115.48 686.954C1117.3 717.118 1123.99 746.443 1135.23 775.034C1149.36 810.965 1172.23 841.198 1206.43 864.861C1231.72 882.337 1257.68 898.695 1286.25 911.767C1314.9 924.909 1344.78 934.451 1376.45 940.428C1400.75 945.007 1425.16 946.44 1449.62 944.972C1480.33 943.12 1508.23 933.123 1534.19 918.478C1587.03 888.629 1617.23 844.938 1632.58 792.545C1636.89 777.9 1638.48 762.521 1640.69 747.351C1644.89 718.865 1649.99 690.449 1658.5 662.627C1666.73 635.679 1678.05 609.919 1693.41 585.347C1706.43 564.481 1715.45 541.797 1719.85 518.344C1723.13 500.833 1717.08 483.706 1709.83 467.243C1692.34 427.572 1660.64 399.051 1620.63 376.577C1590 359.415 1557.43 345.644 1524.62 332.292C1510.09 326.385 1495.41 320.653 1481.12 314.327C1468.82 308.874 1456.39 306.323 1442.97 306.253" stroke="#FFFEFB" stroke-width="2" stroke-linecap="round" stroke-linejoin="round"></path><path opacity="0.2" d="M1441.04 337.259C1409.65 343.935 1381.75 357.216 1355.67 373.434C1334.66 386.472 1320.73 404.437 1312.77 426.143C1298.92 463.961 1276.08 497.445 1248.26 528.483C1233.5 544.98 1217.63 560.569 1200.85 575.494C1172.48 600.765 1151.9 630.439 1143.31 665.252C1137.61 688.285 1136.82 711.913 1142.52 735.681C1146.55 752.528 1150.71 769.06 1157.91 785.138C1165.11 801.181 1175.8 815.162 1188.62 827.745C1233.94 872.134 1290.02 901.285 1354.6 918.621C1377.4 924.738 1400.35 928.827 1424.02 929.177C1463.36 929.736 1499.21 919.495 1530.28 898.174C1560.56 877.377 1584.34 851.652 1599.7 820.3C1607.33 804.676 1613.23 788.599 1615.84 771.682C1619.64 747.355 1622.37 722.888 1627.44 698.771C1638.05 648.335 1654.63 599.506 1681.34 553.684C1689.02 540.507 1693.73 526.386 1693.33 511.776C1692.94 496.187 1687.83 481.018 1681.26 466.513C1665.08 430.721 1636.42 405.206 1597.84 387.555C1560.67 370.533 1520.78 359.733 1481.92 346.556C1469.02 342.187 1456.39 336.805 1442.03 337.364" stroke="#FFFEFB" stroke-width="2" stroke-linecap="round" stroke-linejoin="round"></path><path opacity="0.2" d="M179.958 477.311C171.567 479.758 162.386 481.261 155.421 485.875C128.588 503.491 113.826 527.328 117.784 556.933C120.911 580.071 127.361 593.738 164.681 600.099C205.959 607.124 247.83 577.24 252.461 544.455C254.242 531.733 254.083 519.674 250.205 507.51C244.11 488.356 228.241 477.626 205.564 477.346C197.332 477.242 189.1 477.346 180.868 477.346" stroke="#FFFEFB" stroke-width="2" stroke-linecap="round" stroke-linejoin="round"></path><path opacity="0.2" d="M1521.74 472.279C1511.81 475.215 1501.32 475.914 1491.27 478.71C1479.43 482.031 1468.03 486.121 1459.25 493.391C1413.82 530.79 1362.21 560.848 1310.96 591.327C1275.42 612.473 1246.84 638.932 1230.3 674.374C1223.77 688.355 1220.01 703 1216.57 717.89C1209.8 747.249 1222.58 769.829 1244.47 790.066C1281.08 823.9 1326.47 843.718 1377.41 854.658C1388.05 856.965 1398.46 859.971 1409.7 859.761C1437.72 859.237 1462.1 849.869 1484.7 836.168C1515.29 817.573 1533.77 791.499 1541.33 759.832C1543.78 749.556 1545.25 738.791 1545.64 728.026C1547.07 688.53 1539.94 649.278 1541.72 609.782C1542.36 595.346 1545.84 581.226 1548.41 567.035C1550.51 555.571 1553.16 544.141 1554.9 532.642C1556.33 523.17 1559.06 513.873 1558.9 504.156C1558.58 481.472 1548.41 472.279 1522.73 472.279" stroke="#FFFEFB" stroke-width="2" stroke-linecap="round" stroke-linejoin="round"></path><path opacity="0.2" d="M191.353 425.307C165.985 437.4 141.567 450.473 120.948 468.788C100.448 486.998 87.2688 507.794 82.9155 533.45C77.8102 563.509 85.8042 589.863 108.877 612.197C126.607 629.359 150.194 633.238 175.246 632.399C212.447 631.106 236.984 611.708 257.841 587.136C266.389 577.07 275.096 566.969 280.557 555.26C295.833 522.37 287.008 492.975 262.511 466.481C248.066 450.857 228.792 440.127 210.27 428.837C205.244 425.761 198.833 424.398 192.342 425.342" stroke="#FFFEFB" stroke-width="2" stroke-linecap="round" stroke-linejoin="round"></path><path opacity="0.2" d="M-406.883 -519.703C-427.502 -518.445 -447.488 -514.845 -466.722 -507.994C-495.296 -497.788 -521.653 -483.702 -549.159 -471.609C-587.626 -454.657 -626.767 -439.662 -668.044 -429.211C-700.773 -420.928 -733.978 -413.902 -765.797 -403.102C-815.821 -386.15 -862.56 -363.851 -905.499 -335.33C-928.928 -319.741 -949.983 -301.95 -969.85 -283.111C-1005.15 -249.626 -1028.7 -210.41 -1041.44 -165.881C-1048.69 -140.645 -1054.34 -115.27 -1058.46 -89.5446C-1060.08 -79.4783 -1062.02 -69.5518 -1062.18 -59.3457C-1062.62 -31.3838 -1049.87 -8.7696 -1024.9 7.55314C-994.585 27.3711 -964.745 47.7134 -936.052 69.2091C-910.447 88.398 -889.669 111.711 -870.119 135.933C-846.057 165.678 -826.585 198.008 -802.167 227.613C-775.691 259.699 -744.347 286.962 -706.908 308.702C-685.774 320.971 -662.108 328.031 -636.74 326.109C-612.203 324.256 -589.011 317.056 -566.334 308.143C-524.028 291.471 -482.157 273.855 -437.357 262.495C-416.025 257.113 -394.654 252.394 -372.769 249.039C-344.63 244.705 -316.413 244.32 -288.235 246.138C-268.407 247.431 -248.975 252.079 -229.306 254.911C-208.648 257.882 -188.068 260.398 -166.618 257.986C-122.768 253.058 -81.7674 239.777 -40.4106 227.334C-24.3033 222.475 -8.63121 216.428 7.08041 210.626C21.7235 205.244 34.3878 197.589 38.3058 182.979C41.6302 170.641 38.86 159.037 31.9342 147.712C21.3674 130.376 7.1597 115.695 -8.11659 101.68C-32.9307 78.9256 -54.658 54.1445 -69.7364 25.3088C-79.7491 6.1549 -86.5958 -13.8728 -90.1181 -34.984C-93.3633 -54.2777 -96.45 -73.6064 -98.8246 -92.9351C-100.764 -108.489 -101.99 -124.217 -103.574 -139.806C-105.394 -157.702 -106.859 -175.667 -108.363 -193.528C-110.341 -216.911 -110.341 -240.469 -110.974 -263.922C-111.884 -299.049 -120.156 -332.708 -145.801 -361.194C-156.012 -372.519 -167.449 -382.725 -179.717 -392.477C-197.685 -406.737 -214.069 -422.501 -232.155 -436.691C-257.365 -456.509 -282.338 -476.537 -310.041 -493.699C-338.813 -511.524 -370.75 -520.297 -405.933 -519.703" stroke="#FFFEFB" stroke-width="2" stroke-linecap="round" stroke-linejoin="round"></path><path opacity="0.2" d="M-409.725 -547.385C-415.819 -543.61 -423.141 -545.392 -429.75 -544.449C-460.461 -540.045 -489.074 -531.237 -515.076 -516.312C-539.257 -502.436 -564.031 -489.609 -590.072 -478.529C-629.687 -461.717 -671.083 -449.378 -713.627 -440.186C-783.598 -425.051 -849.214 -401.913 -908.459 -364.829C-943.919 -342.669 -977.836 -319.146 -1006.88 -290.66C-1035.26 -262.873 -1053.62 -230.017 -1065.97 -194.366C-1073.41 -172.905 -1078.75 -150.955 -1082.59 -128.9C-1086.99 -103.7 -1092.92 -78.4293 -1090.51 -52.6694C-1088.37 -29.8455 -1079.86 -8.94395 -1063.99 9.40603C-1050.38 25.1346 -1033.01 36.8788 -1014.72 48.1335C-962.52 80.2547 -920.411 121.044 -885.347 167.81C-866.193 193.395 -850.837 220.938 -830.614 245.999C-798.874 285.285 -759.773 317.057 -711.569 339.566C-692.85 348.304 -672.429 352.883 -650.979 355.225C-616.508 359 -584.61 351.345 -553.187 341.279C-515.828 329.325 -480.13 313.701 -443.047 301.014C-417.046 292.136 -390.649 284.621 -363.183 281.3C-335.322 277.945 -307.5 278.854 -279.56 284.027C-258.07 288.011 -236.224 291.227 -214.18 293.254C-193.561 295.142 -173.061 296.33 -152.402 296.12C-134.831 295.98 -117.654 293.009 -102.18 285.949C-58.9634 266.271 -12.8577 253.339 32.6941 239.043C50.1471 233.556 67.6394 227.893 85.9631 226.006C108.957 223.629 130.526 228.453 149.562 240.826C159.535 247.327 170.141 252.744 182.766 254.282C197.765 256.135 211.181 245.824 212.329 232.472C213.872 214.577 205.601 200.106 192.066 188.187C179.085 176.758 163.928 167.216 150.591 156.031C131.001 139.569 114.379 120.73 98.3899 101.541C91.1476 92.8726 82.6784 86.2316 71.7555 81.3732C45.1209 69.5943 20.0298 55.6831 -0.470503 36.2146C-27.3425 10.6994 -43.9642 -19.4996 -51.7211 -53.5082C-57.4991 -78.9535 -59.1615 -104.783 -59.2802 -130.648C-59.5572 -184.3 -59.7549 -237.987 -59.1217 -291.638C-58.9239 -309.569 -65.1372 -324.703 -78.3952 -337.706C-93.3548 -352.42 -108.789 -366.786 -123.907 -381.361C-149.711 -406.177 -177.889 -428.791 -206.621 -450.881C-235.076 -472.761 -264.442 -493.698 -292.817 -515.683C-305.165 -525.225 -316.642 -535.466 -331.879 -541.583C-340.981 -545.253 -350.44 -547.28 -360.413 -547.35C-376.56 -547.455 -392.707 -547.35 -408.854 -547.35" stroke="#FFFEFB" stroke-width="2" stroke-linecap="round" stroke-linejoin="round"></path><path opacity="0.2" d="M-384.084 -575.068C-393.385 -572.517 -403.081 -574.125 -412.619 -572.971C-438.343 -569.93 -462.801 -563.569 -486.626 -554.901C-514.329 -544.835 -539.143 -530.12 -564.472 -516.278C-616.078 -488.037 -671.881 -468.813 -730.769 -457.069C-781.664 -446.898 -830.777 -432.952 -876.883 -411.421C-921.723 -390.485 -963.475 -365.249 -1004.24 -338.651C-1031.35 -320.965 -1054.02 -300.028 -1070.69 -274.024C-1083.15 -254.555 -1090.51 -233.479 -1096.13 -211.913C-1102.43 -187.901 -1106.86 -163.609 -1109.91 -139.038C-1112.72 -116.424 -1115.21 -93.7746 -1116 -71.0905C-1117.9 -17.159 -1095.78 27.0907 -1045.95 59.7711C-986.944 98.4633 -937.553 144.635 -902.37 202.202C-886.817 227.647 -871.066 253.093 -849.457 275.322C-831.727 293.567 -812.335 310.31 -791.281 325.409C-766.229 343.339 -739.436 359.208 -709.715 370.812C-691.51 377.907 -672.672 382.836 -652.805 385.387C-636.262 387.484 -619.68 387.659 -603.414 386.401C-574.919 384.199 -547.493 376.999 -521.769 365.744C-488.684 351.239 -455.559 336.804 -420.099 327.296C-401.182 322.228 -381.948 318.383 -362.239 316.111C-345.142 314.154 -328.164 312.686 -310.948 312.966C-280.198 313.455 -250.477 319.082 -220.676 325.339C-198.672 329.953 -176.232 332.12 -153.318 330.792C-117.581 328.764 -87.3448 314.049 -56.4361 300.453C-27.6248 287.765 2.21555 276.86 33.7971 271.303C74.4811 264.138 114.927 265.326 153.356 281.194C182.206 293.113 210.899 291.226 239.79 281.928C247.151 279.552 254.947 277.769 261.517 274.239C273.548 267.772 275.724 254.84 270.303 238.343C264.406 220.377 252.018 205.662 240.502 190.737C214.777 157.428 189.409 123.909 164.437 90.1449C142.947 61.0995 112.988 39.4291 78.3596 22.8616C55.1285 11.7468 34.3116 -1.84992 20.4204 -22.4019C6.25227 -43.3384 -0.198653 -65.638 1.06777 -90.3493C2.13632 -110.796 11.1201 -128.237 21.3702 -145.679C36.4882 -171.334 37.7149 -197.548 26.1587 -224.531C17.5312 -244.629 11.0011 -265.216 6.80608 -286.537C2.09655 -310.479 -14.8419 -328.584 -34.7486 -344.383C-52.7952 -358.678 -71.3559 -372.45 -89.7587 -386.361C-121.459 -410.268 -150.27 -437.006 -181.971 -460.879C-213.077 -484.297 -244.105 -507.715 -274.815 -531.518C-287.796 -541.584 -298.442 -553.957 -313.837 -561.647C-329.193 -569.301 -345.657 -573.461 -363.228 -574.195C-369.877 -574.474 -376.525 -574.754 -383.174 -575.033" stroke="#FFFEFB" stroke-width="2" stroke-linecap="round" stroke-linejoin="round"></path><path opacity="0.2" d="M-411.629 -602.715C-421.127 -599.674 -431.298 -599.814 -441.113 -597.926C-472.14 -591.915 -500.912 -581.184 -528.418 -567.518C-559.128 -552.244 -586.712 -532.496 -618.571 -518.794C-657.553 -502.017 -698.356 -489.924 -740.188 -480.382C-776.875 -471.993 -813.799 -464.548 -849.417 -452.699C-905.536 -434.07 -958.291 -409.149 -1011.72 -385.451C-1035.5 -374.896 -1060.55 -366.332 -1082.04 -352.037C-1111.37 -332.533 -1128.78 -306.564 -1136.3 -274.932C-1141.49 -253.017 -1143.43 -230.927 -1143.7 -208.662C-1144.02 -184.615 -1143.58 -160.603 -1143.82 -136.556C-1144.06 -114.71 -1148.77 -93.0747 -1147.58 -71.1596C-1146.75 -55.6757 -1144.73 -40.3667 -1142.2 -24.9877C-1139.75 -10.063 -1137.17 4.51202 -1130.64 18.6328C-1124.71 31.5651 -1116 42.6452 -1105.71 52.9212C-1088.38 70.1877 -1067.99 84.658 -1047.65 98.8486C-1007.21 127.055 -977.801 162.322 -955.56 202.971C-946.576 219.399 -937.909 236.002 -929.44 252.639C-918.24 274.589 -901.578 292.205 -880.682 306.99C-836.437 338.342 -790.608 367.772 -742.998 395.07C-717.867 409.47 -690.639 419.816 -661.313 425.164C-618.215 433.028 -576.067 427.296 -535.145 414.992C-509.54 407.303 -485.082 396.817 -460.941 385.947C-434.306 373.924 -406.563 363.752 -377.317 358.684C-358.558 355.434 -339.284 353.826 -319.417 356.063C-295.474 358.754 -271.807 361.9 -248.22 366.479C-223.09 371.372 -198.197 376.824 -174.214 385.143C-146.352 394.79 -122.052 388.673 -99.0982 373.434C-81.6848 361.865 -63.9947 350.61 -45.9085 339.915C-20.857 325.095 6.92525 315.728 36.6467 311.394C70.7611 306.395 103.728 311.918 136.378 320.446C155.929 325.549 175.954 328.87 196.138 331.631C212.918 333.938 229.619 335.371 246.478 334.742C275.804 333.623 299.826 323.312 318.862 303.075C328.202 293.148 337.423 283.257 344.23 271.863C355.826 252.464 351.71 239.392 336.592 225.027C316.448 205.908 292.346 190.354 272.163 171.235C252.573 152.675 234.487 133.102 221.743 110.068C207.338 83.9938 192.378 58.1641 178.21 32.0198C169.74 16.431 160.361 1.29662 151.18 -13.9076C137.803 -36.1373 146.391 -50.7126 160.124 -65.1829C166.772 -72.1733 174.648 -77.9753 180.268 -86.0493C193.011 -104.434 189.251 -126.245 176.072 -141.449C147.38 -174.549 124.703 -210.759 101.788 -247.005C84.4938 -274.338 69.8115 -303.138 47.2533 -327.815C41.4752 -334.141 34.035 -338.126 27.0301 -342.67C-8.4695 -365.633 -43.1381 -389.54 -77.4503 -413.937C-113.148 -439.348 -148.133 -465.527 -182.524 -492.266C-205.716 -510.266 -228.947 -528.336 -251.228 -547.28C-268.167 -561.716 -285.976 -575.522 -307.188 -585.029C-325.393 -593.208 -344.627 -598.556 -365.009 -601.282C-380.285 -603.344 -395.443 -602.051 -410.64 -602.715" stroke="#FFFEFB" stroke-width="2" stroke-linecap="round" stroke-linejoin="round"></path><path opacity="0.2" d="M-405.928 -627.88C-417.128 -625.084 -428.843 -625.398 -440.161 -622.987C-468.102 -617.01 -494.539 -608.027 -519.986 -596.178C-559.324 -577.863 -594.824 -553.851 -634.796 -536.48C-664.834 -523.407 -695.742 -512.992 -728.749 -506.875C-764.367 -500.269 -799.431 -491.461 -834.218 -482.024C-899.874 -464.163 -964.739 -444.275 -1029.68 -424.632C-1080.26 -409.323 -1126.72 -386.289 -1167.29 -355.147C-1179.52 -345.78 -1192.54 -336.412 -1197.25 -321.068C-1200.3 -311.107 -1200.81 -301.845 -1199.31 -291.603C-1197.68 -280.768 -1196.5 -269.828 -1194.83 -258.993C-1192.5 -243.894 -1190.2 -228.724 -1187.87 -213.625C-1186.13 -202.265 -1184.98 -190.731 -1183.51 -179.302C-1181.65 -165.041 -1180.67 -150.711 -1178.21 -136.485C-1176.79 -128.236 -1176.83 -119.708 -1176.39 -111.354C-1175.01 -86.5031 -1174.18 -61.652 -1173.9 -36.731C-1173.54 -7.75553 -1167.61 20.2414 -1151.66 46.4207C-1139.74 65.9941 -1123.36 81.8273 -1103.73 94.7247C-1059.6 123.805 -1029.01 161.623 -1006.97 205.593C-995.015 229.466 -988.564 254.946 -978.67 279.448C-966.481 309.716 -944.121 330.304 -910.244 342.537C-874.23 355.539 -841.777 374.484 -809.444 393.393C-780 410.589 -752.534 430.337 -722.139 446.31C-697.365 459.312 -671.047 469.484 -642.315 471.966C-615.878 474.237 -589.204 472.839 -562.57 470.917C-544.563 469.624 -526.951 467.526 -509.379 463.996C-478.906 457.88 -451.638 446.101 -426.745 429.568C-405.137 415.203 -380.916 409.016 -353.648 411.812C-318.109 415.412 -284.351 425.514 -250.237 434.007C-231.042 438.796 -212.56 445.961 -194.078 452.881C-167.088 462.982 -139.82 464.8 -111.405 455.748C-83.4642 446.835 -58.1749 435.265 -40.3262 413.525C-34.3898 406.325 -30.3137 398.076 -24.2586 390.841C-11.0403 375.042 6.05687 366.339 28.0611 362.949C44.0497 360.502 59.1277 361.935 73.6124 366.794C97.3975 374.763 107.846 391.75 97.1604 414.329C89.1265 431.351 75.3144 445.157 59.4445 457.215C46.5031 467.037 33.2055 476.754 29.0896 492.413C26.6755 501.535 27.3089 510.972 28.3775 520.06C30.4354 537.606 32.8493 555.222 39.4584 572.069C56.0803 614.361 85.129 646.552 133.451 663.504C161.471 673.326 188.145 669.516 213.117 656.584C241.929 641.659 263.181 619.359 283.523 596.396C295.95 582.345 307.981 568.119 314.828 551.098C324.168 527.889 320.962 505.205 310 483.22C300.58 464.346 290.686 445.646 280.594 427.017C269.869 407.269 273.985 389.408 290.132 374.973C303.984 362.6 319.695 351.939 332.874 338.937C352.939 319.119 371.619 298.497 385.312 274.485C403.596 242.468 393.188 214.087 365.208 193.849C343.876 178.401 319.339 167.111 297.533 152.222C272.482 135.13 254.514 113.564 241.019 88.9925C230.016 68.9298 221.429 47.8537 212.049 27.127C197.564 -4.92432 202.036 -34.9483 218.579 -65.3568C227.286 -81.365 234.528 -98.2123 237.18 -116.318C239.594 -132.85 234.409 -147.215 224.634 -160.777C187.908 -211.598 149.519 -261.44 107.688 -309.115C86.0397 -333.756 59.5634 -354.098 30.0002 -371.33C-7.43854 -393.105 -42.5424 -417.642 -77.3691 -442.528C-113.344 -468.253 -148.368 -494.851 -182.839 -522.114C-201.558 -536.899 -220.317 -551.614 -238.799 -566.643C-260.131 -584.015 -282.372 -600.338 -309.046 -611.103C-328.993 -619.142 -349.611 -624.595 -371.655 -626.552C-382.776 -627.531 -393.818 -627.531 -404.939 -627.915" stroke="#FFFEFB" stroke-width="2" stroke-linecap="round" stroke-linejoin="round"></path><path opacity="0.2" d="M1499.89 421.146C1477.61 422.893 1455.72 427.018 1433.44 428.975C1413.97 430.653 1398.65 439.985 1387.81 454.7C1376.65 469.869 1367.51 486.052 1355.79 500.977C1339.76 521.424 1321.92 539.809 1299.79 555.607C1264.53 580.843 1234.41 610.692 1212.41 645.994C1200.81 664.624 1193.37 684.756 1190.05 706.217C1185.3 737.045 1191.75 765.077 1211.18 790.942C1225.23 809.606 1244.19 823.308 1265.2 835.541C1294.65 852.668 1324.41 868.676 1358.32 878.358C1382.39 885.243 1405.89 885.593 1430.63 881.818C1458.65 877.554 1483.9 868.676 1506.5 853.786C1538.04 833.024 1557.59 805.517 1566.45 771.648C1573.42 745.084 1576.31 718.345 1575.91 691.118C1575.16 638.235 1589.09 588.218 1613.67 540.124C1629.18 509.785 1627.08 480.04 1602.15 454.001C1588.58 439.845 1569.18 432.61 1549.28 426.913C1533.45 422.369 1517.3 420.936 1500.84 421.111" stroke="#FFFEFB" stroke-width="2" stroke-linecap="round" stroke-linejoin="round"></path></g></svg> 