<?xml version="1.0" encoding="UTF-8"?> <svg xmlns="http://www.w3.org/2000/svg" width="64" height="64" viewBox="0 0 64 64" fill="none"><path d="M18.6404 37.3868C21.7037 37.3868 24.1871 34.9751 24.1871 32.0001C24.1871 29.0251 21.7037 26.6134 18.6404 26.6134C15.5771 26.6134 13.0938 29.0251 13.0938 32.0001C13.0938 34.9751 15.5771 37.3868 18.6404 37.3868Z" stroke="#0C2233" stroke-width="3" stroke-linecap="round" stroke-linejoin="round"></path><path d="M45.5195 18.6667C48.4944 18.6667 50.9061 16.255 50.9061 13.2801C50.9061 10.3051 48.4944 7.89343 45.5195 7.89343C42.5445 7.89343 40.1328 10.3051 40.1328 13.2801C40.1328 16.255 42.5445 18.6667 45.5195 18.6667Z" stroke="#0C2233" stroke-width="3" stroke-linecap="round" stroke-linejoin="round"></path><path d="M45.5195 56.1067C48.4944 56.1067 50.9061 53.695 50.9061 50.72C50.9061 47.745 48.4944 45.3334 45.5195 45.3334C42.5445 45.3334 40.1328 47.745 40.1328 50.72C40.1328 53.695 42.5445 56.1067 45.5195 56.1067Z" stroke="#0C2233" stroke-width="3" stroke-linecap="round" stroke-linejoin="round"></path><path d="M24.6133 27.8402L39.5466 17.4402" stroke="#0C2233" stroke-width="3" stroke-linecap="round" stroke-linejoin="round"></path><path d="M39.5466 46.56L24.6133 36.16" stroke="#0C2233" stroke-width="3" stroke-linecap="round" stroke-linejoin="round"></path></svg> 
