<?xml version="1.0" encoding="UTF-8"?> <svg xmlns="http://www.w3.org/2000/svg" id="Layer_1" data-name="Layer 1" version="1.1" viewBox="0 0 64 64"><defs><style> .cls-1, .cls-2 { fill: none; } .cls-1, .cls-3 { stroke-width: 0px; } .cls-2 { stroke: #0c2233; stroke-linecap: round; stroke-linejoin: round; stroke-width: 3px; } .cls-3 { fill: #0c2233; } </style></defs><path class="cls-1" d="M32,56.7c13.6,0,24.7-11,24.7-24.7S45.6,7.3,32,7.3,7.3,18.4,7.3,32s11,24.7,24.7,24.7Z"></path><path class="cls-2" d="M32,56.7c13.6,0,24.7-11,24.7-24.7S45.6,7.3,32,7.3,7.3,18.4,7.3,32s11,24.7,24.7,24.7Z"></path><path class="cls-1" d="M43.3,40.2c-.5.6-4.5,5.5-11.3,5.5-6.6,0-10.5-4.7-11-5.3"></path><path class="cls-2" d="M43.3,40.2c-.5.6-4.5,5.5-11.3,5.5-6.6,0-10.5-4.7-11-5.3"></path><path class="cls-1" d="M22.4,23.3c-1.9,0-3.4,1.5-3.4,3.4s1.5,3.4,3.4,3.4,3.4-1.5,3.4-3.4-1.5-3.4-3.4-3.4Z"></path><path class="cls-3" d="M22.4,23.3c-1.9,0-3.4,1.5-3.4,3.4s1.5,3.4,3.4,3.4,3.4-1.5,3.4-3.4-1.5-3.4-3.4-3.4Z"></path><path class="cls-1" d="M41.6,23.3c-1.9,0-3.4,1.5-3.4,3.4s1.5,3.4,3.4,3.4,3.4-1.5,3.4-3.4-1.5-3.4-3.4-3.4Z"></path><path class="cls-3" d="M41.6,23.3c-1.9,0-3.4,1.5-3.4,3.4s1.5,3.4,3.4,3.4,3.4-1.5,3.4-3.4-1.5-3.4-3.4-3.4Z"></path><metadata></metadata></svg> 