<?xml version="1.0" encoding="UTF-8"?> <svg xmlns="http://www.w3.org/2000/svg" width="1440" height="1070" viewBox="0 0 1440 1070" fill="none"><mask id="mask0_1926_3226" style="mask-type:alpha" maskUnits="userSpaceOnUse" x="0" y="0" width="1440" height="1070"><rect width="1440" height="1070" fill="#0C2233"></rect></mask><g mask="url(#mask0_1926_3226)"><rect width="1440" height="1070" fill="#0C2233"></rect><path d="M1719.2 22.8856C1687.57 17.2257 1655.75 16.7865 1623.35 27.3438C1605.71 33.0865 1594.5 45.5912 1583.83 59.3804C1569.27 78.1912 1558.49 99.2064 1548.92 120.851C1530.72 162.003 1527.91 204.348 1541.32 247.1C1559.16 303.914 1570.54 361.399 1564.09 421.221C1561.18 448.368 1554.75 474.687 1545.87 500.574C1540.3 516.825 1533.65 532.395 1525.9 547.51C1511.62 575.536 1494.86 602.203 1479.21 629.458C1468.57 648.012 1457.36 666.235 1446.52 684.697C1435.17 703.997 1422.36 722.427 1409.99 741.072C1389.5 771.932 1367.46 801.756 1364.05 840.761C1361.86 866.135 1369.94 888.244 1382.96 908.547C1405.1 943.028 1435.01 970.225 1467.36 995.21C1498.64 1019.39 1533.63 1036.24 1570.38 1048.99C1605.5 1061.14 1641.58 1070.33 1678.17 1077.82C1692.02 1080.65 1705.62 1084.68 1719.2 1088.87" stroke="#FF6A39" stroke-width="8.48729" stroke-linecap="round" stroke-linejoin="round"></path><path d="M1719.2 1141.5C1690.27 1133.92 1661.33 1126.6 1632.06 1120.49C1586.16 1110.93 1541.61 1097.75 1498.63 1078.98C1450.08 1057.83 1405.2 1030.35 1363.97 997.547C1323.05 965.013 1285.49 928.783 1252.45 887.822C1231.59 861.951 1230.19 835.781 1256.54 805.518C1308.94 745.348 1363.6 687.018 1411.81 623.359C1426.36 604.184 1439.96 584.08 1452.87 563.529C1462.02 549.019 1495.26 477.322 1500.85 455.835C1510.19 420.061 1514.1 384.303 1512.83 347.419C1511.55 309.69 1501.28 273.245 1498.9 235.656C1494.61 168.401 1506.33 105.96 1547.5 50.5799C1584.61 0.743446 1633.35 -23.1969 1695.51 -21.059C1703.41 -20.7772 1711.31 -20.454 1719.21 -20.1971" stroke="#FF6A39" stroke-width="16.9746" stroke-linecap="round" stroke-linejoin="round"></path><path d="M1719.2 -75.834C1705.4 -71.7818 1691.22 -69.1797 1676.89 -67.0583C1612.12 -57.5617 1561.58 -23.5861 1519.65 24.7587C1495.82 52.2375 1478.5 83.8763 1467.09 118.192C1459.92 139.712 1456.19 162.368 1456.4 185.455C1457.05 246.172 1461.84 306.922 1456.89 367.631C1453.97 403.438 1446.34 438.275 1431.03 470.917C1418.92 496.78 1402.89 520.48 1386.31 543.575C1361.45 578.205 1334.64 611.493 1305.13 642.361C1277.63 671.116 1248.37 698.131 1220.89 726.828C1195.58 753.246 1170.95 780.766 1155.29 814.145C1143.27 839.809 1144.39 865.432 1157.8 892.413C1184.41 946.086 1226.67 984.603 1271.96 1021.13C1296.14 1040.62 1321.55 1057.88 1347.7 1074.58C1386.94 1099.63 1428.63 1119.35 1472 1135.41C1534.8 1158.62 1599.69 1173.96 1666.1 1182.99C1684 1185.43 1701.67 1188.95 1719.21 1193.21" stroke="#0A91AB" stroke-width="1.69746" stroke-linecap="round" stroke-linejoin="round"></path><path d="M1719.2 -143C1704.46 -130.288 1687.07 -120.013 1667.3 -112.041C1643.09 -102.312 1617.46 -96.9838 1593.81 -84.8851C1551.59 -63.2816 1518.31 -31.966 1488.71 4.28016C1472.8 23.8286 1459 44.8603 1447.8 67.2428C1421.81 119.151 1411.33 175.02 1412.93 232.455C1414.34 284.562 1411.45 336.205 1399.23 386.622C1391.66 417.763 1378.62 447.389 1361.4 475.53C1320.9 541.816 1267.33 596.442 1213.12 650.77C1182.1 681.887 1151.8 713.766 1127.59 750.451C1084.12 816.173 1078.21 883.229 1122.44 951.802C1150.07 994.653 1184.53 1030.68 1224.41 1061.76C1248.64 1080.62 1273.97 1097.66 1300.73 1112.95C1324.14 1126.31 1347.45 1139.86 1371.75 1151.35C1398.74 1164.12 1426.68 1175.41 1454.96 1185.06C1517.23 1206.32 1581.09 1222.02 1645.58 1234.78C1670.29 1239.64 1694.8 1245.24 1719.2 1251.24" stroke="#CEFD94" stroke-width="3.39492" stroke-linecap="round" stroke-linejoin="round"></path></g></svg> 