<svg xmlns="http://www.w3.org/2000/svg" width="161" height="28" fill="none"><path fill="#FFFEFB" d="M17.032 8.056q-1.993-2.72-5.354-2.722-1.368 0-2.676.667-1.31.666-1.309 2.166c0 .817.362 1.407 1.08 1.78q1.08.558 2.732.942c1.1.261 2.285.527 3.559.807 1.269.276 2.458.706 3.559 1.277a7.7 7.7 0 0 1 2.731 2.36q1.08 1.499 1.08 4.11 0 2.386-1.055 4.027a8.24 8.24 0 0 1-2.731 2.64q-1.682 1.002-3.787 1.445a20.5 20.5 0 0 1-4.214.445q-3.188.001-5.864-.89C3 26.52 1.403 25.443 0 23.89l4.555-4.167q1.311 1.444 2.82 2.36c1.007.608 2.231.918 3.674.918.49 0 1.006-.058 1.536-.165a5 5 0 0 0 1.483-.556 3.45 3.45 0 0 0 1.11-.972q.425-.58.426-1.358-.002-1.387-1.08-2.055c-.724-.445-1.631-.808-2.732-1.083a63 63 0 0 0-3.559-.779 14 14 0 0 1-3.559-1.165 7.4 7.4 0 0 1-2.73-2.248C1.218 11.648.861 10.319.861 8.612q0-2.22.942-3.859A8.1 8.1 0 0 1 4.283 2.06c1.026-.7 2.2-1.223 3.529-1.557a16.502 16.502 0 0 1 9.453.42c1.784.61 3.227 1.66 4.327 3.139zM26.367 14.003q-.001-3.168 1.165-5.75c.778-1.72 1.83-3.195 3.163-4.413q1.993-1.835 4.723-2.834c1.825-.667 3.758-1 5.81-1s3.985.333 5.81 1q2.733 1 4.723 2.834t3.162 4.414q1.167 2.58 1.165 5.749t-1.165 5.749c-.778 1.72-1.834 3.196-3.162 4.414Q49.767 26 47.037 26.999C45.213 27.667 43.28 28 41.227 28c-2.051 0-3.984-.334-5.809-1-1.824-.668-3.395-1.61-4.723-2.834q-1.995-1.833-3.163-4.414c-.773-1.726-1.165-3.641-1.165-5.75m6.836 0a8.5 8.5 0 0 0 .54 2.997 7.5 7.5 0 0 0 1.596 2.553 8 8 0 0 0 2.533 1.78q1.48.667 3.36.667 1.882 0 3.361-.667a7.9 7.9 0 0 0 2.533-1.78A7.5 7.5 0 0 0 48.722 17a8.5 8.5 0 0 0 .54-2.997 8.5 8.5 0 0 0-.54-2.998 7.55 7.55 0 0 0-1.596-2.558 8 8 0 0 0-2.532-1.779q-1.48-.667-3.361-.667t-3.361.667a7.9 7.9 0 0 0-2.533 1.78 7.5 7.5 0 0 0-1.596 2.557 8.4 8.4 0 0 0-.54 2.998M61.104 14.003q-.001-3.168 1.164-5.75c.779-1.72 1.83-3.195 3.163-4.413q1.993-1.835 4.724-2.834c1.824-.667 3.757-1 5.81-1 2.051 0 3.984.333 5.808 1 1.825.667 3.396 1.61 4.724 2.834q1.995 1.834 3.163 4.414 1.166 2.58 1.165 5.749c0 2.113-.392 4.027-1.165 5.749-.778 1.72-1.834 3.196-3.163 4.414Q84.504 26 81.773 26.999C79.95 27.667 78.017 28 75.965 28s-3.985-.334-5.81-1q-2.733-1-4.723-2.834-1.994-1.833-3.163-4.414c-.773-1.726-1.165-3.641-1.165-5.75m6.835 0a8.5 8.5 0 0 0 .54 2.997 7.5 7.5 0 0 0 1.596 2.553 8 8 0 0 0 2.533 1.78q1.48.667 3.361.667t3.36-.667a7.9 7.9 0 0 0 2.534-1.78A7.5 7.5 0 0 0 83.459 17a8.5 8.5 0 0 0 .54-2.997 8.5 8.5 0 0 0-.54-2.998 7.55 7.55 0 0 0-1.596-2.558 8 8 0 0 0-2.533-1.779q-1.48-.667-3.36-.667-1.882 0-3.362.667a7.9 7.9 0 0 0-2.533 1.78 7.5 7.5 0 0 0-1.596 2.557 8.4 8.4 0 0 0-.54 2.998M97.205.672h6.494V4.95h.114q.966-2 2.959-3.472Q108.766.01 112.18.01c1.824 0 3.366.295 4.639.89 1.269.595 2.305 1.368 3.103 2.335a8.75 8.75 0 0 1 1.71 3.332q.513 1.886.511 3.945v16.83h-6.835V13.834q-.002-1.109-.114-2.471a8.6 8.6 0 0 0-.6-2.553 4.85 4.85 0 0 0-1.507-2.002q-1.027-.806-2.791-.807-1.709-.001-2.875.556a5.6 5.6 0 0 0-1.938 1.499 6 6 0 0 0-1.11 2.166 9.5 9.5 0 0 0-.342 2.553v14.553h-6.836V.672zM146.971 23.663h-.169q-1.48 2.278-3.757 3.302-2.275 1.03-5.011 1.03-1.882 0-3.673-.498c-1.195-.334-2.261-.832-3.188-1.5a7.75 7.75 0 0 1-2.25-2.499q-.854-1.5-.853-3.5c0-1.446.268-2.674.798-3.694a7.6 7.6 0 0 1 2.137-2.558c.892-.687 1.928-1.228 3.103-1.64a22 22 0 0 1 3.673-.918 33 33 0 0 1 3.841-.387 81 81 0 0 1 3.644-.082h1.71V10q-.001-2.501-1.765-3.747-1.764-1.248-4.501-1.248-2.163.002-4.045.75-1.88.748-3.246 2.026l-3.589-3.501a13.3 13.3 0 0 1 5.324-3.278q3.048-1 6.29-1.001 2.906 0 4.897.638 1.993.639 3.301 1.64 1.31 1 2.023 2.306.714 1.305 1.026 2.64t.372 2.581c.039.832.054 1.567.054 2.196v15.331h-6.151v-3.67zm-.397-8.273h-1.422q-1.427.002-3.188.111a17.2 17.2 0 0 0-3.331.527c-1.046.276-1.928.687-2.647 1.223-.723.537-1.08 1.287-1.08 2.249q.002.942.426 1.58a3.8 3.8 0 0 0 1.11 1.084q.683.442 1.537.638.855.194 1.71.193 3.531 0 5.21-1.639 1.68-1.637 1.68-4.472V15.39zM157.24 25.814h-.625v-.324h1.616v.324h-.629v1.673h-.362zM158.488 25.495h.555l.546 1.398.55-1.398h.55v1.997h-.347v-1.658h-.005l-.619 1.658h-.253l-.62-1.658h-.005v1.658h-.347v-1.997z"/></svg>