<?xml version="1.0" encoding="UTF-8"?> <svg xmlns="http://www.w3.org/2000/svg" width="161" height="28" viewBox="0 0 161 28" fill="none"><path d="M17.0317 8.05568C15.7033 6.24255 13.9188 5.33356 11.6783 5.33356C10.7662 5.33356 9.87401 5.55597 9.00161 6.0008C8.12921 6.44562 7.69301 7.16604 7.69301 8.16689C7.69301 8.984 8.05486 9.57388 8.7736 9.94617C9.49234 10.3185 10.4044 10.6327 11.5048 10.889C12.6052 11.1501 13.7899 11.416 15.0638 11.6964C16.3328 11.972 17.5224 12.4024 18.6228 12.9729C19.7232 13.5483 20.6353 14.3315 21.354 15.3324C22.0728 16.3332 22.4346 17.7015 22.4346 19.4422C22.4346 21.0329 22.0827 22.377 21.3788 23.4697C20.675 24.5624 19.7629 25.4424 18.6476 26.1096C17.5274 26.7769 16.2634 27.2604 14.8606 27.5553C13.4578 27.8503 12.0501 28.0001 10.6473 28.0001C8.5208 28.0001 6.56781 27.7052 4.78335 27.1105C2.99888 26.5206 1.40278 25.4424 0 23.8904L4.55533 19.7226C5.42773 20.6848 6.36953 21.4729 7.37577 22.0821C8.38201 22.6913 9.60635 23.0007 11.0488 23.0007C11.5395 23.0007 12.055 22.9427 12.5854 22.8363C13.1158 22.7251 13.6115 22.5414 14.0675 22.2803C14.5235 22.0241 14.8953 21.6953 15.1778 21.3085C15.4604 20.9217 15.6041 20.4672 15.6041 19.9498C15.6041 19.0263 15.2423 18.3398 14.5235 17.8949C13.7998 17.4501 12.8927 17.0875 11.7923 16.8119C10.6919 16.5363 9.50721 16.2752 8.2333 16.0335C6.9594 15.7917 5.77471 15.4049 4.67429 14.8682C3.57388 14.3315 2.66182 13.5821 1.94308 12.6199C1.21938 11.6481 0.862489 10.3185 0.862489 8.61171C0.862489 7.13219 1.17477 5.84608 1.80429 4.75336C2.42885 3.66065 3.25664 2.76133 4.2827 2.06025C5.30877 1.35918 6.48354 0.836994 7.81197 0.503378C9.1404 0.169761 10.4887 0.00537109 11.8567 0.00537109C13.6809 0.00537109 15.4802 0.309976 17.2647 0.924024C19.0491 1.53324 20.4916 2.58244 21.592 4.06195L17.0317 8.05568Z" fill="#FFFEFB"></path><path d="M26.3672 14.0028C26.3672 11.8899 26.7538 9.97518 27.532 8.25391C28.3103 6.53265 29.3611 5.05797 30.6945 3.83954C32.0229 2.61628 33.5992 1.67345 35.4184 1.00622C37.2425 0.338987 39.1756 0.00537109 41.2278 0.00537109C43.2799 0.00537109 45.2131 0.338987 47.0372 1.00622C48.8613 1.67345 50.4326 2.61628 51.761 3.83954C53.0895 5.0628 54.1403 6.53265 54.9235 8.25391C55.7017 9.97518 56.0884 11.8899 56.0884 14.0028C56.0884 16.1157 55.6968 18.0303 54.9235 19.7516C54.1453 21.4729 53.0895 22.9475 51.761 24.166C50.4326 25.3892 48.8563 26.3321 47.0372 26.9993C45.2131 27.6665 43.2799 28.0001 41.2278 28.0001C39.1756 28.0001 37.2425 27.6665 35.4184 26.9993C33.5943 26.3321 32.0229 25.3892 30.6945 24.166C29.3661 22.9427 28.3103 21.4729 27.532 19.7516C26.7588 18.0255 26.3672 16.1108 26.3672 14.0028ZM33.2027 14.0028C33.2027 15.0375 33.3811 16.0383 33.743 17.0005C34.1048 17.9626 34.6352 18.8136 35.3391 19.5534C36.0429 20.2931 36.8856 20.8878 37.872 21.3326C38.8584 21.7775 39.9787 21.9999 41.2327 21.9999C42.4868 21.9999 43.6071 21.7775 44.5935 21.3326C45.5799 20.8878 46.4225 20.298 47.1264 19.5534C47.8303 18.8136 48.3607 17.9626 48.7225 17.0005C49.0844 16.0383 49.2628 15.0375 49.2628 14.0028C49.2628 12.9681 49.0844 11.9672 48.7225 11.005C48.3607 10.0429 47.8303 9.19191 47.1264 8.44732C46.4225 7.70756 45.5799 7.11285 44.5935 6.66803C43.6071 6.22321 42.4868 6.0008 41.2327 6.0008C39.9787 6.0008 38.8584 6.22321 37.872 6.66803C36.8856 7.11285 36.038 7.70756 35.3391 8.44732C34.6352 9.18707 34.1048 10.038 33.743 11.005C33.3811 11.9624 33.2027 12.9632 33.2027 14.0028Z" fill="#FFFEFB"></path><path d="M61.1035 14.0028C61.1035 11.8899 61.4901 9.97518 62.2684 8.25391C63.0466 6.53265 64.0974 5.05797 65.4308 3.83954C66.7593 2.61628 68.3355 1.67345 70.1547 1.00622C71.9788 0.338987 73.912 0.00537109 75.9641 0.00537109C78.0162 0.00537109 79.9494 0.338987 81.7735 1.00622C83.5976 1.67345 85.1689 2.61628 86.4974 3.83954C87.8258 5.0628 88.8816 6.53265 89.6598 8.25391C90.4381 9.97518 90.8247 11.8899 90.8247 14.0028C90.8247 16.1157 90.4331 18.0303 89.6598 19.7516C88.8816 21.4729 87.8258 22.9475 86.4974 24.166C85.1689 25.3892 83.5927 26.3321 81.7735 26.9993C79.9494 27.6665 78.0162 28.0001 75.9641 28.0001C73.912 28.0001 71.9788 27.6665 70.1547 26.9993C68.3306 26.3321 66.7593 25.3892 65.4308 24.166C64.1024 22.9427 63.0466 21.4729 62.2684 19.7516C61.4951 18.0255 61.1035 16.1108 61.1035 14.0028ZM67.939 14.0028C67.939 15.0375 68.1174 16.0383 68.4793 17.0005C68.8411 17.9626 69.3715 18.8136 70.0754 19.5534C70.7793 20.2931 71.6219 20.8878 72.6083 21.3326C73.5947 21.7775 74.715 21.9999 75.9691 21.9999C77.2231 21.9999 78.3434 21.7775 79.3298 21.3326C80.3162 20.8878 81.1589 20.298 81.8627 19.5534C82.5666 18.8136 83.097 17.9626 83.4588 17.0005C83.8207 16.0383 83.9991 15.0375 83.9991 14.0028C83.9991 12.9681 83.8207 11.9672 83.4588 11.005C83.097 10.0429 82.5666 9.19191 81.8627 8.44732C81.1589 7.70756 80.3162 7.11285 79.3298 6.66803C78.3434 6.22321 77.2231 6.0008 75.9691 6.0008C74.715 6.0008 73.5947 6.22321 72.6083 6.66803C71.6219 7.11285 70.7743 7.70756 70.0754 8.44732C69.3715 9.18707 68.8411 10.038 68.4793 11.005C68.1174 11.9624 67.939 12.9632 67.939 14.0028Z" fill="#FFFEFB"></path><path d="M97.2052 0.671677H103.699V4.95067H103.813C104.457 3.6162 105.443 2.46063 106.772 1.47912C108.1 0.497615 109.905 0.00927734 112.18 0.00927734C114.004 0.00927734 115.546 0.304214 116.819 0.898921C118.088 1.49363 119.124 2.26723 119.922 3.23424C120.72 4.19641 121.29 5.30846 121.632 6.56557C121.975 7.82267 122.143 9.1378 122.143 10.5109V27.3417H115.308V13.8326C115.308 13.0928 115.268 12.2709 115.194 11.3619C115.119 10.4529 114.916 9.60196 114.594 8.80902C114.272 8.01124 113.766 7.34884 113.087 6.80732C112.403 6.27063 111.471 5.99987 110.296 5.99987C109.156 5.99987 108.199 6.1836 107.421 6.5559C106.643 6.92819 105.999 7.4262 105.483 8.05475C104.973 8.6833 104.601 9.40856 104.373 10.2208C104.145 11.038 104.031 11.8889 104.031 12.7737V27.3271H97.1953V0.671677H97.2052Z" fill="#FFFEFB"></path><path d="M146.971 23.6626H146.802C145.816 25.1808 144.562 26.2832 143.045 26.9649C141.528 27.6515 139.858 27.9948 138.034 27.9948C136.779 27.9948 135.555 27.8304 134.361 27.4968C133.166 27.1631 132.1 26.6651 131.173 25.9979C130.241 25.3307 129.493 24.4991 128.923 23.4982C128.353 22.4974 128.07 21.3321 128.07 19.9976C128.07 18.552 128.338 17.3239 128.868 16.3037C129.399 15.2835 130.113 14.4325 131.005 13.746C131.897 13.0594 132.933 12.5179 134.108 12.1069C135.283 11.7008 136.507 11.3961 137.781 11.1882C139.055 10.9852 140.334 10.8546 141.622 10.8014C142.911 10.7434 144.125 10.7192 145.266 10.7192H146.976V9.99882C146.976 8.33074 146.386 7.08331 145.211 6.25168C144.036 5.42006 142.534 5.00425 140.71 5.00425C139.268 5.00425 137.92 5.25567 136.665 5.75368C135.411 6.25168 134.331 6.92858 133.419 7.77955L129.83 4.27899C131.347 2.7608 133.121 1.66808 135.154 1.00085C137.186 0.333616 139.283 0 141.444 0C143.382 0 145.013 0.212741 146.341 0.638223C147.67 1.0637 148.77 1.61006 149.642 2.2773C150.515 2.94453 151.189 3.7133 151.665 4.5836C152.141 5.4539 152.483 6.33388 152.691 7.22352C152.899 8.11317 153.023 8.9738 153.063 9.80542C153.102 10.637 153.117 11.372 153.117 12.0005V27.3324H146.966V23.6626H146.971ZM146.574 15.3899H145.152C144.2 15.3899 143.139 15.4286 141.964 15.5011C140.79 15.5736 139.679 15.7525 138.633 16.0281C137.587 16.3037 136.705 16.7147 135.986 17.2514C135.263 17.788 134.906 18.5375 134.906 19.4996C134.906 20.1282 135.05 20.6552 135.332 21.0807C135.615 21.5062 135.986 21.8688 136.442 22.1637C136.898 22.4587 137.409 22.6714 137.979 22.802C138.549 22.9325 139.119 22.9954 139.689 22.9954C142.044 22.9954 143.779 22.449 144.899 21.3563C146.019 20.2636 146.579 18.7744 146.579 16.8839V15.3899H146.574Z" fill="#FFFEFB"></path><path d="M157.24 25.8142H156.615V25.4902H158.231V25.8142H157.602V27.4871H157.24V25.8142Z" fill="#FFFEFB"></path><path d="M158.488 25.4954H159.043L159.589 26.8927L160.139 25.4954H160.689V27.4922H160.342V25.8338H160.337L159.718 27.4922H159.465L158.845 25.8338H158.84V27.4922H158.493V25.4954H158.488Z" fill="#FFFEFB"></path></svg> 