<svg xmlns="http://www.w3.org/2000/svg" width="122" height="39" fill="none"><path fill="#FFFEFB" fill-rule="evenodd" d="m120.047 6.392 1.949-.228.004-.021-.448-.05a26 26 0 0 1-.998-.124 56 56 0 0 1-2.196-.367c-.201-.039-.395-.119-.588-.198l-.164-.066c-.59-.232-.891-.713-1.091-1.28-.267-.758-.361-1.55-.455-2.341l-.029-.243L115.86 0c-.062.363-.105.726-.149 1.089l-.017.145-.026.218c-.091.767-.182 1.535-.392 2.281-.093.328-.197.655-.406.932-.345.459-.827.724-1.355.907-.726.25-1.485.335-2.242.418l-.069.008c-.343.038-.687.07-1.031.104l-.472.046a.2.2 0 0 0 .08.026l.54.065q.628.074 1.255.154c.653.087 1.303.188 1.934.39.92.295 1.534.88 1.798 1.82.204.727.313 1.47.387 2.22l.096.985.048.493a.14.14 0 0 0 .029-.076l.1-.78c.074-.588.149-1.177.234-1.764.095-.66.251-1.304.599-1.885.29-.486.687-.84 1.241-1.01.656-.202 1.327-.314 2.005-.394M23.813 18.51h4.671v-3.79h-4.671v-4.443H19.37v4.443h-3.234v3.79h3.234v7.154q0 2.352 1.078 4.116 1.11 1.764 4.508 1.764 1.927 0 3.202-.686v-3.855q-.686.393-1.21.556a3.6 3.6 0 0 1-1.143.163q-1.142 0-1.568-.523-.424-.555-.424-1.568zM1.965 29.91q2.09 1.635 5.651 1.634 3.365 0 5.423-1.437 2.09-1.437 2.09-3.953 0-1.731-.98-2.712a5.4 5.4 0 0 0-2.253-1.404q-1.307-.425-3.398-.817-1.96-.36-2.842-.686-.882-.36-.882-1.143 0-.72.719-1.176.718-.49 1.927-.49 1.307 0 2.09.588.818.555.818 1.535 0 .164-.066.555h4.313q.098-.49.098-.947 0-1.6-.948-2.777-.947-1.176-2.613-1.797-1.634-.653-3.692-.653-3.168 0-5.194 1.47Q.2 17.137.2 19.62q0 1.733.98 2.744a5.7 5.7 0 0 0 2.287 1.405q1.307.424 3.43.85 1.896.326 2.777.686t.882 1.11q0 .72-.816 1.176-.818.458-2.124.458-1.6 0-2.515-.686-.882-.72-.817-1.96H.004q-.098 2.841 1.96 4.508m35.903-15.68q3.66 0 5.587 2.026 1.96 2.025 1.96 5.553v9.245h-3.986v-2.81q-.915 1.602-2.417 2.45-1.47.85-3.463.85-2.613 0-4.149-1.372-1.503-1.372-1.503-3.528 0-2.45 2.026-3.855 2.026-1.437 5.488-1.437 1.862 0 3.56.36-.065-3.725-3.135-3.725-1.11 0-1.764.457-.654.458-.654 1.34 0 .163.066.49H31.04a4.7 4.7 0 0 1-.131-1.144q0-1.503.915-2.613t2.515-1.699 3.528-.588m-1.306 13.95a4.54 4.54 0 0 0 2.744-.883q1.24-.914 1.797-2.417a10.9 10.9 0 0 0-3.267-.49q-1.764 0-2.646.555-.85.524-.85 1.503 0 .85.588 1.307.588.424 1.634.424m24.011-12.545q-1.209-1.405-3.267-1.405-1.568 0-2.744.85-1.175.848-1.83 2.417V14.72h-4.41v16.334h4.41v-8.036q0-2.221.785-3.561.784-1.372 1.993-1.372.816 0 1.274.588.49.555.49 1.503 0 1.273-.948 2.875h4.607a8.3 8.3 0 0 0 .882-3.757q0-2.287-1.242-3.66m12.302-1.405q2.057 0 3.267 1.405 1.24 1.371 1.241 3.659 0 1.992-.882 3.756h-4.606q.948-1.6.947-2.874 0-.948-.49-1.503-.458-.588-1.274-.588-1.209 0-1.993 1.372-.784 1.34-.784 3.56v8.037h-4.41V14.72h4.41v2.777q.654-1.568 1.83-2.418 1.175-.849 2.744-.849m21.906.49h-4.639l-3.56 11.859-3.888-11.859H77.99l6.631 17.216q-1.045 2.32-3.3 2.32-.946 0-2.253-.458v3.757q1.24.49 2.744.49 3.103 0 4.671-1.731t2.352-4.051zm8.296-.49q3.66 0 5.587 2.026 1.96 2.025 1.96 5.553v9.245h-3.986v-2.81q-.915 1.602-2.417 2.45-1.47.85-3.463.85-2.613 0-4.149-1.372-1.503-1.372-1.503-3.528 0-2.45 2.026-3.855 2.025-1.437 5.488-1.437 1.862 0 3.561.36-.066-3.725-3.136-3.725-1.111 0-1.764.457-.654.458-.654 1.34 0 .163.065.49H96.25a4.7 4.7 0 0 1-.131-1.144q0-1.503.915-2.613t2.515-1.699 3.528-.588m-1.306 13.95a4.54 4.54 0 0 0 2.744-.883q1.24-.914 1.796-2.417a10.9 10.9 0 0 0-3.266-.49q-1.764 0-2.647.555-.849.524-.849 1.503 0 .85.588 1.307.588.424 1.634.424m11.924 2.874h4.41V14.72h-4.41z" clip-rule="evenodd"/></svg>