<?xml version="1.0" encoding="UTF-8"?> <svg xmlns="http://www.w3.org/2000/svg" width="640" height="522" viewBox="0 0 640 522" fill="none"><g clip-path="url(#clip0_4125_3561)"><path d="M489.056 48.5226L5.40104 274.577C12.605 288.139 20.8529 301.165 30.585 313.384C42.7449 328.601 56.4789 341.935 71.5977 353.87C101.459 377.425 135.129 393.427 172.149 402.475C193.387 407.757 214.848 410.077 236.602 409.961L445.798 312.187C452.791 303.88 459.32 295.059 465.28 285.85C484.79 255.92 497.676 223.077 503.977 187.778L503.843 187.837C506.052 175.891 507.347 163.867 507.788 151.897C508.549 132.07 506.852 112.282 502.62 92.7261C499.356 77.7607 494.642 62.9512 488.989 48.5519L489.056 48.5226Z" fill="#76B39D"></path><g filter="url(#filter0_d_4125_3561)"><rect x="155.195" y="163.067" width="220.319" height="255.854" rx="2.53824" fill="white"></rect><rect x="156.38" y="164.251" width="217.95" height="253.485" rx="1.35373" stroke="black" stroke-opacity="0.12" stroke-width="2.36902"></rect></g><path d="M197.496 195.556C194.134 195.556 191.404 197.384 191.404 199.618C191.404 201.851 194.134 203.679 197.496 203.679C200.858 203.679 203.588 205.506 203.588 207.74C203.588 209.974 200.858 211.801 197.496 211.801" stroke="#0A91AB" stroke-width="2.53824" stroke-linecap="round" stroke-linejoin="round"></path><path d="M197.496 195.556V211.801" stroke="#0A91AB" stroke-width="2.53824" stroke-linecap="round" stroke-linejoin="round"></path><path d="M197.496 195.556C199.752 195.556 201.715 196.369 202.776 197.587L197.496 195.556Z" stroke="#0A91AB" stroke-width="2.53824" stroke-linecap="round" stroke-linejoin="round"></path><path d="M197.496 195.556V193.526" stroke="#0A91AB" stroke-width="2.53824" stroke-linecap="round" stroke-linejoin="round"></path><path d="M197.496 211.801V213.831" stroke="#0A91AB" stroke-width="2.53824" stroke-linecap="round" stroke-linejoin="round"></path><path d="M197.496 211.801C195.24 211.801 193.277 210.989 192.217 209.771L197.496 211.801Z" stroke="#0A91AB" stroke-width="2.53824" stroke-linecap="round" stroke-linejoin="round"></path><path d="M217.803 203.679C217.803 206.341 217.284 208.981 216.246 211.44C215.231 213.899 213.719 216.133 211.847 218.028C209.952 219.923 207.718 221.413 205.259 222.428C202.799 223.466 200.16 223.985 197.497 223.985C194.835 223.985 192.195 223.466 189.736 222.428C187.277 221.39 185.043 219.901 183.148 218.028C181.253 216.133 179.763 213.899 178.748 211.44C177.71 208.981 177.191 206.341 177.191 203.679C177.191 198.286 179.335 193.12 183.148 189.329C186.938 185.516 192.105 183.373 197.497 183.373C202.89 183.373 208.056 185.516 211.847 189.329C215.66 193.12 217.803 198.286 217.803 203.679Z" stroke="#0A91AB" stroke-width="2.53824" stroke-linecap="round" stroke-linejoin="round"></path><path d="M189.324 268.864L184.371 263.91" stroke="#0A91AB" stroke-width="1.84473" stroke-linecap="round" stroke-linejoin="round"></path><path d="M199.231 258.957L189.324 268.864" stroke="#0A91AB" stroke-width="1.84473" stroke-linecap="round" stroke-linejoin="round"></path><path d="M206.555 263.121C206.555 265.056 206.178 266.975 205.423 268.762C204.685 270.549 203.587 272.173 202.226 273.55C200.848 274.928 199.225 276.01 197.438 276.748C195.65 277.502 193.732 277.879 191.797 277.879C189.862 277.879 187.943 277.502 186.156 276.748C184.369 275.993 182.745 274.911 181.368 273.55C179.991 272.173 178.908 270.549 178.17 268.762C177.416 266.975 177.039 265.056 177.039 263.121C177.039 259.202 178.597 255.447 181.368 252.692C184.123 249.921 187.878 248.364 191.797 248.364C195.716 248.364 199.471 249.921 202.226 252.692C204.997 255.447 206.555 259.202 206.555 263.121Z" stroke="#0A91AB" stroke-width="1.84473" stroke-linecap="round" stroke-linejoin="round"></path><path d="M189.324 308.218L184.371 303.265" stroke="#0A91AB" stroke-width="1.84473" stroke-linecap="round" stroke-linejoin="round"></path><path d="M199.231 298.311L189.324 308.218" stroke="#0A91AB" stroke-width="1.84473" stroke-linecap="round" stroke-linejoin="round"></path><path d="M206.555 302.476C206.555 304.411 206.178 306.329 205.423 308.116C204.685 309.904 203.587 311.527 202.226 312.904C200.848 314.282 199.225 315.364 197.438 316.102C195.65 316.856 193.732 317.233 191.797 317.233C189.862 317.233 187.943 316.856 186.156 316.102C184.369 315.348 182.745 314.265 181.368 312.904C179.991 311.527 178.908 309.904 178.17 308.116C177.416 306.329 177.039 304.411 177.039 302.476C177.039 298.557 178.597 294.802 181.368 292.047C184.123 289.276 187.878 287.718 191.797 287.718C195.716 287.718 199.471 289.276 202.226 292.047C204.997 294.802 206.555 298.557 206.555 302.476Z" stroke="#0A91AB" stroke-width="1.84473" stroke-linecap="round" stroke-linejoin="round"></path><path d="M189.324 347.572L184.371 342.619" stroke="#0A91AB" stroke-width="1.84473" stroke-linecap="round" stroke-linejoin="round"></path><path d="M199.231 337.666L189.324 347.572" stroke="#0A91AB" stroke-width="1.84473" stroke-linecap="round" stroke-linejoin="round"></path><path d="M206.555 341.83C206.555 343.765 206.178 345.684 205.423 347.471C204.685 349.258 203.587 350.882 202.226 352.259C200.848 353.636 199.225 354.719 197.438 355.456C195.65 356.211 193.732 356.588 191.797 356.588C189.862 356.588 187.943 356.211 186.156 355.456C184.369 354.702 182.745 353.62 181.368 352.259C179.991 350.882 178.908 349.258 178.17 347.471C177.416 345.684 177.039 343.765 177.039 341.83C177.039 337.911 178.597 334.156 181.368 331.401C184.123 328.63 187.878 327.072 191.797 327.072C195.716 327.072 199.471 328.63 202.226 331.401C204.997 334.156 206.555 337.911 206.555 341.83Z" stroke="#0A91AB" stroke-width="1.84473" stroke-linecap="round" stroke-linejoin="round"></path><rect x="233.035" y="185.911" width="120.143" height="14.3833" fill="#0A91AB"></rect><rect x="177.193" y="382.201" width="175.984" height="14.3833" fill="#0A91AB"></rect><rect x="216.113" y="255.289" width="115.913" height="5.92255" fill="#0A91AB"></rect><rect x="216.113" y="264.596" width="115.913" height="5.92255" fill="#0A91AB"></rect><rect x="216.113" y="294.209" width="115.913" height="6.76863" fill="#0A91AB"></rect><rect x="216.113" y="303.516" width="115.913" height="5.92255" fill="#0A91AB"></rect><rect x="216.113" y="333.975" width="115.913" height="5.92255" fill="#0A91AB"></rect><rect x="216.113" y="343.281" width="115.913" height="5.92255" fill="#0A91AB"></rect><rect x="233.035" y="206.217" width="69.3785" height="14.3833" fill="#0A91AB"></rect><g filter="url(#filter1_d_4125_3561)"><rect x="385.33" y="163.067" width="220.319" height="255.854" rx="2.53824" fill="white"></rect><rect x="386.515" y="164.251" width="217.95" height="253.485" rx="1.35373" stroke="black" stroke-opacity="0.12" stroke-width="2.36902"></rect></g><path d="M427.635 195.556C424.273 195.556 421.543 197.383 421.543 199.617C421.543 201.85 424.273 203.678 427.635 203.678C430.996 203.678 433.727 205.506 433.727 207.739C433.727 209.973 430.996 211.8 427.635 211.8" stroke="#0A91AB" stroke-width="2.53824" stroke-linecap="round" stroke-linejoin="round"></path><path d="M427.635 195.556V211.8" stroke="#0A91AB" stroke-width="2.53824" stroke-linecap="round" stroke-linejoin="round"></path><path d="M427.635 195.556C429.891 195.556 431.854 196.368 432.914 197.586L427.635 195.556Z" stroke="#0A91AB" stroke-width="2.53824" stroke-linecap="round" stroke-linejoin="round"></path><path d="M427.635 195.556V193.525" stroke="#0A91AB" stroke-width="2.53824" stroke-linecap="round" stroke-linejoin="round"></path><path d="M427.635 211.8V213.831" stroke="#0A91AB" stroke-width="2.53824" stroke-linecap="round" stroke-linejoin="round"></path><path d="M427.635 211.801C425.379 211.801 423.416 210.988 422.355 209.77L427.635 211.801Z" stroke="#0A91AB" stroke-width="2.53824" stroke-linecap="round" stroke-linejoin="round"></path><path d="M447.942 203.678C447.942 206.341 447.423 208.981 446.385 211.44C445.37 213.899 443.858 216.133 441.985 218.028C440.09 219.923 437.857 221.412 435.397 222.428C432.938 223.465 430.298 223.984 427.636 223.984C424.974 223.984 422.334 223.465 419.875 222.428C417.415 221.39 415.182 219.901 413.286 218.028C411.391 216.133 409.902 213.899 408.887 211.44C407.849 208.981 407.33 206.341 407.33 203.678C407.33 198.286 409.473 193.119 413.286 189.329C417.077 185.516 422.244 183.373 427.636 183.373C433.028 183.373 438.195 185.516 441.985 189.329C445.798 193.119 447.942 198.286 447.942 203.678Z" stroke="#0A91AB" stroke-width="2.53824" stroke-linecap="round" stroke-linejoin="round"></path><path d="M419.459 268.864L414.506 263.91" stroke="#0A91AB" stroke-width="1.84473" stroke-linecap="round" stroke-linejoin="round"></path><path d="M429.366 258.957L419.459 268.864" stroke="#0A91AB" stroke-width="1.84473" stroke-linecap="round" stroke-linejoin="round"></path><path d="M436.684 263.121C436.684 265.056 436.306 266.975 435.552 268.762C434.814 270.549 433.716 272.173 432.355 273.55C430.977 274.928 429.354 276.01 427.567 276.748C425.779 277.502 423.861 277.879 421.926 277.879C419.991 277.879 418.072 277.502 416.285 276.748C414.498 275.993 412.874 274.911 411.497 273.55C410.12 272.173 409.037 270.549 408.299 268.762C407.545 266.975 407.168 265.056 407.168 263.121C407.168 259.202 408.726 255.447 411.497 252.692C414.252 249.921 418.007 248.364 421.926 248.364C425.845 248.364 429.6 249.921 432.355 252.692C435.126 255.447 436.684 259.202 436.684 263.121Z" stroke="#0A91AB" stroke-width="1.84473" stroke-linecap="round" stroke-linejoin="round"></path><path d="M419.459 308.218L414.506 303.265" stroke="#0A91AB" stroke-width="1.84473" stroke-linecap="round" stroke-linejoin="round"></path><path d="M429.366 298.311L419.459 308.218" stroke="#0A91AB" stroke-width="1.84473" stroke-linecap="round" stroke-linejoin="round"></path><path d="M436.684 302.476C436.684 304.411 436.306 306.329 435.552 308.116C434.814 309.904 433.716 311.527 432.355 312.904C430.977 314.282 429.354 315.364 427.567 316.102C425.779 316.856 423.861 317.233 421.926 317.233C419.991 317.233 418.072 316.856 416.285 316.102C414.498 315.348 412.874 314.265 411.497 312.904C410.12 311.527 409.037 309.904 408.299 308.116C407.545 306.329 407.168 304.411 407.168 302.476C407.168 298.557 408.726 294.802 411.497 292.047C414.252 289.276 418.007 287.718 421.926 287.718C425.845 287.718 429.6 289.276 432.355 292.047C435.126 294.802 436.684 298.557 436.684 302.476Z" stroke="#0A91AB" stroke-width="1.84473" stroke-linecap="round" stroke-linejoin="round"></path><path d="M419.459 347.572L414.506 342.619" stroke="#0A91AB" stroke-width="1.84473" stroke-linecap="round" stroke-linejoin="round"></path><path d="M429.366 337.665L419.459 347.572" stroke="#0A91AB" stroke-width="1.84473" stroke-linecap="round" stroke-linejoin="round"></path><path d="M436.684 341.83C436.684 343.765 436.306 345.684 435.552 347.471C434.814 349.258 433.716 350.882 432.355 352.259C430.977 353.636 429.354 354.719 427.567 355.456C425.779 356.211 423.861 356.588 421.926 356.588C419.991 356.588 418.072 356.211 416.285 355.456C414.498 354.702 412.874 353.62 411.497 352.259C410.12 350.882 409.037 349.258 408.299 347.471C407.545 345.684 407.168 343.765 407.168 341.83C407.168 337.911 408.726 334.156 411.497 331.401C414.252 328.63 418.007 327.072 421.926 327.072C425.845 327.072 429.6 328.63 432.355 331.401C435.126 334.156 436.684 337.911 436.684 341.83Z" stroke="#0A91AB" stroke-width="1.84473" stroke-linecap="round" stroke-linejoin="round"></path><rect x="463.17" y="185.911" width="120.143" height="14.3833" fill="#0A91AB"></rect><rect x="407.328" y="382.201" width="175.984" height="14.3833" fill="#0A91AB"></rect><rect x="446.248" y="255.289" width="115.913" height="5.92255" fill="#0A91AB"></rect><rect x="446.248" y="264.596" width="115.913" height="5.92255" fill="#0A91AB"></rect><rect x="446.248" y="294.209" width="115.913" height="6.76863" fill="#0A91AB"></rect><rect x="446.248" y="303.516" width="115.913" height="5.92255" fill="#0A91AB"></rect><rect x="446.248" y="333.975" width="115.913" height="5.92255" fill="#0A91AB"></rect><rect x="446.248" y="343.281" width="115.913" height="5.92255" fill="#0A91AB"></rect><rect x="463.17" y="206.217" width="69.3785" height="14.3833" fill="#0A91AB"></rect><path d="M551.162 366.802L639.492 363.615L639.492 307.433C636.721 280.019 621.403 265.196 614.09 261.212L573.677 261.212C557.281 273.962 551.835 297.338 551.162 307.433L551.162 366.802Z" fill="#FF6A39"></path><path d="M620.983 293.374H571.469V342.888H620.983V293.374Z" fill="#FF6A39"></path><path d="M607.745 303.95H585.237C580.739 303.95 578.078 309.005 580.636 312.718C584.494 318.268 588.372 323.797 592.23 329.347V340.033L600.71 342.117V329.347C604.568 323.797 608.446 318.268 612.304 312.718C614.904 309.005 612.263 303.95 607.745 303.95Z" fill="#FF6A39" stroke="#FFFEFB" stroke-width="3.04588" stroke-linecap="round" stroke-linejoin="round"></path><path d="M581.621 278.472V301.823H611.065V278.472H581.621Z" fill="#FF6A39"></path><path d="M590.093 293.374C590.093 291.962 588.948 290.816 587.535 290.816C586.122 290.816 584.977 291.962 584.977 293.374C584.977 294.787 586.122 295.933 587.535 295.933C588.948 295.933 590.093 294.787 590.093 293.374Z" fill="#FF6A39" stroke="#FFFEFB" stroke-width="3.04588" stroke-linecap="round" stroke-linejoin="round"></path><path d="M599.019 293.375C599.019 291.962 597.873 290.817 596.461 290.817C595.048 290.817 593.902 291.962 593.902 293.375C593.902 294.788 595.048 295.933 596.461 295.933C597.873 295.933 599.019 294.788 599.019 293.375Z" fill="#FF6A39" stroke="#FFFEFB" stroke-width="3.04588" stroke-linecap="round" stroke-linejoin="round"></path><path d="M607.948 293.374C607.948 291.961 606.803 290.816 605.39 290.816C603.977 290.816 602.832 291.961 602.832 293.374C602.832 294.787 603.977 295.932 605.39 295.932C606.803 295.932 607.948 294.787 607.948 293.374Z" fill="#FF6A39" stroke="#FFFEFB" stroke-width="3.04588" stroke-linecap="round" stroke-linejoin="round"></path><path d="M101.048 310.115L189.379 306.927L189.379 250.745C186.608 223.331 171.289 208.509 163.977 204.524L123.564 204.524C107.168 217.275 101.722 240.651 101.048 250.745L101.048 310.115Z" fill="#FF6A39"></path><path d="M178.211 227.876H113.232V292.855H178.211V227.876Z" fill="#FF6A39"></path><path d="M159.639 285.274H131.806C128.719 285.274 126.229 282.783 126.229 279.697V240.737C126.229 237.65 128.719 235.159 131.806 235.159H159.639C162.725 235.159 165.216 237.65 165.216 240.737V279.697C165.189 282.783 162.698 285.274 159.639 285.274Z" fill="#FF6A39" stroke="#FFFEFB" stroke-width="3.04588" stroke-linecap="round" stroke-linejoin="round"></path><path d="M134.594 246.449H137.382" stroke="#FFFEFB" stroke-width="3.04588" stroke-linecap="round" stroke-linejoin="round"></path><path d="M145.723 246.449H156.85" stroke="#FFFEFB" stroke-width="3.04588" stroke-linecap="round" stroke-linejoin="round"></path><path d="M134.594 260.366H137.382" stroke="#FFFEFB" stroke-width="3.04588" stroke-linecap="round" stroke-linejoin="round"></path><path d="M145.723 260.365H156.85" stroke="#FFFEFB" stroke-width="3.04588" stroke-linecap="round" stroke-linejoin="round"></path><path d="M134.594 274.282H137.382" stroke="#FFFEFB" stroke-width="3.04588" stroke-linecap="round" stroke-linejoin="round"></path><path d="M145.723 274.282H156.85" stroke="#FFFEFB" stroke-width="3.04588" stroke-linecap="round" stroke-linejoin="round"></path><path d="M270.263 462.409L358.594 459.222L358.594 403.04C355.823 375.626 340.504 360.803 333.191 356.819L292.779 356.819C276.383 369.569 270.937 392.945 270.263 403.04L270.263 462.409Z" fill="#FF6A39"></path><path d="M348.442 380.17H283.463V445.149H348.442V380.17Z" fill="#FF6A39"></path><path d="M313.163 432.126C300.872 432.126 290.908 422.163 290.908 409.871C290.908 397.579 300.872 387.616 313.163 387.616C325.455 387.616 335.419 397.579 335.419 409.871C335.419 422.163 325.455 432.126 313.163 432.126Z" fill="#FF6A39" stroke="#FFFEFB" stroke-width="3.04588" stroke-linecap="round" stroke-linejoin="round"></path><path d="M340.997 437.704L329.869 426.576" stroke="#FFFEFB" stroke-width="3.04588" stroke-linecap="round" stroke-linejoin="round"></path><path d="M307.613 409.871H318.741" stroke="#FFFEFB" stroke-width="3.04588" stroke-linecap="round" stroke-linejoin="round"></path><path d="M313.164 404.321V415.449" stroke="#FFFEFB" stroke-width="3.04588" stroke-linecap="round" stroke-linejoin="round"></path><path d="M344.718 209.432L433.049 206.244L433.049 150.062C430.278 122.648 414.959 107.826 407.647 103.841L367.234 103.841C350.838 116.592 345.392 139.968 344.718 150.062L344.718 209.432Z" fill="#FF6A39"></path><path d="M421.881 127.193H356.902V192.172H421.881V127.193Z" fill="#FF6A39"></path><path d="M407.94 178.635H370.847C367.274 178.635 364.35 175.738 364.35 172.137V147.228C364.35 143.654 367.247 140.73 370.847 140.73H407.94C411.513 140.73 414.437 143.627 414.437 147.228V172.137C414.437 175.738 411.54 178.635 407.94 178.635Z" fill="#FF6A39" stroke="#FFFEFB" stroke-width="3.04588" stroke-linecap="round" stroke-linejoin="round"></path><path d="M411.649 142.815L393.049 161.28C390.964 163.365 387.823 163.365 385.712 161.28L367.111 142.815" fill="#FF6A39"></path><path d="M411.649 142.815L393.049 161.28C390.964 163.365 387.823 163.365 385.712 161.28L367.111 142.815" stroke="#FFFEFB" stroke-width="3.04588" stroke-linecap="round" stroke-linejoin="round"></path><path d="M395.16 159.466L411.649 175.467" stroke="#FFFEFB" stroke-width="3.04588" stroke-linecap="round" stroke-linejoin="round"></path><path d="M367.139 175.467L383.817 159.682" stroke="#FFFEFB" stroke-width="3.04588" stroke-linecap="round" stroke-linejoin="round"></path></g><defs><filter id="filter0_d_4125_3561" x="145.042" y="156.298" width="237.24" height="272.776" filterUnits="userSpaceOnUse" color-interpolation-filters="sRGB"><feFlood flood-opacity="0" result="BackgroundImageFix"></feFlood><feColorMatrix in="SourceAlpha" type="matrix" values="0 0 0 0 0 0 0 0 0 0 0 0 0 0 0 0 0 0 127 0" result="hardAlpha"></feColorMatrix><feOffset dx="-1.69216" dy="1.69216"></feOffset><feGaussianBlur stdDeviation="4.23039"></feGaussianBlur><feComposite in2="hardAlpha" operator="out"></feComposite><feColorMatrix type="matrix" values="0 0 0 0 0.0470588 0 0 0 0 0.133333 0 0 0 0 0.2 0 0 0 0.2 0"></feColorMatrix><feBlend mode="normal" in2="BackgroundImageFix" result="effect1_dropShadow_4125_3561"></feBlend><feBlend mode="normal" in="SourceGraphic" in2="effect1_dropShadow_4125_3561" result="shape"></feBlend></filter><filter id="filter1_d_4125_3561" x="375.177" y="156.298" width="237.24" height="272.776" filterUnits="userSpaceOnUse" color-interpolation-filters="sRGB"><feFlood flood-opacity="0" result="BackgroundImageFix"></feFlood><feColorMatrix in="SourceAlpha" type="matrix" values="0 0 0 0 0 0 0 0 0 0 0 0 0 0 0 0 0 0 127 0" result="hardAlpha"></feColorMatrix><feOffset dx="-1.69216" dy="1.69216"></feOffset><feGaussianBlur stdDeviation="4.23039"></feGaussianBlur><feComposite in2="hardAlpha" operator="out"></feComposite><feColorMatrix type="matrix" values="0 0 0 0 0.0470588 0 0 0 0 0.133333 0 0 0 0 0.2 0 0 0 0.2 0"></feColorMatrix><feBlend mode="normal" in2="BackgroundImageFix" result="effect1_dropShadow_4125_3561"></feBlend><feBlend mode="normal" in="SourceGraphic" in2="effect1_dropShadow_4125_3561" result="shape"></feBlend></filter><clipPath id="clip0_4125_3561"><rect width="640" height="522" fill="white"></rect></clipPath></defs></svg> 