<?xml version="1.0" encoding="UTF-8"?> <svg xmlns="http://www.w3.org/2000/svg" width="182" height="32" viewBox="0 0 182 32" fill="none"><path fill-rule="evenodd" clip-rule="evenodd" d="M14.2691 3.70784C14.6091 3.06784 15.2745 2.6665 15.9998 2.6665C16.7251 2.6665 17.3905 3.06784 17.7305 3.70784L21.0145 9.90117C21.0518 9.97317 21.1065 10.0345 21.1718 10.0825C21.2371 10.1305 21.3131 10.1625 21.3931 10.1758L28.2971 11.3852C29.0118 11.5105 29.5971 12.0198 29.8225 12.7092C30.0465 13.3985 29.8718 14.1558 29.3665 14.6772L24.4918 19.7145C24.4358 19.7732 24.3931 19.8438 24.3678 19.9198C24.3425 19.9972 24.3358 20.0785 24.3465 20.1598L25.3291 27.0998C25.4305 27.8172 25.1278 28.5332 24.5411 28.9598C23.9545 29.3865 23.1811 29.4532 22.5291 29.1345L16.2331 26.0545C16.1611 26.0185 16.0811 25.9998 15.9998 25.9998C15.9185 25.9998 15.8385 26.0185 15.7651 26.0532L9.46913 29.1332C8.81713 29.4518 8.0438 29.3838 7.45713 28.9585C6.87047 28.5318 6.5678 27.8172 6.66913 27.0985L7.6518 20.1585C7.6638 20.0785 7.6558 19.9958 7.63047 19.9185C7.60513 19.8412 7.5638 19.7705 7.50647 19.7132L2.6318 14.6758C2.1278 14.1545 1.9518 13.3972 2.1758 12.7078C2.3998 12.0185 2.98647 11.5092 3.70113 11.3838L10.6051 10.1745C10.6851 10.1598 10.7611 10.1278 10.8265 10.0812C10.8918 10.0332 10.9465 9.97184 10.9838 9.89984L14.2691 3.70784Z" fill="#76B39D"></path><path fill-rule="evenodd" clip-rule="evenodd" d="M51.6031 3.70784C51.9431 3.06784 52.6085 2.6665 53.3338 2.6665C54.0591 2.6665 54.7245 3.06784 55.0645 3.70784L58.3485 9.90117C58.3858 9.97317 58.4405 10.0345 58.5058 10.0825C58.5711 10.1305 58.6471 10.1625 58.7271 10.1758L65.6311 11.3852C66.3458 11.5105 66.9311 12.0198 67.1565 12.7092C67.3805 13.3985 67.2058 14.1558 66.7005 14.6772L61.8258 19.7145C61.7698 19.7732 61.7271 19.8438 61.7018 19.9198C61.6765 19.9972 61.6698 20.0785 61.6805 20.1598L62.6631 27.0998C62.7645 27.8172 62.4618 28.5332 61.8751 28.9598C61.2885 29.3865 60.5151 29.4532 59.8631 29.1345L53.5671 26.0545C53.4951 26.0185 53.4151 25.9998 53.3338 25.9998C53.2525 25.9998 53.1725 26.0185 53.0991 26.0532L46.8031 29.1332C46.1511 29.4518 45.3778 29.3838 44.7911 28.9585C44.2045 28.5318 43.9018 27.8172 44.0031 27.0985L44.9858 20.1585C44.9978 20.0785 44.9898 19.9958 44.9645 19.9185C44.9391 19.8412 44.8978 19.7705 44.8405 19.7132L39.9658 14.6758C39.4618 14.1545 39.2858 13.3972 39.5098 12.7078C39.7338 12.0185 40.3205 11.5092 41.0351 11.3838L47.9391 10.1745C48.0191 10.1598 48.0951 10.1278 48.1605 10.0812C48.2258 10.0332 48.2805 9.97184 48.3178 9.89984L51.6031 3.70784Z" fill="#76B39D"></path><path fill-rule="evenodd" clip-rule="evenodd" d="M88.9351 3.70784C89.2751 3.06784 89.9405 2.6665 90.6658 2.6665C91.3911 2.6665 92.0565 3.06784 92.3965 3.70784L95.6805 9.90117C95.7178 9.97317 95.7725 10.0345 95.8378 10.0825C95.9031 10.1305 95.9791 10.1625 96.0591 10.1758L102.963 11.3852C103.678 11.5105 104.263 12.0198 104.488 12.7092C104.712 13.3985 104.538 14.1558 104.032 14.6772L99.1578 19.7145C99.1018 19.7732 99.0591 19.8438 99.0338 19.9198C99.0085 19.9972 99.0018 20.0785 99.0125 20.1598L99.9951 27.0998C100.096 27.8172 99.7938 28.5332 99.2071 28.9598C98.6205 29.3865 97.8471 29.4532 97.1951 29.1345L90.8991 26.0545C90.8272 26.0185 90.7471 25.9998 90.6658 25.9998C90.5845 25.9998 90.5045 26.0185 90.4312 26.0532L84.1352 29.1332C83.4832 29.4518 82.7098 29.3838 82.1232 28.9585C81.5365 28.5318 81.2338 27.8172 81.3352 27.0985L82.3178 20.1585C82.3298 20.0785 82.3218 19.9958 82.2965 19.9185C82.2712 19.8412 82.2298 19.7705 82.1725 19.7132L77.2978 14.6758C76.7938 14.1545 76.6178 13.3972 76.8418 12.7078C77.0658 12.0185 77.6525 11.5092 78.3672 11.3838L85.2711 10.1745C85.3512 10.1598 85.4271 10.1278 85.4925 10.0812C85.5578 10.0332 85.6125 9.97184 85.6498 9.89984L88.9351 3.70784Z" fill="#76B39D"></path><path fill-rule="evenodd" clip-rule="evenodd" d="M126.269 3.70784C126.609 3.06784 127.274 2.6665 128 2.6665C128.725 2.6665 129.39 3.06784 129.73 3.70784L133.014 9.90117C133.052 9.97317 133.106 10.0345 133.172 10.0825C133.237 10.1305 133.313 10.1625 133.393 10.1758L140.297 11.3852C141.012 11.5105 141.597 12.0198 141.822 12.7092C142.046 13.3985 141.872 14.1558 141.366 14.6772L136.492 19.7145C136.436 19.7732 136.393 19.8438 136.368 19.9198C136.342 19.9972 136.336 20.0785 136.346 20.1598L137.329 27.0998C137.43 27.8172 137.128 28.5332 136.541 28.9598C135.954 29.3865 135.181 29.4532 134.529 29.1345L128.233 26.0545C128.161 26.0185 128.081 25.9998 128 25.9998C127.918 25.9998 127.838 26.0185 127.765 26.0532L121.469 29.1332C120.817 29.4518 120.044 29.3838 119.457 28.9585C118.87 28.5318 118.568 27.8172 118.669 27.0985L119.652 20.1585C119.664 20.0785 119.656 19.9958 119.63 19.9185C119.605 19.8412 119.564 19.7705 119.506 19.7132L114.632 14.6758C114.128 14.1545 113.952 13.3972 114.176 12.7078C114.4 12.0185 114.986 11.5092 115.701 11.3838L122.605 10.1745C122.685 10.1598 122.761 10.1278 122.826 10.0812C122.892 10.0332 122.946 9.97184 122.984 9.89984L126.269 3.70784Z" fill="#76B39D"></path><path fill-rule="evenodd" clip-rule="evenodd" d="M163.603 3.70784C163.943 3.06784 164.608 2.6665 165.334 2.6665C166.059 2.6665 166.724 3.06784 167.064 3.70784L170.348 9.90117C170.386 9.97317 170.44 10.0345 170.506 10.0825C170.571 10.1305 170.647 10.1625 170.727 10.1758L177.631 11.3852C178.346 11.5105 178.931 12.0198 179.156 12.7092C179.38 13.3985 179.206 14.1558 178.7 14.6772L173.826 19.7145C173.77 19.7732 173.727 19.8438 173.702 19.9198C173.676 19.9972 173.67 20.0785 173.68 20.1598L174.663 27.0998C174.764 27.8172 174.462 28.5332 173.875 28.9598C173.288 29.3865 172.515 29.4532 171.863 29.1345L165.567 26.0545C165.495 26.0185 165.415 25.9998 165.334 25.9998C165.252 25.9998 165.172 26.0185 165.099 26.0532L158.803 29.1332C158.151 29.4518 157.378 29.3838 156.791 28.9585C156.204 28.5318 155.902 27.8172 156.003 27.0985L156.986 20.1585C156.998 20.0785 156.99 19.9958 156.964 19.9185C156.939 19.8412 156.898 19.7705 156.84 19.7132L151.966 14.6758C151.462 14.1545 151.286 13.3972 151.51 12.7078C151.734 12.0185 152.32 11.5092 153.035 11.3838L159.939 10.1745C160.019 10.1598 160.095 10.1278 160.16 10.0812C160.226 10.0332 160.28 9.97184 160.318 9.89984L163.603 3.70784Z" fill="#76B39D"></path></svg> 