<svg xmlns="http://www.w3.org/2000/svg" width="182" height="32" fill="none"><path fill="#76B39D" fill-rule="evenodd" d="M14.27 3.708a1.96 1.96 0 0 1 3.46 0L21.016 9.9a.53.53 0 0 0 .378.275l6.904 1.21a1.958 1.958 0 0 1 1.07 3.292l-4.875 5.037a.541.541 0 0 0-.145.445l.982 6.94a1.96 1.96 0 0 1-2.8 2.034l-6.296-3.08a.52.52 0 0 0-.468 0l-6.296 3.08a1.96 1.96 0 0 1-2.8-2.035l.983-6.94a.52.52 0 0 0-.146-.446l-4.874-5.037a1.96 1.96 0 0 1 1.07-3.292l6.903-1.21a.528.528 0 0 0 .379-.275zM51.603 3.708a1.96 1.96 0 0 1 3.462 0L58.349 9.9a.53.53 0 0 0 .378.275l6.904 1.21a1.958 1.958 0 0 1 1.07 3.292l-4.875 5.037a.541.541 0 0 0-.145.445l.982 6.94a1.96 1.96 0 0 1-2.8 2.034l-6.296-3.08a.52.52 0 0 0-.468 0l-6.296 3.08a1.96 1.96 0 0 1-2.8-2.035l.983-6.94a.53.53 0 0 0-.145-.446l-4.875-5.037a1.96 1.96 0 0 1 1.07-3.292l6.903-1.21a.528.528 0 0 0 .379-.275zM88.935 3.708a1.96 1.96 0 0 1 3.462 0L95.68 9.9a.53.53 0 0 0 .38.275l6.903 1.21a1.96 1.96 0 0 1 1.069 3.291l-4.874 5.038a.541.541 0 0 0-.145.445l.982 6.94a1.957 1.957 0 0 1-2.8 2.035l-6.296-3.08a.52.52 0 0 0-.468-.002l-6.296 3.08a1.96 1.96 0 0 1-2.8-2.034l.983-6.94a.53.53 0 0 0-.145-.446l-4.875-5.037a1.96 1.96 0 0 1 1.07-3.292l6.903-1.21a.528.528 0 0 0 .379-.275zM126.269 3.708a1.96 1.96 0 0 1 3.461 0l3.284 6.193a.53.53 0 0 0 .379.275l6.904 1.21a1.96 1.96 0 0 1 1.069 3.291l-4.874 5.038a.55.55 0 0 0-.146.445l.983 6.94a1.957 1.957 0 0 1-2.8 2.035l-6.296-3.08a.52.52 0 0 0-.468-.002l-6.296 3.08a1.96 1.96 0 0 1-2.8-2.034l.983-6.94a.5.5 0 0 0-.022-.24.5.5 0 0 0-.124-.206l-4.874-5.037a1.96 1.96 0 0 1 1.069-3.292l6.904-1.21a.53.53 0 0 0 .379-.275zM163.603 3.708a1.96 1.96 0 0 1 3.461 0l3.284 6.193a.53.53 0 0 0 .379.275l6.904 1.21a1.96 1.96 0 0 1 1.069 3.291l-4.874 5.038a.55.55 0 0 0-.146.445l.983 6.94a1.957 1.957 0 0 1-2.8 2.035l-6.296-3.08a.52.52 0 0 0-.468-.002l-6.296 3.08a1.96 1.96 0 0 1-2.8-2.034l.983-6.94a.5.5 0 0 0-.022-.24.5.5 0 0 0-.124-.206l-4.874-5.037a1.96 1.96 0 0 1 1.069-3.292l6.904-1.21a.53.53 0 0 0 .379-.275z" clip-rule="evenodd"/></svg>