<?xml version="1.0" encoding="UTF-8"?> <svg xmlns="http://www.w3.org/2000/svg" id="Layer_1" data-name="Layer 1" version="1.1" viewBox="0 0 64 64"><defs><style> .cls-1 { stroke-width: 0px; } .cls-1, .cls-2 { fill: none; } .cls-2 { stroke: #0c2233; stroke-linecap: round; stroke-linejoin: round; stroke-width: 3px; } </style></defs><path class="cls-1" d="M32,53.6c11.9,0,21.6-9.7,21.6-21.6s-9.7-21.6-21.6-21.6-21.6,9.7-21.6,21.6,9.7,21.6,21.6,21.6Z"></path><path class="cls-2" d="M32,53.6c11.9,0,21.6-9.7,21.6-21.6s-9.7-21.6-21.6-21.6-21.6,9.7-21.6,21.6,9.7,21.6,21.6,21.6Z"></path><path class="cls-2" d="M50.5,32h6.2"></path><path class="cls-2" d="M13.5,32h-6.2"></path><path class="cls-2" d="M32,13.5v-6.2"></path><path class="cls-2" d="M32,50.5v6.2"></path><path class="cls-1" d="M32,38.2c3.4,0,6.2-2.8,6.2-6.2s-2.8-6.2-6.2-6.2-6.2,2.8-6.2,6.2,2.8,6.2,6.2,6.2Z"></path><path class="cls-2" d="M32,38.2c3.4,0,6.2-2.8,6.2-6.2s-2.8-6.2-6.2-6.2-6.2,2.8-6.2,6.2,2.8,6.2,6.2,6.2Z"></path><metadata></metadata></svg> 