<svg xmlns="http://www.w3.org/2000/svg" width="200" height="32" fill="none"><path fill="#FFFEFB" d="M9.075 0v9.339h6.76v3.718h-6.76V24.21c0 2.39 1.316 3.718 3.54 3.718h3.22v3.718h-3.584c-4.628 0-7.577-2.744-7.577-7.303V13.057H0V9.339h4.674V0zM39.113 24.387C38.296 28.99 34.167 32 28.54 32c-7.079 0-11.48-5.444-11.48-11.64 0-6.241 3.992-11.375 11.026-11.375 7.078 0 10.844 4.913 10.844 10.578 0 .575-.045 1.283-.09 1.682H21.37c.363 4.204 3.177 7.081 7.17 7.081 3.357 0 5.535-1.416 6.17-3.939zm-17.606-6.285h12.978c-.273-3.408-2.632-5.665-6.398-5.665-3.585 0-5.899 1.947-6.58 5.665M61.347 17.261v14.385h-4.402v-3.63C55.856 30.407 52.952 32 49.504 32c-4.674 0-7.76-2.744-7.76-6.728 0-4.293 3.495-6.948 8.894-6.948h4.765c1.043 0 1.542-.532 1.542-1.328 0-2.7-1.996-4.56-5.535-4.56-3.177 0-5.49 1.948-5.627 4.206h-4.084c.363-4.382 4.447-7.657 9.847-7.657 5.898 0 9.8 3.32 9.8 8.276m-4.402 4.603v-.53h-5.898c-2.995 0-4.946 1.504-4.946 3.85 0 2.036 1.724 3.408 4.265 3.408 4.175 0 6.58-2.611 6.58-6.728M64.434 20.492c0-6.152 4.129-11.507 11.343-11.507 5.355 0 9.983 3.098 10.618 8.143h-4.401c-.409-2.522-3.04-4.381-6.126-4.381-4.583 0-6.85 3.452-6.85 7.745s2.315 7.746 6.85 7.746c3.131 0 5.445-1.594 6.171-4.116h4.356C85.669 28.813 81.585 32 75.777 32c-7.214 0-11.343-5.356-11.343-11.508M89.203 0h4.401v13.278c1.228-2.788 3.95-4.293 7.353-4.293 5.173 0 8.531 3.63 8.531 8.94v13.721h-4.401v-12.88c0-3.54-2.133-5.93-5.355-5.93-3.584 0-6.125 2.832-6.125 6.727v12.083h-4.402zM140.665 17.261v14.385h-4.401v-3.63c-1.089 2.39-3.993 3.984-7.442 3.984-4.674 0-7.759-2.744-7.759-6.728 0-4.293 3.494-6.948 8.893-6.948h4.765c1.044 0 1.543-.532 1.543-1.328 0-2.7-1.997-4.56-5.536-4.56-3.176 0-5.491 1.948-5.627 4.206h-4.083c.362-4.382 4.446-7.657 9.846-7.657 5.896 0 9.801 3.32 9.801 8.276m-4.401 4.603v-.53h-5.899c-2.995 0-4.946 1.504-4.946 3.85 0 2.036 1.724 3.408 4.265 3.408 4.175 0 6.577-2.611 6.577-6.728zM149.009 28.327v3.319h-4.402V0h4.402v12.614c1.316-2.169 4.083-3.63 7.214-3.63 6.988 0 10.936 4.87 10.936 11.509 0 6.638-3.948 11.507-10.981 11.507-3.038 0-5.853-1.46-7.169-3.674m13.703-7.835c0-4.647-2.813-7.745-7.033-7.745-4.265 0-7.033 3.098-7.033 7.746 0 4.647 2.768 7.745 7.033 7.745 4.22 0 7.033-3.098 7.033-7.745M170.156 0h4.402v31.646h-4.402zM199.736 24.387C198.919 28.99 194.79 32 189.165 32c-7.078 0-11.479-5.444-11.479-11.64 0-6.241 3.992-11.375 11.026-11.375 7.076 0 10.842 4.913 10.842 10.578 0 .575-.045 1.283-.091 1.682h-17.469c.363 4.204 3.176 7.081 7.169 7.081 3.356 0 5.534-1.416 6.169-3.939zm-17.604-6.285h12.98c-.27-3.408-2.632-5.665-6.396-5.665-3.587 0-5.903 1.947-6.584 5.665M117.656 11.828v4.825h-4.855v-4.825zm0 15.049v4.769h-4.855v-4.78z"/></svg>