<?xml version="1.0" encoding="UTF-8"?> <svg xmlns="http://www.w3.org/2000/svg" width="200" height="32" viewBox="0 0 200 32" fill="none"><path d="M9.07502 0V9.33888H15.8359V13.0567H9.07502V24.2102C9.07502 26.6004 10.3909 27.9281 12.6143 27.9281H15.8359V31.646H12.2513C7.62301 31.646 4.67364 28.9019 4.67364 24.3431V13.0567H0V9.33888H4.67364V0H9.07502Z" fill="#FFFEFB"></path><path d="M39.1129 24.3871C38.2962 28.9901 34.167 31.9998 28.5405 31.9998C21.462 31.9998 17.0605 26.5559 17.0605 20.3594C17.0605 14.1188 21.0535 8.98462 28.0867 8.98462C35.1653 8.98462 38.9314 13.8975 38.9314 19.5627C38.9314 20.1383 38.886 20.8463 38.8407 21.2447H21.3711C21.7342 25.4495 24.5475 28.3263 28.5405 28.3263C31.8982 28.3263 34.0762 26.9099 34.7115 24.3871H39.1129ZM21.5073 18.1022H34.4846C34.2124 14.6942 31.8529 12.4369 28.0867 12.4369C24.502 12.4369 22.188 14.3844 21.5073 18.1022Z" fill="#FFFEFB"></path><path d="M61.3467 17.2613V31.6458H56.9453V28.0166C55.8564 30.4065 52.9524 31.9998 49.5037 31.9998C44.8301 31.9998 41.7448 29.2559 41.7448 25.2724C41.7448 20.9791 45.2386 18.3235 50.6382 18.3235H55.4026C56.4462 18.3235 56.9453 17.7924 56.9453 16.9957C56.9453 14.2958 54.9488 12.4369 51.4096 12.4369C48.2334 12.4369 45.9193 14.3844 45.783 16.6416H41.6992C42.0623 12.2599 46.146 8.98462 51.5456 8.98462C57.4445 8.98462 61.3467 12.3041 61.3467 17.2613ZM56.9453 21.8643V21.3331H51.0465C48.0518 21.3331 46.1006 22.838 46.1006 25.1837C46.1006 27.2197 47.8249 28.5919 50.366 28.5919C54.5405 28.5919 56.9453 25.9806 56.9453 21.8643Z" fill="#FFFEFB"></path><path d="M64.4336 20.4923C64.4336 14.3401 68.5626 8.98462 75.7772 8.98462C81.1316 8.98462 85.7599 12.0828 86.395 17.1285H81.9937C81.5854 14.6057 78.9535 12.7467 75.8681 12.7467C71.2852 12.7467 69.0188 16.199 69.0188 20.4923C69.0188 24.7855 71.3327 28.2379 75.8681 28.2379C78.999 28.2379 81.3131 26.6444 82.039 24.1215H86.395C85.669 28.8132 81.5854 31.9998 75.7772 31.9998C68.5626 31.9998 64.4336 26.6444 64.4336 20.4923Z" fill="#FFFEFB"></path><path d="M89.2031 0H93.6045V13.278C94.8319 10.4897 97.5543 8.9848 100.957 8.9848C106.13 8.9848 109.488 12.6141 109.488 17.9253V31.646H105.087V18.7663C105.087 15.2255 102.954 12.8354 99.7324 12.8354C96.1478 12.8354 93.6067 15.6681 93.6067 19.5629V31.646H89.2053L89.2031 0Z" fill="#FFFEFB"></path><path d="M140.665 17.2613V31.6458H136.264V28.0166C135.175 30.4065 132.271 31.9998 128.822 31.9998C124.148 31.9998 121.063 29.2559 121.063 25.2724C121.063 20.9791 124.557 18.3235 129.956 18.3235H134.721C135.765 18.3235 136.264 17.7924 136.264 16.9957C136.264 14.2958 134.267 12.4369 130.728 12.4369C127.552 12.4369 125.237 14.3844 125.101 16.6416H121.018C121.38 12.2599 125.464 8.98462 130.864 8.98462C136.76 8.98462 140.665 12.3041 140.665 17.2613ZM136.264 21.8643V21.3331H130.365C127.37 21.3331 125.419 22.838 125.419 25.1837C125.419 27.2197 127.143 28.5919 129.684 28.5919C133.859 28.5919 136.261 25.9806 136.261 21.8643H136.264Z" fill="#FFFEFB"></path><path d="M149.009 28.3265V31.646H144.607V0H149.009V12.6141C150.325 10.4454 153.092 8.9848 156.223 8.9848C163.211 8.9848 167.159 13.8534 167.159 20.4925C167.159 27.1314 163.211 32 156.178 32C153.14 32 150.325 30.5394 149.009 28.3265ZM162.712 20.4925C162.712 15.8451 159.899 12.7469 155.679 12.7469C151.414 12.7469 148.646 15.8451 148.646 20.4925C148.646 25.1397 151.414 28.2379 155.679 28.2379C159.899 28.2379 162.712 25.1397 162.712 20.4925Z" fill="#FFFEFB"></path><path d="M170.156 0H174.558V31.646H170.156V0Z" fill="#FFFEFB"></path><path d="M199.736 24.3871C198.919 28.9901 194.79 31.9998 189.165 31.9998C182.087 31.9998 177.686 26.5559 177.686 20.3594C177.686 14.1188 181.678 8.98462 188.712 8.98462C195.788 8.98462 199.554 13.8975 199.554 19.5627C199.554 20.1383 199.509 20.8463 199.463 21.2447H181.994C182.357 25.4495 185.17 28.3263 189.163 28.3263C192.519 28.3263 194.697 26.9099 195.332 24.3871H199.736ZM182.132 18.1022H195.112C194.842 14.6942 192.48 12.4369 188.716 12.4369C185.129 12.4369 182.813 14.3844 182.132 18.1022Z" fill="#FFFEFB"></path><path d="M117.656 11.8284V16.6527H112.801V11.8284H117.656ZM117.656 26.8769V31.6459H112.801V26.8658L117.656 26.8769Z" fill="#FFFEFB"></path></svg> 