<?xml version="1.0" encoding="utf-8"?>
<!-- Generator: Adobe Illustrator 28.0.0, SVG Export Plug-In . SVG Version: 6.00 Build 0)  -->
<svg version="1.1" id="Layer_1" xmlns="http://www.w3.org/2000/svg" xmlns:xlink="http://www.w3.org/1999/xlink" x="0px" y="0px"
	 viewBox="0 0 1440 753" style="enable-background:new 0 0 1440 753;" xml:space="preserve">
<style type="text/css">
	.st0{clip-path:url(#SVGID_00000046298725170246005380000017004704699597540283_);}
	.st1{fill:#0C2233;}
	.st2{fill:none;stroke:#CEFD94;stroke-width:1.7949;stroke-linecap:round;stroke-linejoin:round;}
	.st3{fill:none;stroke:#0A91AB;stroke-width:0.8974;stroke-linecap:round;stroke-linejoin:round;}
	.st4{fill:none;stroke:#FF6A39;stroke-width:8.9744;stroke-linecap:round;stroke-linejoin:round;}
	.st5{fill:none;stroke:#FF6A39;stroke-width:4.4872;stroke-linecap:round;stroke-linejoin:round;}
	.st6{fill:none;stroke:#CEFD94;stroke-width:3.5897;stroke-linecap:round;stroke-linejoin:round;}
	.st7{fill:none;stroke:#CEFD94;stroke-width:2.2436;stroke-linecap:round;stroke-linejoin:round;}
</style>
<g>
	<defs>
		<path id="SVGID_1_" d="M0,0.1h1440v752H0V0.1z"/>
	</defs>
	<clipPath id="SVGID_00000134221224493666726670000018288071607759165077_">
		<use xlink:href="#SVGID_1_"  style="overflow:visible;"/>
	</clipPath>
	<g style="clip-path:url(#SVGID_00000134221224493666726670000018288071607759165077_);">
		<path class="st1" d="M0,0.1h1440v752H0V0.1z"/>
		<path class="st1" d="M0,0.1h1440v752H0V0.1z"/>
		<path class="st2" d="M1479.2,51.3c-8,3.3-14.6,8.8-21.9,13.1c-29.7,17.3-56.4,38.7-82.3,61.1c-14,12.1-27.1,25.2-38.4,39.9
			c-11.1,14.4-24.7,25-41.3,32.5c-15.6,7.1-27.3,18.7-34.1,35.1c-3.7,8.9-9.9,15.9-18.3,21.5c-10.6,7-18.8,16.4-24.2,28.2
			c-2.3,5.2,0,8.6,2.8,11.7c4.8,5.4,10.2,10.3,15.5,15.4c2.7,2.6,4.9,5.7,7.5,8.5c4.9,5.4,10.7,8.7,18.2,6.8c6.3-1.7,11.1,1.3,13,6
			c8.4,20.6,21.2,39.3,26.6,61.3c3.5,14.3,5.7,28.6,4,43.2c-0.7,6.4-1,12.8-2.6,19.1c-1.4,5.6,0.3,11.4,1,17.1
			c1.3,10.9,3.2,21.6,8.8,31.3c2,3.4,3.8,6.9,6.6,9.7c2.9,2.9,4.4,6.6,5.3,10.3c5.1,21.2,14.3,40.4,26.7,58.2
			c9.1,13,18.8,25.6,31.6,35.3c12.4,9.4,26.4,13.8,42.1,12.4c0.3,0,0.6,0,0.9,0.1c11.1,1.8,22.3,0.3,33.5,1.2
			c13.3,1.1,24.2,6.9,33.9,15.4c3.7,3.3,7.5,6.7,9.5,11.5"/>
		<path class="st3" d="M1546.7,57.8c-23,7.1-45.3,15.4-66.2,27.5c-25.3,14.6-48.8,31.6-70.6,50.8c-27,23.8-50.8,50.5-70.1,81
			c-9,14.3-19,27.9-29.1,41.5c-7.5,10-9.8,21.8-9.2,34.5c0.6,13.2,5.6,25.3,8.1,38c3.1,16.3,5.8,32.6,7.8,49
			c1.4,11.9,2.3,23.9,3.5,35.8c0.6,6.2,2.1,12.6,0.2,18.8c-2,6.4-3.2,12.8-3.6,19.5c-1.2,15.9,2.4,30.7,10.9,44.3
			c4.8,7.7,12,13.8,15.8,22.2c6,13.5,14.1,25.6,23.7,36.8c13.9,16.3,31,28,50.9,35.7c11.2,4.4,22.7,7.4,34.5,9.9
			c17.2,3.6,33.4,10.3,49.4,17.6c1.3,0.6,3,0.8,4,2.1"/>
		<path class="st4" d="M1558.3,86.1c-15.5,5.5-31.3,10.3-46.3,17.1c-15.6,7.1-30.5,15.3-44.5,25.5c-13.3,9.7-25.5,20.7-37.8,31.6
			c-21.8,19.3-40.4,41.3-56.2,65.8c-8.8,13.7-18.6,27-24.8,42.2c-4.8,12-8,24.3-7.9,37.4c0.1,12.2,0,24.5-1.5,36.7
			c-1.3,11-0.7,22-0.7,33.1c0,7-0.2,14.1,0.1,21.1c0.4,7.7,0.6,15.6,2.2,23.2c1.3,6.2,0.2,12.3-1,18.3c-3.5,17.9,0.5,34.1,10.7,48.8
			c6.2,8.9,13.1,17.2,18.6,26.6c9.5,16.2,23.9,27.5,40.1,36.6c23.7,13.4,48.9,23.4,74.7,32.1c8.5,2.9,16.9,5.9,25.4,8.9"/>
		<path class="st5" d="M1554.4,130.8c-11.5,3.1-22.2,8.4-32.6,14c-16.1,8.6-31.3,18.8-45.4,30.5c-14.5,12-29.5,23.4-42.3,37.3
			c-20.2,21.9-35.9,46.4-45.4,74.8c-3.4,10.2-6,20.5-8.7,30.9c-4.8,19-6.5,38.3-8,57.7c-0.8,10-0.6,20.2-0.2,30.3
			c0.7,17.9,1.8,35.7,8.1,52.8c9.1,24.7,25.3,43.2,48,56.1c18.4,10.5,37.9,18.8,57.9,25.7c7.4,2.6,15,5,22.9,6.1
			c1.8,0.3,3.4,1.7,5.4,1.4"/>
		<path class="st6" d="M1552,150.8c-22.8,9.6-43.7,22.2-62.7,38.1c-11.8,9.8-24,19.2-35,29.9c-14.5,14.1-26.1,30.4-35.1,48.5
			c-7.8,15.5-14,31.5-18.7,48.3c-3.9,14-6.9,28.1-8.5,42.5c-1.5,13.2-2.8,26.4-3,39.7c-0.2,24.1,2.6,47.5,15.4,68.7
			c8,13.2,18.7,23.6,31.4,32c16.2,10.7,33.6,19,52,25.1c9,3,18.3,5.6,27.9,6.6"/>
		<path class="st7" d="M1548.4,188.2c-12.7,5.9-24.1,14-35.3,22.3c-16.7,12.3-31.7,26.4-44.6,42.7c-15.7,19.8-27.7,41.7-35,66.1
			c-5.5,18.2-9.6,36.7-10.7,55.6c-1.6,27,1.6,53.3,16.3,77.1c9.2,14.8,21.8,25.6,37.4,33c13.3,6.3,26.9,12.2,41.2,16.1
			c0.4,0.1,1,0.7,0.8,1.4"/>
	</g>
</g>
</svg>
