<?xml version="1.0" encoding="UTF-8"?> <svg xmlns="http://www.w3.org/2000/svg" width="109" height="46" viewBox="0 0 109 46" fill="none"><path d="M8.02991 34.967V44.967H4.35991V34.967H0.659912V31.767H11.7299V34.967H8.02991ZM20.2899 41.007H14.4399C14.4351 41.2249 14.4759 41.4413 14.5599 41.6425C14.6438 41.8436 14.7689 42.0249 14.9272 42.1747C15.0855 42.3245 15.2734 42.4394 15.4788 42.5122C15.6842 42.5849 15.9026 42.6138 16.1199 42.597C17.023 42.5921 17.9091 42.3508 18.6899 41.897L20.0199 44.097C18.8168 44.8377 17.4327 45.2322 16.0199 45.237C13.0199 45.237 11.3899 43.117 11.3899 40.077C11.3899 36.657 13.3199 34.897 15.9199 34.897C18.5199 34.897 20.3399 36.697 20.3399 40.377C20.2999 40.617 20.2999 40.827 20.2899 40.997V41.007ZM15.7899 37.377C15.0099 37.377 14.5899 37.907 14.4699 38.897H17.2999C17.1299 37.897 16.7999 37.377 15.7999 37.377H15.7899ZM26.6099 45.207C23.7099 45.207 21.9699 43.357 21.9699 40.007C21.9699 37.007 23.5099 34.867 26.6899 34.867C27.4719 34.8411 28.2452 35.0379 28.9198 35.4345C29.5943 35.831 30.1423 36.4111 30.4999 37.107L28.1599 38.907C27.6899 38.047 27.3599 37.627 26.6299 37.627C25.8999 37.627 25.3299 38.497 25.3299 40.067C25.3299 41.637 25.7999 42.447 26.7299 42.447C27.3699 42.447 27.8299 42.087 28.4499 41.147L30.5999 42.827C29.4399 44.527 28.3699 45.197 26.5999 45.197L26.6099 45.207ZM38.2099 45.007V39.377C38.2099 38.077 37.7799 37.747 37.0799 37.747C36.3799 37.747 35.9199 38.087 35.9199 39.347V45.017H32.5199V32.617L35.9199 31.257V35.757C36.6238 35.1799 37.5098 34.8715 38.4199 34.887C40.5899 34.887 41.6199 36.347 41.6199 38.947V45.017L38.2099 45.007Z" fill="white"></path><path d="M49.77 45.207C45.84 45.207 43.77 42.307 43.77 38.387C43.77 34.137 46.27 31.567 49.77 31.567C53.02 31.567 54.3 32.967 55.21 35.467L51.89 36.767C51.41 35.537 50.96 34.767 49.75 34.767C48.22 34.767 47.55 36.297 47.55 38.397C47.55 40.497 48.19 42.017 49.78 42.017C50.93 42.017 51.42 41.397 52.14 40.147L55.24 41.797C54.781 42.8554 54.0111 43.7492 53.0324 44.36C52.0537 44.9708 50.9125 45.2697 49.76 45.217L49.77 45.207ZM63.63 38.807C63.4424 38.5626 63.2039 38.3618 62.9311 38.2185C62.6584 38.0752 62.3577 37.9928 62.05 37.977C61.22 37.977 60.71 38.377 60.71 39.577V44.977H57.31V35.077H60.71V35.797C61.1795 35.3014 61.804 34.9808 62.4804 34.8881C63.1567 34.7953 63.8445 34.9361 64.43 35.287L63.63 38.807ZM71.73 44.987V44.327C71.0349 44.9059 70.1544 45.2148 69.25 45.197C67.08 45.197 66.05 43.737 66.05 41.127V35.097H69.45V40.697C69.45 41.977 69.89 42.317 70.59 42.317C71.29 42.317 71.72 41.977 71.72 40.737V35.097H75.14V45.017L71.73 44.987ZM83.29 44.987V39.357C83.29 38.057 82.85 37.727 82.16 37.727C81.47 37.727 81 38.067 81 39.327V44.997H77.6V35.097H81V35.757C81.7039 35.1799 82.5899 34.8715 83.5 34.887C85.67 34.887 86.7 36.347 86.7 38.947V45.017L83.29 44.987ZM93.34 45.187C90.44 45.187 88.69 43.337 88.69 39.987C88.69 36.987 90.24 34.847 93.41 34.847C94.1931 34.8228 94.967 35.0202 95.6428 35.4165C96.3186 35.8128 96.8688 36.3918 97.23 37.087L94.89 38.857C94.41 37.997 94.09 37.577 93.36 37.577C92.63 37.577 92.06 38.447 92.06 40.017C92.06 41.587 92.53 42.397 93.46 42.397C94.1 42.397 94.56 42.037 95.18 41.097L97.33 42.777C96.18 44.517 95.1 45.177 93.35 45.177L93.34 45.187ZM104.94 44.987V39.357C104.94 38.057 104.51 37.727 103.81 37.727C103.11 37.727 102.66 38.067 102.66 39.327V44.997H99.26V32.597L102.66 31.237V35.737C103.359 35.1582 104.243 34.8495 105.15 34.867C107.33 34.867 108.35 36.327 108.35 38.927V44.997L104.94 44.987Z" fill="white"></path><path d="M29.0249 0.752998V8.689H36.9499V24.549H44.8859V8.689H52.8109V0.752998H29.0249ZM60.7469 16.613V8.688H52.8099V24.548H76.6069V16.612L60.7469 16.613ZM60.7469 0.752998H76.6069V8.689H60.7469V0.752998Z" fill="white"></path></svg> 