<svg xmlns="http://www.w3.org/2000/svg" width="230" height="96" fill="none"><g clip-path="url(#a)"><path fill="#0A9600" d="M15.863 73.53v21.333H8.034V73.53H.141v-6.827h23.616v6.827zm26.155 12.885h-12.48a3.326 3.326 0 0 0 3.584 3.392 11.03 11.03 0 0 0 5.483-1.493l2.837 4.693a16.4 16.4 0 0 1-8.533 2.432c-6.4 0-9.878-4.523-9.878-11.008 0-7.296 4.118-11.05 9.664-11.05 5.547 0 9.43 3.84 9.43 11.69-.086.512-.086.96-.107 1.323zm-9.6-7.744c-1.664 0-2.56 1.13-2.816 3.243h6.037c-.362-2.134-1.066-3.243-3.2-3.243zm23.083 16.704c-6.187 0-9.899-3.947-9.899-11.093 0-6.4 3.285-10.966 10.07-10.966a8.81 8.81 0 0 1 8.127 4.78l-4.992 3.84c-1.002-1.836-1.706-2.732-3.264-2.732S52.77 81.06 52.77 84.41s1.003 5.077 2.987 5.077c1.365 0 2.346-.768 3.669-2.773l4.587 3.584c-2.475 3.626-4.758 5.056-8.534 5.056zm24.746-.427v-12.01c0-2.774-.917-3.478-2.41-3.478s-2.475.726-2.475 3.414V94.97h-7.253V68.516l7.253-2.9v9.6a8.2 8.2 0 0 1 5.333-1.857c4.63 0 6.827 3.115 6.827 8.661v12.95z"/><path fill="#fff" d="M104.909 95.375c-8.384 0-12.8-6.187-12.8-14.55 0-9.066 5.334-14.549 12.8-14.549 6.934 0 9.664 2.987 11.606 8.32l-7.083 2.774c-1.024-2.624-1.984-4.267-4.565-4.267-3.264 0-4.694 3.264-4.694 7.744s1.366 7.723 4.758 7.723c2.453 0 3.498-1.323 5.034-3.99l6.614 3.52a12.14 12.14 0 0 1-11.691 7.296zm29.568-13.653a4.54 4.54 0 0 0-3.37-1.77c-1.771 0-2.859.852-2.859 3.412v11.52h-7.253v-21.12h7.253V75.3a6.4 6.4 0 0 1 7.936-1.088zm17.28 13.184v-1.408a8.02 8.02 0 0 1-5.29 1.856c-4.63 0-6.827-3.115-6.827-8.683V73.807h7.253v11.947c0 2.73.939 3.456 2.432 3.456 1.494 0 2.411-.726 2.411-3.37V73.806h7.296V94.97zm24.662 0v-12.01c0-2.774-.939-3.478-2.411-3.478s-2.475.725-2.475 3.413v12.096h-7.253v-21.12h7.253v1.408a8.2 8.2 0 0 1 5.334-1.856c4.629 0 6.826 3.115 6.826 8.661v12.95zm21.44.426c-6.187 0-9.92-3.946-9.92-11.093 0-6.4 3.306-10.965 10.069-10.965a8.87 8.87 0 0 1 8.149 4.778l-4.992 3.776c-1.024-1.834-1.706-2.73-3.264-2.73s-2.773 1.856-2.773 5.205 1.003 5.077 2.987 5.077c1.365 0 2.346-.768 3.669-2.773l4.587 3.584c-2.454 3.712-4.758 5.12-8.491 5.12zm24.746-.426v-12.01c0-2.774-.917-3.478-2.41-3.478s-2.454.725-2.454 3.413v12.096h-7.253V68.474l7.253-2.902v9.6a8.1 8.1 0 0 1 5.312-1.856c4.651 0 6.827 3.115 6.827 8.662v12.95z"/><path fill="#0A9600" d="M60.654.54v16.93h16.907v33.835h16.93V17.47h16.907V.54zm67.674 33.835V17.467h-16.932v33.835h50.767v-16.93zm0-33.835h33.835v16.93h-33.835z"/></g><defs><clipPath id="a"><path fill="#fff" d="M0 0h230v96H0z"/></clipPath></defs></svg>