<svg xmlns="http://www.w3.org/2000/svg" width="74" height="33" fill="none"><g fill="#FFFEFB" clip-path="url(#a)"><path d="M30.873 13.724c.042-.297.033-.64.072-1.035.112-1.332.185-2.318.127-2.66-.066-.638-.522-1.118-1.211-1.15-.591-.033-1.323.232-1.502.876-.359 1.338-.697 3.462-.823 4.302-.93.172-3.622.685-5.384 1.027l.217-2.958a1.17 1.17 0 0 0-.57-1.117c-.4-.235-.843-.273-1.23-.017-.727.413-1.15 1.162-1.222 2.197-.04.345-.163 1.284-.279 2.516-.357 3.257-.967 8.143-.975 9.718l.005.197c.012.442-.024.935.233 1.37.102.146.204.29.356.434.353.335.8.471 1.288.36.441-.06.827-.366 1.013-.764.046-.15.092-.249.137-.398.126-.84.652-7.052.808-8.63.88-.22 3.474-.73 5.186-1.07-.11 1.38-.27 2.81-.38 4.24-.155 1.628-.307 3.305-.464 4.834-.033.64.327 1.221.973 1.45.148.045.346.09.494.086.442-.012.83-.219 1.066-.619.283-.45.367-.993.452-1.537l.238-2.17c.2-1.728.352-3.454.553-5.18.114-1.283.114-1.283.796-1.547l.244-.055c.585-.212.96-.96.843-1.646-.06-.441-.418-.924-1.06-1.054M71.06 4.062c-2.367-2.103-6.284-1.36-7.837 1.336-2.683 4.597 2.418 7.76 3.748 11.611 3.673 10.629-14.128 12.817-19.455 6.66-1.217-1.396-3.18.673-1.963 2.068 5.023 5.821 15.25 5.553 20.986 1.074 3.279-2.546 4.507-6.366 3.272-10.319-.646-2.148-1.869-3.74-3.193-5.476-1.018-1.301-2.004-3.243-.467-4.661.72-.659 2.089-1.039 2.946-.225 1.361 1.244 3.324-.825 1.963-2.068M46.626 8.49c.034-.591-.125-1.03-.428-1.317-.253-.289-.65-.426-1.142-.413-.886-.026-1.152 1.113-1.14 1.555l-.074.937c-.198 3.695-.338 5.863-.838 9.32-.512-.774-.974-1.5-1.435-2.176-.564-.871-1.129-1.791-1.895-2.853a50 50 0 0 0-1.732-2.267l-.05-.048c-.457-.53-1.117-1.3-2.39-1.07-.98.174-1.247 1.214-1.378 1.857l-.046.1a35 35 0 0 0-.671 4.445c-.194 1.973-.387 3.995-.582 5.968l-.154 1.628c-.039.394.119.784.373 1.072.253.289.601.427.945.418.05 0 .148-.004.197-.005 1.13-.079 1.301-1.018 1.386-1.561.084-.544.165-1.185.2-1.776.042-.248.035-.493.08-.691.123-.938.193-2.023.312-3.108.159-1.43.316-2.96.478-4.293.51.725 1.177 1.74 1.791 2.66.769 1.16 1.587 2.368 2.1 3.142.152.193.256.387.36.581.564.92 1.233 2.034 2.703 1.799.244-.056.488-.16.68-.362 1.307-.773 1.408-2.546 1.487-3.286.351-1.633.757-6.81.863-10.256"/><path d="M51.683 21.198c.07-1.084.19-2.12.26-3.205 2.913 2.286 5.995 3.484 9.965 2.937 1.962-.248 1.929-3.396-.082-3.146-3.236.429-5.62-.444-7.93-2.252 2.537-2.674 4.618-5.877 7.004-8.695 1.289-1.51-.934-3.715-2.27-2.154-2.196 2.566-4.09 5.42-6.335 7.988q.218-2.958.584-5.92c.243-1.973-2.778-2.73-3.021-.756-.703 5.085-.817 10.156-1.274 15.235-.241 2.072 2.905 1.99 3.098-.032M23.082 7.434c3.375-.728 6.898-1.46 12.093-2.236.735-.117 1.065-.667 1.052-1.159-.016-.59-.574-1.264-1.413-1.34-.788-.029-1.865.147-2.748.268-.244.056-.441.061-.636.115-3.235.479-6.073 1.045-9.109 1.616q-2.129.425-4.405.854c-1.518.286-3.523.732-5.136 1.118-.979.223-1.858.442-2.3.503a96 96 0 0 0-7.434 1.67s-1.221.328-1.502.876c-.234.45-.27.942-.11 1.43.159.439.512.774.958.91.2.093.396.088.592.033a35 35 0 0 0 3.078-.818c.487-.16 1.026-.273 1.513-.433 1.076-.274 2.15-.549 3.274-.873l1.075-.274-.34 3.944c-.295 3.747-.596 7.297-.896 10.847-.105 1.626-.118 3.004-.036 4.281.066.638.78 1.603 1.422 1.685l.098-.003c.688-.018 1.408-.725 1.64-1.223.28-.647.41-3.16.396-3.7-.015-.59.445-9.31 1.015-13.851.121-.988.24-2.122.324-2.666.538-.112 1.711-.389 2.739-.612 1.712-.34 3.278-.677 4.796-.962"/></g><defs><clipPath id="a"><path fill="#fff" d="M.129 2.623 72.399.731l.785 29.99-72.27 1.892z"/></clipPath></defs></svg>