<?xml version="1.0" encoding="UTF-8"?> <svg xmlns="http://www.w3.org/2000/svg" width="74" height="33" viewBox="0 0 74 33" fill="none"><g clip-path="url(#clip0_1567_32509)"><path d="M30.8732 13.7236C30.9146 13.4273 30.9056 13.0832 30.9445 12.6886C31.0572 11.3573 31.1298 10.3715 31.0716 10.0286C31.0057 9.39077 30.5504 8.91072 29.8608 8.87958C29.2695 8.84587 28.5385 9.111 28.3586 9.75527C28 11.093 27.6621 13.2173 27.5365 14.057C26.6062 14.2289 23.9138 14.7422 22.1517 15.0835L22.3694 12.126C22.407 11.6822 22.1988 11.2449 21.799 11.0094C21.3993 10.7739 20.9555 10.7363 20.5686 10.9924C19.8415 11.405 19.4183 12.1541 19.347 13.1891C19.3069 13.5345 19.1839 14.4725 19.0685 15.7054C18.711 18.9618 18.101 23.8483 18.0931 25.4228L18.0982 25.6195C18.1098 26.0619 18.0735 26.5549 18.3309 26.9909C18.4331 27.1358 18.5353 27.2807 18.6867 27.4243C19.0398 27.7595 19.4861 27.8954 19.9752 27.7842C20.4164 27.7234 20.802 27.4182 20.9883 27.0197C21.0336 26.8709 21.0802 26.7713 21.1255 26.6225C21.2511 25.7829 21.7772 19.5703 21.9327 17.9919C22.8125 17.7721 25.4065 17.2614 27.1195 16.9213C27.0081 18.3018 26.8488 19.7326 26.7386 21.1622C26.5844 22.7898 26.4316 24.4665 26.2748 25.9957C26.2424 26.6361 26.602 27.2171 27.2475 27.4462C27.3963 27.4915 27.5943 27.5355 27.7417 27.5316C28.1842 27.52 28.5724 27.3131 28.8079 26.9133C29.0913 26.4631 29.1755 25.9198 29.2596 25.3764L29.498 23.2055C29.6987 21.4783 29.8503 19.7524 30.0511 18.0253C30.1651 16.7432 30.1651 16.7432 30.8469 16.4793L31.0915 16.4237C31.6763 16.2116 32.0503 15.4639 31.9339 14.7782C31.8732 14.337 31.5162 13.8543 30.8732 13.7236Z" fill="#FFFEFB"></path><path d="M71.06 4.0617C68.6927 1.95902 64.7764 2.70113 63.2235 5.39845C60.5396 9.99487 65.6405 13.1575 66.9713 17.0092C70.6443 27.638 52.843 29.8261 47.516 23.6683C46.2988 22.2735 44.3359 24.342 45.5531 25.7368C50.5761 31.5582 60.8021 31.2904 66.5392 26.8108C69.818 24.2651 71.0463 20.4447 69.8112 16.4921C69.1646 14.3444 67.9422 12.7529 66.6176 11.0164C65.5996 9.71478 64.614 7.7727 66.1512 6.35492C66.8719 5.69649 68.2395 5.3163 69.0971 6.13019C70.458 7.37368 72.4209 5.30519 71.06 4.0617Z" fill="#FFFEFB"></path><path d="M46.6264 8.49C46.6601 7.89875 46.501 7.46014 46.1983 7.17289C45.9448 6.88434 45.5476 6.74715 45.056 6.76002C44.1697 6.73403 43.9044 7.87252 43.916 8.31499L43.8421 9.25167C43.6437 12.9467 43.5037 15.115 43.0038 18.5719C42.4916 17.7981 42.0298 17.0723 41.5693 16.3956C41.0053 15.5248 40.4401 14.6049 39.6743 13.5426C39.0107 12.6252 38.4506 11.9019 37.9422 11.2757L37.8918 11.2278C37.4351 10.6986 36.7754 9.92869 35.5023 10.1588C34.5229 10.3321 34.255 11.3722 34.1242 12.0152L34.0776 12.1148C33.8148 13.3516 33.5572 14.7851 33.4069 16.5601C33.2126 18.5331 33.0195 20.5552 32.8252 22.5282L32.671 24.1558C32.6322 24.5504 32.79 24.9398 33.0435 25.2283C33.297 25.5169 33.645 25.6554 33.9892 25.6464C34.0384 25.6451 34.1367 25.6425 34.1858 25.6412C35.3153 25.5624 35.4875 24.6232 35.5717 24.0798C35.6558 23.5364 35.7374 22.8947 35.7711 22.3035C35.8139 22.0564 35.8074 21.8106 35.8514 21.6126C35.9745 20.6746 36.0445 19.5905 36.1637 18.505C36.323 17.0741 36.4797 15.5449 36.6416 14.2123C37.1526 14.9369 37.8187 15.9526 38.4331 16.8713C39.2015 18.0319 40.0203 19.2404 40.5325 20.0141C40.6852 20.2069 40.7886 20.401 40.8921 20.5951C41.4574 21.515 42.1261 22.629 43.5959 22.3938C43.8404 22.3382 44.0836 22.2334 44.2751 22.0316C45.5832 21.2594 45.6844 19.4856 45.7634 18.7456C46.1142 17.1129 46.5198 11.9366 46.6264 8.49Z" fill="#FFFEFB"></path><path d="M51.6825 21.198C51.7525 20.1138 51.8729 19.0775 51.9429 17.9933C54.8562 20.2785 57.9378 21.4769 61.9085 20.9302C63.8699 20.682 63.8366 17.5343 61.8261 17.7837C58.5903 18.2128 56.206 17.3405 53.8956 15.5315C56.433 12.8576 58.5138 9.65454 60.8999 6.83701C62.1887 5.32735 59.9663 3.12247 58.6296 4.68259C56.4337 7.24915 54.5406 10.103 52.2955 12.6708C52.4407 10.6991 52.635 8.72614 52.8785 6.75188C53.122 4.77761 50.1011 4.02036 49.8576 5.99463C49.1545 11.0804 49.0412 16.1506 48.5839 21.2299C48.343 23.3025 51.4894 23.2201 51.6825 21.198Z" fill="#FFFEFB"></path><path d="M23.0817 7.43359C26.4572 6.70564 29.9803 5.97382 35.1749 5.19823C35.9097 5.08059 36.2397 4.53078 36.2268 4.03915C36.2114 3.44919 35.6526 2.77506 34.8142 2.69862C34.0263 2.67005 32.9486 2.84587 32.0662 2.96737C31.8217 3.02297 31.625 3.02811 31.4297 3.08243C28.1952 3.5607 25.3566 4.12701 22.3213 4.69846C20.902 4.98161 19.4335 5.26605 17.9159 5.55178C16.3983 5.8375 14.3929 6.28359 12.7795 6.67022C11.8014 6.89262 10.9216 7.11245 10.4804 7.1732C7.73882 7.68777 5.73342 8.13386 3.04616 8.84379C3.04616 8.84379 1.8248 9.17096 1.54398 9.71948C1.30975 10.1684 1.27346 10.6613 1.43382 11.1491C1.5929 11.5877 1.94605 11.9228 2.39239 12.0587C2.59162 12.1519 2.78827 12.1468 2.98364 12.0924C4.01092 11.8688 5.03692 11.5959 6.06163 11.2739C6.5494 11.1135 7.08762 11.001 7.57539 10.8407C8.65055 10.5665 9.72571 10.2924 10.8487 9.9678L11.9239 9.69366L11.5844 13.6383C11.289 17.385 10.9883 20.9351 10.6877 24.4852C10.5827 26.1114 10.5696 27.4893 10.6522 28.7663C10.7181 29.4041 11.4322 30.3694 12.0739 30.4509C12.123 30.4497 12.1722 30.4484 12.1722 30.4484C12.8605 30.4303 13.5799 29.7227 13.8129 29.2247C14.0911 28.5778 14.2221 26.0653 14.2079 25.5245C14.1925 24.9346 14.6529 16.2146 15.2228 11.6736C15.3445 10.6864 15.4624 9.5518 15.5466 9.00843C16.0848 8.89594 17.2583 8.61922 18.2856 8.39554C19.9985 8.0555 21.5641 7.71932 23.0817 7.43359Z" fill="#FFFEFB"></path></g><defs><clipPath id="clip0_1567_32509"><rect width="72.2951" height="30" fill="white" transform="translate(0.128906 2.62305) rotate(-1.5)"></rect></clipPath></defs></svg> 