<?xml version="1.0" encoding="UTF-8"?> <svg xmlns="http://www.w3.org/2000/svg" id="Layer_1" data-name="Layer 1" version="1.1" viewBox="0 0 64 64"><defs><style> .cls-1, .cls-2 { fill: none; } .cls-1, .cls-3 { stroke-width: 0px; } .cls-2 { stroke: #0c2233; stroke-linecap: round; stroke-linejoin: round; stroke-width: 3px; } .cls-3 { fill: #0c2233; } </style></defs><path class="cls-1" d="M44.1,23.9h-1.9c1.5-4.7,3.3-12.4-2.1-15.4-1.4-.8-5.8-2.1-6.4.3-.9,3.4-1.7,6.7-3.7,9.7-1.7,2.4-4.2,5.1-7.3,5.4v26.3c.3.1.6.2.6.2l5.6,1.8c1.8.6,3.8.9,5.7.9h13.7c2.7,0,4.9-2.2,4.9-4.9s-.1-1.2-.4-1.8c2.1-.6,3.6-2.5,3.6-4.7s-.5-2.4-1.3-3.3c.8-.9,1.3-2,1.3-3.2s-.5-2.4-1.3-3.3c.8-.9,1.3-2,1.3-3.2,0-2.7-2.2-4.9-4.9-4.9h-7.6Z"></path><path class="cls-2" d="M44.1,23.9h-1.9c1.5-4.7,3.3-12.4-2.1-15.4-1.4-.8-5.8-2.1-6.4.3-.9,3.4-1.7,6.7-3.7,9.7-1.7,2.4-4.2,5.1-7.3,5.4v26.3c.3.1.6.2.6.2l5.6,1.8c1.8.6,3.8.9,5.7.9h13.7c2.7,0,4.9-2.2,4.9-4.9s-.1-1.2-.4-1.8c2.1-.6,3.6-2.5,3.6-4.7s-.5-2.4-1.3-3.3c.8-.9,1.3-2,1.3-3.2s-.5-2.4-1.3-3.3c.8-.9,1.3-2,1.3-3.2,0-2.7-2.2-4.9-4.9-4.9h-7.6Z"></path><path class="cls-1" d="M7.3,19.7h9.3c3.4,0,6.2,2.8,6.2,6.2v24.6c0,3.4-2.8,6.2-6.2,6.2H7.3V19.7Z"></path><path class="cls-2" d="M7.3,19.7h9.3c3.4,0,6.2,2.8,6.2,6.2v24.6c0,3.4-2.8,6.2-6.2,6.2H7.3V19.7Z"></path><path class="cls-1" d="M15.1,50c1.1,0,2.1-.9,2.1-2.1s-.9-2.1-2.1-2.1-2.1.9-2.1,2.1.9,2.1,2.1,2.1Z"></path><path class="cls-3" d="M15.1,50c1.1,0,2.1-.9,2.1-2.1s-.9-2.1-2.1-2.1-2.1.9-2.1,2.1.9,2.1,2.1,2.1Z"></path><metadata></metadata></svg> 