<?xml version="1.0" encoding="UTF-8"?> <svg xmlns="http://www.w3.org/2000/svg" width="1440" height="783" viewBox="0 0 1440 783" fill="none"><mask id="mask0_2415_5450" style="mask-type:alpha" maskUnits="userSpaceOnUse" x="0" y="0" width="1440" height="783"><rect width="1440" height="783" fill="#0C2233"></rect></mask><g mask="url(#mask0_2415_5450)"><rect width="1440" height="783" fill="#0C2233"></rect><path d="M1510.99 327.437C1503.22 344.566 1491.51 358.614 1476.71 369.996C1452.55 388.596 1427.99 406.574 1405.1 427.329C1389.66 441.322 1376.97 458.581 1366.48 478.328C1347.42 514.16 1340.07 553.583 1339.34 595.216C1338.8 627.305 1335.45 658.972 1329.19 690.121C1326.52 703.458 1321.8 716.387 1321.25 730.166C1320.3 753.511 1326.92 774.535 1337.22 794.129C1348 814.566 1361.55 832.282 1378 845.929C1392.04 857.588 1407.23 867.906 1425.94 864.349C1428.55 863.859 1430.94 862.996 1433.28 862.001C1453.36 853.375 1473.54 845.024 1493.12 834.851C1499.25 831.667 1505.18 828.103 1510.98 824.27" stroke="#CEFD94" stroke-width="5.57686" stroke-linecap="round" stroke-linejoin="round"></path><path d="M1511 408.548C1489.33 427.908 1467.53 446.991 1445.04 464.941C1428.98 477.76 1414.83 492.755 1403.83 511.348C1393.06 529.519 1386.43 550.17 1382.69 572.119C1376.78 606.736 1372 641.511 1369.76 676.77C1368.64 694.499 1367.26 712.215 1368.16 729.965C1369.61 758.572 1379.08 783.533 1395.96 803.597C1412.15 822.846 1432.35 824.953 1453.63 817.417C1475.08 809.82 1493.45 795.903 1511 780.197" stroke="#CEFD94" stroke-width="3.48554" stroke-linecap="round" stroke-linejoin="round"></path><path d="M1385.76 0.418945C1385.83 2.339 1385.9 4.25216 1385.96 6.17222C1386.7 32.7077 1384.84 59.0084 1379.26 84.6391C1376.55 97.1195 1372.24 109.179 1366.93 120.582C1356.83 142.186 1351.4 165.572 1348.63 189.952C1346.23 211.045 1336.7 227.608 1324.47 242.07C1312.76 255.904 1301.46 270.187 1292.18 286.342C1289.12 291.674 1285.94 297.275 1283.62 303.374C1278.02 318.182 1270.18 331.498 1263.22 345.408C1257.35 357.053 1251.06 368.387 1244.87 379.741C1237.68 392.981 1230.46 406.277 1222.66 419.109C1218.39 426.133 1214.7 433.848 1210.81 441.307C1202.21 457.738 1195.35 475.309 1189.21 493.128C1177.47 527.075 1172.68 561.905 1181.64 598.234C1185.25 612.89 1187.32 627.643 1185.08 643.549C1183.28 656.458 1178.4 667.004 1172.65 676.929C1167.69 685.542 1163.08 694.458 1158.55 703.306C1149.46 721.07 1140.5 738.827 1130.73 756.094C1125.29 765.715 1118.33 773.802 1113.26 783.886C1107.42 795.545 1105.84 807.735 1107.8 820.029C1111.71 844.644 1115.55 869.329 1120.58 893.73C1123.78 909.291 1128.42 923.643 1139.5 933.81C1145.56 939.376 1152.51 943.037 1159.49 946.539C1172.37 953.038 1185.27 959.585 1198.41 965.353C1210.55 970.684 1222.7 976.016 1234.99 980.879C1243.84 984.387 1252.8 987.772 1261.6 991.577C1269.55 995.031 1277.85 997.434 1285.63 1001.48C1307.87 1013.08 1327.07 1030.28 1346.07 1047.92C1380.01 1079.45 1411.86 1113.91 1444.64 1147.02C1459.34 1161.88 1473.56 1177.3 1489.11 1190.99C1496.14 1197.2 1503.41 1202.69 1510.97 1207.54" stroke="#CEFD94" stroke-width="2.78843" stroke-linecap="round" stroke-linejoin="round"></path><path d="M1496.44 0.418457C1491.02 28.6047 1488.62 57.3434 1490.73 86.9731C1493.26 122.397 1494.93 157.925 1492.66 193.571C1491.02 219.05 1487.01 243.879 1481.06 268.426C1479 276.9 1476.98 285.278 1474.24 293.476C1468.17 311.592 1456.81 323.734 1442.43 330.703C1414.32 344.316 1390.27 365.375 1366.53 386.903C1344.68 406.711 1330.13 432.908 1321.88 464.348C1318.67 476.579 1313.06 487.962 1308.32 499.613C1298.87 522.923 1296.95 547.262 1298.46 572.99C1300.25 603.566 1303.89 634.218 1299.71 665.097C1297.8 679.146 1294.36 692.344 1288.38 704.286C1280.29 720.448 1277.62 738.004 1276.38 756.21C1275.15 774.534 1277.2 792.256 1283.61 809.123C1289.04 823.406 1297.65 834.422 1308.56 843C1323.29 854.534 1338.87 864.411 1353.94 875.254C1363.54 882.161 1371.8 891.423 1381.88 897.722C1398.02 907.771 1414.53 908.199 1431.51 902.266C1458.37 892.859 1484.87 882.112 1510.98 870.067" stroke="#FF6A39" stroke-width="6.97108" stroke-linecap="round" stroke-linejoin="round"></path><path d="M1422.22 0.418457C1422.81 13.5895 1422.83 26.7813 1421.88 40.0007C1420.16 63.9807 1415.84 87.3253 1410.72 110.622C1403.68 142.579 1396.86 174.584 1392.85 207.488C1388.95 239.618 1372.58 262.555 1349.22 278.427C1338.69 285.561 1329.32 294.029 1321.13 304.796C1314.2 313.92 1309.33 324.439 1303.75 334.564C1298.35 344.392 1293.45 354.566 1288.03 364.38C1283.76 372.102 1279.55 380.038 1275.7 388.098C1270.16 399.673 1263.52 410.406 1257.64 421.713C1249.63 437.122 1242.02 452.751 1236.63 469.528C1230.92 487.264 1226.24 505.422 1223.54 524.381C1219.73 551.206 1219.77 577.797 1223.25 604.54C1226.49 629.369 1225.63 653.639 1218.42 677.82C1213.36 694.824 1206.16 710.053 1198.33 725.31C1188.37 744.773 1176.33 762.827 1169.17 784.273C1154.35 828.779 1157.3 876.587 1192.44 912.896C1202.93 923.719 1215.85 930.895 1229.62 935.992C1245.87 942.021 1262.14 948.072 1278.47 953.569C1306.04 962.88 1333.54 972.473 1358.96 988.234C1373.59 997.303 1388.57 1002.12 1404.74 1002.62C1415.33 1002.94 1425.76 1000.45 1436.24 999.071C1453.4 996.805 1458.62 1002.49 1457.68 1023.22C1457.22 1033.63 1456.85 1043.98 1457.05 1054.43C1457.37 1074.44 1462.54 1091.6 1473.29 1107.15C1485.58 1124.95 1497.88 1142.74 1510.98 1159.69" stroke="#0A91AB" stroke-width="1.39422" stroke-linecap="round" stroke-linejoin="round"></path><path d="M1510.99 463.802C1495.6 477.387 1479.83 490.372 1462.9 501.498C1444.92 513.288 1431.18 531.162 1422.21 553.865C1414.54 573.349 1409.78 593.834 1405.85 614.692C1398.34 654.578 1396.17 694.975 1400.23 735.352C1402.86 761.887 1417.69 774.119 1437.56 777.786C1452.24 780.473 1465.68 773.491 1477.96 764.526C1489.32 756.251 1500.03 746.803 1510.99 737.783" stroke="#FFFEFB" stroke-width="1.39422" stroke-linecap="round" stroke-linejoin="round"></path><path d="M1458.85 0.418457C1459 4.92162 1459.22 9.4455 1459.56 13.9901C1460.93 32.949 1457.77 52.4534 1455.11 71.5021C1450.65 103.356 1446.16 135.196 1441.26 166.911C1438.72 183.446 1437.8 200.222 1435.26 216.798C1428.64 260.227 1408.89 292.91 1377.45 314.797C1353.49 331.47 1333.39 352.825 1316.47 378.373C1308.8 389.928 1302.84 403.23 1296.68 416.243C1288.48 433.544 1280.28 450.776 1273.43 468.934C1259.61 505.546 1254.18 543.415 1259.27 583.564C1261.61 602.219 1265.18 620.826 1264.04 640.102C1263.39 651.167 1260.72 661.596 1258.48 672.108C1254.06 692.959 1248.27 713.417 1239.99 732.569C1236.32 741.023 1232.45 749.435 1229.06 757.965C1217.62 786.614 1210 816.437 1216.24 848.629C1219.76 866.876 1229.07 880.324 1242.42 890.394C1258.45 902.487 1276.86 905.388 1294.53 911.155C1305.63 914.781 1316.9 917.44 1327.91 921.522C1338.03 925.3 1347.17 931.115 1356.55 936.627C1381.62 951.324 1407.73 953.963 1434.42 943.927C1454.78 936.295 1475.3 932.421 1496.56 937.297C1501.4 938.402 1506.17 939.894 1510.99 941.158" stroke="#FF6A39" stroke-width="13.9422" stroke-linecap="round" stroke-linejoin="round"></path><path d="M1510.99 518.248C1504.8 522.931 1498.62 527.648 1492.47 532.428C1480.07 542.09 1468.91 553.721 1459.72 567.604C1456.61 572.286 1454.27 578.019 1452.68 583.731C1449.12 596.356 1442.68 607.386 1439.16 619.922C1433.42 640.331 1432.43 661.258 1435.34 682.406C1436.15 688.312 1437.53 694.099 1439.55 699.659C1443.85 711.532 1452.57 717.258 1463.5 715.517C1479.62 712.934 1493.82 704.328 1508.05 695.633C1509.03 695.032 1510.02 694.424 1511 693.823" stroke="#CEFD94" stroke-width="2.78843" stroke-linecap="round" stroke-linejoin="round"></path></g></svg> 