<?xml version="1.0" encoding="UTF-8"?> <svg xmlns="http://www.w3.org/2000/svg" width="64" height="64" viewBox="0 0 64 64" fill="none"><path d="M56.6671 48.8532C56.6938 51.9466 54.1871 54.4532 51.1204 54.4799C50.8804 54.4799 50.6671 54.4799 50.4271 54.4532C47.5738 54.0266 45.4671 51.5466 45.5471 48.6399V15.3866C45.4671 12.4799 47.5738 9.9999 50.4538 9.57324C53.5204 9.22657 56.2938 11.4132 56.6405 14.4799C56.6671 14.6932 56.6671 14.9332 56.6671 15.1466V48.8532V48.8532Z" stroke="#0C2233" stroke-width="3" stroke-linecap="round" stroke-linejoin="round"></path><path d="M12.9073 54.48C15.9854 54.48 18.4806 51.9848 18.4806 48.9067C18.4806 45.8286 15.9854 43.3334 12.9073 43.3334C9.82924 43.3334 7.33398 45.8286 7.33398 48.9067C7.33398 51.9848 9.82924 54.48 12.9073 54.48Z" stroke="#0C2233" stroke-width="3" stroke-linecap="round" stroke-linejoin="round"></path><path d="M31.8677 26.3734C28.7744 26.5334 26.3477 29.1467 26.4277 32.2401V47.2534C26.4277 51.3334 28.2144 53.8134 30.8544 54.3201C33.8944 54.9334 36.8544 52.9868 37.4677 49.9468C37.5477 49.5734 37.5744 49.2001 37.5744 48.8267V32.0001C37.5744 28.9067 35.0677 26.3734 31.9744 26.3734C31.9477 26.3734 31.8944 26.3734 31.8677 26.3734Z" stroke="#0C2233" stroke-width="3" stroke-linecap="round" stroke-linejoin="round"></path></svg> 
