<?xml version="1.0" encoding="UTF-8"?> <svg xmlns="http://www.w3.org/2000/svg" width="59" height="58" viewBox="0 0 59 58" fill="none"><path d="M11.5918 46.9077L26.5026 31.9968" stroke="#FFFEFB" stroke-width="3" stroke-linecap="round" stroke-linejoin="round"></path><path d="M44.5556 49.1551L9.34473 13.9443C19.0839 4.2051 34.8406 4.2051 44.5556 13.9443C54.2947 23.6593 54.2947 39.4159 44.5556 49.1551Z" stroke="#FFFEFB" stroke-width="3" stroke-linecap="round" stroke-linejoin="round"></path><path d="M45.2086 15.1284C45.3294 17.1826 45.4502 23.2726 41.7286 29.6768C39.5294 33.4468 36.8469 35.9118 34.8652 37.3618" stroke="#FFFEFB" stroke-width="3" stroke-linecap="round" stroke-linejoin="round"></path><path d="M43.2988 13.2194C41.2446 13.0985 35.1546 12.9777 28.7504 16.6994C24.9804 18.8985 22.5154 21.581 21.0654 23.5627" stroke="#FFFEFB" stroke-width="3" stroke-linecap="round" stroke-linejoin="round"></path><path d="M9.34468 13.9443L7.14551 16.1435" stroke="#FFFEFB" stroke-width="3" stroke-linecap="round" stroke-linejoin="round"></path><path d="M20.3408 24.9402L18.1416 27.1394" stroke="#FFFEFB" stroke-width="3" stroke-linecap="round" stroke-linejoin="round"></path><path d="M33.5595 38.1592L31.3604 40.3583" stroke="#FFFEFB" stroke-width="3" stroke-linecap="round" stroke-linejoin="round"></path><path d="M44.5556 49.155L42.3564 51.3542" stroke="#FFFEFB" stroke-width="3" stroke-linecap="round" stroke-linejoin="round"></path></svg> 