<?xml version="1.0" encoding="UTF-8"?> <svg xmlns="http://www.w3.org/2000/svg" width="24" height="24" viewBox="0 0 24 24" fill="none"><path d="M2.75 7.9V5.83C2.75 4.12 4.13 2.75 5.83 2.75H7.99001" stroke="#0A91AB" stroke-width="1.5" stroke-linecap="round" stroke-linejoin="round"></path><path d="M21.0994 7.90006V5.83006C21.0994 4.12006 19.7194 2.75006 18.0194 2.75006H15.8594" stroke="#0A91AB" stroke-width="1.5" stroke-linecap="round" stroke-linejoin="round"></path><path d="M2.75 16.02V18.09C2.75 19.8 4.13 21.17 5.83 21.17H7.99001" stroke="#0A91AB" stroke-width="1.5" stroke-linecap="round" stroke-linejoin="round"></path><path d="M21.0994 16.0201V18.0901C21.0994 19.8001 19.7194 21.1701 18.0194 21.1701H15.8594" stroke="#0A91AB" stroke-width="1.5" stroke-linecap="round" stroke-linejoin="round"></path><path d="M11.8001 10.7001C13.1642 10.7001 14.2701 9.59422 14.2701 8.23007C14.2701 6.86593 13.1642 5.76007 11.8001 5.76007C10.4359 5.76007 9.33008 6.86593 9.33008 8.23007C9.33008 9.59422 10.4359 10.7001 11.8001 10.7001Z" stroke="#0A91AB" stroke-width="1.5" stroke-linecap="round" stroke-linejoin="round"></path><path d="M6.82031 17.53V16.12C6.82031 14.48 8.1503 13.16 9.7803 13.16H14.2103C15.8503 13.16 17.1703 14.49 17.1703 16.12V17.53" stroke="#0A91AB" stroke-width="1.5" stroke-linecap="round" stroke-linejoin="round"></path></svg> 