<?xml version="1.0" encoding="UTF-8"?> <svg xmlns="http://www.w3.org/2000/svg" width="64" height="64" viewBox="0 0 64 64" fill="none"><path d="M23.5728 28.9065C28.0206 28.9065 31.6262 25.3009 31.6262 20.8531C31.6262 16.4054 28.0206 12.7998 23.5728 12.7998C19.1251 12.7998 15.5195 16.4054 15.5195 20.8531C15.5195 25.3009 19.1251 28.9065 23.5728 28.9065Z" stroke="#0C2233" stroke-width="3" stroke-linecap="round" stroke-linejoin="round"></path><path d="M7.33203 51.2V46.6133C7.33203 41.28 11.652 36.96 16.9854 36.96H31.4387C36.772 36.96 41.092 41.28 41.092 46.6133V51.2" stroke="#0C2233" stroke-width="3" stroke-linecap="round" stroke-linejoin="round"></path><path d="M43.6765 31.1996C46.9755 31.1996 49.6498 28.5252 49.6498 25.2263C49.6498 21.9273 46.9755 19.2529 43.6765 19.2529C40.3775 19.2529 37.7031 21.9273 37.7031 25.2263C37.7031 28.5252 40.3775 31.1996 43.6765 31.1996Z" stroke="#0C2233" stroke-width="3" stroke-linecap="round" stroke-linejoin="round"></path><path d="M45.3867 37.1729H49.4934C53.44 37.1729 56.6401 40.3729 56.6401 44.3195V47.7329" stroke="#0C2233" stroke-width="3" stroke-linecap="round" stroke-linejoin="round"></path></svg> 