<?xml version="1.0" encoding="UTF-8"?> <svg xmlns="http://www.w3.org/2000/svg" width="64" height="64" viewBox="0 0 64 64" fill="none"><path d="M26.0271 33.8402C22.0804 33.8402 18.8004 37.1202 18.8004 41.0668C18.8004 45.0135 22.0804 48.2935 26.0271 48.2935C29.9737 48.2935 33.2537 45.0135 33.2537 41.0668V7.3335H41.7337C41.7337 7.44016 41.7337 7.44016 41.7337 7.52016C41.7337 8.18683 41.7337 8.88017 41.9204 9.54683C42.5071 12.7202 44.4271 15.5202 47.1204 17.2535C48.9604 18.5068 51.1737 19.1735 53.467 19.1735C53.467 19.1735 53.4671 19.1735 53.5737 19.1735V27.5468H53.467C49.0404 27.5468 44.9871 26.1868 41.7071 23.7868V41.0402C41.7071 49.7068 34.6671 56.6402 26.0004 56.6402C17.3337 56.6402 10.4004 49.7068 10.4004 41.0402C10.4004 32.3735 17.3337 25.3335 26.0004 25.3335V33.8402H26.0271Z" stroke="#FFFEFB" stroke-width="3" stroke-linecap="round" stroke-linejoin="round"></path></svg> 