<?xml version="1.0" encoding="UTF-8"?> <svg xmlns="http://www.w3.org/2000/svg" width="1440" height="1528" viewBox="0 0 1440 1528" fill="none"><rect width="1440" height="1524" fill="#0C2233"></rect><mask id="mask0_1517_5091" style="mask-type:alpha" maskUnits="userSpaceOnUse" x="0" y="0" width="1440" height="1528"><rect width="1440" height="1528" fill="#0C2233"></rect></mask><g mask="url(#mask0_1517_5091)"><rect width="1440" height="1528" fill="#0C2233"></rect><path d="M-161.768 1303.36C-130.755 1308.9 -99.5642 1309.34 -67.7881 1298.98C-50.4985 1293.35 -39.5056 1281.09 -29.0409 1267.57C-14.7737 1249.13 -4.20331 1228.53 5.18085 1207.3C23.0229 1166.96 25.7854 1125.44 12.6313 1083.52C-4.86138 1027.82 -16.0168 971.457 -9.68754 912.804C-6.83573 886.187 -0.530897 860.383 8.17078 835.001C13.6388 819.068 20.1549 803.801 27.7516 788.982C41.7507 761.504 58.1871 735.358 73.5349 708.636C83.9672 690.444 94.9519 672.578 105.579 654.476C116.71 635.553 129.271 617.483 141.393 599.202C161.486 568.946 183.098 539.704 186.437 501.461C188.59 476.583 180.669 454.906 167.905 435C146.195 401.193 116.865 374.527 85.1534 350.031C54.4822 326.322 20.1712 309.805 -15.8624 297.301C-50.2872 285.39 -85.6708 276.379 -121.542 269.034C-135.118 266.256 -148.451 262.307 -161.768 258.204" stroke="#FF6A39" stroke-width="8.32145" stroke-linecap="round" stroke-linejoin="round"></path><path d="M-161.771 206.595C-133.408 214.029 -105.028 221.203 -76.3309 227.199C-31.3276 236.567 12.3514 249.494 54.4948 267.896C102.09 288.631 146.094 315.581 186.515 347.739C226.643 379.637 263.465 415.159 295.859 455.32C316.309 480.685 317.682 506.344 291.853 536.015C240.472 595.01 186.881 652.2 139.61 714.615C125.351 733.416 112.019 753.127 99.3601 773.276C90.3903 787.503 57.7935 857.799 52.3174 878.866C43.1607 913.941 39.3258 949 40.5689 985.163C41.8283 1022.16 51.8949 1057.89 54.2267 1094.74C58.4354 1160.68 46.9388 1221.9 6.57471 1276.2C-29.8082 1325.07 -77.5984 1348.54 -138.543 1346.44C-146.286 1346.17 -154.029 1345.85 -161.78 1345.6" stroke="#FF6A39" stroke-width="16.6429" stroke-linecap="round" stroke-linejoin="round"></path><path d="M-168.441 1118.36C-165.077 1124.96 -155.656 1157.94 -153.584 1166.04C-148.311 1186.7 -139.902 1206.41 -116.332 1212.63C-41.1224 1225.3 -98.6116 1133.87 -111.335 1118.36C-137.367 1086.59 -140.308 1051.39 -132.484 1012.15C-125.651 977.861 -116.169 944.468 -106.931 910.848C-97.5229 876.602 -87.8463 842.421 -77.3734 808.556C-67.3961 776.106 -57.9226 743.485 -46.5316 711.408C-35.9287 681.5 -26.1139 651.276 -15.3892 621.369C-5.45255 593.5 6.9297 566.559 15.5664 538.317C26.9411 501.162 31.6372 463.796 8.27026 428.624C-2.43824 412.472 -17.7291 402.641 -35.3112 395.036C-60.555 384.043 -87.8707 380.565 -113.61 371.986C-129.673 366.648 -145.76 361.285 -161.782 355.728" stroke="#CEFD94" stroke-width="4.16073" stroke-linecap="round" stroke-linejoin="round"></path><path d="M-161.772 1400.15C-148.244 1396.17 -134.342 1393.62 -120.295 1391.54C-56.7829 1382.23 -7.22973 1348.92 33.8818 1301.52C57.2407 1274.58 74.2215 1243.56 85.4094 1209.91C92.4373 1188.81 96.1016 1166.6 95.8904 1143.96C95.2567 1084.43 90.5605 1024.87 95.411 965.347C98.271 930.24 105.754 896.083 120.769 864.079C132.639 838.722 148.36 815.485 164.61 792.841C188.984 758.887 215.268 726.25 244.209 695.985C271.167 667.792 299.856 641.305 326.798 613.169C351.611 587.267 375.766 560.284 391.122 527.558C402.903 502.395 401.806 477.273 388.652 450.819C362.571 398.194 321.135 360.43 276.724 324.616C253.024 305.506 228.105 288.582 202.464 272.211C163.993 247.649 123.117 228.312 80.5914 212.567C19.0215 189.817 -44.5957 174.778 -109.716 165.922C-127.266 163.525 -144.588 160.072 -161.78 155.896" stroke="#0A91AB" stroke-width="1.66429" stroke-linecap="round" stroke-linejoin="round"></path><path d="M-161.774 1466C-147.32 1453.54 -130.274 1443.46 -110.888 1435.65C-87.1476 1426.11 -62.0256 1420.88 -38.8374 1409.02C2.56665 1387.84 35.1959 1357.14 64.2096 1321.6C79.8174 1302.43 93.3452 1281.81 104.322 1259.87C129.809 1208.97 140.079 1154.19 138.511 1097.88C137.13 1046.79 139.965 996.158 151.95 946.727C159.367 916.194 172.156 887.148 189.039 859.556C228.745 794.565 281.264 741.007 334.417 687.74C364.836 657.232 394.54 625.975 418.273 590.007C460.896 525.569 466.689 459.823 423.326 392.59C396.238 350.577 362.447 315.25 323.351 284.782C299.594 266.29 274.756 249.585 248.521 234.587C225.568 221.49 202.713 208.206 178.891 196.937C152.421 184.416 125.032 173.35 97.302 163.893C36.2521 143.045 -26.3658 127.648 -89.5932 115.144C-113.821 110.375 -137.846 104.882 -161.774 99" stroke="#CEFD94" stroke-width="3.32858" stroke-linecap="round" stroke-linejoin="round"></path><path d="M-161.766 1262.63C-160.336 1263.12 -158.906 1263.6 -157.46 1264.06C-147.848 1267.19 -138.301 1269.7 -128.503 1271.44C-98.7579 1276.78 -72.6936 1269.69 -51.7965 1246.95C-40.4055 1234.59 -34.8482 1219.1 -30.0139 1203.51C-25.2446 1188.19 -22.0841 1172.4 -17.6479 1156.91C-9.44997 1128.11 -17.5017 1102.71 -30.5907 1076.88C-61.1075 1016.55 -67.7293 952.949 -52.8771 886.878C-41.3399 835.407 -22.1003 786.756 0.137312 739.225C29.2648 677.014 59.1559 615.176 87.9909 552.834C100.332 526.112 106.199 497.496 98.0251 468.62C87.9178 432.871 67.9145 402.818 38.5839 379.394C14.4045 360.049 -12.9436 347.65 -42.2661 337.795C-81.6308 324.576 -121.922 314.688 -161.758 303.167" stroke="#CEFD94" stroke-width="6.65716" stroke-linecap="round" stroke-linejoin="round"></path></g></svg> 