<?xml version="1.0" encoding="UTF-8"?> <svg xmlns="http://www.w3.org/2000/svg" width="1440" height="873" viewBox="0 0 1440 873" fill="none"><mask id="mask0_1982_2139" style="mask-type:alpha" maskUnits="userSpaceOnUse" x="0" y="0" width="1440" height="873"><path d="M1440 0H0V873H1440V0Z" fill="#0C2233"></path></mask><g mask="url(#mask0_1982_2139)"><path d="M1440 0H0V873H1440V0Z" fill="#0C2233"></path><path d="M1440 110C1393.66 133.101 1352.64 165.649 1316.36 205.35C1276.66 248.806 1244.9 299.13 1233.54 361.902C1228.35 390.598 1229.6 420.389 1232.63 450.017C1235.66 479.207 1240.38 508.019 1244.95 536.771C1249.18 563.602 1253.56 590.489 1257.89 617.268C1260.29 632.248 1262.41 647.722 1263.14 663.252C1265.69 718.671 1278.82 769.474 1316.31 807.886C1336.08 828.19 1358.94 844.209 1379.77 863.194C1403.78 885.174 1425.93 908.657 1440 940.349" stroke="#CEFD94" stroke-width="2.14131" stroke-linecap="round" stroke-linejoin="round"></path><path d="M1439.68 153.716C1396.08 178.463 1359.27 212.59 1327.32 254.732C1306.39 282.388 1290.32 312.077 1282.86 347.305C1276.99 374.905 1274.73 402.836 1278.77 431.588C1281.03 447.612 1281.76 464.013 1283.58 480.251C1286.85 509.553 1292.1 538.361 1297.87 567.057C1305.04 602.722 1310.82 638.882 1320.92 673.672C1331.7 710.876 1349.5 743.469 1372.6 772.603C1393.06 798.349 1415.55 821.287 1439.99 841.927" stroke="#0A91AB" stroke-width="1.07066" stroke-linecap="round" stroke-linejoin="round"></path><path d="M1440 194.487C1416.42 209.482 1394.7 227.279 1376.26 249.907C1350.18 281.899 1329.73 317.774 1319.77 360.465C1317.7 369.407 1313.33 412.43 1313.76 424.939C1317.37 533.638 1339.84 635.54 1394.5 726.569C1407.22 747.703 1423.42 764.278 1440 780.827" stroke="#FF6A39" stroke-width="10.7066" stroke-linecap="round" stroke-linejoin="round"></path><path d="M1439.99 247.914C1408.89 273.548 1385.06 306.187 1369.47 346.102C1361.72 365.912 1355.03 427.364 1355.13 436.856C1356.14 514.938 1371.88 588.022 1409.55 654.142C1418.97 670.675 1428.11 687.357 1439.99 701.842" stroke="#FF6A39" stroke-width="5.35328" stroke-linecap="round" stroke-linejoin="round"></path><path d="M1440 308.988C1417.38 341.174 1402.7 377.334 1396.86 418.36C1388.05 480.143 1403.59 535.832 1428.13 589.494C1431.92 597.83 1436.01 605.977 1440 614.2" stroke="#CEFD94" stroke-width="4.28262" stroke-linecap="round" stroke-linejoin="round"></path><path d="M1439.99 392.224C1431.55 434.631 1430.38 477.042 1439.99 519.403" stroke="#CEFD94" stroke-width="2.67664" stroke-linecap="round" stroke-linejoin="round"></path><path d="M1440 110C1393.66 133.101 1352.64 165.649 1316.36 205.35C1276.66 248.806 1244.9 299.13 1233.54 361.902C1228.35 390.598 1229.6 420.389 1232.63 450.017C1235.66 479.207 1240.38 508.019 1244.95 536.771C1249.18 563.602 1253.56 590.489 1257.89 617.268C1260.29 632.248 1262.41 647.722 1263.14 663.252C1265.69 718.671 1278.82 769.474 1316.31 807.886C1336.08 828.19 1358.94 844.209 1379.77 863.194C1403.78 885.174 1425.93 908.657 1440 940.349" stroke="#CEFD94" stroke-width="2.14131" stroke-linecap="round" stroke-linejoin="round"></path><path d="M1439.68 153.716C1396.08 178.463 1359.27 212.59 1327.32 254.732C1306.39 282.388 1290.32 312.077 1282.86 347.305C1276.99 374.905 1274.73 402.836 1278.77 431.588C1281.03 447.612 1281.76 464.013 1283.58 480.251C1286.85 509.553 1292.1 538.361 1297.87 567.057C1305.04 602.722 1310.82 638.882 1320.92 673.672C1331.7 710.876 1349.5 743.469 1372.6 772.603C1393.06 798.349 1415.55 821.287 1439.99 841.927" stroke="#0A91AB" stroke-width="1.07066" stroke-linecap="round" stroke-linejoin="round"></path><path d="M1440 194.487C1416.42 209.482 1394.7 227.279 1376.26 249.907C1350.18 281.899 1329.73 317.774 1319.77 360.465C1317.7 369.407 1313.33 412.43 1313.76 424.939C1317.37 533.638 1339.84 635.54 1394.5 726.569C1407.22 747.703 1423.42 764.278 1440 780.827" stroke="#FF6A39" stroke-width="10.7066" stroke-linecap="round" stroke-linejoin="round"></path><path d="M1439.99 247.914C1408.89 273.548 1385.06 306.187 1369.47 346.102C1361.72 365.912 1355.03 427.364 1355.13 436.856C1356.14 514.938 1371.88 588.022 1409.55 654.142C1418.97 670.675 1428.11 687.357 1439.99 701.842" stroke="#FF6A39" stroke-width="5.35328" stroke-linecap="round" stroke-linejoin="round"></path><path d="M1440 308.988C1417.38 341.174 1402.7 377.334 1396.86 418.36C1388.05 480.143 1403.59 535.832 1428.13 589.494C1431.92 597.83 1436.01 605.977 1440 614.2" stroke="#CEFD94" stroke-width="4.28262" stroke-linecap="round" stroke-linejoin="round"></path><path d="M1439.99 392.224C1431.55 434.631 1430.38 477.042 1439.99 519.403" stroke="#CEFD94" stroke-width="2.67664" stroke-linecap="round" stroke-linejoin="round"></path></g></svg> 