<?xml version="1.0" encoding="UTF-8"?> <svg xmlns="http://www.w3.org/2000/svg" width="64" height="64" viewBox="0 0 64 64" fill="none"><path d="M55.573 20.1865C55.0397 18.0265 53.3063 16.3198 51.253 15.7598C47.3863 14.6665 32.053 14.6665 32.053 14.6665C32.053 14.6665 16.6397 14.6665 12.7463 15.7598C10.6663 16.2932 8.95968 18.0265 8.42635 20.1865C7.33302 23.9732 7.33301 32.0798 7.33301 32.0798C7.33301 32.0798 7.33302 40.1065 8.42635 43.9732C8.95968 46.1332 10.693 47.7598 12.7463 48.2932C16.613 49.2798 32.053 49.2798 32.053 49.2798C32.053 49.2798 47.3863 49.2798 51.253 48.2932C53.333 47.7598 55.0397 46.1332 55.573 43.9732C56.6663 40.1065 56.6663 32.0798 56.6663 32.0798C56.6663 32.0798 56.6663 23.9732 55.573 20.1865Z" stroke="#FFFEFB" stroke-width="3" stroke-linecap="round" stroke-linejoin="round"></path><path d="M26.5068 37.4667V26.7466C26.5068 25.6 27.7335 24.88 28.7201 25.4667L38.1335 30.8266C39.1201 31.3866 39.1201 32.8266 38.1335 33.4133L28.7201 38.7733C27.7335 39.3066 26.5068 38.5867 26.5068 37.4667Z" stroke="#FFFEFB" stroke-width="3" stroke-linecap="round" stroke-linejoin="round"></path></svg> 