<?xml version="1.0" encoding="UTF-8"?> <svg xmlns="http://www.w3.org/2000/svg" width="59" height="58" viewBox="0 0 59 58" fill="none"><path d="M49.3164 21.7741C52.6997 25.8583 52.6997 32.1416 49.3164 36.2258C44.4831 42.0499 37.4022 45.7716 29.4997 45.7716C21.5972 45.7716 14.5405 42.0741 9.68301 36.2258C6.29967 32.1416 6.29967 25.8583 9.68301 21.7741C14.5163 15.9499 21.5972 12.2283 29.4997 12.2283C37.4022 12.2283 44.4589 15.9258 49.3164 21.7741Z" stroke="#FFFEFB" stroke-width="3" stroke-linecap="round" stroke-linejoin="round"></path><path d="M49.3164 21.7741C52.6997 25.8583 52.6997 32.1416 49.3164 36.2258C44.4831 42.0499 37.4022 45.7716 29.4997 45.7716C21.5972 45.7716 14.5405 42.0741 9.68301 36.2258C6.29967 32.1416 6.29967 25.8583 9.68301 21.7741C14.5163 15.9499 21.5972 12.2283 29.4997 12.2283C37.4022 12.2283 44.4589 15.9258 49.3164 21.7741Z" stroke="#FFFEFB" stroke-width="3" stroke-linecap="round" stroke-linejoin="round"></path><path d="M29.4999 36.4433C33.6108 36.4433 36.9432 33.1108 36.9432 29C36.9432 24.8891 33.6108 21.5566 29.4999 21.5566C25.3891 21.5566 22.0566 24.8891 22.0566 29C22.0566 33.1108 25.3891 36.4433 29.4999 36.4433Z" stroke="#FFFEFB" stroke-width="3" stroke-linecap="round" stroke-linejoin="round"></path></svg> 