<?xml version="1.0" encoding="UTF-8"?> <svg xmlns="http://www.w3.org/2000/svg" width="64" height="64" viewBox="0 0 64 64" fill="none"><path d="M31.9995 7.3335C32.8795 7.3335 33.7595 7.65351 34.4528 8.26685C36.8262 10.3735 40.7195 14.4535 43.3861 20.1335C43.9461 21.3335 44.4528 22.5868 44.8794 23.9202C45.2261 25.0402 45.5195 26.1601 45.7595 27.3068C47.0128 33.4668 45.6262 39.8402 43.6795 45.7069C42.9328 48.0002 42.3461 50.6402 40.9861 52.6668C40.9061 52.7735 40.8528 52.8801 40.7994 52.9601C40.0794 53.9201 38.9595 54.4801 37.7595 54.4801C37.7595 54.4801 34.8795 54.4801 31.9995 54.4801C29.1195 54.4801 26.2395 54.4801 26.2395 54.4801C25.0395 54.4801 23.9195 53.9201 23.1995 52.9601C23.1462 52.8535 23.0928 52.7735 23.0128 52.6668C21.6528 50.6402 21.0661 48.0269 20.3195 45.7069C18.3995 39.8402 16.9861 33.4668 18.2395 27.3068C18.4795 26.1601 18.7728 25.0402 19.1195 23.9202C19.5462 22.5868 20.0528 21.3335 20.6128 20.1335C23.2795 14.4535 27.1728 10.4002 29.5461 8.26685C30.2394 7.65351 31.1195 7.3335 31.9995 7.3335Z" stroke="#FFFEFB" stroke-width="3" stroke-linecap="round" stroke-linejoin="round"></path><path d="M40.9863 52.6667L45.7597 56.1868C46.4797 56.7201 47.3597 56.8268 48.1864 56.5334C48.533 56.3734 48.8263 56.1868 49.0663 55.9468C49.413 55.6001 49.653 55.1734 49.7597 54.6667L51.4663 46.2134C51.7063 45.0667 51.3863 43.9467 50.6663 43.0667L46.1064 37.7601C46.133 37.7068 46.133 37.6534 46.133 37.6001" stroke="#FFFEFB" stroke-width="3" stroke-linecap="round" stroke-linejoin="round"></path><path d="M17.8666 37.7334L13.3065 43.0401C12.5865 43.9201 12.2665 45.0668 12.5065 46.1868L14.2132 54.6401C14.3732 55.4934 14.9866 56.1868 15.7866 56.5068C16.6132 56.8001 17.4932 56.6934 18.2132 56.1601L22.9865 52.6401" stroke="#FFFEFB" stroke-width="3" stroke-linecap="round" stroke-linejoin="round"></path><path d="M31.9998 31.4399C34.9158 31.4399 37.2798 29.076 37.2798 26.1599C37.2798 23.2438 34.9158 20.8799 31.9998 20.8799C29.0837 20.8799 26.7197 23.2438 26.7197 26.1599C26.7197 29.076 29.0837 31.4399 31.9998 31.4399Z" stroke="#FFFEFB" stroke-width="3" stroke-linecap="round" stroke-linejoin="round"></path><path d="M21.4395 44.6401H42.5594" stroke="#FFFEFB" stroke-width="3" stroke-linecap="round" stroke-linejoin="round"></path></svg> 