<svg xmlns="http://www.w3.org/2000/svg" width="40" height="36" fill="none"><path fill="#76B39D" d="M0 36V.937L40 0v35.13z"/><path fill="#0C2233" d="M31.287 11.512a1.95 1.95 0 0 0-1.322-1.41C28.197 9.543 24.363 9 20 9s-8.197.542-9.965 1.103a1.95 1.95 0 0 0-1.323 1.409C8.417 12.767 8 15.094 8 18.23s.417 5.464.713 6.719a1.95 1.95 0 0 0 1.322 1.409c1.768.56 5.602 1.102 9.965 1.102s8.197-.541 9.965-1.102a1.95 1.95 0 0 0 1.323-1.41c.295-1.254.712-3.581.712-6.718s-.417-5.464-.713-6.72M17.692 21.923V14.54l6.857 3.692z"/></svg>